<svg id="Layer_1" data-name="Layer 1" xmlns="http://www.w3.org/2000/svg" viewBox="0 0 197.534 238.85"><defs><clipPath id="clip-path"><path d="M184.781 103.842h-.388a4.05 4.05 0 00-.108-.6h2.982a3.481 3.481 0 003.482-3.482V12.545a3.482 3.482 0 00-3.482-3.483H11.149a3.484 3.484 0 00-3.483 3.483V99.76a3.483 3.483 0 003.483 3.482h.08a3.615 3.615 0 00-.131.882 8.522 8.522 0 00-6.233 8.205v78.241a8.52 8.52 0 004.992 7.752 3.39 3.39 0 00-.08.654v27.675a3.481 3.481 0 003.48 3.483h170.844a3.482 3.482 0 003.482-3.483v-27.675c0-.107-.02-.208-.03-.313a8.522 8.522 0 005.753-8.055v-78.24a8.525 8.525 0 00-8.525-8.526z" fill="none"/></clipPath><style>.cls-2{fill:#323031}.cls-3{fill:#819356}.cls-4{fill:#079247}.cls-5{fill:#f2f2f2}.cls-6{fill:#6e7071}.cls-7{fill:#424242}.cls-8{fill:#5a5a5d}.cls-22,.cls-9{fill:#221f1f}.cls-10{fill:#bc2030}.cls-12{fill:#d6dd28}.cls-13{fill:#37b24a}.cls-15{letter-spacing:.001em}.cls-18{fill:#fff}.cls-22{font-size:5.8038px;font-family:Heebo-Light,Heebo;font-weight:300}.cls-21{letter-spacing:.001em}.cls-23{letter-spacing:-.0001em}.cls-28{fill:#383d37}.cls-29{fill:#b0a997}</style></defs><path class="cls-2" d="M186.826 103.07H10.708a3.483 3.483 0 01-3.483-3.483V12.372a3.484 3.484 0 013.483-3.483h176.118a3.482 3.482 0 013.482 3.483v87.215a3.481 3.481 0 01-3.482 3.482"/><path class="cls-2" d="M180.38 198.832H14.253a3.597 3.597 0 01-3.598-3.598v-91.245a3.597 3.597 0 013.598-3.597H180.38a3.597 3.597 0 013.598 3.597v91.245a3.597 3.597 0 01-3.598 3.598"/><path class="cls-2" d="M12.819 195.321H183.66a3.483 3.483 0 013.482 3.482v27.675a3.482 3.482 0 01-3.482 3.483H12.818a3.481 3.481 0 01-3.48-3.483v-27.675a3.482 3.482 0 013.48-3.482"/><path class="cls-3" d="M82.386 110.746h36.167V83.698H82.386a2.35 2.35 0 00-2.35 2.349v22.35a2.35 2.35 0 002.35 2.349"/><path class="cls-3" d="M80.293 64.264v36.128h27.972V64.264a2.39 2.39 0 00-2.389-2.39H82.682a2.389 2.389 0 00-2.389 2.39"/><path class="cls-4" d="M95.733 84.471h9.458v16.818h-9.458z"/><path class="cls-2" d="M83.73 92.211h9.629v17.368H83.73z"/><path class="cls-3" d="M92.796 164.932a4.651 4.651 0 01-4.65-4.65v-43.813a.474.474 0 01.472-.474h8.357a.474.474 0 01.473.474v43.811a4.652 4.652 0 01-4.652 4.652M106.47 165.134a4.65 4.65 0 01-4.65-4.65V116.67a.474.474 0 01.473-.474h8.356a.474.474 0 01.473.474v43.81a4.652 4.652 0 01-4.652 4.653M137.013 195.886l.007-89.565a1.164 1.164 0 011.164-1.165h9.209l-.007 92.36h-8.742a1.63 1.63 0 01-1.631-1.63M62.718 105.74l-.007 89.565a1.164 1.164 0 01-1.165 1.164h-9.209l.007-92.36h8.743a1.631 1.631 0 011.631 1.63"/><path class="cls-5" d="M144.093 92.83V47.51a.825.825 0 01.824-.824h9.318v47.297h-8.989a1.153 1.153 0 01-1.153-1.153"/><path class="cls-3" d="M108.817 45.172h25.346v13.512h-25.346zM113.158 58.684h15.348v9.712h-15.348zM64.62 95.023h-5.57a1.964 1.964 0 01-1.964-1.964V24.31a1.964 1.964 0 011.964-1.965h5.569a1.964 1.964 0 011.964 1.964V93.06a1.964 1.964 0 01-1.964 1.964"/><path class="cls-3" d="M60.124 95.023H46.2a1.908 1.908 0 01-1.908-1.908V72.243a1.908 1.908 0 011.908-1.908h13.925a1.908 1.908 0 011.908 1.908v20.872a1.908 1.908 0 01-1.908 1.908"/><path class="cls-6" d="M108.818 18.102h25.286v25.589h-25.286z"/><path class="cls-7" d="M26.748 104.257h25.589v92.201H26.748z"/><path class="cls-6" d="M147.396 105.241h25.589v92.201h-25.589zM155.504 46.571h25.589V94.1h-25.589z"/><path class="cls-7" d="M17.408 46.571h25.59V94.1h-25.59z"/><path class="cls-8" d="M19.446 48.118h18.767v10.703H19.446z"/><path class="cls-5" d="M23.663 50.126h12.041v6.355H23.663z"/><path class="cls-9" d="M29.266 53.47a4.223 4.223 0 11-4.223-4.223 4.223 4.223 0 014.223 4.222"/><path class="cls-8" d="M19.446 58.822h18.767v10.703H19.446z"/><path class="cls-5" d="M23.663 60.829h12.041v6.355H23.663z"/><path class="cls-9" d="M29.266 64.173a4.223 4.223 0 11-4.223-4.223 4.223 4.223 0 014.223 4.223"/><path class="cls-8" d="M19.446 69.525h18.767v10.704H19.446z"/><path class="cls-5" d="M23.663 71.532h12.041v6.355H23.663z"/><path class="cls-9" d="M29.266 74.876a4.223 4.223 0 11-4.223-4.223 4.224 4.224 0 014.223 4.223"/><path class="cls-8" d="M19.446 80.228h18.767v10.703H19.446z"/><path class="cls-5" d="M23.663 82.236h12.041v6.354H23.663z"/><path class="cls-9" d="M29.266 85.58a4.223 4.223 0 11-4.223-4.223 4.223 4.223 0 014.223 4.223"/><path class="cls-8" d="M161.595 81.358h18.767v10.703h-18.767z"/><path class="cls-5" d="M164.104 83.698h12.041v6.355h-12.041z"/><path class="cls-9" d="M170.542 86.709a4.223 4.223 0 114.223 4.223 4.223 4.223 0 01-4.223-4.223"/><path class="cls-8" d="M161.595 70.654h18.767v10.704h-18.767z"/><path class="cls-5" d="M164.104 72.995h12.041v6.355h-12.041z"/><path class="cls-9" d="M170.542 76.005a4.223 4.223 0 114.223 4.224 4.223 4.223 0 01-4.223-4.224"/><path class="cls-8" d="M161.595 59.95h18.767v10.703h-18.767z"/><path class="cls-5" d="M164.104 62.292h12.041v6.354h-12.041z"/><path class="cls-9" d="M170.542 65.302a4.223 4.223 0 114.223 4.223 4.223 4.223 0 01-4.223-4.223"/><path class="cls-8" d="M161.595 49.246h18.767v10.703h-18.767z"/><path class="cls-5" d="M164.104 51.587h12.041v6.355h-12.041z"/><path class="cls-9" d="M170.542 54.598a4.223 4.223 0 114.223 4.223 4.223 4.223 0 01-4.223-4.223"/><path class="cls-8" d="M121.46 19.233h10.704V38H121.46z"/><path class="cls-5" d="M123.802 23.449h6.355V35.49h-6.355z"/><path class="cls-9" d="M126.812 29.052a4.223 4.223 0 114.224-4.223 4.223 4.223 0 01-4.224 4.223"/><path class="cls-8" d="M110.757 19.233h10.703V38h-10.703z"/><path class="cls-5" d="M113.099 23.449h6.354V35.49h-6.354z"/><path class="cls-9" d="M116.109 29.052a4.223 4.223 0 114.223-4.223 4.223 4.223 0 01-4.223 4.223"/><path class="cls-8" d="M28.829 108.451h18.767v10.703H28.829z"/><path class="cls-5" d="M33.046 110.457h12.042v6.354H33.046z"/><path class="cls-9" d="M38.649 113.802a4.223 4.223 0 11-4.223-4.223 4.223 4.223 0 014.223 4.223"/><path class="cls-8" d="M28.829 119.154h18.767v10.703H28.829z"/><path class="cls-5" transform="rotate(-88.795 39.067 124.338)" d="M35.89 118.317h6.355v12.042H35.89z"/><path class="cls-9" d="M38.649 124.505a4.223 4.223 0 11-4.223-4.223 4.223 4.223 0 014.223 4.223"/><path class="cls-8" d="M28.829 129.857h18.767v10.703H28.829z"/><path class="cls-5" d="M33.046 131.864h12.042v6.355H33.046z"/><path class="cls-9" d="M38.649 135.208a4.223 4.223 0 11-4.223-4.223 4.223 4.223 0 014.223 4.223"/><path class="cls-8" d="M28.829 140.56h18.767v10.704H28.829z"/><path class="cls-5" d="M33.046 142.567h12.042v6.355H33.046z"/><path class="cls-9" d="M38.649 145.912a4.223 4.223 0 11-4.223-4.224 4.223 4.223 0 014.223 4.224"/><path class="cls-8" d="M28.829 151.34h18.767v10.703H28.829z"/><path class="cls-5" d="M33.046 153.348h12.042v6.355H33.046z"/><path class="cls-9" d="M38.649 156.692a4.223 4.223 0 11-4.223-4.223 4.223 4.223 0 014.223 4.223"/><path class="cls-8" d="M28.829 162.043h18.767v10.703H28.829z"/><path class="cls-5" d="M33.046 164.051h12.042v6.355H33.046z"/><path class="cls-9" d="M38.649 167.395a4.223 4.223 0 11-4.223-4.223 4.223 4.223 0 014.223 4.223"/><path class="cls-8" d="M28.829 172.747h18.767v10.704H28.829z"/><path class="cls-5" d="M33.046 174.755h12.042v6.355H33.046z"/><path class="cls-9" d="M38.649 178.098a4.223 4.223 0 11-4.223-4.223 4.224 4.224 0 014.223 4.223"/><path class="cls-8" d="M28.829 183.452h18.767v10.703H28.829z"/><path class="cls-5" d="M33.046 185.459h12.042v6.354H33.046z"/><path class="cls-9" d="M38.649 188.803a4.223 4.223 0 11-4.223-4.223 4.223 4.223 0 014.223 4.222"/><path class="cls-8" d="M152.995 184.618h18.767v10.703h-18.767z"/><path class="cls-5" d="M155.504 186.96h12.041v6.354h-12.041z"/><path class="cls-9" d="M161.943 189.97a4.223 4.223 0 114.223 4.223 4.223 4.223 0 01-4.223-4.224"/><path class="cls-8" d="M152.995 173.915h18.767v10.703h-18.767z"/><path class="cls-5" d="M155.504 176.257h12.041v6.354h-12.041z"/><path class="cls-9" d="M161.943 179.266a4.223 4.223 0 114.223 4.223 4.223 4.223 0 01-4.223-4.223"/><path class="cls-8" d="M152.995 163.212h18.767v10.703h-18.767z"/><path class="cls-5" d="M155.504 165.553h12.041v6.355h-12.041z"/><path class="cls-9" d="M161.943 168.563a4.223 4.223 0 114.223 4.223 4.223 4.223 0 01-4.223-4.223"/><path class="cls-8" d="M152.995 152.509h18.767v10.703h-18.767z"/><path class="cls-5" d="M155.504 154.85h12.041v6.355h-12.041z"/><path class="cls-9" d="M161.943 157.86a4.223 4.223 0 114.223 4.223 4.224 4.224 0 01-4.223-4.223"/><path class="cls-8" d="M152.995 141.728h18.767v10.703h-18.767z"/><path class="cls-5" d="M155.504 144.07h12.041v6.354h-12.041z"/><path class="cls-9" d="M161.943 147.079a4.223 4.223 0 114.223 4.223 4.223 4.223 0 01-4.223-4.223"/><path class="cls-8" d="M152.995 131.025h18.767v10.703h-18.767z"/><path class="cls-5" d="M155.504 133.365h12.041v6.355h-12.041z"/><path class="cls-9" d="M161.943 136.376a4.223 4.223 0 114.223 4.223 4.223 4.223 0 01-4.223-4.223"/><path class="cls-8" d="M152.995 120.321h18.767v10.703h-18.767z"/><path class="cls-5" d="M155.504 122.662h12.041v6.355h-12.041z"/><path class="cls-9" d="M161.943 125.673a4.223 4.223 0 114.223 4.223 4.223 4.223 0 01-4.223-4.223"/><path class="cls-10" d="M53.883 108.765h8.149v10.389h-8.149z"/><path class="cls-8" d="M152.995 109.617h18.767v10.704h-18.767z"/><path class="cls-5" d="M155.504 111.959h12.041v6.355h-12.041z"/><path class="cls-9" d="M161.943 114.969a4.223 4.223 0 114.223 4.224 4.223 4.223 0 01-4.223-4.224M53.883 119.143h8.149v10.389h-8.149z"/><path class="cls-10" d="M53.883 129.532h8.149v10.388h-8.149z"/><path class="cls-9" d="M53.883 139.91h8.149v10.389h-8.149z"/><path class="cls-10" d="M53.883 150.289h8.149v10.389h-8.149z"/><path class="cls-9" d="M53.883 160.668h8.149v10.389h-8.149z"/><path class="cls-10" d="M53.883 171.056h8.149v10.388h-8.149z"/><path class="cls-9" d="M53.883 181.434h8.149v10.389h-8.149zM45.967 70.788h8.149v11.94h-8.149z"/><path class="cls-10" d="M137.554 182.405h8.149v10.388h-8.149z"/><path class="cls-9" d="M137.554 172.026h8.149v10.389h-8.149z"/><path class="cls-10" d="M137.554 161.637h8.149v10.389h-8.149z"/><path class="cls-9" d="M137.554 151.259h8.149v10.388h-8.149z"/><path class="cls-10" d="M137.554 140.88h8.149v10.389h-8.149z"/><path class="cls-9" d="M137.554 130.501h8.149v10.389h-8.149z"/><path class="cls-10" d="M137.554 120.113h8.149v10.388h-8.149z"/><path class="cls-9" d="M137.554 109.735h8.149v10.389h-8.149z"/><path class="cls-10" d="M45.967 82.62h8.149v11.951h-8.149z"/><path d="M53.915 68.646h-6.399a1.548 1.548 0 01-1.549-1.549V24.998a1.548 1.548 0 011.55-1.549h6.398a1.549 1.549 0 011.55 1.55v42.098a1.549 1.549 0 01-1.55 1.55" fill="#2f3378"/><path class="cls-9" d="M121.412 45.172h11.94v12.521h-11.94z"/><path class="cls-10" d="M109.568 45.172h11.951v12.521h-11.951z"/><path class="cls-12" d="M145.787 47.923h8.149V59h-8.149z"/><path class="cls-13" d="M145.787 58.991h8.149v11.077h-8.149z"/><path class="cls-12" d="M145.787 70.067h8.149v11.077h-8.149z"/><path class="cls-13" d="M145.787 81.134h8.149v11.077h-8.149z"/><path class="cls-5" d="M136.047 81.05V59.769a.78.78 0 01.778-.78h7.268v23.153h-6.956a1.09 1.09 0 01-1.09-1.09"/><path class="cls-3" d="M72.371 121.16h-9.654v-8.462h9.654a2.785 2.785 0 012.785 2.786v2.89a2.785 2.785 0 01-2.785 2.786M72.371 143.662h-9.654V135.2h9.654a2.785 2.785 0 012.785 2.786v2.89a2.785 2.785 0 01-2.785 2.786M72.371 166.856h-9.654v-8.462h9.654a2.785 2.785 0 012.785 2.786v2.89a2.785 2.785 0 01-2.785 2.786M72.371 189.358h-9.654v-8.462h9.654a2.785 2.785 0 012.785 2.786v2.89a2.786 2.786 0 01-2.785 2.786M127.9 181.209h9.654v8.462H127.9a2.786 2.786 0 01-2.785-2.786v-2.891a2.785 2.785 0 012.785-2.785M127.9 158.707h9.654v8.462H127.9a2.785 2.785 0 01-2.785-2.786v-2.89a2.785 2.785 0 012.785-2.786M127.9 135.512h9.654v8.462H127.9a2.785 2.785 0 01-2.785-2.786v-2.89a2.785 2.785 0 012.785-2.786M127.9 113.01h9.654v8.462H127.9a2.785 2.785 0 01-2.785-2.785v-2.89a2.785 2.785 0 012.785-2.787"/><path class="cls-4" d="M117.516 131.93h-6.448a.435.435 0 01-.435-.435v-14.999a.434.434 0 01.435-.432h6.448a.434.434 0 01.435.432v15a.435.435 0 01-.435.434M88.145 131.863h-6.448a.434.434 0 01-.435-.434V116.43a.434.434 0 01.435-.434h6.448a.434.434 0 01.435.434v14.999a.434.434 0 01-.435.434"/><path class="cls-3" d="M86.104 94.629h4.881v12.53h-4.881zM98.484 86.876h3.957v12.471h-3.957z"/><path class="cls-9" d="M129.697 110.746h-11.145V83.698h11.145a1.338 1.338 0 011.338 1.337v24.374a1.338 1.338 0 01-1.338 1.337"/><text transform="translate(46.418 213.67)" font-size="8.706" font-family="Heebo-Regular,Heebo" fill="#819356">Pn<tspan class="cls-15" x="10.304" y="0">e</tspan><tspan x="14.934" y="0" letter-spacing="0em">umati</tspan><tspan class="cls-15" x="37.067" y="0">c</tspan><tspan x="41.637" y="0">s </tspan><tspan class="cls-15" x="48.29" y="0">Co</tspan><tspan x="58.943" y="0">nt</tspan><tspan x="66.599" y="0" letter-spacing="-.015em">r</tspan><tspan class="cls-15" x="69.418" y="0">o</tspan><tspan x="74.396" y="0">l M</tspan><tspan class="cls-15" x="86.277" y="0">o</tspan><tspan x="91.255" y="0">dule</tspan></text><path class="cls-18" d="M168.363 24.089a6.434 6.434 0 117.042 5.763 6.434 6.434 0 01-7.042-5.763M14.417 22.983a6.435 6.435 0 117.042 5.764 6.436 6.436 0 01-7.042-5.764M14.417 216.619a6.435 6.435 0 117.042 5.763 6.435 6.435 0 01-7.042-5.763M170.574 216.619a6.434 6.434 0 117.042 5.763 6.434 6.434 0 01-7.042-5.763"/><text transform="rotate(90 10.992 37.86)" font-size="5.804" font-family="Heebo-Light,Heebo" font-weight="300" fill="#fff"><tspan letter-spacing=".001em">P</tspan><tspan x="3.579" y="0">R</tspan><tspan class="cls-21" x="7.266" y="0">E</tspan><tspan x="10.573" y="0">SS</tspan><tspan class="cls-21" x="17.448" y="0">U</tspan><tspan x="21.271" y="0">R</tspan><tspan class="cls-21" x="24.959" y="0">E</tspan><tspan x="28.266" y="0"> SW</tspan></text><text class="cls-22" transform="rotate(90 15.649 83.625)"><tspan class="cls-21">12</tspan><tspan x="6.45" y="0">V</tspan></text><text class="cls-22" transform="rotate(90 13.493 46.014)">COM<tspan class="cls-21" x="12.721" y="0">P</tspan><tspan class="cls-23" x="16.301" y="0">R</tspan><tspan x="19.987" y="0" letter-spacing=".001em">E</tspan><tspan x="23.295" y="0">SSOR</tspan><tspan class="cls-21" x="37.787" y="0"> </tspan><tspan x="39.207" y="0">O</tspan><tspan class="cls-21" x="43.138" y="0">U</tspan><tspan x="46.961" y="0">T</tspan></text><text class="cls-22" transform="rotate(90 9.494 77.47)"><tspan class="cls-21">24</tspan><tspan x="6.45" y="0">V</tspan></text><text class="cls-22" transform="rotate(90 12.172 100.938)">VS<tspan x="7.019" y="0" letter-spacing="-.03em">L</tspan><tspan class="cls-23" x="9.906" y="0">OL</tspan></text><text class="cls-22" transform="rotate(90 -20.07 111.69)">COMP</text><text class="cls-22" transform="rotate(90 -11.927 116.948)">S<tspan x="3.438" y="0" letter-spacing="-.046em">T</tspan><tspan x="6.636" y="0" letter-spacing="-.06em">A</tspan><tspan x="9.915" y="0">T</tspan><tspan class="cls-21" x="13.381" y="0">U</tspan><tspan x="17.205" y="0">S</tspan></text><text class="cls-22" transform="rotate(180 62.438 30.55)">V<tspan class="cls-21" x="3.582" y="0">i</tspan><tspan x="4.892" y="0">n</tspan></text><text class="cls-22" transform="rotate(-90 109.617 -33.198)">CAN</text><text class="cls-22" transform="rotate(-90 126.346 -7.497)">7</text><text class="cls-22" transform="rotate(-90 137.687 3.844)">6</text><text class="cls-22" transform="rotate(-90 149.303 15.367)">5</text><text class="cls-22" transform="rotate(-90 160.64 26.705)">4</text><text class="cls-22" transform="rotate(90 -58.312 125.099)">3</text><text class="cls-22" transform="rotate(90 -46.974 113.761)">2</text><text class="cls-22" transform="rotate(90 -35.45 102.145)">1</text><text class="cls-22" transform="rotate(90 -24.113 90.807)">0</text><rect class="cls-28" x="121.74" y="87.184" width="6.107" height="6.107" rx=".455"/><rect class="cls-28" x="121.74" y="93.716" width="6.107" height="6.107" rx=".455"/><rect class="cls-28" x="121.74" y="100.248" width="6.107" height="6.107" rx=".455"/><path class="cls-29" d="M123.378 88.822h2.831v2.831h-2.831zM123.378 101.886h2.831v2.831h-2.831zM123.378 95.354h2.831v2.831h-2.831z"/><path class="cls-29" d="M122.189 87.557h1.219v12.047h-1.219z"/><path class="cls-8" d="M12.465 110.457h3.786v17.287h-3.786zM12.465 131.864h3.786v17.287h-3.786zM12.678 153.348h3.786v17.287h-3.786zM12.678 174.755h3.786v17.287h-3.786zM178.012 111.959h3.786v17.287h-3.786zM178.012 133.365h3.786v17.287h-3.786zM178.225 154.849h3.786v17.287h-3.786zM178.225 176.256h3.786v17.287h-3.786z"/><g clip-path="url(#clip-path)"><path d="M13.813 247.912a24.96 24.96 0 01-24.931-24.931V14.758a24.96 24.96 0 0124.931-24.932h175.054a24.96 24.96 0 0124.932 24.932v208.223a24.96 24.96 0 01-24.932 24.931zm168.547-142.68a7.145 7.145 0 00-7.137 7.136v78.242a7.145 7.145 0 007.137 7.137h2.046a7.145 7.145 0 007.137-7.137v-78.242a7.145 7.145 0 00-7.137-7.136zm-169.344-.038a7.145 7.145 0 00-7.137 7.136v78.241a7.145 7.145 0 007.137 7.137h2.046a7.145 7.145 0 007.137-7.137V112.33a7.145 7.145 0 00-7.137-7.137zm68.111 8.122a4.495 4.495 0 00-4.781 4.812v45.28a4.495 4.495 0 004.781 4.812h36.724a4.495 4.495 0 004.781-4.811v-45.281a4.495 4.495 0 00-4.781-4.812z" fill="#231f20" opacity=".33"/><path d="M188.867-8.785a23.544 23.544 0 0123.543 23.543V222.98a23.543 23.543 0 01-23.543 23.543H13.813A23.543 23.543 0 01-9.73 222.98V14.758A23.544 23.544 0 0113.813-8.785h175.054M13.016 199.097h2.046a8.525 8.525 0 008.526-8.526V112.33a8.525 8.525 0 00-8.526-8.525h-2.046a8.525 8.525 0 00-8.526 8.525v78.241a8.525 8.525 0 008.525 8.526m169.344.038h2.047a8.525 8.525 0 008.525-8.526v-78.24a8.525 8.525 0 00-8.525-8.526h-2.046a8.525 8.525 0 00-8.525 8.525v78.242a8.525 8.525 0 008.525 8.525M81.127 169.61h36.724a5.86 5.86 0 006.17-6.2v-45.282a5.86 5.86 0 00-6.17-6.2H81.127a5.86 5.86 0 00-6.17 6.2v45.282a5.86 5.86 0 006.17 6.2m107.74-181.171H13.813a26.35 26.35 0 00-26.32 26.32V222.98a26.35 26.35 0 0026.32 26.32h175.054a26.35 26.35 0 0026.32-26.32V14.758a26.35 26.35 0 00-26.32-26.32zM13.016 196.32a5.755 5.755 0 01-5.749-5.748V112.33a5.755 5.755 0 015.749-5.748h2.046a5.755 5.755 0 015.749 5.748v78.241a5.755 5.755 0 01-5.749 5.749zm169.344.038a5.755 5.755 0 01-5.749-5.748v-78.242a5.755 5.755 0 015.749-5.748h2.047a5.755 5.755 0 015.748 5.748v78.242a5.755 5.755 0 01-5.748 5.748zM81.127 166.832a3.123 3.123 0 01-3.393-3.423v-45.282a3.123 3.123 0 013.393-3.423h36.724a3.123 3.123 0 013.392 3.423v45.282a3.123 3.123 0 01-3.392 3.423z" fill="#00aeef"/></g></svg>