<?xml version="1.0" encoding="utf-8"?>
<!-- Generator: Adobe Illustrator 24.1.0, SVG Export Plug-In . SVG Version: 6.00 Build 0)  -->
<svg version="1.1" id="Layer_1" xmlns="http://www.w3.org/2000/svg" xmlns:xlink="http://www.w3.org/1999/xlink" x="0px" y="0px"
	 viewBox="0 0 333.1 108.1" style="enable-background:new 0 0 333.1 108.1;" xml:space="preserve">
<style type="text/css">
	.st0{clip-path:url(#SVGID_2_);fill:#424242;}
	.st1{clip-path:url(#SVGID_2_);fill:#4F4E51;}
	.st2{clip-path:url(#SVGID_2_);fill:#A6A7AA;}
	.st3{clip-path:url(#SVGID_2_);fill:#221F1F;}
	.st4{clip-path:url(#SVGID_2_);fill:#BC2030;}
	.st5{clip-path:url(#SVGID_2_);fill:#631011;}
	.st6{clip-path:url(#SVGID_2_);fill:#819356;}
	.st7{clip-path:url(#SVGID_2_);fill:#2F3378;}
	.st8{clip-path:url(#SVGID_2_);fill:#5A5A5C;}
	.st9{clip-path:url(#SVGID_2_);fill:#F2F2F2;}
	.st10{clip-path:url(#SVGID_2_);fill:#E9262A;}
	.st11{clip-path:url(#SVGID_2_);fill:#E3DE6F;}
	.st12{clip-path:url(#SVGID_2_);enable-background:new    ;}
	.st13{fill:#221F1F;}
	.st14{font-family:'Verdana';}
	.st15{font-size:10.5481px;}
	.st16{fill:#FFFFFF;}
	.st17{fill:#231F20;}
	.st18{font-size:12px;}
	.st19{font-size:5.7402px;}
</style>
<g>
	<defs>
		<rect id="SVGID_1_" x="-0.4" y="-0.3" width="333.4" height="107.7"/>
	</defs>
	<clipPath id="SVGID_2_">
		<use xlink:href="#SVGID_1_"  style="overflow:visible;"/>
	</clipPath>
	<path class="st0" d="M325.5-457.5V48.9c0,10.6-8.6,19.1-19.1,19.1H25.2C14.7,68,6.1,59.4,6.1,48.9v-506.3
		c0-10.6,8.6-19.1,19.1-19.1c0,0,0,0,0,0h281.2C317-476.6,325.5-468,325.5-457.5"/>
	<rect x="96.3" y="-377.9" class="st1" width="138.9" height="417.2"/>
	<rect x="256.9" y="37.4" class="st2" width="67.8" height="5.2"/>
	<rect x="256.9" y="15.2" class="st3" width="68.3" height="22.2"/>
	<path class="st0" d="M302.7,26.2c0-4.7,3.8-8.5,8.5-8.5s8.5,3.8,8.5,8.5c0,4.7-3.8,8.5-8.5,8.5C306.5,34.7,302.7,30.9,302.7,26.2
		C302.7,26.2,302.7,26.2,302.7,26.2"/>
	<rect x="256.9" y="-7" class="st4" width="68.3" height="22.2"/>
	<path class="st5" d="M302.7,4c0-4.7,3.8-8.5,8.5-8.5s8.5,3.8,8.5,8.5c0,4.7-3.8,8.5-8.5,8.5C306.5,12.4,302.7,8.6,302.7,4
		C302.7,4,302.7,4,302.7,4"/>
	<rect x="6.5" y="-4.5" class="st3" width="68.3" height="22.2"/>
	<path class="st0" d="M29,4.2c0,4.7-3.8,8.5-8.5,8.5S12,8.8,12,4.2s3.8-8.5,8.5-8.5c0,0,0,0,0,0C25.2-4.3,29-0.5,29,4.2"/>
	<rect x="6.5" y="15.2" class="st4" width="68.3" height="22.2"/>
	<path class="st5" d="M29,26.4c0,4.7-3.8,8.5-8.5,8.5S12,31.1,12,26.4s3.8-8.5,8.5-8.5c0,0,0,0,0,0C25.2,17.9,29,21.7,29,26.4
		C29,26.4,29,26.4,29,26.4"/>
	<rect x="78.6" y="-136.1" class="st1" width="174.8" height="176.1"/>
	<rect x="78.6" y="23.8" class="st6" width="98.1" height="16.2"/>
	<rect x="176.7" y="23.8" class="st7" width="76.8" height="16.2"/>
	<rect x="127.2" y="36.4" class="st8" width="12.4" height="21.8"/>
	<rect x="129.6" y="39.3" class="st9" width="7.4" height="14"/>
	<path class="st3" d="M133.4,46.8c2.7,0,4.9,2.2,4.9,4.9s-2.2,4.9-4.9,4.9c-2.7,0-4.9-2.2-4.9-4.9C128.5,49,130.7,46.8,133.4,46.8"
		/>
	<rect x="139.5" y="36.4" class="st8" width="12.4" height="21.8"/>
	<rect x="141.9" y="39.3" class="st9" width="7.4" height="14"/>
	<path class="st3" d="M145.7,46.8c2.7,0,4.9,2.2,4.9,4.9s-2.2,4.9-4.9,4.9c-2.7,0-4.9-2.2-4.9-4.9C140.8,49,143,46.8,145.7,46.8"/>
	<rect x="176.7" y="36.4" class="st8" width="12.4" height="21.8"/>
	<rect x="179" y="39.3" class="st9" width="7.4" height="14"/>
	<path class="st3" d="M182.9,46.8c2.7,0,4.9,2.2,4.9,4.9s-2.2,4.9-4.9,4.9c-2.7,0-4.9-2.2-4.9-4.9C178,49,180.2,46.8,182.9,46.8
		C182.9,46.8,182.9,46.8,182.9,46.8"/>
	<rect x="189" y="36.4" class="st8" width="12.4" height="21.8"/>
	<rect x="191.3" y="39.3" class="st9" width="7.4" height="14"/>
	<path class="st3" d="M195.2,46.8c2.7,0,4.9,2.2,4.9,4.9s-2.2,4.9-4.9,4.9c-2.7,0-4.9-2.2-4.9-4.9C190.3,49,192.5,46.8,195.2,46.8"
		/>
	<rect x="151.9" y="36.4" class="st8" width="12.4" height="21.8"/>
	<rect x="154.3" y="39.3" class="st9" width="7.4" height="14"/>
	<path class="st3" d="M158.1,46.8c2.7,0,4.9,2.2,4.9,4.9s-2.2,4.9-4.9,4.9c-2.7,0-4.9-2.2-4.9-4.9C153.3,49,155.4,46.8,158.1,46.8"
		/>
	<rect x="164.2" y="36.4" class="st8" width="12.4" height="21.8"/>
	<rect x="166.6" y="39.3" class="st9" width="7.4" height="14"/>
	<path class="st3" d="M170.5,46.8c2.7,0,4.9,2.2,4.9,4.9s-2.2,4.9-4.9,4.9c-2.7,0-4.9-2.2-4.9-4.9C165.6,49,167.7,46.8,170.5,46.8"
		/>
	<rect x="127.1" y="30.9" class="st10" width="12.4" height="5.5"/>
	<rect x="164.2" y="30.9" class="st3" width="12.4" height="5.5"/>
	<rect x="151.8" y="30.9" class="st10" width="12.4" height="5.5"/>
	<rect x="139.4" y="30.9" class="st3" width="12.4" height="5.5"/>
	<rect x="189" y="30.9" class="st3" width="12.4" height="5.5"/>
	<rect x="176.6" y="30.9" class="st10" width="12.4" height="5.5"/>
	<rect x="79.3" y="33.7" class="st11" width="12.4" height="5.5"/>
	<rect x="127.1" y="30.9" class="st10" width="12.4" height="5.5"/>
	<rect x="239.8" y="33.7" class="st10" width="12.4" height="5.5"/>
	<rect x="61.5" y="45.4" class="st11" width="30.2" height="12.5"/>
	<rect x="6.1" y="73.1" class="st11" width="157.5" height="28"/>
	<g class="st12">
		<text transform="matrix(1 0 0 1 69.8806 55.267)" class="st13 st14 st15">20</text>
	</g>
	<rect x="238.4" y="45.4" class="st10" width="30.2" height="12.5"/>
	<g class="st12">
		<text transform="matrix(1 0 0 1 246.7676 55.267)" class="st16 st14 st15">10</text>
	</g>
	<path class="st6" d="M157.7,21h-27c-2,0-3.6-1.6-3.6-3.6V9.1c0-2,1.6-3.6,3.6-3.6h27c2,0,3.6,1.6,3.6,3.6c0,0,0,0,0,0v8.2
		C161.3,19.3,159.7,21,157.7,21L157.7,21"/>
	<path class="st6" d="M170.6,20.9h27.5c2,0,3.7-1.6,3.7-3.7c0,0,0,0,0,0V9.1c0-2-1.6-3.7-3.7-3.7c0,0,0,0,0,0h-27.5
		c-2,0-3.7,1.6-3.7,3.7v8.2C167,19.3,168.6,20.9,170.6,20.9"/>
	<rect x="103.4" y="11" class="st0" width="14.3" height="5.2"/>
	<rect x="127.1" y="11" class="st0" width="14.3" height="5.2"/>
	<rect x="187.8" y="11.8" class="st0" width="14.3" height="5.2"/>
	<rect x="211.5" y="11.8" class="st0" width="14.3" height="5.2"/>
	<g class="st12">
		<text transform="matrix(1 0 0 1 13.4247 90.5063)" class="st17 st14 st18">20A VRM and PCM Fuse</text>
	</g>
	<g class="st12">
		<text transform="matrix(1 0 0 1 98.9407 29.3174)" class="st17 st14 st19">Vbat VRM PCM PWR</text>
	</g>
	<g class="st12">
		<text transform="matrix(1 0 0 1 180.4542 29.8347)" class="st16 st14 st19">Vbat CONTROLLER PWR</text>
	</g>
	<rect x="168" y="74" class="st10" width="157.5" height="28"/>
	<g class="st12">
		<text transform="matrix(1 0 0 1 191.8572 91.3445)" class="st16 st14 st18">10A roboRIO Fuse</text>
	</g>
</g>
</svg>
