<svg version="1.1" id="Layer_1" xmlns="http://www.w3.org/2000/svg" xmlns:xlink="http://www.w3.org/1999/xlink" x="0" y="0" viewBox="0 0 333.1 108.1" xml:space="preserve"><style>.st0,.st1,.st3{clip-path:url(#SVGID_2_);fill:#424242}.st1,.st3{fill:#4f4e51}.st3{fill:#221f1f}.st4,.st5,.st6,.st8,.st9{clip-path:url(#SVGID_2_);fill:#bc2030}.st5,.st6,.st8,.st9{fill:#631011}.st6,.st8,.st9{fill:#819356}.st8,.st9{fill:#5a5a5c}.st9{fill:#f2f2f2}.st10{fill:#e9262a}.st10,.st11,.st12{clip-path:url(#SVGID_2_)}.st11{fill:#e3de6f}.st12{enable-background:new}.st14{font-family:&apos;Verdana&apos;}.st15{font-size:10.5481px}.st16{fill:#fff}.st17{fill:#231f20}.st18{font-size:12px}.st19{font-size:5.7402px}</style><defs><path id="SVGID_1_" d="M-.4-.3H333v107.7H-.4z"/></defs><clipPath id="SVGID_2_"><use xlink:href="#SVGID_1_" overflow="visible"/></clipPath><path class="st0" d="M325.5-457.5V48.9c0 10.6-8.6 19.1-19.1 19.1H25.2C14.7 68 6.1 59.4 6.1 48.9v-506.3c0-10.6 8.6-19.1 19.1-19.1h281.2c10.6-.1 19.1 8.5 19.1 19"/><path class="st1" d="M96.3-377.9h138.9V39.3H96.3z"/><path clip-path="url(#SVGID_2_)" fill="#a6a7aa" d="M256.9 37.4h67.8v5.2h-67.8z"/><path class="st3" d="M256.9 15.2h68.3v22.2h-68.3z"/><path class="st0" d="M302.7 26.2c0-4.7 3.8-8.5 8.5-8.5s8.5 3.8 8.5 8.5-3.8 8.5-8.5 8.5-8.5-3.8-8.5-8.5"/><path class="st4" d="M256.9-7h68.3v22.2h-68.3z"/><path class="st5" d="M302.7 4c0-4.7 3.8-8.5 8.5-8.5s8.5 3.8 8.5 8.5-3.8 8.5-8.5 8.5c-4.7-.1-8.5-3.9-8.5-8.5"/><path class="st3" d="M6.5-4.5h68.3v22.2H6.5z"/><path class="st0" d="M29 4.2c0 4.7-3.8 8.5-8.5 8.5S12 8.8 12 4.2s3.8-8.5 8.5-8.5S29-.5 29 4.2"/><path class="st4" d="M6.5 15.2h68.3v22.2H6.5z"/><path class="st5" d="M29 26.4c0 4.7-3.8 8.5-8.5 8.5S12 31.1 12 26.4s3.8-8.5 8.5-8.5 8.5 3.8 8.5 8.5"/><path class="st1" d="M78.6-136.1h174.8V40H78.6z"/><path class="st6" d="M78.6 23.8h98.1V40H78.6z"/><path clip-path="url(#SVGID_2_)" fill="#2f3378" d="M176.7 23.8h76.8V40h-76.8z"/><path class="st8" d="M127.2 36.4h12.4v21.8h-12.4z"/><path class="st9" d="M129.6 39.3h7.4v14h-7.4z"/><path class="st3" d="M133.4 46.8c2.7 0 4.9 2.2 4.9 4.9s-2.2 4.9-4.9 4.9-4.9-2.2-4.9-4.9 2.2-4.9 4.9-4.9"/><path class="st8" d="M139.5 36.4h12.4v21.8h-12.4z"/><path class="st9" d="M141.9 39.3h7.4v14h-7.4z"/><path class="st3" d="M145.7 46.8c2.7 0 4.9 2.2 4.9 4.9s-2.2 4.9-4.9 4.9-4.9-2.2-4.9-4.9 2.2-4.9 4.9-4.9"/><path class="st8" d="M176.7 36.4h12.4v21.8h-12.4z"/><path class="st9" d="M179 39.3h7.4v14H179z"/><path class="st3" d="M182.9 46.8c2.7 0 4.9 2.2 4.9 4.9s-2.2 4.9-4.9 4.9-4.9-2.2-4.9-4.9 2.2-4.9 4.9-4.9"/><path class="st8" d="M189 36.4h12.4v21.8H189z"/><path class="st9" d="M191.3 39.3h7.4v14h-7.4z"/><path class="st3" d="M195.2 46.8c2.7 0 4.9 2.2 4.9 4.9s-2.2 4.9-4.9 4.9-4.9-2.2-4.9-4.9 2.2-4.9 4.9-4.9"/><path class="st8" d="M151.9 36.4h12.4v21.8h-12.4z"/><path class="st9" d="M154.3 39.3h7.4v14h-7.4z"/><path class="st3" d="M158.1 46.8c2.7 0 4.9 2.2 4.9 4.9s-2.2 4.9-4.9 4.9-4.9-2.2-4.9-4.9c.1-2.7 2.2-4.9 4.9-4.9"/><path class="st8" d="M164.2 36.4h12.4v21.8h-12.4z"/><path class="st9" d="M166.6 39.3h7.4v14h-7.4z"/><path class="st3" d="M170.5 46.8c2.7 0 4.9 2.2 4.9 4.9s-2.2 4.9-4.9 4.9-4.9-2.2-4.9-4.9 2.1-4.9 4.9-4.9"/><path class="st10" d="M127.1 30.9h12.4v5.5h-12.4z"/><path class="st3" d="M164.2 30.9h12.4v5.5h-12.4z"/><path class="st10" d="M151.8 30.9h12.4v5.5h-12.4z"/><path class="st3" d="M139.4 30.9h12.4v5.5h-12.4zM189 30.9h12.4v5.5H189z"/><path class="st10" d="M176.6 30.9H189v5.5h-12.4z"/><path class="st11" d="M79.3 33.7h12.4v5.5H79.3z"/><path class="st10" d="M127.1 30.9h12.4v5.5h-12.4zM239.8 33.7h12.4v5.5h-12.4z"/><path class="st11" d="M61.5 45.4h30.2v12.5H61.5zM6.1 73.1h157.5v28H6.1z"/><g class="st12"><text transform="translate(69.88 55.267)" class="st14 st15" fill="#221f1f">20</text></g><path class="st10" d="M238.4 45.4h30.2v12.5h-30.2z"/><g class="st12"><text transform="translate(246.768 55.267)" class="st16 st14 st15">10</text></g><path class="st6" d="M157.7 21h-27c-2 0-3.6-1.6-3.6-3.6V9.1c0-2 1.6-3.6 3.6-3.6h27c2 0 3.6 1.6 3.6 3.6v8.2c0 2-1.6 3.7-3.6 3.7M170.6 20.9h27.5c2 0 3.7-1.6 3.7-3.7V9.1c0-2-1.6-3.7-3.7-3.7h-27.5c-2 0-3.7 1.6-3.7 3.7v8.2c.1 2 1.7 3.6 3.7 3.6"/><path class="st0" d="M103.4 11h14.3v5.2h-14.3zM127.1 11h14.3v5.2h-14.3zM187.8 11.8h14.3V17h-14.3zM211.5 11.8h14.3V17h-14.3z"/><g class="st12"><text transform="translate(13.425 90.506)" class="st17 st14 st18">20A VRM and PCM Fuse</text></g><g class="st12"><text transform="translate(98.94 29.317)" class="st17 st14 st19">Vbat VRM PCM PWR</text></g><g class="st12"><text transform="translate(180.454 29.835)" class="st16 st14 st19">Vbat CONTROLLER PWR</text></g><path class="st10" d="M168 74h157.5v28H168z"/><g class="st12"><text transform="translate(191.857 91.344)" class="st16 st14 st18">10A roboRIO Fuse</text></g></svg>