<?xml version="1.0" encoding="utf-8"?>
<!-- Generator: Adobe Illustrator 24.1.0, SVG Export Plug-In . SVG Version: 6.00 Build 0)  -->
<svg version="1.1" id="Layer_1" xmlns="http://www.w3.org/2000/svg" xmlns:xlink="http://www.w3.org/1999/xlink" x="0px" y="0px"
	 viewBox="0 0 585.1 306" style="enable-background:new 0 0 585.1 306;" xml:space="preserve">
<style type="text/css">
	.st0{fill:#4C5657;}
	.st1{fill:#B1B4B0;}
	.st2{fill:#646964;}
	.st3{fill:#525655;}
	.st4{fill:#C82C3D;}
	.st5{fill:#0C100E;}
	.st6{fill:#9C9167;}
	.st7{fill:#83857D;}
	.st8{fill:#961F2B;}
	.st9{fill:#35393A;}
	.st10{fill:none;stroke:#0695CF;stroke-width:15;stroke-linecap:round;stroke-miterlimit:10;}
	.st11{fill:#0695CF;}
</style>
<path class="st0" d="M158.5,35.4h267.4c15.5,0,28,12.5,28,28v176.4c0,15.5-12.5,28-28,28H158.5c-15.5,0-28-12.5-28-28V63.4
	C130.5,48,143,35.4,158.5,35.4z"/>
<path class="st1" d="M92.7,77.2h63.9c14.2,0,25.8,11.5,25.8,25.8v0c0,14.2-11.5,25.8-25.8,25.8H92.7c-14.2,0-25.8-11.5-25.8-25.8v0
	C67,88.7,78.5,77.2,92.7,77.2z"/>
<path class="st2" d="M213.1,36.2h158.1c7.9,0,14.3,6.4,14.3,14.3v201.4c0,7.9-6.4,14.3-14.3,14.3H213.1c-7.9,0-14.3-6.4-14.3-14.3
	V50.4C198.9,42.6,205.3,36.2,213.1,36.2z"/>
<path class="st3" d="M283,36h24.9c7.9,0,14.3,6.4,14.3,14.3v201.4c0,7.9-6.4,14.3-14.3,14.3H283c-7.9,0-14.3-6.4-14.3-14.3V50.2
	C268.7,42.4,275.1,36,283,36z"/>
<path class="st4" d="M294.6,197.1h1.8c5.7,0,10.4,4.7,10.4,10.4v19.2c0,5.7-4.7,10.4-10.4,10.4h-1.8c-5.7,0-10.4-4.7-10.4-10.4
	v-19.2C284.2,201.8,288.8,197.1,294.6,197.1z"/>
<path class="st5" d="M267.8,52.9l-46,44c-2.6,2.4-2.7,6.4-0.3,9c0.1,0.1,0.2,0.2,0.3,0.3l5.8,5.6c2.7,2.6,7,2.6,9.7,0l31.4-30.1
	V52.2C268.4,52.4,268.1,52.6,267.8,52.9z"/>
<polygon class="st6" points="175,79.4 146.6,79.4 132.4,104 146.6,128.6 175,128.6 189.3,104 "/>
<circle class="st7" cx="160.8" cy="104" r="16.9"/>
<path class="st8" d="M27.4,69.2h71.9c4.7,0,8.6,3.8,8.6,8.6v50.4c0,4.7-3.8,8.6-8.6,8.6H27.4c-4.7,0-8.6-3.8-8.6-8.6V77.8
	C18.8,73.1,22.6,69.2,27.4,69.2z"/>
<path class="st1" d="M492.4,248.4h-63.9c-14.2,0-25.8-11.5-25.8-25.8l0,0c0-14.2,11.5-25.8,25.8-25.8h63.9
	c14.2,0,25.8,11.5,25.8,25.8l0,0C518.1,236.9,506.6,248.4,492.4,248.4z"/>
<polygon class="st6" points="410,246.3 438.5,246.3 452.7,221.6 438.5,197 410,197 395.8,221.6 "/>
<circle class="st7" cx="424.3" cy="221.6" r="16.9"/>
<path class="st8" d="M557.7,256.4h-71.9c-4.7,0-8.6-3.8-8.6-8.6v-50.4c0-4.7,3.8-8.6,8.6-8.6h71.9c4.7,0,8.6,3.8,8.6,8.6v50.4
	C566.3,252.5,562.4,256.4,557.7,256.4z"/>
<circle class="st9" cx="416.6" cy="74.3" r="19.1"/>
<circle class="st9" cx="164.2" cy="229.2" r="20.9"/>
<path class="st10" d="M216.3,96.5c4.2,30.7-17.3,58.9-48,63s-58.9-17.3-63-48c-4.2-30.7,17.3-58.9,48-63c13.2-1.8,26.6,1.2,37.8,8.4
	"/>
<polygon class="st11" points="168.3,68.7 212.6,82.5 202.4,37.3 "/>
<path class="st10" d="M478.6,208c7.5,30-10.7,60.4-40.7,67.9c-30,7.5-60.4-10.7-67.9-40.7c-7.5-30,10.7-60.4,40.7-67.9
	c12.9-3.2,26.6-1.8,38.5,4.2"/>
<polygon class="st11" points="427.8,185.7 473.3,194.6 458.2,150.7 "/>
</svg>
