<svg id="Layer_1" data-name="Layer 1" xmlns="http://www.w3.org/2000/svg" viewBox="0 0 808.472 706.642"><defs><style>.cls-3{fill:#323031}.cls-4{fill:#6a5f27}.cls-15,.cls-17,.cls-21,.cls-8{fill:#fff}.cls-17,.cls-8{font-family:Verdana}.cls-8{font-size:23.3516px}.cls-23,.cls-26{fill:none}.cls-15{stroke:#fff}.cls-11{fill:#23446c}.cls-15{stroke-width:1.3645px;stroke-linecap:round}.cls-15,.cls-23,.cls-26{stroke-linejoin:round}.cls-17{font-size:21.736px}.cls-20{fill:#1e1e1e}.cls-20,.cls-21,.cls-24,.cls-25{fill-rule:evenodd}.cls-23,.cls-26{stroke-width:8px}.cls-23{stroke:#ffda68}.cls-24{fill:#ffda68}.cls-25{fill:#ccc}.cls-26{stroke:#b7b7b8}</style></defs><path d="M740.052 215.164l-1390.784 1.852a83.174 83.174 0 01-83.063-83.284V-1240.57a83.174 83.174 0 0183.063-83.284l1401.378-1.852a83.174 83.174 0 0183.063 83.284v1363.68c4.772 55.474-24.56 94.853-77.54 93.903" fill="#434343"/><rect x="-709.141" y="-1294.705" width="1518.515" height="1487.649" rx="58.571" fill="#4f4e51"/><path class="cls-3" d="M-289.449 79.712H25.776v89.607h-315.225z"/><path class="cls-3" d="M-46.203 79.712h71.98v89.607h-71.98zm107.879-.215h315.225v89.607H61.676z"/><path class="cls-4" d="M97.664 118.884a5.416 5.416 0 11-5.414 5.414 5.413 5.413 0 015.415-5.414m-.001 24.246a5.418 5.418 0 11-5.414 5.418 5.414 5.414 0 015.414-5.419m0-49.474a5.418 5.418 0 11-5.414 5.415 5.413 5.413 0 015.415-5.414"/><path class="cls-3" d="M142.137 79.497h71.98v89.607h-71.98z"/><path class="cls-4" d="M178.128 118.884a5.416 5.416 0 11-5.418 5.414 5.412 5.412 0 015.418-5.414m0 24.246a5.418 5.418 0 11-5.418 5.418 5.413 5.413 0 015.418-5.419m0-49.474a5.418 5.418 0 11-5.418 5.415 5.412 5.412 0 015.418-5.414"/><path class="cls-3" d="M304.922 79.497h71.98v89.607h-71.98z"/><path class="cls-4" d="M340.912 118.884a5.416 5.416 0 11-5.419 5.414 5.412 5.412 0 015.419-5.414m0 24.246a5.418 5.418 0 11-5.419 5.418 5.413 5.413 0 015.419-5.419m0-49.474a5.418 5.418 0 11-5.419 5.415 5.412 5.412 0 015.419-5.415"/><path class="cls-3" d="M223.574 79.497h71.984v89.607h-71.984z"/><path class="cls-4" d="M259.567 118.884a5.416 5.416 0 11-5.419 5.414 5.412 5.412 0 015.419-5.414m0 24.246a5.418 5.418 0 11-5.419 5.418 5.413 5.413 0 015.419-5.419m0-49.474a5.418 5.418 0 11-5.419 5.415 5.412 5.412 0 015.418-5.414"/><text transform="translate(130.755 33.44)" font-family="Verdana" fill="#fff" font-size="32.318">ANA<tspan x="68.36" y="0" letter-spacing="-.031em">L</tspan><tspan x="85.348" y="0" letter-spacing="0">OG IN</tspan></text><text class="cls-8" transform="translate(492.871 55.557)">RESET</text><text class="cls-8" transform="translate(604.617 55.553)">USER</text><path d="M96.082 41.246V24.817h27.906m196.578-2.183h27.711v20.933" stroke-miterlimit="10" stroke-width="5.386" stroke="#fff" fill="none"/><rect x="472.112" y="73.585" width="216.506" height="101.431" rx="19.602" fill="#5a5d65"/><rect class="cls-11" x="500.489" y="97.146" width="53.945" height="54.308" rx="26.972"/><rect class="cls-11" x="606.296" y="97.146" width="53.945" height="54.308" rx="26.972"/><path class="cls-3" d="M686.352-789.186h92.151V32.633h-92.151z"/><path d="M427.25 179.013h10.092m-14.088-4.279h18.108m-22.516-4.271h26.916m-22.226-44.718h-15.961m15.953-26.982h-15.961m24.737 71.7v-16.954h-24.729" stroke-width="1.365" stroke-miterlimit="2" stroke="#f1f2f2" fill="none"/><text transform="matrix(1 0 0 1.0605 425.278 104.463)" font-size="19.706" font-family="Verdana" fill="#fff">S</text><text transform="matrix(1 0 0 1.1297 426.582 132.655)" font-size="19.11" font-family="Verdana" fill="#fff">5V</text><path class="cls-15" d="M400.781 95.129h6.323v6.878h-6.323zm.414 26.908h6.323v6.878h-6.323zm-.093 27.736h6.323v6.878h-6.323z"/><path d="M752.882 84.284h10.092m-14.088-4.27h18.1m-22.5-4.271h26.917m-67.963-21.83v15.735m27.239-15.615v36.081m27.232-36.201v22.565" stroke-width="1.365" stroke-miterlimit="2" stroke="#fff" fill="none"/><text class="cls-17" transform="matrix(1 0 0 1.0056 696.856 88.23)">S</text><text class="cls-17" transform="matrix(1 0 0 1.0056 718.375 110.127)">6V</text><path class="cls-15" d="M700.059 47.408h6.323v6.878h-6.323zm27.445 0h6.323v6.878h-6.323zm27.133 0h6.323v6.878h-6.323z"/><text transform="translate(437.315 362.002)" font-size="39.652" fill="#010101" letter-spacing=".001em" font-family="Verdana">MB1013<tspan><tspan x="0" y="47.582">Analog Ultrasonic</tspan><tspan x="0" y="95.165">Distance Sensor</tspan></tspan></text><path class="cls-20" d="M23.363 329.28v351.697h392.343V329.28z"/><path class="cls-21" d="M51.911 338.34a12.182 12.182 0 00-12.181 12.182 12.182 12.182 0 0012.181 12.181 12.181 12.181 0 0012.182-12.181 12.182 12.182 0 00-12.182-12.182z"/><path d="M51.911 338.34h0a12.182 12.182 0 00-12.181 12.182h0a12.182 12.182 0 0012.181 12.181h0a12.181 12.181 0 0012.182-12.181h0a12.182 12.182 0 00-12.182-12.182z" stroke-width="8" stroke="#7a52a1" stroke-linejoin="round" fill="none"/><path class="cls-21" d="M97.234 336.26a14.262 14.262 0 00-14.262 14.262 14.262 14.262 0 0014.262 14.262 14.262 14.262 0 0014.262-14.262 14.262 14.262 0 00-14.262-14.262z"/><path class="cls-23" d="M97.234 336.26a14.262 14.262 0 00-14.262 14.262 14.262 14.262 0 0014.262 14.262 14.262 14.262 0 0014.262-14.262 14.262 14.262 0 00-14.262-14.262zm44.907 0a14.262 14.262 0 00-14.262 14.262 14.262 14.262 0 0014.262 14.262 14.262 14.262 0 0014.262-14.262 14.262 14.262 0 00-14.262-14.262z"/><path class="cls-21" d="M187.048 336.26a14.262 14.262 0 00-14.262 14.262 14.262 14.262 0 0014.262 14.262 14.262 14.262 0 0014.262-14.262 14.262 14.262 0 00-14.262-14.262z"/><path class="cls-23" d="M187.048 336.26a14.262 14.262 0 00-14.262 14.262 14.262 14.262 0 0014.262 14.262 14.262 14.262 0 0014.262-14.262 14.262 14.262 0 00-14.262-14.262z"/><path class="cls-21" d="M231.955 336.26a14.262 14.262 0 00-14.262 14.262 14.262 14.262 0 0014.262 14.262 14.262 14.262 0 0014.262-14.262 14.262 14.262 0 00-14.262-14.262z"/><path class="cls-23" d="M231.955 336.26a14.262 14.262 0 00-14.262 14.262 14.262 14.262 0 0014.262 14.262 14.262 14.262 0 0014.262-14.262 14.262 14.262 0 00-14.262-14.262zm44.907 0a14.262 14.262 0 00-14.262 14.262 14.262 14.262 0 0014.262 14.262 14.262 14.262 0 0014.262-14.262 14.262 14.262 0 00-14.262-14.262zm44.904 0a14.262 14.262 0 00-14.262 14.262 14.262 14.262 0 0014.262 14.262 14.262 14.262 0 0014.262-14.262 14.262 14.262 0 00-14.262-14.262z"/><path class="cls-24" d="M38.073 336.26v28.524h28.524V336.26z"/><path class="cls-23" d="M38.073 336.26v28.524h28.524V336.26z"/><path class="cls-21" d="M67.45 611.802a30.876 30.876 0 00-30.877 30.876 30.876 30.876 0 0030.876 30.876 30.876 30.876 0 0030.876-30.876 30.876 30.876 0 00-30.876-30.876z"/><path class="cls-23" d="M67.45 611.802a30.876 30.876 0 00-30.877 30.876 30.876 30.876 0 0030.876 30.876 30.876 30.876 0 0030.876-30.876 30.876 30.876 0 00-30.876-30.876z"/><path class="cls-21" d="M374.54 373.493a30.876 30.876 0 00-30.875 30.876 30.876 30.876 0 0030.876 30.876 30.876 30.876 0 0030.876-30.876 30.876 30.876 0 00-30.876-30.876z"/><path class="cls-23" d="M374.54 373.493a30.876 30.876 0 00-30.875 30.876 30.876 30.876 0 0030.876 30.876 30.876 30.876 0 0030.876-30.876 30.876 30.876 0 00-30.876-30.876z"/><path class="cls-21" d="M52.332 336.26a14.262 14.262 0 00-14.262 14.262 14.262 14.262 0 0014.262 14.262 14.262 14.262 0 0014.262-14.262 14.262 14.262 0 00-14.262-14.262z"/><path class="cls-23" d="M52.332 336.26a14.262 14.262 0 00-14.262 14.262 14.262 14.262 0 0014.262 14.262 14.262 14.262 0 0014.262-14.262 14.262 14.262 0 00-14.262-14.262z"/><path class="cls-21" d="M97.236 338.34a12.181 12.181 0 00-12.181 12.182 12.181 12.181 0 0012.181 12.181 12.181 12.181 0 0012.182-12.181 12.182 12.182 0 00-12.182-12.182z"/><path class="cls-23" d="M97.236 338.34a12.181 12.181 0 00-12.181 12.182 12.181 12.181 0 0012.181 12.181 12.181 12.181 0 0012.182-12.181 12.182 12.182 0 00-12.182-12.182z"/><path class="cls-21" d="M187.047 338.34a12.182 12.182 0 00-12.181 12.182 12.182 12.182 0 0012.181 12.181 12.181 12.181 0 0012.182-12.181 12.182 12.182 0 00-12.182-12.182z"/><path class="cls-23" d="M187.047 338.34a12.182 12.182 0 00-12.181 12.182 12.182 12.182 0 0012.181 12.181 12.181 12.181 0 0012.182-12.181 12.182 12.182 0 00-12.182-12.182z"/><path class="cls-21" d="M231.954 338.34a12.181 12.181 0 00-12.181 12.182 12.182 12.182 0 0012.181 12.181 12.181 12.181 0 0012.182-12.181 12.182 12.182 0 00-12.182-12.182z"/><path class="cls-23" d="M231.954 338.34a12.181 12.181 0 00-12.181 12.182 12.182 12.182 0 0012.181 12.181 12.181 12.181 0 0012.182-12.181 12.182 12.182 0 00-12.182-12.182z"/><path class="cls-21" d="M51.487 338.34a12.181 12.181 0 00-12.181 12.182 12.182 12.182 0 0012.181 12.181 12.181 12.181 0 0012.182-12.181 12.182 12.182 0 00-12.182-12.182z"/><path class="cls-23" d="M51.487 338.34a12.181 12.181 0 00-12.181 12.182 12.182 12.182 0 0012.181 12.181 12.181 12.181 0 0012.182-12.181 12.182 12.182 0 00-12.182-12.182z"/><path class="cls-25" d="M245.152 612.874a24.665 24.665 0 01-24.665 24.664 24.665 24.665 0 01-24.664-24.664 24.665 24.665 0 0124.664-24.665 24.665 24.665 0 0124.665 24.665z"/><path class="cls-26" d="M245.152 612.874a24.665 24.665 0 01-24.665 24.664 24.665 24.665 0 01-24.664-24.664 24.665 24.665 0 0124.664-24.665 24.665 24.665 0 0124.665 24.665z"/><path class="cls-25" d="M245.152 430.382a24.665 24.665 0 01-24.665 24.664 24.665 24.665 0 01-24.664-24.664 24.665 24.665 0 0124.664-24.665 24.665 24.665 0 0124.665 24.665z"/><path class="cls-26" d="M245.152 430.382a24.665 24.665 0 01-24.665 24.664 24.665 24.665 0 01-24.664-24.664 24.665 24.665 0 0124.664-24.665 24.665 24.665 0 0124.665 24.665z"/><path d="M241.798 520.675a20.684 20.684 0 01-20.684 20.684 20.684 20.684 0 01-20.685-20.684 20.685 20.685 0 0120.685-20.685 20.684 20.684 0 0120.684 20.685z" fill="#2d2d2c" fill-rule="evenodd"/><path d="M241.798 520.675h0a20.684 20.684 0 01-20.684 20.684h0a20.684 20.684 0 01-20.685-20.684h0a20.685 20.685 0 0120.685-20.685h0a20.684 20.684 0 0120.684 20.685z" stroke="#9e9e9e" stroke-width="8" stroke-linejoin="round" fill="none"/><path class="cls-24" d="M167.195 620.918h-45.53v-45.53h45.53z"/><path class="cls-20" d="M158.608 612.33h-28.403v-28.404h28.403z"/><path class="cls-20" d="M173.167 603.862h-26.836v-11.398h26.836z"/><path class="cls-24" d="M154.83 608.55h-20.806v-20.805h20.805z"/><path class="cls-21" d="M142.14 336.26a14.262 14.262 0 00-14.262 14.262 14.262 14.262 0 0014.262 14.262 14.262 14.262 0 0014.263-14.262 14.262 14.262 0 00-14.262-14.262z"/><path class="cls-23" d="M142.14 336.26a14.262 14.262 0 00-14.262 14.262 14.262 14.262 0 0014.262 14.262 14.262 14.262 0 0014.263-14.262 14.262 14.262 0 00-14.262-14.262z"/><path class="cls-21" d="M142.14 338.34a12.182 12.182 0 00-12.181 12.182 12.182 12.182 0 0012.181 12.181 12.182 12.182 0 0012.182-12.181 12.182 12.182 0 00-12.182-12.182z"/><path class="cls-23" d="M142.14 338.34a12.182 12.182 0 00-12.181 12.182 12.182 12.182 0 0012.181 12.181 12.182 12.182 0 0012.182-12.181 12.182 12.182 0 00-12.182-12.182z"/><path class="cls-21" d="M276.86 336.26a14.262 14.262 0 00-14.262 14.262 14.262 14.262 0 0014.262 14.262 14.262 14.262 0 0014.263-14.262 14.262 14.262 0 00-14.262-14.262z"/><path class="cls-23" d="M276.86 336.26a14.262 14.262 0 00-14.262 14.262 14.262 14.262 0 0014.262 14.262 14.262 14.262 0 0014.263-14.262 14.262 14.262 0 00-14.262-14.262z"/><path class="cls-21" d="M276.86 338.34a12.181 12.181 0 00-12.182 12.181 12.182 12.182 0 0012.182 12.182 12.181 12.181 0 0012.181-12.181 12.181 12.181 0 00-12.181-12.182z"/><path class="cls-23" d="M276.86 338.34a12.181 12.181 0 00-12.182 12.181 12.182 12.182 0 0012.182 12.182 12.181 12.181 0 0012.181-12.181 12.181 12.181 0 00-12.181-12.182z"/><path class="cls-21" d="M321.766 336.26a14.262 14.262 0 00-14.262 14.262 14.262 14.262 0 0014.262 14.262 14.262 14.262 0 0014.262-14.262 14.262 14.262 0 00-14.262-14.262z"/><path class="cls-23" d="M321.766 336.26a14.262 14.262 0 00-14.262 14.262 14.262 14.262 0 0014.262 14.262 14.262 14.262 0 0014.262-14.262 14.262 14.262 0 00-14.262-14.262z"/><path class="cls-21" d="M321.766 338.34a12.182 12.182 0 00-12.182 12.182 12.181 12.181 0 0012.182 12.181 12.181 12.181 0 0012.181-12.181 12.182 12.182 0 00-12.181-12.182z"/><path class="cls-23" d="M321.766 338.34a12.182 12.182 0 00-12.182 12.182 12.181 12.181 0 0012.182 12.181 12.181 12.181 0 0012.181-12.181 12.182 12.182 0 00-12.181-12.182z"/><path fill="#221f1f" d="M83.354 90.71h37.605v90.1H83.354z"/><path stroke-width="10.832" stroke="#221f1f" stroke-linejoin="round" stroke-linecap="round" fill="none" d="M114.737 162.751l1.527 94.678 205.502 1.608v91.947"/><path stroke="#e9262a" stroke-width="10.832" stroke-linejoin="round" stroke-linecap="round" fill="none" d="M102.157 131.939l1.226 142.114 173.283.164.408 76.767"/><path stroke="#babcbe" stroke-width="10.832" stroke-linejoin="round" stroke-linecap="round" fill="none" d="M90.093 113.005l1.92 175.58 50.271-.446-.304 62.845"/></svg>