<svg id="Layer_1" data-name="Layer 1" xmlns="http://www.w3.org/2000/svg" viewBox="0 0 808.4723 769.0298"><defs><style>.cls-1{fill:#434343;}.cls-2{fill:#4f4e51;}.cls-3{fill:#323031;}.cls-4{fill:#6a5f27;}.cls-5{font-size:32.3181px;}.cls-13,.cls-14,.cls-15,.cls-17,.cls-22,.cls-5,.cls-8{fill:#fff;}.cls-13,.cls-14,.cls-17,.cls-18,.cls-20,.cls-5,.cls-8{font-family:Heebo-Light, Heebo;font-weight:300;}.cls-6{letter-spacing:-0.031em;}.cls-7{letter-spacing:0em;}.cls-8{font-size:23.3516px;}.cls-12,.cls-16,.cls-23,.cls-24,.cls-27,.cls-29,.cls-31,.cls-32,.cls-33,.cls-9{fill:none;}.cls-15,.cls-16,.cls-9{stroke:#fff;}.cls-9{stroke-miterlimit:10;stroke-width:5.3864px;}.cls-10{fill:#5a5d65;}.cls-11{fill:#23446c;}.cls-12{stroke:#f1f2f2;}.cls-12,.cls-16{stroke-miterlimit:2;}.cls-12,.cls-15,.cls-16{stroke-width:1.3645px;}.cls-13{font-size:19.7064px;}.cls-14{font-size:19.1105px;}.cls-15,.cls-31,.cls-32,.cls-33{stroke-linecap:round;}.cls-15,.cls-23,.cls-24,.cls-27,.cls-29,.cls-31,.cls-32,.cls-33{stroke-linejoin:round;}.cls-17{font-size:21.736px;}.cls-18,.cls-20{font-size:43.328px;fill:#010101;}.cls-19{letter-spacing:0.001em;}.cls-20{letter-spacing:0.001em;}.cls-21{fill:#1e1e1e;}.cls-21,.cls-22,.cls-25,.cls-26,.cls-28{fill-rule:evenodd;}.cls-23{stroke:#7a52a1;}.cls-23,.cls-24,.cls-27,.cls-29{stroke-width:8px;}.cls-24{stroke:#ffda68;}.cls-25{fill:#ffda68;}.cls-26{fill:#ccc;}.cls-27{stroke:#b7b7b8;}.cls-28{fill:#2d2d2c;}.cls-29{stroke:#9e9e9e;}.cls-30{fill:#221f1f;}.cls-31{stroke:#221f1f;}.cls-31,.cls-32,.cls-33{stroke-width:10.832px;}.cls-32{stroke:#e9262a;}.cls-33{stroke:#babcbe;}</style></defs><path class="cls-1" d="M740.052,215.1642l-1390.7837,1.852a83.1736,83.1736,0,0,1-83.0629-83.284V-1240.57a83.1737,83.1737,0,0,1,83.0629-83.2841l1401.3773-1.852a83.1737,83.1737,0,0,1,83.0629,83.2841V121.2584c4.7727,55.4735-24.5595,94.8529-77.54,93.9026"/><rect class="cls-2" x="-709.1412" y="-1294.7053" width="1518.5154" height="1487.6485" rx="58.5708"/><rect class="cls-3" x="-289.4487" y="79.7115" width="315.2253" height="89.607"/><rect class="cls-3" x="-46.2033" y="79.7115" width="71.9799" height="89.607"/><rect class="cls-3" x="61.6764" y="79.4967" width="315.2253" height="89.607"/><path class="cls-4" d="M97.6644,118.8837A5.4163,5.4163,0,1,1,92.25,124.298a5.4133,5.4133,0,0,1,5.4145-5.4143"/><path class="cls-4" d="M97.6644,143.1292a5.4183,5.4183,0,1,1-5.4145,5.4185,5.4142,5.4142,0,0,1,5.4145-5.4185"/><path class="cls-4" d="M97.6644,93.6554A5.4183,5.4183,0,1,1,92.25,99.07a5.4133,5.4133,0,0,1,5.4145-5.4143"/><rect class="cls-3" x="142.1375" y="79.4967" width="71.9799" height="89.607"/><path class="cls-4" d="M178.1279,118.8837a5.4163,5.4163,0,1,1-5.4184,5.4143,5.4125,5.4125,0,0,1,5.4184-5.4143"/><path class="cls-4" d="M178.1279,143.1292a5.4183,5.4183,0,1,1-5.4184,5.4185,5.4134,5.4134,0,0,1,5.4184-5.4185"/><path class="cls-4" d="M178.1279,93.6554A5.4183,5.4183,0,1,1,172.71,99.07a5.4125,5.4125,0,0,1,5.4184-5.4143"/><rect class="cls-3" x="304.9219" y="79.4967" width="71.9799" height="89.607"/><path class="cls-4" d="M340.9118,118.8837a5.4163,5.4163,0,1,1-5.4184,5.4143,5.4125,5.4125,0,0,1,5.4184-5.4143"/><path class="cls-4" d="M340.9118,143.1292a5.4183,5.4183,0,1,1-5.4184,5.4185,5.4134,5.4134,0,0,1,5.4184-5.4185"/><path class="cls-4" d="M340.9118,93.6554a5.4183,5.4183,0,1,1-5.4184,5.4143,5.4125,5.4125,0,0,1,5.4184-5.4143"/><rect class="cls-3" x="223.5736" y="79.4967" width="71.9838" height="89.607"/><path class="cls-4" d="M259.5665,118.8837a5.4163,5.4163,0,1,1-5.4185,5.4143,5.4125,5.4125,0,0,1,5.4185-5.4143"/><path class="cls-4" d="M259.5665,143.1292a5.4183,5.4183,0,1,1-5.4185,5.4185,5.4134,5.4134,0,0,1,5.4185-5.4185"/><path class="cls-4" d="M259.5665,93.6554A5.4183,5.4183,0,1,1,254.148,99.07a5.4125,5.4125,0,0,1,5.4185-5.4143"/><text class="cls-5" transform="translate(141.7551 30.44)">ANA<tspan class="cls-6" x="63.3584" y="0">L</tspan><tspan class="cls-7" x="79.3994" y="0">OG IN</tspan></text><text class="cls-8" transform="translate(492.8713 55.5572)">RESET</text><text class="cls-8" transform="translate(604.6174 55.5533)">USER</text><polyline class="cls-9" points="96.082 41.246 96.082 24.817 123.988 24.817"/><polyline class="cls-9" points="320.566 22.634 348.277 22.634 348.277 43.567"/><rect class="cls-10" x="472.1118" y="73.5847" width="216.5056" height="101.431" rx="19.6017"/><rect class="cls-11" x="500.4888" y="97.1464" width="53.9447" height="54.3076" rx="26.9723"/><rect class="cls-11" x="606.2956" y="97.1464" width="53.9447" height="54.3076" rx="26.9723"/><rect class="cls-3" x="686.3523" y="-789.1855" width="92.1508" height="821.8193"/><line class="cls-12" x1="427.25" y1="179.0126" x2="437.3417" y2="179.0126"/><line class="cls-12" x1="423.2537" y1="174.7338" x2="441.3622" y2="174.7338"/><line class="cls-12" x1="418.8455" y1="170.463" x2="445.762" y2="170.463"/><line class="cls-12" x1="423.5363" y1="125.7445" x2="407.575" y2="125.7445"/><line class="cls-12" x1="423.5282" y1="98.7631" x2="407.5669" y2="98.7631"/><polyline class="cls-12" points="432.304 170.463 432.304 153.509 407.575 153.509"/><text class="cls-13" transform="translate(425.2776 104.4634) scale(1 1.0605)">S</text><text class="cls-14" transform="translate(426.5823 132.6548) scale(1 1.1297)">5V</text><rect class="cls-15" x="400.7812" y="95.1291" width="6.3234" height="6.8784"/><rect class="cls-15" x="401.1952" y="122.0369" width="6.3234" height="6.8784"/><rect class="cls-15" x="401.1021" y="149.7726" width="6.3234" height="6.8784"/><line class="cls-16" x1="752.8823" y1="84.2843" x2="762.9741" y2="84.2843"/><line class="cls-16" x1="748.886" y1="80.0136" x2="766.9864" y2="80.0136"/><line class="cls-16" x1="744.4859" y1="75.7428" x2="771.4025" y2="75.7428"/><line class="cls-16" x1="703.4397" y1="53.9125" x2="703.4397" y2="69.6476"/><line class="cls-16" x1="730.6793" y1="54.0335" x2="730.6793" y2="90.1137"/><line class="cls-16" x1="757.9107" y1="53.9125" x2="757.9107" y2="76.4778"/><text class="cls-17" transform="translate(696.8557 88.2291) scale(1 1.0056)">S</text><text class="cls-17" transform="translate(718.3752 110.1275) scale(1 1.0056)">6V</text><rect class="cls-15" x="700.0587" y="47.4077" width="6.3234" height="6.8784"/><rect class="cls-15" x="727.5037" y="47.4077" width="6.3234" height="6.8784"/><rect class="cls-15" x="754.6369" y="47.4077" width="6.3234" height="6.8784"/><text class="cls-18" transform="translate(383.217 292.3677)"><tspan class="cls-19">26 A</tspan><tspan x="85.877" y="0">WG</tspan><tspan x="0" y="51.9932">minumum</tspan></text><text class="cls-20" transform="translate(450.3596 489.9849)">MB1013<tspan x="0" y="51.9932">Analog Ultrasonic</tspan><tspan x="0" y="103.9873">Distance Sensor</tspan></text><path class="cls-21" d="M23.3634,400.28V751.9767H415.7059V400.28Z"/><path class="cls-22" d="M51.9114,409.34h0A12.1816,12.1816,0,0,0,39.73,421.5219h0a12.1816,12.1816,0,0,0,12.1815,12.1815h0A12.1815,12.1815,0,0,0,64.093,421.5219h0A12.1816,12.1816,0,0,0,51.9114,409.34Z"/><path class="cls-23" d="M51.9114,409.34h0A12.1816,12.1816,0,0,0,39.73,421.5219h0a12.1816,12.1816,0,0,0,12.1815,12.1815h0A12.1815,12.1815,0,0,0,64.093,421.5219h0A12.1816,12.1816,0,0,0,51.9114,409.34Z"/><path class="cls-22" d="M97.2343,407.26h0a14.2621,14.2621,0,0,0-14.2621,14.2621h0A14.262,14.262,0,0,0,97.2343,435.784h0a14.262,14.262,0,0,0,14.262-14.2621h0A14.2621,14.2621,0,0,0,97.2343,407.26Z"/><path class="cls-24" d="M97.2343,407.26h0a14.2621,14.2621,0,0,0-14.2621,14.2621h0A14.262,14.262,0,0,0,97.2343,435.784h0a14.262,14.262,0,0,0,14.262-14.2621h0A14.2621,14.2621,0,0,0,97.2343,407.26Z"/><path class="cls-24" d="M142.1411,407.26h0a14.2622,14.2622,0,0,0-14.2621,14.2621h0a14.2622,14.2622,0,0,0,14.2621,14.2621h0a14.2621,14.2621,0,0,0,14.2621-14.2621h0A14.2622,14.2622,0,0,0,142.1411,407.26Z"/><path class="cls-22" d="M187.0479,407.26h0a14.2622,14.2622,0,0,0-14.2621,14.2621h0a14.2622,14.2622,0,0,0,14.2621,14.2621h0A14.2621,14.2621,0,0,0,201.31,421.5219h0A14.2622,14.2622,0,0,0,187.0479,407.26Z"/><path class="cls-24" d="M187.0479,407.26h0a14.2622,14.2622,0,0,0-14.2621,14.2621h0a14.2622,14.2622,0,0,0,14.2621,14.2621h0A14.2621,14.2621,0,0,0,201.31,421.5219h0A14.2622,14.2622,0,0,0,187.0479,407.26Z"/><path class="cls-22" d="M231.9547,407.26h0a14.2622,14.2622,0,0,0-14.2621,14.2621h0a14.2622,14.2622,0,0,0,14.2621,14.2621h0a14.262,14.262,0,0,0,14.2621-14.2621h0A14.2621,14.2621,0,0,0,231.9547,407.26Z"/><path class="cls-24" d="M231.9547,407.26h0a14.2622,14.2622,0,0,0-14.2621,14.2621h0a14.2622,14.2622,0,0,0,14.2621,14.2621h0a14.262,14.262,0,0,0,14.2621-14.2621h0A14.2621,14.2621,0,0,0,231.9547,407.26Z"/><path class="cls-24" d="M276.8616,407.26h0A14.2622,14.2622,0,0,0,262.6,421.5219h0a14.262,14.262,0,0,0,14.2621,14.2621h0a14.262,14.262,0,0,0,14.262-14.2621h0A14.2621,14.2621,0,0,0,276.8616,407.26Z"/><path class="cls-24" d="M321.7664,407.26h0a14.2621,14.2621,0,0,0-14.2621,14.2621h0a14.2622,14.2622,0,0,0,14.2621,14.2621h0a14.262,14.262,0,0,0,14.262-14.2621h0A14.2621,14.2621,0,0,0,321.7664,407.26Z"/><path class="cls-25" d="M38.0728,407.26v28.5241H66.5969V407.26Z"/><path class="cls-24" d="M38.0728,407.26v28.5241H66.5969V407.26Z"/><path class="cls-22" d="M67.4491,682.8021h0a30.8761,30.8761,0,0,0-30.876,30.876h0a30.8759,30.8759,0,0,0,30.876,30.876h0a30.876,30.876,0,0,0,30.8761-30.876h0A30.8761,30.8761,0,0,0,67.4491,682.8021Z"/><path class="cls-24" d="M67.4491,682.8021h0a30.8761,30.8761,0,0,0-30.876,30.876h0a30.8759,30.8759,0,0,0,30.876,30.876h0a30.876,30.876,0,0,0,30.8761-30.876h0A30.8761,30.8761,0,0,0,67.4491,682.8021Z"/><path class="cls-22" d="M374.5409,444.4929h0a30.8761,30.8761,0,0,0-30.876,30.876h0a30.8761,30.8761,0,0,0,30.876,30.8761h0a30.8761,30.8761,0,0,0,30.876-30.8761h0A30.8761,30.8761,0,0,0,374.5409,444.4929Z"/><path class="cls-24" d="M374.5409,444.4929h0a30.8761,30.8761,0,0,0-30.876,30.876h0a30.8761,30.8761,0,0,0,30.876,30.8761h0a30.8761,30.8761,0,0,0,30.876-30.8761h0A30.8761,30.8761,0,0,0,374.5409,444.4929Z"/><path class="cls-22" d="M52.3324,407.26h0A14.2621,14.2621,0,0,0,38.07,421.5219h0A14.262,14.262,0,0,0,52.3324,435.784h0a14.262,14.262,0,0,0,14.262-14.2621h0A14.2621,14.2621,0,0,0,52.3324,407.26Z"/><path class="cls-24" d="M52.3324,407.26h0A14.2621,14.2621,0,0,0,38.07,421.5219h0A14.262,14.262,0,0,0,52.3324,435.784h0a14.262,14.262,0,0,0,14.262-14.2621h0A14.2621,14.2621,0,0,0,52.3324,407.26Z"/><path class="cls-22" d="M97.2361,409.34h0a12.1815,12.1815,0,0,0-12.1815,12.1816h0a12.1814,12.1814,0,0,0,12.1815,12.1815h0a12.1815,12.1815,0,0,0,12.1816-12.1815h0A12.1816,12.1816,0,0,0,97.2361,409.34Z"/><path class="cls-24" d="M97.2361,409.34h0a12.1815,12.1815,0,0,0-12.1815,12.1816h0a12.1814,12.1814,0,0,0,12.1815,12.1815h0a12.1815,12.1815,0,0,0,12.1816-12.1815h0A12.1816,12.1816,0,0,0,97.2361,409.34Z"/><path class="cls-22" d="M187.0474,409.34h0a12.1817,12.1817,0,0,0-12.1816,12.1816h0a12.1817,12.1817,0,0,0,12.1816,12.1815h0a12.1815,12.1815,0,0,0,12.1816-12.1815h0A12.1816,12.1816,0,0,0,187.0474,409.34Z"/><path class="cls-24" d="M187.0474,409.34h0a12.1817,12.1817,0,0,0-12.1816,12.1816h0a12.1817,12.1817,0,0,0,12.1816,12.1815h0a12.1815,12.1815,0,0,0,12.1816-12.1815h0A12.1816,12.1816,0,0,0,187.0474,409.34Z"/><path class="cls-22" d="M231.9543,409.34h0a12.1815,12.1815,0,0,0-12.1815,12.1816h0a12.1816,12.1816,0,0,0,12.1815,12.1815h0a12.1815,12.1815,0,0,0,12.1816-12.1815h0A12.1816,12.1816,0,0,0,231.9543,409.34Z"/><path class="cls-24" d="M231.9543,409.34h0a12.1815,12.1815,0,0,0-12.1815,12.1816h0a12.1816,12.1816,0,0,0,12.1815,12.1815h0a12.1815,12.1815,0,0,0,12.1816-12.1815h0A12.1816,12.1816,0,0,0,231.9543,409.34Z"/><path class="cls-22" d="M51.4874,409.34h0a12.1815,12.1815,0,0,0-12.1815,12.1816h0a12.1816,12.1816,0,0,0,12.1815,12.1815h0A12.1815,12.1815,0,0,0,63.669,421.5219h0A12.1816,12.1816,0,0,0,51.4874,409.34Z"/><path class="cls-24" d="M51.4874,409.34h0a12.1815,12.1815,0,0,0-12.1815,12.1816h0a12.1816,12.1816,0,0,0,12.1815,12.1815h0A12.1815,12.1815,0,0,0,63.669,421.5219h0A12.1816,12.1816,0,0,0,51.4874,409.34Z"/><path class="cls-26" d="M245.1518,683.8738h0a24.6647,24.6647,0,0,1-24.6646,24.6647h0a24.6646,24.6646,0,0,1-24.6646-24.6647h0a24.6646,24.6646,0,0,1,24.6646-24.6646h0A24.6646,24.6646,0,0,1,245.1518,683.8738Z"/><path class="cls-27" d="M245.1518,683.8738h0a24.6647,24.6647,0,0,1-24.6646,24.6647h0a24.6646,24.6646,0,0,1-24.6646-24.6647h0a24.6646,24.6646,0,0,1,24.6646-24.6646h0A24.6646,24.6646,0,0,1,245.1518,683.8738Z"/><path class="cls-26" d="M245.1518,501.3817h0a24.6646,24.6646,0,0,1-24.6646,24.6646h0a24.6646,24.6646,0,0,1-24.6646-24.6646h0a24.6646,24.6646,0,0,1,24.6646-24.6646h0A24.6646,24.6646,0,0,1,245.1518,501.3817Z"/><path class="cls-27" d="M245.1518,501.3817h0a24.6646,24.6646,0,0,1-24.6646,24.6646h0a24.6646,24.6646,0,0,1-24.6646-24.6646h0a24.6646,24.6646,0,0,1,24.6646-24.6646h0A24.6646,24.6646,0,0,1,245.1518,501.3817Z"/><path class="cls-28" d="M241.7984,591.6747h0a20.6845,20.6845,0,0,1-20.6845,20.6845h0a20.6845,20.6845,0,0,1-20.6845-20.6845h0A20.6846,20.6846,0,0,1,221.1139,570.99h0A20.6845,20.6845,0,0,1,241.7984,591.6747Z"/><path class="cls-29" d="M241.7984,591.6747h0a20.6845,20.6845,0,0,1-20.6845,20.6845h0a20.6845,20.6845,0,0,1-20.6845-20.6845h0A20.6846,20.6846,0,0,1,221.1139,570.99h0A20.6845,20.6845,0,0,1,241.7984,591.6747Z"/><path class="cls-25" d="M167.1952,691.9179h-45.53v-45.53h45.53Z"/><path class="cls-21" d="M158.6085,683.33H130.2049V654.926h28.4036Z"/><path class="cls-21" d="M173.167,674.8617H146.3314V663.4641H173.167Z"/><path class="cls-25" d="M154.8293,679.55H134.0242V658.7453h20.8051Z"/><path class="cls-22" d="M142.1405,407.26h0a14.2622,14.2622,0,0,0-14.2621,14.2621h0a14.2622,14.2622,0,0,0,14.2621,14.2621h0a14.2622,14.2622,0,0,0,14.2621-14.2621h0A14.2622,14.2622,0,0,0,142.1405,407.26Z"/><path class="cls-24" d="M142.1405,407.26h0a14.2622,14.2622,0,0,0-14.2621,14.2621h0a14.2622,14.2622,0,0,0,14.2621,14.2621h0a14.2622,14.2622,0,0,0,14.2621-14.2621h0A14.2622,14.2622,0,0,0,142.1405,407.26Z"/><path class="cls-22" d="M142.14,409.34h0a12.1816,12.1816,0,0,0-12.1815,12.1816h0A12.1816,12.1816,0,0,0,142.14,433.7034h0a12.1816,12.1816,0,0,0,12.1816-12.1815h0A12.1816,12.1816,0,0,0,142.14,409.34Z"/><path class="cls-24" d="M142.14,409.34h0a12.1816,12.1816,0,0,0-12.1815,12.1816h0A12.1816,12.1816,0,0,0,142.14,433.7034h0a12.1816,12.1816,0,0,0,12.1816-12.1815h0A12.1816,12.1816,0,0,0,142.14,409.34Z"/><path class="cls-22" d="M276.8605,407.26h0a14.262,14.262,0,0,0-14.262,14.262h0a14.2619,14.2619,0,0,0,14.262,14.2621h0a14.2621,14.2621,0,0,0,14.2621-14.2621h0A14.2621,14.2621,0,0,0,276.8605,407.26Z"/><path class="cls-24" d="M276.8605,407.26h0a14.262,14.262,0,0,0-14.262,14.262h0a14.2619,14.2619,0,0,0,14.262,14.2621h0a14.2621,14.2621,0,0,0,14.2621-14.2621h0A14.2621,14.2621,0,0,0,276.8605,407.26Z"/><path class="cls-22" d="M276.86,409.34h0a12.1815,12.1815,0,0,0-12.1816,12.1815h0A12.1816,12.1816,0,0,0,276.86,433.7034h0a12.1815,12.1815,0,0,0,12.1815-12.1816h0A12.1814,12.1814,0,0,0,276.86,409.34Z"/><path class="cls-24" d="M276.86,409.34h0a12.1815,12.1815,0,0,0-12.1816,12.1815h0A12.1816,12.1816,0,0,0,276.86,433.7034h0a12.1815,12.1815,0,0,0,12.1815-12.1816h0A12.1814,12.1814,0,0,0,276.86,409.34Z"/><path class="cls-22" d="M321.7663,407.26h0a14.2621,14.2621,0,0,0-14.262,14.2621h0a14.262,14.262,0,0,0,14.262,14.2621h0a14.262,14.262,0,0,0,14.2621-14.2621h0A14.2621,14.2621,0,0,0,321.7663,407.26Z"/><path class="cls-24" d="M321.7663,407.26h0a14.2621,14.2621,0,0,0-14.262,14.2621h0a14.262,14.262,0,0,0,14.262,14.2621h0a14.262,14.262,0,0,0,14.2621-14.2621h0A14.2621,14.2621,0,0,0,321.7663,407.26Z"/><path class="cls-22" d="M321.7659,409.34h0a12.1816,12.1816,0,0,0-12.1816,12.1816h0a12.1814,12.1814,0,0,0,12.1816,12.1815h0a12.1815,12.1815,0,0,0,12.1816-12.1815h0A12.1816,12.1816,0,0,0,321.7659,409.34Z"/><path class="cls-24" d="M321.7659,409.34h0a12.1816,12.1816,0,0,0-12.1816,12.1816h0a12.1814,12.1814,0,0,0,12.1816,12.1815h0a12.1815,12.1815,0,0,0,12.1816-12.1815h0A12.1816,12.1816,0,0,0,321.7659,409.34Z"/><rect class="cls-30" x="83.354" y="90.7105" width="37.6055" height="90.1001"/><polyline class="cls-31" points="114.737 162.751 116.264 257.429 321.766 259.037 321.766 421.984"/><polyline class="cls-32" points="102.157 131.939 103.383 274.053 276.666 274.217 277.074 421.984"/><polyline class="cls-33" points="90.093 113.005 92.013 288.585 142.284 288.139 141.98 421.984"/></svg>