<svg xmlns="http://www.w3.org/2000/svg" viewBox="0 0 1150.4223 593.0417"><defs><style>.cls-1{fill:#434343;}.cls-2{fill:#4f4e51;}.cls-3{fill:#323031;}.cls-4{fill:#6a5f27;}.cls-5{font-size:32.4125px;}.cls-10,.cls-18,.cls-26,.cls-5,.cls-6,.cls-9{fill:#fff;}.cls-15,.cls-17,.cls-5,.cls-9{font-family:Heebo-Light, Heebo;font-weight:300;}.cls-11,.cls-12,.cls-13,.cls-14,.cls-20,.cls-21,.cls-22,.cls-23,.cls-7,.cls-8{fill:none;}.cls-10,.cls-7,.cls-8{stroke:#fff;}.cls-7{stroke-miterlimit:10;stroke-width:5.4021px;}.cls-8{stroke-miterlimit:2;}.cls-10,.cls-8{stroke-width:1.3685px;}.cls-9{font-size:21.7994px;}.cls-10,.cls-11,.cls-12,.cls-13,.cls-14,.cls-20,.cls-21,.cls-22,.cls-23{stroke-linecap:round;stroke-linejoin:round;}.cls-11,.cls-20{stroke:#221f1f;}.cls-11,.cls-12,.cls-13,.cls-14{stroke-width:8px;}.cls-12,.cls-21{stroke:#e9262a;}.cls-13{stroke:#ffde17;}.cls-14{stroke:#f7941d;}.cls-15,.cls-17{font-size:43.328px;fill:#010101;}.cls-16{letter-spacing:0.001em;}.cls-17{letter-spacing:0.001em;}.cls-18{font-size:16.3067px;letter-spacing:0.001em;}.cls-18,.cls-26{font-family:Heebo-Regular, Heebo;}.cls-19{fill:#221f1f;}.cls-20,.cls-21,.cls-22{stroke-width:10.832px;}.cls-22{stroke:#babcbe;}.cls-23{stroke:#6d6e71;stroke-width:16px;}.cls-24{fill:#080505;}.cls-25{fill:#cf1f2d;}.cls-26{font-size:13.3094px;letter-spacing:0.001em;}.cls-27{fill:#424143;}.cls-28{fill:#59595c;}</style></defs><g id="Layer_1" data-name="Layer 1"><path class="cls-1" d="M1240.7323-1265.6178,1242.59,129.2256a83.4164,83.4164,0,0,1-83.5271,83.3054H-219.2516a83.4165,83.4165,0,0,1-83.5272-83.3054l-1.8574-1405.4679a83.4165,83.4165,0,0,1,83.5271-83.3054H1146.5524c55.6354-4.7866,95.13,24.6312,94.1767,77.7659"/><rect class="cls-2" x="-289.0231" y="-1319.6638" width="1522.9479" height="1491.9909" rx="58.7418" transform="translate(1046.1192 -101.2175) rotate(-90)"/><rect class="cls-3" x="247.5348" y="82.6176" width="824.2182" height="92.4198"/><path class="cls-4" d="M292.5584,123.8822a5.4343,5.4343,0,1,1-5.4337,5.4343,5.4322,5.4322,0,0,1,5.4337-5.4343"/><path class="cls-4" d="M292.5584,148.2024a5.4343,5.4343,0,1,1-5.4337,5.43,5.4285,5.4285,0,0,1,5.4337-5.43"/><path class="cls-4" d="M292.5584,98.5841a5.4321,5.4321,0,1,1-5.4337,5.43,5.4285,5.4285,0,0,1,5.4337-5.43"/><path class="cls-4" d="M374.81,123.8822a5.4343,5.4343,0,1,1-5.4333,5.4343,5.4322,5.4322,0,0,1,5.4333-5.4343"/><path class="cls-4" d="M374.81,148.2024a5.4343,5.4343,0,1,1-5.4333,5.43,5.4285,5.4285,0,0,1,5.4333-5.43"/><path class="cls-4" d="M374.81,98.5841a5.4321,5.4321,0,1,1-5.4333,5.43,5.4285,5.4285,0,0,1,5.4333-5.43"/><path class="cls-4" d="M457.0616,123.8822a5.4343,5.4343,0,1,1-5.4328,5.4343,5.4321,5.4321,0,0,1,5.4328-5.4343"/><path class="cls-4" d="M457.0616,148.2024a5.4343,5.4343,0,1,1-5.4328,5.43,5.4284,5.4284,0,0,1,5.4328-5.43"/><path class="cls-4" d="M457.0616,98.5841a5.4321,5.4321,0,1,1-5.4328,5.43,5.4284,5.4284,0,0,1,5.4328-5.43"/><path class="cls-4" d="M539.3133,123.8822a5.4343,5.4343,0,1,1-5.4325,5.4343,5.4321,5.4321,0,0,1,5.4325-5.4343"/><path class="cls-4" d="M539.3133,148.2024a5.4343,5.4343,0,1,1-5.4325,5.43,5.4285,5.4285,0,0,1,5.4325-5.43"/><path class="cls-4" d="M539.3133,98.5841a5.4321,5.4321,0,1,1-5.4325,5.43,5.4285,5.4285,0,0,1,5.4325-5.43"/><path class="cls-4" d="M621.5649,123.8822a5.4343,5.4343,0,1,1-5.4321,5.4343,5.4321,5.4321,0,0,1,5.4321-5.4343"/><path class="cls-4" d="M621.5649,148.2024a5.4343,5.4343,0,1,1-5.4321,5.43,5.4285,5.4285,0,0,1,5.4321-5.43"/><path class="cls-4" d="M621.5649,98.5841a5.4321,5.4321,0,1,1-5.4321,5.43,5.4285,5.4285,0,0,1,5.4321-5.43"/><path class="cls-4" d="M703.8165,123.8822a5.4343,5.4343,0,1,1-5.4316,5.4343,5.4321,5.4321,0,0,1,5.4316-5.4343"/><path class="cls-4" d="M703.8165,148.2024a5.4343,5.4343,0,1,1-5.4316,5.43,5.4285,5.4285,0,0,1,5.4316-5.43"/><path class="cls-4" d="M703.8165,98.5841a5.4321,5.4321,0,1,1-5.4316,5.43,5.4285,5.4285,0,0,1,5.4316-5.43"/><path class="cls-4" d="M786.0681,123.8822a5.4343,5.4343,0,1,1-5.4312,5.4343,5.4321,5.4321,0,0,1,5.4312-5.4343"/><path class="cls-4" d="M786.0681,148.2024a5.4343,5.4343,0,1,1-5.4312,5.43,5.4285,5.4285,0,0,1,5.4312-5.43"/><path class="cls-4" d="M786.0681,98.5841a5.4321,5.4321,0,1,1-5.4312,5.43,5.4285,5.4285,0,0,1,5.4312-5.43"/><path class="cls-4" d="M868.32,123.8822a5.4343,5.4343,0,1,1-5.4307,5.4343,5.432,5.432,0,0,1,5.4307-5.4343"/><path class="cls-4" d="M868.32,148.2024a5.4343,5.4343,0,1,1-5.4307,5.43,5.4284,5.4284,0,0,1,5.4307-5.43"/><path class="cls-4" d="M868.32,98.5841a5.4321,5.4321,0,1,1-5.4307,5.43,5.4284,5.4284,0,0,1,5.4307-5.43"/><path class="cls-4" d="M950.5713,123.8822a5.4343,5.4343,0,1,1-5.43,5.4343,5.4321,5.4321,0,0,1,5.43-5.4343"/><path class="cls-4" d="M950.5713,148.2024a5.4343,5.4343,0,1,1-5.43,5.43,5.4285,5.4285,0,0,1,5.43-5.43"/><path class="cls-4" d="M950.5713,98.5841a5.4321,5.4321,0,1,1-5.43,5.43,5.4285,5.4285,0,0,1,5.43-5.43"/><path class="cls-4" d="M1032.8229,123.8822a5.4343,5.4343,0,1,1-5.43,5.4343,5.4321,5.4321,0,0,1,5.43-5.4343"/><path class="cls-4" d="M1032.8229,148.2024a5.4343,5.4343,0,1,1-5.43,5.43,5.4285,5.4285,0,0,1,5.43-5.43"/><path class="cls-4" d="M1032.8229,98.5841a5.4321,5.4321,0,1,1-5.43,5.43,5.4285,5.4285,0,0,1,5.43-5.43"/><rect class="cls-3" x="137.8311" y="82.4259" width="72.19" height="89.8686"/><path class="cls-4" d="M173.9266,121.9262a5.4343,5.4343,0,1,1-5.43,5.4342,5.4321,5.4321,0,0,1,5.43-5.4342"/><path class="cls-4" d="M173.9266,146.2464a5.4342,5.4342,0,1,1-5.43,5.43,5.4284,5.4284,0,0,1,5.43-5.43"/><path class="cls-4" d="M173.9266,96.6281a5.4321,5.4321,0,1,1-5.43,5.43,5.4285,5.4285,0,0,1,5.43-5.43"/><rect class="cls-3" x="11.3449" y="51.302" width="77.8994" height="120.9925"/><path class="cls-4" d="M50.292,119.39a5.4343,5.4343,0,1,1-5.43,5.4342,5.4354,5.4354,0,0,1,5.43-5.4342"/><path class="cls-4" d="M50.292,143.71a5.4343,5.4343,0,1,1-5.43,5.43,5.4318,5.4318,0,0,1,5.43-5.43"/><path class="cls-4" d="M50.292,94.0917a5.4321,5.4321,0,1,1-5.43,5.43,5.4317,5.4317,0,0,1,5.43-5.43"/><path class="cls-4" d="M50.292,69.0234a5.4343,5.4343,0,1,1-5.43,5.43,5.4318,5.4318,0,0,1,5.43-5.43"/><text class="cls-5" transform="translate(182.8227 63.1918) rotate(-90)">RS-232</text><text class="cls-5" transform="translate(62.4751 28.184) rotate(-90)">I</text><text class="cls-5" transform="translate(51.6816 19.5424) rotate(-90) scale(0.583)">2</text><text class="cls-5" transform="translate(62.4751 9.0609) rotate(-90)">C</text><path class="cls-6" d="M650.6685,13.3473a8.9633,8.9633,0,0,1,3.4872,3.678,11.633,11.633,0,0,1,1.2506,5.484v2.1214a11.61,11.61,0,0,1-1.2506,5.4918,8.9389,8.9389,0,0,1-3.51,3.6721,10.2954,10.2954,0,0,1-5.2093,1.2975h-6.3V12.0479H645.58A9.9783,9.9783,0,0,1,650.6685,13.3473Zm2.8092,9.1308a10.2884,10.2884,0,0,0-.9818-4.6131,7.2523,7.2523,0,0,0-2.77-3.07A7.8417,7.8417,0,0,0,645.58,13.71h-4.4962V33.4459h4.352a8.0213,8.0213,0,0,0,4.2586-1.1084,7.3361,7.3361,0,0,0,2.8014-3.1014,10.2955,10.2955,0,0,0,.9818-4.6054Z"/><path class="cls-6" d="M660.8026,35.0921V12.0479h1.9481V35.0921Z"/><path class="cls-6" d="M684.9318,30.3991a8.8037,8.8037,0,0,1-12.5575,3.7033,8.5809,8.5809,0,0,1-3.1676-3.7111,13.085,13.085,0,0,1-1.1221-5.5872V22.3359a13.1515,13.1515,0,0,1,1.1143-5.5872,8.5746,8.5746,0,0,1,3.1521-3.7111,8.4765,8.4765,0,0,1,4.691-1.3053,8.2935,8.2935,0,0,1,7.882,5.0086,13.2561,13.2561,0,0,1,1.1066,5.595v2.4682A13.3111,13.3111,0,0,1,684.9318,30.3991ZM683.26,17.5883a6.7287,6.7287,0,0,0-2.4274-3.07,6.6105,6.6105,0,0,0-3.791-1.0773,6.4949,6.4949,0,0,0-3.7365,1.0773,6.807,6.807,0,0,0-2.4273,3.078,12.0174,12.0174,0,0,0-.8494,4.7086v2.4994a11.983,11.983,0,0,0,.8572,4.7242,6.8834,6.8834,0,0,0,2.4429,3.0877,6.497,6.497,0,0,0,3.7443,1.0832,6.6,6.6,0,0,0,3.7988-1.0754,6.6721,6.6721,0,0,0,2.4039-3.078,12.4249,12.4249,0,0,0,.826-4.7417V22.3047A12.0735,12.0735,0,0,0,683.26,17.5883Z"/><polyline class="cls-7" points="287.123 45.763 287.123 23.405 617.416 23.405"/><polyline class="cls-7" points="707.75 23.403 1019.898 23.403 1019.898 45.761"/><rect class="cls-3" x="1104.8843" y="-60.6911" width="89.8686" height="79.7107"/><text class="cls-5" transform="translate(1080.8423 7.602) rotate(-90)">RSL</text><line class="cls-8" x1="1088.3026" y1="155.613" x2="1110.0431" y2="155.613"/><line class="cls-8" x1="1088.1568" y1="128.2777" x2="1124.8847" y2="127.6462"/><line class="cls-8" x1="1088.3026" y1="100.9667" x2="1103.9541" y2="100.9667"/><line class="cls-8" x1="1118.6257" y1="160.6736" x2="1118.6257" y2="150.5524"/><line class="cls-8" x1="1114.3261" y1="164.6897" x2="1114.3261" y2="146.5282"/><line class="cls-8" x1="1110.0508" y1="169.1107" x2="1110.0508" y2="142.1154"/><text class="cls-9" transform="translate(1145.1431 140.4887) rotate(-90) scale(1 1.0056)">5V</text><text class="cls-9" transform="translate(1122.5727 107.8051) rotate(-90) scale(1 1.0056)">S</text><rect class="cls-10" x="1081.2497" y="97.7144" width="6.8985" height="6.3418"/><rect class="cls-10" x="1081.7604" y="124.7911" width="6.8985" height="6.3418"/><rect class="cls-10" x="1081.6707" y="152.235" width="6.8985" height="6.3418"/><text class="cls-9" transform="translate(1158.9556 68.9027) rotate(-90) scale(1 1.0056)">S</text><rect class="cls-10" x="1147.8492" y="30.2069" width="6.8985" height="6.3418"/><line class="cls-11" x1="525.4616" y1="389.1043" x2="669.8107" y2="389.1043"/><line class="cls-12" x1="525.4616" y1="379.0812" x2="670.234" y2="379.0812"/><line class="cls-13" x1="525.4616" y1="369.6507" x2="670.234" y2="368.8031"/><line class="cls-11" x1="525.2499" y1="431.8886" x2="669.599" y2="431.8886"/><line class="cls-12" x1="525.2499" y1="421.8656" x2="670.0223" y2="421.8656"/><line class="cls-14" x1="525.2499" y1="412.435" x2="670.0223" y2="411.5874"/><text class="cls-15" transform="translate(34.9673 286.2309)"><tspan class="cls-16">26 A</tspan><tspan x="85.8774" y="0">WG</tspan><tspan x="0" y="51.9932">minumum</tspan></text><text class="cls-17" transform="translate(746.9497 390.5336)">VEX Ultrasonic <tspan class="cls-16"><tspan x="0" y="51.9932">Range Finder</tspan></tspan></text><text class="cls-18" transform="translate(625.3696 314.5277) rotate(-90)">VCC</text><rect class="cls-19" x="346.0447" y="90.4387" width="37.6055" height="90.1001"/><polyline class="cls-20" points="354.12 160.849 354.1 388.975 498.449 388.975"/><polyline class="cls-21" points="364.847 130.037 365.25 378.952 498.873 378.952"/><polyline class="cls-22" points="375.342 111.103 375.745 369.521 498.873 368.674"/><line class="cls-23" x1="531.6736" y1="368.676" x2="476.4665" y2="368.672"/><line class="cls-23" x1="532.0532" y1="391.0326" x2="476.846" y2="391.0286"/><line class="cls-23" x1="531.6736" y1="378.9537" x2="476.4665" y2="378.9497"/><rect class="cls-19" x="275.3919" y="92.6151" width="37.6055" height="90.1001"/><polyline class="cls-20" points="283.467 163.026 282.489 431.761 497.681 430.86"/><polyline class="cls-21" points="294.194 132.213 293.639 421.738 498.104 420.837"/><polyline class="cls-22" points="304.689 113.28 304.134 412.307 498.104 410.559"/><line class="cls-23" x1="530.905" y1="410.5617" x2="475.6979" y2="410.5577"/><line class="cls-23" x1="531.2846" y1="432.9183" x2="476.0774" y2="432.9143"/><line class="cls-23" x1="530.905" y1="420.8394" x2="475.6979" y2="420.8354"/><rect class="cls-24" x="591.7018" y="363.309" width="8.6099" height="31.5446" transform="translate(1192.0136 758.1625) rotate(180)"/><rect class="cls-24" x="591.7018" y="405.9657" width="8.6099" height="31.5446" transform="translate(1192.0136 843.476) rotate(180)"/><rect class="cls-25" x="597.8478" y="293.2701" width="122.6992" height="213.4363" transform="translate(1318.3948 799.9764) rotate(180)"/><text class="cls-26" transform="translate(612.4438 394.1606) rotate(-90)">Input</text><text class="cls-26" transform="translate(612.7485 440.5668) rotate(-90)">Output</text><circle class="cls-27" cx="659.7228" cy="456.1861" r="27.1559"/><circle class="cls-27" cx="659.7228" cy="348.9355" r="27.1559"/><rect class="cls-28" x="597.8478" y="506.7063" width="122.6992" height="68.9936" transform="translate(1318.3948 1082.4062) rotate(180)"/><rect class="cls-28" x="597.8478" y="227.5043" width="122.6992" height="65.7658" transform="translate(1318.3948 520.7743) rotate(180)"/><rect class="cls-6" x="650.6033" y="517.8771" width="18.239" height="46.0986" rx="6.694" transform="translate(1319.4457 1081.8528) rotate(-180)"/><rect class="cls-6" x="650.0779" y="239.9087" width="18.239" height="46.0986" rx="6.694" transform="translate(1318.3948 525.9159) rotate(-180)"/></g></svg>