<svg xmlns="http://www.w3.org/2000/svg" viewBox="0 0 818.351 593.042"><defs><style>.cls-20,.cls-5{fill:#fff}.cls-14,.cls-15,.cls-16,.cls-17,.cls-7,.cls-8{fill:none}.cls-14,.cls-7{stroke:#221f1f}.cls-14,.cls-15,.cls-16,.cls-17,.cls-7,.cls-8{stroke-linecap:round;stroke-linejoin:round}.cls-7,.cls-8{stroke-width:8px}.cls-15,.cls-8{stroke:#e9262a}.cls-20{font-family:Verdana}.cls-13{fill:#221f1f}.cls-14,.cls-15,.cls-16{stroke-width:10.832px}.cls-16{stroke:#babcbe}.cls-17{stroke:#6d6e71;stroke-width:16px}.cls-18{fill:#080505}.cls-20{font-size:13.3094px;letter-spacing:.001em}.cls-21{fill:#424143}.cls-22{fill:#59595c}</style></defs><g id="Layer_1" data-name="Layer 1"><path d="M1007.013-1265.618l1.857 1394.844a83.416 83.416 0 01-83.527 83.305H-452.971a83.416 83.416 0 01-83.527-83.305l-1.858-1405.468a83.416 83.416 0 0183.527-83.306H912.833c55.635-4.786 95.13 24.631 94.177 77.766" fill="#434343"/><rect x="-522.743" y="-1319.664" width="1522.948" height="1491.991" rx="58.742" transform="rotate(-90 238.731 -573.668)" fill="#4f4e51"/><path fill="#323031" d="M13.815 82.618h824.218v92.42H13.815z"/><path d="M58.839 123.882a5.434 5.434 0 11-5.434 5.434 5.432 5.432 0 015.434-5.434m0 24.32a5.434 5.434 0 11-5.434 5.43 5.428 5.428 0 015.434-5.43m0-49.618a5.432 5.432 0 11-5.434 5.43 5.428 5.428 0 015.434-5.43m82.251 25.298a5.434 5.434 0 11-5.433 5.434 5.432 5.432 0 015.433-5.434m0 24.32a5.434 5.434 0 11-5.433 5.43 5.428 5.428 0 015.433-5.43m0-49.618a5.432 5.432 0 11-5.433 5.43 5.428 5.428 0 015.433-5.43m82.252 25.298a5.434 5.434 0 11-5.433 5.434 5.432 5.432 0 015.433-5.434m0 24.32a5.434 5.434 0 11-5.433 5.43 5.428 5.428 0 015.433-5.43m0-49.618a5.432 5.432 0 11-5.433 5.43 5.428 5.428 0 015.433-5.43m82.252 25.298a5.434 5.434 0 11-5.433 5.434 5.432 5.432 0 015.433-5.434m0 24.32a5.434 5.434 0 11-5.433 5.43 5.428 5.428 0 015.433-5.43m0-49.618a5.432 5.432 0 11-5.433 5.43 5.428 5.428 0 015.433-5.43m82.251 25.298a5.434 5.434 0 11-5.432 5.434 5.432 5.432 0 015.432-5.434m0 24.32a5.434 5.434 0 11-5.432 5.43 5.428 5.428 0 015.432-5.43m0-49.618a5.432 5.432 0 11-5.432 5.43 5.428 5.428 0 015.432-5.43m82.252 25.298a5.434 5.434 0 11-5.432 5.434 5.432 5.432 0 015.432-5.434m0 24.32a5.434 5.434 0 11-5.432 5.43 5.428 5.428 0 015.432-5.43m0-49.618a5.432 5.432 0 11-5.432 5.43 5.428 5.428 0 015.432-5.43m82.252 25.298a5.434 5.434 0 11-5.432 5.434 5.432 5.432 0 015.432-5.434m0 24.32a5.434 5.434 0 11-5.432 5.43 5.428 5.428 0 015.432-5.43m0-49.618a5.432 5.432 0 11-5.432 5.43 5.428 5.428 0 015.432-5.43m82.251 25.298a5.434 5.434 0 11-5.43 5.434 5.432 5.432 0 015.43-5.434m0 24.32a5.434 5.434 0 11-5.43 5.43 5.428 5.428 0 015.43-5.43m0-49.618a5.432 5.432 0 11-5.43 5.43 5.428 5.428 0 015.43-5.43m82.252 25.298a5.434 5.434 0 11-5.43 5.434 5.432 5.432 0 015.43-5.434m0 24.32a5.434 5.434 0 11-5.43 5.43 5.428 5.428 0 015.43-5.43m0-49.618a5.432 5.432 0 11-5.43 5.43 5.428 5.428 0 015.43-5.43m82.251 25.298a5.434 5.434 0 11-5.43 5.434 5.432 5.432 0 015.43-5.434m0 24.32a5.434 5.434 0 11-5.43 5.43 5.428 5.428 0 015.43-5.43m0-49.618a5.432 5.432 0 11-5.43 5.43 5.428 5.428 0 015.43-5.43" fill="#6a5f27"/><path class="cls-5" d="M416.949 13.347a8.963 8.963 0 013.487 3.678 11.633 11.633 0 011.25 5.484v2.122a11.61 11.61 0 01-1.25 5.492 8.939 8.939 0 01-3.51 3.672 10.295 10.295 0 01-5.21 1.297h-6.3V12.048h6.445a9.978 9.978 0 015.088 1.3zm2.81 9.131a10.288 10.288 0 00-.983-4.613 7.252 7.252 0 00-2.77-3.07 7.842 7.842 0 00-4.145-1.085h-4.496v19.736h4.352a8.021 8.021 0 004.258-1.108 7.336 7.336 0 002.802-3.102 10.296 10.296 0 00.981-4.605zm7.324 12.614V12.048h1.948v23.044zm24.129-4.692a8.804 8.804 0 01-12.557 3.702 8.58 8.58 0 01-3.168-3.71 13.085 13.085 0 01-1.122-5.588v-2.468a13.152 13.152 0 011.114-5.587 8.575 8.575 0 013.153-3.711 8.476 8.476 0 014.69-1.306 8.293 8.293 0 017.883 5.009 13.256 13.256 0 011.106 5.595v2.468a13.311 13.311 0 01-1.099 5.595zm-1.671-12.812a6.729 6.729 0 00-2.427-3.07 6.61 6.61 0 00-3.791-1.077 6.495 6.495 0 00-3.737 1.077 6.807 6.807 0 00-2.427 3.078 12.017 12.017 0 00-.85 4.709v2.5a11.983 11.983 0 00.858 4.724 6.883 6.883 0 002.442 3.087 6.497 6.497 0 003.745 1.083 6.6 6.6 0 003.799-1.075 6.672 6.672 0 002.403-3.078 12.425 12.425 0 00.826-4.742v-2.5a12.073 12.073 0 00-.841-4.716z"/><path d="M53.404 45.763V23.405h330.293m90.333-.002h312.149v22.358" stroke="#fff" stroke-miterlimit="10" stroke-width="5.402" fill="none"/><path class="cls-7" d="M291.742 389.104h144.349"/><path class="cls-8" d="M291.742 379.081h144.772"/><path stroke="#ffde17" stroke-width="8" stroke-linecap="round" stroke-linejoin="round" fill="none" d="M291.742 369.651l144.772-.848"/><path class="cls-7" d="M291.53 431.889h144.35"/><path class="cls-8" d="M291.53 421.866h144.773"/><path stroke="#f7941d" stroke-width="8" stroke-linecap="round" stroke-linejoin="round" fill="none" d="M291.53 412.435l144.773-.848"/><text transform="translate(513.23 387.02)" font-family="Verdana" font-size="39.26" fill="#010101" letter-spacing=".001em">VEX Ultrasonic <tspan x="0" y="47.112">Range Finder</tspan></text><text transform="rotate(-90 353.089 -38.561)" font-size="16.307" letter-spacing=".001em" font-family="Verdana" fill="#fff">VCC</text><path class="cls-13" d="M112.325 90.439h37.605v90.1h-37.605z"/><path class="cls-14" d="M120.401 160.849l-.02 228.126H264.73"/><path class="cls-15" d="M131.128 130.037l.403 248.915h133.622"/><path class="cls-16" d="M141.622 111.103l.404 258.418 123.127-.847"/><path class="cls-17" d="M297.954 368.676l-55.207-.004m55.587 22.361l-55.208-.004m54.828-12.075l-55.207-.004"/><path class="cls-13" d="M41.672 92.615h37.605v90.1H41.672z"/><path class="cls-14" d="M49.748 163.026l-.979 268.735 215.192-.901"/><path class="cls-15" d="M60.475 132.213l-.556 289.525 204.466-.901"/><path class="cls-16" d="M70.969 113.28l-.555 299.027 193.971-1.748"/><path class="cls-17" d="M297.185 410.562l-55.207-.004m55.587 22.36l-55.207-.004m54.827-12.075l-55.207-.004"/><path class="cls-18" transform="rotate(180 362.287 379.081)" d="M357.982 363.309h8.61v31.545h-8.61z"/><path class="cls-18" transform="rotate(180 362.287 421.738)" d="M357.982 405.966h8.61v31.545h-8.61z"/><path transform="rotate(180 425.478 399.988)" fill="#cf1f2d" d="M364.128 293.27h122.699v213.436H364.128z"/><text class="cls-20" transform="rotate(-90 386.942 8.218)">Input</text><text class="cls-20" transform="rotate(-90 415.798 36.769)">Output</text><circle class="cls-21" cx="426.003" cy="456.186" r="27.156"/><circle class="cls-21" cx="426.003" cy="348.935" r="27.156"/><path class="cls-22" transform="rotate(180 425.478 541.203)" d="M364.128 506.706h122.699V575.7H364.128z"/><path class="cls-22" transform="rotate(180 425.478 260.387)" d="M364.128 227.504h122.699v65.766H364.128z"/><rect class="cls-5" x="416.884" y="517.877" width="18.239" height="46.099" rx="6.694" transform="rotate(-180 426.003 540.926)"/><rect class="cls-5" x="416.358" y="239.909" width="18.239" height="46.099" rx="6.694" transform="rotate(-180 425.478 262.958)"/></g></svg>