<svg xmlns="http://www.w3.org/2000/svg" viewBox="0 0 1212.4325 931.4881"><defs><style>.cls-1{fill:#434343;}.cls-2{fill:#4f4e51;}.cls-3{fill:#424242;}.cls-4{fill:#323031;}.cls-5{fill:#6a5f27;}.cls-6{fill:none;stroke:#5a5a5d;stroke-miterlimit:10;stroke-width:26.5774px;}.cls-7{font-size:79.7322px;}.cls-25,.cls-7{fill:#fff;}.cls-26,.cls-7{font-family:Heebo-Light, Heebo;font-weight:300;}.cls-8{fill:#51545a;}.cls-9{fill:#3c3d42;}.cls-10{opacity:0.9;}.cls-11{fill:#006654;}.cls-12{fill:#3c4852;}.cls-13{fill:#788787;}.cls-14{fill:#8c8d87;}.cls-15{fill:#1b1c1c;}.cls-16{fill:#cabca1;}.cls-17{fill:#8c7a77;}.cls-18{fill:#7d6d65;}.cls-19{fill:#303541;}.cls-20{fill:#3b424f;}.cls-21{font-size:53.7502px;fill:#abbfc2;font-family:MyriadPro-Bold, Myriad Pro;font-weight:700;letter-spacing:0.107em;}.cls-22{letter-spacing:0.103em;}.cls-23{letter-spacing:0.089em;}.cls-24{fill:#d2a364;}.cls-26{font-size:80px;fill:#231f20;}</style></defs><g id="Layer_1" data-name="Layer 1"><path class="cls-1" d="M908.5952,4045.7446l-3431.2069,4.569c-113.1769,0-204.9248-91.9922-204.9248-205.47V454.2968c0-113.4782,91.7479-205.47,204.9248-205.47l3457.3423-4.5691c113.1769,0,204.9248,91.9923,204.9248,205.47l0,3364.3415c11.7747,136.8588-60.591,234.0119-191.2983,231.6674"/><rect class="cls-2" x="-2666.714" y="320.7404" width="3746.3342" height="3670.1824" rx="144.5003"/><path class="cls-3" d="M-39.4,902.021H-1572.1842a95.6831,95.6831,0,0,1-95.6808-95.68V411.1833a95.6834,95.6834,0,0,1,95.6808-95.6809H-39.4a95.6831,95.6831,0,0,1,95.68,95.6809v395.158a95.6829,95.6829,0,0,1-95.68,95.68"/><rect class="cls-4" x="225.6875" y="348.8968" width="253.0061" height="553.1206"/><rect class="cls-4" x="274.6325" y="365.3652" width="159.4158" height="514.5794"/><path class="cls-5" d="M369.4412,789.3853c0-2.1493,4.3082-3.8864,9.6275-3.8864s9.6371,1.7371,9.6371,3.8864-4.3178,3.8877-9.6371,3.8877-9.6275-1.7372-9.6275-3.8877"/><path class="cls-5" d="M319.9666,789.3853c0-2.1493,4.3082-3.8864,9.6371-3.8864,5.3193,0,9.6383,1.7371,9.6383,3.8864s-4.319,3.8877-9.6383,3.8877c-5.3289,0-9.6371-1.7372-9.6371-3.8877"/><path class="cls-5" d="M369.4412,765.4723c0-2.1493,4.3082-3.8865,9.6275-3.8865s9.6371,1.7372,9.6371,3.8865-4.3178,3.8877-9.6371,3.8877-9.6275-1.7372-9.6275-3.8877"/><path class="cls-5" d="M319.9666,765.4723c0-2.1493,4.3082-3.8865,9.6371-3.8865,5.3193,0,9.6383,1.7372,9.6383,3.8865s-4.319,3.8877-9.6383,3.8877c-5.3289,0-9.6371-1.7372-9.6371-3.8877"/><path class="cls-5" d="M369.4412,734.6106c0-2.1493,4.3082-3.8865,9.6275-3.8865s9.6371,1.7372,9.6371,3.8865-4.3178,3.8877-9.6371,3.8877-9.6275-1.7372-9.6275-3.8877"/><path class="cls-5" d="M319.9666,734.6106c0-2.1493,4.3082-3.8865,9.6371-3.8865,5.3193,0,9.6383,1.7372,9.6383,3.8865s-4.319,3.8877-9.6383,3.8877c-5.3289,0-9.6371-1.7372-9.6371-3.8877"/><path class="cls-5" d="M369.4412,710.6976c0-2.1493,4.3082-3.8865,9.6275-3.8865s9.6371,1.7372,9.6371,3.8865-4.3178,3.8876-9.6371,3.8876-9.6275-1.7371-9.6275-3.8876"/><path class="cls-5" d="M319.9666,710.6976c0-2.1493,4.3082-3.8865,9.6371-3.8865,5.3193,0,9.6383,1.7372,9.6383,3.8865s-4.319,3.8876-9.6383,3.8876c-5.3289,0-9.6371-1.7371-9.6371-3.8876"/><path class="cls-5" d="M369.4412,680.6122c0-2.1493,4.3082-3.8865,9.6275-3.8865s9.6371,1.7372,9.6371,3.8865S384.388,684.5,379.0687,684.5s-9.6275-1.7372-9.6275-3.8877"/><path class="cls-5" d="M319.9666,680.6122c0-2.1493,4.3082-3.8865,9.6371-3.8865,5.3193,0,9.6383,1.7372,9.6383,3.8865s-4.319,3.8877-9.6383,3.8877c-5.3289,0-9.6371-1.7372-9.6371-3.8877"/><path class="cls-5" d="M369.4412,651.7441c0-2.1493,4.3082-3.8865,9.6275-3.8865s9.6371,1.7372,9.6371,3.8865-4.3178,3.8876-9.6371,3.8876-9.6275-1.7372-9.6275-3.8876"/><path class="cls-5" d="M319.9666,651.7441c0-2.1493,4.3082-3.8865,9.6371-3.8865,5.3193,0,9.6383,1.7372,9.6383,3.8865s-4.319,3.8876-9.6383,3.8876c-5.3289,0-9.6371-1.7372-9.6371-3.8876"/><path class="cls-5" d="M369.4412,623.1634c0-2.1385,4.3082-3.8864,9.6275-3.8864s9.6371,1.7479,9.6371,3.8864c0,2.15-4.3178,3.8877-9.6371,3.8877s-9.6275-1.7372-9.6275-3.8877"/><path class="cls-5" d="M319.9666,623.1634c0-2.1385,4.3082-3.8864,9.6371-3.8864,5.3193,0,9.6383,1.7479,9.6383,3.8864,0,2.15-4.319,3.8877-9.6383,3.8877-5.3289,0-9.6371-1.7372-9.6371-3.8877"/><path class="cls-5" d="M369.4412,597.65c0-2.1493,4.3082-3.8865,9.6275-3.8865,5.3289,0,9.6479,1.7372,9.6479,3.8865,0,2.14-4.319,3.8877-9.6479,3.8877-5.3193,0-9.6275-1.748-9.6275-3.8877"/><path class="cls-5" d="M319.9762,597.65c0-2.1493,4.3082-3.8865,9.6275-3.8865s9.6371,1.7372,9.6371,3.8865c0,2.14-4.3178,3.8877-9.6371,3.8877s-9.6275-1.748-9.6275-3.8877"/><path class="cls-5" d="M369.4412,571.5132c0-2.1493,4.3082-3.8865,9.6275-3.8865s9.6479,1.7372,9.6479,3.8865-4.3286,3.8877-9.6479,3.8877-9.6275-1.7372-9.6275-3.8877"/><path class="cls-5" d="M319.9666,571.5132c0-2.1493,4.3178-3.8865,9.6371-3.8865s9.6383,1.7372,9.6383,3.8865-4.319,3.8877-9.6383,3.8877-9.6371-1.7372-9.6371-3.8877"/><path class="cls-5" d="M369.4412,545.77c0-2.1493,4.3082-3.8865,9.6275-3.8865s9.6371,1.7372,9.6371,3.8865-4.3178,3.8876-9.6371,3.8876-9.6275-1.7371-9.6275-3.8876"/><path class="cls-5" d="M319.9666,545.77c0-2.1493,4.3082-3.8865,9.6371-3.8865,5.3193,0,9.6383,1.7372,9.6383,3.8865s-4.319,3.8876-9.6383,3.8876c-5.3289,0-9.6371-1.7371-9.6371-3.8876"/><path class="cls-5" d="M369.4412,516.3168c0-2.1386,4.3082-3.8865,9.6275-3.8865s9.6479,1.7479,9.6479,3.8865c0,2.1505-4.3286,3.8876-9.6479,3.8876s-9.6275-1.7371-9.6275-3.8876"/><path class="cls-5" d="M319.9666,516.3168c0-2.1386,4.3178-3.8865,9.6371-3.8865s9.6383,1.7479,9.6383,3.8865c0,2.1505-4.319,3.8876-9.6383,3.8876s-9.6371-1.7371-9.6371-3.8876"/><path class="cls-5" d="M369.4412,490.2856c0-2.1493,4.3082-3.8865,9.6275-3.8865s9.6371,1.7372,9.6371,3.8865-4.3178,3.8876-9.6371,3.8876-9.6275-1.7371-9.6275-3.8876"/><path class="cls-5" d="M319.9666,490.2856c0-2.1493,4.3082-3.8865,9.6371-3.8865,5.3193,0,9.6383,1.7372,9.6383,3.8865s-4.319,3.8876-9.6383,3.8876c-5.3289,0-9.6371-1.7371-9.6371-3.8876"/><path class="cls-5" d="M369.4412,464.59c0-2.1493,4.3082-3.8865,9.6275-3.8865s9.6479,1.7372,9.6479,3.8865-4.3286,3.8876-9.6479,3.8876-9.6275-1.7371-9.6275-3.8876"/><path class="cls-5" d="M319.9666,464.59c0-2.1386,4.3178-3.8865,9.6371-3.8865s9.6383,1.7479,9.6383,3.8865c0,2.1505-4.319,3.8876-9.6383,3.8876s-9.6371-1.7371-9.6371-3.8876"/><polyline class="cls-6" points="257.85 654.888 257.85 887.038 450.831 887.038 450.831 364.637 257.85 364.637 257.85 592.891"/><text class="cls-7" transform="translate(709.1586 688.6891)">POWER</text><rect class="cls-8" x="1012.4776" y="623.3727" width="78.683" height="74.5183"/><rect class="cls-9" x="1086.8886" y="623.9582" width="52.0297" height="74.5183"/><text class="cls-7" transform="translate(687.7836 816.0719)">STATUS</text><rect class="cls-8" x="1012.4776" y="750.7629" width="78.683" height="74.5183"/><rect class="cls-9" x="1086.8886" y="751.3485" width="52.0297" height="74.5183"/><g class="cls-10"><rect class="cls-11" x="217.7423" y="361.7258" width="631.2681" height="522.6459"/><rect class="cls-12" x="449.7435" y="485.7819" width="175.9027" height="241.6572" rx="28.8"/><rect class="cls-13" x="413.9069" y="498.6914" width="33.517" height="13.6278"/><rect class="cls-13" x="413.9069" y="527.7885" width="33.517" height="13.6278"/><rect class="cls-13" x="413.9069" y="556.8857" width="33.517" height="13.6278"/><rect class="cls-13" x="415.0118" y="585.9829" width="33.517" height="13.6278"/><rect class="cls-13" x="415.0118" y="615.08" width="33.517" height="13.6278"/><rect class="cls-13" x="415.0118" y="644.1772" width="33.517" height="13.6278"/><rect class="cls-13" x="415.0118" y="673.2743" width="33.517" height="13.6278"/><rect class="cls-13" x="415.0118" y="702.3715" width="33.517" height="13.6278"/><rect class="cls-13" x="625.6462" y="497.9565" width="33.517" height="13.6278"/><rect class="cls-13" x="625.6462" y="527.0537" width="33.517" height="13.6278"/><rect class="cls-13" x="625.6462" y="556.1509" width="33.517" height="13.6278"/><rect class="cls-13" x="626.7511" y="585.248" width="33.517" height="13.6278"/><rect class="cls-13" x="626.7511" y="614.3452" width="33.517" height="13.6278"/><rect class="cls-13" x="626.7511" y="643.4424" width="33.517" height="13.6278"/><rect class="cls-13" x="626.7511" y="672.5395" width="33.517" height="13.6278"/><rect class="cls-13" x="626.7511" y="701.6367" width="33.517" height="13.6278"/><rect class="cls-14" x="413.2693" y="741.8743" width="39.074" height="36.8759"/><rect class="cls-15" x="452.3434" y="741.8743" width="39.074" height="36.8759"/><rect class="cls-14" x="491.4174" y="741.8743" width="39.074" height="36.8759"/><rect class="cls-14" x="336.4079" y="446.7129" width="18.8112" height="24.6338"/><rect class="cls-16" x="355.2192" y="446.7129" width="18.8112" height="24.6338"/><rect class="cls-14" x="374.0304" y="446.7129" width="18.8112" height="24.6338"/><rect class="cls-14" x="258.2761" y="446.7129" width="18.8112" height="24.6338"/><rect class="cls-15" x="277.0873" y="446.7129" width="18.8112" height="24.6338"/><rect class="cls-14" x="295.8985" y="446.7129" width="18.8112" height="24.6338"/><rect class="cls-14" x="597.4293" y="754.1164" width="18.8112" height="24.6338"/><rect class="cls-17" x="616.2406" y="754.1164" width="18.8112" height="24.6338"/><rect class="cls-14" x="635.0518" y="754.1164" width="18.8112" height="24.6338"/><rect class="cls-14" x="435.0253" y="446.7129" width="18.8112" height="24.6338"/><rect class="cls-18" x="453.8366" y="446.7129" width="18.8112" height="24.6338"/><rect class="cls-14" x="472.6478" y="446.7129" width="18.8112" height="24.6338"/><rect class="cls-14" x="537.6948" y="446.7129" width="18.8112" height="24.6338"/><rect class="cls-15" x="556.5061" y="446.7129" width="18.8112" height="24.6338"/><rect class="cls-14" x="575.3173" y="446.7129" width="18.8112" height="24.6338"/><rect class="cls-14" x="610.7454" y="446.7129" width="18.8112" height="24.6338"/><rect class="cls-16" x="629.5566" y="446.7129" width="18.8112" height="24.6338"/><rect class="cls-14" x="648.3679" y="446.7129" width="18.8112" height="24.6338"/><rect class="cls-14" x="261.1873" y="813.4614" width="18.8112" height="24.6338" transform="translate(-555.1854 1096.3713) rotate(-90)"/><rect class="cls-17" x="261.1873" y="794.6502" width="18.8112" height="24.6338" transform="translate(-536.3741 1077.56) rotate(-90)"/><rect class="cls-14" x="261.1873" y="775.8389" width="18.8112" height="24.6338" transform="translate(-517.5629 1058.7488) rotate(-90)"/><rect class="cls-14" x="694.034" y="505.5053" width="18.8112" height="24.6338"/><rect class="cls-17" x="712.8452" y="505.5053" width="18.8112" height="24.6338"/><rect class="cls-14" x="731.6565" y="505.5053" width="18.8112" height="24.6338"/><rect class="cls-19" x="305.6922" y="788.1558" width="76.4528" height="54.8503"/><circle class="cls-13" cx="295.8985" cy="509.2642" r="21.5864"/><circle class="cls-13" cx="295.8985" cy="568.7682" r="21.5864"/><circle class="cls-13" cx="295.8985" cy="625.0484" r="21.5864"/><circle class="cls-13" cx="295.8985" cy="680.0882" r="21.5864"/><circle class="cls-13" cx="295.8985" cy="740.2124" r="21.5864"/><circle class="cls-13" cx="357.9943" cy="509.5743" r="21.5864"/><circle class="cls-13" cx="357.9943" cy="569.0783" r="21.5864"/><circle class="cls-13" cx="357.9943" cy="625.3586" r="21.5864"/><circle class="cls-13" cx="357.9943" cy="680.3984" r="21.5864"/><circle class="cls-13" cx="357.9943" cy="740.5225" r="21.5864"/><rect class="cls-20" x="692.3751" y="554.3273" width="59.7515" height="51.9427" rx="24.6009"/><rect class="cls-20" x="690.4287" y="610.5526" width="59.7515" height="51.9427" rx="24.6009"/><rect class="cls-20" x="690.4287" y="666.9934" width="59.7515" height="51.9427" rx="24.6009"/><rect class="cls-20" x="750.4677" y="610.5526" width="59.7515" height="51.9427" rx="24.6009"/><rect class="cls-15" x="714.2387" y="574.2328" width="12.1316" height="12.1316"/><rect class="cls-15" x="714.2387" y="630.4582" width="12.1316" height="12.1316"/><rect class="cls-15" x="714.2387" y="686.899" width="12.1316" height="12.1316"/><rect class="cls-15" x="774.2779" y="630.4582" width="12.1316" height="12.1316"/><text class="cls-21" transform="translate(384.0687 414.1149) scale(1.04 1)">F<tspan class="cls-22" x="34.0773" y="0">R</tspan><tspan x="71.4872" y="0">C G</tspan><tspan class="cls-23" x="168.2354" y="0">Y</tspan><tspan class="cls-22" x="205.4312" y="0">R</tspan><tspan x="242.8411" y="0">O</tspan></text><circle class="cls-24" cx="786.4095" cy="421.7487" r="40.4208"/><circle class="cls-25" cx="786.4095" cy="421.7487" r="27.8287"/><circle class="cls-24" cx="786.4095" cy="825.7783" r="40.4208"/><circle class="cls-25" cx="786.4095" cy="825.7783" r="27.8287"/></g><text class="cls-26" transform="translate(255.1312 97.5211)">Analog Devices <tspan x="0" y="96">1-axis SPI Gyro</tspan></text></g></svg>