<svg xmlns="http://www.w3.org/2000/svg" viewBox="0 0 1212.432 931.488"><defs><style>.cls-4{fill:#323031}.cls-6{font-size:79.9932px}.cls-23,.cls-6{fill:#fff}.cls-6{font-family:Verdana}.cls-7{fill:#51545a}.cls-8{fill:#3c3d42}.cls-13{fill:#788787}.cls-14{fill:#8c8d87}.cls-15{fill:#1b1c1c}.cls-16{fill:#cabca1}.cls-17{fill:#8c7a77}.cls-20{fill:#3b424f}.cls-22{fill:#d2a364}</style></defs><g id="Layer_1" data-name="Layer 1"><path d="M881.95 4057.561l-3442.44 4.584c-113.547 0-205.596-92.293-205.596-206.143V454.356c0-113.85 92.049-206.143 205.596-206.143l3468.661-4.584c113.547 0 205.596 92.294 205.596 206.143v3375.356c11.813 137.306-60.79 234.778-191.925 232.425" fill="#434343"/><rect x="-2705.064" y="320.363" width="3758.599" height="3682.198" rx="144.973" fill="#4f4e51"/><path d="M-69.148 903.546h-1537.803a95.996 95.996 0 01-95.994-95.993V411.102a95.997 95.997 0 0195.994-95.994H-69.148a95.996 95.996 0 0195.993 95.994v396.451a95.996 95.996 0 01-95.993 95.993" fill="#424242"/><path class="cls-4" d="M196.807 334.287h253.834v586.898H196.807z"/><path class="cls-4" d="M245.912 365.134H405.85v516.264H245.912z"/><path fill="none" stroke="#5a5a5d" stroke-miterlimit="10" stroke-width="26.664" d="M229.075 655.604v232.91h193.612V364.403H229.075v229.001"/><text class="cls-6" transform="translate(666.664 689.523)">POWER</text><path class="cls-7" d="M986.173 623.986h78.941v74.762h-78.941z"/><path class="cls-8" d="M1060.827 624.573h52.2v74.762h-52.2z"/><text class="cls-6" transform="translate(642.353 817.327)">STATUS</text><path class="cls-7" d="M986.173 751.793h78.941v74.762h-78.941z"/><path class="cls-8" d="M1060.827 752.38h52.2v74.762h-52.2z"/><path d="M308.691 507.263a13.412 13.412 0 11-13.411-13.41 13.406 13.406 0 0113.411 13.41m62.435 0a13.406 13.406 0 11-13.402-13.41 13.397 13.397 0 0113.402 13.41m-63.667 58.003a13.412 13.412 0 11-13.412-13.41 13.406 13.406 0 0113.411 13.41m62.436 0a13.406 13.406 0 11-13.402-13.41 13.397 13.397 0 0113.402 13.41m-62.435 58.004a13.412 13.412 0 11-13.412-13.41 13.406 13.406 0 0113.411 13.41m62.436 0a13.406 13.406 0 11-13.402-13.41 13.397 13.397 0 0113.402 13.41m-62.435 58.003a13.412 13.412 0 11-13.412-13.41 13.406 13.406 0 0113.411 13.41m62.436 0a13.406 13.406 0 11-13.402-13.41 13.397 13.397 0 0113.402 13.41m-62.435 58.003a13.412 13.412 0 11-13.412-13.41 13.406 13.406 0 0113.411 13.41m61.291 0a13.406 13.406 0 11-13.402-13.41 13.397 13.397 0 0113.402 13.41" fill="#6a5f27"/><g opacity=".9"><path fill="#006654" d="M217.742 361.726H849.01v522.646H217.742z"/><rect x="449.743" y="485.782" width="175.903" height="241.657" rx="28.8" fill="#3c4852"/><path class="cls-13" d="M413.907 498.691h33.517v13.628h-33.517zm0 29.097h33.517v13.628h-33.517zm0 29.098h33.517v13.628h-33.517zm1.105 29.097h33.517v13.628h-33.517zm0 29.097h33.517v13.628h-33.517zm0 29.097h33.517v13.628h-33.517zm0 29.097h33.517v13.628h-33.517zm0 29.097h33.517v13.628h-33.517zm210.634-204.414h33.517v13.628h-33.517zm0 29.097h33.517v13.628h-33.517zm0 29.097h33.517v13.628h-33.517zm1.105 29.097h33.517v13.628h-33.517zm0 29.097h33.517v13.628h-33.517zm0 29.097h33.517v13.628h-33.517zm0 29.097h33.517v13.628h-33.517zm0 29.098h33.517v13.628h-33.517z"/><path class="cls-14" d="M413.269 741.874h39.074v36.876h-39.074z"/><path class="cls-15" d="M452.343 741.874h39.074v36.876h-39.074z"/><path class="cls-14" d="M491.417 741.874h39.074v36.876h-39.074zM336.408 446.713h18.811v24.634h-18.811z"/><path class="cls-16" d="M355.219 446.713h18.811v24.634h-18.811z"/><path class="cls-14" d="M374.03 446.713h18.811v24.634H374.03zm-115.754 0h18.811v24.634h-18.811z"/><path class="cls-15" d="M277.087 446.713h18.811v24.634h-18.811z"/><path class="cls-14" d="M295.899 446.713h18.811v24.634h-18.811zm301.53 307.403h18.811v24.634h-18.811z"/><path class="cls-17" d="M616.241 754.116h18.811v24.634h-18.811z"/><path class="cls-14" d="M635.052 754.116h18.811v24.634h-18.811zM435.025 446.713h18.811v24.634h-18.811z"/><path fill="#7d6d65" d="M453.837 446.713h18.811v24.634h-18.811z"/><path class="cls-14" d="M472.648 446.713h18.811v24.634h-18.811zm65.047 0h18.811v24.634h-18.811z"/><path class="cls-15" d="M556.506 446.713h18.811v24.634h-18.811z"/><path class="cls-14" d="M575.317 446.713h18.811v24.634h-18.811zm35.428 0h18.811v24.634h-18.811z"/><path class="cls-16" d="M629.557 446.713h18.811v24.634h-18.811z"/><path class="cls-14" d="M648.368 446.713h18.811v24.634h-18.811z"/><path class="cls-14" transform="rotate(-90 270.593 825.778)" d="M261.187 813.461h18.811v24.634h-18.811z"/><path class="cls-17" transform="rotate(-90 270.593 806.967)" d="M261.187 794.65h18.811v24.634h-18.811z"/><path class="cls-14" transform="rotate(-90 270.593 788.156)" d="M261.187 775.839h18.811v24.634h-18.811z"/><path class="cls-14" d="M694.034 505.505h18.811v24.634h-18.811z"/><path class="cls-17" d="M712.845 505.505h18.811v24.634h-18.811z"/><path class="cls-14" d="M731.657 505.505h18.811v24.634h-18.811z"/><path fill="#303541" d="M305.692 788.156h76.453v54.85h-76.453z"/><circle class="cls-13" cx="295.899" cy="509.264" r="21.586"/><circle class="cls-13" cx="295.899" cy="568.768" r="21.586"/><circle class="cls-13" cx="295.899" cy="625.048" r="21.586"/><circle class="cls-13" cx="295.899" cy="680.088" r="21.586"/><circle class="cls-13" cx="295.899" cy="740.212" r="21.586"/><circle class="cls-13" cx="357.994" cy="509.574" r="21.586"/><circle class="cls-13" cx="357.994" cy="569.078" r="21.586"/><circle class="cls-13" cx="357.994" cy="625.359" r="21.586"/><circle class="cls-13" cx="357.994" cy="680.398" r="21.586"/><circle class="cls-13" cx="357.994" cy="740.523" r="21.586"/><rect class="cls-20" x="692.375" y="554.327" width="59.752" height="51.943" rx="24.601"/><rect class="cls-20" x="690.429" y="610.553" width="59.752" height="51.943" rx="24.601"/><rect class="cls-20" x="690.429" y="666.993" width="59.752" height="51.943" rx="24.601"/><rect class="cls-20" x="750.468" y="610.553" width="59.752" height="51.943" rx="24.601"/><path class="cls-15" d="M714.239 574.233h12.132v12.132h-12.132zm0 56.225h12.132v12.132h-12.132zm0 56.441h12.132v12.132h-12.132zm60.039-56.441h12.132v12.132h-12.132z"/><text transform="matrix(1.04 0 0 1 312.069 414.115)" font-size="53.75" fill="#abbfc2" font-family="Verdana-Bold,Verdana" font-weight="700" letter-spacing=".107em">FRC GYRO</text><circle class="cls-22" cx="786.409" cy="421.749" r="40.421"/><circle class="cls-23" cx="786.409" cy="421.749" r="27.829"/><circle class="cls-22" cx="786.409" cy="825.778" r="40.421"/><circle class="cls-23" cx="786.409" cy="825.778" r="27.829"/></g><text transform="translate(255.131 97.521)" font-size="80" fill="#231f20" font-family="Verdana">Analog Devices <tspan x="0" y="96">1-axis SPI Gyro</tspan></text></g></svg>