<svg xmlns="http://www.w3.org/2000/svg" viewBox="0 0 1212.4325 931.4881"><defs><style>.cls-1{fill:#434343;}.cls-2{fill:#4f4e51;}.cls-3{fill:#424242;}.cls-4{fill:#323031;}.cls-5{fill:none;stroke:#5a5a5d;stroke-miterlimit:10;stroke-width:26.6644px;}.cls-6{font-size:79.9932px;}.cls-23,.cls-6{fill:#fff;}.cls-24,.cls-6{font-family:Verdana;}.cls-7{fill:#51545a;}.cls-8{fill:#3c3d42;}.cls-9{fill:#6a5f27;}.cls-10{opacity:0.9;}.cls-11{fill:#006654;}.cls-12{fill:#3c4852;}.cls-13{fill:#788787;}.cls-14{fill:#8c8d87;}.cls-15{fill:#1b1c1c;}.cls-16{fill:#cabca1;}.cls-17{fill:#8c7a77;}.cls-18{fill:#7d6d65;}.cls-19{fill:#303541;}.cls-20{fill:#3b424f;}.cls-21{font-size:53.7502px;fill:#abbfc2;font-family:Verdana-Bold, Verdana;font-weight:700;letter-spacing:0.107em;}.cls-22{fill:#d2a364;}.cls-24{font-size:80px;fill:#231f20;}</style></defs><g id="Layer_1" data-name="Layer 1"><path class="cls-1" d="M881.95,4057.5614l-3442.44,4.584c-113.5474,0-205.5957-92.2934-205.5957-206.143V454.3563c0-113.85,92.0483-206.143,205.5957-206.143L908.171,243.6292c113.5474,0,205.5957,92.2934,205.5957,206.1431V3825.1276c11.8133,137.3068-60.7893,234.778-191.9245,232.4258"/><rect class="cls-2" x="-2705.0637" y="320.3627" width="3758.5986" height="3682.1975" rx="144.9733"/><path class="cls-3" d="M-69.1483,903.5462H-1606.9507a95.9964,95.9964,0,0,1-95.9941-95.9929V411.1016a95.9967,95.9967,0,0,1,95.9941-95.9941H-69.1483a95.9965,95.9965,0,0,1,95.9929,95.9941V807.5533a95.9962,95.9962,0,0,1-95.9929,95.9929"/><rect class="cls-4" x="196.8067" y="334.2868" width="253.8343" height="586.8982"/><rect class="cls-4" x="245.9119" y="365.1335" width="159.9377" height="516.264"/><polyline class="cls-5" points="229.075 655.604 229.075 888.514 422.687 888.514 422.687 364.403 229.075 364.403 229.075 593.404"/><text class="cls-6" transform="translate(666.6637 689.523)">POWER</text><rect class="cls-7" x="986.1725" y="623.9857" width="78.9406" height="74.7623"/><rect class="cls-8" x="1060.8271" y="624.5731" width="52.2001" height="74.7623"/><text class="cls-6" transform="translate(642.3531 817.3267)">STATUS</text><rect class="cls-7" x="986.1725" y="751.7929" width="78.9406" height="74.7623"/><rect class="cls-8" x="1060.8271" y="752.3804" width="52.2001" height="74.7623"/><path class="cls-9" d="M308.6911,507.2633a13.4116,13.4116,0,1,1-13.4115-13.41,13.4062,13.4062,0,0,1,13.4115,13.41"/><path class="cls-9" d="M371.1262,507.2633a13.4062,13.4062,0,1,1-13.4019-13.41,13.3973,13.3973,0,0,1,13.4019,13.41"/><path class="cls-9" d="M307.4585,565.2665a13.4116,13.4116,0,1,1-13.4116-13.41,13.4063,13.4063,0,0,1,13.4116,13.41"/><path class="cls-9" d="M369.8936,565.2665a13.4062,13.4062,0,1,1-13.402-13.41,13.3974,13.3974,0,0,1,13.402,13.41"/><path class="cls-9" d="M307.4585,623.27a13.4116,13.4116,0,1,1-13.4116-13.41,13.4063,13.4063,0,0,1,13.4116,13.41"/><path class="cls-9" d="M369.8936,623.27a13.4062,13.4062,0,1,1-13.402-13.41,13.3974,13.3974,0,0,1,13.402,13.41"/><path class="cls-9" d="M307.4585,681.2729a13.4116,13.4116,0,1,1-13.4116-13.41,13.4063,13.4063,0,0,1,13.4116,13.41"/><path class="cls-9" d="M369.8936,681.2729a13.4062,13.4062,0,1,1-13.402-13.41,13.3974,13.3974,0,0,1,13.402,13.41"/><path class="cls-9" d="M307.4585,739.2761a13.4116,13.4116,0,1,1-13.4116-13.41,13.4064,13.4064,0,0,1,13.4116,13.41"/><path class="cls-9" d="M368.749,739.2761a13.4062,13.4062,0,1,1-13.402-13.41,13.3974,13.3974,0,0,1,13.402,13.41"/><g class="cls-10"><rect class="cls-11" x="217.7423" y="361.7258" width="631.2681" height="522.6459"/><rect class="cls-12" x="449.7435" y="485.7819" width="175.9027" height="241.6572" rx="28.8"/><rect class="cls-13" x="413.9069" y="498.6914" width="33.517" height="13.6278"/><rect class="cls-13" x="413.9069" y="527.7885" width="33.517" height="13.6278"/><rect class="cls-13" x="413.9069" y="556.8857" width="33.517" height="13.6278"/><rect class="cls-13" x="415.0118" y="585.9829" width="33.517" height="13.6278"/><rect class="cls-13" x="415.0118" y="615.08" width="33.517" height="13.6278"/><rect class="cls-13" x="415.0118" y="644.1772" width="33.517" height="13.6278"/><rect class="cls-13" x="415.0118" y="673.2743" width="33.517" height="13.6278"/><rect class="cls-13" x="415.0118" y="702.3715" width="33.517" height="13.6278"/><rect class="cls-13" x="625.6462" y="497.9565" width="33.517" height="13.6278"/><rect class="cls-13" x="625.6462" y="527.0537" width="33.517" height="13.6278"/><rect class="cls-13" x="625.6462" y="556.1509" width="33.517" height="13.6278"/><rect class="cls-13" x="626.7511" y="585.248" width="33.517" height="13.6278"/><rect class="cls-13" x="626.7511" y="614.3452" width="33.517" height="13.6278"/><rect class="cls-13" x="626.7511" y="643.4424" width="33.517" height="13.6278"/><rect class="cls-13" x="626.7511" y="672.5395" width="33.517" height="13.6278"/><rect class="cls-13" x="626.7511" y="701.6367" width="33.517" height="13.6278"/><rect class="cls-14" x="413.2693" y="741.8743" width="39.074" height="36.8759"/><rect class="cls-15" x="452.3434" y="741.8743" width="39.074" height="36.8759"/><rect class="cls-14" x="491.4174" y="741.8743" width="39.074" height="36.8759"/><rect class="cls-14" x="336.4079" y="446.7129" width="18.8112" height="24.6338"/><rect class="cls-16" x="355.2192" y="446.7129" width="18.8112" height="24.6338"/><rect class="cls-14" x="374.0304" y="446.7129" width="18.8112" height="24.6338"/><rect class="cls-14" x="258.2761" y="446.7129" width="18.8112" height="24.6338"/><rect class="cls-15" x="277.0873" y="446.7129" width="18.8112" height="24.6338"/><rect class="cls-14" x="295.8985" y="446.7129" width="18.8112" height="24.6338"/><rect class="cls-14" x="597.4293" y="754.1164" width="18.8112" height="24.6338"/><rect class="cls-17" x="616.2406" y="754.1164" width="18.8112" height="24.6338"/><rect class="cls-14" x="635.0518" y="754.1164" width="18.8112" height="24.6338"/><rect class="cls-14" x="435.0253" y="446.7129" width="18.8112" height="24.6338"/><rect class="cls-18" x="453.8366" y="446.7129" width="18.8112" height="24.6338"/><rect class="cls-14" x="472.6478" y="446.7129" width="18.8112" height="24.6338"/><rect class="cls-14" x="537.6948" y="446.7129" width="18.8112" height="24.6338"/><rect class="cls-15" x="556.5061" y="446.7129" width="18.8112" height="24.6338"/><rect class="cls-14" x="575.3173" y="446.7129" width="18.8112" height="24.6338"/><rect class="cls-14" x="610.7454" y="446.7129" width="18.8112" height="24.6338"/><rect class="cls-16" x="629.5566" y="446.7129" width="18.8112" height="24.6338"/><rect class="cls-14" x="648.3679" y="446.7129" width="18.8112" height="24.6338"/><rect class="cls-14" x="261.1873" y="813.4614" width="18.8112" height="24.6338" transform="translate(-555.1854 1096.3713) rotate(-90)"/><rect class="cls-17" x="261.1873" y="794.6502" width="18.8112" height="24.6338" transform="translate(-536.3741 1077.56) rotate(-90)"/><rect class="cls-14" x="261.1873" y="775.8389" width="18.8112" height="24.6338" transform="translate(-517.5629 1058.7488) rotate(-90)"/><rect class="cls-14" x="694.034" y="505.5053" width="18.8112" height="24.6338"/><rect class="cls-17" x="712.8452" y="505.5053" width="18.8112" height="24.6338"/><rect class="cls-14" x="731.6565" y="505.5053" width="18.8112" height="24.6338"/><rect class="cls-19" x="305.6922" y="788.1558" width="76.4528" height="54.8503"/><circle class="cls-13" cx="295.8985" cy="509.2642" r="21.5864"/><circle class="cls-13" cx="295.8985" cy="568.7682" r="21.5864"/><circle class="cls-13" cx="295.8985" cy="625.0484" r="21.5864"/><circle class="cls-13" cx="295.8985" cy="680.0882" r="21.5864"/><circle class="cls-13" cx="295.8985" cy="740.2124" r="21.5864"/><circle class="cls-13" cx="357.9943" cy="509.5743" r="21.5864"/><circle class="cls-13" cx="357.9943" cy="569.0783" r="21.5864"/><circle class="cls-13" cx="357.9943" cy="625.3586" r="21.5864"/><circle class="cls-13" cx="357.9943" cy="680.3984" r="21.5864"/><circle class="cls-13" cx="357.9943" cy="740.5225" r="21.5864"/><rect class="cls-20" x="692.3751" y="554.3273" width="59.7515" height="51.9427" rx="24.6009"/><rect class="cls-20" x="690.4287" y="610.5526" width="59.7515" height="51.9427" rx="24.6009"/><rect class="cls-20" x="690.4287" y="666.9934" width="59.7515" height="51.9427" rx="24.6009"/><rect class="cls-20" x="750.4677" y="610.5526" width="59.7515" height="51.9427" rx="24.6009"/><rect class="cls-15" x="714.2387" y="574.2328" width="12.1316" height="12.1316"/><rect class="cls-15" x="714.2387" y="630.4582" width="12.1316" height="12.1316"/><rect class="cls-15" x="714.2387" y="686.899" width="12.1316" height="12.1316"/><rect class="cls-15" x="774.2779" y="630.4582" width="12.1316" height="12.1316"/><text class="cls-21" transform="translate(312.0687 414.1149) scale(1.04 1)">FRC GYRO</text><circle class="cls-22" cx="786.4095" cy="421.7487" r="40.4208"/><circle class="cls-23" cx="786.4095" cy="421.7487" r="27.8287"/><circle class="cls-22" cx="786.4095" cy="825.7783" r="40.4208"/><circle class="cls-23" cx="786.4095" cy="825.7783" r="27.8287"/></g><text class="cls-24" transform="translate(255.1312 97.5211)">Analog Devices <tspan x="0" y="96">1-axis SPI Gyro</tspan></text></g></svg>