<svg xmlns="http://www.w3.org/2000/svg" viewBox="0 0 1383.56 1382.6591"><defs><style>.cls-1{fill:#434343;}.cls-2{fill:#4f4e51;}.cls-3{fill:#323031;}.cls-4{fill:#6a5f27;}.cls-5{fill:#5a5a5d;}.cls-6{fill:#f2f2f2;}.cls-7{fill:#221f1f;}.cls-8{font-size:37.8747px;}.cls-10,.cls-11,.cls-12,.cls-14,.cls-23,.cls-25,.cls-28,.cls-30,.cls-31,.cls-32,.cls-34,.cls-35,.cls-37,.cls-38,.cls-39,.cls-8,.cls-9{fill:#fff;}.cls-10,.cls-11,.cls-14,.cls-23,.cls-25,.cls-28,.cls-30,.cls-31,.cls-32,.cls-34,.cls-35,.cls-37,.cls-38,.cls-39,.cls-8,.cls-9{font-family:Verdana;}.cls-10,.cls-9{font-size:48.4894px;}.cls-10{letter-spacing:0em;}.cls-11{font-size:32.3262px;}.cls-13,.cls-18,.cls-26,.cls-27,.cls-41,.cls-42,.cls-43,.cls-44{fill:none;}.cls-13,.cls-26,.cls-27{stroke:#fff;}.cls-13,.cls-18,.cls-27{stroke-miterlimit:10;}.cls-13{stroke-width:8.0816px;}.cls-14{font-size:33.4189px;}.cls-15{fill:#00609b;}.cls-16{fill:#6c5623;}.cls-17{fill:#5e545e;}.cls-18{stroke:#231f20;stroke-width:6px;}.cls-19{fill:#383943;}.cls-20{fill:#d1c7bc;}.cls-21{fill:#c09264;}.cls-22{fill:#373836;}.cls-23{font-size:114.42px;}.cls-24{letter-spacing:-0.0244em;}.cls-25{font-size:83.1569px;}.cls-26,.cls-27,.cls-41,.cls-42,.cls-43,.cls-44{stroke-linecap:round;}.cls-26,.cls-41,.cls-42,.cls-43,.cls-44{stroke-linejoin:round;}.cls-26{stroke-width:7.5px;}.cls-27{stroke-width:9px;}.cls-28{font-size:79.9635px;}.cls-29{fill:#725f46;}.cls-30{font-size:73.9005px;}.cls-31{font-size:66.919px;}.cls-32{font-size:74.2478px;}.cls-33{letter-spacing:-0.0098em;}.cls-34{font-size:73.2854px;}.cls-35{font-size:54.0561px;}.cls-36{letter-spacing:-0.0098em;}.cls-37{font-size:71.09px;}.cls-38{font-size:73.8733px;}.cls-39{font-size:77.6019px;}.cls-40{letter-spacing:-0.0488em;}.cls-41{stroke:#e9262a;}.cls-41,.cls-42,.cls-43,.cls-44{stroke-width:16.248px;}.cls-42{stroke:#221f1f;}.cls-43{stroke:#babcbe;}.cls-44{stroke:#1c75bc;}</style></defs><g id="Layer_1" data-name="Layer 1"><path class="cls-1" d="M-738.9208,3216.222l-2.7787-2086.6973c0-68.8288,55.9453-124.6256,124.9573-124.6256h2061.97c69.0121,0,124.9574,55.7968,124.9574,124.6256l2.7787,2102.5917c0,68.8288-55.9454,124.6255-124.9574,124.6255H-598.0269c-83.231,7.1608-142.3149-36.8486-140.8891-116.3385"/><rect class="cls-2" x="-728.7368" y="1065.0444" width="2278.3428" height="2232.0309" rx="87.8782" transform="translate(2591.4945 1770.6253) rotate(90)"/><rect class="cls-3" x="-486.1263" y="1060.9898" width="1233.0373" height="138.2608"/><path class="cls-4" d="M679.5553,1137.5184a8.13,8.13,0,1,1,8.1289-8.13,8.1266,8.1266,0,0,1-8.1289,8.13"/><path class="cls-4" d="M679.5553,1101.1352a8.13,8.13,0,1,1,8.1289-8.1238,8.121,8.121,0,0,1-8.1289,8.1238"/><path class="cls-4" d="M679.5553,1175.3645a8.1264,8.1264,0,1,1,8.1289-8.1238,8.121,8.121,0,0,1-8.1289,8.1238"/><path class="cls-4" d="M556.5062,1137.5184a8.13,8.13,0,1,1,8.1283-8.13,8.1265,8.1265,0,0,1-8.1283,8.13"/><path class="cls-4" d="M556.5062,1101.1352a8.13,8.13,0,1,1,8.1283-8.1238,8.1209,8.1209,0,0,1-8.1283,8.1238"/><path class="cls-4" d="M556.5062,1175.3645a8.1264,8.1264,0,1,1,8.1283-8.1238,8.1209,8.1209,0,0,1-8.1283,8.1238"/><path class="cls-4" d="M433.4571,1137.5184a8.13,8.13,0,1,1,8.1276-8.13,8.1265,8.1265,0,0,1-8.1276,8.13"/><path class="cls-4" d="M433.4571,1101.1352a8.13,8.13,0,1,1,8.1276-8.1238,8.121,8.121,0,0,1-8.1276,8.1238"/><path class="cls-4" d="M433.4571,1175.3645a8.1264,8.1264,0,1,1,8.1276-8.1238,8.121,8.121,0,0,1-8.1276,8.1238"/><path class="cls-4" d="M310.408,1137.5184a8.13,8.13,0,1,1,8.127-8.13,8.1264,8.1264,0,0,1-8.127,8.13"/><path class="cls-4" d="M310.408,1101.1352a8.13,8.13,0,1,1,8.127-8.1238,8.1209,8.1209,0,0,1-8.127,8.1238"/><path class="cls-4" d="M310.408,1175.3645a8.1264,8.1264,0,1,1,8.127-8.1238,8.1209,8.1209,0,0,1-8.127,8.1238"/><path class="cls-4" d="M187.3589,1137.5184a8.13,8.13,0,1,1,8.1263-8.13,8.1265,8.1265,0,0,1-8.1263,8.13"/><path class="cls-4" d="M187.3589,1101.1352a8.13,8.13,0,1,1,8.1263-8.1238,8.121,8.121,0,0,1-8.1263,8.1238"/><path class="cls-4" d="M187.3589,1175.3645a8.1264,8.1264,0,1,1,8.1263-8.1238,8.121,8.121,0,0,1-8.1263,8.1238"/><path class="cls-4" d="M64.31,1137.5184a8.13,8.13,0,1,1,8.1257-8.13,8.1264,8.1264,0,0,1-8.1257,8.13"/><path class="cls-4" d="M64.31,1101.1352a8.13,8.13,0,1,1,8.1257-8.1238,8.1209,8.1209,0,0,1-8.1257,8.1238"/><path class="cls-4" d="M64.31,1175.3645a8.1264,8.1264,0,1,1,8.1257-8.1238,8.1209,8.1209,0,0,1-8.1257,8.1238"/><rect class="cls-3" x="803.0318" y="1065.0933" width="107.9968" height="134.4441"/><path class="cls-4" d="M857.03,1140.4446a8.13,8.13,0,1,1,8.1231-8.13,8.1264,8.1264,0,0,1-8.1231,8.13"/><path class="cls-4" d="M857.03,1104.0615a8.13,8.13,0,1,1,8.1231-8.1239,8.121,8.121,0,0,1-8.1231,8.1239"/><path class="cls-4" d="M857.03,1178.2908a8.1264,8.1264,0,1,1,8.1231-8.1238,8.121,8.121,0,0,1-8.1231,8.1238"/><rect class="cls-3" x="983.7148" y="1065.0933" width="116.5382" height="181.0058"/><path class="cls-4" d="M1041.9879,1144.2392a8.13,8.13,0,1,1,8.1231-8.13,8.1315,8.1315,0,0,1-8.1231,8.13"/><path class="cls-4" d="M1041.9879,1107.856a8.13,8.13,0,1,1,8.1231-8.1238,8.126,8.126,0,0,1-8.1231,8.1238"/><path class="cls-4" d="M1041.9879,1182.0853a8.1264,8.1264,0,1,1,8.1231-8.1238,8.126,8.126,0,0,1-8.1231,8.1238"/><path class="cls-4" d="M1041.9879,1219.5876a8.13,8.13,0,1,1,8.1231-8.1238,8.126,8.126,0,0,1-8.1231,8.1238"/><rect class="cls-5" x="1247.0038" y="1079.3111" width="74.0654" height="129.854"/><rect class="cls-6" x="1263.2092" y="1108.4862" width="43.9708" height="83.3222"/><path class="cls-7" d="M1284.0332,1147.2526a29.22,29.22,0,1,1,29.2226-29.2232,29.2176,29.2176,0,0,1-29.2226,29.2232"/><rect class="cls-5" x="1172.945" y="1079.3111" width="74.0588" height="129.854"/><rect class="cls-6" x="1189.1438" y="1108.4862" width="43.9708" height="83.3222"/><path class="cls-7" d="M1209.9729,1147.2526a29.22,29.22,0,1,1,29.2226-29.2232,29.2232,29.2232,0,0,1-29.2226,29.2232"/><text class="cls-8" transform="translate(840.5106 1228.3177) rotate(90)">RS-232</text><text class="cls-9" transform="translate(1023.7762 1280.6848) rotate(90)">I</text><text class="cls-10" transform="translate(1039.9227 1301.094) rotate(90) scale(0.583)">2</text><text class="cls-9" transform="translate(1023.7762 1319.0657) rotate(90)">C</text><text class="cls-9" transform="translate(1345.7918 1096.138) rotate(90)">CAN</text><text class="cls-11" transform="translate(1276.3231 1239.6302) rotate(90)">L (GRN)</text><text class="cls-11" transform="translate(1202.2567 1242.1223) rotate(90)">H (YEL)</text><path class="cls-12" d="M143.82,1302.88a13.41,13.41,0,0,1-5.2167-5.5024,17.4,17.4,0,0,1-1.871-8.204v-3.1738a17.3659,17.3659,0,0,1,1.871-8.2156,13.3728,13.3728,0,0,1,5.2517-5.4936,15.4021,15.4021,0,0,1,7.7931-1.941h9.4251v34.4742h-9.6408A14.928,14.928,0,0,1,143.82,1302.88Zm-4.2025-13.66a15.3911,15.3911,0,0,0,1.4688,6.9013,10.85,10.85,0,0,0,4.1443,4.5931,11.7319,11.7319,0,0,0,6.2018,1.6233h6.7264v-29.5256h-6.5107a12,12,0,0,0-6.3709,1.6582,10.9743,10.9743,0,0,0-4.1909,4.64,15.4016,15.4016,0,0,0-1.4688,6.89Z"/><path class="cls-12" d="M128.6589,1270.3492v34.4742h-2.9144v-34.4742Z"/><path class="cls-12" d="M92.5614,1277.37a13.1706,13.1706,0,0,1,18.7861-5.54,12.8362,12.8362,0,0,1,4.7388,5.5519,19.5763,19.5763,0,0,1,1.6787,8.3585v3.6925a19.6724,19.6724,0,0,1-1.6671,8.3584,12.8272,12.8272,0,0,1-4.7154,5.5519,12.6811,12.6811,0,0,1-7.0179,1.9527,12.4071,12.4071,0,0,1-11.7916-7.4929,19.8323,19.8323,0,0,1-1.6553-8.37V1285.74A19.9135,19.9135,0,0,1,92.5614,1277.37Zm2.5,19.1649a10.0654,10.0654,0,0,0,3.6313,4.5931,9.89,9.89,0,0,0,5.6714,1.6117,9.7161,9.7161,0,0,0,5.59-1.6117,10.1825,10.1825,0,0,0,3.6313-4.6047,17.9787,17.9787,0,0,0,1.2707-7.0441V1285.74a17.9278,17.9278,0,0,0-1.2823-7.0674,10.2983,10.2983,0,0,0-3.6547-4.6193,9.72,9.72,0,0,0-5.6014-1.62,9.874,9.874,0,0,0-5.6831,1.6087,9.984,9.984,0,0,0-3.5963,4.6048,18.5876,18.5876,0,0,0-1.2357,7.0936v3.7391A18.06,18.06,0,0,0,95.0619,1296.5349Z"/><polyline class="cls-13" points="687.686 1254.385 687.686 1287.833 193.565 1287.833"/><polyline class="cls-13" points="58.425 1287.837 -408.551 1287.837 -408.551 1254.388"/><text class="cls-14" transform="translate(1388.62 1226.3489) rotate(90)">45 W MAX</text><path class="cls-15" d="M270.3319,76.9638,224.42,81.9077c-79.7468,8.5874-106.8556,111.0207-41.7961,157.9307l74.4123,53.6537V516.4576l-69.6207,39.9336c-77.504,44.4554-69.0922,158.8434,14.081,191.4831l51.0059,20.0163h930.4088c81.8612-49.4479,82.6371-167.9087,1.4307-218.4248l-55.1674-34.318V288.8683l66.6678-34.1407c72.5577-37.1571,59.7164-144.5308-19.5573-163.53L1116.892,76.9638Z"/><circle class="cls-16" cx="236.0691" cy="169.4469" r="56.9425"/><circle class="cls-12" cx="236.0691" cy="169.4469" r="41.4968"/><circle class="cls-16" cx="236.0691" cy="637.7682" r="56.9425"/><circle class="cls-12" cx="236.0691" cy="637.7682" r="41.4968"/><circle class="cls-16" cx="1156.5808" cy="637.7682" r="56.9425"/><circle class="cls-12" cx="1156.5808" cy="637.7682" r="41.4968"/><circle class="cls-16" cx="1156.5808" cy="169.4469" r="56.9425"/><circle class="cls-12" cx="1156.5808" cy="169.4469" r="41.4968"/><rect class="cls-17" x="637.8589" y="356.6484" width="112.8391" height="112.8391"/><rect class="cls-18" x="732.9789" y="512.7393" width="60.4262" height="46.2083"/><rect class="cls-19" x="426.1084" y="190.466" width="42.6538" height="95.9711"/><rect class="cls-20" x="382.302" y="220.0052" width="43.8064" height="37.4733"/><rect class="cls-20" x="468.7622" y="190.466" width="43.8064" height="37.4733"/><rect class="cls-20" x="468.7622" y="248.9638" width="43.8064" height="37.4733"/><rect class="cls-19" x="331.3234" y="377.5717" width="42.6538" height="95.9711" transform="translate(-72.9069 778.2075) rotate(-90)"/><rect class="cls-20" x="331.0375" y="450.0506" width="43.8064" height="37.4733" transform="translate(-115.8467 821.7279) rotate(-90)"/><rect class="cls-20" x="301.4983" y="363.5904" width="43.8064" height="37.4733" transform="translate(-58.9257 705.7286) rotate(-90)"/><rect class="cls-20" x="359.996" y="363.5904" width="43.8064" height="37.4733" transform="translate(-0.4279 764.2263) rotate(-90)"/><rect class="cls-19" x="975.4894" y="371.6266" width="46.9548" height="95.9711" transform="translate(579.3547 1418.579) rotate(-90)"/><rect class="cls-20" x="941.14" y="360.736" width="45.24" height="25.5575" transform="translate(590.2452 1337.2748) rotate(-90)"/><rect class="cls-20" x="1011.5536" y="360.736" width="45.24" height="25.5575" transform="translate(660.6588 1407.6884) rotate(-90)"/><rect class="cls-20" x="976.3468" y="452.9308" width="45.24" height="25.5575" transform="translate(533.2573 1464.6763) rotate(-90)"/><rect class="cls-20" x="941.14" y="452.9308" width="45.24" height="25.5575" transform="translate(498.0505 1429.4695) rotate(-90)"/><rect class="cls-20" x="1011.5536" y="452.9308" width="45.24" height="25.5575" transform="translate(568.4641 1499.8831) rotate(-90)"/><rect class="cls-21" x="887.6449" y="384.8071" width="41.946" height="63.5956"/><rect class="cls-20" x="887.6449" y="357.0686" width="41.946" height="27.7385"/><rect class="cls-20" x="887.6449" y="448.4027" width="41.946" height="27.7385"/><rect class="cls-21" x="565.871" y="238.6822" width="41.946" height="63.5956"/><rect class="cls-20" x="565.871" y="210.9437" width="41.946" height="27.7385"/><rect class="cls-20" x="565.871" y="302.2778" width="41.946" height="27.7385"/><rect class="cls-21" x="908.618" y="501.9145" width="41.946" height="63.5956" transform="translate(1463.3033 -395.8787) rotate(90)"/><rect class="cls-20" x="954.285" y="519.843" width="41.946" height="27.7385" transform="translate(1508.9703 -441.5457) rotate(90)"/><rect class="cls-20" x="862.9509" y="519.843" width="41.946" height="27.7385" transform="translate(1417.6362 -350.2116) rotate(90)"/><rect class="cls-21" x="498.9376" y="345.8236" width="41.946" height="63.5956" transform="translate(897.532 -142.2892) rotate(90)"/><rect class="cls-20" x="544.6046" y="363.7522" width="41.946" height="27.7385" transform="translate(943.1991 -187.9562) rotate(90)"/><rect class="cls-20" x="453.2705" y="363.7522" width="41.946" height="27.7385" transform="translate(851.865 -96.6221) rotate(90)"/><rect class="cls-22" x="498.9376" y="411.2917" width="41.946" height="63.5956" transform="translate(963.0001 -76.8211) rotate(90)"/><rect class="cls-20" x="544.6046" y="429.2203" width="41.946" height="27.7385" transform="translate(1008.6672 -122.4881) rotate(90)"/><rect class="cls-20" x="453.2705" y="429.2203" width="41.946" height="27.7385" transform="translate(917.3331 -31.154) rotate(90)"/><rect class="cls-22" x="590.2717" y="519.2841" width="41.946" height="63.5956" transform="translate(1162.3265 -60.1628) rotate(90)"/><rect class="cls-20" x="635.9387" y="537.2126" width="41.946" height="27.7385" transform="translate(1207.9936 -105.8299) rotate(90)"/><rect class="cls-20" x="544.6046" y="537.2126" width="41.946" height="27.7385" transform="translate(1116.6595 -14.4958) rotate(90)"/><rect class="cls-22" x="817.6075" y="387.8144" width="41.946" height="63.5956" transform="translate(1677.1611 839.2243) rotate(180)"/><rect class="cls-20" x="817.6075" y="451.4099" width="41.946" height="27.7385" transform="translate(1677.1611 930.5584) rotate(180)"/><rect class="cls-20" x="817.6075" y="360.0758" width="41.946" height="27.7385" transform="translate(1677.1611 747.8902) rotate(180)"/><rect class="cls-22" x="453.2705" y="519.2841" width="41.946" height="63.5956" transform="translate(1025.3254 76.8383) rotate(90)"/><rect class="cls-20" x="498.9376" y="537.2126" width="41.946" height="27.7385" transform="translate(1070.9924 31.1713) rotate(90)"/><rect class="cls-20" x="407.6035" y="537.2126" width="41.946" height="27.7385" transform="translate(979.6583 122.5053) rotate(90)"/><rect class="cls-22" x="321.1651" y="519.2841" width="41.946" height="63.5956" transform="translate(893.22 208.9437) rotate(90)"/><rect class="cls-20" x="366.8321" y="537.2126" width="41.946" height="27.7385" transform="translate(938.887 163.2767) rotate(90)"/><rect class="cls-20" x="275.498" y="537.2126" width="41.946" height="27.7385" transform="translate(847.5529 254.6108) rotate(90)"/><rect class="cls-22" x="331.6773" y="270.48" width="41.946" height="63.5956" transform="translate(654.9281 -50.3725) rotate(90)"/><rect class="cls-20" x="377.3443" y="288.4086" width="41.946" height="27.7385" transform="translate(700.5952 -96.0395) rotate(90)"/><rect class="cls-20" x="286.0103" y="288.4086" width="41.946" height="27.7385" transform="translate(609.2611 -4.7054) rotate(90)"/><text class="cls-23" transform="translate(331.7274 146.8484) scale(0.583)">L3GD20H 3<tspan class="cls-24" x="657.7475" y="0">-</tspan><tspan x="706.9123" y="0">Axis Gyro</tspan></text><text class="cls-25" transform="translate(729.2196 202.2513) scale(0.583)">X</text><text class="cls-25" transform="translate(877.661 202.2513) scale(0.583)">Y</text><text class="cls-25" transform="translate(1011.7469 202.2513) scale(0.583)">Z</text><path class="cls-12" d="M744.8941,281.9351H698.2817a7.4209,7.4209,0,0,1,0-14.8418h46.6124v-6H698.2817a13.4209,13.4209,0,0,0,0,26.8418h46.6124Z"/><path class="cls-12" d="M787.1215,261.0933H781.149v6h5.9725a7.4209,7.4209,0,0,1,0,14.8418H781.149v6h5.9725a13.4209,13.4209,0,0,0,0-26.8418Z"/><path class="cls-26" d="M742.8773,224.5182c29.9775,28.99,22.2554,66.1444,6.5374,90.2343"/><polygon class="cls-12" points="737.844 296.214 729.219 335.667 767.7 323.415 737.844 296.214"/><path class="cls-12" d="M897.25,280.0214V233.409a7.4209,7.4209,0,0,0-14.8418,0v46.6124h-6V233.409a13.4209,13.4209,0,0,1,26.8418,0v46.6124Z"/><path class="cls-12" d="M876.4077,322.2489v-5.9726h6v5.9726a7.4209,7.4209,0,0,0,14.8418,0v-5.9726h6v5.9726a13.4209,13.4209,0,0,1-26.8418,0Z"/><path class="cls-26" d="M839.8327,278.0047c28.9895,29.9775,66.1443,22.2553,90.2342,6.5373"/><polygon class="cls-12" points="938.729 302.828 950.981 264.346 911.529 272.971 938.729 302.828"/><circle class="cls-27" cx="1025.2506" cy="277.5236" r="16.8948"/><path class="cls-27" d="M1063.7507,307.66a48.8927,48.8927,0,1,1,10.39-30.1363,49.4112,49.4112,0,0,1-.3219,5.6405"/><polygon class="cls-12" points="1042.556 307.286 1073.819 283.164 1079.082 322.299 1042.556 307.286"/><text class="cls-28" transform="translate(1066.3143 668.2591) rotate(-90) scale(0.583)">Vin</text><circle class="cls-29" cx="323.375" cy="715.0216" r="36.5651"/><circle class="cls-12" cx="323.375" cy="715.0216" r="26.6468"/><text class="cls-30" transform="translate(331.328 668.2591) rotate(-90) scale(0.583)">SCL</text><circle class="cls-29" cx="414.8672" cy="715.0157" r="36.5651"/><circle class="cls-12" cx="414.8672" cy="715.0157" r="26.6468"/><text class="cls-31" transform="translate(419.3065 668.2586) rotate(-90) scale(0.583)">SDA</text><circle class="cls-29" cx="506.3593" cy="715.0216" r="36.5651"/><circle class="cls-12" cx="506.3593" cy="715.0216" r="26.6468"/><text class="cls-32" transform="translate(514.4842 668.2591) rotate(-90) scale(0.583)"><tspan class="cls-33">S</tspan><tspan x="50.03" y="0">A0</tspan></text><circle class="cls-29" cx="597.8515" cy="715.0157" r="36.5651"/><circle class="cls-12" cx="597.8515" cy="715.0157" r="26.6468"/><text class="cls-34" transform="translate(605.494 668.2591) rotate(-90) scale(0.583)">CS</text><circle class="cls-29" cx="689.3436" cy="715.0216" r="36.5651"/><circle class="cls-12" cx="689.3436" cy="715.0216" r="26.6468"/><text class="cls-35" transform="translate(694.6258 668.2586) rotate(-90) scale(0.583)">DR<tspan class="cls-36" x="79.2364" y="0">D</tspan><tspan x="120.3592" y="0">Y</tspan></text><circle class="cls-29" cx="780.8358" cy="715.0157" r="36.5651"/><circle class="cls-12" cx="780.8358" cy="715.0157" r="26.6468"/><text class="cls-37" transform="translate(787.3768 668.2591) rotate(-90) scale(0.583)">INT1</text><circle class="cls-29" cx="872.3279" cy="715.0157" r="36.5651"/><circle class="cls-12" cx="872.3279" cy="715.0157" r="26.6468"/><text class="cls-38" transform="translate(880.2665 668.2586) rotate(-90) scale(0.583)">GND</text><circle class="cls-29" cx="963.8201" cy="715.0157" r="36.5651"/><circle class="cls-12" cx="963.8201" cy="715.0157" r="26.6468"/><text class="cls-39" transform="translate(973.6376 668.2586) rotate(-90) scale(0.583)">3<tspan class="cls-40" x="49.3348" y="0">V</tspan><tspan x="98.5934" y="0">o</tspan></text><circle class="cls-29" cx="1055.3122" cy="715.0157" r="36.5651"/><circle class="cls-12" cx="1055.3122" cy="715.0157" r="26.6468"/><rect class="cls-7" x="1008.5824" y="1080.9135" width="74.3527" height="149.7921"/><line class="cls-41" x1="1053.0636" y1="1147.5179" x2="1055.3122" y2="715.0157"/><polyline class="cls-42" points="1069.36 1122.645 1071.65 913.542 872.328 913.067 870.055 715.016"/><polyline class="cls-43" points="1036.894 1176.058 1038.926 931.154 323.617 928.749 323.133 715.022"/><polyline class="cls-44" points="1020.303 1197.264 1022.52 947.258 415.109 944.852 414.867 715.016"/></g></svg>