<svg xmlns="http://www.w3.org/2000/svg" viewBox="0 0 1383.56 1382.659"><defs><style>.cls-3{fill:#323031}.cls-4{fill:#6a5f27}.cls-5{fill:#5a5a5d}.cls-6{fill:#f2f2f2}.cls-7{fill:#221f1f}.cls-11,.cls-12,.cls-25,.cls-9{fill:#fff}.cls-11,.cls-25,.cls-9{font-family:Verdana}.cls-9{font-size:48.4894px}.cls-11{font-size:32.3262px}.cls-26,.cls-27{fill:none;stroke:#fff}.cls-27{stroke-miterlimit:10}.cls-16{fill:#6c5623}.cls-19{fill:#383943}.cls-20{fill:#d1c7bc}.cls-21{fill:#c09264}.cls-22{fill:#373836}.cls-25{font-size:83.1569px}.cls-26,.cls-27{stroke-linecap:round}.cls-26{stroke-linejoin:round;stroke-width:7.5px}.cls-27{stroke-width:9px}.cls-29{fill:#725f46}</style></defs><g id="Layer_1" data-name="Layer 1"><path d="M-738.92 3216.222l-2.78-2086.697c0-68.83 55.946-124.626 124.958-124.626h2061.97c69.012 0 124.957 55.797 124.957 124.626l2.779 2102.591c0 68.83-55.945 124.626-124.957 124.626H-598.028c-83.23 7.16-142.315-36.849-140.889-116.339" fill="#434343"/><rect x="-728.737" y="1065.044" width="2278.343" height="2232.031" rx="87.878" transform="rotate(90 410.435 2181.06)" fill="#4f4e51"/><path class="cls-3" d="M-486.126 1060.99H746.911v138.261H-486.126z"/><path class="cls-4" d="M679.555 1137.518a8.13 8.13 0 118.13-8.13 8.127 8.127 0 01-8.13 8.13m0-36.383a8.13 8.13 0 118.13-8.124 8.121 8.121 0 01-8.13 8.124m0 74.229a8.126 8.126 0 118.13-8.123 8.121 8.121 0 01-8.13 8.123m-123.049-37.846a8.13 8.13 0 118.129-8.13 8.127 8.127 0 01-8.129 8.13m0-36.383a8.13 8.13 0 118.129-8.124 8.12 8.12 0 01-8.129 8.124m0 74.229a8.126 8.126 0 118.129-8.123 8.12 8.12 0 01-8.129 8.123m-123.049-37.846a8.13 8.13 0 118.128-8.13 8.127 8.127 0 01-8.128 8.13m0-36.383a8.13 8.13 0 118.128-8.124 8.121 8.121 0 01-8.128 8.124m0 74.229a8.126 8.126 0 118.128-8.123 8.121 8.121 0 01-8.128 8.123m-123.049-37.846a8.13 8.13 0 118.127-8.13 8.126 8.126 0 01-8.127 8.13m0-36.383a8.13 8.13 0 118.127-8.124 8.12 8.12 0 01-8.127 8.124m0 74.229a8.126 8.126 0 118.127-8.123 8.12 8.12 0 01-8.127 8.123m-123.049-37.846a8.13 8.13 0 118.126-8.13 8.127 8.127 0 01-8.126 8.13m0-36.383a8.13 8.13 0 118.126-8.124 8.121 8.121 0 01-8.126 8.124m0 74.229a8.126 8.126 0 118.126-8.123 8.121 8.121 0 01-8.126 8.123M64.31 1137.518a8.13 8.13 0 118.126-8.13 8.126 8.126 0 01-8.126 8.13m0-36.383a8.13 8.13 0 118.126-8.124 8.12 8.12 0 01-8.126 8.124m0 74.229a8.126 8.126 0 118.126-8.123 8.12 8.12 0 01-8.126 8.123"/><path class="cls-3" d="M803.032 1065.093h107.997v134.444H803.032z"/><path class="cls-4" d="M857.03 1140.445a8.13 8.13 0 118.123-8.13 8.126 8.126 0 01-8.123 8.13m0-36.383a8.13 8.13 0 118.123-8.124 8.121 8.121 0 01-8.123 8.123m0 74.229a8.126 8.126 0 118.123-8.123 8.121 8.121 0 01-8.123 8.124"/><path class="cls-3" d="M983.715 1065.093h116.538v181.006H983.715z"/><path class="cls-4" d="M1041.988 1144.24a8.13 8.13 0 118.123-8.13 8.132 8.132 0 01-8.123 8.13m0-36.384a8.13 8.13 0 118.123-8.124 8.126 8.126 0 01-8.123 8.124m0 74.229a8.126 8.126 0 118.123-8.124 8.126 8.126 0 01-8.123 8.124m0 37.503a8.13 8.13 0 118.123-8.124 8.126 8.126 0 01-8.123 8.124"/><path class="cls-5" d="M1247.004 1079.311h74.065v129.854h-74.065z"/><path class="cls-6" d="M1263.209 1108.486h43.971v83.322h-43.971z"/><path class="cls-7" d="M1284.033 1147.253a29.22 29.22 0 1129.223-29.224 29.218 29.218 0 01-29.223 29.224"/><path class="cls-5" d="M1172.945 1079.311h74.059v129.854h-74.059z"/><path class="cls-6" d="M1189.144 1108.486h43.971v83.322h-43.971z"/><path class="cls-7" d="M1209.973 1147.253a29.22 29.22 0 1129.223-29.224 29.223 29.223 0 01-29.223 29.224"/><text transform="rotate(90 -193.904 1034.414)" font-family="Verdana" fill="#fff" font-size="37.875">RS-232</text><text class="cls-9" transform="rotate(90 -128.454 1152.23)">I</text><text transform="rotate(90 -130.586 1170.508) scale(.583)" letter-spacing="0" font-size="48.489" font-family="Verdana" fill="#fff">2</text><text class="cls-9" transform="rotate(90 -147.645 1171.421)">C</text><text class="cls-9" transform="rotate(90 124.827 1220.965)">CAN</text><text class="cls-11" transform="rotate(90 18.346 1257.977)">L (GRN)</text><text class="cls-11" transform="rotate(90 -19.933 1222.19)">H (YEL)</text><path class="cls-12" d="M143.82 1302.88a13.41 13.41 0 01-5.217-5.502 17.4 17.4 0 01-1.87-8.204V1286a17.366 17.366 0 011.87-8.216 13.373 13.373 0 015.252-5.493 15.402 15.402 0 017.793-1.941h9.425v34.474h-9.64a14.928 14.928 0 01-7.613-1.944zm-4.202-13.66a15.391 15.391 0 001.468 6.901 10.85 10.85 0 004.145 4.593 11.732 11.732 0 006.201 1.624h6.727v-29.526h-6.51a12 12 0 00-6.372 1.658 10.974 10.974 0 00-4.19 4.64 15.402 15.402 0 00-1.47 6.89zm-10.959-18.87v34.473h-2.915v-34.474zm-36.098 7.02a13.17 13.17 0 0118.787-5.54 12.836 12.836 0 014.738 5.552 19.576 19.576 0 011.679 8.358v3.693a19.672 19.672 0 01-1.667 8.358 12.827 12.827 0 01-4.715 5.552 12.681 12.681 0 01-7.018 1.953 12.407 12.407 0 01-11.792-7.493 19.832 19.832 0 01-1.655-8.37v-3.693a19.913 19.913 0 011.643-8.37zm2.5 19.165a10.065 10.065 0 003.632 4.593 9.89 9.89 0 005.671 1.612 9.716 9.716 0 005.59-1.612 10.182 10.182 0 003.631-4.605 17.979 17.979 0 001.271-7.044v-3.739a17.928 17.928 0 00-1.282-7.067 10.298 10.298 0 00-3.655-4.62 9.72 9.72 0 00-5.601-1.62 9.874 9.874 0 00-5.683 1.609 9.984 9.984 0 00-3.597 4.605 18.588 18.588 0 00-1.235 7.093v3.74a18.06 18.06 0 001.259 7.055z"/><path d="M687.686 1254.385v33.448H193.565m-135.14.004h-466.976v-33.449" stroke-width="8.082" stroke-miterlimit="10" fill="none" stroke="#fff"/><text transform="rotate(90 81.136 1307.484)" font-size="33.419" font-family="Verdana" fill="#fff">45 W MAX</text><path d="M270.332 76.964l-45.912 4.944c-79.747 8.587-106.856 111.02-41.796 157.93l74.412 53.654v222.966l-69.62 39.933c-77.504 44.456-69.093 158.844 14.08 191.483l51.006 20.017h930.41c81.86-49.448 82.636-167.91 1.43-218.425l-55.168-34.318v-226.28l66.668-34.14c72.558-37.158 59.717-144.531-19.557-163.53l-59.393-14.234z" fill="#00609b"/><circle class="cls-16" cx="236.069" cy="169.447" r="56.943"/><circle class="cls-12" cx="236.069" cy="169.447" r="41.497"/><circle class="cls-16" cx="236.069" cy="637.768" r="56.943"/><circle class="cls-12" cx="236.069" cy="637.768" r="41.497"/><circle class="cls-16" cx="1156.581" cy="637.768" r="56.943"/><circle class="cls-12" cx="1156.581" cy="637.768" r="41.497"/><circle class="cls-16" cx="1156.581" cy="169.447" r="56.943"/><circle class="cls-12" cx="1156.581" cy="169.447" r="41.497"/><path fill="#5e545e" d="M637.859 356.648h112.839v112.839H637.859z"/><path stroke="#231f20" stroke-width="6" stroke-miterlimit="10" fill="none" d="M732.979 512.739h60.426v46.208h-60.426z"/><path class="cls-19" d="M426.108 190.466h42.654v95.971h-42.654z"/><path class="cls-20" d="M382.302 220.005h43.806v37.473h-43.806zm86.46-29.539h43.806v37.473h-43.806zm0 58.498h43.806v37.473h-43.806z"/><path class="cls-19" transform="rotate(-90 352.65 425.557)" d="M331.323 377.572h42.654v95.971h-42.654z"/><path class="cls-20" transform="rotate(-90 352.94 468.787)" d="M331.038 450.051h43.806v37.473h-43.806z"/><path class="cls-20" transform="rotate(-90 323.401 382.327)" d="M301.498 363.59h43.806v37.473h-43.806z"/><path class="cls-20" transform="rotate(-90 381.9 382.327)" d="M359.996 363.59h43.806v37.473h-43.806z"/><path class="cls-19" transform="rotate(-90 998.967 419.612)" d="M975.489 371.627h46.955v95.971h-46.955z"/><path class="cls-20" transform="rotate(-90 963.76 373.515)" d="M941.14 360.736h45.24v25.558h-45.24z"/><path class="cls-20" transform="rotate(-90 1034.174 373.515)" d="M1011.554 360.736h45.24v25.558h-45.24z"/><path class="cls-20" transform="rotate(-90 998.967 465.71)" d="M976.347 452.931h45.24v25.558h-45.24z"/><path class="cls-20" transform="rotate(-90 963.76 465.71)" d="M941.14 452.931h45.24v25.558h-45.24z"/><path class="cls-20" transform="rotate(-90 1034.174 465.71)" d="M1011.554 452.931h45.24v25.558h-45.24z"/><path class="cls-21" d="M887.645 384.807h41.946v63.596h-41.946z"/><path class="cls-20" d="M887.645 357.069h41.946v27.738h-41.946zm0 91.334h41.946v27.738h-41.946z"/><path class="cls-21" d="M565.871 238.682h41.946v63.596h-41.946z"/><path class="cls-20" d="M565.871 210.944h41.946v27.738h-41.946zm0 91.334h41.946v27.738h-41.946z"/><path class="cls-21" transform="rotate(90 929.591 533.712)" d="M908.618 501.914h41.946v63.596h-41.946z"/><path class="cls-20" transform="rotate(90 975.258 533.712)" d="M954.285 519.843h41.946v27.738h-41.946z"/><path class="cls-20" transform="rotate(90 883.924 533.712)" d="M862.951 519.843h41.946v27.738h-41.946z"/><path class="cls-21" transform="rotate(90 519.91 377.621)" d="M498.938 345.824h41.946v63.596h-41.946z"/><path class="cls-20" transform="rotate(90 565.578 377.621)" d="M544.605 363.752h41.946v27.738h-41.946z"/><path class="cls-20" transform="rotate(90 474.244 377.621)" d="M453.271 363.752h41.946v27.738h-41.946z"/><path class="cls-22" transform="rotate(90 519.91 443.09)" d="M498.938 411.292h41.946v63.596h-41.946z"/><path class="cls-20" transform="rotate(90 565.578 443.09)" d="M544.605 429.22h41.946v27.738h-41.946z"/><path class="cls-20" transform="rotate(90 474.244 443.09)" d="M453.271 429.22h41.946v27.738h-41.946z"/><path class="cls-22" transform="rotate(90 611.245 551.082)" d="M590.272 519.284h41.946v63.596h-41.946z"/><path class="cls-20" transform="rotate(90 656.912 551.082)" d="M635.939 537.213h41.946v27.738h-41.946z"/><path class="cls-20" transform="rotate(90 565.578 551.082)" d="M544.605 537.213h41.946v27.738h-41.946z"/><path class="cls-22" transform="rotate(180 838.58 419.612)" d="M817.607 387.814h41.946v63.596h-41.946z"/><path class="cls-20" transform="rotate(180 838.58 465.28)" d="M817.607 451.41h41.946v27.738h-41.946z"/><path class="cls-20" transform="rotate(180 838.58 373.945)" d="M817.607 360.076h41.946v27.738h-41.946z"/><path class="cls-22" transform="rotate(90 474.244 551.082)" d="M453.271 519.284h41.946v63.596h-41.946z"/><path class="cls-20" transform="rotate(90 519.91 551.082)" d="M498.938 537.213h41.946v27.738h-41.946z"/><path class="cls-20" transform="rotate(90 428.577 551.082)" d="M407.603 537.213h41.946v27.738h-41.946z"/><path class="cls-22" transform="rotate(90 342.138 551.082)" d="M321.165 519.284h41.946v63.596h-41.946z"/><path class="cls-20" transform="rotate(90 387.805 551.082)" d="M366.832 537.213h41.946v27.738h-41.946z"/><path class="cls-20" transform="rotate(90 296.471 551.082)" d="M275.498 537.213h41.946v27.738h-41.946z"/><path class="cls-22" transform="rotate(90 352.65 302.278)" d="M331.677 270.48h41.946v63.596h-41.946z"/><path class="cls-20" transform="rotate(90 398.317 302.278)" d="M377.344 288.409h41.946v27.738h-41.946z"/><path class="cls-20" transform="rotate(90 306.983 302.278)" d="M286.01 288.409h41.946v27.738H286.01z"/><text transform="matrix(.583 0 0 .583 331.727 146.848)" font-size="114.42" font-family="Verdana" fill="#fff">L3GD20H 3<tspan x="657.747" y="0" letter-spacing="-.024em">-</tspan><tspan x="706.912" y="0">Axis Gyro</tspan></text><text class="cls-25" transform="matrix(.583 0 0 .583 729.22 202.251)">X</text><text class="cls-25" transform="matrix(.583 0 0 .583 877.661 202.251)">Y</text><text class="cls-25" transform="matrix(.583 0 0 .583 1011.747 202.251)">Z</text><path class="cls-12" d="M744.894 281.935h-46.612a7.42 7.42 0 010-14.842h46.612v-6h-46.612a13.42 13.42 0 000 26.842h46.612zm42.227-20.842h-5.972v6h5.973a7.42 7.42 0 010 14.842h-5.973v6h5.973a13.42 13.42 0 000-26.842z"/><path class="cls-26" d="M742.877 224.518c29.978 28.99 22.256 66.145 6.538 90.235"/><path class="cls-12" d="M737.844 296.214l-8.625 39.453 38.481-12.252-29.856-27.201zm159.406-16.193V233.41a7.42 7.42 0 00-14.842 0v46.612h-6V233.41a13.42 13.42 0 0126.842 0v46.612zm-20.842 42.228v-5.973h6v5.973a7.42 7.42 0 0014.841 0v-5.973h6v5.973a13.42 13.42 0 01-26.841 0z"/><path class="cls-26" d="M839.833 278.005c28.99 29.977 66.144 22.255 90.234 6.537"/><path class="cls-12" d="M938.729 302.828l12.252-38.482-39.452 8.625 27.2 29.857z"/><circle class="cls-27" cx="1025.251" cy="277.524" r="16.895"/><path class="cls-27" d="M1063.75 307.66a48.893 48.893 0 1110.39-30.136 49.411 49.411 0 01-.321 5.64"/><path class="cls-12" d="M1042.556 307.286l31.263-24.122 5.263 39.135-36.526-15.013z"/><text transform="matrix(0 -.583 .583 0 1066.314 668.26)" font-size="79.963" font-family="Verdana" fill="#fff">Vin</text><circle class="cls-29" cx="323.375" cy="715.022" r="36.565"/><circle class="cls-12" cx="323.375" cy="715.022" r="26.647"/><text transform="matrix(0 -.583 .583 0 331.328 668.26)" font-size="73.9" font-family="Verdana" fill="#fff">SCL</text><circle class="cls-29" cx="414.867" cy="715.016" r="36.565"/><circle class="cls-12" cx="414.867" cy="715.016" r="26.647"/><text transform="matrix(0 -.583 .583 0 419.307 668.259)" font-size="66.919" font-family="Verdana" fill="#fff">SDA</text><circle class="cls-29" cx="506.359" cy="715.022" r="36.565"/><circle class="cls-12" cx="506.359" cy="715.022" r="26.647"/><text transform="matrix(0 -.583 .583 0 514.484 668.26)" font-size="74.248" font-family="Verdana" fill="#fff"><tspan letter-spacing="-.01em">S</tspan><tspan x="50.03" y="0">A0</tspan></text><circle class="cls-29" cx="597.851" cy="715.016" r="36.565"/><circle class="cls-12" cx="597.851" cy="715.016" r="26.647"/><text transform="matrix(0 -.583 .583 0 605.494 668.26)" font-size="73.285" font-family="Verdana" fill="#fff">CS</text><circle class="cls-29" cx="689.344" cy="715.022" r="36.565"/><circle class="cls-12" cx="689.344" cy="715.022" r="26.647"/><text transform="matrix(0 -.583 .583 0 694.626 668.259)" font-size="54.056" font-family="Verdana" fill="#fff">DR<tspan x="79.236" y="0" letter-spacing="-.01em">D</tspan><tspan x="120.359" y="0">Y</tspan></text><circle class="cls-29" cx="780.836" cy="715.016" r="36.565"/><circle class="cls-12" cx="780.836" cy="715.016" r="26.647"/><text transform="matrix(0 -.583 .583 0 787.377 668.26)" font-size="71.09" font-family="Verdana" fill="#fff">INT1</text><circle class="cls-29" cx="872.328" cy="715.016" r="36.565"/><circle class="cls-12" cx="872.328" cy="715.016" r="26.647"/><text transform="matrix(0 -.583 .583 0 880.266 668.259)" font-size="73.873" font-family="Verdana" fill="#fff">GND</text><circle class="cls-29" cx="963.82" cy="715.016" r="36.565"/><circle class="cls-12" cx="963.82" cy="715.016" r="26.647"/><text transform="matrix(0 -.583 .583 0 973.638 668.259)" font-size="77.602" font-family="Verdana" fill="#fff">3<tspan x="49.335" y="0" letter-spacing="-.049em">V</tspan><tspan x="98.593" y="0">o</tspan></text><circle class="cls-29" cx="1055.312" cy="715.016" r="36.565"/><circle class="cls-12" cx="1055.312" cy="715.016" r="26.647"/><path class="cls-7" d="M1008.582 1080.914h74.353v149.792h-74.353z"/><path stroke-width="16.248" stroke="#e9262a" stroke-linejoin="round" stroke-linecap="round" fill="none" d="M1053.064 1147.518l2.248-432.502"/><path stroke="#221f1f" stroke-width="16.248" stroke-linejoin="round" stroke-linecap="round" fill="none" d="M1069.36 1122.645l2.29-209.103-199.322-.475-2.273-198.051"/><path stroke="#babcbe" stroke-width="16.248" stroke-linejoin="round" stroke-linecap="round" fill="none" d="M1036.894 1176.058l2.032-244.904-715.309-2.405-.484-213.727"/><path stroke="#1c75bc" stroke-width="16.248" stroke-linejoin="round" stroke-linecap="round" fill="none" d="M1020.303 1197.264l2.217-250.006-607.411-2.406-.242-229.836"/></g></svg>