<svg id="Layer_1" data-name="Layer 1" xmlns="http://www.w3.org/2000/svg" viewBox="0 0 996.8023 790.4006"><defs><style>.cls-1{fill:#434343;}.cls-2{fill:#4f4e51;}.cls-3{fill:#323031;}.cls-4{fill:#6a5f27;}.cls-5,.cls-6{font-size:28.1633px;}.cls-10,.cls-11,.cls-5,.cls-6,.cls-7{fill:#fff;}.cls-10,.cls-18,.cls-21,.cls-5,.cls-6{font-family:Heebo-Light, Heebo;font-weight:300;}.cls-6{letter-spacing:0em;}.cls-13,.cls-15,.cls-16,.cls-17,.cls-20,.cls-22,.cls-23,.cls-24,.cls-8,.cls-9{fill:none;}.cls-11,.cls-8,.cls-9{stroke:#fff;}.cls-8{stroke-miterlimit:10;stroke-width:4.6939px;}.cls-9{stroke-miterlimit:2;}.cls-11,.cls-9{stroke-width:1.1891px;}.cls-10{font-size:18.9416px;}.cls-11,.cls-13,.cls-15,.cls-16,.cls-17,.cls-20,.cls-22,.cls-23,.cls-24{stroke-linecap:round;stroke-linejoin:round;}.cls-12{fill:#232d2f;}.cls-13{stroke:#00aeef;}.cls-13,.cls-15,.cls-16,.cls-17,.cls-22,.cls-23,.cls-24{stroke-width:9.478px;}.cls-14{fill:#221f1f;}.cls-15{stroke:#221f1f;}.cls-16{stroke:#e9262a;}.cls-17{stroke:#babcbe;}.cls-18,.cls-21{font-size:37.912px;fill:#010101;}.cls-19,.cls-21{letter-spacing:0.001em;}.cls-20{stroke:#6d6e71;stroke-width:14px;}.cls-22{stroke:#fff200;}.cls-23{stroke:#754c29;}.cls-24{stroke:#f7941d;}.cls-25{fill:#bab6af;}.cls-26{fill:#e5e0d6;}</style></defs><path class="cls-1" d="M1074.8332-1066.3485l1.614,1211.9843A72.481,72.481,0,0,1,1003.87,218.02H-193.752a72.4809,72.4809,0,0,1-72.577-72.3844L-267.9429-1075.58a72.4809,72.4809,0,0,1,72.577-72.3844H993c48.3418-4.1591,82.6586,21.4021,81.83,67.5711"/><rect class="cls-2" x="-254.3766" y="-1113.3093" width="1323.2948" height="1296.3962" rx="51.0409" transform="translate(872.382 -57.8404) rotate(-90)"/><rect class="cls-3" x="211.8404" y="105.138" width="716.1661" height="80.3039"/><path class="cls-4" d="M250.9616,140.993a4.7218,4.7218,0,1,1-4.7214,4.7218,4.72,4.72,0,0,1,4.7214-4.7218"/><path class="cls-4" d="M250.9616,162.1248a4.7219,4.7219,0,1,1-4.7214,4.7185,4.7169,4.7169,0,0,1,4.7214-4.7185"/><path class="cls-4" d="M250.9616,119.0114A4.72,4.72,0,1,1,246.24,123.73a4.7168,4.7168,0,0,1,4.7214-4.7184"/><path class="cls-4" d="M322.43,140.993a4.7218,4.7218,0,1,1-4.721,4.7218,4.72,4.72,0,0,1,4.721-4.7218"/><path class="cls-4" d="M322.43,162.1248a4.7219,4.7219,0,1,1-4.721,4.7185,4.7168,4.7168,0,0,1,4.721-4.7185"/><path class="cls-4" d="M322.43,119.0114a4.72,4.72,0,1,1-4.721,4.7184,4.7167,4.7167,0,0,1,4.721-4.7184"/><path class="cls-4" d="M393.899,140.993a4.7218,4.7218,0,1,1-4.7206,4.7218,4.72,4.72,0,0,1,4.7206-4.7218"/><path class="cls-4" d="M393.899,162.1248a4.7219,4.7219,0,1,1-4.7206,4.7185,4.7168,4.7168,0,0,1,4.7206-4.7185"/><path class="cls-4" d="M393.899,119.0114a4.72,4.72,0,1,1-4.7206,4.7184,4.7167,4.7167,0,0,1,4.7206-4.7184"/><path class="cls-4" d="M465.3677,140.993a4.7218,4.7218,0,1,1-4.72,4.7218,4.72,4.72,0,0,1,4.72-4.7218"/><path class="cls-4" d="M465.3677,162.1248a4.7219,4.7219,0,1,1-4.72,4.7185,4.7168,4.7168,0,0,1,4.72-4.7185"/><path class="cls-4" d="M465.3677,119.0114a4.72,4.72,0,1,1-4.72,4.7184,4.7167,4.7167,0,0,1,4.72-4.7184"/><path class="cls-4" d="M536.8364,140.993a4.7218,4.7218,0,1,1-4.72,4.7218,4.72,4.72,0,0,1,4.72-4.7218"/><path class="cls-4" d="M536.8364,162.1248a4.7219,4.7219,0,1,1-4.72,4.7185,4.7168,4.7168,0,0,1,4.72-4.7185"/><path class="cls-4" d="M536.8364,119.0114a4.72,4.72,0,1,1-4.72,4.7184,4.7167,4.7167,0,0,1,4.72-4.7184"/><path class="cls-4" d="M608.3052,140.993a4.7218,4.7218,0,1,1-4.72,4.7218,4.72,4.72,0,0,1,4.72-4.7218"/><path class="cls-4" d="M608.3052,162.1248a4.7219,4.7219,0,1,1-4.72,4.7185,4.7169,4.7169,0,0,1,4.72-4.7185"/><path class="cls-4" d="M608.3052,119.0114a4.72,4.72,0,1,1-4.72,4.7184,4.7168,4.7168,0,0,1,4.72-4.7184"/><path class="cls-4" d="M679.7739,140.993a4.7218,4.7218,0,1,1-4.7192,4.7218,4.72,4.72,0,0,1,4.7192-4.7218"/><path class="cls-4" d="M679.7739,162.1248a4.7219,4.7219,0,1,1-4.7192,4.7185,4.7169,4.7169,0,0,1,4.7192-4.7185"/><path class="cls-4" d="M679.7739,119.0114a4.72,4.72,0,1,1-4.7192,4.7184,4.7168,4.7168,0,0,1,4.7192-4.7184"/><path class="cls-4" d="M751.2426,140.993a4.7218,4.7218,0,1,1-4.7188,4.7218,4.72,4.72,0,0,1,4.7188-4.7218"/><path class="cls-4" d="M751.2426,162.1248a4.7219,4.7219,0,1,1-4.7188,4.7185,4.7169,4.7169,0,0,1,4.7188-4.7185"/><path class="cls-4" d="M751.2426,119.0114a4.72,4.72,0,1,1-4.7188,4.7184,4.7168,4.7168,0,0,1,4.7188-4.7184"/><path class="cls-4" d="M822.7113,140.993a4.7218,4.7218,0,1,1-4.7184,4.7218,4.72,4.72,0,0,1,4.7184-4.7218"/><path class="cls-4" d="M822.7113,162.1248a4.7219,4.7219,0,1,1-4.7184,4.7185,4.7168,4.7168,0,0,1,4.7184-4.7185"/><path class="cls-4" d="M822.7113,119.0114a4.72,4.72,0,1,1-4.7184,4.7184,4.7167,4.7167,0,0,1,4.7184-4.7184"/><path class="cls-4" d="M894.18,140.993a4.7218,4.7218,0,1,1-4.718,4.7218,4.72,4.72,0,0,1,4.718-4.7218"/><path class="cls-4" d="M894.18,162.1248a4.7219,4.7219,0,1,1-4.718,4.7185,4.7168,4.7168,0,0,1,4.718-4.7185"/><path class="cls-4" d="M894.18,119.0114a4.72,4.72,0,1,1-4.718,4.7184,4.7167,4.7167,0,0,1,4.718-4.7184"/><rect class="cls-3" x="116.5185" y="104.9714" width="62.7261" height="78.0871"/><path class="cls-4" d="M147.882,139.2934a4.7218,4.7218,0,1,1-4.7181,4.7218,4.72,4.72,0,0,1,4.7181-4.7218"/><path class="cls-4" d="M147.882,160.4252a4.7219,4.7219,0,1,1-4.7181,4.7185,4.7168,4.7168,0,0,1,4.7181-4.7185"/><path class="cls-4" d="M147.882,117.3117a4.72,4.72,0,1,1-4.7181,4.7185,4.7168,4.7168,0,0,1,4.7181-4.7185"/><rect class="cls-3" x="6.6142" y="77.9277" width="67.6871" height="105.1308"/><path class="cls-4" d="M40.4554,137.0894a4.7219,4.7219,0,1,1-4.718,4.7219,4.723,4.723,0,0,1,4.718-4.7219"/><path class="cls-4" d="M40.4554,158.2213a4.7219,4.7219,0,1,1-4.718,4.7185,4.72,4.72,0,0,1,4.718-4.7185"/><path class="cls-4" d="M40.4554,115.1078a4.72,4.72,0,1,1-4.718,4.7185,4.72,4.72,0,0,1,4.718-4.7185"/><path class="cls-4" d="M40.4554,93.326a4.7218,4.7218,0,1,1-4.718,4.7184,4.72,4.72,0,0,1,4.718-4.7184"/><text class="cls-5" transform="translate(155.6053 88.2534) rotate(-90)">RS-232</text><text class="cls-5" transform="translate(51.0291 57.8374) rotate(-90)">I</text><text class="cls-5" transform="translate(41.6507 50.3286) rotate(-90) scale(0.583)">2</text><text class="cls-6" transform="translate(51.0291 41.2212) rotate(-90)">C</text><path class="cls-7" d="M562.1247,44.9488a7.7882,7.7882,0,0,1,3.03,3.1958,10.1069,10.1069,0,0,1,1.0867,4.765V54.753a10.0867,10.0867,0,0,1-1.0867,4.7718,7.7668,7.7668,0,0,1-3.05,3.1907,8.945,8.945,0,0,1-4.5263,1.1274h-5.4742V43.82h5.6A8.6692,8.6692,0,0,1,562.1247,44.9488Zm2.4409,7.9337a8.9382,8.9382,0,0,0-.8531-4.0083,6.3009,6.3009,0,0,0-2.407-2.6677,6.8141,6.8141,0,0,0-3.6021-.9429h-3.9068V62.4125h3.7815a6.97,6.97,0,0,0,3.7-.9631,6.3739,6.3739,0,0,0,2.4341-2.6948,8.9446,8.9446,0,0,0,.8531-4.0016Z"/><path class="cls-7" d="M570.93,63.8429V43.82h1.6928V63.8429Z"/><path class="cls-7" d="M591.8962,59.7651A7.65,7.65,0,0,1,580.985,62.983a7.456,7.456,0,0,1-2.7524-3.2246,11.37,11.37,0,0,1-.975-4.8548V52.759a11.425,11.425,0,0,1,.9683-4.8547,7.45,7.45,0,0,1,2.7388-3.2247,7.3658,7.3658,0,0,1,4.076-1.1341,7.2062,7.2062,0,0,1,6.8488,4.352,11.5191,11.5191,0,0,1,.9614,4.8615v2.1446A11.5653,11.5653,0,0,1,591.8962,59.7651Zm-1.4523-11.1313a5.8463,5.8463,0,0,0-2.1091-2.6677,5.7443,5.7443,0,0,0-3.2941-.9361,5.6435,5.6435,0,0,0-3.2466.9361,5.914,5.914,0,0,0-2.1091,2.6745,10.442,10.442,0,0,0-.738,4.0913v2.1717a10.4141,10.4141,0,0,0,.7447,4.1049,5.9822,5.9822,0,0,0,2.1227,2.6829,5.6454,5.6454,0,0,0,3.2534.9412,5.7349,5.7349,0,0,0,3.3008-.9344,5.7978,5.7978,0,0,0,2.0888-2.6745,10.7957,10.7957,0,0,0,.7177-4.12V52.7319A10.49,10.49,0,0,0,590.4439,48.6338Z"/><polyline class="cls-8" points="246.239 73.115 246.239 53.688 533.232 53.688"/><polyline class="cls-8" points="611.723 53.686 882.95 53.686 882.95 73.113"/><rect class="cls-3" x="956.7944" y="-19.3835" width="78.0871" height="69.2609"/><path class="cls-4" d="M991.1142,15.2485a4.7217,4.7217,0,1,1,4.7218,4.7184,4.7226,4.7226,0,0,1-4.7218-4.7184"/><text class="cls-5" transform="translate(935.8944 39.9546) rotate(-90)">RSL</text><line class="cls-9" x1="942.3865" y1="168.5639" x2="961.2769" y2="168.5639"/><line class="cls-9" x1="942.2598" y1="144.8122" x2="974.1728" y2="144.2635"/><line class="cls-9" x1="942.3865" y1="121.0815" x2="955.9862" y2="121.0815"/><line class="cls-9" x1="968.7343" y1="172.9611" x2="968.7343" y2="164.1667"/><line class="cls-9" x1="964.9984" y1="176.4507" x2="964.9984" y2="160.6702"/><line class="cls-9" x1="961.2836" y1="180.2921" x2="961.2836" y2="156.8358"/><text class="cls-10" transform="translate(991.7733 155.4214) rotate(-90) scale(1 1.0056)">5V</text><text class="cls-10" transform="translate(972.16 127.023) rotate(-90) scale(1 1.0056)">S</text><rect class="cls-11" x="936.2582" y="118.2556" width="5.9942" height="5.5104"/><rect class="cls-11" x="936.702" y="141.7827" width="5.9942" height="5.5104"/><rect class="cls-11" x="936.624" y="165.6288" width="5.9942" height="5.5104"/><line class="cls-9" x1="997.2541" y1="65.2288" x2="997.2541" y2="79.1028"/><text class="cls-10" transform="translate(1003.7655 93.2202) rotate(-90) scale(1 1.0056)">S</text><rect class="cls-11" x="994.1267" y="59.5981" width="5.9942" height="5.5104"/><path class="cls-12" d="M542.9343,693.1131h.01v-118.04h-286.29V682.0168a183.1176,183.1176,0,0,0,194.86,293.811L564.3111,872.2362a183.2393,183.2393,0,0,0-21.3768-179.1231ZM395.357,880.2825c-46.0355,0-83.3546-32.95-83.3546-73.5955s37.3191-73.5957,83.3546-73.5957,83.3547,32.95,83.3547,73.5957S441.3926,880.2825,395.357,880.2825Z"/><polyline class="cls-13" points="415.602 639.764 415.602 453.576 385.624 453.877 385.624 413.041"/><rect class="cls-14" x="262.0841" y="111.4001" width="32.9048" height="78.8376"/><polyline class="cls-15" points="267.528 173.009 267.528 267.558 453.945 268.965 452.891 393.776"/><polyline class="cls-16" points="278.536 146.048 278.536 253.981 467.631 255.388 466.578 393.776"/><polyline class="cls-17" points="289.092 129.482 289.092 240.417 481.314 241.975 480.257 393.776"/><text class="cls-18" transform="translate(508.9608 317.3999)"><tspan class="cls-19">26 A</tspan><tspan x="75.1426" y="0">WG</tspan><tspan x="0" y="45.4941">minumum</tspan></text><rect class="cls-14" x="222.3977" y="112.8262" width="32.9048" height="78.8376"/><polyline class="cls-15" points="227.842 174.436 227.842 324.984 358.259 326.391 357.615 367.569"/><polyline class="cls-16" points="238.85 147.475 238.85 311.407 371.945 312.814 371.232 367.569"/><polyline class="cls-17" points="249.406 130.908 249.406 297.843 385.624 299.247 384.571 393.776"/><line class="cls-20" x1="385.6225" y1="421.2568" x2="385.626" y2="372.9505"/><text class="cls-21" transform="translate(569.2733 625.0113)">E4T OEM Miniature <tspan x="0" y="45.4941">Optical Encoder</tspan></text><polyline class="cls-22" points="367.789 639.764 367.79 514.856 481.313 514.856 481.309 421.257"/><polyline class="cls-23" points="394.853 639.764 394.855 484.425 453.947 484.425 453.948 413.041"/><polyline class="cls-24" points="442.615 639.764 441.437 498.165 466.453 498.165 467.635 413.041"/><line class="cls-20" x1="453.945" y1="421.2568" x2="453.9484" y2="372.9505"/><line class="cls-20" x1="467.6295" y1="421.2568" x2="467.633" y2="372.9505"/><line class="cls-20" x1="481.3089" y1="421.2568" x2="481.3124" y2="372.9505"/><polygon class="cls-25" points="452.77 651.29 354.947 651.29 353.902 594.986 333.46 594.986 333.46 582.848 470.634 582.848 470.69 593.708 452.77 593.708 452.77 651.29"/><polygon class="cls-26" points="500.688 601.445 460.256 601.445 460.256 625.112 446.005 625.012 446.005 634.873 361.788 634.873 361.788 625.012 345.866 625.112 345.866 601.445 303.462 601.445 303.462 657.654 336.004 657.654 336.004 681.321 346.359 681.321 356.713 681.321 453.354 681.321 460.256 681.321 467.159 681.321 467.159 657.654 500.688 657.654 500.688 601.445"/></svg>