<?xml version="1.0" encoding="utf-8"?>
<!-- Generator: Adobe Illustrator 24.1.3, SVG Export Plug-In . SVG Version: 6.00 Build 0)  -->
<svg version="1.1" id="Layer_1" xmlns="http://www.w3.org/2000/svg" xmlns:xlink="http://www.w3.org/1999/xlink" x="0px" y="0px"
	 viewBox="0 0 436.5 442.8" style="enable-background:new 0 0 436.5 442.8;" xml:space="preserve">
<style type="text/css">
	.st0{fill:#434343;}
	.st1{fill:#4F4E51;}
	.st2{fill:#323031;}
	.st3{fill:#6A5F27;}
	.st4{fill:#FFFFFF;}
	.st5{fill:none;stroke:#FFFFFF;stroke-width:4.0289;stroke-miterlimit:10;}
	.st6{fill:none;stroke:#FFFFFF;stroke-width:1.0206;stroke-miterlimit:2;}
	.st7{font-family:'Verdana';}
	.st8{font-size:16.349px;}
	.st9{fill:#FFFFFF;stroke:#FFFFFF;stroke-width:1.0206;stroke-linecap:round;stroke-linejoin:round;}
	.st10{fill:#221F1F;}
	.st11{fill:none;stroke:#BABCBE;stroke-width:8.124;stroke-linecap:round;stroke-linejoin:round;}
	.st12{fill:none;stroke:#E9262A;stroke-width:8.124;stroke-linecap:round;stroke-linejoin:round;}
	.st13{fill:none;stroke:#231F20;stroke-width:8.124;stroke-linecap:round;stroke-linejoin:round;}
	.st14{fill:#010101;}
	.st15{font-size:32.496px;}
	.st16{fill:#030304;}
	.st17{fill:#E9E8E8;}
	.st18{fill:#6D6D6D;}
	.st19{fill:#EFE8CE;}
	.st20{fill:#E6E7E8;}
	.st21{font-size:18.3797px;}
	.st22{fill:#F7DCA0;}
	.st23{fill:#FBEEB8;}
</style>
<path class="st0" d="M486.5-942.2l1.4,1040.3c0,34.4-27.9,62.2-62.3,62.1H-602.4c-34.4,0-62.2-27.8-62.3-62.1L-666-950.1
	c0-34.4,27.9-62.2,62.3-62.1h1020c41.5-3.6,70.9,18.4,70.2,58"/>
<path class="st1" d="M-642.9,98V-950.2c0-24.2,19.6-43.8,43.8-43.8H426.1c24.2,0,43.8,19.6,43.8,43.8V98c0,24.2-19.6,43.8-43.8,43.8
	H-599C-623.2,141.8-642.9,122.2-642.9,98z"/>
<rect x="-254.2" y="63.3" class="st2" width="614.7" height="68.9"/>
<path class="st3" d="M24.7,94.1c2.2,0,4.1,1.8,4.1,4.1c0,2.2-1.8,4.1-4.1,4.1s-4.1-1.8-4.1-4.1c0,0,0,0,0,0
	C20.7,95.9,22.5,94.1,24.7,94.1C24.7,94.1,24.7,94.1,24.7,94.1"/>
<path class="st3" d="M24.7,112.2c2.2,0,4.1,1.8,4.1,4.1c0,2.2-1.8,4.1-4.1,4.1s-4.1-1.8-4.1-4.1c0,0,0,0,0,0
	C20.7,114.1,22.5,112.2,24.7,112.2C24.7,112.2,24.7,112.2,24.7,112.2"/>
<path class="st3" d="M24.7,75.2c2.2,0,4.1,1.8,4.1,4.1s-1.8,4.1-4.1,4.1s-4.1-1.8-4.1-4.1c0,0,0,0,0,0C20.7,77,22.5,75.2,24.7,75.2
	C24.7,75.2,24.7,75.2,24.7,75.2"/>
<path class="st3" d="M86.1,94.1c2.2,0,4.1,1.8,4.1,4.1c0,2.2-1.8,4.1-4.1,4.1c-2.2,0-4.1-1.8-4.1-4.1c0,0,0,0,0,0
	C82,95.9,83.8,94.1,86.1,94.1C86.1,94.1,86.1,94.1,86.1,94.1"/>
<path class="st3" d="M86.1,112.2c2.2,0,4.1,1.8,4.1,4.1c0,2.2-1.8,4.1-4.1,4.1c-2.2,0-4.1-1.8-4.1-4.1c0,0,0,0,0,0
	C82,114.1,83.8,112.2,86.1,112.2C86.1,112.2,86.1,112.2,86.1,112.2"/>
<path class="st3" d="M86.1,75.2c2.2,0,4.1,1.8,4.1,4.1s-1.8,4.1-4.1,4.1S82,81.5,82,79.3c0,0,0,0,0,0C82,77,83.8,75.2,86.1,75.2
	C86.1,75.2,86.1,75.2,86.1,75.2"/>
<path class="st3" d="M147.4,94.1c2.2,0,4.1,1.8,4.1,4.1c0,2.2-1.8,4.1-4.1,4.1c-2.2,0-4.1-1.8-4.1-4.1c0,0,0,0,0,0
	C143.3,95.9,145.2,94.1,147.4,94.1C147.4,94.1,147.4,94.1,147.4,94.1"/>
<path class="st3" d="M147.4,112.2c2.2,0,4.1,1.8,4.1,4.1c0,2.2-1.8,4.1-4.1,4.1c-2.2,0-4.1-1.8-4.1-4.1c0,0,0,0,0,0
	C143.3,114.1,145.2,112.2,147.4,112.2C147.4,112.2,147.4,112.2,147.4,112.2"/>
<path class="st3" d="M147.4,75.2c2.2,0,4.1,1.8,4.1,4.1s-1.8,4.1-4.1,4.1s-4.1-1.8-4.1-4.1c0,0,0,0,0,0
	C143.3,77,145.2,75.2,147.4,75.2C147.4,75.2,147.4,75.2,147.4,75.2"/>
<path class="st3" d="M208.7,94.1c2.2,0,4.1,1.8,4.1,4.1c0,2.2-1.8,4.1-4.1,4.1c-2.2,0-4.1-1.8-4.1-4.1c0,0,0,0,0,0
	C204.7,95.9,206.5,94.1,208.7,94.1C208.7,94.1,208.7,94.1,208.7,94.1"/>
<path class="st3" d="M208.7,112.2c2.2,0,4.1,1.8,4.1,4.1c0,2.2-1.8,4.1-4.1,4.1c-2.2,0-4.1-1.8-4.1-4.1c0,0,0,0,0,0
	C204.7,114.1,206.5,112.2,208.7,112.2C208.7,112.2,208.7,112.2,208.7,112.2"/>
<path class="st3" d="M208.7,75.2c2.2,0,4.1,1.8,4.1,4.1s-1.8,4.1-4.1,4.1s-4.1-1.8-4.1-4.1c0,0,0,0,0,0
	C204.7,77,206.5,75.2,208.7,75.2C208.7,75.2,208.7,75.2,208.7,75.2"/>
<path class="st3" d="M270.1,94.1c2.2,0,4.1,1.8,4.1,4c0,2.2-1.8,4.1-4,4.1c-2.2,0-4.1-1.8-4.1-4c0,0,0,0,0,0
	C266,95.9,267.8,94.1,270.1,94.1C270.1,94.1,270.1,94.1,270.1,94.1"/>
<path class="st3" d="M270.1,112.2c2.2,0,4.1,1.8,4.1,4c0,2.2-1.8,4.1-4,4.1c-2.2,0-4.1-1.8-4.1-4c0,0,0,0,0,0
	C266,114.1,267.8,112.2,270.1,112.2C270.1,112.2,270.1,112.2,270.1,112.2"/>
<path class="st3" d="M270.1,75.2c2.2,0,4.1,1.8,4.1,4s-1.8,4.1-4,4.1s-4.1-1.8-4.1-4c0,0,0,0,0,0C266,77,267.8,75.2,270.1,75.2
	C270.1,75.2,270.1,75.2,270.1,75.2"/>
<path class="st3" d="M331.4,94.1c2.2,0,4.1,1.8,4.1,4c0,2.2-1.8,4.1-4,4.1c-2.2,0-4.1-1.8-4.1-4c0,0,0,0,0,0
	C327.4,95.9,329.2,94.1,331.4,94.1C331.4,94.1,331.4,94.1,331.4,94.1"/>
<path class="st3" d="M331.4,112.2c2.2,0,4.1,1.8,4.1,4c0,2.2-1.8,4.1-4,4.1c-2.2,0-4.1-1.8-4.1-4c0,0,0,0,0,0
	C327.4,114.1,329.2,112.2,331.4,112.2C331.4,112.2,331.4,112.2,331.4,112.2"/>
<path class="st3" d="M331.4,75.2c2.2,0,4.1,1.8,4.1,4s-1.8,4.1-4,4.1s-4.1-1.8-4.1-4c0,0,0,0,0,0C327.4,77,329.2,75.2,331.4,75.2
	C331.4,75.2,331.4,75.2,331.4,75.2"/>
<path class="st4" d="M46.4,11.7c1.1,0.6,2,1.6,2.6,2.7c0.6,1.3,1,2.7,0.9,4.1v1.6c0,1.4-0.3,2.8-0.9,4.1c-0.6,1.1-1.5,2.1-2.6,2.7
	c-1.2,0.7-2.5,1-3.9,1h-4.7V10.7h4.8C44,10.7,45.3,11,46.4,11.7z M48.5,18.5c0-1.2-0.2-2.4-0.7-3.4c-0.5-0.9-1.2-1.7-2.1-2.3
	c-0.9-0.6-2-0.8-3.1-0.8h-3.4v14.7h3.2c1.1,0,2.2-0.3,3.2-0.8c0.9-0.6,1.6-1.4,2.1-2.3c0.5-1.1,0.8-2.2,0.7-3.4V18.5z"/>
<path class="st4" d="M54,27.9V10.7h1.5v17.2H54z"/>
<path class="st4" d="M72,24.4c-1.6,3.3-5.5,4.7-8.8,3.1c-0.2-0.1-0.4-0.2-0.6-0.3c-1-0.7-1.9-1.6-2.4-2.8c-0.6-1.3-0.9-2.7-0.8-4.2
	v-1.8c0-1.4,0.3-2.9,0.8-4.2c0.5-1.1,1.3-2.1,2.4-2.8c1-0.7,2.3-1,3.5-1c2.5-0.1,4.9,1.4,5.9,3.7c0.6,1.3,0.9,2.7,0.8,4.2v1.8
	C72.8,21.6,72.5,23.1,72,24.4z M70.7,14.8c-0.4-0.9-1-1.7-1.8-2.3c-0.8-0.5-1.8-0.8-2.8-0.8c-1,0-2,0.3-2.8,0.8
	c-0.8,0.6-1.4,1.4-1.8,2.3c-0.4,1.1-0.7,2.3-0.6,3.5v1.9c0,1.2,0.2,2.4,0.6,3.5c0.4,0.9,1,1.7,1.8,2.3c0.8,0.5,1.8,0.8,2.8,0.8
	c1,0,2-0.3,2.8-0.8c0.8-0.6,1.4-1.4,1.8-2.3c0.4-1.1,0.6-2.3,0.6-3.5v-1.9C71.4,17.1,71.2,15.9,70.7,14.8L70.7,14.8z"/>
<polyline class="st5" points="-224.7,35.8 -224.7,19.2 21.6,19.2 "/>
<polyline class="st5" points="89,19.2 321.8,19.2 321.8,35.8 "/>
<line class="st6" x1="372.8" y1="117.8" x2="389" y2="117.8"/>
<line class="st6" x1="372.7" y1="97.4" x2="400.1" y2="96.9"/>
<line class="st6" x1="372.8" y1="77" x2="384.5" y2="77"/>
<line class="st6" x1="395.4" y1="121.5" x2="395.4" y2="114"/>
<line class="st6" x1="392.2" y1="124.5" x2="392.2" y2="111"/>
<line class="st6" x1="389" y1="127.8" x2="389" y2="107.7"/>
<text transform="matrix(6.089135e-17 -0.9944 1 6.123234e-17 415.1953 106.4834)" class="st4 st7 st8">5V</text>
<text transform="matrix(6.089135e-17 -0.9944 1 6.123234e-17 398.3613 82.1084)" class="st4 st7 st8">S</text>
<rect x="367.5" y="74.6" class="st9" width="5.1" height="4.7"/>
<rect x="367.9" y="94.8" class="st9" width="5.1" height="4.7"/>
<rect x="367.9" y="115.2" class="st9" width="5.1" height="4.7"/>
<rect x="197.7" y="66.8" class="st10" width="28.2" height="67.6"/>
<line class="st11" x1="202.4" y1="79.6" x2="202.4" y2="248.6"/>
<line class="st12" x1="211.8" y1="96.5" x2="211.8" y2="237"/>
<line class="st13" x1="220.9" y1="118.3" x2="220.9" y2="225.4"/>
<text transform="matrix(1 0 0 1 30.0232 424.2871)" class="st14 st7 st15">WCP Hall Effect Sensor</text>
<rect x="134.6" y="267.9" class="st16" width="154.5" height="112.8"/>
<circle class="st17" cx="150.9" cy="343.4" r="12.9"/>
<circle class="st17" cx="193.2" cy="285.3" r="3.7"/>
<circle class="st17" cx="212.6" cy="285.3" r="3.7"/>
<circle class="st17" cx="232" cy="285.3" r="3.7"/>
<circle class="st17" cx="271.7" cy="343.4" r="12.9"/>
<rect x="176.3" y="204.3" class="st18" width="71.9" height="60"/>
<rect x="190.6" y="264.2" class="st19" width="5.3" height="21"/>
<rect x="210" y="264.2" class="st19" width="5.3" height="21"/>
<rect x="229.4" y="264.2" class="st19" width="5.3" height="21"/>
<text transform="matrix(1 0 0 1 161.1774 305.0312)" class="st20 st7 st21">SIG 5v GND</text>
<rect x="193.1" y="315.4" class="st20" width="3.7" height="15.9"/>
<rect x="207.5" y="315.4" class="st20" width="6.1" height="15.9"/>
<rect x="228.3" y="315.4" class="st20" width="5.7" height="15.9"/>
<rect x="191.3" y="342.5" class="st22" width="16.2" height="4.9"/>
<rect x="217" y="342.5" class="st23" width="16.8" height="4.9"/>
<rect x="191.3" y="356.2" class="st20" width="19.4" height="8.7"/>
<rect x="230.1" y="353.1" class="st20" width="4" height="11.8"/>
</svg>
