<svg id="Layer_1" data-name="Layer 1" xmlns="http://www.w3.org/2000/svg" viewBox="0 0 436.476 442.8354"><defs><style>.cls-1{fill:#434343;}.cls-2{fill:#4f4e51;}.cls-3{fill:#323031;}.cls-4{fill:#6a5f27;}.cls-5,.cls-8,.cls-9{fill:#fff;}.cls-11,.cls-12,.cls-13,.cls-6,.cls-7{fill:none;}.cls-6,.cls-7,.cls-9{stroke:#fff;}.cls-6{stroke-miterlimit:10;stroke-width:4.0289px;}.cls-7{stroke-miterlimit:2;}.cls-7,.cls-9{stroke-width:1.0206px;}.cls-8{font-size:16.258px;}.cls-14,.cls-19,.cls-8{font-family:Verdana;}.cls-11,.cls-12,.cls-13,.cls-9{stroke-linecap:round;stroke-linejoin:round;}.cls-10{fill:#221f1f;}.cls-11{stroke:#babcbe;}.cls-11,.cls-12,.cls-13{stroke-width:8.124px;}.cls-12{stroke:#e9262a;}.cls-13{stroke:#231f20;}.cls-14{font-size:32.496px;fill:#010101;letter-spacing:0.001em;}.cls-15{fill:#030304;}.cls-16{fill:#e9e8e8;}.cls-17{fill:#6d6d6d;}.cls-18{fill:#efe8ce;}.cls-19{font-size:18.3797px;}.cls-19,.cls-20{fill:#e6e7e8;}.cls-21{fill:#f7dca0;}.cls-22{fill:#fbeeb8;}</style></defs><path class="cls-1" d="M486.4848-942.1852,487.87,98.0854a62.2118,62.2118,0,0,1-62.2943,62.1289H-602.3675a62.2119,62.2119,0,0,1-62.2944-62.1289L-666.0471-950.109a62.2118,62.2118,0,0,1,62.2943-62.1289H416.2456c41.4928-3.57,70.9476,18.37,70.2368,57.9976"/><rect class="cls-2" x="-654.4029" y="-982.4926" width="1135.8106" height="1112.723" rx="43.8095" transform="translate(339.6336 -512.6287) rotate(-90)"/><rect class="cls-3" x="-254.2394" y="63.3252" width="614.6998" height="68.9265"/><path class="cls-4" d="M24.7113,94.1A4.0529,4.0529,0,1,1,20.66,98.1531,4.0512,4.0512,0,0,1,24.7113,94.1"/><path class="cls-4" d="M24.7113,112.2382a4.0529,4.0529,0,1,1-4.0512,4.05,4.0485,4.0485,0,0,1,4.0512-4.05"/><path class="cls-4" d="M24.7113,75.233a4.0513,4.0513,0,1,1-4.0512,4.05,4.0486,4.0486,0,0,1,4.0512-4.05"/><path class="cls-4" d="M86.0543,94.1a4.0529,4.0529,0,1,1-4.0509,4.0528A4.0512,4.0512,0,0,1,86.0543,94.1"/><path class="cls-4" d="M86.0543,112.2382a4.0529,4.0529,0,1,1-4.0509,4.05,4.0485,4.0485,0,0,1,4.0509-4.05"/><path class="cls-4" d="M86.0543,75.233a4.0513,4.0513,0,1,1-4.0509,4.05,4.0486,4.0486,0,0,1,4.0509-4.05"/><path class="cls-4" d="M147.3973,94.1a4.0529,4.0529,0,1,1-4.05,4.0528,4.0513,4.0513,0,0,1,4.05-4.0528"/><path class="cls-4" d="M147.3973,112.2382a4.0529,4.0529,0,1,1-4.05,4.05,4.0486,4.0486,0,0,1,4.05-4.05"/><path class="cls-4" d="M147.3973,75.233a4.0513,4.0513,0,1,1-4.05,4.05,4.0486,4.0486,0,0,1,4.05-4.05"/><path class="cls-4" d="M208.74,94.1a4.0529,4.0529,0,1,1-4.05,4.0528A4.0512,4.0512,0,0,1,208.74,94.1"/><path class="cls-4" d="M208.74,112.2382a4.0529,4.0529,0,1,1-4.05,4.05,4.0485,4.0485,0,0,1,4.05-4.05"/><path class="cls-4" d="M208.74,75.233a4.0513,4.0513,0,1,1-4.05,4.05,4.0486,4.0486,0,0,1,4.05-4.05"/><path class="cls-4" d="M270.0834,94.1a4.0529,4.0529,0,1,1-4.05,4.0528,4.0512,4.0512,0,0,1,4.05-4.0528"/><path class="cls-4" d="M270.0834,112.2382a4.0529,4.0529,0,1,1-4.05,4.05,4.0485,4.0485,0,0,1,4.05-4.05"/><path class="cls-4" d="M270.0834,75.233a4.0513,4.0513,0,1,1-4.05,4.05,4.0486,4.0486,0,0,1,4.05-4.05"/><path class="cls-4" d="M331.4264,94.1a4.0529,4.0529,0,1,1-4.05,4.0528,4.0512,4.0512,0,0,1,4.05-4.0528"/><path class="cls-4" d="M331.4264,112.2382a4.0529,4.0529,0,1,1-4.05,4.05,4.0485,4.0485,0,0,1,4.05-4.05"/><path class="cls-4" d="M331.4264,75.233a4.0513,4.0513,0,1,1-4.05,4.05,4.0486,4.0486,0,0,1,4.05-4.05"/><path class="cls-5" d="M46.4167,11.6636a6.6848,6.6848,0,0,1,2.6007,2.7431,8.6752,8.6752,0,0,1,.9328,4.09v1.5822a8.6583,8.6583,0,0,1-.9328,4.0957,6.6668,6.6668,0,0,1-2.6181,2.7387,7.6781,7.6781,0,0,1-3.885.9676H37.8156V10.6945h4.8062A7.4411,7.4411,0,0,1,46.4167,11.6636Zm2.0951,6.81a7.6723,7.6723,0,0,0-.7323-3.44,5.4083,5.4083,0,0,0-2.066-2.29,5.8484,5.8484,0,0,0-3.0917-.8092H39.2685V26.6531h3.2458a5.9818,5.9818,0,0,0,3.176-.8267,5.47,5.47,0,0,0,2.0892-2.313,7.6772,7.6772,0,0,0,.7323-3.4346Z"/><path class="cls-5" d="M53.9747,27.8808V10.6945h1.4529V27.8808Z"/><path class="cls-5" d="M71.97,24.3808a6.5658,6.5658,0,0,1-9.3654,2.7619,6.4,6.4,0,0,1-2.3624-2.7677,9.759,9.759,0,0,1-.8368-4.1669V18.3673a9.8076,9.8076,0,0,1,.831-4.1669,6.3951,6.3951,0,0,1,2.3508-2.7678,6.3223,6.3223,0,0,1,3.4986-.9734,6.1851,6.1851,0,0,1,5.8784,3.7354,9.8863,9.8863,0,0,1,.8252,4.1727v1.8408A9.9272,9.9272,0,0,1,71.97,24.3808Zm-1.2466-9.5542a5.0175,5.0175,0,0,0-1.81-2.29,4.9305,4.9305,0,0,0-2.8273-.8034,4.8445,4.8445,0,0,0-2.7867.8034,5.0777,5.0777,0,0,0-1.81,2.2956,8.9632,8.9632,0,0,0-.6334,3.5116v1.8641a8.9387,8.9387,0,0,0,.6392,3.5233,5.1349,5.1349,0,0,0,1.822,2.3028,4.8454,4.8454,0,0,0,2.7924.8078,4.9224,4.9224,0,0,0,2.8332-.802,4.9768,4.9768,0,0,0,1.7928-2.2956,9.2654,9.2654,0,0,0,.6161-3.5363V18.344A9.0032,9.0032,0,0,0,70.7236,14.8266Z"/><polyline class="cls-6" points="-224.714 35.839 -224.714 19.165 21.617 19.165"/><polyline class="cls-6" points="88.988 19.163 321.787 19.163 321.787 35.838"/><line class="cls-7" x1="372.8031" y1="117.765" x2="389.0171" y2="117.765"/><line class="cls-7" x1="372.6943" y1="97.3784" x2="400.0859" y2="96.9075"/><line class="cls-7" x1="372.8031" y1="77.0099" x2="384.4759" y2="77.0099"/><line class="cls-7" x1="395.4179" y1="121.5392" x2="395.4179" y2="113.9908"/><line class="cls-7" x1="392.2113" y1="124.5344" x2="392.2113" y2="110.9896"/><line class="cls-7" x1="389.0228" y1="127.8315" x2="389.0228" y2="107.6985"/><text class="cls-8" transform="translate(415.1946 106.4834) rotate(-90) scale(1 1.0056)">5V</text><text class="cls-8" transform="translate(398.3606 82.1084) rotate(-90) scale(1 1.0056)">S</text><rect class="cls-9" x="367.543" y="74.5844" width="5.1449" height="4.7297"/><rect class="cls-9" x="367.9239" y="94.7781" width="5.1449" height="4.7297"/><rect class="cls-9" x="367.857" y="115.2457" width="5.1449" height="4.7297"/><rect class="cls-10" x="197.7386" y="66.7719" width="28.2041" height="67.5751"/><line class="cls-11" x1="202.4052" y1="119.5798" x2="202.4052" y2="248.6216"/><line class="cls-12" x1="211.8403" y1="96.4705" x2="211.8403" y2="236.9841"/><line class="cls-13" x1="220.8884" y1="82.2703" x2="220.8884" y2="225.358"/><text class="cls-14" transform="translate(30.0232 424.2871)">WCP Hall Effect Sensor</text><rect class="cls-15" x="134.5668" y="267.9149" width="154.5477" height="112.7708"/><circle class="cls-16" cx="150.8973" cy="343.4286" r="12.8629"/><circle class="cls-16" cx="193.2411" cy="285.2703" r="3.7365"/><circle class="cls-16" cx="212.6421" cy="285.2703" r="3.7365"/><circle class="cls-16" cx="232.0431" cy="285.2703" r="3.7365"/><circle class="cls-16" cx="271.7487" cy="343.4286" r="12.8629"/><rect class="cls-17" x="176.3275" y="204.2705" width="71.9232" height="59.9748"/><rect class="cls-18" x="190.6155" y="264.2454" width="5.2511" height="21.025"/><rect class="cls-18" x="210.0165" y="264.2454" width="5.2511" height="21.025"/><rect class="cls-18" x="229.4175" y="264.2454" width="5.2511" height="21.025"/><text class="cls-19" transform="translate(171.1774 303.0312)">SIG 5v GND</text><rect class="cls-20" x="193.0501" y="315.4313" width="3.7365" height="15.8718"/><rect class="cls-20" x="207.4962" y="315.4313" width="6.0934" height="15.8718"/><rect class="cls-20" x="228.3025" y="315.4313" width="5.728" height="15.8718"/><rect class="cls-21" x="191.2536" y="342.5064" width="16.2427" height="4.916"/><rect class="cls-22" x="217.0166" y="342.5064" width="16.7755" height="4.916"/><rect class="cls-20" x="191.2536" y="356.1993" width="19.401" height="8.7137"/><rect class="cls-20" x="230.0556" y="353.13" width="3.965" height="11.783"/></svg>