<svg id="Layer_1" data-name="Layer 1" xmlns="http://www.w3.org/2000/svg" viewBox="0 0 436.476 442.835"><defs><style>.cls-4{fill:#6a5f27}.cls-5,.cls-8,.cls-9{fill:#fff}.cls-6,.cls-7{fill:none}.cls-6,.cls-7,.cls-9{stroke:#fff}.cls-6{stroke-miterlimit:10;stroke-width:4.0289px}.cls-7{stroke-miterlimit:2}.cls-7,.cls-9{stroke-width:1.0206px}.cls-8{font-size:16.258px;font-family:Verdana}.cls-9{stroke-linecap:round;stroke-linejoin:round}.cls-16{fill:#e9e8e8}.cls-18{fill:#efe8ce}.cls-20{fill:#e6e7e8}</style></defs><path d="M486.485-942.185l1.385 1040.27a62.212 62.212 0 01-62.294 62.13H-602.367a62.212 62.212 0 01-62.295-62.13l-1.385-1048.194a62.212 62.212 0 0162.294-62.129H416.246c41.492-3.57 70.947 18.37 70.236 57.998" fill="#434343"/><rect x="-654.403" y="-982.493" width="1135.811" height="1112.723" rx="43.809" transform="rotate(-90 -86.498 -426.131)" fill="#4f4e51"/><path fill="#323031" d="M-254.239 63.325h614.7v68.927h-614.7z"/><path class="cls-4" d="M24.711 94.1a4.053 4.053 0 11-4.051 4.053 4.051 4.051 0 014.051-4.053M24.711 112.238a4.053 4.053 0 11-4.05 4.05 4.048 4.048 0 014.05-4.05M24.711 75.233a4.051 4.051 0 11-4.05 4.05 4.049 4.049 0 014.05-4.05M86.054 94.1a4.053 4.053 0 11-4.05 4.053 4.051 4.051 0 014.05-4.053M86.054 112.238a4.053 4.053 0 11-4.05 4.05 4.048 4.048 0 014.05-4.05M86.054 75.233a4.051 4.051 0 11-4.05 4.05 4.049 4.049 0 014.05-4.05M147.397 94.1a4.053 4.053 0 11-4.05 4.053 4.051 4.051 0 014.05-4.053M147.397 112.238a4.053 4.053 0 11-4.05 4.05 4.049 4.049 0 014.05-4.05M147.397 75.233a4.051 4.051 0 11-4.05 4.05 4.049 4.049 0 014.05-4.05M208.74 94.1a4.053 4.053 0 11-4.05 4.053 4.051 4.051 0 014.05-4.053M208.74 112.238a4.053 4.053 0 11-4.05 4.05 4.048 4.048 0 014.05-4.05M208.74 75.233a4.051 4.051 0 11-4.05 4.05 4.049 4.049 0 014.05-4.05M270.083 94.1a4.053 4.053 0 11-4.05 4.053 4.051 4.051 0 014.05-4.053M270.083 112.238a4.053 4.053 0 11-4.05 4.05 4.048 4.048 0 014.05-4.05M270.083 75.233a4.051 4.051 0 11-4.05 4.05 4.049 4.049 0 014.05-4.05M331.426 94.1a4.053 4.053 0 11-4.05 4.053 4.051 4.051 0 014.05-4.053M331.426 112.238a4.053 4.053 0 11-4.05 4.05 4.048 4.048 0 014.05-4.05M331.426 75.233a4.051 4.051 0 11-4.05 4.05 4.049 4.049 0 014.05-4.05"/><path class="cls-5" d="M46.417 11.664a6.685 6.685 0 012.6 2.743 8.675 8.675 0 01.933 4.09v1.582a8.658 8.658 0 01-.933 4.096 6.667 6.667 0 01-2.618 2.738 7.678 7.678 0 01-3.885.968h-4.698V10.694h4.806a7.441 7.441 0 013.795.97zm2.095 6.81a7.672 7.672 0 00-.732-3.44 5.408 5.408 0 00-2.067-2.29 5.848 5.848 0 00-3.091-.81h-3.353v14.72h3.245a5.982 5.982 0 003.176-.828 5.47 5.47 0 002.09-2.313 7.677 7.677 0 00.732-3.434zM53.975 27.88V10.695h1.453v17.187zM71.97 24.38a6.566 6.566 0 01-9.365 2.763 6.4 6.4 0 01-2.363-2.768 9.759 9.759 0 01-.837-4.167v-1.84a9.808 9.808 0 01.831-4.168 6.395 6.395 0 012.351-2.767 6.322 6.322 0 013.499-.974 6.185 6.185 0 015.878 3.736 9.886 9.886 0 01.825 4.172v1.841a9.927 9.927 0 01-.819 4.173zm-1.247-9.553a5.018 5.018 0 00-1.81-2.29 4.93 4.93 0 00-2.827-.804 4.845 4.845 0 00-2.787.804 5.078 5.078 0 00-1.81 2.295 8.963 8.963 0 00-.633 3.512v1.864a8.939 8.939 0 00.64 3.523 5.135 5.135 0 001.821 2.303 4.845 4.845 0 002.793.808 4.922 4.922 0 002.833-.802 4.977 4.977 0 001.793-2.296 9.265 9.265 0 00.616-3.536v-1.864a9.003 9.003 0 00-.628-3.517z"/><path class="cls-6" d="M-224.714 35.839V19.165H21.617M88.988 19.163h232.799v16.675"/><path class="cls-7" d="M372.803 117.765h16.214M372.694 97.378l27.392-.471M372.803 77.01h11.673M395.418 121.539v-7.548M392.211 124.534V110.99M389.023 127.832v-20.134"/><text class="cls-8" transform="matrix(0 -1 1.0056 0 415.195 106.483)">5V</text><text class="cls-8" transform="matrix(0 -1 1.0056 0 398.36 82.108)">S</text><path class="cls-9" d="M367.543 74.584h5.145v4.73h-5.145zM367.924 94.778h5.145v4.73h-5.145zM367.857 115.246h5.145v4.73h-5.145z"/><path fill="#221f1f" d="M197.739 66.772h28.204v67.575h-28.204z"/><path stroke-width="8.124" stroke="#babcbe" stroke-linecap="round" stroke-linejoin="round" fill="none" d="M202.405 119.58v129.042"/><path stroke="#e9262a" stroke-width="8.124" stroke-linecap="round" stroke-linejoin="round" fill="none" d="M211.84 96.471v140.513"/><path stroke="#231f20" stroke-width="8.124" stroke-linecap="round" stroke-linejoin="round" fill="none" d="M220.888 82.27v143.088"/><text transform="translate(30.023 424.287)" font-size="32.496" fill="#010101" letter-spacing=".001em" font-family="Verdana">WCP Hall Effect Sensor</text><path fill="#030304" d="M134.567 267.915h154.548v112.771H134.567z"/><circle class="cls-16" cx="150.897" cy="343.429" r="12.863"/><circle class="cls-16" cx="193.241" cy="285.27" r="3.736"/><circle class="cls-16" cx="212.642" cy="285.27" r="3.736"/><circle class="cls-16" cx="232.043" cy="285.27" r="3.736"/><circle class="cls-16" cx="271.749" cy="343.429" r="12.863"/><path fill="#6d6d6d" d="M176.327 204.27h71.923v59.975h-71.923z"/><path class="cls-18" d="M190.615 264.245h5.251v21.025h-5.251zM210.017 264.245h5.251v21.025h-5.251zM229.417 264.245h5.251v21.025h-5.251z"/><text transform="translate(171.177 303.031)" fill="#e6e7e8" font-size="18.38" font-family="Verdana">SIG 5v GND</text><path class="cls-20" d="M193.05 315.431h3.736v15.872h-3.736zM207.496 315.431h6.093v15.872h-6.093zM228.303 315.431h5.728v15.872h-5.728z"/><path fill="#f7dca0" d="M191.254 342.506h16.243v4.916h-16.243z"/><path fill="#fbeeb8" d="M217.017 342.506h16.776v4.916h-16.776z"/><path class="cls-20" d="M191.254 356.199h19.401v8.714h-19.401zM230.056 353.13h3.965v11.783h-3.965z"/></svg>