<svg id="Layer_1" data-name="Layer 1" xmlns="http://www.w3.org/2000/svg" viewBox="0 0 516.3623 304.9415"><defs><style>.cls-1{fill:#434343;}.cls-2{fill:#4f4e51;}.cls-3{fill:#323031;}.cls-4{fill:#6a5f27;}.cls-5{font-size:14.5978px;}.cls-10,.cls-5,.cls-6,.cls-9{fill:#fff;}.cls-11,.cls-17,.cls-5,.cls-9{font-family:Heebo-Light, Heebo;font-weight:300;}.cls-14,.cls-15,.cls-16,.cls-20,.cls-27,.cls-7,.cls-8{fill:none;}.cls-10,.cls-7,.cls-8{stroke:#fff;}.cls-7{stroke-miterlimit:10;stroke-width:2.433px;}.cls-8{stroke-miterlimit:2;}.cls-10,.cls-8{stroke-width:0.6163px;}.cls-9{font-size:9.818px;}.cls-10,.cls-14,.cls-15,.cls-16,.cls-20,.cls-27{stroke-linecap:round;stroke-linejoin:round;}.cls-11,.cls-17{font-size:19.4976px;fill:#010101;}.cls-12,.cls-17{letter-spacing:0.001em;}.cls-13{fill:#221f1f;}.cls-14{stroke:#221f1f;}.cls-14,.cls-15,.cls-16{stroke-width:4.8744px;}.cls-15{stroke:#e9262a;}.cls-16{stroke:#babcbe;}.cls-18{fill:#e6e7e8;}.cls-19{fill:#999f9b;}.cls-20{stroke:#dadbd5;stroke-width:3.6px;}.cls-21{fill:#5c6162;}.cls-22{fill:#465154;}.cls-23{fill:#545c5b;}.cls-24{fill:#121118;}.cls-25{fill:#edeec8;}.cls-26{fill:#231f20;}.cls-27{stroke:#6d6e71;stroke-width:7.2px;}</style></defs><path class="cls-1" d="M557.5919-551.5016l.8365,628.2053A37.5689,37.5689,0,0,1,520.81,114.2225H-99.9512A37.5689,37.5689,0,0,1-137.57,76.7037l-.8365-632.99a37.5688,37.5688,0,0,1,37.6187-37.5188H515.1754c25.0569-2.1558,42.8443,11.0933,42.415,35.024"/><rect class="cls-2" x="-131.3746" y="-575.8427" width="685.9006" height="671.9582" rx="26.4559" transform="translate(451.4392 -28.2879) rotate(-90)"/><rect class="cls-3" x="110.2787" y="55.7125" width="371.2088" height="41.6237"/><path class="cls-4" d="M130.5563,74.2971a2.4475,2.4475,0,1,1-2.4473,2.4475,2.4465,2.4465,0,0,1,2.4473-2.4475"/><path class="cls-4" d="M130.5563,85.25a2.4475,2.4475,0,1,1-2.4473,2.4457,2.4448,2.4448,0,0,1,2.4473-2.4457"/><path class="cls-4" d="M130.5563,62.9035a2.4465,2.4465,0,1,1-2.4473,2.4457,2.4448,2.4448,0,0,1,2.4473-2.4457"/><path class="cls-4" d="M167.6005,74.2971a2.4475,2.4475,0,1,1-2.4471,2.4475,2.4465,2.4465,0,0,1,2.4471-2.4475"/><path class="cls-4" d="M167.6005,85.25a2.4475,2.4475,0,1,1-2.4471,2.4457,2.4448,2.4448,0,0,1,2.4471-2.4457"/><path class="cls-4" d="M167.6005,62.9035a2.4465,2.4465,0,1,1-2.4471,2.4457,2.4448,2.4448,0,0,1,2.4471-2.4457"/><path class="cls-4" d="M204.6447,74.2971a2.4475,2.4475,0,1,1-2.4468,2.4475,2.4465,2.4465,0,0,1,2.4468-2.4475"/><path class="cls-4" d="M204.6447,85.25a2.4475,2.4475,0,1,1-2.4468,2.4457,2.4448,2.4448,0,0,1,2.4468-2.4457"/><path class="cls-4" d="M204.6447,62.9035a2.4465,2.4465,0,1,1-2.4468,2.4457,2.4448,2.4448,0,0,1,2.4468-2.4457"/><path class="cls-4" d="M241.6889,74.2971a2.4475,2.4475,0,1,1-2.4466,2.4475,2.4465,2.4465,0,0,1,2.4466-2.4475"/><path class="cls-4" d="M241.6889,85.25a2.4475,2.4475,0,1,1-2.4466,2.4457,2.4448,2.4448,0,0,1,2.4466-2.4457"/><path class="cls-4" d="M241.6889,62.9035a2.4465,2.4465,0,1,1-2.4466,2.4457,2.4448,2.4448,0,0,1,2.4466-2.4457"/><path class="cls-4" d="M278.7332,74.2971a2.4475,2.4475,0,1,1-2.4465,2.4475,2.4465,2.4465,0,0,1,2.4465-2.4475"/><path class="cls-4" d="M278.7332,85.25a2.4475,2.4475,0,1,1-2.4465,2.4457,2.4448,2.4448,0,0,1,2.4465-2.4457"/><path class="cls-4" d="M278.7332,62.9035a2.4465,2.4465,0,1,1-2.4465,2.4457,2.4448,2.4448,0,0,1,2.4465-2.4457"/><path class="cls-4" d="M315.7774,74.2971a2.4475,2.4475,0,1,1-2.4463,2.4475,2.4465,2.4465,0,0,1,2.4463-2.4475"/><path class="cls-4" d="M315.7774,85.25a2.4475,2.4475,0,1,1-2.4463,2.4457,2.4448,2.4448,0,0,1,2.4463-2.4457"/><path class="cls-4" d="M315.7774,62.9035a2.4465,2.4465,0,1,1-2.4463,2.4457,2.4448,2.4448,0,0,1,2.4463-2.4457"/><path class="cls-4" d="M352.8216,74.2971a2.4475,2.4475,0,1,1-2.4461,2.4475,2.4465,2.4465,0,0,1,2.4461-2.4475"/><path class="cls-4" d="M352.8216,85.25a2.4475,2.4475,0,1,1-2.4461,2.4457,2.4448,2.4448,0,0,1,2.4461-2.4457"/><path class="cls-4" d="M352.8216,62.9035a2.4465,2.4465,0,1,1-2.4461,2.4457,2.4448,2.4448,0,0,1,2.4461-2.4457"/><path class="cls-4" d="M389.8658,74.2971a2.4475,2.4475,0,1,1-2.4459,2.4475,2.4465,2.4465,0,0,1,2.4459-2.4475"/><path class="cls-4" d="M389.8658,85.25a2.4475,2.4475,0,1,1-2.4459,2.4457,2.4448,2.4448,0,0,1,2.4459-2.4457"/><path class="cls-4" d="M389.8658,62.9035a2.4465,2.4465,0,1,1-2.4459,2.4457,2.4448,2.4448,0,0,1,2.4459-2.4457"/><path class="cls-4" d="M426.91,74.2971a2.4475,2.4475,0,1,1-2.4456,2.4475,2.4465,2.4465,0,0,1,2.4456-2.4475"/><path class="cls-4" d="M426.91,85.25a2.4475,2.4475,0,1,1-2.4456,2.4457A2.4448,2.4448,0,0,1,426.91,85.25"/><path class="cls-4" d="M426.91,62.9035a2.4465,2.4465,0,1,1-2.4456,2.4457,2.4448,2.4448,0,0,1,2.4456-2.4457"/><path class="cls-4" d="M463.9543,74.2971a2.4475,2.4475,0,1,1-2.4455,2.4475,2.4465,2.4465,0,0,1,2.4455-2.4475"/><path class="cls-4" d="M463.9543,85.25a2.4475,2.4475,0,1,1-2.4455,2.4457,2.4449,2.4449,0,0,1,2.4455-2.4457"/><path class="cls-4" d="M463.9543,62.9035a2.4465,2.4465,0,1,1-2.4455,2.4457,2.4449,2.4449,0,0,1,2.4455-2.4457"/><rect class="cls-3" x="60.8706" y="55.6262" width="32.5127" height="40.4747"/><path class="cls-4" d="M77.1272,73.4162a2.4475,2.4475,0,1,1-2.4455,2.4474,2.4465,2.4465,0,0,1,2.4455-2.4474"/><path class="cls-4" d="M77.1272,84.3694a2.4475,2.4475,0,1,1-2.4455,2.4457,2.4448,2.4448,0,0,1,2.4455-2.4457"/><path class="cls-4" d="M77.1272,62.0225a2.4465,2.4465,0,1,1-2.4455,2.4457,2.4448,2.4448,0,0,1,2.4455-2.4457"/><rect class="cls-3" x="3.9042" y="41.6087" width="35.0841" height="54.4922"/><path class="cls-4" d="M21.445,72.2738A2.4475,2.4475,0,1,1,19,74.7213a2.448,2.448,0,0,1,2.4454-2.4475"/><path class="cls-4" d="M21.445,83.2271A2.4475,2.4475,0,1,1,19,85.6728a2.4464,2.4464,0,0,1,2.4454-2.4457"/><path class="cls-4" d="M21.445,60.88A2.4465,2.4465,0,1,1,19,63.3258,2.4464,2.4464,0,0,1,21.445,60.88"/><path class="cls-4" d="M21.445,49.59A2.4475,2.4475,0,1,1,19,52.0357,2.4464,2.4464,0,0,1,21.445,49.59"/><text class="cls-5" transform="translate(81.1322 46.9609) rotate(-90)">RS-232</text><text class="cls-5" transform="translate(26.9291 31.1933) rotate(-90)">I</text><text class="cls-5" transform="translate(22.0683 27.3017) rotate(-90) scale(0.583)">2</text><text class="cls-5" transform="translate(26.9291 22.581) rotate(-90)">C</text><path class="cls-6" d="M291.8408,24.5148a4.0359,4.0359,0,0,1,1.57,1.6565,5.2386,5.2386,0,0,1,.5633,2.47v.9555a5.2284,5.2284,0,0,1-.5633,2.4733,4.0267,4.0267,0,0,1-1.581,1.6539,4.6378,4.6378,0,0,1-2.3462.5843h-2.8374V23.93h2.9024A4.4934,4.4934,0,0,1,291.8408,24.5148Zm1.2652,4.1122a4.6334,4.6334,0,0,0-.4422-2.0776,3.2668,3.2668,0,0,0-1.2477-1.3828,3.5317,3.5317,0,0,0-1.867-.4887h-2.025v8.8888h1.96a3.6124,3.6124,0,0,0,1.918-.4992,3.3045,3.3045,0,0,0,1.2617-1.3968,4.6366,4.6366,0,0,0,.4422-2.0741Z"/><path class="cls-6" d="M296.4049,34.3081V23.93h.8774V34.3081Z"/><path class="cls-6" d="M307.2722,32.1945a3.9651,3.9651,0,0,1-5.6556,1.6679A3.8649,3.8649,0,0,1,300.19,32.191a5.8938,5.8938,0,0,1-.5053-2.5164V28.563a5.9231,5.9231,0,0,1,.5018-2.5163,3.8618,3.8618,0,0,1,1.42-1.6714,3.818,3.818,0,0,1,2.1128-.5879,3.7353,3.7353,0,0,1,3.55,2.2558,5.9707,5.9707,0,0,1,.4983,2.52v1.1116A5.9953,5.9953,0,0,1,307.2722,32.1945Zm-.7528-5.77a3.03,3.03,0,0,0-1.0932-1.3827,2.9771,2.9771,0,0,0-1.7074-.4852,2.9246,2.9246,0,0,0-1.6828.4852,3.0652,3.0652,0,0,0-1.0933,1.3862,5.4135,5.4135,0,0,0-.3825,2.1207v1.1256a5.3971,5.3971,0,0,0,.3861,2.1277,3.1,3.1,0,0,0,1.1,1.3906,2.9262,2.9262,0,0,0,1.6863.4879,2.9723,2.9723,0,0,0,1.7109-.4844,3.0046,3.0046,0,0,0,1.0827-1.3862,5.597,5.597,0,0,0,.372-2.1356V28.549A5.4367,5.4367,0,0,0,306.5194,26.4248Z"/><polyline class="cls-7" points="128.108 39.114 128.108 29.045 276.865 29.045"/><polyline class="cls-7" points="317.549 29.043 458.133 29.043 458.133 39.113"/><rect class="cls-3" x="496.409" y="-8.8304" width="40.4747" height="35.8998"/><path class="cls-4" d="M514.198,9.12a2.4474,2.4474,0,1,1,2.4474,2.4457A2.4478,2.4478,0,0,1,514.198,9.12"/><text class="cls-5" transform="translate(485.5775 21.9258) rotate(-90)">RSL</text><line class="cls-8" x1="488.941" y1="88.5879" x2="498.7325" y2="88.5879"/><line class="cls-8" x1="488.8754" y1="76.2767" x2="505.4168" y2="75.9924"/><line class="cls-8" x1="488.941" y1="63.9765" x2="495.9901" y2="63.9765"/><line class="cls-8" x1="502.5978" y1="90.8671" x2="502.5978" y2="86.3087"/><line class="cls-8" x1="500.6614" y1="92.6759" x2="500.6614" y2="84.4964"/><line class="cls-8" x1="498.7359" y1="94.667" x2="498.7359" y2="82.5089"/><text class="cls-9" transform="translate(514.5385 81.7764) rotate(-90) scale(1 1.0056)">5V</text><text class="cls-9" transform="translate(504.3715 67.0566) rotate(-90) scale(1 1.0056)">S</text><rect class="cls-10" x="485.7646" y="62.5117" width="3.1069" height="2.8562"/><rect class="cls-10" x="485.9946" y="74.7064" width="3.1069" height="2.8562"/><rect class="cls-10" x="485.9542" y="87.0666" width="3.1069" height="2.8562"/><text class="cls-9" transform="translate(520.7543 49.5361) rotate(-90) scale(1 1.0056)">S</text><rect class="cls-10" x="515.7595" y="32.1079" width="3.1069" height="2.8562"/><text class="cls-11" transform="translate(18.4691 147.8574)"><tspan class="cls-12">26 A</tspan><tspan x="38.6445" y="0">WG</tspan><tspan x="0" y="23.3975">minumum</tspan></text><rect class="cls-13" x="122.0009" y="59.7515" width="16.9225" height="40.545"/><polyline class="cls-14" points="124.801 91.436 124.801 231.342 261.007 231.342"/><polyline class="cls-15" points="130.462 77.571 130.462 225.704 155.57 225.704"/><polyline class="cls-16" points="135.891 69.051 135.891 187.384 190.585 186.621"/><text class="cls-17" transform="translate(241.3656 270.2344)">Limit Switch<tspan x="0" y="23.3975">or Micro Switch</tspan></text><path class="cls-18" d="M343.3647,156.0393v-4.6622a1.9714,1.9714,0,0,0-.3226-1.0911l-1.1481-1.72a1.517,1.517,0,0,0-1.2527-.7085H331.322a1.466,1.466,0,0,0-1.0291.4371l-1.7536,1.7284a1.9165,1.9165,0,0,0-.5463,1.3625v4.6539a1.6987,1.6987,0,0,0,1.5754,1.8h12.221A1.6987,1.6987,0,0,0,343.3647,156.0393Z"/><path class="cls-19" d="M314.7936,158.8759v-3.02a5.8877,5.8877,0,0,1,2.6863-4.64l3.8593-1.5106a65.2208,65.2208,0,0,1,6.4727-1.2685l116.0542-15.1864a1.624,1.624,0,0,0,1.3622-1.6465v-2.6224a1.591,1.591,0,0,0-1.75-1.645L337.0005,142.1293c-6.6705.9267-14.8072,1.8866-20.7613,5.0334l-3.3981,1.7543a7.7729,7.7729,0,0,0-1.9161,3.2994v6.66a1.6073,1.6073,0,0,0,1.55,1.6588h.7679A1.6073,1.6073,0,0,0,314.7936,158.8759Z"/><polyline class="cls-20" points="304.756 220.705 304.756 231.342 267.576 231.342"/><rect class="cls-21" x="249.9135" y="174.0174" width="4.2587" height="36.0068" rx="0.7574" transform="translate(504.0858 384.0416) rotate(180)"/><path class="cls-22" d="M260.3625,156.5954H370.9682a7.1083,7.1083,0,0,1,7.1084,7.1083v49.8928a7.1084,7.1084,0,0,1-7.1084,7.1084H260.3625a7.1084,7.1084,0,0,1-7.1084-7.1084V163.7037A7.1083,7.1083,0,0,1,260.3625,156.5954Z"/><path class="cls-23" d="M377.9123,198.4667s-29.3132-9.44-23.8517,22.2382l18.4761-.1124a14.0625,14.0625,0,0,0,5.54-5.67Z"/><circle class="cls-24" cx="366.4862" cy="210.0242" r="6.7413"/><path class="cls-23" d="M253.4184,178.8335s29.3132,9.44,23.8517-22.2381l-18.4761.1123a14.0631,14.0631,0,0,0-5.54,5.67Z"/><circle class="cls-24" cx="264.8445" cy="167.276" r="6.7413"/><rect class="cls-25" x="208.3529" y="201.3498" width="41.5607" height="3.8661" transform="translate(458.2664 406.5657) rotate(180)"/><rect class="cls-25" x="208.3529" y="184.784" width="41.5607" height="3.8661" transform="translate(458.2664 373.4341) rotate(180)"/><path class="cls-26" d="M256.9189,183.3486h1.6079l2.7412,4.3252.9116,1.6426h.0542c-.0757-.7959-.2-1.7695-.2-2.626v-3.3418h1.4892v7.6944h-1.6079l-2.7412-4.3321-.9116-1.6347h-.0542c.0757.8134.2,1.7412.2,2.5976v3.3692h-1.4892Z"/><path class="cls-26" d="M265.3022,187.165a3.8907,3.8907,0,1,1,7.78,0,3.8922,3.8922,0,1,1-7.78,0Zm6.1728,0c0-1.7265-.896-2.7715-2.2827-2.7715s-2.2822,1.045-2.2822,2.7715.8955,2.833,2.2822,2.833S271.475,188.8926,271.475,187.165Z"/><path class="cls-26" d="M274.057,190.125l.7393-.8653a3.0354,3.0354,0,0,0,2.0342.8184c.9394,0,1.5869-.4238,1.5869-1.1289,0-.7725-.5693-1.27-2.5195-1.27V186.69c1.6777,0,2.2275-.5088,2.2275-1.1953,0-.626-.4775-1.0029-1.2676-1.0029a2.6273,2.6273,0,0,0-1.7158.706l-.8037-.8379a4.0986,4.0986,0,0,1,2.584-.9453c1.6406,0,2.7685.7149,2.7685,1.9785,0,.835-.5674,1.4-1.4951,1.72v.0478a1.9918,1.9918,0,0,1,1.7861,1.8633c0,1.3643-1.3652,2.16-3.0166,2.16A3.9688,3.9688,0,0,1,274.057,190.125Z"/><path class="cls-26" d="M256.9189,197.4668h1.6079l2.7412,4.3252.9116,1.6416h.0542c-.0757-.7949-.2-1.7686-.2-2.625v-3.3418h1.4892v7.6943h-1.6079l-2.7412-4.332-.9116-1.6348h-.0542c.0757.8135.2,1.7412.2,2.5977v3.3691h-1.4892Z"/><path class="cls-26" d="M265.3022,201.34a3.8468,3.8468,0,0,1,4.0415-4.0136,3.7551,3.7551,0,0,1,2.5415.9736l-.837.88a2.4616,2.4616,0,0,0-1.6723-.668,2.4884,2.4884,0,0,0-2.4658,2.7861c0,1.7549.95,2.8184,2.4282,2.8184a2.636,2.636,0,0,0,1.8828-.79l.8359.8564a3.9849,3.9849,0,0,1-6.7548-2.8428Z"/><path class="cls-26" d="M272.9291,204.375c2.38-2.0186,3.88-3.3311,3.88-4.4746a1.2413,1.2413,0,0,0-1.419-1.29,2.4577,2.4577,0,0,0-1.6728.8282l-.8633-.7432a3.7088,3.7088,0,0,1,2.7412-1.1621c1.64,0,2.7139.9082,2.7139,2.2959,0,1.332-1.4141,2.7012-3.124,4.2588.4531-.0371,1.0195-.0752,1.44-.0752h2.0986v1.1484h-5.7949Z"/><path class="cls-26" d="M287.2162,211.4844a3.8468,3.8468,0,0,1,4.041-4.0137,3.755,3.755,0,0,1,2.542.9736l-.8369.88a2.4614,2.4614,0,0,0-1.6728-.668,2.4881,2.4881,0,0,0-2.4649,2.7862c0,1.7548.9492,2.8183,2.4277,2.8183a2.6352,2.6352,0,0,0,1.8829-.79l.8359.8564a3.985,3.985,0,0,1-6.7549-2.8427Z"/><path class="cls-26" d="M294.54,211.4277a3.8907,3.8907,0,1,1,7.78,0,3.8922,3.8922,0,1,1-7.78,0Zm6.1728,0c0-1.7265-.8955-2.7715-2.2822-2.7715s-2.2822,1.045-2.2822,2.7715.8955,2.833,2.2822,2.833S300.7123,213.1553,300.7123,211.4277Z"/><path class="cls-26" d="M304.0932,207.6113h1.7695l1.56,3.7608c.1943.4892.372,1.0068.5664,1.51h.0547c.1933-.5029.3613-1.02.5556-1.51l1.5264-3.7608h1.7695v7.6943H310.46v-3.5195c0-.7109.124-1.7344.1992-2.4472h-.0537l-.7119,1.788-1.4522,3.4561h-.9277l-1.4571-3.4561-.7011-1.788h-.0537c.0751.7128.1992,1.7363.1992,2.4472v3.5195h-1.4082Z"/><path class="cls-26" d="M314.017,214.2h1.9209v-4.9131H314.352v-.8516a6.0418,6.0418,0,0,0,1.98-.6172h1.16V214.2h1.69v1.1054H314.017Z"/><line class="cls-27" x1="210.2045" y1="186.6223" x2="185.3613" y2="186.6205"/><line class="cls-27" x1="274.5938" y1="231.3434" x2="249.7505" y2="231.3416"/></svg>