<svg xmlns="http://www.w3.org/2000/svg" viewBox="0 0 1080.9642 447.9607"><defs><style>.cls-1{fill:#434343;}.cls-2{fill:#4f4e51;}.cls-3{fill:#323031;}.cls-4{fill:#6a5f27;}.cls-5{font-size:32.2926px;}.cls-12,.cls-13,.cls-14,.cls-16,.cls-5,.cls-7{fill:#fff;}.cls-12,.cls-13,.cls-16,.cls-20,.cls-5,.cls-7{font-family:Verdana;}.cls-6{letter-spacing:-0.031em;}.cls-7{font-size:23.3332px;}.cls-11,.cls-15,.cls-17,.cls-18,.cls-19,.cls-23,.cls-24,.cls-25,.cls-26,.cls-8{fill:none;}.cls-14,.cls-15,.cls-8{stroke:#fff;}.cls-8{stroke-miterlimit:10;stroke-width:5.3821px;}.cls-9{fill:#5a5d65;}.cls-10{fill:#23446c;}.cls-11{stroke:#f1f2f2;}.cls-11,.cls-15{stroke-miterlimit:2;}.cls-11,.cls-14,.cls-15{stroke-width:1.3634px;}.cls-12{font-size:19.6908px;}.cls-13{font-size:19.0954px;}.cls-14,.cls-17,.cls-18,.cls-19,.cls-23,.cls-24,.cls-25,.cls-26{stroke-linecap:round;stroke-linejoin:round;}.cls-16{font-size:21.7188px;}.cls-17{stroke:#f7941d;}.cls-17,.cls-18,.cls-19,.cls-23,.cls-24,.cls-25{stroke-width:10.832px;}.cls-18{stroke:#1c75bc;}.cls-19{stroke:#754c29;}.cls-20{font-size:43.328px;fill:#010101;letter-spacing:0.001em;}.cls-21{letter-spacing:0.001em;}.cls-22{fill:#221f1f;}.cls-23{stroke:#221f1f;}.cls-24{stroke:#e9262a;}.cls-25{stroke:#babcbe;}.cls-26{stroke:#939598;stroke-width:20px;}.cls-27{fill:#a8aaaa;}.cls-28{fill:#6f7170;}.cls-29{fill:#c7cec7;}.cls-30{fill:#a89240;}.cls-31{fill:#e2d16d;}.cls-32{fill:#b7a447;}.cls-33{fill:#e1dcc3;}.cls-34{fill:#524b52;}</style></defs><g id="Layer_1" data-name="Layer 1"><path class="cls-1" d="M705.4748,214.0173l-1389.6844,1.85A83.108,83.108,0,0,1-767.2069,132.65V-1240.5668a83.108,83.108,0,0,1,82.9973-83.2183l1400.27-1.8505a83.108,83.108,0,0,1,82.9973,83.2182V120.1857c4.7689,55.43-24.54,94.7779-77.4784,93.8283"/><rect class="cls-2" x="-742.573" y="-1294.659" width="1517.3152" height="1486.4727" rx="58.5245"/><rect class="cls-3" x="27.6354" y="78.457" width="314.9762" height="89.5362"/><path class="cls-4" d="M63.595,117.8129a5.412,5.412,0,1,1-5.41,5.41,5.409,5.409,0,0,1,5.41-5.41"/><path class="cls-4" d="M63.595,142.0392a5.414,5.414,0,1,1-5.41,5.4141,5.41,5.41,0,0,1,5.41-5.4141"/><path class="cls-4" d="M63.595,92.6045a5.414,5.414,0,1,1-5.41,5.41,5.4089,5.4089,0,0,1,5.41-5.41"/><rect class="cls-3" x="108.0329" y="78.457" width="71.923" height="89.5362"/><path class="cls-4" d="M143.9949,117.8129a5.412,5.412,0,1,1-5.4142,5.41,5.4082,5.4082,0,0,1,5.4142-5.41"/><path class="cls-4" d="M143.9949,142.0392a5.414,5.414,0,1,1-5.4142,5.4141,5.409,5.409,0,0,1,5.4142-5.4141"/><path class="cls-4" d="M143.9949,92.6045a5.414,5.414,0,1,1-5.4142,5.41,5.4081,5.4081,0,0,1,5.4142-5.41"/><rect class="cls-3" x="270.6886" y="78.457" width="71.923" height="89.5362"/><path class="cls-4" d="M306.65,117.8129a5.412,5.412,0,1,1-5.4141,5.41,5.4082,5.4082,0,0,1,5.4141-5.41"/><path class="cls-4" d="M306.65,142.0392a5.414,5.414,0,1,1-5.4141,5.4141,5.4091,5.4091,0,0,1,5.4141-5.4141"/><path class="cls-4" d="M306.65,92.6045a5.414,5.414,0,1,1-5.4141,5.41,5.4082,5.4082,0,0,1,5.4141-5.41"/><rect class="cls-3" x="189.4047" y="78.457" width="71.9269" height="89.5362"/><path class="cls-4" d="M225.3691,117.8129a5.412,5.412,0,1,1-5.4142,5.41,5.4082,5.4082,0,0,1,5.4142-5.41"/><path class="cls-4" d="M225.3691,142.0392a5.414,5.414,0,1,1-5.4142,5.4141,5.409,5.409,0,0,1,5.4142-5.4141"/><path class="cls-4" d="M225.3691,92.6045a5.414,5.414,0,1,1-5.4142,5.41,5.4081,5.4081,0,0,1,5.4142-5.41"/><text class="cls-5" transform="translate(107.6464 29.4375)">ANA<tspan class="cls-6" x="68.3066" y="0">L</tspan><tspan x="85.2808" y="0">OG IN</tspan></text><text class="cls-7" transform="translate(458.4907 54.5352)">RESET</text><text class="cls-7" transform="translate(570.1469 54.5352)">USER</text><polyline class="cls-8" points="62.014 40.237 62.014 23.82 89.898 23.82"/><polyline class="cls-8" points="286.32 21.639 314.01 21.639 314.01 42.555"/><rect class="cls-9" x="437.7464" y="72.5496" width="216.3345" height="101.3509" rx="19.5862"/><rect class="cls-10" x="466.101" y="96.0927" width="53.9021" height="54.2647" rx="26.951"/><rect class="cls-10" x="571.8242" y="96.0927" width="53.9021" height="54.2647" rx="26.951"/><rect class="cls-3" x="651.8176" y="-789.5387" width="92.078" height="821.1697"/><line class="cls-11" x1="392.9201" y1="177.8943" x2="403.0038" y2="177.8943"/><line class="cls-11" x1="388.9269" y1="173.6187" x2="407.0211" y2="173.6187"/><line class="cls-11" x1="384.5222" y1="169.3514" x2="411.4175" y2="169.3514"/><line class="cls-11" x1="389.2093" y1="124.6682" x2="373.2607" y2="124.6682"/><line class="cls-11" x1="389.2012" y1="97.7082" x2="373.2525" y2="97.7082"/><polyline class="cls-11" points="397.97 169.351 397.97 152.411 373.26 152.411"/><text class="cls-12" transform="translate(390.9477 103.4102) scale(1 1.0605)">S</text><text class="cls-13" transform="translate(392.2524 131.5781) scale(1 1.1297)">5V</text><rect class="cls-14" x="366.4722" y="94.077" width="6.3184" height="6.873"/><rect class="cls-14" x="366.8859" y="120.9635" width="6.3184" height="6.873"/><rect class="cls-14" x="366.7928" y="148.6773" width="6.3184" height="6.873"/><line class="cls-15" x1="718.295" y1="83.2408" x2="728.3788" y2="83.2408"/><line class="cls-15" x1="714.3019" y1="78.9734" x2="732.3879" y2="78.9734"/><line class="cls-15" x1="709.9053" y1="74.706" x2="736.8005" y2="74.706"/><line class="cls-15" x1="668.8915" y1="52.893" x2="668.8915" y2="68.6156"/><line class="cls-15" x1="696.1095" y1="53.0139" x2="696.1095" y2="89.0655"/><line class="cls-15" x1="723.3194" y1="52.893" x2="723.3194" y2="75.4404"/><text class="cls-16" transform="translate(662.311 87.1875) scale(1 1.0056)">S</text><text class="cls-16" transform="translate(683.811 109.0586) scale(1 1.0056)">6V</text><rect class="cls-14" x="665.5131" y="46.3934" width="6.3184" height="6.873"/><rect class="cls-14" x="692.9365" y="46.3934" width="6.3184" height="6.873"/><rect class="cls-14" x="720.0483" y="46.3934" width="6.3184" height="6.873"/><line class="cls-17" x1="140.8816" y1="346.1778" x2="205.4106" y2="346.1778"/><line class="cls-18" x1="138.3833" y1="329.5981" x2="202.9123" y2="329.5981"/><line class="cls-19" x1="138.3833" y1="313.0184" x2="202.9123" y2="313.0184"/><text class="cls-20" transform="translate(677.934 315.0977)">Absolute Encoder<tspan class="cls-21"><tspan x="0" y="51.9932">US Digital MA3</tspan></tspan></text><rect class="cls-22" x="52.5041" y="86.8999" width="37.6055" height="90.1001"/><polyline class="cls-23" points="80.834 158.794 80.636 313.762 126.475 315.1"/><polyline class="cls-24" points="71.307 128.128 70.65 346.381 125.803 347.977"/><polyline class="cls-25" points="60.961 109.194 60.494 328.597 116.23 329.598"/><line class="cls-26" x1="98.2265" y1="315.0978" x2="136.8509" y2="315.0978"/><line class="cls-26" x1="98.2265" y1="346.1778" x2="136.8509" y2="346.1778"/><line class="cls-26" x1="98.2265" y1="329.5981" x2="136.8509" y2="329.5981"/><rect class="cls-27" x="510.6095" y="291.2865" width="144.0403" height="78.7044" rx="18.9227" transform="translate(1165.2592 661.2774) rotate(180)"/><rect class="cls-28" x="492.5726" y="280.7749" width="26.5307" height="99.7275" rx="11.4802" transform="translate(1011.6759 661.2774) rotate(180)"/><rect class="cls-29" x="494.7908" y="270.4402" width="15.8187" height="120.397" rx="7.9093" transform="translate(1005.4003 661.2774) rotate(-180)"/><rect class="cls-30" x="429.3414" y="261.6056" width="76.4295" height="138.0662" rx="16.6882" transform="translate(935.1123 661.2774) rotate(180)"/><rect class="cls-31" x="410.4395" y="270.4402" width="18.9019" height="120.397" transform="translate(839.7809 661.2774) rotate(180)"/><rect class="cls-32" x="259.6351" y="241.471" width="150.8044" height="178.3354" rx="32.9466" transform="translate(670.0746 661.2774) rotate(-180)"/><rect class="cls-33" x="193.8893" y="304.1349" width="60.775" height="53.0075" rx="5.7129" transform="translate(448.5537 661.2774) rotate(180)"/><path class="cls-34" d="M259.2242,375.6335c.1407,0,.2721-.0336.4109-.0414V285.6853c-.1388-.0078-.27-.0414-.4109-.0414a7.3964,7.3964,0,0,0-7.3964,7.3964v75.1968A7.3964,7.3964,0,0,0,259.2242,375.6335Z"/></g></svg>