<svg id="Layer_1" data-name="Layer 1" xmlns="http://www.w3.org/2000/svg" xmlns:xlink="http://www.w3.org/1999/xlink" viewBox="0 0 959.0498 815.102"><defs><style>.cls-1,.cls-12,.cls-13,.cls-14,.cls-18,.cls-21,.cls-25,.cls-27,.cls-7,.cls-8{fill:none;}.cls-2{fill:#434343;}.cls-3{fill:#4f4e51;}.cls-4{fill:#323031;}.cls-5{fill:#6a5f27;}.cls-10,.cls-6,.cls-9{fill:#fff;}.cls-10,.cls-7,.cls-8{stroke:#fff;}.cls-7{stroke-miterlimit:10;stroke-width:4.6939px;}.cls-8{stroke-miterlimit:2;}.cls-10,.cls-8{stroke-width:1.1891px;}.cls-9{font-size:18.9416px;}.cls-16,.cls-9{font-family:Verdana;}.cls-10,.cls-12,.cls-13,.cls-14,.cls-18,.cls-21,.cls-25,.cls-27{stroke-linecap:round;stroke-linejoin:round;}.cls-11{fill:#221f1f;}.cls-12{stroke:#221f1f;}.cls-12,.cls-13,.cls-14,.cls-25{stroke-width:9.478px;}.cls-13{stroke:#e9262a;}.cls-14{stroke:#babcbe;}.cls-15{font-size:37.912px;font-family:Verdana-Bold, Verdana;font-weight:700;letter-spacing:0.001em;}.cls-15,.cls-16{fill:#010101;}.cls-16{font-size:32px;letter-spacing:0.001em;}.cls-17{clip-path:url(#clip-path);}.cls-18,.cls-21,.cls-25{stroke:#231f20;}.cls-18{stroke-width:1.089px;}.cls-19{clip-path:url(#clip-path-2);}.cls-20{clip-path:url(#clip-path-4);}.cls-21{stroke-width:1.084px;}.cls-22{clip-path:url(#clip-path-5);}.cls-23{clip-path:url(#clip-path-6);}.cls-24{clip-path:url(#clip-path-7);}.cls-26{fill:#bab6af;}.cls-27{stroke:#6d6e71;stroke-width:14px;}.cls-28{clip-path:url(#clip-path-8);}</style><clipPath id="clip-path"><rect class="cls-1" x="533.7097" y="121.2451" width="321.4283" height="268.9163"/></clipPath><clipPath id="clip-path-2"><rect class="cls-1" x="515.8447" y="121.2451" width="339.2933" height="268.9163"/></clipPath><clipPath id="clip-path-4"><rect class="cls-1" x="528.3875" y="463.1599" width="406.2476" height="268.9163"/></clipPath><clipPath id="clip-path-5"><polygon class="cls-1" points="516.845 464.16 516.845 733.076 934.632 732.076 934.632 463.16 516.845 464.16"/></clipPath><clipPath id="clip-path-6"><polygon class="cls-1" points="528.387 464.16 528.387 733.076 934.635 732.076 934.635 463.16 528.387 464.16"/></clipPath><clipPath id="clip-path-7"><rect class="cls-1" x="352.9176" y="527.6142" width="225.6618" height="124.8607" transform="translate(-124.296 1055.7931) rotate(-90)"/></clipPath><clipPath id="clip-path-8"><polygon class="cls-1" points="583.834 132.307 587.837 357.621 444.494 355.494 439.974 132.307 583.834 132.307"/></clipPath></defs><path class="cls-2" d="M-1087.8147-64.6665,124.17-66.28A72.4809,72.4809,0,0,1,196.554,6.2966V1203.9187a72.481,72.481,0,0,1-72.3844,72.5771l-1221.216,1.6139a72.4809,72.4809,0,0,1-72.3843-72.5771V17.1668c-4.1592-48.3418,21.4021-82.6586,67.5711-81.83"/><rect class="cls-3" x="-1148.2248" y="-45.3021" width="1323.2948" height="1296.3962" rx="51.0409" transform="translate(-973.1548 1205.7919) rotate(180)"/><rect class="cls-4" x="83.6718" y="82.1602" width="80.3039" height="716.1661"/><path class="cls-5" d="M119.5268,759.2051a4.7218,4.7218,0,1,1,4.7218,4.7214,4.72,4.72,0,0,1-4.7218-4.7214"/><path class="cls-5" d="M140.6586,759.2051a4.7219,4.7219,0,1,1,4.7185,4.7214,4.7168,4.7168,0,0,1-4.7185-4.7214"/><path class="cls-5" d="M97.5451,759.2051a4.72,4.72,0,1,1,4.7185,4.7214,4.7168,4.7168,0,0,1-4.7185-4.7214"/><path class="cls-5" d="M119.5268,687.7364a4.7218,4.7218,0,1,1,4.7218,4.7211,4.72,4.72,0,0,1-4.7218-4.7211"/><path class="cls-5" d="M140.6586,687.7364a4.7219,4.7219,0,1,1,4.7185,4.7211,4.7168,4.7168,0,0,1-4.7185-4.7211"/><path class="cls-5" d="M97.5451,687.7364a4.72,4.72,0,1,1,4.7185,4.7211,4.7168,4.7168,0,0,1-4.7185-4.7211"/><path class="cls-5" d="M119.5268,616.2677a4.7218,4.7218,0,1,1,4.7218,4.7207,4.72,4.72,0,0,1-4.7218-4.7207"/><path class="cls-5" d="M140.6586,616.2677a4.7219,4.7219,0,1,1,4.7185,4.7207,4.7169,4.7169,0,0,1-4.7185-4.7207"/><path class="cls-5" d="M97.5451,616.2677a4.72,4.72,0,1,1,4.7185,4.7207,4.7169,4.7169,0,0,1-4.7185-4.7207"/><path class="cls-5" d="M119.5268,544.799a4.7218,4.7218,0,1,1,4.7218,4.72,4.72,4.72,0,0,1-4.7218-4.72"/><path class="cls-5" d="M140.6586,544.799a4.7219,4.7219,0,1,1,4.7185,4.72,4.7169,4.7169,0,0,1-4.7185-4.72"/><path class="cls-5" d="M97.5451,544.799a4.72,4.72,0,1,1,4.7185,4.72,4.7169,4.7169,0,0,1-4.7185-4.72"/><path class="cls-5" d="M119.5268,473.33a4.7218,4.7218,0,1,1,4.7218,4.72,4.72,4.72,0,0,1-4.7218-4.72"/><path class="cls-5" d="M140.6586,473.33a4.7219,4.7219,0,1,1,4.7185,4.72,4.7169,4.7169,0,0,1-4.7185-4.72"/><path class="cls-5" d="M97.5451,473.33a4.72,4.72,0,1,1,4.7185,4.72,4.7169,4.7169,0,0,1-4.7185-4.72"/><path class="cls-5" d="M119.5268,401.8616a4.7218,4.7218,0,1,1,4.7218,4.7195,4.72,4.72,0,0,1-4.7218-4.7195"/><path class="cls-5" d="M140.6586,401.8616a4.7219,4.7219,0,1,1,4.7185,4.7195,4.7168,4.7168,0,0,1-4.7185-4.7195"/><path class="cls-5" d="M97.5451,401.8616a4.72,4.72,0,1,1,4.7185,4.7195,4.7168,4.7168,0,0,1-4.7185-4.7195"/><path class="cls-5" d="M119.5268,330.3929a4.7218,4.7218,0,1,1,4.7218,4.7191,4.72,4.72,0,0,1-4.7218-4.7191"/><path class="cls-5" d="M140.6586,330.3929a4.7219,4.7219,0,1,1,4.7185,4.7191,4.7168,4.7168,0,0,1-4.7185-4.7191"/><path class="cls-5" d="M97.5451,330.3929a4.72,4.72,0,1,1,4.7185,4.7191,4.7168,4.7168,0,0,1-4.7185-4.7191"/><path class="cls-5" d="M119.5268,258.9242a4.7218,4.7218,0,1,1,4.7218,4.7187,4.72,4.72,0,0,1-4.7218-4.7187"/><path class="cls-5" d="M140.6586,258.9242a4.7219,4.7219,0,1,1,4.7185,4.7187,4.7168,4.7168,0,0,1-4.7185-4.7187"/><path class="cls-5" d="M97.5451,258.9242a4.72,4.72,0,1,1,4.7185,4.7187,4.7168,4.7168,0,0,1-4.7185-4.7187"/><path class="cls-5" d="M119.5268,187.4555a4.7218,4.7218,0,1,1,4.7218,4.7184,4.72,4.72,0,0,1-4.7218-4.7184"/><path class="cls-5" d="M140.6586,187.4555a4.7219,4.7219,0,1,1,4.7185,4.7184,4.7168,4.7168,0,0,1-4.7185-4.7184"/><path class="cls-5" d="M97.5451,187.4555a4.72,4.72,0,1,1,4.7185,4.7184,4.7168,4.7168,0,0,1-4.7185-4.7184"/><path class="cls-5" d="M119.5268,115.9867a4.7218,4.7218,0,1,1,4.7218,4.7181,4.72,4.72,0,0,1-4.7218-4.7181"/><path class="cls-5" d="M140.6586,115.9867a4.7219,4.7219,0,1,1,4.7185,4.7181,4.7168,4.7168,0,0,1-4.7185-4.7181"/><path class="cls-5" d="M97.5451,115.9867a4.72,4.72,0,1,1,4.7185,4.7181,4.7168,4.7168,0,0,1-4.7185-4.7181"/><path class="cls-6" d="M23.4826,448.042a7.7877,7.7877,0,0,1,3.1958-3.03,10.1078,10.1078,0,0,1,4.765-1.0867h1.8434a10.0872,10.0872,0,0,1,4.7717,1.0867,7.7677,7.7677,0,0,1,3.1908,3.05,8.9456,8.9456,0,0,1,1.1274,4.5263v5.4743H22.3535v-5.6A8.67,8.67,0,0,1,23.4826,448.042Zm7.9337-2.4409a8.94,8.94,0,0,0-4.0083.8531,6.3,6.3,0,0,0-2.6677,2.4071,6.8136,6.8136,0,0,0-.9429,3.6021V456.37H40.9463v-3.7816a6.9692,6.9692,0,0,0-.9631-3.7,6.3741,6.3741,0,0,0-2.6948-2.4342,8.9459,8.9459,0,0,0-4.0016-.8531Z"/><path class="cls-6" d="M42.3767,439.2365H22.3535v-1.6927H42.3767Z"/><path class="cls-6" d="M38.2989,418.2705a7.65,7.65,0,0,1,3.2179,10.9113,7.456,7.456,0,0,1-3.2247,2.7523,11.37,11.37,0,0,1-4.8547.975H31.2928a11.427,11.427,0,0,1-4.8548-.9682,7.4509,7.4509,0,0,1-3.2246-2.7388,7.3661,7.3661,0,0,1-1.1341-4.0761,7.2059,7.2059,0,0,1,4.352-6.8487,11.5175,11.5175,0,0,1,4.8615-.9615h2.1446A11.5653,11.5653,0,0,1,38.2989,418.2705Zm-11.1313,1.4524A5.8457,5.8457,0,0,0,24.5,421.832a5.744,5.744,0,0,0-.9361,3.294,5.6433,5.6433,0,0,0,.9361,3.2466,5.9142,5.9142,0,0,0,2.6745,2.1092,10.442,10.442,0,0,0,4.0913.738h2.1717a10.4126,10.4126,0,0,0,4.1049-.7448,5.9815,5.9815,0,0,0,2.6829-2.1227,5.6452,5.6452,0,0,0,.9412-3.2534,5.7351,5.7351,0,0,0-.9344-3.3008,5.7991,5.7991,0,0,0-2.6745-2.0888,10.7976,10.7976,0,0,0-4.12-.7177H31.2657A10.4894,10.4894,0,0,0,27.1676,419.7229Z"/><polyline class="cls-7" points="51.649 763.928 32.222 763.928 32.222 476.935"/><polyline class="cls-7" points="32.22 398.444 32.22 127.217 51.647 127.217"/><line class="cls-8" x1="147.0977" y1="67.7802" x2="147.0977" y2="48.8898"/><line class="cls-8" x1="123.346" y1="67.9069" x2="122.7973" y2="35.9939"/><line class="cls-8" x1="99.6153" y1="67.7802" x2="99.6153" y2="54.1806"/><line class="cls-8" x1="151.4949" y1="41.4324" x2="142.7005" y2="41.4324"/><line class="cls-8" x1="154.9845" y1="45.1683" x2="139.2039" y2="45.1683"/><line class="cls-8" x1="158.8259" y1="48.8831" x2="135.3696" y2="48.8831"/><text class="cls-9" transform="translate(108.966 29.0646) scale(1 1.0056)">5V</text><text class="cls-9" transform="translate(92.6085 48.6778) scale(1 1.0056)">S</text><rect class="cls-10" x="96.7894" y="67.9144" width="5.5104" height="5.9942"/><rect class="cls-10" x="120.3164" y="67.4706" width="5.5104" height="5.9942"/><rect class="cls-10" x="144.1626" y="67.5486" width="5.5104" height="5.9942"/><rect class="cls-11" x="91.36" y="675.1778" width="78.8376" height="32.9048"/><polyline class="cls-12" points="152.969 702.638 323.518 700.638 324.925 544.222 382.736 545.275"/><polyline class="cls-13" points="126.008 691.631 309.941 689.631 311.348 530.535 382.736 531.589"/><polyline class="cls-14" points="109.441 681.074 296.377 679.074 297.935 516.853 411.736 517.91"/><rect class="cls-11" x="91.36" y="754.8642" width="78.8376" height="32.9048"/><polyline class="cls-12" points="152.969 782.325 367.518 780.325 368.925 639.908 384.102 640.552"/><polyline class="cls-13" points="126.008 771.317 353.941 769.317 355.348 626.222 384.102 626.934"/><polyline class="cls-14" points="109.441 760.761 340.377 758.761 341.781 612.542 410.31 613.596"/><text class="cls-15" transform="translate(639.5932 773.0371)">AMT102</text><text class="cls-16" transform="translate(228.4849 75.673)">AM10 Series Modular Incremental Encoder</text><text class="cls-15" transform="translate(599.3439 435.6991)">AMT103</text><g class="cls-17"><path class="cls-18" d="M546.7375,338.6874l-1.6838-3.37v-33.489m0-116.03V175.99m0,0,1.6838-3.37M766.9031,389.6161H592.5145l-3.37-.8908m177.7586.8908-.1982-.9912m83.429-95.022.1983,2.4766-.4944,1.6863a145.0976,145.0976,0,0,1-81.6474,91.253l-1.2873.4994m0-267.7269,1.6838.6926A144.7837,144.7837,0,0,1,849.9357,213.94l.3965,1.2873-.1983,2.5745m-260.9894-95.12,3.37-.8909H766.9031l-.1982.8909m-177.56,266.0431v-4.4615m0,4.4615.1-.1m-.1-261.5841v-4.3586m.1,0h-.1m254.45,170.9207h6.5392m-.0978.1.0978-.1m0-75.8009h-6.5392m6.5392,0-.0978-.0978M554.6643,338.6874h-7.9268m.1,0h-.1m0-166.0677h8.0247m-8.0247,0,.1.1m42.505,211.15v1.1894a27.5457,27.5457,0,0,1-.0979,3.4679v.0978m177.46,0h-177.46m-.1-4.3611-.8908-1.1869m.8908,1.1869.1983-.3965m-3.3675-4.5569,1.1894,1.5859,1.1894,1.488.9887,1.483m-33.8855-44.1912-.793-.9887.3965-.1982m31.7074-33.69h-4.2607m21.5,0H586.6679m-4.16.1v-.1m-30.5181-.0979h4.9533l.1.0979h25.4644m-30.7163.1h4.2608m-9.2142,33.7876-.1-.1h.1c2.3186-.1028,4.4038-.1229,6.7375-.0978h1.4855m0,0,.3965.3965.296.4943.2987.3964m47.9551-34.977V293.3043m0,11.4951.1983.1982m-.1983-11.6933H586.6679m17.3392,0,.1983-.1983M586.8661,194.32h-.1982m17.3392,0h-.5922m-46.4722-11.3947.1-.0978m0,0h29.7251m17.2389,0H586.6679m-29.7252.0978h-4.9533M604.0071,194.32V182.8275l.1983-.1983m-.1983,11.6908.1983.1983m-52.4142,9.2166v8.8177m0,14.96v8.8176m0,14.9629v8.8177m0,14.9629v8.8177m0,15.8537V304.9m.1982-121.9745V304.7015l-.1982.1983m.1982-121.9745-.1982-.1982m4.2608-.0979h-2.8732l-1.3876.0979v5.1516m3.3674-15.0608h-1.4855c-2.2759-.0451-4.5694.1029-6.8353-.0978h0m164.0829,11.3947,3.8643.0978,3.8643.2986,3.764.4944A71.5756,71.5756,0,0,1,782.36,250.8972l.1982,3.8643-.0979,3.7664a71.5808,71.5808,0,0,1-61.9294,68.17l-3.8643.394-3.8618.1982h-3.7665l-3.8643-.1982a71.7071,71.7071,0,0,1-65.5955-64.7l-.1957-3.8644-.1-3.7664a71.7132,71.7132,0,0,1,60.1428-69.7559l3.8643-.4944,3.7665-.2986,3.8643-.0978M582.5075,304.9976V304.9m-26.4555,0h26.4555m-26.4555,0v34.8766m0,0,29.9233,39.534m0,0H764.8229M556.052,171.6285v11.0007m48.1534,11.8891V182.6292H556.052m48.1534,11.8891v.0979m0,110.3814V293.106h-2.9711m2.9711,11.8916H582.5075M554.7622,172.62l.6951-.8908m-.6951.8908.3964.1982m30.8167-40.7233L556.052,171.6285l-.8934,1.1894m33.0951-44.4873.8908-1.29.1983.4969m-.0979-4.8555v.1982a27.5313,27.5313,0,0,1,.0979,3.4679v1.1894m0,0-.9887,1.3851-2.3788,3.1718m178.8476,0H585.9753m3.27-9.4124h177.46M843.1,229.0989l-.2986-1.6837a134.6568,134.6568,0,0,0-77.3842-95.1225l-.4969-.296M843.1,217.506l1.5833.0978c1.3676.0853,3.769-.1455,5.0563.1h.2961m-85.2132-85.61v-.0979c.5721-3.0589,1.29-6.065,1.882-9.1163v-.1982l1.6837.6951A144.0234,144.0234,0,0,1,849.64,216.02l.4943,1.5834m-.0978,76.1h-.1983a42.2747,42.2747,0,0,1-4.2607.0953H843.1M764.8229,379.31l1.5859-.6926A134.98,134.98,0,0,0,843.1,282.7025l.0979-.3964M764.8229,379.31v.1c.56,3.0814,1.3224,6.04,1.882,9.1163v.0978m83.3312-94.9216-.3965,1.6837A144.5406,144.5406,0,0,1,768.19,388.03l-1.3877.5947m76.792-170.8229v.6951m0-.6951-.4943-.296m.4943,75.4043v.6926l-.4943.1957V217.506M628.5832,289.1438l-1.29,1.1894-1.5859-1.1894-1.7841-.9911-1.4855-.3965-1.4855-.1982-2.08.2986-1.9824.7929-1.6837,1.3877-.9912,1.3851-.5947,1.488-.1982,1.6838.3965,2.18,1.089,1.98,1.5859,1.5858,1.4855.793,1.6837.4943,1.7841.2008,1.6837-.2008,1.6863-.4943,1.3877-.9912.8907-.9912.6926-1.1869.2986-1.29h-5.548V294.89h7.1339l-.1982,1.8845c-.6851,3.7915-2.6122,5.5858-6.2432,6.6371l-1.9823.1-2.2785-.1983-2.1805-.695-1.483-.9912-1.29-1.2873-.9912-1.3876-.6951-1.5859-.2961-1.2873-.0978-1.3875.1957-1.98a8.54,8.54,0,0,1,6.8378-6.64l1.9824-.1982,2.3763.1982,2.281.7929,1.5833,1.089,1.39,1.1894m-16.1524-29.0325h1.9824l4.853,7.7286,4.9558-7.7286m1.8845,0L620.26,269.328m0,0,6.1428,9.51H624.42l-5.154-8.0248-5.1517,8.0248h-1.8819l6.0449-9.51-5.8467-9.2167m11.7912,0h1.8845m-5.3524-23.7806,8.72,18.7269H627.59l-2.7728-5.9445H616.393l-2.8706,5.9445h-1.8845l8.918-18.7269h.1982m-3.4678,10.8h6.6371l-3.27-7.1314-3.3675,7.1314m9.9067-34.5781h1.7841m14.27,0L635.3181,231.28m0,0h-.1957l-7.9294-18.7269m1.7841,0,6.2432,14.7622,6.2431-14.7622h1.7841m-28.5383,9.4124,1.882-9.4124m0,0h7.7312m0,0v1.98h-6.3435l-1.0891,4.8554,1.2873-.2961h.9912l1.6837.1983,1.6863.79,1.2872,1.1894.8908,1.8845.2986,1.9823-.1982,1.98-.7929,1.7842-1.2873,1.4855-1.29.7929-1.3876.4969-1.5834.0978-1.5859-.1982-1.3876-.5947-1.2873-1.089-.9911-1.5859-.3965-1.7842h1.6837l.2986.9913.5922.8907.7955.7955,1.1869.4943,1.1894.1983,1.3876-.1983,1.2873-.5947.9912-.9911.8907-1.3852.1983-1.5859-.1983-1.29-.4943-1.187-.8908-.8932-1.3876-.5947-1.4855-.1983-2.3788.3965-1.7842.5947m1.6838-25.2661h2.2809a3.8289,3.8289,0,0,0,3.8644-2.3789l.0978-.8907-.0978-.5947-.1983-.6951-.3964-.4943-.5948-.3965-1.29-.3965-1.3852-.0979H616.393v5.9446m-1.6838-7.9269h3.6661l1.5859.0978,1.5859.3966,1.3851.7928.793.9913.3964,1.1868.2008,1.192-.2008,1.2872-.4918,1.2873-.5972.7929-.8908.5947,1.6837.793,1.1894,1.29.5948,1.2847.1982,1.4881-.2986,1.5858-.793,1.4855-1.1894,1.1894-1.7816.7929-1.9823.1983h-5.0538V188.772m1.6838,16.8449h2.3788l1.1894-.1c1.882-.0226,3.3022-.6348,3.9622-2.4767l.1982-.7928-.2961-1.3877-.8933-1.089-.8908-.5947-.9911-.2987-1.98-.1982H616.393v6.9382m-5.2494-7.2343V288.65m-9.1163-.4968.4943.1a42.78,42.78,0,0,0,7.0361.3964h1.5859l-.0979.0979-3.2721,2.1806-1.6838.8908-1.8844.7929-1.4856.2961-1.4855.1982m0,0h-.3964m0-99.1824,1.6837.0979,1.6838.4968m0,0,1.7841.6951,1.6862.8908,3.37,2.178.0979.1h-1.5859a42.5074,42.5074,0,0,0-7.0361.3965l-.4943.0978m-55.29,101.2652-1.6838,1.6863h-6.1428m7.8266-1.7867v-.0978h.1a35.7106,35.7106,0,0,1,3.764-.1983h1.1894m0-.1v.1m-12.88-113.9471h6.1428m6.7375,2.1806v-.1m-5.0537-.2961.1.0978c1.2471.07,2.5043.2384,3.764.1983h1.1894m-5.0537-.3964-1.6838-1.6838M586.8661,293.106h13.9718m0,0h-1.0891l-.8908-.0978-.7954-.1-.4943-.0978m0-98.59.4943-.0979.7954-.1.8908-.0979h1.0891m-13.9718,0h13.9718m-66.5842-3.4678v106.615m8.8177,1.9823-4.1605,2.7753-.8933-.1a4.6947,4.6947,0,0,1-3.666-3.6686l-.0979-.9886,4.16-2.7728m0-101.067-4.16-2.7752.0979-.8909a4.7013,4.7013,0,0,1,3.666-3.6686l.8933-.0978,4.1605,2.7753m58.9559,99.5789V198.8769m-4.459,93.9331L594,292.1174m3.5683.6926.7929-.0979a4.5112,4.5112,0,0,0,3.5657-3.6686l.1-.8908m-3.4679-.6951,3.4679.6951m0-89.2758-3.4679.6951m3.4679-.6951-.1-.8907a4.5115,4.5115,0,0,0-3.5657-3.6662l-.7929-.1m-3.5683.695,3.5683-.695m-53.8044,80.8545v8.8177m0-32.5983v8.8177m0-32.5982v8.8176m0-32.5958v8.8177m-5.35,81.7454.1.9887a4.6393,4.6393,0,0,0,3.6661,3.666l.8908.1m0-4.7551v4.7551m8.3233,0h-8.3233M594,292.1174l.8933-.1c1.8745-.1806,3.1592-1.9523,3.5657-3.6661l.1-.8933M594,292.1174h-6.7374m6.7374,0v-4.66m-50.9286,6.84h8.3233m0-9.2167v9.2167m0,0v4.7551m0-13.9718.3965-1.1894v15.7534l-.3965-.5922m-7.6308-15.1612h8.0273m-8.0273,0-1.1869,1.1894m.4944,0h8.3233m.3965-10.0071h-8.0273l-1.1869-1.1894m1.1869-13.7735h8.0273m-8.0273,0-1.1869,1.1894m8.8177,12.5841h-8.3233m0-12.5841h8.3233m0,0,.3965-1.1894v14.9629l-.3965-1.1894m0-12.5841v12.5841m.3965-22.5912h-8.0273l-1.1869-1.1894m1.1869-13.7735h8.0273m-8.0273,0-1.1869,1.1919m8.8177,0,.3965-1.1919m0,0v14.9629l-.3965-1.1894m-8.3233-12.5816h8.3233v12.5816m0,0h-8.3233m8.72-22.5911h-8.0273l-1.1869-1.1894m8.8177,0h-8.3233m.6925-13.7711h8.0273m-8.0273,0L542.577,213.74m.4944,0h8.3233m0,0,.3965-1.1869m-.3965,1.1869v12.5842m.3965-13.7711v14.96l-.3965-1.1894m.3965-22.5888h-8.0273l-1.1869-1.1919M594,287.4576h4.5594m0-87.8856v87.8856m-11.2968,0H594V199.572m0,0h-6.7374m0-4.6573H594m4.5594,4.6573H594v-4.6573m4.5594,4.6573-.1-.8933c-.6-2.05-1.4378-3.119-3.5657-3.6636l-.8933-.1m-42.6053,7.6283h-8.3233m0-9.312v9.312h-.4944m-4.1629,91.755V193.231m0,101.067h4.6573m-.4944-91.755V213.74h.4944v12.5842h-.4944v11.1989h.4944v12.5816h-.4944v11.1965h.4944v12.5841h-.4944v11.1965h.4944v9.2167m0-105.7242h8.3233m0,4.6572h-8.3233m0-4.6572v4.6572h-4.6573m4.6573-4.6572-.8908.0979a4.6785,4.6785,0,0,0-3.6661,3.666l-.1.8933m13.3771-5.2519v15.7558l-.3965-1.1919m.3965-14.5639-.3965.5947m0,0v4.6572m0,0v9.312m35.8679,84.9146V199.572m0,0v-4.6573m-.5947-.5947.1982.1983v-.5947l.3965.9911m-.5947-.5947V182.8275m.1,0h-.1m-.0979,0V304.7994m.1982,0h-.1m0,0V293.3043m0,0,.1982-.1983m0,0v.1m0-.1.3965-.9886m0,0v-4.66m-40.5251,12.5841V338.587m0-165.8669v14.8625"/><path class="cls-18" d="M762.9389,232.6664l-.1982-.6951a58.7643,58.7643,0,0,0-12.4838-17.5375l-.1982-.1982m12.88,18.4308.2986.8907m0,0-.3965.793m0,0,.2961.5947a55.2857,55.2857,0,0,1,3.8644,17.44v.1958m.695.4968-.695-.4968m.695.4968.1.9912m-3.8643,22.0944.2961-.6926a56.6825,56.6825,0,0,0,3.5682-21.2036v-.1982m-3.8643,22.0944-.3965.8932m0,0-.7954.2962m0,0-.1983.5947a57.461,57.461,0,0,1-9.6105,15.0632h-.0979m.0979.9887-.0979-.8932m.0979.8932-.6926.6926m-18.23,12.9831.6925-.2986a57.6436,57.6436,0,0,0,17.5375-12.5841l.0978-.1m-18.3278,12.9831-.9938.2936m0,0-.6925-.2936m0,0-.5947.1982a54.6142,54.6142,0,0,1-17.44,3.8644H714.09m-.4943.69.3965-.69m-.3965.69-1.089.1m-22.0969-3.764.6926.1983a56.9585,56.9585,0,0,0,21.2035,3.5657h.2986m-22.1947-3.764-.8908-.4943m0,0-.1982-.6951m0,0-.5947-.2986a56.0463,56.0463,0,0,1-15.0608-9.6106l-.1983-.1m-.7929.1.7929-.1m-.7929.1-.7929-.5922M658.901,278.74l.2986.5947a57.6043,57.6043,0,0,0,12.5816,17.54l.1982.0979M658.901,278.74l-.2961-.9912m0,0,.3964-.6926m0,0-.1982-.695a54.0947,54.0947,0,0,1-3.8643-17.4371v-.1983m-.6951-.3964.5947.4943m-.5947-.4943-.1957-.9911m3.8618-22.0969-.1982.5947a58.0668,58.0668,0,0,0-3.5657,21.2035v.1983m3.7639-21.9965.399-.8908m0,0,.79-.2987m0,0,.2986-.6925a56.6249,56.6249,0,0,1,9.6106-15.0608l.0979-.1983m-.0979-.6925.0979.7929m-.0979-.7929.5947-.7929m105.2274,24.5735-.0979-.7929-.3964-1.5859a65.5752,65.5752,0,0,0-77.0907-47.2651l-.79.1982-.6951.1a65.6187,65.6187,0,0,0-49.0467,76.6916l.3965,1.5859.1.6926.1982.7929a65.6107,65.6107,0,0,0,76.4934,48.2538l1.5859-.3965a65.4362,65.4362,0,0,0,49.8371-75.9966l-.0979-.7929-.3964-1.5859M766.605,243.07l.1982.5947.1.6926.1982.695a57.1558,57.1558,0,0,1-42.9039,66.09l-.6926.0978-.5947.1983a57.0794,57.0794,0,0,1-67.2767-41.9128l-.2008-.6926-.0978-.6951-.1983-.5947-.1-.6925A57.0033,57.0033,0,0,1,697.05,200.2638l.6926-.1982.695-.0979c29.61-7.001,60.1429,11.5678,67.6733,41.022l.3964,1.3851.0979.6951m7.829-1.7841-.0978-.793-.1983-.7929-.1982-.7905a65.14,65.14,0,0,0-76.5938-46.9689l-.7929.2007-.6926.0978A65.1871,65.1871,0,0,0,647.11,268.4363l.1982.79.2008.793.0978.6951.1983.79a65.1744,65.1744,0,0,0,75.9965,47.9577l1.5859-.394a65.0083,65.0083,0,0,0,49.541-75.5047l-.0978-.793-.3965-1.5833M571.1132,131.203l.1983.1m-18.1347,23.8785-.0979-.0979m0,201.2406.0979-.1m18.1347,23.881-.1983.0978m279.22-164.7779.1.5947m-279.32-84.8167,1.0891-1.1894c2.1655-2.4818,4.4163-4.6523,6.64-7.0336l1.1869-1.0916h12.288m-53.1092,63.9093h5.35V169.7483l1.089-2.0828c2.2282-4.0224,4.4415-8.0222,6.9382-11.889l.4943-.793M544.5574,341.56V301.8275h-5.35m13.8713,54.497L551.89,354.34c-2.3261-3.8944-4.76-7.9595-6.8353-11.9869l-.3965-.8908m47.6591,48.0555h-12.288l-1.5834-1.6837-1.5859-1.5859-4.7551-5.0537-.8933-1.089M850.433,295.3862l-.1.5947M558.3309,194.7182l-.6951,1.7816-.5947,1.6838m0,0V304.7985m-10.1049,40.8238.6925,1.2873c1.5608,2.6774,3.1567,5.37,4.7577,8.0272l.79,1.2873m0,0,2.4792-.793m0,0,1.2873,1.8845a215.2456,215.2456,0,0,0,15.0608,19.8159l.6925.793m0,0-1.3851,2.1806m0,0,4.7551,5.0512,1.5859,1.5858,1.5858,1.6838.8909.8933m0-267.33-1.1895,1.1894c-2.2307,2.296-4.5267,4.5193-6.637,6.9357l-.9912,1.1894m0,0,1.3851,2.1806m0,0-1.4855,1.6837a177.31,177.31,0,0,0-14.8626,19.9163l-.5947.8908m-.0978,0-2.4792-.7929m0,0-.79,1.2872c-1.5934,2.64-3.1643,5.29-4.7577,7.9269l-.6925,1.3876M549.6111,344.93l-2.6749.6926m0-6.9357v6.9357m2.6749-179.1462-2.6749-.6926m0,0v6.8353M850.5309,295.3862l.4944-1.7841a146.0613,146.0613,0,0,0,3.37-15.6555l.1983-1.1869m-.0979,0-2.3788-.8934m0,0,.2961-1.7841a142.7976,142.7976,0,0,0-.1958-38.3445l-.1-.2986m0,0,2.3788-.7905m0,0-.1982-1.7841a157.1605,157.1605,0,0,0-3.37-15.6554l-.3965-1.1894M581.2182,386.6442l-1.089,2.675m0,0h10.6017m-9.5127-264.5551-1.089-2.7753m10.6017,0H580.1292M563.3846,349.7852l.5947-.399M850.2348,294.99l.2961.3965m-2.08-2.7753.6926.9912m1.0915,1.7841h.1982m0,0h.0979m-.2961-79.07.2961-.296m-2.08,2.7727.6926-.9886m1.3876-1.7841h-.0979m0,0h-.1982m-7.1364,3.1692v.1m0,72.9278v.0978M563.3846,161.6231l.5947.394m16.7446,209.5664-.4969.3964m.4969-232.1551-.4969-.3964m4.7576,237.801-4.2607-5.6459m-16.7446-22.1973-3.9647-5.1516m0-177.0634,3.9647-5.1541m16.7446-22.1923,4.2607-5.6483m258.1138,85.0124,1.3876-.0978h1.29l.9887-.1.8933-.0979h.4968l.2961-.1.79,3.1743a141.8982,141.8982,0,0,1,.2987,66.2855l-1.0891,4.3587-.1982-.0979a40.8,40.8,0,0,0-4.5569-.2986h-.5972m0-73.0255v16.5488m0,39.9305h4.0625l.1983-9.312.1-9.3171-.1-10.7-.1983-10.7022h-3.0688l-.9937.1m0,39.9305v16.5462M549.9072,340.1721l-1.483-1.4855m42.0106-216.4017.2961-.2961m-3.0714,3.1717,1.4856-1.5858m-1.5859,7.2318v.1m3.1717-8.6219v-.2961m-40.8237,49.1446-1.3851,1.4854m11.5929-13.5727,1.7816,1.3876,1.488,1.1894m-3.27-2.577,5.2494-7.1339,5.3524-7.0361,6.2406-8.0248m4.2608-12.0872.1982.0979h.2986l2.3763.1982h1.3876l2.1806.1-.1,2.1781v3.4679l-2.5746,3.37-.5947.6925c-1.1894,1.2447-2.4214,2.5821-3.5682,3.8643l-.5947.6951-.0978-.1-1.1895-.8907-1.2872-.9913-.6951-.5947m-13.5728,24.7718-.3965.6926c-.8481,1.3952-1.7289,2.7677-2.577,4.16l-.3965.6951-2.8731,3.8643h-4.7551l-1.29.0979h-1.1894v-1.4855l-.0979-1.29v-1.2848l-.1-.4968-.0979-.1,1.1894-1.98a177.9292,177.9292,0,0,1,30.1216-39.436l.2961-.3965m6.341,255.8353v.1m2.8756,8.4212.2961.2986m-3.0714-3.0714,1.4856,1.4855m1.5858,1.5859v-.1983m-41.12-44.1912.0979-.1.1-.5947v-1.1894l.0979-1.3851v-1.488l1.488.1h1.6837l1.7841.0979h2.2785l2.8731,3.8642.3965.6951c.8481,1.3927,1.7289,2.7678,2.577,4.16l.3965.6951-.7929.6926-1.5859,1.1869,10.8,14.17,6.2431,7.8289,1.5859-1.1894.5922-.4943m0,0,.5947.6926c1.1468,1.2823,2.3788,2.62,3.5682,3.8643l.5947.6926,2.5746,3.27v2.8732l.1,2.8756h-2.1806l-1.8819.0979-.8908.1h-.6951l-.4943.0978-.2986.1-1.5834-1.6862a187.1452,187.1452,0,0,1-29.7276-39.6343l-.1982-.4944m13.5778-160.1206.8908-1.882M688.33,321.1491l-.7929-.2986a74.1074,74.1074,0,0,1-10.0071-4.5594l-.5947-.394m29.13,8.9156-.7929-.0979-3.7665-.3964-3.7639-.5947-3.6661-.79-.3965-.1983m30.42.9887-.7929.1a69.13,69.13,0,0,1-11.0008,1.0891h-.6925m-152.39-114.5419v-4.459m0,28.24v-4.459m0,28.24v-4.4591m0,28.24v-4.459m0,27.5445v-3.7639m22.2926-18.4307-2.7753-2.7754m0,0H561.204l-2.8731,2.7754m0,0v17.54m0,0,2.8731,2.7727m0,0h17.5375m0,0,2.7753-2.7727m0,0v-17.54m-8.5216,11.7911h-6.1427m1.8819-1.882h2.3788m-4.2607,1.882V288.35m0,6.0449,1.8819-1.882m0-2.2784v2.2784m2.3788-2.2784h-2.3788l-1.8819-1.8845h6.1427m-1.882,4.1629v-2.2784l1.882-1.8845v6.0449l-1.882-1.882m1.882-21.8961h-6.1427m1.8819-1.8845h2.3788m-4.2607,1.8845v-6.0448m0,6.0448,1.8819-1.8845m0-2.2784v2.2784m2.3788-2.2784h-2.3788l-1.8819-1.8819h6.1427m-1.882,4.16V266.454l1.882-1.8819v6.0448l-1.882-1.8845m1.882-21.8986h-6.1427m0,0v-6.0424m0,6.0424,1.8819-1.8819m2.3788-2.2785h-2.3788l-1.8819-1.882h6.1427m-4.2608,1.882v2.2785m0,0h2.3788m0,0v-2.2785l1.882-1.882v6.0424l-1.882-1.8819m1.882-21.8987h-6.1427m1.8819-1.882h2.3788m-4.2607,1.882v-6.0449m0,6.0449,1.8819-1.882m0-2.2784v2.2784m4.2608-4.1629v6.0449l-1.882-1.882m0,0v-2.2784m0,0,1.882-1.8845m-1.882,1.8845h-2.3788l-1.8819-1.8845h6.1427m0-17.7332h-6.1427m1.8819-1.8845h2.3788m-4.2607,1.8845V193.23m0,6.0449,1.8819-1.8845m0-2.2784v2.2784m4.2608-4.16v6.0449l-1.882-1.8845m0,0v-2.2784m0,0,1.882-1.882m-1.882,1.882h-2.3788l-1.8819-1.882h6.1427m-11.7912,62.82-2.8731,2.7727m0,0v17.5375m0,0,2.8731,2.7753m0,0h17.5375m0,0,2.7753-2.7753m0,0V258.8232m0,0-2.7753-2.7727m0,0H561.204m0-23.7807-2.8731,2.7754m0,0V252.58m0,0,2.8731,2.7753m0,0h17.5375m0,0,2.7753-2.7753m0,0V235.0452m0,0-2.7753-2.7754m0,0H561.204m0-23.7805-2.8731,2.7752m0,0V228.802m0,0,2.8731,2.7727m0,0h17.5375m0,0,2.7753-2.7727m0,0V211.2645m0,0-2.7753-2.7752m0,0H561.204m17.5375-23.7806H561.204l-2.8731,2.7727m0,0v17.54m0,0,2.8731,2.7753m0,0h17.5375m0,0,2.7753-2.7753m0,0v-17.54m0,0-2.7753-2.7727m-21.7982,119.992V182.9246"/></g><g class="cls-19"><path class="cls-18" d="M719.6407,208.7873l-2.2784-.2986m0,0v-.0978m-7.3347-.399h.8933a43.5968,43.5968,0,0,1,5.5481.2986l.8933.1m11.194,3.0713.695,2.2785m-8.6194-4.7551.5947.0978a39.7185,39.7185,0,0,1,6.7375,1.9824l.5922.1982v.0978m2.7753,94.8238-.0979-.0978m0,0-2.1806-1.0916M713.3,310.0525h.0979m17.934-3.8669-.5947.1983a55.29,55.29,0,0,1-16.9428,3.6686h-.2961m-4.9534-100.0782,1.483-1.882m-1.483-6.7375,1.483,6.7375m4.7576,99.9778L713.3,310.0525m0,0-1.488-6.74m-21.2035-98.0934v.1m16.4484-1.9824,1.488-1.9823m0,0h-.1m-16.3481,10.6017-1.488-6.7374.695-.2961a56.4745,56.4745,0,0,1,16.8424-3.666h.2987m-17.8361,3.9621,2.1806,1.1894m9.4123,96.2115-.9911-.1983m.9911.1983,2.281.2961m7.33.4968h-.8908a51.3723,51.3723,0,0,1-5.548-.3989l-.8908-.0979v.0979m8.8176-1.586-1.488,1.8845m-10.6017-.8908-.9887-.2986a42.4053,42.4053,0,0,1-5.947-1.7816l-.9912-.2986m0-.0979-3.6636,5.7438m3.6636-5.7438-.6926-2.3788m-.4943-85.61,2.1781,1.0917m-17.7357,9.6105.4943-.4968a48.1591,48.1591,0,0,1,14.7647-10.2054l.3965-.0977M676.935,225.035l-.2986-2.3763m-5.8441-3.666,5.8441,3.666M674.26,295.7821l3.6661-5.7462M689.62,305.7917v-.1029m0,0-.6951-2.2759m-12.288-7.9268-2.3763.296m15.3594,10.01-.5972-.3011a54.9551,54.9551,0,0,1-14.4661-9.41l-.2961-.2987-.1.1m-7.53-57.7665-5.7462-3.6661m10.3056-12.9806-.3964-2.4766m0,0v.0978M660.7852,234.35l.2961-.6925a54.867,54.867,0,0,1,9.4149-14.4661l.2961-.2986m-10.0071,15.46.0979.0978m0,0,2.3788-.7929M680.3025,289.74l-2.3763.2961m-.1,0-.3964-.4944a47.4747,47.4747,0,0,1-10.2054-14.8626l-.0978-.1m0,0-6.64,1.4855m6.64-1.4855,1.1894-2.1781m-4.2608-25.4668.1982-.9912m-.1982.9912-.3965,2.2809m-.3964,7.43v-.9913a45.0514,45.0514,0,0,1,.2961-5.548l.1-.8908v.0979m2.971-11.1965,2.3789-.793m-4.7552,8.6195.1983-.5947a39.2,39.2,0,0,1,1.9823-6.7375l.1957-.5947h.1m-1.488,20.0166-1.98-1.3875m-6.64,1.4854,6.64-1.4854m-2.7753,19.4194v.1m0-.1,1.1894-2.1781m-3.0714-14.2678-1.9823-1.4881m0,0h-.0979m3.9622,17.934-.1982-.6926a55.1519,55.1519,0,0,1-3.6661-16.8449v-.4944m75.4043-35.87-.7929-.5922-.3965-.1982a39.64,39.64,0,0,0-53.1092,12.6819l-.1983.4944-.2961.3964A39.583,39.583,0,0,0,689.0223,288.55l.3965.2961.4968.1982.79.5947a39.64,39.64,0,0,0,53.21-12.09l.2986-.394.1982-.4968c11.49-17.4848,6.3134-42.1386-11.0986-53.7039l-.7929-.5947-.4944-.1983m-39.2378-15.7534,1.4855,6.64m0,0-.4944.1981a44.7962,44.7962,0,0,0-16.4484,11.3923l-.2986.3964m-.0979,0-5.7463-3.5657m0,0-.3964.3965a56.1919,56.1919,0,0,0-7.2343,11.3947l-.1982.3965m-.0979,0,5.7463,3.666m0,0-.1983.4944a46.2955,46.2955,0,0,0-3.5682,19.72v.4943m0,0-6.6371,1.586m0,0,.0979.5921a55.2637,55.2637,0,0,0,2.8731,13.1789l.1983.3964m-.0979.1,6.64-1.4855m0,0,.2961.4943a45.5877,45.5877,0,0,0,11.3947,16.4485l.399.2961m-.1029.1-3.6661,5.7463m0,0,.4969.3964a56.7525,56.7525,0,0,0,11.3947,7.2318l.4943.1982m-.0979.1,3.6661-5.8467m0,0,.5947.1983a46.3294,46.3294,0,0,0,19.7181,3.5682H713.3m0,.0953,1.4855,6.6421m0,0,.6926-.1a53.3,53.3,0,0,0,13.1788-2.8732l.3965-.1982m0,.0978-1.4855-6.637m0,0,.5947-.2986a46.2441,46.2441,0,0,0,16.5463-11.3922l.2986-.2986m-.1,0,5.8467,3.5657m0,0,.4943-.4943a56.77,56.77,0,0,0,7.2343-11.3948l.1982-.3964m-.1,0-5.7463-3.5658m0,0,.2986-.5971a45.5584,45.5584,0,0,0,3.5657-19.7156v-.5947m-.0978.1,6.7374-1.488m0,0v-.6926a53.4244,53.4244,0,0,0-2.8756-13.1789l-.1983-.4968m-.0978.1-6.64,1.4855m0,0-.1983-.5922a44.8236,44.8236,0,0,0-11.3922-16.4484l-.3989-.2986m0,0,3.6661-5.7463m0,0-.394-.4943a55.5192,55.5192,0,0,0-11.3947-7.2344l-.4969-.1982m0,0-3.6661,5.7463m0,0-.4968-.2961a46.2351,46.2351,0,0,0-19.7155-3.5682h-.4944m0,.0979-1.488-6.6372m0,0h-.5947a54.0432,54.0432,0,0,0-13.1788,2.8732l-.3965.1982m-.5947,118.4037.1-.0954v-.1028l.0979-.0954V324.32l.1982-.1983v-.1l.1-.1v-.0979h.0978v-.1l.1-.0979v-.0979l.1982-.1982v-.1l.2961-.2961v-.1h.1v-.0978l.0979-.1h.1v-.0978l.0979-.1h.1v-.1l.0978-.0979h.1v-.1l.0979-.0979h.1v-.0978h.0979l.2961-.2987h.1l.1982-.1982h.0978l.1-.0978h.1v-.1h.0979l.1-.0979h.0978l.1982-.1982h.1983l.1-.0979h.0978l.0979-.1h.1l.0979-.0979h.1982l.1-.1029h.1982l.0979-.0954h.2986l.0979-.1h.3964v-.0979h.1983c.9359.0527.399-.13.9911-.1h.1983c.7578-.04.1.15,1.0915.1h.1957v.0979h.3965l.1.1h.2961l.1.0954h.1982l.0979.1029h.1982l.1.0979h.0978v.1h.1983l.1.0979h.1983l.1982.1982h.0979l.0978.0979h.1v.1h.0979l.1.0978h.0979l.1982.1982h.1l.2961.2987h.1v.0978h.1l.0979.0979v.1h.1l.0978.0979v.1h.0979l.1.1v.0978h.0979l.1.1v.0978h.0979v.1l.2986.2961v.1l.1957.1982v.0979l.1.0979v.1h.0978v.0979l.1.1v.1l.1983.1983v.1982l.1.0954v.1028l.0979.0954v.1029l.1.0978v.1982l.0979.0979v.1983l.1.1v.296l.0979.1v.394h.1v.695m4.0626.1983.0978-.0979v-.3964l.1-.1V326.3h.0979v-.2961l.0978-.1v-.1982l.1-.0978v-.1l.0978-.0979v-.1l.1-.0979v-.1982h.0979v-.0978l.1-.1029v-.1982l.1982-.1958V324.32l.0978-.1v-.0979h.1v-.1l.2961-.2985v-.0979h.1v-.0979c.1656-.1656.3287-.3312.4943-.4968v-.0979h.1l.2961-.2986h.1v-.0978l.0978-.1h.0979l.1982-.1983h.1l.1982-.1982h.0979l.2008-.1982h.0978l.1-.0979h.0978v-.1h.1l.0979-.0978h.1982l.1-.1h.0978l.0979-.0978h.1l.0979-.1h.2985v-.0979h.1983l.0979-.0979h.3964l.1-.1h.3964l.0979-.0979h2.0827l.0979.0979h.3965l.0978.1h.3965v.0979h.2986l.0979.0979h.1982l.1.1h.0978l.1.0978h.0979l.1.1h.1982v.0978h.0979l.1.1h.1957l.1983.1983h.1l.0978.0978h.1v.0979h.0978l.2987.2986h.0978v.1h.1c.1656.1655.3287.3286.4943.4943h.1v.1l.2961.296v.1h.1l.0978.0979v.0979l.1982.1982v.1l.1983.1983v.1l.1982.1982v.0954l.1.1028v.0954h.0978v.1029l.1.0978v.1982l.0979.0979v.1l.1.0979v.1l.0978.0978m-50.334-8.0247.1983-.1983v-.1h.0979v-.0978l.1-.1h.0979v-.0979l.1-.0979h.0979v-.1l.1-.0978h.0979v-.1l.0978-.0979h.1v-.1l.0979-.0979h.1028v-.1h.0954l.1-.0978h.0978v-.1h.1l.1982-.1982h.0979v-.0979h.2007l.1958-.2008h.1l.0979-.0978h.1l.0978-.1h.1l.0979-.0979h.1982l.1-.0979h.0978l.1-.1h.1982l.1-.0978h.2961v-.1h.2961l.1-.0979h.5922l.1-.1h1.7842l.0978.1h.4969v.0979h.3964l.1.1h.1957l.1.0978h.1957l.1.1h.1982l.0979.0979h.1l.0979.0979h.1l.0978.1h.1l.0979.0978h.1l.0978.1h.1l.1982.1983h.0979l.1.1h.1v.0979h.0979l.1.1v.0978h.0978l.0979.1h.1v.0979h.0978l.1.1v.0979h.0978l.1.1v.0978h.0979l.1.1v.0979h.0978l.1.0979v.1h.0978l.1.0978v.1h.0979v.1l.1.0979v.1h.1v.0954l.1957.1982v.1h.0978v.1983l.1983.1981v.1l.1.0979v.1l.1.0979v.1l.0979.0978v.1983l.1.1v.0979l.0979.0978v.1982l.0979.1v.2986h.1v.2936l.0979.1029v.5922l.1.1v1.7841l-.1.0978v.3965m50.5347-1.9824v-.296h-.1v-.1983l-.0978-.0979v-.2985h-.1v-.4944h-.0978v-1.29h.0978v-.4944h.1v-.2986l.0978-.1v-.1982h.1v-.1957l.0979-.0979v-.1l.1-.1v-.0978l.0978-.1v-.0979h.0979v-.0979l.1-.1V316.79h.0979v-.1h.1v-.0979l.5947-.5947h.1v-.1h.0978v-.0979h.1l.0978-.1h.1v-.1h.0979l.0978-.0978h.1l.0979-.1h.1982v-.0979h.1983v-.0979h.1982l.1-.1h.2987v-.0978h.4943v-.1h1.2873v.1h.4968v.0978h.2961l.1.1h.1982v.0979h.1958l.1.0979h.0979l.1.1h.0979l.1.0978h.0979v.1h.1l.0979.1h.1v.0979h.0979v.1h.1l.5947.5947v.0979h.0979v.1h.1v.0978l.0979.1v.0979h.1v.0979l.0978.1m-.8908.5922v-.1957h-.0979v-.1983h-.1v-.1l-.2986-.296v-.0979h-.0979v-.1h-.1V316.79h-.1983v-.1h-.0979v-.0979h-.1v-.1h-.1982v-.0979h-.0979l-.0979-.1h-.1l-.0978-.0978h-.1l-.0979-.1h-.1982l-.1-.0979h-.2961l-.1-.1h-1.2873v.1h-.3965l-.0978.0979h-.1983v.1h-.2007l-.0979.0978h-.1l-.0979.1h-.1v.0979H741.14v.1h-.0979l-.2961.2961h-.1v.1h-.0978v.0979h-.1v.1982H740.35v.0978h-.1v.1h-.0979v.1983h-.1v.1l-.0978.0954v.1l-.1.0979v.1l-.0978.1v.1982l-.1.0978v.2987l-.1.0979v1.29h.1v.3965l.1.0979v.1982h.0978v.1982M656.9184,302.72l.1-.1.0979-.1h.1v-.0979h.0978v-.1h.1029l.0954-.0979h.1v-.0978h.0979l.1-.1h.0978v-.0979h.2008v-.1h.1982v-.0979h.1957l.1-.1028h.2961v-.0953h.3965l.1-.103h1.4856l.0978.103h.3965v.0953h.2986v.1028h.2961v.0979h.1982v.1h.2008v.0979h.0978l.0979.1h.1v.0978h.1982v.0979h.0979v.1h.1v.0979h.0979l.2986.2986v.0979h.0979l.1.0979v.1h.0979v.0978h.1v.1l.1.1v.0979h.0979v.1l.0979.0979v.1h.1v.1982h.0979v.1982h.1v.1983l.0979.0978v.2962h.0978v.3989l.1.0979V306.78l-.1.1v.394h-.0978v.2986h-.0979v.2987h-.1v.1981h-.0979v.1983h-.1v.0979l-.0979.1v.0978h-.0979v.1982h-.1v.0979h-.1v.1h-.0979v.0978l-.1982.2007m-.6951-.4968.1-.0979v-.1h.0979v-.0978h.1v-.1h.0979v-.0979l.1-.1.0979-.0979v-.1l.1-.0978v-.1h.0979v-.1983h.1v-.2986h.0979v-.2961h.1v-.5947h.1v-.6951h-.1v-.5922h-.1v-.2985h-.0979v-.2962h-.1v-.1982H663.46v-.0979l-.1-.1v-.0979l-.0979-.1-.1-.0978v-.1h-.0979v-.0979h-.1v-.1h-.0979v-.0979h-.1v-.1h-.0978v-.1h-.1v-.0978h-.0979v-.1h-.0978l-.2008-.1958h-.0978l-.1-.0978h-.0979v-.1h-.1982v-.1h-.2986v-.0979h-.2961v-.1h-.5947v-.0979h-.6926v.0979h-.5947v.1h-.2986v.0979h-.2961v.1h-.1982v.1h-.1l-.0979.0978H658.11l-.2008.1958h-.0978v.1h-.1v.0978h-.0979v.1h-.1m69.46-117.4149v.2985l-.1.0979v.1983l-.0978.0978v.1982h-.1v.1983h-.0979v.1982h-.1v.1l-.0978.0979v.1l-.1.1v.0979H726.18v.1l-.2961.296v.1h-.1v.0979h-.0979v.0978h-.1v.1h-.0979l-.1.0978h-.0978v.1h-.1v.0979h-.0979l-.1.1h-.0978v.0978h-.2008v.0979h-.0978l-.1.1h-.0979l-.0978.1H724.1l-.1.0979h-.1983l-.0978.1h-.2961l-.1.0978H721.721m-.0979.1v-.1h-.3965v-.0978h-.2986v-.1h-.2961v-.0979h-.1982v-.1h-.2008v-.1h-.0978l-.0979-.0979h-.1l-.0978-.0978h-.1v-.1h-.0979l-.1982-.1983h-.0979v-.0978h-.1v-.1h-.0979v-.0978h-.1v-.0979h-.0978v-.1h-.1V187.98l-.0979-.1v-.0978h-.1v-.1h-.1v-.0979l-.0979-.1v-.1h-.1v-.1982h-.0979v-.0978l-.1-.1v-.1983l-.0978-.0979v-.1l-.1-.0978v-.2962h-.0979V185.8l-.1-.0979v-1.39m.9936.1983v.8933l.0979.0978v.3966h.1v.2985l.0978.0979v.1983h.1v.1981h.0979v.1983h.1v.0979l.1958.1982v.1h.1v.0979h.0979v.1l.1.1.0978.0979h.1v.1h.0979v.0978h.0978v.1h.1l.1.0979h.0978v.1h.1983v.0979h.1982v.0978h.1982l.1.1h.2961v.0978h.3965m-.0979.1h1.1869l.1-.1h.3965v-.0978h.296v-.1h.1983v-.0978h.1982l.1-.0979h.0978v-.1h.0979l.1-.0979h.0978v-.1h.1l.4969-.4969v-.0979h.0978v-.1h.1v-.0978l.0979-.1v-.0979h.1v-.1l.0979-.0979v-.1l.1-.0978v-.1983h.0978v-.296h.0979v-.3966m34.0863,68.8626.2961.1983m6.5417-2.08-.8933.1982m-8.8177,20.4106-.4943.0979m5.1516,3.47.7929.5947m-6.64-42.111-.3965.6925,7.134-1.5833m-7.134,1.5833-.1982-.5947a48.0693,48.0693,0,0,0-10.7-15.0608l-.1-.0978m8.1251,72.9252-.8933-.4969m-7.1314-72.6266.4943-.1m3.0714-6.045-.4969.793m-1.2847,75.0079.0978.3965M730.639,300.5373l.5947-.2961a49.9854,49.9854,0,0,0,15.1611-10.7l.0979-.1m-14.4661-84.8143.4944-.7954m-1.0891,97.0044-.7929-.2986m0,0,1.6837,7.1364m-3.9622-98.392.1958.5947m-18.9252-3.37.2987-.3965m-2.08-6.5392.1982.9937m5.9445,111.1718-.1982-.8933m-22.5912-99.9754-.4969.1983a48.0569,48.0569,0,0,0-15.0583,10.7021l-.1982.0979m36.7587,83.0326-.2961.3965M690.5078,210.569l.6951.2985m0,0-1.6838-7.1339m3.9622,98.3921-.1982-.5947m-3.4678,5.2493-.4944.793m-14.07-85.8054-.1-.3964M669.106,218.2l.7929.4944m3.5683,78.8721.4943-.7929m3.0714-5.35h-.4943M666.135,275.4694l.2986.4968a48.6226,48.6226,0,0,0,10.7,15.0608h.1m-12.6844-52.8131.4943-.1983m-5.1491-3.4678-.7955-.4944m6.64,42.1111.3964-.6951m0,0-7.1339,1.5859m2.6749-20.1146-.2986-.296m-6.5392,2.178.8933-.1982m104.7305-3.9622,7.2343-1.5834m-4.459-19.5223-7.134,1.6863m7.4326,41.8124-6.2432-3.8644m1.2873-.4943,5.3523,3.4679m3.8643-22.0969-6.2431,1.3877m-4.2608,17.7356.2961-.5947a51.635,51.635,0,0,0,2.9735-17.9339v-.1m-3.27,18.629,1.2873-.4943m2.9735-17.2413v.5947a47.7852,47.7852,0,0,1-2.8732,16.4484v.1982m2.8732-17.2413-1.0915-.793m-3.764-20.6089,6.2432-1.3876m-6.8379,2.5771-.1982-.5948A50.6227,50.6227,0,0,0,745.7977,220.28l-.4944-.3964m10.8,15.3594.5947-1.1895m-10.1049-14.2678.4943.3965A49.1552,49.1552,0,0,1,756.6,233.8552l.0978.1982m-6.74-19.718-3.3649,5.45-1.29.0979,3.8643-6.1428m-2.4767,76.2952,6.2432,3.9621M733.0153,307.97l-1.5834-7.1339m1.0891.5921,1.488,6.2457m18.23-12.9831-5.45-3.3674m-14.4661-88.2847-3.9622,6.2432m3.0714,91.5542.5947-.2986a50.0575,50.0575,0,0,0,14.3682-10.2028l.394-.2986m-15.3569,10.8,1.0891.5921m14.2678-10.1048-.394.3964a49.0964,49.0964,0,0,1-13.6756,9.5127l-.1982.1m14.2678-10.01-.0979-1.2873m-18.33-80.7542-.4968-.2961a48.4975,48.4975,0,0,0-17.3392-2.8757h-.4969m18.3329,3.1718-.3964-1.1894m-17.2414-2.9711h.6925a47.2559,47.2559,0,0,1,16.3506,2.8707h.2961m-.0978.1,3.4678-5.4477m-22.0968-3.7664,1.3876,6.243-.7929.9887-1.5859-7.1339m3.5682,106.3189,1.6837,7.1339m-20.1145-10.3057.5947.1983a49.037,49.037,0,0,0,17.3392,2.8756h.4969m-.7929,1.089.7929-.9911m-23.088-101.9578,1.6837,7.2319m21.999,101.96-1.3876-6.2432-.5947-.0978a47.847,47.847,0,0,1-16.4485-2.8757h-.1982m-4.3587,4.9559,3.9622-6.1453.3965,1.1894m0,0-3.4678,5.45m.0978-98.1937-.4943.1981a48.9334,48.9334,0,0,0-14.2679,10.1075l-.4943.4969m15.2565-10.8025-1.1869-.5947M675.053,220.0817l.0979,1.29-6.1427-3.9647m6.0448,2.6749.4944-.4943a48.1141,48.1141,0,0,1,13.6732-9.5128l.1982-.1m-.0979,0-1.3876-6.2407m-18.33,12.88,5.45,3.4679m-9.3144,56.0828.296.4943A50.03,50.03,0,0,0,676.24,291.027l.2986.3965-3.8644,6.2431m2.675-6.0449,1.1894-.1982m-18.23-57.0714,6.2407,3.8618m0,0-.1983.4968A48.4383,48.4383,0,0,0,661.48,256.05v.4943m3.0689-18.33-1.2873.3964m8.6194,58.4616,3.4679-5.45-.3965-.4943a51.3235,51.3235,0,0,1-9.6106-13.6757l-.1-.1m-6.6371.3965,7.134-1.5833-.4969,1.1868m0,0-6.341,1.39m1.488-22.89.9887.793-7.134,1.6837m6.1453-2.4767.0979-.6926a47.2559,47.2559,0,0,1,2.8732-16.35V238.61m-.0979,0-5.3524-3.37M654.0477,257.34l6.341-1.4881m27.5446-52.1181-.5947.1982a57.4984,57.4984,0,0,0-17.44,12.4838l-.1982.1982m18.2326-12.88.8908-.3965m0,0,.695.3965m0,0,.6926-.2986a54.2566,54.2566,0,0,1,17.44-3.8643h.2961m.3965-.5947-.4943.5947m.4943-.5947.9912-.0978m22.0968,3.7664-.5947-.2986a56.5309,56.5309,0,0,0-21.2061-3.5657h-.296m22.0968,3.8643.8908.3939m0,0,.1983.793m0,0,.6925.1982a56.6047,56.6047,0,0,1,15.0633,9.6132l.1983.0978m.6925,0-.7929.0978m.7929-.0978.793.5947"/></g><g class="cls-17"><path class="cls-18" d="M691.7,210.174l-.5947.1982M756.5,236.4313l-.2986-.5947m-26.0566,65.3947.6926-.296m-65.4952-25.9612.2961.5947M715.7762,263.68l24.7717,19.023M695.762,292.81,710.03,264.967m0,0h1.7816l.1-.0979h.5947l.1-.1h.394l.1983-.0979h.1982l.1-.1h.1983l.0979-.1h.1982l.1982-.0978h.1983l.1-.1h.0979l.1-.0978h.0979l.1-.1h.0979l.1-.0979h.0979l.1-.0978h.0979l.0979-.1h.1l.1982-.1982m-12.88-3.0714L683.9709,285.28m-10.1075-44.7859,27.7428,14.2679m0,0v1.6837l.1.1v.5947l.0978.0979v.3964l.1.1983v.1982l.1.0978v.1983l.0978.1v.1982l.0979.1982v.1983l.1.0978v.1l.0978.0979v.1l.1.0979v.1l.0979.0978v.0979l.1.1v.0978l.0979.1v.1l.1983.1982m15.9541-9.5127,18.9251-24.7718m10.1049,44.7859-27.7428-14.3657m0,0,.0979-.1983v-1.5858l-.0979-.0979v-.5972l-.1-.0979v-.3964l-.0978-.1983v-.1982l-.1-.0979V252.88l-.0979-.1v-.1982l-.1-.1982v-.1958l-.0979-.1v-.1l-.1-.0979v-.1l-.0978-.0979v-.1l-.0979-.0978v-.1l-.1-.0979v-.1l-.0978-.0979v-.1l-.1-.0978v-.1m-12.88-3.1693-24.87-18.9251m44.7859-10.1074-14.27,27.7452m0,0-.0979-.1h-1.5858l-.0979.1h-.5947l-.1.0979h-.3965l-.1957.1h-.1982l-.1.0979h-.1982l-.1.0978h-.1982l-.1983.1h-.1982l-.0978.0979h-.1l-.0979.1h-.1l-.0978.0979h-.0979l-.1.1H706.76l-.1.0978h-.0978l-.1.1h-.0979l-.0978.0979h-.1M695.762,292.81l.4944.0979a40.185,40.185,0,0,0,44.2915-10.105l.0979-.1m-66.7824-42.2089-.1.394a40.0166,40.0166,0,0,0,10.1074,44.1937l.1982.0979m63.9093-14.2679.1982-.4944a39.8935,39.8935,0,0,0-10.0071-44.1937l-.1982-.1982m-11.889-7.43-.3965-.1982a40.0125,40.0125,0,0,0-44.1912,10.1074l-.1.1982m80.556,5.8442.296.5972m-4.8529,1.089-.1983-.5947m-25.07,71.0433-.6926.2985m-1.0916-4.7576.6951-.2986m-41.22-97.3.5947-.1957m1.0916,4.7551-.6951.2961m-30.912,67.3771-.2008-.5921m4.7577-1.0916.296.5947m97.0044,1.6863.1983-.6951m-.2987.5947.2987-.793M732.6211,204.922l-.5947-.2986m.5947.3965-.7929-.2961M689.22,306.4833l.5947.2986m-.5947-.399.793.2987m-29.823-72.727-.2961.5922m.2961-.4943-.2961.7929m99.4785,29.0326-.5947-.6951m-39.6318-55.9824-.6951.6951m-15.7534,96.2089.6926-.5922m-40.9216-55.9849.6926.695M755.5084,236.63l-.1982-.5947a48.4509,48.4509,0,0,0-10.4036-15.0608l-.3964-.3965m-14.564,79.7631.5922-.2987a47.5069,47.5069,0,0,0,15.0608-10.401l.4968-.399m-54.1983-78.1771-.4968.1983a48.4091,48.4091,0,0,0-15.0583,10.4035l-.399.4943m-9.6106,52.5146.2986.4968a48.4434,48.4434,0,0,0,10.4011,15.0608l.4968.3965m83.9259-55.2874.79-.1982m3.6661,17.9339-.5922.1957m.79-.4943v-.6925a53.19,53.19,0,0,0-3.6661-16.5463l-.1983-.3965m-4.0625,27.0477v.1m-.0978.7929.3964.0979h.2961m.4969-8.5191v.9886a38.65,38.65,0,0,1-.3965,6.4414l-.1,1.0891m2.281,13.7735.5921.3965m-10.007,15.3594-.4944-.2986m.79.1982.4968-.5947a55.9616,55.9616,0,0,0,9.1163-14.1675l.1982-.4968m-.1,0,.1.1m-29.5269-71.8387.3965-.5947m15.3569,10.01-.2986.4943m.2007-.8908-.4968-.4968a55.9194,55.9194,0,0,0-14.1675-9.1163l-.4968-.1982m-.0979.1982v-.0979m-15.259,3.4679v.1m.9886.0978v-.3965l.1-.296m-8.6219-.5973h1.0915a50.159,50.159,0,0,1,6.4414.399l1.089.1983m12.88,98.2891.1.7954m-17.934,3.6636-.1-.5922m.3965.793.695-.1a53.3478,53.3478,0,0,0,16.5463-3.6661l.3965-.1983m-26.95-3.9621v.0978m-.8933-.1982-.1.3965-.0979.2986m8.62.5922h-1.0891a38.9341,38.9341,0,0,1-6.4388-.4943l-1.0916-.0979M690.608,205.2181l-.1983-.7929m17.9365-3.6661.0978.5947m-.3964-.7929h-.5947a52.1385,52.1385,0,0,0-16.4485,3.6686l-.4943.1982m-.8908,101.363-.399.5922m-15.3569-10.0046.2961-.4968m-.1982.8933.5947.394a55.0687,55.0687,0,0,0,14.2678,9.1162l.3965.1983m0-.1v.1M660.785,234.3485l-.5947-.296m10.007-15.4573.5947.3965m-.8933-.2962-.3964.4944a55.8983,55.8983,0,0,0-9.1138,14.17l-.1982.4943m0,.1983v-.0979m3.4678,15.2565v.1m.0979-.9912-.2961-.0979h-.2986m-.5947,8.5217v-1.0917a52.0989,52.0989,0,0,1,.3964-6.4413l.1983-.9887m-2.6749,27.8432-.793.1983M655.93,258.2295l.5947-.1m-.793.4969.1.5947a55.4655,55.4655,0,0,0,3.6636,16.5463l.1982.4969m97.8952-10.9.3965.1.2986.0979-.1.4944a39.4211,39.4211,0,0,1-2.2784,7.4324v.1983m2.3788-8.1251.8908-.4943m.1982-.5973.2986.1m-39.04-55.5859.0978-.3965v-.2961l.5947.0979a48.6426,48.6426,0,0,1,7.43,2.1806l.2007.1982M720.73,208.292l-.3964-.7954m-.5947-.2961v-.1983M701.21,302.4207l-.0978.3965v.2986l-1.0891-.2986a51.6134,51.6134,0,0,1-6.1427-1.7816l-.9937-.3965m8.2255,2.4767.3964.79m.5947.1983v.296m-37.85-58.4565h-.3964l-.2987-.1.1983-.5947a48.6443,48.6443,0,0,1,2.1805-7.43l.1983-.1982m-2.5771,8.2229-.8907.4968m-.1983.5923-.2986-.0979m58.4616-37.85v.0978m-2.281-.4943-.9886-.1982m2.2784.3965h.1982l.0979.0978h.4969l.0978.1h.1m0,0-.2986-.4943-.2961-.5947-.2986-.6951m0,0-.394.3964-.4968.3965-.4969.5947m39.2379,56.7754v.1m.4969-2.3788.0978-.8933m-.3965,2.2784v.2987l-.0978.1v.3965l-.1.0979m0,0,.5947-.1983.4969-.2961.6925-.399m0,0-.7929-.79-.4943-.5947M701.21,302.4207v.0979m2.3789.2986.8933.1m-2.281-.2986-.0979-.1h-.3964l-.1-.0979H701.21m0,0,.5947.9912.2986.6926m0,0,.3965-.3965.4944-.3939.5947-.4969M664.2528,245.944v.0979m-.4968,2.2784-.0979.8908m.3965-2.2784v-.394l.1-.1v-.296l.0978-.1m0,0-.5947.1982-.4968.2986-.6926.394m0,0,.793.7929.4943.5947m94.4273,13.8714-.0978.2986c.0577.58-.2058,1.1141-.1983,1.6838l-.1.296m-40.4247-55.98h.2961a12.59,12.59,0,0,1,1.7841.2961h.1982m-15.1586,94.1312h-.2986l-.2961-.1h-.2986l-.2987-.0978h-.5922l-.1982-.1h-.2986m-38.5428-53.4079.0979-.2961c.0376-.5621.1681-1.1216.2007-1.6837l.0979-.2986m101.1648,6.3409-6.64,1.4881m2.8756-19.4195h-.1m1.9823,16.446,1.882,1.4854m0,0h.1m-3.8643-17.9314.2961.5923A52.4671,52.4671,0,0,1,765.32,252.88l.0979.2961m-10.7-16.3506,6.6371-1.483m0,0-1.1895,2.1806M755.2123,273.29l5.7463,3.6661m.1,0h-.1m0,0-2.3788.6951m-7.53,14.7622h.1m9.9093-15.4573-.1983.5947a55.0327,55.0327,0,0,1-9.4149,14.4661l-.2961.2986m6.6371-27.8457-.1982.8934m.1982-.8934.3965-2.2784M756.6,253.2736l1.98,1.4881v.8907a30.9159,30.9159,0,0,1-.2961,5.5506l-.1.9887v.1m-2.971,10.9982-2.3788.7929m4.7551-8.72-.0978.4943a39.5807,39.5807,0,0,1-1.9824,6.7374l-.1982.5973h-.0979m-7.6308-57.6687-3.5657,5.8467m6.7375,68.564.2961,2.4792m0,0-5.8467-3.6661m-3.6661-67.081,2.4792-.2961m0,0,.4944.3964A44.92,44.92,0,0,1,754.6176,236.63l.1.1957-1.1919,2.1806m-21.3015-33.3912v.1M745.2027,215.92l2.3788-.3965m0,0h.0979m-19.1234-4.0626,3.6686-5.8466.6926.2007a55.6357,55.6357,0,0,1,14.4661,9.4124l.2961.2961m-15.4548-9.9092.6926,2.3788m11.9894,78.3754.2961,2.3788m.1,0-.3965.3965a47.4062,47.4062,0,0,1-14.8625,10.2052l-.2961.1m0,0,1.4855,6.6372M729.748,299.45l-2.1806-1.0915m-7.9269-89.5718.9912.1982"/></g><g class="cls-20"><path class="cls-21" d="M923.042,559.8405v-.3939M535.3307,676.7637l-.1958-.2961-.296-.394-.1958-.2936m0,0H530.701V519.4534h4.1379m388.3988,116.331h-.3939m0-76.3378h.3939m-133.2737-33,6.3033.2961,6.2055.788,6.208,1.38a71.1134,71.1134,0,0,1,52.3038,64.0272l.1983,6.3033-.4944,6.2055a71.163,71.163,0,0,1-55.064,61.6609l-6.2055,1.0865-6.3033.59h-6.3034l-6.3058-.59A71.3618,71.3618,0,0,1,720.1253,611.75l-.8858-6.3033-.4944-6.2055a71.3362,71.3362,0,0,1,52.5021-70.3305l6.208-1.38,6.2029-.788,6.3059-.2961m-254.6333-7.6834v158m0,0L571.9739,725.13m0,0H844.4358m78.408-89.346V559.4466M677.57,686.023V509.208H621.7182V686.023Zm-142.7312-166.57.3939-.3939.0979-.2961m0,0,36.8415-48.56m1.8719-2.956.0978-.1m-39.5966,52.3062.1957-.2936m309.6948-48.9563H572.1722l.69-.9862.59-.8883.69-.7854m0,0v-2.07h271.28m0,0-.1.2961-.0979.788-.2961,1.1818-.1957,1.38-.1982.9836-.0979.1m83.63,89.2431h-4.828l-.3939-1.6737a138.8756,138.8756,0,0,0-77.8183-87.4716l-.4918-.1982m.8883-4.63,1.6737.69a143.1723,143.1723,0,0,1,80.7717,92.1012l.2961,1.084m-4.9258,76.4357h4.828M845.422,729.76l-.1-.296-.0979-.7879-.2961-1.0841-.1957-1.4805-.1982-.9811h-.0979l1.5758-.69A138.9561,138.9561,0,0,0,923.14,636.3766l.0978-.6876m4.828.0954-.394,1.6762a143.392,143.392,0,0,1-81.1682,91.8051l-.9837.4943M562.1249,623.9656l-1.38,1.28-3.4477-2.2658-3.1517-.6876-3.25.6876-2.7577,1.8743-1.38,2.2635-.4918,2.5619.8858,3.35,2.3637,2.66,2.4641,1.1819,2.6574.394,2.66-.394,2.3637-1.38,1.38-1.6737.69-1.97h-5.9119v-1.8719h7.4877l-.69,3.94-2.2659,3.25-2.7578,1.478-3.0538.3939-2.4616-.1957-2.2659-.7879-2.9534-2.3638-1.7741-3.1542-.394-2.7577.8858-4.0374,2.562-3.2521,2.8556-1.478,3.252-.4918,2.4617.1982,2.2659.8858,3.1516,2.3638m-17.8285-25.7077h1.7716m4.3335,6.7951,4.4339-6.7951h1.6737m0,0-5.2193,8.1727m-5.2218-8.1727,4.3335,6.7951m.8883,1.3776,5.5154,8.5718h-1.774l-4.63-7.1891-4.63,7.1891h-1.6737l5.4176-8.5718-5.2193-8.1727m-.1-6.8956,7.98-16.747m0,0h.1982m0,0,7.681,16.747h-1.5759l-2.4616-5.4176h-7.6835l-2.4616,5.4176H544.196m5.0236-7.0938h6.01l-2.956-6.4012-3.0538,6.4012m15.0709-20.0944,5.6158-13.1989h1.5758L564.3908,567.72h-.1982l-7.0913-16.7445h1.5759l5.6133,13.1989m-18.4183-4.8254,1.7716-8.3735h6.8955m0,0v1.6737M549.32,568.1137l-2.07-.394-1.7715-1.28-.8883-1.3776-.394-1.6762h1.478l.4918,1.3776,1.084.9862.9862.4943,1.1819.1957,1.7715-.394,1.478-1.1819.7879-1.28.1982-1.38-.3939-1.6762-1.084-1.3776-1.1819-.4918-1.38-.1983-2.0677.2961-1.6737.5922m8.6671-6.7h-5.7136l-.8858,4.4339,1.084-.2961h.8858l2.2659.4919,1.8719,1.4779.8858,1.5759.1982,1.8719-.4943,2.5595-1.5759,2.07-1.7715.9862-1.97.2936m-3.8417-24.034V527.3351m1.4779,7.0913h1.0815l1.478-.0979,1.478-.3964.69-.3915.4918-.5922.2961-.69.0978-.788-.2961-1.1818-.3939-.4918-.4919-.2961-2.3637-.4919h-2.0677v5.4176m-1.4779-7.0913h3.25l2.168.1958,1.872.8857.9836,1.38.2961,1.6736-.5922,2.2659-1.28,1.28,1.38.69,1.1819,1.1819.4918,1.1819.0978,1.2822-.4918,2.0677-1.4779,1.6737-1.5734.7879-1.7766.1983h-4.5292m1.4779-1.7741h3.7414l1.5758-.4918,1.0841-.9862.3939-.7854.0979-.69-.2936-1.2822-.69-.8858-1.774-.8858L549.32,536.1h-2.3638v6.2055m183.51,94.465.1-.0979h.0979v-.0979h.0979l.0978-.1h.1v-.0978h.1957v-.0979h.1983l.0978-.0979h.1957v-.0978h.2962v-.1h.4918v-.0978h1.4779v.0978h.394l.1.1h.1957l.0979.0978H734.9l.0979.0979h.0978l.1.0979h.0979l.0978.0978h.0979l.1.1h.0979v.0979h.0979l.0978.0979h.1v.1h.0979v.0978h.0978c.1657.1631.3288.3263.4919.4919v.0979h.1v.1l.0979.0978m0,0h.0979l.0978.0978v.1l.1.0979v.0978h.0979v.1983h.0978v.1957l.0979.0979v.1l.1.0979v.1957h.0978v.394h.0979v.59l.1.1v.7879h-.1v.5922l-.0979.0954v.1982l-.0978.1v.1957l-.1.1v.1957h-.0979v.1983h-.0978v.0978l-.0979.0979v.0979l-.1.1v.0979h-.0978v.0954l-.0979.1v.1h-.0979v.0978h-.1v.0979h-.0979v.0979l-.0978.1h-.0979v.0953l-.1.1H736.18v.0979h-.0978m-.5922-.59.1-.0978h.0979v-.1h.0979v-.1h.0978v-.0954h.1v-.0979h.0979v-.1l.0978-.0979v-.0979h.0979v-.0978l.1-.1v-.0979h.0979v-.1l.0978-.0954v-.1l.0979-.0978v-.1983h.1v-.2936h.0979v-.3939l.0979-.1v-1.0815l-.0979-.1V639.43h-.0979v-.2961h-.1v-.1983h-.0979v-.1932l-.0978-.1v-.0979h-.0979v-.0978l-.1-.0979v-.1H736.18v-.0979m-.0978.0979v-.1957h-.0979v-.0979h-.1v-.1h-.0978v-.0978h-.0979v-.0978H735.59v-.1h-.1l-.0979-.0979h-.0978v-.1h-.0979v-.0953h-.1982v-.1h-.1958v-.0979h-.1982l-.0979-.0979h-.1982v-.0978h-.2936l-.1-.1h-1.4779v.1h-.394v.0978h-.2936v.0979H731.55v.0979h-.1957v.1h-.1l-.0979.0953h-.0978v.1m130.0242-36.5429v-.1h-.7879l-.0979-.0978h-.2961l-.0979-.1h-.1982v-.0978h-.1957l-.0979-.0979h-.1l-.0979-.0979h-.0979l-.1-.0978h-.0978l-.1957-.1983h-.0979v-.0978h-.1l-.0978-.0979h-.0979v-.1h-.1v-.0979h-.0978v-.1h-.0979v-.0979h-.0979v-.0953h-.0978v-.1l-.2961-.2961v-.0979h-.1v-.1957h-.0978v-.1l-.0979-.0979v-.0979l-.0979-.0978v-.1l-.0978-.0979v-.1l-.1-.0979v-.2936h-.0979v-.3939h-.0978v-.79l-.1-.0978v-.0979h.1v-.8858l.0978-.1v-.2936l.0979-.1v-.1957h.1v-.1958l.0978-.1v-.0979l.0979-.0978v-.0979l.0979-.1v-.0979l.1982-.1982v-.0979h.0978V593.43l.0979-.0979v-.1h.1v-.0979h.0978v-.0979h.0979v-.0978h.0979V592.84h.0978v-.1h.1l.2961-.2936h.0979v-.1h.1957v-.0979h.0978l.1-.1h.0979l.0979-.0978h.1l.0979-.0979h.0978l.0979-.0978h.2961v-.0979h.394v-.1h.69m0,.8858h-.59v.1h-.3965v.0978h-.1958l-.0978.1h-.1l-.0979.0979h-.0978l-.0979.0978h-.1v.0979h-.1958v.0979h-.1v.1h-.0978v.0979h-.0979v.0978h-.0978l-.0979.0979v.1h-.1v.0978h-.0978v.0979h-.0979v.1l-.1.0979v.0978h-.0978v.0979l-.0979.1v.0979l-.0979.0979v.0978l-.0978.0979v.1982h-.1v.2961l-.0979.0979v.5922l-.0978.0978v.2936l.0978.1v.59h.0979v.394h.1v.1982l.0978.0978v.0979l.0979.0979v.1l.0979.0979v.1h.0978v.1957h.1v.0979h.0979v.1h.0978v.0979h.1v.0978l.0979.0979h.0978v.0979h.0979v.1h.0978v.0978h.1l.0979.1h.0979v.0953h.1l.0979.0979h.0978l.0979.1h.1l.0978.0979h.1958v.1h.2961l.1.0979h.59l.0979.0978m-46-69.0508v.1957h-.0978v.1983l-.1.0978v.1l-.0978.0979v.0979h-.0979v.1982H814.59v.0978l-.1.0979v.0979h-.0979v.0978h-.0979v.1h-.0978v.0979h-.1v.1h-.0979v.0954H813.9v.1h-.0979v.0978h-.1v.0979h-.0979l-.0979.1h-.0978v.0979h-.1a.8454.8454,0,0,1-.4919.2961h-.0978v.0979H812.52v.0978h-.1958l-.1.0979H811.93v.0979h-.4943v.1h-1.28l-.0979-.1h-.3939v-.0979h-.2961l-.0979-.0979h-.1982v-.0978h-.1957l-.1-.0979h-.0954l-.1-.1h-.0979v-.0978h-.1982v-.0979h-.0979l-.0978-.0979h-.1v-.1H807.89v-.0979h-.0979v-.0978h-.0978v-.1h-.0979v-.0954h-.1v-.1h-.0979v-.0979h-.0979v-.1h-.1v-.0978l-.0979-.0979v-.0979h-.0979v-.0978a.8474.8474,0,0,1-.2961-.4944v-.0978h-.0978v-.1983h-.0979v-.1957l-.1-.0979v-.296h-.0979V530.09h-.0979v-1.2772l.0979-.1v-.3939h.0979m.69.1957v.3965l-.0979.0978v.8858l.0979.0979v.3964l.0979.0979v.2936h.1v.1982h.0979v.1957h.0979v.1983h.1v.1982h.0979v.0979h.0978v.0979l.69.69h.0979v.0979h.1l.0954.1h.1v.0954h.1957v.1h.1982v.0978h.1982v.0979h.2936l.0979.1h.3965l.0979.0979h.8857l.0979-.0979h.394l.1-.1h.2936v-.0979h.1982v-.0978h.1958v-.1h.1982v-.0954h.1957v-.1h.1v-.0979h.0979c.2283-.2308.4592-.4592.69-.69v-.0979H813.9v-.0979l.0978-.1v-.0978h.0979v-.1983h.1v-.1957h.0978V530.78h.0979v-.0979m.9862.394v.1982h-.1v.1957l-.0979.1v.0979l-.0979.0979v.0978h-.0978v.1982h-.1v.0979l-.1957.1957v.1H814.59v.0979l-.1982.1957v.1h-.0979l-.0978.0978-.1.0979v.1h-.0979l-.1957.1958h-.1v.0978h-.0979l-.0979.1h-.0978v.0979h-.1l-.0979.0978h-.0978l-.0979.0979h-.1l-.0979.0979h-.0978l-.0978.1h-.1983l-.0979.0978h-.2961v.1h-.3939l-.0979.0978h-1.478l-.0978-.0978h-.394l-.0979-.1h-.1982l-.0978-.0978h-.1983v-.1h-.1982l-.0954-.0979h-.1l-.0979-.0979h-.0978v-.0978h-.1983v-.0979h-.0978l-.1983-.1982h-.0979v-.0979h-.0978l-.1982-.1982h-.0979v-.0979L807.2,532.75h-.0979v-.0954l-.1957-.1982v-.1h-.0979v-.0978l-.1-.0979v-.0979h-.0978v-.0978l-.0979-.1v-.0978l-.1-.0979v-.0979l-.0979-.1v-.0978l-.0979-.0979v-.1982l-.0978-.0979v-.2961h-.0979v-.3939l-.1-.0979v-1.478l.1-.0978v-.394h.0979m54.9636,72.99v-.0979h-.7879l-.0979-.0978h-.2961l-.0979-.0979h-.1982l-.0979-.1h-.1957l-.1-.0978h-.0979l-.0979-.1h-.1v-.0978h-.1957l-.0978-.0979h-.0979v-.0979h-.1l-.1957-.1982h-.1v-.0979h-.0978v-.0978h-.0979v-.0979h-.0979v-.1h-.0978l-.1-.0979v-.1h-.0979v-.0979h-.0978v-.0953l-.1982-.1982v-.1h-.0979v-.0979l-.0979-.0979V598.75h-.0978v-.1982h-.1v-.0979l-.0979-.0979v-.1982h-.0978v-.1982h-.1v-.2936l-.0979-.0979v-.2961l-.0978-.0978v-.79l-.0979-.0978v-.0979h.0979v-.8858l.0978-.1v-.2936l.0979-.1v-.1957l.1-.0979v-.1982l.0978-.0979V594.12l.0979-.0979v-.1h.1v-.1957l.0978-.1v-.0979h.0979V593.43l.1957-.1982v-.0979h.1v-.0979h.0978v-.0978h.0979V592.84h.1v-.1l.0978-.0978h.0979v-.1h.0979v-.0954h.0978l.1-.1.0979-.0979h.0978v-.1h.1l.0979-.0978h.0978v-.0979h.1957v-.0978h.1l.0979-.0979h.1982v-.1h.1957v-.0979h.2961l.0979-.0978h.2961l.0979-.0979h.5922M734.506,552.945h.0979l.0979.0979h.1v.0978H734.9v.1h.0979l.0978.0979v.0978h.1v.0979h.0979v.0978h.0978v.1h.0979v.0979l.1.1.0979.0978v.0979h.0979v.0979l.0978.1v.1957h.1v.0979l.0979.0979v.1l.0978.0979v.1982l.0979.0954v.1982l.1.1v.2936l.1.1v1.8719l-.1.0953v.2987l-.1.0978v.1957l-.0979.0979v.1982h-.0978v.1957l-.0979.1v.0979h-.1v.1982h-.0978v.0979l-.0979.0978v.0979m-.0979,0-.1.1v.0978h-.0979v.0979l-.0978.0979-.0979.0978v.1h-.1v.0979h-.0978l-.394.3939h-.0979v.1h-.0978l-.1.0979H734.21v.0978h-.0979l-.0979.0979h-.1l-.0978.0978h-.0979l-.0978.1h-.1l-.0979.0979h-.1957l-.1.0979H732.83v.0978h-.3939l-.0954.1H730.86l-.0978-.1h-.394l-.0979-.0978h-.1982l-.0978-.0979h-.1958v-.0979H729.58l-.0979-.1h-.0978l-.1-.0978h-.0978v-.0979h-.1958v-.0978h-.1m79.69,105.3979v-.3939l-.0979-.0979v-.69l-.0978-.0979v-.2961l.0978-.1v-.6875l.0979-.0979v-.2986l.1-.0954v-.1982l.0954-.0979v-.0978l.1-.1v-.1957h.0978v-.1982h.0979v-.0979l.1-.0979v-.0978h.0978v-.1l.0979-.0979v-.1h.1v-.0953l.1958-.1983v-.0978h.0978l.0979-.0978v-.1h.1v-.1h.0978l.1983-.1958h.0979v-.0978h.0978v-.0979h.0979l.0978-.0979h.1v-.0978h.1957v-.1h.1983v-.0979h.1957v-.1h.1982l.0979-.0953h.2961v-.1h.2936l.1-.0979h.69l.0979-.0979h.2961l.0978.0979h.69l.0978.0979h.2961l.0979.1h.1957l.1.0953h.0978l.0979.1h.1983v.0979h.1957v.1h.0978l.1.0978h.0979v.0979h.0979l.1.0979h.0979v.0978h.0978l.1958.1958h.1v.1l.0979.1h.0979v.0978h.1v.0978l.1957.1983v.0953h.0979v.1h.1v.0979l.0978.1v.0978h.0979v.1958h.0979v.1982h.1v.1957h.0978v.1982m-87.3737-26.596.1982-.1982h.1958v-.0979h.0978l.1-.0979h.0979l.0978-.0978h.0979l.1-.1h.1957v-.0978h.2961l.0979-.1h.2961l.1-.0954h1.6737l.0979.0954h.3939v.1h.2961v.0978h.1958l.0978.1h.1983v.0978h.0978l.0979.0979h.1l.0979.0979h.0979v.0978h.0978l.1.1h.0979v.0979h.0978l.0979.0979v.1h.1c.1631.1631.3287.3287.4918.4893v.1h.0979v.0979l.0978.1v.0978h.1l.1.0978v.1983h.0953v.0978l.0979.0979v.1l.1.0979v.0978l.0978.0979v.1982h.0979v.2936l.1.1v.296l.0979.0979v1.6737l-.0979.0979v.3939h-.1v.2961h-.0979v.1958l-.0978.1v.1983h-.1v.0978l-.0979.0979v.0979l-.0953.1v.0979h-.1v.0954l-.1.1m.1.1-.9862.9836m25.1181-7.3874.4943.2962a49.3287,49.3287,0,0,0,16.1549,7.4827l.59.1v.0978m0,.2961-.2936.2961m.2936,6.7952.0978-.9836m19.4069-5.1216-.3939-.3939m-.394,6.2055-.0979.9836m-35.8578-15.2665v-.788m0,0-5.4176,4.9258m59.6937-2.562-.0979.3939m5.1215,4.63-.69-.69m9.36-17.3368.394-.4917a47.8719,47.8719,0,0,0,7.583-16.7471l.1-.0979m-94.071,19.2087.6876-.59m86.0939-1.38-.7879.0978m0,0,4.9232,5.32m-85.9935-8.371-.394-.1m89.7375-14.185.2961.3965m6.7976-.3965h-.9861m-102.3467-3.25.394-.4918m-6.2055-.3965h-.8858m104.02-15.3644-.394.4918m6.2055.394h.8858M735.294,586.2383l.8857.1m95.4512-14.2829h.4918m4.5318-5.0261-.69.5922m-93.5792,18.6164-.296-.2936m7.7838-16.9427.7879-.0979-.2961.3915a50.14,50.14,0,0,0-7.6835,16.747v.1957m7.98-17.3342-4.9258-5.32m72.8926-5.32-.394-.3965a49.1487,49.1487,0,0,0-16.2527-7.4852l-.5922-.0979v-.0978m-37.0347,5.7137v-.394m-5.0261-4.63.69.6875m58.61,5.9119v.7879m0,0,5.4176-4.9257m-42.1587-4.3336.3939.394m.394-6.2055.0979-.9862m18.6164,7.7814.2961-.1958m-.3939-6.7977v.8858m-3.5457,109.6361.2961-7.29m-19.7983-.69-.2961,7.2895m21.0781-5.7137-.1957,6.3059m16.6466-13.6933L820.5,645.144m-.7879.5923-4.3335-4.73m-17.3368,5.2218.69-.1981a47.5411,47.5411,0,0,0,16.2527-6.01l.59-.2936m-17.5325,6.5016.9837.8858m16.3531-6.1076-.4944.2961a53.4733,53.4733,0,0,1-15.5626,5.7137h-.2961m16.3531-6.01.0978-1.28m-38.5152,12.9054.1983-6.4038m-21.1785-3.5456,5.3172-4.9257m.1,1.28-4.63,4.3361m4.5293-5.6158.5922.2961a47.4152,47.4152,0,0,0,16.3531,7.3873h.0978m-17.0431-7.6834.1,1.28m15.7609,7.1916-.5922-.1981a51.242,51.242,0,0,1-14.973-6.9935l-.0979-.0979m15.6631,7.2895,1.084-.69m56.7352-13.889-4.9233-5.4175m-82.2522-3.0539-5.3172,4.9258m88.8492-1.8719,4.3335,4.6271m2.1681-21.47,7.2895.1957m-.1983.9837-6.3033-.1958m-8.5693,15.8588.394-.5922a49.8134,49.8134,0,0,0,7.29-15.7584l.0979-.5922m-7.7814,16.9428h1.28m7.2895-15.8588-.0979.5923a49.8963,49.8963,0,0,1-6.9934,14.97l-.1.2961m7.1917-15.8588-.7879-.9836m-95.943,17.9264,4.63-4.336m-5.2219-17.2364.1983.59a48.6026,48.6026,0,0,0,6.01,16.3531l.2936.4917m-1.28-.1981-.2961-.59a49.993,49.993,0,0,1-5.6133-15.5626l-.1-.0978m6.01,16.25,1.28.1981M734.0142,605.447l7.287.2961-.7879.9862m0,0-6.4012-.2987m111.8017-16.6441-7.29-.2961m-96.5351-3.5457-7.2871-.296M838.6243,589.49l-.0979-.69a49.6838,49.6838,0,0,0-6.01-16.3505l-.2962-.4944m6.4038,17.535.7879-.8858M749.873,569.002l-.2936.4918a47.4071,47.4071,0,0,0-7.39,16.3506v.1m-.8883-1.084.788,1.084m91.3132-13.6932.394.4918A53.6445,53.6445,0,0,1,839.51,588.306v.1982m-.0978.1,6.4037.1957m-7.7813-20.8823-4.6322,4.3335-1.28-.1957,5.32-4.9258M734.9,584.6625l6.4012.1982.1983-.69a50.5517,50.5517,0,0,1,6.9934-14.973l.0978-.1957m-3.7413-5.4176,5.0236,5.4176-1.2823.0978m0,0-4.3335-4.73m79.69-11.8188-5.32,4.9258m-54.2736-1.97-4.9257-5.4176m59.1993,7.3874-.4918-.394a49.0552,49.0552,0,0,0-15.8588-7.2895l-.4943-.0978m16.8449,7.7813-.0979-1.2823m-36.6432-7.1891-.5922.0979a48.6628,48.6628,0,0,0-16.3506,6.01l-.4943.2936v.1m.1-1.2822-.1957,1.2822m38.317-6.5016.69.0979a49.83,49.83,0,0,1,14.9705,6.9934l.1982.0978m0,0,4.63-4.3335m-20.1923-9.2593-.2961,6.4037-.9862.7879.2961-7.29m-19.7983-.7879-.2961,7.2895L780.9,548.12M764.55,554.2248l.59-.394a53.5584,53.5584,0,0,1,15.5652-5.7112h.2961m-.1,0,.1982-6.3058m-20.8823,7.6834,4.3335,4.7276M845.8159,588.8l-.1-.69a56.107,56.107,0,0,0-7.4853-20.0945l-.0978-.1957m7.6834,20.98.0979.9862m0,0-.5922.59m0,0,.1.59a54.22,54.22,0,0,1-.69,17.7306v.2961m.394.5922-.4919-.5922m.4919.5922-.1983.9837m-9.2593,20.29.4943-.5871a57.5319,57.5319,0,0,0,8.765-19.5048l.0979-.1982m-9.3572,20.29-.69.79m0,0h-.788m0,0-.3939.4919A55.8736,55.8736,0,0,1,820.7957,644.16l-.1982.0978m-.0979.8858.0979-.7879m-.0979.7879-.7879.5923M798.8294,653.42l.69-.1982a54.962,54.962,0,0,0,19.9941-7.4852l.1982-.1M798.8294,653.42l-1.0841.0978m0,0-.59-.4943m0,0h-.5921a56.0009,56.0009,0,0,1-17.7307-.69l-.1983-.0953m-.6875.59.59-.4943m-.59.4943-.9862-.1957m-20.1923-9.2593.59.394a57.5328,57.5328,0,0,0,19.5048,8.7649l.0978.1m-20.1923-9.2593-.7879-.69m0,0-.1-.7879m0,0-.4893-.4943a56.9536,56.9536,0,0,1-12.0195-13.0032l-.0979-.1957m-.7879-.0979.7879.0979m-.7879-.0979-.5922-.7879m-7.7813-20.8849.1957.5923a55.2957,55.2957,0,0,0,7.4878,20.0944l.0978.1982m-7.7813-20.8849-.0979-.9836m0,0,.59-.5922m0,0v-.6875a56.1507,56.1507,0,0,1,.69-17.7307l.0978-.1983m-.59-.59.4919.59m-.4919-.59.0979-.9862m9.3572-20.2927-.3915.4943a59.5862,59.5862,0,0,0-8.8678,19.5048v.2936m9.2593-20.2927.5922-.7854m0,0h.8857m0,0,.4919-.5922a57.048,57.048,0,0,1,13.0031-12.017l.1983-.0978m0-.788-.1.788m.1-.788.7879-.5922m20.8823-7.6834-.5921.0978a56.14,56.14,0,0,0-20.0945,7.4878l-.0978.0978m20.7844-7.6834,1.0841-.0979m0,0,.59.4918m0,0,.69-.0978a56.9171,56.9171,0,0,1,17.8286.69l.1.0979m.59-.394-.69.4918m.69-.4918.9862.0979M823.16,551.861l-.4918-.4918a58.3585,58.3585,0,0,0-19.5048-8.7675h-.1957M823.16,551.861l.7879.69m0,0,.0979.788m0,0,.5921.3939a53.3019,53.3019,0,0,1,12.0171,13.101l.0978.0979m.69.1982-.7879-.1m.7879.1.5922.788M787.5,662.7769h2.4641a65.1529,65.1529,0,0,0,65.1112-61.8592v-.8883l.0979-.7879a65.2581,65.2581,0,0,0-61.0738-66.687h-1.6737l-.7879-.0979H790.85a65.2323,65.2323,0,0,0-65.8967,61.0712v1.6738a65.0784,65.0784,0,0,0,60.183,67.3771l.7879.1H787.6m.1958-8.3735-.69-.0978h-.6875l-.69-.1a56.697,56.697,0,0,1-52.4042-57.92l.0979-.7879v-.69a56.6783,56.6783,0,0,1,57.33-53.7817h.69l.7879.0978h1.3776a56.745,56.745,0,0,1,53.0942,57.33v.6876l-.0978.79a56.6346,56.6346,0,0,1-56.64,54.4718h-1.38l-.7879-.0978m-.2961,8.1752h2.4641a64.7547,64.7547,0,0,0,64.7173-61.4652v-.8883l.0978-.7879a64.8592,64.8592,0,0,0-60.68-66.2931h-1.6737l-.7879-.0978H790.85a64.8369,64.8369,0,0,0-65.5052,60.6772v1.6738a64.69,64.69,0,0,0,59.7915,66.9831l.7879.1H787.6M760.412,637.7567l-.4918-.394"/><path class="cls-21" d="M761.5934,633.2254l.4943.2961a44.8641,44.8641,0,0,0,18.0243,8.4714l.394.0978m0,0-.1958,6.7977m0,0,.69.0954a54.44,54.44,0,0,0,13.3946.5921l.394-.0978m0,.0978.2961-6.6972m0,0,.5922-.0979a45.8,45.8,0,0,0,18.8122-6.7977l.3965-.1982m-.1,0,4.63,4.9257m0,0,.5922-.3939a53.4323,53.4323,0,0,0,9.849-9.0611l.2961-.3965m0,.1-4.63-4.9257m0,0,.3939-.4918a44.8423,44.8423,0,0,0,8.4714-18.0268l.0979-.59m0,.0979,6.7977.296m0,0,.1957-.69a54.716,54.716,0,0,0,.5922-13.3971l-.0979-.4919m0,0-6.7977-.1982m0,0v-.59a45.8229,45.8229,0,0,0-6.7977-18.8147l-.1957-.3939m-.0979.0978,5.0236-4.6271m0,0-.296-.5922a51.7633,51.7633,0,0,0-9.0611-9.8515l-.3965-.394m-.0978.1-4.9258,4.5293m0,0-.3939-.394a45.4981,45.4981,0,0,0-18.0243-8.4714l-.4944-.0978m-.0978.0978.2961-6.7951m0,0-.5922-.1983a54.9434,54.9434,0,0,0-13.3946-.5922l-.394.1m-.1,0-.2936,6.7952m0,0h-.4943a45.8572,45.8572,0,0,0-18.8147,6.7977l-.3939.1957m0,.1-4.63-5.0236m0,0-.4918.2962a51.82,51.82,0,0,0-9.849,9.061l-.2961.394m-.0979,0,4.63,5.0236m0,0-.2961.3939a44.841,44.841,0,0,0-8.4714,18.0268l-.0979.4918m-7.5856,14.283,6.7977.1982m0,0,.0979.4918a46.5666,46.5666,0,0,0,6.9934,19.2087v.0978m0,0-5.0236,4.5318m0,0,.394.4918a55.2812,55.2812,0,0,0,9.061,9.9494l.394.2961m-11.2291-49.5486-6.7952-.1957m6.7952.1957-1.4755-1.8694m-6.7977-.2986,6.7977.2986M736.28,604.2656v.0979m0-.0979,1.6737-1.774m.69-14.4787-.1.59a54.8331,54.8331,0,0,0-.59,13.3971l.0979.394m.5922-14.3808-1.478-1.9723m-.8858,18.225v-.69a53.35,53.35,0,0,1,.788-17.1385l.0978-.3965h-.0978M530.013,544.8681h-.4944m0,11.1312h.4944m.3939,59.5933h-.8883m0,11.1312h.4944m24.33,93.2856-.3939.7829m9.3571,9.8515-1.1819-1.1794c-2.311-2.3462-4.9006-4.87-6.9934-7.39l-1.1818-1.2823m-18.3229-24.4255.8883-.1982m-.8883.1982-.8858-1.38-4.7275-8.2731-.7879-1.38m.4918-15.8587v.0979m315.9,61.1716,1.6737-.79a143.9272,143.9272,0,0,0,80.8721-90.9169l.4943-1.5758m-.1-79.69-.4918-1.7716a144.148,144.148,0,0,0-80.97-90.8214l-1.478-.59m-315.9,61.1691v.0978m6.7977-26.7917-.8883-.0979M529.3229,509.7l.788-1.3776c1.3073-2.6473,3.1416-5.5656,4.7275-8.0774l.7879-1.28m18.3229-24.5283.3939.7879m-.3939-.7879,1.5758-1.7716,3.1517-3.35,1.5758-1.5759,1.5759-1.6762,1.38-1.28m.2961.7879-.1-.1982-.2936-.59,1.0815-.6876,1.1819-.3964h.3939M528.929,511.4744l.1957-1.28.1982-.4943m0,0,.2961.1.59.0978M530.013,646.03h-.4944m399.0384-8.5692.4943-1.774a122.7054,122.7054,0,0,0,3.3474-15.5628l.2961-1.6736m0,.0979-1.5758-.788m0,0,.296-1.7741a144.4847,144.4847,0,0,0-.1982-38.4173l-.0978-.0978m0,0,1.5758-.788m0,0-.1982-1.7715a156.188,156.188,0,0,0-3.3474-15.5652l-.4919-1.6737m-85.01,173.8591H565.7679m277.8795,0,1.97-.7879m-269.9,0h269.9M554.2453,720.1048l1.0815,1.1818c2.2207,2.3738,4.597,5.0286,6.9959,7.1892l1.1819,1.1844m-33.3937-44.3268.7879,1.38c1.3751,2.8154,3.0814,5.4551,4.63,8.1727l.8858,1.38m0,0,1.7741-.2936m0,0,1.1819,1.7715a187.3127,187.3127,0,0,0,15.269,20.1923l.394.4943m0,0-.7879,1.6738M529.7169,511.6726l-.7879-.1982m0,172.3811V511.4744m1.084,157.5085-.4944.4918h.1983v5.7112m.2961-28.6637-.4944-.4919m0-19.3065V646.03m0-19.3065h-.3939m0-11.1312v11.1312m0-11.1312h.3939m0-59.5933v59.5933m0-59.5933h-.3939m0-11.1312v11.1312m0-11.1312h.3939m.1983-24.8245v5.7137h-.1983v19.1108m33.986-79.2963-9.1615,9.6533m0,0,.7879,1.6762m0,0-1.38,1.6737a168.0664,168.0664,0,0,0-14.7747,19.7983l-.5922.9862m-.0979,0-1.7715-.2961m0,0-6.3059,10.8351M565.7679,463.7H843.6474m-277.8795,0,.2962.7879M843.6474,463.7l1.97.7879h-269.9M532.1785,684.8416l-.2936.0979-1.084.1983-.69.1956m0,0-.0979-.1956-.1982.0978-.59.0978-.2961-1.1818v-.2961l2.7577-.7879m-1.478-173.1691-.3939.8858-.0979.8883m1.97.4918-1.97-.4918m.4918-1.7741.1982.1,1.0841.1957.6875.1958m34.6735,218.384-1.0841,2.7577-1.3776-.2961-1.084-.5922.1983-.1957.1957-.59-.1957-.1982.0978-.1958.394-1.0839.2961-.69m0-260.1487-.1-.1957-.3939-1.084-.2936-.69.4918-.3939.69-.394.6876-.1957.69-.1.7879,2.07m8.3735,263.594.4918.5922m-1.97-1.97.394.2961m1.5758,1.6737v-.3965M575.2255,465.08l.4918-.5922m-1.97,2.07.394-.394m1.5758-1.1819v-.4943m-45.31,211.0945-.69-.3964m1.97.9861-.7879-.3939m-.7879-.5922h-.394m.69-155.5337-.69.3914h.394m1.5758-.9836-.7879.3939M564.2925,727.69l.2936.1958a2.8342,2.8342,0,0,0,1.8719.79l.394.0979m6.7977-1.3777v.59l.0978.394v.3939m-6.8955-3.7464v3.7464m6.8955,0H566.852m-5.2194-9.0636,3.94-2.9534m1.28,8.2706h4.9257m-39.5992-40.1864-.394-.7879v-.4918l-.0978-.1982v-.2961m7.5856,6.893,3.8417-2.8531m-11.4273-4.04V676.172m0,6.8956h3.7439m0-6.1076v6.1076m-3.7439-6.8956.0978.1h3.1517m8.1778,10.8351v.0979m28.6637,37.8226-6.2055-8.2706v.1m6.2055,8.17.4918.5947.4944.6876.4918.5921.394.4943m0,0v.0955m-38.7135-51.22v.0978m0-.0978.1983.1957.0978.2961.1983.1958m7.6834,10.1475L535.4306,676.96m390.1729-56.0477h-2.76m2.76-46.5926h-2.76M534.9362,518.9621h-2.9534l-.1983.0979h-.0978v-6.8956m.4918-1.774-.0978.1982c-.5471.9811-.1155.675-.394,1.3776v.1982m.4918-1.774h.1c.4692.404,2.035.9987,2.5595,1.4779l.5922.2961h-3.7439m.4918-1.774,1.084-1.9674a181.7088,181.7088,0,0,1,29.65-39.4034l1.4779-1.478m2.4617,2.66-1.478,1.4779a179.4925,179.4925,0,0,0-28.96,38.6131l-.9836,1.7741m0,.0978v6.1076m7.3873-9.7511-2.2659-1.7741m24.7241-27.8757L563.01,477.097l-22.4582,29.65M573.65,467.8377h.0978m-8.4714,11.0334,6.5016-8.67m-6.5016,8.67.0979.0979m-29.9434,39.303,7.3873-9.7511.0979.0979m-7.4852,9.6532-.1983.2961-.0978.1958-.1983.1982m.1.0979-.1-.0979m29.3563-51.42.0978.0979.0979.1982.2961.1957.2961.3965,1.7716,1.7716m-2.5595-2.66.2936-.1957a2.98,2.98,0,0,1,1.97-.7879h.2961m0,0h6.8955m-6.8955,0v3.6435m6.8955-3.6435v.2961l-.0978.3939v.59l-.394.4918-.4918.5922-.4944.69-.4918.59H566.852M922.8433,574.32v.0978m0,46.4948v.0979m0-59.1015V574.32m0,46.5926v12.5113M542.72,695.5789l15.0708,19.8962m6.5016,12.2152-1.478-1.4779a172.9785,172.9785,0,0,1-30.0438-40.3871l-.5922-.9837m32.114,42.8487v-.0978l.1957-.1c.7352-.67,1.1994-1.3049,1.8719-1.97l.4919-.4944m-34.6735-40.1864.1983-.0978c.9133-.384,1.5733-.9837,2.4616-1.2822l.5922-.394.4918.8883c.7628,1.8368,1.9547,3.4528,2.8556,5.2193l.4943.7854-.4943.3965,3.9421,5.2218,1.1819,1.6737a161.5772,161.5772,0,0,0,13.7885,18.0268l.1.1957,3.4478,4.5343.3939-.2986.69.6876c1.1342,1.3475,2.6046,2.6548,3.8392,3.9421l.69.6875M927.079,609.6832V585.5488m1.1844,51.42.2936.4918m-1.28-2.3663.59.9862m-5.0236-1.1819v.1m5.5179,2.4616h.1958m-1.28-2.3663L926.9811,635l-.7879-.1h-3.35m4.4339-74.6641.4918,1.6737a141.7759,141.7759,0,0,1-.2935,72.4986l-.1983.5922m-1.6737-14.0872h1.3776l.0979-9.3572v-1.8719l.1982-1.7741a143.2849,143.2849,0,0,0-.0979-21.8685l-.1-.4918-.0979-9.2593v-1.97h-1.3776l-.2961-1.5758c-.5771-3.1367-1.2245-6.2582-1.97-9.3572l-.4943-1.478v-1.478m0,72.9929.4943-1.6762c.8231-3.3047,1.5583-6.5969,2.1655-9.9493l.1-.9836m-2.7577,14.0846v-1.4755m0-72.9929v-.0978m0,.0978,1.6737-.0978h1.38l.8858-.0979h.4918m.9862-1.9723.2961-.4918m-1.2823,2.4641.4918-.9861m.79-1.478h-.1983m2.8556,20.2927h1.1819m0,26.8921v12.2127h-1.1819m1.1819-39.1048v12.2127M538.384,499.1613h-.0979m0,0,.7879-1.0841m306.5432,232.667H577.3935l-3.252-.8858v-.1m271.4757.9862-.1957-.9862m82.8419-93.9731.0978,2.4616-.4943,1.6762a144.0931,144.0931,0,0,1-81.4618,90.425l-.7879.2961m-315.11-211.19h.1957m0,156.3242h-.1957m0,0-.7879-1.1819v-5.1215m-.0025-143.7174v-5.1215l.79-1.1819m-.79,6.3034h.2961m0,34.8717V525.7573m0,34.8717h.3939m0,0v62.1552m0,0h-.3939m0,46.69v-46.69m0,46.69h-.2961M928.3612,556.983l-.0978,2.4616m-82.6462-94.9568,1.6762.69a144.1578,144.1578,0,0,1,80.97,91.0172l.1957.69M574.1415,465.4739v-.1m0,0,3.252-.8858H845.6172l-.1957.9861m0,264.2841h-271.28v-1.7715m-39.7949-52.2084.1982.2936m39.4988,52.2109.0979.0979m0-.394-.69-.8883-.7879-.9862-.6876-.9836m351.0657-89.3435v-.3914"/></g><g class="cls-22"><path class="cls-21" d="M781.2951,599.9316l-24.5284,18.9125m1.7741-45.6064,23.05,20.8824m0,0v.1957l-.0978.1v.1958l-.1.0978v.1983l-.0979.0978v.394l-.0978.1v.0979c.0251.5244-.1556.3062-.1,1.084v1.97l.1.0979v.4918l.0978.1v.1957l.0979.0979v.1982m6.3059-11.4273-19.013-24.5284m45.7069,1.7741L793.51,588.6046m0,0-.1-.1h-.0978l-.0979-.0978h-.1957l-.1-.1h-.1957l-.1983-.0979h-.2935l-.1-.0978h-.4919l-.1-.0979h-2.4616l-.1958.0979h-.3939l-.1.0978h-.394l-.0978.0979h-.1957m24.428,42.9491-.394.1982a40.2518,40.2518,0,0,1-45.6064-1.8719l-.1983-.1982m.2961-.2936.394.1932c12.8827,9.7561,31.5318,10.4788,45.0168,1.5758l.1956-.0953m12.3132-55.2623.2961.3965a40.2566,40.2566,0,0,1-1.872,45.6065l-.0978.1982m-.4944-.2986.2962-.394c9.7536-12.8827,10.4788-31.5318,1.5758-45.0142L823.75,575.8M756.3728,619.14l-.1957-.4943A40.312,40.312,0,0,1,758.049,573.14l.1957-.2986m.2961.3965-.1982.2936a39.8959,39.8959,0,0,0-1.6737,45.1146l.0978.1982M768.49,563.4865l.4918-.2986a40.3162,40.3162,0,0,1,45.5086,1.8745l.1983.1957m-.2961.394-.2962-.2961a39.8956,39.8956,0,0,0-45.1146-1.6737l-.2961.0978m64.9155,67.1789-.3939.4943m-3.35-3.5481.394-.4918M823.356,554.029l.4918.394m-3.6435,3.35-.4918-.4943m-63.1414,83.9259-.4944-.394m3.5482-3.252.59.3964M746.3256,564.272l.3939-.4919m3.35,3.5457-.394.4943m94.7611,23.1458v-.59m-.1.59-.0979-.7855m-47.6741,61.9571.6875-.0979m-.6875,0,.7879-.1957m-13.9893-108.75-.6875.1m.6875,0-.8858.1957m-46.9865,60.8755v.59m.0978-.59.1.7879m99.98-24.5258-.8858-.2986m-27.68,63.1439.1957-.8883M772.8237,551.861l-.1982.8883M744.16,614.7063l.8858.2961m83.5319,11.5252.394-.4919a49.215,49.215,0,0,0,7.7813-16.5487l.0979-.5922m-18.0268-49.8422-.394-.3939a49.0722,49.0722,0,0,0-16.5488-7.7813l-.59-.0979M761.1,636.1808l.4944.2962a47.7608,47.7608,0,0,0,17.0406,7.8791h.0979m-27.384-75.65-.2961.3939a48.2269,48.2269,0,0,0-7.7813,16.5489l-.1958.4918m100.5726,4.8254h.6876m-.8858,18.225h-.59m.7879,0,.1958-.69a55.25,55.25,0,0,0,.69-17.4346v-.1982m-.1982.0979h.1m-10.6394-11.327v.0978m.3939.79.2961-.1982.2961-.1m-3.7439-7.681.394.4919a49.2364,49.2364,0,0,1,3.35,6.8955l.0979.1982m-15.367,63.5329-.3939-.4943m13.495-12.3132.5922.5947m-13.495,12.3132.59-.394a54.0823,54.0823,0,0,0,12.805-11.8213l.1-.1982m-9.9494-76.4382.59-.4918m12.1174,13.5928-.394.394m.59-.4918-.2961-.5922A57.1817,57.1817,0,0,0,824.046,554.423l-.0978-.0979m-16.057,87.1754v.0954m-.7879.1982.0978.3965.0979.2936m7.6835-3.7414-.8859.4919a37.8215,37.8215,0,0,1-5.8115,2.8555l-.9861.394M796.5642,651.35v.69m-18.225-.9862v-.59m0,.7879.69.0979a54.3057,54.3057,0,0,0,17.4346.69h.1m0,0v.0979M783.3628,543.8814v-.6875m18.225.9836v.5922m0-.7879-.5922-.1957a54.1614,54.1614,0,0,0-17.4346-.6926h-.0978m-.1.1v-.1M771.938,553.7329v.0979m.8857-.394-.0978-.3939-.1-.2936m-7.6834,3.8417.5921-.3965a56.1933,56.1933,0,0,1,6.8956-3.3474l.2961-.0978M746.03,615.5921v.1m-.2936-.9861-.394.1982-.296.0979m3.8417,7.6835-.2961-.5922a56.3162,56.3162,0,0,1-3.35-6.8931l-.0979-.2961m-1.1819,12.3106.394-.3939m12.3131,13.4975-.5922.4918m-12.3106-13.495.394.4918A57.01,57.01,0,0,0,755.9788,640.71l.0979.1m-8.765-76.4407-.5922-.59m13.5929-12.1148.4943.3914m-.5922-.59-.4918.2961a57.2,57.2,0,0,0-12.9053,11.8213l-.0979.0979m-10.4411,40.5828h-.69m.8883-18.2225h.59m-.7879,0-.0979.59a54.2471,54.2471,0,0,0-.69,17.4371v.1957m.0978,0h-.0978m99.4885-21.5724.394-.0978.1982-.1.1957.4943a42.2881,42.2881,0,0,1,1.7741,7.4852v.2961m-1.97-8.2756.59-.7855m-.0978-.69.1982-.1m-31.1278,62.3535.7879.4944m.59-.1.1.2961m-1.774-1.3776.1982.3939.0979.2936m0,0-.9862.2961a43.0663,43.0663,0,0,1-6.3033,1.478l-.9862.1957m-21.866-92.593-.0979-.394-.1-.296.9862-.2936a46.3887,46.3887,0,0,1,6.2055-1.478l1.084-.1982m-8.2757,1.97-.7879-.4919m-.5922.0979-.0978-.2936M744.948,612.5408l-.394.0978-.2961.0979-.2961-.9862a55.2144,55.2144,0,0,1-1.4779-6.2054l-.0979-1.0815m1.8719,8.2731-.4918.8858m.0979.5922-.1983.0979m1.2823-1.7716v.0978m.7879,2.0677.2936.8858m-.7879-2.1656v-.1l-.0979-.0979v-.1957l-.0978-.1v-.1957l-.0979-.0979v-.0978m0,0-.5922.9836-.4918.69m0,0,.59.1957.4944.0979.7879.1982m89.2431-32.0136v.1m-.7879-2.2659-.3939-.8883m.8857,2.168v.0979l.1.0978v.1983l.0979.1957v.0979l.0978.1v.0978m0,0,.5922-.9837.4919-.69m0,0-.59-.1-.4944-.1957-.7879-.1957m-29.3537,62.0574.0978.0978m2.1681-.8883.7879-.2936m-2.0677.788-.1.0978h-.1957l-.1.0979h-.1958l-.0978.1h-.0979l-.1.0978m0,0,.4919.2961.3964.2936.6876.394m0,0,.1982-.4943.1982-.5872.1958-.7905m-32.1115-89.1452v.1m-2.1681.6875-.8857.2961m2.1655-.7879.0979-.0979h.2961l.1-.0978h.0979l.0978-.1h.1983m0,0-.4943-.394-.4919-.296-.5922-.394m0,0-.1957.4918-.1957.5922-.1983.7879m60.9735,26.2021.1.2961c.1506.537.5119.9033.6876,1.5758l.0978.2961m-26.7917,59.6936-.1958.0954c-.5846.1857-1.0765.4191-1.6762.5947l-.1957.0979m-33.7877-88.5556.1983-.0978c.4742-.1631,1.1241-.3915,1.5758-.5922l.2936-.0979M746.13,615.5921l-.1-.2936-.1957-.1982-.0979-.2936-.1982-.5922-.0979-.1983-.1982-.59m98.407-22.4606v.1m-.8883,18.1247h.1m.7879-18.225.0979.5921a51.827,51.827,0,0,1-.7879,17.1385l-.0979.394m-1.5758-1.7716,1.4754,1.872m0,0-6.7951-.1983m.8858-18.2225,6.7976.1958m0,0-1.6762,1.774m-13.9868,33.0977,4.63,5.021m1.8719-23.8357,1.478,1.97m0,0-.1.4944a45.7622,45.7622,0,0,1-7.6809,16.1523l-.1983.1983-2.4616.1981m9.1589-44.2288.2961.8858m-.2961-.8858-.8857-2.168m0,0v.0978m-3.25-6.6972.394.4918a56.9613,56.9613,0,0,1,2.8556,5.7136l.1.2961m1.0815,3.1517.2961.9861a53.9962,53.9962,0,0,1,1.478,6.01l.0979,1.0815-1.6738,1.7716m-7.0937-19.7005,2.3663.2986m5.0236-4.6321L830.45,573.14m2.1655,57.7188v.1m0-.1-2.4617.1M819.12,643.1718v.1m13.495-12.4135-.394.4944a53.1084,53.1084,0,0,1-12.7071,11.5252l-.3939.1982m4.1378-88.1616-.0979.1m9.9469,13.1989,2.3663.2936m0,0,.0978-.0979m-12.3131-13.495.59.3939a53.1585,53.1585,0,0,1,11.5252,12.7071l.2961.2961M819.4164,640.71l-.2961,2.4617m0,0-4.63-5.0212m3.7439-78.5083,4.9257-4.6271m0,0,.0979,2.4616m-26.4,86.9772-.2936,6.7977m9.2593-8.9632-.9861.2961m.9861-.2961,2.0677-.788m0,0v.0954m6.8955-5.8115-.2961,2.3662-.4918.2962c-2.03,1.1015-3.5707,1.9146-5.7137,2.8555l-.3939.0979m-3.0538,1.1844-.4918.0978a47.33,47.33,0,0,1-7.3874,1.7716h-.1l-1.7716-1.5758m23.1483-83.2359.0978,2.3663m-17.0406-10.4437.59.1a47.3162,47.3162,0,0,1,16.2552,7.6834l.1957.0979m-19.01-6.3059,1.97-1.4754m.1957-6.8956-.1957,6.8956M796.5642,651.35h-.5922a53.4277,53.4277,0,0,1-17.1385-.788l-.4943-.0978v.0978m18.225.788v-.0979m0,0L794.79,649.578m-14.4811-.69-1.97,1.5759m0,0,.2961-6.8956m4.4339-92.7887.1958-6.7977m.0978-.1-.0978.1m0,0,1.8719,1.6737m14.4811.69,1.8694-1.5759m0,0h.1m-18.225-.8883.69-.0953a54.2662,54.2662,0,0,1,17.2388.7854l.394.0979M780.5072,642.09l-1.8719,1.478m0,.0979-.4918-.1958a45.719,45.719,0,0,1-16.1549-7.6859l-.1982-.1957m12.3131-82.6437.8883-.2961m-.8883.2961-2.0677.7879m-6.5994,3.35.59-.3939c2.0325-1.1041,3.5707-1.9171,5.7136-2.8581l.2961-.0979h-.0978m11.1312-2.9534,1.7716,1.6737m-9.849.1957.59-.1957a49.2562,49.2562,0,0,1,7.3873-1.7741h.1983m-21.4746,84.91-5.0236,4.63m5.0236-4.63-.0978-2.3638m3.5456-73.6805.2961-2.4616m-4.63-5.0261,4.63,5.0261m-8.7675,83.2359v-.1m0,0v-2.4616m-12.2153-10.9355h-.0978m12.3131,13.4975-.4918-.4944a54.5177,54.5177,0,0,1-11.5252-12.707l-.1983-.394m2.3638.2961-2.3638-.1982m0,0,5.0236-4.7275m2.4642-52.6978-4.63-5.0261m0,0v.1m0-.1,2.4617-.0978m10.7372-9.7512.2961-2.4641m0,0v.1M747.3117,564.37l.4919-.59a54.6825,54.6825,0,0,1,12.707-11.5252l.394-.1982m-15.663,61.37-.2936-.8857m.2936.8857.8882,2.1656m0,0h-.1m3.35,6.6019-.2961-.5922c-1.1016-2.0325-1.9146-3.5707-2.8556-5.7136l-.0979-.394m5.7112,6.9934-2.3638-.3939m-4.5292-9.5529-.2961-.9862a50.4536,50.4536,0,0,1-1.478-6.01l-.0979-.9837m8.8654-35.1653,2.4616-.1m-10.539,17.0431.1957-.5922a47.3312,47.3312,0,0,1,7.6834-16.2527l.1983-.2961m-8.8654,35.3635-6.7976-.2961m6.7976.2961,1.6738-1.8719m5.9093-6.5016v1.38a39.335,39.335,0,0,0,37.4337,39.3031h.4918l.394.0978a39.3976,39.3976,0,0,0,40.2868-36.9393v-.9861l.1-.3915v-.4943a39.385,39.385,0,0,0-36.9393-39.7949H791.44l-.3939-.0979a39.594,39.594,0,0,0-26.6939,9.5554l-.394.2936-.2961.2961a39.1969,39.1969,0,0,0-12.8049,25.8081l-.0979.4918v1.478m5.9094,41.569,4.9258-4.5318"/></g><g class="cls-23"><path class="cls-21" d="M760.4125,637.7574l-.4918-.3939m-10.2455-69.4473.394-.59M760.51,637.6571l-.59-.394m-9.1614-69.1487-.394.4919m69.5426-10.5391-.59-.3939m9.9469,69.643.3965-.5922m-68.953,9.8515.4918.3939m31.62-30.7363,19.01,24.6262m-45.6064-1.7716L787.0086,606.04m0,0h.2961l.0978.0954h.1957l.1.0979h.1957l.1.1h.3915l.1.0979h.0979c.5244-.0226.3061.1556,1.084.1h1.97l.0978-.1h.4944l.0979-.0979h.1957l.0979-.1h.296m6.3059-11.4249,24.5259-19.01m-1.7716,45.6064L799.0256,600.62m0,0,.0978-.1957v-.1l.1-.0979V600.03l.0979-.1v-.1957l.0978-.1958V599.24l.0979-.0954V598.65l.1-.0979v-2.4641l-.1-.1957v-.394l-.0979-.0978v-.3965l-.0978-.0954v-.1982"/></g><g class="cls-24"><polyline class="cls-14" points="575.298 582.565 470.11 582.565 470.411 612.542 429.575 612.542"/><polyline class="cls-25" points="575.298 630.377 502.39 630.377 502.39 641.853 437.791 641.858"/><polyline class="cls-13" points="575.298 558.186 486.959 558.184 486.959 626.22 429.575 626.218"/><polyline class="cls-14" points="575.298 534.552 472.699 535.73 472.699 518.714 429.575 517.532"/></g><polyline class="cls-26" points="528.741 660.513 528.741 670.014 516.604 670.014 516.604 524.185 528.464 524.112 528.464 532.342"/><line class="cls-27" x1="437.7906" y1="612.5442" x2="389.4843" y2="612.5408"/><line class="cls-27" x1="437.7906" y1="627.0157" x2="389.4843" y2="627.0122"/><line class="cls-27" x1="437.7906" y1="641.4219" x2="389.4843" y2="641.4184"/><line class="cls-27" x1="437.7906" y1="516.8578" x2="389.4843" y2="516.8544"/><rect class="cls-11" x="91.36" y="533.571" width="78.8376" height="32.9048"/><polyline class="cls-12" points="152.969 561.031 235.518 557.031 235.925 205.615 412.736 206.669"/><polyline class="cls-13" points="126.008 550.024 221.941 546.024 222.348 191.929 412.736 192.982"/><polyline class="cls-14" points="109.441 539.468 208.377 535.468 208.935 178.246 441.736 179.303"/><rect class="cls-11" x="91.36" y="603.2574" width="78.8376" height="32.9048"/><polyline class="cls-12" points="152.969 630.718 279.518 626.718 279.925 301.301 414.102 301.945"/><polyline class="cls-13" points="126.008 619.71 265.941 615.71 266.348 287.615 414.102 288.328"/><polyline class="cls-14" points="109.441 609.154 252.377 605.154 252.781 273.936 440.31 274.989"/><g class="cls-28"><polyline class="cls-14" points="573.374 243.958 485.186 243.958 485.487 273.936 458.651 273.936"/><polyline class="cls-25" points="573.374 291.771 517.466 291.77 517.466 303.247 466.866 303.251"/><polyline class="cls-13" points="573.374 219.579 502.034 219.578 502.034 287.613 458.651 287.612"/><polyline class="cls-14" points="573.374 195.945 487.775 197.123 487.775 179.107 458.651 178.925"/></g><line class="cls-27" x1="466.8664" y1="273.9374" x2="418.5602" y2="273.934"/><line class="cls-27" x1="466.8664" y1="288.4089" x2="418.5602" y2="288.4055"/><line class="cls-27" x1="466.8664" y1="302.8151" x2="418.5602" y2="302.8117"/><line class="cls-27" x1="466.8664" y1="178.251" x2="418.5602" y2="178.2476"/></svg>