<svg id="Layer_1" data-name="Layer 1" xmlns="http://www.w3.org/2000/svg" viewBox="0 0 959.05 815.102"><defs><clipPath id="clip-path"><path class="cls-1" d="M533.71 121.245h321.428v268.916H533.71z"/></clipPath><clipPath id="clip-path-2"><path class="cls-1" d="M515.845 121.245h339.293v268.916H515.845z"/></clipPath><clipPath id="clip-path-4"><path class="cls-1" d="M528.388 463.16h406.248v268.916H528.388z"/></clipPath><clipPath id="clip-path-5"><path class="cls-1" d="M516.845 464.16v268.916l417.787-1V463.16l-417.787 1z"/></clipPath><clipPath id="clip-path-6"><path class="cls-1" d="M528.387 464.16v268.916l406.248-1V463.16l-406.248 1z"/></clipPath><clipPath id="clip-path-7"><path class="cls-1" transform="rotate(-90 465.749 590.045)" d="M352.918 527.614H578.58v124.861H352.918z"/></clipPath><clipPath id="clip-path-8"><path class="cls-1" d="M583.834 132.307l4.003 225.314-143.343-2.127-4.52-223.187h143.86z"/></clipPath><style>.cls-1,.cls-12,.cls-13,.cls-14,.cls-18,.cls-21,.cls-25,.cls-27{fill:none}.cls-9{fill:#fff;font-size:18.9416px;font-family:Verdana}.cls-12,.cls-13,.cls-14,.cls-18,.cls-21,.cls-25,.cls-27{stroke-linecap:round;stroke-linejoin:round}.cls-11{fill:#221f1f}.cls-12{stroke:#221f1f}.cls-12,.cls-13,.cls-14,.cls-25{stroke-width:9.478px}.cls-13{stroke:#e9262a}.cls-14{stroke:#babcbe}.cls-15{font-size:37.912px;font-family:Verdana-Bold,Verdana;font-weight:700;letter-spacing:.001em;fill:#010101}.cls-17{clip-path:url(#clip-path)}.cls-18,.cls-21,.cls-25{stroke:#231f20}.cls-18{stroke-width:1.089px}.cls-21{stroke-width:1.084px}.cls-27{stroke:#6d6e71;stroke-width:14px}</style></defs><path d="M-1087.815-64.666L124.17-66.28a72.48 72.48 0 0172.384 72.577v1197.622a72.481 72.481 0 01-72.384 72.577l-1221.216 1.614a72.48 72.48 0 01-72.385-72.577V17.167c-4.159-48.342 21.402-82.659 67.571-81.83" fill="#434343"/><rect x="-1148.225" y="-45.302" width="1323.295" height="1296.396" rx="51.041" transform="rotate(180 -486.577 602.896)" fill="#4f4e51"/><path fill="#323031" d="M83.672 82.16h80.304v716.166H83.672z"/><path d="M119.527 759.205a4.722 4.722 0 114.722 4.721 4.72 4.72 0 01-4.722-4.72m21.132-.001a4.722 4.722 0 114.718 4.721 4.717 4.717 0 01-4.718-4.72m-43.114-.001a4.72 4.72 0 114.719 4.721 4.717 4.717 0 01-4.719-4.72m21.982-71.47a4.722 4.722 0 114.722 4.722 4.72 4.72 0 01-4.722-4.722m21.132 0a4.722 4.722 0 114.718 4.722 4.717 4.717 0 01-4.718-4.722m-43.114 0a4.72 4.72 0 114.719 4.722 4.717 4.717 0 01-4.719-4.722m21.982-71.468a4.722 4.722 0 114.722 4.72 4.72 4.72 0 01-4.722-4.72m21.132 0a4.722 4.722 0 114.718 4.72 4.717 4.717 0 01-4.718-4.72m-43.114 0a4.72 4.72 0 114.719 4.72 4.717 4.717 0 01-4.719-4.72m21.982-71.469a4.722 4.722 0 114.722 4.72 4.72 4.72 0 01-4.722-4.72m21.132 0a4.722 4.722 0 114.718 4.72 4.717 4.717 0 01-4.718-4.72m-43.114 0a4.72 4.72 0 114.719 4.72 4.717 4.717 0 01-4.719-4.72m21.982-71.469a4.722 4.722 0 114.722 4.72 4.72 4.72 0 01-4.722-4.72m21.132 0a4.722 4.722 0 114.718 4.72 4.717 4.717 0 01-4.718-4.72m-43.114 0a4.72 4.72 0 114.719 4.72 4.717 4.717 0 01-4.719-4.72m21.982-71.468a4.722 4.722 0 114.722 4.72 4.72 4.72 0 01-4.722-4.72m21.132 0a4.722 4.722 0 114.718 4.72 4.717 4.717 0 01-4.718-4.72m-43.114 0a4.72 4.72 0 114.719 4.72 4.717 4.717 0 01-4.719-4.72m21.982-71.469a4.722 4.722 0 114.722 4.719 4.72 4.72 0 01-4.722-4.72m21.132.001a4.722 4.722 0 114.718 4.719 4.717 4.717 0 01-4.718-4.72m-43.114.001a4.72 4.72 0 114.719 4.719 4.717 4.717 0 01-4.719-4.72m21.982-71.468a4.722 4.722 0 114.722 4.719 4.72 4.72 0 01-4.722-4.719m21.132 0a4.722 4.722 0 114.718 4.719 4.717 4.717 0 01-4.718-4.719m-43.114 0a4.72 4.72 0 114.719 4.719 4.717 4.717 0 01-4.719-4.719m21.982-71.468a4.722 4.722 0 114.722 4.718 4.72 4.72 0 01-4.722-4.719m21.132.001a4.722 4.722 0 114.718 4.718 4.717 4.717 0 01-4.718-4.719m-43.114.001a4.72 4.72 0 114.719 4.718 4.717 4.717 0 01-4.719-4.719m21.982-71.468a4.722 4.722 0 114.722 4.718 4.72 4.72 0 01-4.722-4.718m21.132 0a4.722 4.722 0 114.718 4.718 4.717 4.717 0 01-4.718-4.718m-43.114 0a4.72 4.72 0 114.719 4.718 4.717 4.717 0 01-4.719-4.718" fill="#6a5f27"/><path d="M23.483 448.042a7.788 7.788 0 013.195-3.03 10.108 10.108 0 014.765-1.087h1.844a10.087 10.087 0 014.772 1.087 7.768 7.768 0 013.19 3.05 8.946 8.946 0 011.128 4.526v5.475H22.353v-5.6a8.67 8.67 0 011.13-4.421zm7.933-2.44a8.94 8.94 0 00-4.008.852 6.3 6.3 0 00-2.668 2.407 6.814 6.814 0 00-.943 3.602v3.907h17.15v-3.782a6.97 6.97 0 00-.964-3.7 6.374 6.374 0 00-2.695-2.434 8.946 8.946 0 00-4.001-.853zm10.961-6.366H22.353v-1.692h20.024zm-4.078-20.966a7.65 7.65 0 013.218 10.912 7.456 7.456 0 01-3.225 2.752 11.37 11.37 0 01-4.855.975h-2.144a11.427 11.427 0 01-4.855-.968 7.45 7.45 0 01-3.225-2.739 7.366 7.366 0 01-1.134-4.076 7.206 7.206 0 014.352-6.849 11.518 11.518 0 014.862-.961h2.144a11.565 11.565 0 014.862.955zm-11.131 1.453a5.846 5.846 0 00-2.668 2.109 5.744 5.744 0 00-.936 3.294 5.643 5.643 0 00.936 3.247 5.914 5.914 0 002.675 2.109 10.442 10.442 0 004.09.738h2.173a10.413 10.413 0 004.104-.745 5.981 5.981 0 002.683-2.123 5.645 5.645 0 00.942-3.253 5.735 5.735 0 00-.935-3.3 5.8 5.8 0 00-2.674-2.09 10.798 10.798 0 00-4.12-.717h-2.172a10.49 10.49 0 00-4.098.73z" fill="#fff"/><path d="M51.649 763.928H32.222V476.935m-.002-78.491V127.217h19.427" stroke-miterlimit="10" stroke-width="4.694" stroke="#fff" fill="none"/><path d="M147.098 67.78V48.89m-23.752 19.017l-.549-31.913M99.615 67.78V54.181m51.88-12.749h-8.794m12.283 3.736h-15.78m19.622 3.715H135.37" stroke-width="1.189" stroke-miterlimit="2" stroke="#fff" fill="none"/><text class="cls-9" transform="matrix(1 0 0 1.0056 108.966 29.065)">5V</text><text class="cls-9" transform="matrix(1 0 0 1.0056 92.609 48.678)">S</text><path d="M96.789 67.914h5.51v5.994h-5.51zm23.527-.443h5.51v5.994h-5.51zm23.847.078h5.51v5.994h-5.51z" stroke-linecap="round" stroke-linejoin="round" stroke-width="1.189" stroke="#fff" fill="#fff"/><path class="cls-11" d="M91.36 675.178h78.838v32.905H91.36z"/><path class="cls-12" d="M152.969 702.638l170.549-2 1.407-156.416 57.811 1.053"/><path class="cls-13" d="M126.008 691.631l183.933-2 1.407-159.096 71.388 1.054"/><path class="cls-14" d="M109.441 681.074l186.936-2 1.558-162.221 113.801 1.057"/><path class="cls-11" d="M91.36 754.864h78.838v32.905H91.36z"/><path class="cls-12" d="M152.969 782.325l214.549-2 1.407-140.417 15.177.644"/><path class="cls-13" d="M126.008 771.317l227.933-2 1.407-143.095 28.754.712"/><path class="cls-14" d="M109.441 760.761l230.936-2 1.404-146.219 68.529 1.054"/><text class="cls-15" transform="translate(639.593 773.037)">AMT102</text><text transform="translate(228.485 75.673)" font-size="32" letter-spacing=".001em" fill="#010101" font-family="Verdana">AM10 Series Modular Incremental Encoder</text><text class="cls-15" transform="translate(599.344 435.7)">AMT103</text><g class="cls-17"><path class="cls-18" d="M546.737 338.687l-1.683-3.37v-33.489m0-116.03v-9.808m0 0l1.683-3.37m220.166 216.996H592.514l-3.37-.89m177.76.89l-.2-.991m83.43-95.022l.198 2.477-.494 1.686a145.098 145.098 0 01-81.648 91.253l-1.287.5m0-267.728l1.684.693a144.784 144.784 0 0181.349 91.456l.396 1.287-.198 2.575m-260.99-95.12l3.37-.891h174.39l-.2.89m-177.56 266.044v-4.462m0 4.462l.1-.1m-.1-261.584v-4.359m.1 0h-.1m254.45 170.92h6.54m-.098.1l.098-.1m0-75.8h-6.54m6.54 0l-.098-.098M554.664 338.687h-7.926m.1 0h-.1m0-166.067h8.024m-8.024 0l.1.1m42.505 211.15v1.19a27.546 27.546 0 01-.098 3.467v.098m177.46 0h-177.46m-.1-4.361l-.891-1.187m.89 1.187l.199-.397m-3.368-4.557l1.19 1.586 1.19 1.488.988 1.483m-33.886-44.191l-.793-.989.397-.198m31.707-33.69h-4.26m21.5 0h-17.34m-4.16.1v-.1m-30.518-.098h4.953l.1.098h25.465m-30.717.1h4.261m-9.214 33.788l-.1-.1h.1c2.318-.103 4.404-.123 6.737-.098h1.486m0 0l.396.396.296.495.299.396m47.955-34.977v-11.495m0 11.495l.198.199m-.198-11.694h-17.34m17.34 0l.198-.198m-17.339-98.786h-.198m17.34 0h-.593m-46.472-11.395l.1-.098m0 0h29.725m17.239 0h-17.34m-29.724.098h-4.954m52.018 11.395v-11.493l.198-.198m-.198 11.691l.198.198m-52.414 9.217v8.818m0 14.96v8.817m0 14.963v8.818m0 14.963v8.817m0 15.854v5.155m.198-121.975v121.776l-.198.199m.198-121.975l-.198-.198m4.261-.098h-2.873l-1.388.098v5.152m3.368-15.061h-1.486c-2.276-.045-4.57.103-6.835-.098m164.083 11.395l3.864.098 3.864.298 3.764.495a71.576 71.576 0 0159.947 65.891l.198 3.865-.098 3.766a71.58 71.58 0 01-61.93 68.17l-3.863.394-3.862.198h-3.767l-3.864-.198a71.707 71.707 0 01-65.595-64.7l-.196-3.864-.1-3.767a71.713 71.713 0 0160.143-69.756l3.864-.494 3.766-.299 3.865-.098M582.508 304.998v-.098m-26.456 0h26.456m-26.456 0v34.877m0 0l29.923 39.534m0 0h178.848M556.052 171.629v11m48.153 11.89v-11.89h-48.153m48.153 11.89v.097m0 110.382v-11.892h-2.97m2.97 11.892h-21.697M554.762 172.62l.695-.89m-.695.89l.397.198m30.816-40.723l-29.923 39.534-.893 1.189m33.095-44.487l.89-1.29.199.497m-.098-4.856v.198a27.531 27.531 0 01.098 3.468v1.19m0 0l-.989 1.385-2.379 3.171m178.848 0H585.975m3.27-9.412h177.46M843.1 229.099l-.299-1.684a134.657 134.657 0 00-77.384-95.122l-.497-.296m78.18 85.509l1.583.098c1.368.085 3.77-.146 5.057.1h.296m-85.213-85.61v-.098c.572-3.059 1.29-6.065 1.882-9.116v-.199l1.683.695a144.023 144.023 0 0181.252 92.644l.494 1.583m-.098 76.1h-.198a42.275 42.275 0 01-4.26.096H843.1m-78.277 85.511l1.586-.693a134.98 134.98 0 0076.691-95.915l.098-.396m-78.375 97.004v.1c.56 3.081 1.322 6.04 1.882 9.116v.098m83.331-94.921l-.396 1.683a144.54 144.54 0 01-81.45 92.644l-1.388.595m76.792-170.823v.695m0-.695l-.494-.296m.494 75.404v.693l-.494.195v-76.292m-214.517 71.638l-1.29 1.19-1.586-1.19-1.784-.991-1.485-.397-1.486-.198-2.08.299-1.982.792-1.684 1.388-.991 1.385-.595 1.488-.198 1.684.396 2.18 1.09 1.98 1.585 1.586 1.486.793 1.684.494 1.784.201 1.683-.2 1.687-.495 1.387-.991.891-.991.693-1.187.298-1.29h-5.548v-1.784h7.134l-.198 1.885c-.685 3.791-2.612 5.585-6.243 6.637l-1.983.1-2.278-.199-2.18-.695-1.484-.99-1.29-1.288-.99-1.388-.696-1.586-.296-1.287-.098-1.388.196-1.98a8.54 8.54 0 016.838-6.64l1.982-.198 2.376.198 2.281.793 1.584 1.09 1.39 1.189M612.43 260.11h1.983l4.853 7.729 4.956-7.729m1.884 0l-5.846 9.218m0 0l6.143 9.51h-1.983l-5.154-8.025-5.152 8.025h-1.882l6.045-9.51-5.846-9.217m11.79 0h1.885m-5.352-23.78l8.72 18.727h-1.884l-2.773-5.945h-8.424l-2.87 5.945h-1.885l8.918-18.727h.198m-3.468 10.8h6.637l-3.27-7.132-3.367 7.132m9.907-34.578h1.784m14.27 0l-7.929 18.727m0 0h-.196l-7.929-18.727m1.784 0l6.243 14.762 6.243-14.762h1.785m-28.539 9.413l1.882-9.413m0 0h7.731m0 0v1.98h-6.343l-1.09 4.856 1.288-.297h.991l1.684.199 1.686.79 1.287 1.19.891 1.884.299 1.982-.198 1.98-.793 1.784-1.288 1.486-1.29.792-1.387.497-1.584.098-1.585-.198-1.388-.595-1.287-1.089-.991-1.586-.397-1.784h1.684l.298.992.593.89.795.796 1.187.494 1.19.198 1.387-.198 1.287-.595.991-.99.891-1.386.198-1.586-.198-1.29-.494-1.187-.89-.893-1.389-.595-1.485-.198-2.379.396-1.784.595m1.684-25.266h2.28a3.829 3.829 0 003.865-2.379l.098-.89-.098-.595-.198-.695-.397-.495-.594-.396-1.29-.397-1.386-.098h-2.28v5.945m-1.684-7.927h3.666l1.586.098 1.586.397 1.385.792.793.992.397 1.186.2 1.192-.2 1.288-.492 1.287-.597.793-.891.595 1.683.793 1.19 1.29.595 1.284.198 1.488-.299 1.586-.793 1.486-1.19 1.189-1.78.793-1.983.198h-5.054v-18.727m1.684 16.845h2.379l1.19-.1c1.881-.023 3.301-.635 3.961-2.477l.199-.793-.296-1.387-.894-1.09-.89-.594-.992-.299-1.98-.198h-2.677v6.938m-5.25-7.234v90.267m-9.116-.497l.495.1a42.78 42.78 0 007.036.397h1.586l-.098.098-3.272 2.18-1.684.89-1.885.794-1.485.296-1.486.198m0 0h-.396m0-99.182l1.684.098 1.683.496m0 0l1.785.696 1.686.89 3.37 2.178.098.1h-1.586a42.507 42.507 0 00-7.036.397l-.495.098m-55.29 101.265l-1.683 1.686h-6.143m7.826-1.787v-.097h.1a35.71 35.71 0 013.764-.199h1.19m0-.1v.1m-12.88-113.947h6.143m6.737 2.18v-.1m-5.054-.295l.1.098c1.247.07 2.505.238 3.764.198h1.19m-5.054-.397l-1.684-1.683m41.813 107.307h13.972m0 0h-1.09l-.89-.098-.795-.1-.495-.098m0-98.59l.495-.098.795-.1.89-.097h1.09m-13.972 0h13.972m-66.584-3.468v106.615m8.817 1.982l-4.16 2.775-.893-.1a4.695 4.695 0 01-3.666-3.668l-.098-.989 4.16-2.773m0-101.067l-4.16-2.775.098-.89a4.701 4.701 0 013.666-3.67l.893-.097 4.16 2.775m58.956 99.58v-89.278m-4.459 93.933l-3.568-.693m3.568.693l.793-.098a4.511 4.511 0 003.566-3.668l.1-.891m-3.468-.695l3.468.695m0-89.276l-3.468.695m3.468-.695l-.1-.89a4.511 4.511 0 00-3.566-3.667l-.793-.1m-3.568.695l3.568-.695m-53.804 80.854v8.818m0-32.598v8.818m0-32.599v8.818m0-32.596v8.818m-5.35 81.745l.1.989a4.64 4.64 0 003.666 3.666l.89.1m0-4.755v4.755m8.324 0h-8.323M594 292.117l.893-.1c1.875-.18 3.16-1.952 3.566-3.666l.1-.893m-4.559 4.66h-6.737m6.737 0v-4.66m-50.929 6.84h8.324m0-9.217v9.216m0 0v4.755m0-13.971l.396-1.19v15.754l-.396-.592m-7.631-15.162h8.027m-8.027 0l-1.187 1.19m.494 0h8.324m.396-10.007h-8.027l-1.187-1.19m1.187-13.773h8.027m-8.027 0l-1.187 1.19m8.818 12.583h-8.324m0-12.584h8.324m0 0l.396-1.19v14.964l-.396-1.19m0-12.584v12.584m.396-22.591h-8.027l-1.187-1.19m1.187-13.773h8.027m-8.027 0l-1.187 1.192m8.818 0l.396-1.192m0 0v14.963l-.396-1.19m-8.324-12.581h8.324v12.582m0 0h-8.324m8.72-22.592h-8.027l-1.187-1.189m8.818 0h-8.323m.692-13.771h8.027m-8.027 0l-1.187 1.188m.494 0h8.324m0 0l.396-1.187m-.396 1.187v12.584m.396-13.77v14.96l-.396-1.19m.396-22.59h-8.027l-1.187-1.191M594 287.458h4.56m0-87.886v87.886m-11.297 0H594v-87.886m0 0h-6.737m0-4.657H594m4.56 4.657H594v-4.657m4.56 4.657l-.1-.893c-.6-2.05-1.438-3.12-3.566-3.664l-.894-.1m-42.605 7.628h-8.323m0-9.312v9.312h-.495m-4.163 91.755V193.231m0 101.067h4.658m-.495-91.755v11.197h.495v12.584h-.495v11.2h.495v12.58h-.495v11.197h.495v12.584h-.495v11.197h.495v9.217m0-105.725h8.323m0 4.658h-8.323m0-4.658v4.658h-4.658m4.658-4.658l-.891.098a4.678 4.678 0 00-3.666 3.666l-.1.894m13.377-5.252v15.755l-.397-1.191m.397-14.564l-.397.594m0 0v4.658m0 0v9.312m35.868 84.914v-87.886m0 0v-4.657m-.594-.595l.198.198v-.594l.396.99m-.594-.594v-11.493m.1 0h-.1m-.098 0V304.8m.198 0h-.1m0 0v-11.495m0 0l.198-.198m0 0v.1m0-.1l.397-.989m0 0v-4.66m-40.525 12.584v38.546m0-165.867v14.863"/><path class="cls-18" d="M762.939 232.666l-.198-.695a58.764 58.764 0 00-12.484-17.537l-.198-.198m12.88 18.43l.298.891m0 0l-.396.793m0 0l.296.595a55.286 55.286 0 013.864 17.44v.196m.695.496l-.695-.496m.695.496l.1.992m-3.864 22.094l.296-.693a56.682 56.682 0 003.568-21.203v-.198m-3.864 22.094l-.396.893m0 0l-.796.296m0 0l-.198.595a57.461 57.461 0 01-9.61 15.063h-.099m.098.989l-.098-.893m.098.893l-.692.693m-18.23 12.983l.692-.299a57.644 57.644 0 0017.538-12.584l.098-.1m-18.328 12.983l-.994.294m0 0l-.693-.294m0 0l-.594.198a54.614 54.614 0 01-17.44 3.865h-.198m-.494.69l.396-.69m-.396.69l-1.09.1m-22.096-3.764l.692.198a56.959 56.959 0 0021.204 3.566h.298m-22.194-3.764l-.891-.495m0 0l-.198-.695m0 0l-.595-.298a56.046 56.046 0 01-15.06-9.61l-.199-.1m-.793.1l.793-.1m-.793.1l-.793-.593m-12.98-18.333l.299.595a57.604 57.604 0 0012.581 17.54l.198.098m-13.078-18.233l-.296-.991m0 0l.396-.693m0 0l-.198-.695a54.095 54.095 0 01-3.864-17.437v-.198m-.695-.397l.594.495m-.594-.495l-.196-.99m3.862-22.098l-.198.595a58.067 58.067 0 00-3.566 21.204v.198m3.764-21.997l.399-.89m0 0l.79-.3m0 0l.298-.692a56.625 56.625 0 019.611-15.06l.098-.199m-.098-.692l.098.793m-.098-.793l.595-.793m105.227 24.573l-.098-.793-.396-1.585a65.575 65.575 0 00-77.09-47.266l-.79.199-.696.1a65.619 65.619 0 00-49.047 76.691l.397 1.586.1.693.198.793a65.61 65.61 0 0076.493 48.253l1.586-.396a65.436 65.436 0 0049.837-75.997l-.098-.793-.396-1.585m-8.225 1.982l.198.595.1.692.198.695a57.156 57.156 0 01-42.903 66.09l-.693.098-.595.198a57.08 57.08 0 01-67.276-41.912l-.201-.693-.098-.695-.198-.595-.1-.692a57.003 57.003 0 0142.013-66.587l.693-.198.695-.098c29.61-7.001 60.142 11.567 67.673 41.022l.396 1.385.098.695m7.83-1.784l-.099-.793-.198-.793-.198-.79a65.14 65.14 0 00-76.594-46.97l-.793.201-.692.098a65.187 65.187 0 00-48.751 76.197l.198.79.201.793.098.695.198.79a65.174 65.174 0 0075.997 47.958l1.585-.394a65.008 65.008 0 0049.542-75.505l-.098-.793-.397-1.583m-203.32-109.984l.197.1m-18.134 23.878l-.098-.097m0 201.24l.098-.1m18.135 23.881l-.199.098m279.22-164.778l.1.595m-279.32-84.817l1.09-1.19c2.165-2.481 4.416-4.652 6.64-7.033l1.186-1.092h12.288m-53.109 63.91h5.35v-16.05l1.089-2.082c2.228-4.023 4.442-8.023 6.938-11.89l.495-.793m-8.523 186.577v-39.733h-5.35m13.872 54.497l-1.189-1.984c-2.326-3.894-4.76-7.96-6.835-11.987l-.397-.89m47.66 48.055h-12.289l-1.583-1.684-1.586-1.586-4.755-5.053-.893-1.09m279.221-84.719l-.1.595M558.331 194.718l-.695 1.782-.595 1.684m0 0v106.614m-10.105 40.824l.693 1.288c1.56 2.677 3.156 5.37 4.757 8.027l.79 1.287m0 0l2.48-.793m0 0l1.287 1.885a215.246 215.246 0 0015.06 19.816l.693.793m0 0l-1.385 2.18m0 0l4.755 5.051 1.586 1.586 1.586 1.684.89.893m0-267.33l-1.189 1.19c-2.23 2.296-4.526 4.519-6.637 6.935l-.99 1.19m0 0l1.384 2.18m0 0l-1.485 1.684a177.31 177.31 0 00-14.863 19.916l-.595.891m-.097 0l-2.48-.793m0 0l-.79 1.287c-1.593 2.64-3.164 5.29-4.757 7.927l-.693 1.388m2.675 179.146l-2.675.693m0-6.936v6.936m2.675-179.147l-2.675-.692m0 0v6.835m303.595 122.767l.494-1.784a146.061 146.061 0 003.37-15.655l.199-1.187m-.098 0l-2.38-.894m0 0l.297-1.784a142.798 142.798 0 00-.196-38.344l-.1-.299m0 0l2.379-.79m0 0l-.198-1.785a157.16 157.16 0 00-3.37-15.655l-.397-1.19M581.218 386.645l-1.089 2.675m0 0h10.602m-9.513-264.555l-1.089-2.775m10.602 0h-10.602m-16.744 227.796l.594-.399m286.256-54.396l.296.397m-2.08-2.776l.692.991m1.092 1.785h.198m0 0h.098m-.296-79.07l.296-.296m-2.08 2.772l.693-.988m1.387-1.784h-.098m0 0h-.198m-7.136 3.169v.1m0 72.928v.097M563.385 161.623l.594.394m16.745 209.566l-.497.397m.497-232.155l-.497-.397m4.758 237.801l-4.261-5.646m-16.745-22.197l-3.964-5.151m0-177.064l3.964-5.154m16.745-22.192l4.26-5.648m258.114 85.012l1.388-.098h1.29l.989-.1.893-.098h.497l.296-.1.79 3.174a141.898 141.898 0 01.299 66.286l-1.09 4.359-.198-.098a40.8 40.8 0 00-4.557-.299h-.597m0-73.025v16.548m0 39.931h4.063l.198-9.312.1-9.317-.1-10.7-.198-10.702h-3.07l-.993.1m0 39.93v16.546m-293.19 47.958l-1.484-1.485m42.01-216.402l.297-.296m-3.071 3.171l1.485-1.585m-1.586 7.231v.1m3.172-8.621v-.296m-40.824 49.144l-1.385 1.486m11.593-13.573l1.782 1.387 1.488 1.19m-3.27-2.577l5.249-7.134 5.352-7.036 6.241-8.025m4.26-12.087l.199.098h.299l2.376.198h1.388l2.18.1-.1 2.178v3.468l-2.574 3.37-.595.692a162.54 162.54 0 00-3.568 3.865l-.595.695-.098-.1-1.19-.89-1.287-.992-.695-.595m-13.572 24.772l-.397.693c-.848 1.395-1.729 2.767-2.577 4.16l-.396.695-2.874 3.864h-4.755l-1.29.098h-1.19v-1.486l-.097-1.29v-1.284l-.1-.497-.098-.1 1.19-1.98a177.93 177.93 0 0130.121-39.436l.296-.397M587.56 380.5v.1m2.876 8.42l.296.3m-3.071-3.072l1.485 1.485m1.586 1.586v-.198m-41.12-44.191l.098-.1.1-.595v-1.19l.098-1.384v-1.488l1.488.1h1.683l1.785.098h2.278l2.873 3.864.397.695c.848 1.393 1.729 2.768 2.577 4.16l.396.695-.793.693-1.586 1.186 10.8 14.17 6.243 7.83 1.586-1.19.593-.494m0 0l.594.692a161.575 161.575 0 003.568 3.865l.595.692 2.575 3.27v2.873l.1 2.876h-2.18l-1.883.098-.89.1h-.696l-.494.098-.299.1-1.583-1.687a187.145 187.145 0 01-29.728-39.634l-.198-.494m13.578-160.12l.89-1.883M688.33 321.15l-.793-.299a74.107 74.107 0 01-10.007-4.559l-.595-.394m29.13 8.916l-.793-.098-3.766-.397-3.764-.594-3.666-.79-.397-.199m30.42.99l-.793.1a69.13 69.13 0 01-11 1.088h-.693m-152.39-114.542v-4.459m0 28.24v-4.459m0 28.24v-4.459m0 28.24v-4.459m0 27.545v-3.764m22.293-18.43l-2.776-2.776m0 0h-17.536l-2.873 2.775m0 0v17.54m0 0l2.873 2.773m0 0h17.538m0 0l2.775-2.773m0 0v-17.54m-8.522 11.791h-6.143m1.882-1.882h2.38m-4.262 1.882v-6.046m0 6.045l1.882-1.882m0-2.278v2.278m2.38-2.278h-2.38l-1.882-1.885h6.143m-1.882 4.163v-2.278l1.882-1.885v6.045l-1.882-1.882m1.882-21.896h-6.143m1.882-1.885h2.38m-4.262 1.885v-6.045m0 6.045l1.882-1.885m0-2.278v2.278m2.38-2.278h-2.38l-1.882-1.882h6.143m-1.882 4.16v-2.278l1.882-1.882v6.045l-1.882-1.885m1.882-21.898h-6.143m0 0v-6.043m0 6.043l1.882-1.882m2.38-2.279h-2.38l-1.882-1.882h6.143m-4.26 1.882v2.279m0 0h2.378m0 0v-2.279l1.882-1.882v6.043l-1.882-1.882m1.882-21.899h-6.143m1.882-1.882h2.38m-4.262 1.882v-6.045m0 6.045l1.882-1.882m0-2.278v2.278m4.261-4.163v6.045l-1.882-1.882m0 0v-2.278m0 0l1.882-1.885m-1.882 1.885h-2.379l-1.882-1.885h6.143m0-17.733h-6.143m1.882-1.884h2.38m-4.262 1.884v-6.045m0 6.045l1.882-1.885m0-2.278v2.278m4.261-4.16v6.045l-1.882-1.884m0 0v-2.279m0 0l1.882-1.882m-1.882 1.882h-2.379l-1.882-1.882h6.143m-11.791 62.82l-2.873 2.773m0 0v17.538m0 0l2.873 2.775m0 0h17.537m0 0l2.776-2.775m0 0v-17.538m0 0l-2.776-2.772m0 0h-17.537m0-23.781l-2.873 2.775m0 0v17.535m0 0l2.873 2.775m0 0h17.538m0 0l2.775-2.775m0 0v-17.535m0 0l-2.776-2.775m0 0h-17.537m0-23.78l-2.873 2.775m0 0v17.537m0 0l2.873 2.773m0 0h17.538m0 0l2.775-2.773m0 0v-17.537m0 0l-2.776-2.776m0 0h-17.537m17.538-23.78h-17.538l-2.873 2.772m0 0v17.54m0 0l2.873 2.776m0 0h17.538m0 0l2.775-2.776m0 0v-17.54m0 0l-2.776-2.772M556.943 304.7V182.925"/></g><g clip-path="url(#clip-path-2)"><path class="cls-18" d="M719.64 208.787l-2.278-.298m0 0v-.098m-7.334-.4h.893a43.597 43.597 0 015.548.3l.893.1m11.194 3.07l.695 2.28m-8.62-4.756l.596.098a39.718 39.718 0 016.737 1.982l.592.199v.097m2.776 94.824l-.098-.098m0 0l-2.18-1.091m-15.754 5.057h.098m17.934-3.867l-.595.198a55.29 55.29 0 01-16.943 3.669h-.296m-4.953-100.079l1.483-1.882m-1.483-6.737l1.483 6.737m4.757 99.978l-1.485 1.983m0 0l-1.488-6.74m-21.204-98.094v.1m16.449-1.982l1.488-1.983m0 0h-.1m-16.348 10.602l-1.488-6.737.695-.296a56.474 56.474 0 0116.842-3.666h.299m-17.836 3.962l2.18 1.19m9.413 96.21l-.991-.198m.99.199l2.282.296m7.33.497h-.891a51.372 51.372 0 01-5.548-.4l-.89-.097v.098m8.817-1.586l-1.488 1.884m-10.602-.89l-.989-.3a42.405 42.405 0 01-5.947-1.78l-.99-.3m0-.097l-3.665 5.743m3.664-5.743l-.693-2.38m-.494-85.61l2.178 1.092m-17.735 9.611l.494-.497a48.16 48.16 0 0114.765-10.205l.396-.098m-15.26 13.177l-.299-2.376m-5.844-3.666l5.844 3.666m-2.376 73.123l3.666-5.746m11.694 15.756v-.103m0 0l-.695-2.276m-12.288-7.927l-2.376.296m15.359 10.01l-.597-.301a54.955 54.955 0 01-14.466-9.41l-.296-.299-.1.1m-7.53-57.766l-5.747-3.666m10.306-12.98l-.396-2.478m0 0v.098m-10.009 15.26l.296-.693a54.867 54.867 0 019.415-14.466l.296-.298m-10.007 15.46l.098.098m0 0l2.379-.793m17.04 56.082l-2.376.296m-.1 0l-.396-.494a47.475 47.475 0 01-10.206-14.863l-.097-.1m0 0l-6.64 1.486m6.64-1.486l1.189-2.178m-4.26-25.467l.197-.991m-.198.991l-.396 2.281m-.397 7.43v-.991a45.051 45.051 0 01.296-5.548l.1-.891v.098m2.971-11.197l2.38-.793m-4.756 8.62l.198-.595a39.2 39.2 0 011.983-6.737l.195-.595h.1m-1.488 20.017l-1.98-1.388m-6.64 1.486l6.64-1.486m-2.775 19.42v.1m0-.1l1.19-2.179m-3.072-14.267l-1.982-1.488m0 0h-.098m3.962 17.934l-.198-.693a55.152 55.152 0 01-3.666-16.845v-.494m75.404-35.87l-.793-.593-.396-.198a39.64 39.64 0 00-53.11 12.682l-.198.495-.296.396a39.583 39.583 0 0011.79 53.605l.396.296.497.198.79.595a39.64 39.64 0 0053.21-12.09l.298-.394.198-.497c11.49-17.485 6.314-42.138-11.098-53.704l-.793-.594-.495-.199m-39.237-15.753l1.485 6.64m0 0l-.494.198a44.796 44.796 0 00-16.449 11.392l-.298.397m-.098 0l-5.746-3.566m0 0l-.397.397a56.192 56.192 0 00-7.234 11.394l-.198.397m-.098 0l5.746 3.666m0 0l-.198.494a46.295 46.295 0 00-3.568 19.72v.494m0 0l-6.638 1.586m0 0l.098.593a55.264 55.264 0 002.873 13.178l.199.397m-.098.1l6.64-1.486m0 0l.296.495a45.588 45.588 0 0011.395 16.448l.399.296m-.103.1l-3.666 5.747m0 0l.497.396a56.752 56.752 0 0011.394 7.232l.495.198m-.098.1l3.666-5.847m0 0l.594.199a46.33 46.33 0 0019.719 3.568h.396m0 .095l1.486 6.642m0 0l.692-.1a53.3 53.3 0 0013.179-2.873l.396-.198m0 .098l-1.485-6.637m0 0l.595-.3a46.244 46.244 0 0016.546-11.391l.298-.299m-.1 0l5.847 3.566m0 0l.494-.494a56.77 56.77 0 007.235-11.395l.198-.397m-.1 0l-5.746-3.565m0 0l.298-.598a45.558 45.558 0 003.566-19.715v-.595m-.098.1l6.738-1.488m0 0v-.692a53.424 53.424 0 00-2.876-13.18l-.198-.496m-.098.1l-6.64 1.485m0 0l-.198-.592a44.824 44.824 0 00-11.393-16.448l-.399-.299m0 0l3.667-5.746m0 0l-.394-.494a55.52 55.52 0 00-11.395-7.235l-.497-.198m0 0l-3.666 5.746m0 0l-.497-.296a46.235 46.235 0 00-19.715-3.568h-.495m0 .098l-1.488-6.637m0 0h-.595a54.043 54.043 0 00-13.178 2.873l-.397.198m-.595 118.404l.1-.096v-.102l.098-.096v-.196l.199-.198v-.1l.1-.1v-.098h.097v-.1l.1-.098v-.098l.199-.198v-.1l.296-.296v-.1h.1v-.098l.098-.1h.1v-.098l.097-.1h.1v-.1l.098-.098h.1v-.1l.098-.098h.1v-.098h.098l.296-.298h.1l.198-.198h.098l.1-.098h.1v-.1h.098l.1-.098h.098l.198-.198h.198l.1-.098h.098l.098-.1h.1l.098-.098h.198l.1-.103h.198l.098-.095h.299l.098-.1h.396v-.098h.199c.935.052.399-.13.99-.1h.199c.758-.04.1.15 1.091.1h.196v.098h.397l.1.1h.296l.1.095h.198l.098.103h.198l.1.098h.098v.1h.198l.1.098h.198l.199.198h.098l.097.098h.1v.1h.098l.1.098h.098l.198.198h.1l.296.298h.1v.098h.1l.098.098v.1h.1l.098.098v.1h.098l.1.1v.098h.098l.1.1v.098h.098v.1l.298.296v.1l.196.198v.098l.1.098v.1h.098v.098l.1.1v.1l.198.198v.198l.1.096v.102l.098.096v.103l.1.097v.199l.098.098v.198l.1.1v.296l.098.1v.394h.1v.695m4.063.198l.097-.098v-.396l.1-.1v-.396h.098v-.296l.098-.1v-.198l.1-.098v-.1l.098-.098v-.1l.1-.098v-.198h.098v-.098l.1-.103v-.198l.198-.196v-.099l.098-.1v-.098h.1v-.1l.296-.298v-.098h.1v-.098l.494-.497v-.098h.1l.296-.298h.1v-.098l.098-.1h.098l.198-.199h.1l.198-.198h.098l.201-.198h.098l.1-.098h.098v-.1h.1l.098-.098h.198l.1-.1h.098l.097-.098h.1l.098-.1h.299v-.097h.198l.098-.098h.396l.1-.1h.397l.098-.098h2.082l.098.098h.397l.098.1h.396v.098h.299l.098.097h.198l.1.1h.098l.1.098h.098l.1.1h.198v.098h.098l.1.1h.195l.199.198h.1l.097.098h.1v.098h.098l.299.299h.098v.1h.1l.494.494h.1v.1l.296.296v.1h.1l.098.098v.098l.198.198v.1l.198.198v.1l.199.199v.095l.1.103v.095h.097v.103l.1.098v.198l.098.098v.1l.1.098v.1l.098.098m-50.334-8.025l.198-.198v-.1h.098v-.098l.1-.1h.098v-.098l.1-.098h.098v-.1l.1-.098h.098v-.1l.098-.098h.1v-.1l.098-.098h.103v-.1h.095l.1-.097h.098v-.1h.1l.198-.199h.098v-.098h.2l.196-.2h.1l.098-.098h.1l.098-.1h.1l.098-.098h.198l.1-.098h.098l.1-.1h.198l.1-.098h.296v-.1h.296l.1-.098h.593l.1-.1h1.784l.098.1h.496v.098h.397l.1.1h.196l.1.098h.195l.1.1h.198l.098.098h.1l.098.098h.1l.098.1h.1l.098.098h.1l.098.1h.1l.198.198h.098l.1.1h.1v.098h.098l.1.1v.098h.098l.097.1h.1v.098h.098l.1.1v.098h.098l.1.1v.097h.098l.1.1v.098h.098l.1.098v.1h.098l.1.098v.1h.097v.1l.1.098v.1h.1v.095l.196.198v.1h.098v.199l.198.198v.1l.1.098v.1l.1.098v.1l.098.097v.199l.1.1v.098l.098.097v.199l.098.1v.298h.1v.294l.098.103v.592l.1.1v1.784l-.1.098v.396m50.535-1.982v-.296h-.1v-.198l-.098-.098v-.299h-.1v-.494h-.098v-1.29h.098v-.495h.1v-.298l.098-.1v-.198h.1v-.196l.097-.098v-.1l.1-.1v-.098l.098-.1v-.098h.098v-.098l.1-.1v-.093h.098v-.1h.1v-.098l.595-.595h.1v-.1h.098v-.097h.1l.097-.1h.1v-.1h.098l.098-.098h.1l.098-.1h.198v-.098h.198v-.098h.199l.1-.1h.298v-.098h.495v-.1h1.287v.1h.497v.098h.296l.1.1h.198v.098h.196l.1.098h.098l.1.1h.098l.1.097h.098v.1h.1l.097.1h.1v.098h.098v.1h.1l.595.595v.098h.098v.1h.1v.098l.098.1v.098h.1v.098l.098.1m-.891.592v-.196h-.098v-.198h-.1v-.1l-.299-.296v-.098h-.098v-.1h-.1v-.098h-.198v-.1h-.098v-.098h-.1v-.1h-.198v-.098h-.098l-.098-.1h-.1l-.098-.098h-.1l-.097-.1h-.199l-.1-.098h-.296l-.1-.1h-1.287v.1h-.397l-.097.098h-.199v.1h-.2l-.098.098h-.1l-.098.1h-.1v.098h-.16v.1h-.098l-.296.296h-.1v.1h-.098v.098h-.1v.198h-.098v.098h-.1v.1h-.098v.198h-.1v.1l-.098.096v.1l-.1.098v.1l-.098.1v.198l-.1.098v.298l-.1.098v1.29h.1v.397l.1.098v.198h.098v.198m-82.936-18.427l.1-.1.098-.1h.1v-.098h.098v-.1h.103l.095-.098h.1v-.098h.098l.1-.1h.098v-.098h.2v-.1h.2v-.097h.195l.1-.103h.296v-.096h.396l.1-.103h1.486l.098.103h.396v.096h.299v.103h.296v.097h.198v.1h.201v.098h.098l.098.1h.1v.098h.198v.098h.098v.1h.1v.098h.098l.298.299v.097h.098l.1.098v.1h.098v.098h.1v.1l.1.1v.098h.098v.1l.098.098v.1h.1v.198h.098v.198h.1v.199l.098.098v.296h.098v.399l.1.098v1.486l-.1.1v.394h-.098v.299h-.098v.298h-.1v.198h-.098v.199h-.1v.098l-.098.1v.097h-.098v.199h-.1v.098h-.1v.1h-.098v.097l-.198.201m-.695-.497l.1-.098v-.1h.098v-.097h.1v-.1h.098v-.098l.1-.1.098-.098v-.1l.1-.098v-.1h.097v-.198h.1v-.299h.098v-.296h.1v-.595h.1v-.695h-.1v-.592h-.1v-.299h-.097v-.296h-.1v-.198h-.094v-.098l-.1-.1v-.098l-.098-.1-.1-.098v-.1h-.098v-.098h-.1v-.1h-.098v-.097h-.1v-.1h-.097v-.1h-.1v-.098h-.098v-.1h-.098l-.201-.196h-.098l-.1-.098h-.098v-.1h-.198v-.1h-.299v-.098h-.296v-.1h-.594v-.098h-.693v.098h-.595v.1h-.298v.098h-.296v.1h-.198v.1h-.1l-.098.098h-.101l-.2.196h-.099v.1h-.1v.098h-.097v.1h-.1m69.46-117.415v.298l-.1.098v.198l-.098.098v.198h-.1v.199h-.098v.198h-.1v.1l-.098.098v.1l-.1.1v.098h-.1v.1l-.296.296v.1h-.1v.098h-.098v.097h-.1v.1h-.098l-.1.098h-.098v.1h-.1v.098h-.098l-.1.1h-.097v.098h-.201v.098h-.098l-.1.1h-.098l-.098.1h-.2l-.1.098h-.198l-.098.1h-.296l-.1.097h-1.587m-.098.1v-.1h-.396v-.097h-.299v-.1h-.296v-.098h-.198v-.1h-.201v-.1h-.098l-.098-.098h-.1l-.098-.098h-.1v-.1h-.097l-.199-.198h-.098v-.098h-.1v-.1h-.097v-.098h-.1v-.098h-.098v-.1h-.1v-.098l-.098-.1v-.098h-.1v-.1h-.1v-.098l-.098-.1v-.1h-.1v-.198h-.098v-.098l-.1-.1v-.198l-.098-.098v-.1l-.1-.098v-.296h-.098v-.398l-.1-.098v-1.39m.994.198v.894l.098.098v.396h.1v.299l.098.098v.198h.1v.198h.097v.198h.1v.098l.196.198v.1h.1v.098h.098v.1l.1.1.098.098h.1v.1h.098v.098h.098v.1h.1l.1.098h.098v.1h.198v.098h.198v.098h.198l.1.1h.296v.097h.397m-.098.1h1.187l.1-.1h.396v-.097h.296v-.1H724v-.098h.198l.1-.098h.098v-.1h.098l.1-.098h.097v-.1h.1l.497-.497v-.098h.098v-.1h.1v-.098l.098-.1v-.098h.1v-.1l.098-.097v-.1l.1-.098v-.199h.098v-.296h.098v-.396m34.086 68.862l.296.199m6.542-2.08l-.894.198m-8.817 20.41l-.495.098m5.152 3.47l.793.595m-6.64-42.11l-.397.692 7.134-1.584m-7.134 1.584l-.198-.595a48.07 48.07 0 00-10.7-15.06l-.1-.099m8.125 72.926l-.893-.497m-7.131-72.627l.494-.1m3.071-6.045l-.497.793m-1.284 75.008l.097.396m-16.049 10.501l.595-.296a49.985 49.985 0 0015.16-10.7l.099-.1m-14.466-84.814l.494-.796m-1.09 97.005l-.792-.299m0 0l1.684 7.137m-3.962-98.392l.195.594m-18.925-3.37l.299-.396m-2.08-6.54l.198.994m5.944 111.172l-.198-.893m-22.59-99.976l-.498.199a48.057 48.057 0 00-15.058 10.702l-.198.098m36.758 83.032l-.296.397m-21.404-94.726l.695.298m0 0l-1.684-7.133m3.962 98.392l-.198-.595m-3.468 5.25l-.494.792m-14.07-85.805l-.1-.397m-6.045-3.171l.793.494m3.568 78.873l.495-.793m3.07-5.35h-.493m-10.404-15.955l.299.497a48.623 48.623 0 0010.7 15.061h.1m-12.685-52.813l.495-.198m-5.15-3.468l-.795-.495m6.64 42.112l.396-.696m0 0l-7.134 1.586m2.675-20.114l-.298-.296m-6.54 2.178l.894-.198m104.73-3.963l7.235-1.583m-4.46-19.522l-7.133 1.686m7.432 41.812l-6.243-3.864m1.287-.494l5.353 3.467m3.864-22.096l-6.243 1.387m-4.261 17.736l.296-.595a51.635 51.635 0 002.974-17.934v-.1m-3.27 18.63l1.287-.495m2.973-17.241v.594a47.785 47.785 0 01-2.873 16.449v.198m2.873-17.241l-1.091-.793m-3.764-20.61l6.243-1.387m-6.838 2.577l-.198-.595a50.623 50.623 0 00-10.107-14.368l-.495-.396m10.8 15.359l.595-1.19m-10.105-14.267l.494.396a49.155 49.155 0 019.513 13.673l.098.198m-6.74-19.718l-3.365 5.45-1.29.098 3.864-6.142m-2.477 76.295l6.244 3.962m-19.919 13.972l-1.583-7.134m1.089.592l1.488 6.246m18.23-12.983l-5.45-3.368m-14.466-88.284l-3.962 6.243m3.071 91.554l.595-.298a50.057 50.057 0 0014.368-10.203l.394-.299m-15.357 10.8l1.09.592m14.267-10.105l-.394.397a49.096 49.096 0 01-13.676 9.513l-.198.1m14.268-10.01l-.098-1.288m-18.33-80.754l-.497-.296a48.498 48.498 0 00-17.339-2.876h-.497m18.333 3.172l-.396-1.19m-17.242-2.97h.693a47.256 47.256 0 0116.35 2.87h.297m-.098.1l3.467-5.447m-22.096-3.767l1.387 6.243-.793.989-1.585-7.134m3.568 106.319l1.683 7.134m-20.114-10.306l.595.198a49.037 49.037 0 0017.339 2.876h.497m-.793 1.089l.793-.991m-23.088-101.958l1.683 7.232m22 101.96l-1.388-6.243-.595-.098a47.847 47.847 0 01-16.448-2.876h-.199m-4.358 4.956l3.962-6.145.396 1.19m0 0l-3.467 5.45m.097-98.195l-.494.199a48.933 48.933 0 00-14.268 10.107l-.494.497m15.256-10.803l-1.186-.594m-14.269 10.109l.098 1.29-6.143-3.965m6.045 2.675l.494-.494a48.114 48.114 0 0113.674-9.513l.198-.1m-.098 0l-1.388-6.24m-18.33 12.88l5.45 3.467m-9.314 56.083l.296.494a50.03 50.03 0 0010.205 14.368l.299.397-3.865 6.243m2.675-6.045l1.19-.198m-18.23-57.072l6.24 3.862m0 0l-.198.497a48.438 48.438 0 00-2.871 17.339v.494m3.069-18.33l-1.287.397m8.619 58.461l3.468-5.45-.397-.494a51.324 51.324 0 01-9.61-13.676l-.1-.1m-6.637.397l7.134-1.584-.497 1.187m0 0l-6.341 1.39m1.488-22.89l.989.793-7.134 1.684m6.145-2.477l.098-.692a47.256 47.256 0 012.873-16.35v-.2m-.098 0l-5.352-3.37m-3.862 22.1l6.34-1.488m27.545-52.118l-.594.198a57.498 57.498 0 00-17.44 12.484l-.199.198m18.233-12.88l.89-.397m0 0l.696.397m0 0l.692-.299a54.257 54.257 0 0117.44-3.864h.297m.396-.595l-.494.595m.494-.595l.991-.097m22.097 3.766l-.595-.299a56.53 56.53 0 00-21.206-3.565h-.296m22.097 3.864l.89.394m0 0l.2.793m0 0l.692.198a56.605 56.605 0 0115.063 9.613l.198.098m.693 0l-.793.098m.793-.098l.793.595"/></g><g class="cls-17"><path class="cls-18" d="M691.7 210.174l-.595.198m65.395 26.06l-.299-.595m-26.056 65.394l.692-.296m-65.495-25.96l.296.594m50.138-11.889l24.772 19.023m-44.786 10.107l14.268-27.843m0 0h1.782l.1-.098h.594l.1-.1H713l.199-.098h.198l.1-.1h.198l.098-.1h.198l.198-.098h.199l.1-.1h.098l.1-.097h.098l.1-.1h.097l.1-.098h.098l.1-.098h.098l.098-.1h.1l.198-.198m-12.88-3.072l-18.922 24.77m-10.108-44.786l27.743 14.268m0 0v1.684l.1.1v.594l.098.098v.397l.1.198v.198l.1.098v.198l.098.1v.199l.098.198v.198l.1.098v.1l.098.098v.1l.1.098v.1l.097.097v.098l.1.1v.098l.098.1v.1l.199.198m15.954-9.512l18.925-24.772m10.105 44.786l-27.743-14.366m0 0l.098-.198v-1.586l-.098-.098v-.597l-.1-.098v-.396l-.098-.199v-.198l-.1-.098v-.195l-.098-.1v-.198l-.1-.198v-.196l-.098-.1v-.1l-.1-.098v-.1l-.097-.098v-.1l-.098-.098v-.1l-.1-.098v-.1l-.098-.098v-.1l-.1-.097v-.1m-12.88-3.17l-24.87-18.925m44.786-10.107l-14.27 27.745m0 0l-.098-.1h-1.586l-.098.1h-.595l-.1.098h-.396l-.196.1h-.198l-.1.098h-.198l-.1.098h-.198l-.199.1h-.198l-.098.097h-.1l-.098.1h-.1l-.097.098h-.098l-.1.1h-.101l-.1.098h-.098l-.1.1h-.098l-.098.098h-.1m-10.404 45.281l.494.098a40.185 40.185 0 0044.292-10.105l.098-.1m-66.783-42.209l-.1.394a40.017 40.017 0 0010.108 44.194l.198.098m63.91-14.268l.197-.495a39.894 39.894 0 00-10.007-44.193l-.198-.199m-11.889-7.43l-.396-.198a40.013 40.013 0 00-44.192 10.108l-.1.198m80.556 5.844l.296.597m-4.852 1.09l-.199-.596m-25.07 71.044l-.692.298m-1.092-4.757l.695-.299m-41.22-97.3l.595-.196m1.092 4.755l-.696.297m-30.912 67.377l-.2-.592m4.757-1.092l.296.595m97.005 1.686l.198-.695m-.299.595l.299-.793m-29.33-71.639l-.595-.299m.595.397l-.793-.296m-42.608 101.76l.595.298m-.595-.4l.793.3m-29.823-72.727l-.296.592m.296-.495l-.296.793m99.478 29.033l-.594-.695M719.146 207.2l-.695.696m-15.754 96.208l.693-.592m-40.922-55.985l.693.695m92.347-11.592l-.198-.595a48.45 48.45 0 00-10.403-15.06l-.397-.397m-14.564 79.763l.592-.299a47.507 47.507 0 0015.061-10.4l.497-.4m-54.198-78.177l-.497.199a48.41 48.41 0 00-15.058 10.403l-.4.494m-9.61 52.515l.299.497a48.443 48.443 0 0010.4 15.06l.498.397m83.925-55.287l.79-.198m3.667 17.933l-.593.196m.79-.494v-.693a53.19 53.19 0 00-3.666-16.546l-.198-.397m-4.063 27.048v.1m-.097.793l.396.098h.296m.497-8.52v.99a38.65 38.65 0 01-.397 6.44l-.1 1.09m2.281 13.773l.593.397m-10.007 15.36l-.495-.3m.79.199l.497-.595a55.962 55.962 0 009.116-14.167l.198-.497m-.1 0l.1.1m-29.526-71.839l.396-.594m15.357 10.01l-.299.494m.201-.89l-.497-.498a55.92 55.92 0 00-14.167-9.116l-.497-.198m-.098.198v-.098m-15.259 3.468v.1m.989.098v-.397l.1-.296m-8.622-.597h1.091a50.159 50.159 0 016.442.399l1.089.198m12.88 98.29l.1.795m-17.934 3.663l-.1-.592m.396.793l.695-.1a53.348 53.348 0 0016.547-3.666l.396-.198m-26.95-3.962v.097m-.893-.198l-.1.397-.098.298m8.62.593h-1.09a38.934 38.934 0 01-6.438-.495l-1.092-.098m-12.781-98.294l-.198-.793m17.936-3.666l.098.595m-.396-.793h-.595a52.139 52.139 0 00-16.449 3.668l-.494.199m-.89 101.363l-.4.592m-15.357-10.005l.297-.496m-.199.893l.595.394a55.069 55.069 0 0014.268 9.116l.396.198m0-.1v.1m-28.435-72.135l-.595-.296m10.007-15.457l.595.397m-.893-.296l-.397.494a55.898 55.898 0 00-9.113 14.17l-.199.494m0 .199v-.098m3.468 15.256v.1m.098-.991l-.296-.098h-.299m-.594 8.522v-1.092a52.099 52.099 0 01.396-6.441l.198-.989m-2.675 27.843l-.793.199m-3.763-18.035l.595-.1m-.793.497l.1.595a55.465 55.465 0 003.663 16.546l.198.497m97.896-10.9l.396.1.299.098-.1.495a39.421 39.421 0 01-2.279 7.432v.198m2.38-8.125l.89-.494m.198-.597l.299.1m-39.04-55.586l.098-.397v-.296l.594.098a48.643 48.643 0 017.43 2.18l.201.199m-8.225-2.477l-.396-.795m-.595-.297v-.198m-18.529 95.419l-.098.396v.299l-1.089-.299a51.613 51.613 0 01-6.143-1.781l-.993-.397m8.225 2.477l.397.79m.594.198v.296m-37.85-58.456h-.396l-.299-.1.198-.595a48.644 48.644 0 012.181-7.43l.198-.198m-2.577 8.223l-.89.496m-.199.593l-.298-.098m58.461-37.85v.098m-2.28-.495l-.99-.198m2.279.397h.198l.098.097h.497l.098.1h.1m0 0l-.299-.494-.296-.595-.298-.695m0 0l-.394.397-.497.396-.497.595m39.238 56.775v.1m.497-2.379l.097-.893m-.396 2.279v.298l-.098.1v.397l-.1.098m0 0l.595-.199.497-.296.692-.399m0 0l-.793-.79-.494-.594M701.21 302.42v.098m2.379.298l.893.1m-2.28-.298l-.099-.1h-.396l-.1-.098h-.397m0 0l.595.99.298.694m0 0l.397-.397.494-.394.595-.497m-39.336-56.873v.098m-.497 2.278l-.098.891m.397-2.278v-.394l.1-.1v-.296l.097-.1m0 0l-.594.198-.497.299-.693.394m0 0l.793.792.495.595m94.427 13.872l-.098.298c.058.58-.206 1.114-.198 1.684l-.1.296m-40.425-55.98h.296a12.59 12.59 0 011.784.296h.198m-15.158 94.131h-.299l-.296-.1h-.298l-.3-.098h-.591l-.199-.1h-.298m-38.543-53.407l.098-.297c.038-.562.168-1.121.2-1.683l.099-.299m101.164 6.341l-6.64 1.488m2.876-19.42h-.1m1.982 16.447l1.882 1.485m0 0h.1m-3.864-17.931l.296.592a52.467 52.467 0 013.569 16.944l.098.296m-10.7-16.35l6.637-1.484m0 0l-1.19 2.181m-4.953 35.767l5.747 3.666m.1 0h-.1m0 0l-2.38.695m-7.53 14.762h.1m9.91-15.457l-.198.595a55.033 55.033 0 01-9.415 14.466l-.296.299m6.637-27.846l-.198.893m.198-.893l.396-2.279m-1.583-8.917l1.98 1.488v.89a30.916 30.916 0 01-.296 5.551l-.1.989v.1m-2.971 10.998l-2.379.793m4.755-8.72l-.098.494a39.58 39.58 0 01-1.982 6.737l-.198.598h-.098m-7.63-57.669l-3.567 5.847m6.738 68.564l.296 2.479m0 0l-5.847-3.666m-3.666-67.081l2.48-.296m0 0l.494.396a44.92 44.92 0 0110.107 14.864l.1.196-1.192 2.18m-21.302-33.39v.1m12.979 10.204l2.379-.397m0 0h.097m-19.123-4.062l3.669-5.847.692.201a55.636 55.636 0 0114.466 9.412l.296.296m-15.454-9.909l.692 2.38m11.99 78.374l.296 2.38m.1 0l-.397.396a47.406 47.406 0 01-14.862 10.205l-.296.1m0 0l1.485 6.637m-1.485-6.636l-2.18-1.091m-7.927-89.572l.99.198"/></g><g clip-path="url(#clip-path-4)"><path class="cls-21" d="M923.042 559.84v-.393M535.331 676.764l-.196-.296-.296-.394-.196-.294m0 0h-3.942V519.453h4.138m388.399 116.331h-.394m0-76.337h.394m-133.274-33l6.303.296 6.206.788 6.208 1.38a71.113 71.113 0 0152.304 64.027l.198 6.303-.494 6.206a71.163 71.163 0 01-55.064 61.66l-6.206 1.087-6.303.59h-6.304l-6.306-.59a71.362 71.362 0 01-60.38-56.444l-.886-6.303-.495-6.206a71.336 71.336 0 0152.502-70.33l6.208-1.38 6.203-.788 6.306-.296m-254.633-7.684v158m0 0l36.643 48.367m0 0h272.462m78.408-89.346v-76.337M677.57 686.023V509.208h-55.852v176.815zm-142.731-166.57l.394-.394.098-.296m0 0l36.841-48.56m1.872-2.956l.098-.1m-39.597 52.306l.196-.293m309.695-48.957H572.172l.69-.986.59-.888.69-.786m0 0v-2.07h271.28m0 0l-.1.296-.098.788-.296 1.182-.195 1.38-.199.984-.098.1m83.63 89.243h-4.828l-.393-1.674a138.876 138.876 0 00-77.819-87.471l-.492-.198m.889-4.63l1.673.69a143.172 143.172 0 0180.772 92.1l.296 1.085m-4.926 76.435h4.828m-82.644 93.977l-.1-.296-.098-.788-.296-1.084-.196-1.48-.198-.982h-.098l1.576-.69a138.956 138.956 0 0077.128-88.063l.098-.688m4.828.095l-.394 1.677a143.392 143.392 0 01-81.168 91.805l-.984.494M562.125 623.966l-1.38 1.28-3.448-2.266-3.152-.688-3.25.688-2.757 1.874-1.38 2.264-.492 2.561.886 3.35 2.363 2.66 2.465 1.182 2.657.394 2.66-.394 2.364-1.38 1.38-1.673.69-1.97h-5.912v-1.872h7.488l-.69 3.94-2.266 3.25-2.758 1.478-3.054.394-2.462-.196-2.265-.788-2.954-2.364-1.774-3.154-.394-2.758.886-4.037 2.562-3.252 2.855-1.478 3.252-.492 2.462.198 2.266.886 3.152 2.364m-17.829-25.708h1.772m4.333 6.795l4.434-6.795h1.674m0 0l-5.22 8.173m-5.221-8.173l4.333 6.795m.889 1.378l5.515 8.572h-1.774l-4.63-7.19-4.63 7.19h-1.674l5.418-8.572-5.22-8.173m-.1-6.895l7.98-16.747m0 0h.199m0 0l7.68 16.747h-1.575l-2.462-5.418h-7.683l-2.462 5.418h-1.676m5.024-7.094h6.01l-2.956-6.401-3.054 6.4m15.07-20.094l5.617-13.198h1.575l-7.091 16.743h-.198l-7.092-16.744h1.576l5.613 13.198m-18.418-4.825l1.772-8.373h6.895m0 0v1.673m-5.219 15.465l-2.07-.394-1.772-1.28-.888-1.378-.394-1.676h1.478l.492 1.378 1.084.986.986.494 1.182.196 1.772-.394 1.478-1.182.787-1.28.199-1.38-.394-1.676-1.084-1.378-1.182-.492-1.38-.198-2.068.296-1.673.592m8.667-6.7h-5.714l-.886 4.434 1.084-.296h.886l2.266.492 1.872 1.478.886 1.576.198 1.872-.494 2.56-1.576 2.07-1.772.985-1.97.294m-3.842-24.034v-16.744m1.478 7.091h1.082l1.478-.097 1.478-.397.69-.391.492-.593.296-.69.098-.788-.297-1.181-.393-.492-.492-.296-2.364-.492h-2.068v5.417m-1.478-7.09h3.25l2.168.195 1.872.886.984 1.38.296 1.673-.592 2.266-1.28 1.28 1.38.69 1.182 1.182.492 1.182.097 1.282-.491 2.068-1.478 1.674-1.574.787-1.776.199h-4.53m1.478-1.774h3.742l1.576-.492 1.084-.986.394-.786.097-.69-.293-1.282-.69-.886-1.774-.886-1.772-.198h-2.364v6.205m183.51 94.466l.1-.098h.098v-.098h.098l.098-.1h.1v-.098h.196v-.098h.198l.098-.098h.195v-.098h.297v-.1h.491v-.097h1.478v.097h.394l.1.1h.196l.098.098h.199l.098.098h.098l.1.098h.098l.097.098h.098l.1.1h.098v.098h.098l.098.098h.1v.1h.098v.097h.098c.165.163.328.327.491.492v.098h.1v.1l.098.098m0 0h.098l.098.098v.1l.1.098v.097h.098v.199h.098v.195l.098.098v.1l.1.098v.196h.097v.394h.098v.59l.1.1v.788h-.1v.592l-.098.095v.199l-.097.1v.195l-.1.1v.196h-.098v.198h-.098v.098l-.098.098v.098l-.1.1v.098h-.098v.095l-.098.1v.1h-.098v.098h-.1v.098h-.097v.098l-.098.1h-.098v.095l-.1.1h-.097v.098h-.098m-.592-.59l.1-.098h.098v-.1h.098v-.1h.098v-.095h.1v-.098h.097v-.1l.098-.098v-.098h.098v-.098l.1-.1v-.098h.098v-.1l.098-.095v-.1l.098-.098v-.198h.1v-.294h.098v-.394l.098-.1v-1.081l-.098-.1v-.393h-.098v-.296h-.1v-.198h-.098v-.194l-.098-.1v-.098h-.098v-.097l-.1-.098v-.1h-.097v-.098m-.098.098v-.196h-.098v-.098h-.1v-.1h-.098v-.098h-.097v-.097h-.099v-.1h-.1l-.098-.098h-.098v-.1h-.098v-.096h-.198v-.1h-.196v-.098h-.198l-.098-.097h-.198v-.098h-.294l-.1-.1h-1.477v.1h-.394v.098h-.294v.097h-.199v.098h-.196v.1h-.1l-.098.096h-.097v.1m130.024-36.543v-.1h-.788l-.098-.098h-.296l-.098-.1h-.198v-.098h-.196l-.098-.098h-.1l-.098-.098h-.098l-.1-.097h-.097l-.196-.199h-.098v-.098h-.1l-.098-.097h-.098v-.1h-.1v-.098h-.098v-.1h-.097v-.098h-.098v-.096h-.098v-.1l-.296-.296v-.098h-.1v-.195h-.098v-.1l-.098-.098v-.098l-.098-.098v-.1l-.098-.098v-.1l-.1-.098v-.293h-.098v-.394h-.097v-.79l-.1-.098v-.098h.1v-.886l.097-.1v-.293l.098-.1v-.196h.1v-.196l.098-.1v-.098l.098-.097v-.098l.098-.1v-.098l.198-.198v-.098h.098v-.104l.098-.098v-.1h.1v-.098h.098v-.098h.098v-.097h.097v-.099h.098v-.1h.1l.296-.294h.098v-.1h.196v-.097h.098l.1-.1h.098l.098-.098h.1l.097-.098h.098l.098-.098h.296v-.098h.394v-.1h.69m0 .886h-.59v.1H860v.098h-.196l-.098.1h-.1l-.098.098h-.097l-.098.097h-.1v.098h-.196v.098h-.1v.1h-.098v.098h-.098v.098h-.098l-.098.098v.1h-.1v.098h-.097v.098h-.098v.1l-.1.097v.098h-.098v.098l-.098.1v.098l-.098.098v.098l-.098.098v.198h-.1v.296l-.098.098v.592l-.097.098v.293l.097.1v.59h.098v.394h.1v.199l.098.097v.098l.098.098v.1l.098.098v.1h.098v.196h.1v.098h.098v.1h.097v.098h.1v.097l.098.098h.098v.098h.098v.1h.098v.098h.1l.098.1h.098v.095h.1l.097.098h.098l.098.1h.1l.098.098H860v.1h.296l.1.098h.59l.098.098m-46-69.051v.196h-.098v.198l-.1.098v.1l-.098.098v.098h-.098v.198h-.099v.098l-.1.098v.097h-.098v.098h-.098v.1h-.098v.098h-.1v.1H814v.096h-.099v.1h-.098v.097h-.1v.098h-.098l-.098.1h-.097v.098h-.1a.845.845 0 01-.492.296h-.098v.098h-.199v.098h-.196l-.1.098h-.294v.098h-.494v.1h-1.28l-.098-.1h-.394v-.098h-.296l-.098-.098h-.198v-.098h-.196l-.1-.098h-.095l-.1-.1h-.098v-.098h-.199v-.097h-.097l-.098-.098h-.1v-.1h-.099v-.098h-.098v-.098h-.098v-.1h-.098v-.095h-.1v-.1h-.097v-.098h-.098v-.1h-.1v-.098l-.098-.098v-.098h-.098v-.098a.847.847 0 01-.296-.494v-.098h-.098v-.198h-.098v-.196l-.1-.098v-.296h-.098v-.491h-.098v-1.277l.098-.1v-.394h.098m.69.196v.396l-.098.098v.886l.098.098v.396l.098.098v.293h.1v.199h.098v.195h.098v.199h.1v.198h.098v.098h.097v.098l.69.69h.098v.098h.1l.096.1h.1v.095h.195v.1h.199v.098h.198v.098h.293l.098.1h.397l.098.098h.885l.098-.098h.394l.1-.1h.294v-.098h.198v-.098h.196v-.1h.198v-.095h.196v-.1h.1v-.098h.098c.228-.231.459-.46.69-.69v-.098h.099v-.098l.098-.1v-.098h.098v-.198h.1v-.196h.097v-.199h.098v-.098m.987.394v.198h-.1v.196l-.098.1v.098l-.098.098v.098h-.098v.198h-.1v.098l-.196.195v.1h-.098v.098l-.198.196v.1h-.098l-.098.098-.1.098v.1h-.098l-.196.196h-.1v.097h-.097l-.098.1h-.098v.098h-.1l-.098.098h-.098l-.098.098h-.1l-.098.098h-.097l-.098.1h-.198l-.098.098h-.297v.1h-.393l-.098.097h-1.478l-.098-.097h-.394l-.098-.1h-.198l-.098-.098h-.198v-.1h-.199l-.095-.098h-.1l-.098-.098h-.098v-.098h-.198v-.098h-.098l-.198-.198h-.098v-.098h-.098l-.198-.198h-.098v-.098l-.2-.196h-.098v-.095l-.196-.199v-.1h-.097v-.097l-.1-.098v-.098h-.098v-.098l-.098-.1v-.098l-.1-.098v-.098l-.098-.1v-.097l-.098-.098v-.199l-.098-.097v-.297h-.098v-.393l-.1-.098v-1.478l.1-.098v-.394h.098m54.964 72.99v-.098h-.788l-.098-.098h-.296l-.098-.098h-.198l-.098-.1h-.196l-.1-.098h-.098l-.098-.1h-.1v-.097h-.195l-.098-.098h-.098v-.098h-.1l-.196-.198h-.1v-.098h-.097v-.098h-.098v-.098h-.098v-.1h-.098l-.1-.098v-.1h-.098v-.098h-.098v-.095l-.198-.198v-.1h-.098v-.098l-.098-.098v-.1h-.098v-.198h-.1v-.098l-.097-.098v-.198h-.098v-.198h-.1v-.294l-.098-.098v-.296l-.098-.098v-.79l-.098-.098v-.097h.098v-.886l.098-.1v-.294l.098-.1v-.196l.1-.098v-.198l.098-.098v-.099l.097-.098v-.1h.1v-.196l.098-.1v-.097h.098v-.099l.196-.198v-.098h.1v-.098h.098v-.098h.098v-.098h.1v-.1l.097-.098h.098v-.1h.098v-.095h.098l.1-.1.098-.098h.098v-.1h.1l.098-.098h.097v-.098h.196v-.098h.1l.098-.098h.198v-.1h.196v-.097h.296l.098-.098h.296l.098-.098h.592m-126.381-38.419h.098l.098.098h.1v.098h.098v.1h.098l.098.098v.097h.1v.098h.098v.098h.097v.1h.098v.098l.1.1.098.098v.098h.098v.098l.098.1v.195h.1v.098l.098.098v.1l.098.098v.198l.097.096v.198l.1.1v.293l.1.1v1.872l-.1.096v.298l-.1.098v.196l-.097.098v.198h-.098v.196l-.098.1v.098h-.1v.198h-.098v.098l-.098.097v.098m-.098 0l-.1.1v.098h-.098v.098l-.097.098-.098.098v.1h-.1v.098h-.098l-.394.394h-.098v.1h-.098l-.1.097h-.098v.098h-.098l-.098.098h-.1l-.098.098h-.097l-.098.1h-.1l-.098.098h-.196l-.1.098h-.297v.098h-.394l-.095.1h-1.481l-.098-.1h-.394l-.098-.098h-.198l-.098-.098h-.196v-.098h-.198l-.098-.1h-.098l-.1-.098h-.097v-.098h-.196v-.098h-.1m79.69 105.398v-.394l-.098-.097v-.69l-.098-.098v-.296l.098-.1v-.688l.098-.098v-.298l.1-.096v-.198l.095-.098v-.098l.1-.1v-.195h.098v-.199h.098v-.098l.1-.097v-.098h.098v-.1l.098-.098v-.1h.1v-.095l.195-.199v-.098h.098l.098-.097v-.1h.1v-.1h.098l.198-.196h.098V661h.098v-.098h.098l.098-.098h.1v-.098h.195v-.1h.199v-.097h.195v-.1h.198l.098-.096h.296v-.1h.294l.1-.098h.69l.098-.098h.296l.098.098h.69l.098.098h.296l.098.1h.195l.1.096h.098l.098.1h.198v.097h.196v.1h.098l.1.098h.098v.098h.098l.1.098h.098v.098h.097l.196.196h.1v.1l.098.1h.098v.097h.1v.098l.196.199v.095h.098v.1h.1v.098l.097.1v.098h.098v.195h.098v.199h.1v.195h.098v.198m-87.374-26.596l.198-.198h.196v-.098h.098l.1-.098h.098l.098-.097h.098l.1-.1h.195v-.098h.296l.098-.1h.296l.1-.096h1.674l.098.096h.394v.1h.296v.098h.196l.098.1h.198v.097h.098l.098.098h.1l.098.098h.097v.098h.098l.1.1h.098v.098h.098l.098.098v.1h.1l.492.49v.1h.098v.097l.097.1v.098h.1l.1.098v.198h.096v.098l.098.098v.1l.1.098v.097l.097.098v.198h.098v.294l.1.1v.296l.098.098v1.674l-.098.098v.393h-.1v.297h-.098v.195l-.097.1v.199h-.1v.097l-.098.098v.098l-.096.1v.098h-.1v.096l-.1.1m.1.1l-.986.983m25.118-7.387l.495.296a49.329 49.329 0 0016.154 7.483l.59.1v.097m0 .297l-.293.296m.293 6.795l.098-.984m19.407-5.121l-.394-.394m-.394 6.205l-.098.984m-35.857-15.267v-.788m0 0l-5.418 4.926m59.694-2.562l-.098.394m5.121 4.63l-.69-.69m9.36-17.337l.394-.491a47.872 47.872 0 007.583-16.748l.1-.097m-94.07 19.208l.687-.59m86.094-1.38l-.788.098m0 0l4.923 5.32m-85.993-8.371l-.394-.1m89.737-14.185l.296.397m6.798-.397h-.986m-102.347-3.25l.394-.492m-6.206-.396h-.885m104.02-15.365l-.394.492m6.205.394h.886m-110.02-4.13l.886.1m95.45-14.284h.493m4.531-5.026l-.69.592m-93.579 18.617l-.296-.294m7.784-16.942l.788-.098-.296.391a50.14 50.14 0 00-7.684 16.747v.196m7.98-17.334l-4.925-5.32m72.892-5.32l-.394-.397a49.149 49.149 0 00-16.253-7.485l-.592-.098v-.098m-37.034 5.714v-.394m-5.027-4.63l.69.688m58.61 5.911v.788m0 0l5.418-4.925m-42.159-4.334l.394.394m.394-6.206l.098-.986m18.617 7.782l.296-.196m-.394-6.798v.886m-3.546 109.636l.296-7.29m-19.798-.69l-.296 7.29m21.078-5.714l-.196 6.306m16.647-13.694l5.023 5.42m-.788.592l-4.333-4.73m-17.337 5.222l.69-.198a47.541 47.541 0 0016.253-6.01l.59-.294m-17.533 6.502l.984.886m16.353-6.108l-.495.296a53.473 53.473 0 01-15.562 5.714h-.296m16.353-6.01l.098-1.28m-38.516 12.905l.199-6.403m-21.179-3.546l5.317-4.926m.1 1.28l-4.63 4.336m4.53-5.615l.592.296a47.415 47.415 0 0016.353 7.387h.098m-17.043-7.683l.1 1.28m15.76 7.191l-.592-.198a51.242 51.242 0 01-14.973-6.993l-.097-.098m15.663 7.29l1.084-.69m56.735-13.89l-4.923-5.417m-82.253-3.054l-5.317 4.926m88.85-1.872l4.333 4.627m2.168-21.47l7.29.195m-.199.984l-6.303-.196m-8.57 15.86l.394-.593a49.813 49.813 0 007.29-15.758l.098-.593m-7.781 16.943h1.28m7.29-15.859l-.098.593a49.896 49.896 0 01-6.994 14.97l-.1.296m7.192-15.859l-.788-.984m-95.943 17.927l4.63-4.336m-5.222-17.237l.198.59a48.603 48.603 0 006.01 16.353l.294.492m-1.28-.198l-.296-.59a49.993 49.993 0 01-5.613-15.563l-.1-.097m6.01 16.25l1.28.198m-13.79-17.73l7.286.296-.788.986m0 0l-6.4-.298m111.8-16.645l-7.29-.296m-96.534-3.545l-7.287-.296m103.822 3.841l-.098-.69a49.684 49.684 0 00-6.01-16.35l-.296-.495m6.404 17.535l.788-.886m-89.539-19.602l-.294.492a47.407 47.407 0 00-7.39 16.35v.1m-.888-1.084l.788 1.084m91.313-13.693l.394.492a53.645 53.645 0 015.714 15.563v.198m-.098.1l6.404.196m-7.781-20.882l-4.633 4.333-1.28-.196 5.32-4.925M734.9 584.663l6.401.198.198-.69a50.552 50.552 0 016.994-14.973l.098-.196m-3.742-5.418l5.024 5.418-1.282.098m0 0l-4.334-4.73m79.69-11.819l-5.32 4.926m-54.273-1.97l-4.926-5.418m59.2 7.388l-.493-.394a49.055 49.055 0 00-15.858-7.29l-.495-.098m16.845 7.782l-.098-1.283m-36.643-7.189l-.592.098a48.663 48.663 0 00-16.35 6.01l-.495.294v.1m.1-1.283l-.196 1.283m38.317-6.502l.69.098a49.83 49.83 0 0114.97 6.993l.199.098m0 0l4.63-4.333m-20.192-9.26l-.296 6.404-.987.788.297-7.29m-19.799-.788l-.296 7.29-.986-.885m-16.35 6.105l.59-.394a53.558 53.558 0 0115.565-5.711h.296m-.1 0l.199-6.306m-20.883 7.683l4.334 4.728m81.265 34.575l-.1-.69a56.107 56.107 0 00-7.485-20.095l-.098-.195m7.683 20.98l.098.986m0 0l-.592.59m0 0l.1.59a54.22 54.22 0 01-.69 17.73v.297m.394.592l-.492-.592m.492.592l-.198.984m-9.26 20.29l.495-.588a57.532 57.532 0 008.765-19.504l.097-.199m-9.357 20.29l-.69.79m0 0h-.788m0 0l-.394.492a55.874 55.874 0 01-13 12.02l-.199.098m-.097.886l.097-.788m-.097.788l-.788.592m-20.883 7.684l.69-.198a54.962 54.962 0 0019.995-7.485l.198-.1m-20.883 7.783l-1.084.098m0 0l-.59-.495m0 0h-.592a56 56 0 01-17.73-.69l-.199-.095m-.687.59l.59-.494m-.59.494l-.987-.195m-20.192-9.26l.59.394a57.533 57.533 0 0019.505 8.765l.098.1m-20.193-9.26l-.787-.69m0 0l-.1-.787m0 0l-.49-.494a56.954 56.954 0 01-12.02-13.004l-.097-.195m-.788-.098l.788.098m-.788-.098l-.592-.788m-7.782-20.885l.196.592a55.296 55.296 0 007.488 20.095l.098.198m-7.782-20.885l-.097-.984m0 0l.59-.592m0 0v-.687a56.15 56.15 0 01.69-17.731l.097-.198m-.59-.59l.492.59m-.492-.59l.098-.987m9.357-20.292l-.391.494a59.586 59.586 0 00-8.868 19.505v.293m9.26-20.292l.592-.786m0 0h.885m0 0l.492-.592a57.048 57.048 0 0113.003-12.017l.199-.098m0-.788l-.1.788m.1-.788l.788-.592m20.882-7.683l-.592.098a56.14 56.14 0 00-20.095 7.487l-.097.098m20.784-7.683l1.084-.098m0 0l.59.492m0 0l.69-.098a56.917 56.917 0 0117.829.69l.1.098m.59-.394l-.69.492m.69-.492l.986.098m20.192 9.259l-.492-.492a58.358 58.358 0 00-19.505-8.767h-.195m20.192 9.259l.788.69m0 0l.098.788m0 0l.592.394a53.302 53.302 0 0112.017 13.1l.098.099m.69.198l-.788-.1m.788.1l.592.788M787.5 662.777h2.464a65.153 65.153 0 0065.111-61.86v-.888l.098-.787a65.258 65.258 0 00-61.074-66.687h-1.673l-.788-.098h-.788a65.232 65.232 0 00-65.897 61.07v1.675a65.078 65.078 0 0060.183 67.377l.788.1h1.676m.196-8.374l-.69-.098h-.688l-.69-.1a56.697 56.697 0 01-52.404-57.92l.098-.787v-.69a56.678 56.678 0 0157.33-53.782h.69l.788.098h1.377a56.745 56.745 0 0153.095 57.33v.687l-.098.79a56.635 56.635 0 01-56.64 54.472h-1.38l-.788-.098m-.296 8.175h2.464a64.755 64.755 0 0064.717-61.465v-.888l.098-.788a64.86 64.86 0 00-60.68-66.293h-1.674l-.787-.098h-.788a64.837 64.837 0 00-65.505 60.677v1.674a64.69 64.69 0 0059.791 66.983l.788.1h1.676m-27.188-24.527l-.492-.394"/><path class="cls-21" d="M761.593 633.225l.495.297a44.864 44.864 0 0018.024 8.47l.394.099m0 0l-.196 6.797m0 0l.69.096a54.44 54.44 0 0013.395.592l.394-.098m0 .098l.296-6.697m0 0l.592-.098a45.8 45.8 0 0018.812-6.798l.397-.198m-.1 0l4.63 4.926m0 0l.592-.394a53.432 53.432 0 009.849-9.061l.296-.397m0 .1l-4.63-4.926m0 0l.394-.491a44.842 44.842 0 008.471-18.027l.098-.59m0 .098l6.798.296m0 0l.196-.69a54.716 54.716 0 00.592-13.397l-.098-.492m0 0l-6.798-.198m0 0v-.59a45.823 45.823 0 00-6.797-18.815l-.196-.394m-.098.098l5.024-4.627m0 0l-.296-.593a51.763 51.763 0 00-9.061-9.851l-.397-.394m-.098.1l-4.926 4.53m0 0l-.393-.395a45.498 45.498 0 00-18.025-8.471l-.494-.098m-.098.098l.296-6.795m0 0l-.592-.199a54.943 54.943 0 00-13.395-.592l-.394.1m-.1 0l-.293 6.795m0 0h-.495a45.857 45.857 0 00-18.814 6.798l-.394.196m0 .1l-4.63-5.024m0 0l-.492.296a51.82 51.82 0 00-9.849 9.061l-.296.394m-.098 0l4.63 5.024m0 0l-.296.394a44.841 44.841 0 00-8.471 18.027l-.098.491m-7.586 14.283l6.798.199m0 0l.098.491a46.567 46.567 0 006.993 19.21v.097m0 0l-5.024 4.532m0 0l.394.492a55.281 55.281 0 009.061 9.949l.394.296m-11.229-49.549l-6.795-.195m6.795.196l-1.475-1.87m-6.798-.299l6.798.3m-7.684 17.928v.097m0-.097l1.674-1.774m.69-14.48l-.1.59a54.833 54.833 0 00-.59 13.398l.098.394m.592-14.38l-1.478-1.973m-.886 18.225v-.69a53.35 53.35 0 01.788-17.139l.098-.396h-.098m-207.055-41.173h-.494m0 11.131h.494m.394 59.594h-.888m0 11.13h.494m24.33 93.286l-.394.783m9.357 9.852l-1.182-1.18c-2.31-2.346-4.9-4.87-6.993-7.39l-1.182-1.282m-18.323-24.425l.889-.199m-.889.199l-.886-1.38-4.727-8.273-.788-1.38m.492-15.86v.099m315.9 61.171l1.674-.79a143.927 143.927 0 0080.872-90.917l.494-1.575m-.1-79.69l-.492-1.772a144.148 144.148 0 00-80.97-90.821l-1.478-.59m-315.9 61.169v.098m6.798-26.792l-.888-.098m-6.304 10.734l.788-1.378c1.307-2.647 3.142-5.565 4.727-8.077l.788-1.28m18.323-24.528l.394.788m-.394-.788l1.576-1.772 3.152-3.35 1.575-1.576 1.576-1.676 1.38-1.28m.297.788l-.1-.198-.294-.59 1.081-.688 1.182-.396h.394m-36.839 47.775l.196-1.28.198-.494m0 0l.296.1.59.098m-.196 136.132h-.494m399.038-8.57l.494-1.773a122.705 122.705 0 003.348-15.563l.296-1.674m0 .098l-1.576-.788m0 0l.296-1.774a144.485 144.485 0 00-.198-38.417l-.098-.098m0 0l1.576-.788m0 0l-.198-1.771a156.188 156.188 0 00-3.348-15.566l-.492-1.673m-85.01 173.859h-277.88m277.88 0l1.97-.788m-269.9 0h269.9m-291.372-10.64l1.082 1.183c2.22 2.373 4.597 5.028 6.996 7.189l1.182 1.184m-33.394-44.327l.788 1.38c1.375 2.816 3.081 5.455 4.63 8.173l.886 1.38m0 0l1.774-.294m0 0l1.182 1.772a187.313 187.313 0 0015.269 20.192l.394.495m0 0l-.788 1.673m-24.53-208.431l-.787-.199m0 172.382V511.474m1.084 157.509l-.494.492h.198v5.71m.296-28.663l-.494-.492m0-19.306v19.306m0-19.306h-.394m0-11.132v11.131m0-11.13h.394m0-59.594v59.593m0-59.593h-.394m0-11.131v11.131m0-11.131h.394m.198-24.825v5.714h-.198v19.11m33.986-79.296l-9.162 9.654m0 0l.788 1.676m0 0l-1.38 1.674a168.066 168.066 0 00-14.775 19.798l-.592.986m-.098 0l-1.771-.296m0 0l-6.306 10.835m35.559-46.198h277.88m-277.88 0l.296.788m277.583-.788l1.97.788h-269.9M532.18 684.842l-.294.097-1.084.199-.69.195m0 0l-.098-.195-.198.098-.59.097-.296-1.181v-.297l2.757-.787m-1.478-173.17l-.393.886-.098.889m1.97.491l-1.97-.491m.491-1.775l.199.1 1.084.196.687.196m34.674 218.384l-1.084 2.758-1.378-.296-1.084-.593.198-.195.196-.59-.196-.199.098-.195.394-1.084.296-.69m0-260.149l-.1-.196-.394-1.084-.293-.69.492-.394.69-.394.687-.195.69-.1.788 2.07m8.374 263.594l.491.592m-1.97-1.97l.394.296m1.576 1.674v-.397m-.491-265.267l.491-.592m-1.97 2.07l.394-.394m1.576-1.182v-.494m-45.31 211.094l-.69-.396m1.97.986l-.788-.394m-.788-.592h-.394m.69-155.534l-.69.391h.394m1.576-.983l-.788.394m33.394 208.236l.293.196a2.834 2.834 0 001.872.79l.394.098m6.798-1.378v.59l.097.394v.394m-6.895-3.746v3.746m6.896 0h-6.896m-5.22-9.064l3.94-2.953m1.28 8.27h4.926m-39.599-40.186l-.394-.788v-.492l-.098-.198v-.296m7.586 6.893l3.842-2.853m-11.428-4.04v-6.895m0 6.896h3.744m0-6.108v6.108m-3.744-6.896l.098.1h3.152m8.178 10.835v.098m28.663 37.823l-6.205-8.271v.1m6.205 8.17l.492.595.495.687.491.592.394.495m0 0v.095m-38.713-51.22v.098m0-.098l.198.196.098.296.198.196m7.684 10.147l-7.684-10.146m390.173-56.048h-2.76m2.76-46.592h-2.76m-387.908-55.358h-2.953l-.198.098h-.098v-6.896m.491-1.774l-.097.199c-.547.98-.116.675-.394 1.377v.198m.491-1.774h.1c.47.404 2.035 1 2.56 1.478l.592.296h-3.744m.492-1.774l1.084-1.967a181.709 181.709 0 0129.65-39.403l1.478-1.478m2.462 2.66l-1.478 1.478a179.493 179.493 0 00-28.96 38.613l-.984 1.774m0 .097v6.108m7.387-9.751l-2.266-1.774m24.725-27.876l-2.266-1.774-22.458 29.65m33.098-38.91h.098m-8.472 11.034l6.502-8.67m-6.502 8.67l.098.098m-29.943 39.303l7.387-9.751.098.098m-7.485 9.653l-.198.296-.098.196-.199.198m.1.098l-.1-.098m29.357-51.42l.098.098.097.198.297.196.296.396 1.771 1.772m-2.56-2.66l.294-.196a2.98 2.98 0 011.97-.788h.297m0 0h6.895m-6.896 0v3.644m6.896-3.644v.296l-.098.394v.59l-.394.492-.492.592-.494.69-.492.59h-4.926m355.99 104.118v.098m0 46.495v.098m0-59.102v12.411m0 46.593v12.51M542.72 695.58l15.07 19.896m6.502 12.215l-1.478-1.478a172.978 172.978 0 01-30.043-40.387l-.593-.983m32.114 42.848v-.098l.196-.1c.735-.67 1.2-1.304 1.872-1.97l.492-.494m-34.674-40.186l.199-.098c.913-.384 1.573-.984 2.461-1.282l.593-.394.491.888c.763 1.837 1.955 3.453 2.856 5.22l.494.785-.494.396 3.942 5.222 1.182 1.674a161.577 161.577 0 0013.788 18.026l.1.196 3.448 4.534.394-.298.69.687c1.134 1.348 2.605 2.655 3.84 3.943l.69.687m360.227-115.345V585.55m1.184 51.42l.294.492m-1.28-2.367l.59.986m-5.024-1.181v.1m5.518 2.461h.196m-1.28-2.366l-.296-.094-.788-.1h-3.35m4.434-74.664l.492 1.674a141.776 141.776 0 01-.294 72.498l-.198.592m-1.674-14.087h1.378l.098-9.357v-1.872l.198-1.774a143.285 143.285 0 00-.098-21.868l-.1-.492-.098-9.26v-1.97h-1.377l-.296-1.575a176.669 176.669 0 00-1.97-9.358l-.495-1.478v-1.478m0 72.993l.495-1.676c.823-3.305 1.558-6.597 2.165-9.95l.1-.983m-2.758 14.085v-1.476m0-72.993v-.097m0 .097l1.674-.097h1.38l.886-.098h.492m.986-1.973l.296-.491m-1.282 2.464l.491-.986m.79-1.478h-.198m2.856 20.292h1.182m0 26.892v12.213h-1.182m1.182-39.105v12.213m-394.014-91.116h-.098m0 0l.788-1.084m306.543 232.667H577.394l-3.252-.886v-.1m271.475.987l-.195-.987m82.841-93.973l.098 2.462-.494 1.676a144.093 144.093 0 01-81.462 90.425l-.788.296m-315.11-211.19h.196m0 156.324h-.196m0 0l-.788-1.182v-5.121m-.002-143.717v-5.122l.79-1.182m-.79 6.304h.296m0 34.871v-34.872m0 34.872h.394m0 0v62.155m0 0h-.394m0 46.69v-46.69m0 46.69h-.296M928.36 556.983l-.098 2.462m-82.646-94.957l1.676.69a144.158 144.158 0 0180.97 91.017l.196.69m-354.317-91.411v-.1m0 0l3.251-.886h268.224l-.195.986m0 264.284h-271.28v-1.771m-39.795-52.209l.198.294m39.499 52.21l.098.099m0-.394l-.69-.888-.788-.987-.688-.983m351.066-89.344v-.391"/></g><g clip-path="url(#clip-path-5)"><path class="cls-21" d="M781.295 599.932l-24.528 18.912m1.774-45.606l23.05 20.882m0 0v.196l-.098.1v.196l-.1.097v.199l-.098.097v.394l-.098.1v.098c.025.525-.155.307-.1 1.084v1.97l.1.098v.492l.098.1v.196l.098.098v.198m6.306-11.427l-19.013-24.529m45.707 1.774l-20.883 22.954m0 0l-.1-.1h-.098l-.098-.098h-.195l-.1-.1h-.196l-.198-.098h-.294l-.1-.098h-.492l-.1-.098h-2.461l-.196.098h-.394l-.1.098h-.394l-.098.098h-.196m24.428 42.949l-.394.198a40.252 40.252 0 01-45.606-1.872l-.198-.198m.296-.294l.394.194c12.882 9.756 31.532 10.478 45.017 1.575l.195-.095m12.313-55.262l.297.396a40.257 40.257 0 01-1.872 45.607l-.098.198m-.495-.299l.297-.394c9.753-12.882 10.478-31.531 1.575-45.014l-.099-.196m-67.377 43.34l-.196-.494a40.312 40.312 0 011.872-45.506l.196-.299m.296.397l-.198.293a39.896 39.896 0 00-1.674 45.115l.098.198m11.723-55.358l.492-.298a40.316 40.316 0 0145.508 1.874l.199.196m-.296.394l-.297-.296a39.896 39.896 0 00-45.114-1.674l-.296.098m64.914 67.18l-.394.494m-3.35-3.548l.394-.492m-6.895-73.384l.492.394m-3.644 3.35l-.491-.494m-63.142 83.926l-.494-.394m3.548-3.252l.59.396m-13.89-73.683l.394-.492m3.35 3.546l-.393.494m94.76 23.146v-.59m-.1.59l-.097-.786m-47.674 61.958l.687-.098m-.687 0l.787-.196m-13.989-108.75l-.687.1m.687 0l-.886.196m-46.986 60.875v.59m.098-.59l.1.788m99.98-24.526l-.886-.298m-27.68 63.144l.196-.889m-34.475-90.623l-.198.888m-28.466 61.957l.886.296m83.532 11.526l.394-.492a49.215 49.215 0 007.781-16.549l.098-.592m-18.027-49.842l-.394-.394a49.072 49.072 0 00-16.549-7.782l-.59-.097m-40.191 85.4l.494.297a47.76 47.76 0 0017.041 7.88h.098m-27.384-75.65l-.296.393a48.227 48.227 0 00-7.781 16.549l-.196.492m100.572 4.825h.688m-.886 18.225h-.59m.788 0l.196-.69a55.25 55.25 0 00.69-17.435v-.198m-.198.098h.1m-10.64-11.327v.098m.394.79l.296-.198.296-.1m-3.744-7.681l.394.492a49.236 49.236 0 013.35 6.895l.098.198m-15.367 63.533l-.394-.494m13.495-12.313l.593.594m-13.495 12.314l.59-.394a54.082 54.082 0 0012.805-11.822l.1-.198m-9.95-76.438l.59-.492m12.118 13.593l-.394.394m.59-.492l-.296-.592a57.182 57.182 0 00-11.819-12.903l-.098-.098M807.891 641.5v.096m-.788.198l.098.397.098.293m7.684-3.741l-.886.492a37.822 37.822 0 01-5.812 2.855l-.986.394m-10.735 8.866v.69m-18.225-.986v-.59m0 .788l.69.098a54.306 54.306 0 0017.435.69h.1m0 0v.098M783.363 543.88v-.687m18.225.984v.592m0-.788l-.592-.196a54.161 54.161 0 00-17.435-.692h-.098m-.1.1v-.1m-11.425 10.639v.098m.886-.394l-.098-.394-.1-.294m-7.683 3.842l.592-.397a56.193 56.193 0 016.895-3.347l.296-.098m-26.696 62.843v.1m-.294-.986l-.394.198-.296.098m3.842 7.684l-.296-.593a56.316 56.316 0 01-3.35-6.893l-.098-.296m-1.182 12.31l.394-.393m12.313 13.497l-.592.492m-12.31-13.495l.393.492a57.01 57.01 0 0011.819 12.903l.098.1m-8.765-76.44l-.593-.59m13.593-12.115l.495.39m-.593-.59l-.491.297a57.2 57.2 0 00-12.906 11.821l-.098.098m-10.44 40.583h-.69m.888-18.223h.59m-.788 0l-.098.59a54.247 54.247 0 00-.69 17.438v.195m.098 0h-.098m99.488-21.572l.394-.098.199-.1.195.494a42.288 42.288 0 011.774 7.486v.296m-1.97-8.276l.59-.785m-.097-.69l.198-.1m-31.128 62.353l.788.494m.59-.1l.1.297m-1.774-1.378l.198.394.098.293m0 0l-.986.297a43.066 43.066 0 01-6.304 1.478l-.986.195m-21.866-92.593l-.098-.394-.1-.296.987-.293a46.389 46.389 0 016.205-1.478l1.084-.199m-8.276 1.97l-.788-.491m-.592.097l-.098-.293m-28.368 61.269l-.394.098-.296.097-.296-.986a55.214 55.214 0 01-1.478-6.205l-.098-1.082m1.872 8.273l-.492.886m.098.592l-.198.098m1.282-1.771v.098m.788 2.067l.293.886m-.787-2.166v-.1l-.098-.097v-.196l-.098-.1v-.196l-.098-.098v-.098m0 0l-.592.984-.492.69m0 0l.59.196.494.098.788.198m89.243-32.014v.1m-.788-2.266l-.393-.888m.885 2.168v.098l.1.098v.198l.098.196v.098l.098.1v.097m0 0l.592-.983.492-.69m0 0l-.59-.1-.494-.196-.788-.196m-29.354 62.058l.098.098m2.168-.889l.788-.293m-2.068.788l-.1.098h-.196l-.1.097h-.195l-.098.1h-.098l-.1.098m0 0l.492.296.396.294.688.394m0 0l.198-.494.198-.588.196-.79m-32.111-89.145v.1m-2.169.687l-.885.296m2.165-.788l.098-.097h.296l.1-.098h.098l.098-.1h.198m0 0l-.494-.394-.492-.296-.592-.394m0 0l-.196.491-.196.593-.198.788m60.974 26.202l.1.296c.15.537.512.903.687 1.576l.098.296M807.891 641.5l-.195.096c-.585.185-1.077.419-1.677.594l-.195.098m-33.788-88.555l.198-.098a21.919 21.919 0 001.576-.592l.294-.098m-27.974 62.647l-.1-.294-.196-.198-.098-.293-.198-.593-.098-.198-.198-.59m98.407-22.46v.1m-.888 18.124h.1m.788-18.225l.098.592a51.827 51.827 0 01-.788 17.139l-.098.394m-1.576-1.772l1.475 1.872m0 0l-6.795-.198m.886-18.223l6.798.196m0 0l-1.676 1.774m-13.987 33.098l4.63 5.021m1.872-23.836l1.478 1.97m0 0l-.1.495a45.762 45.762 0 01-7.681 16.152l-.199.198-2.461.198m9.159-44.228l.296.885m-.296-.885l-.886-2.168m0 0v.097m-3.25-6.697l.394.492a56.961 56.961 0 012.856 5.714l.1.296m1.081 3.151l.296.986a53.996 53.996 0 011.478 6.01l.098 1.082-1.674 1.772m-7.093-19.7l2.366.298m5.023-4.632l-5.023 4.632m2.166 57.719v.1m0-.1l-2.462.1m-11.034 12.213v.1m13.495-12.414l-.394.495a53.108 53.108 0 01-12.707 11.525l-.394.198m4.138-88.161l-.098.1m9.947 13.198l2.366.294m0 0l.098-.098m-12.313-13.495l.59.394a53.158 53.158 0 0111.525 12.707l.296.296m-16.253 72.399l-.296 2.462m0 0l-4.63-5.022m3.744-78.508l4.926-4.627m0 0l.098 2.462m-26.4 86.977l-.294 6.798m9.26-8.964l-.987.296m.987-.296l2.067-.788m0 0v.096m6.896-5.812l-.296 2.366-.492.297c-2.03 1.101-3.57 1.914-5.714 2.855l-.394.098m-3.054 1.184l-.491.098a47.33 47.33 0 01-7.388 1.772h-.1l-1.771-1.576m23.148-83.236l.098 2.366m-17.04-10.443l.59.1a47.316 47.316 0 0116.254 7.683l.196.098m-19.01-6.306l1.97-1.475m.196-6.896l-.196 6.896m-4.729 99.685h-.592a53.428 53.428 0 01-17.139-.788l-.494-.098v.098m18.225.788v-.098m0 0l-1.774-1.674m-14.481-.69l-1.97 1.576m0 0l.296-6.896m4.434-92.788l.196-6.798m.097-.1l-.097.1m0 0l1.872 1.674m14.48.69l1.87-1.576m0 0h.1m-18.225-.889l.69-.095a54.266 54.266 0 0117.239.786l.394.097m-21.178 97.421l-1.872 1.478m0 .098l-.491-.196a45.719 45.719 0 01-16.155-7.686l-.199-.195m12.314-82.644l.888-.296m-.889.296l-2.067.788m-6.6 3.35l.59-.394c2.033-1.104 3.571-1.917 5.714-2.858l.296-.098h-.098m11.132-2.954l1.771 1.674m-9.849.196l.59-.196a49.256 49.256 0 017.387-1.774h.199m-21.475 84.91l-5.023 4.63m5.023-4.63l-.098-2.364m3.546-73.68l.296-2.462m-4.63-5.026l4.63 5.026m-8.767 83.236v-.1m0 0v-2.462m-12.216-10.935h-.098m12.314 13.497l-.492-.494a54.518 54.518 0 01-11.525-12.707l-.199-.394m2.364.296l-2.364-.198m0 0l5.024-4.728m2.464-52.697l-4.63-5.027m0 0v.1m0-.1l2.462-.097m10.737-9.752l.296-2.464m0 0v.1m-13.495 12.213l.492-.59a54.682 54.682 0 0112.707-11.525l.394-.198m-15.663 61.37l-.294-.886m.294.886l.888 2.165m0 0h-.1m3.35 6.602l-.296-.592c-1.102-2.033-1.915-3.57-2.856-5.714l-.098-.394m5.711 6.994l-2.363-.394m-4.53-9.553l-.296-.986a50.454 50.454 0 01-1.478-6.01l-.098-.984m8.866-35.165l2.461-.1m-10.539 17.043l.196-.592a47.331 47.331 0 017.684-16.253l.198-.296m-8.866 35.363l-6.797-.296m6.797.296l1.674-1.872m5.91-6.501v1.38a39.335 39.335 0 0037.433 39.303h.492l.394.098a39.398 39.398 0 0040.287-36.94v-.986l.1-.391v-.495a39.385 39.385 0 00-36.94-39.794h-.986l-.394-.098a39.594 39.594 0 00-26.694 9.555l-.394.294-.296.296a39.197 39.197 0 00-12.805 25.808l-.098.492v1.478m5.91 41.569l4.926-4.532"/></g><g clip-path="url(#clip-path-6)"><path class="cls-21" d="M760.413 637.757l-.492-.393m-10.246-69.448l.394-.59m10.441 70.331l-.59-.394m-9.161-69.149l-.394.492m69.542-10.539l-.59-.394m9.947 69.643l.397-.592m-68.953 9.852l.491.393m31.62-30.736l19.01 24.626m-45.606-1.771l20.786-23.048m0 0h.296l.098.095h.195l.1.098h.196l.1.1h.391l.1.098h.098c.525-.022.306.156 1.084.1h1.97l.098-.1h.494l.098-.098h.196l.098-.1h.296m6.306-11.425l24.526-19.01m-1.772 45.607l-22.951-20.785m0 0l.097-.196v-.1l.1-.098v-.196l.098-.1v-.196l.098-.196v-.298l.098-.095v-.495l.1-.098v-2.464l-.1-.196v-.394l-.098-.098v-.396l-.098-.095v-.199"/></g><g clip-path="url(#clip-path-7)"><path class="cls-14" d="M575.298 582.565H470.11l.301 29.977h-40.836"/><path class="cls-25" d="M575.298 630.377H502.39v11.476l-64.599.005"/><path class="cls-13" d="M575.298 558.186l-88.339-.002v68.036l-57.384-.002"/><path class="cls-14" d="M575.298 534.552l-102.599 1.178v-17.016l-43.124-1.182"/></g><path fill="#bab6af" d="M528.741 660.513v9.501h-12.137V524.185l11.86-.073v8.23"/><path class="cls-27" d="M437.791 612.544l-48.307-.003m48.307 14.475l-48.307-.004m48.307 14.41l-48.307-.004m48.307-124.56l-48.307-.004"/><path class="cls-11" d="M91.36 533.571h78.838v32.905H91.36z"/><path class="cls-12" d="M152.969 561.031l82.549-4 .407-351.416 176.811 1.054"/><path class="cls-13" d="M126.008 550.024l95.933-4 .407-354.095 190.388 1.053"/><path class="cls-14" d="M109.441 539.468l98.936-4 .558-357.222 232.801 1.057"/><path class="cls-11" d="M91.36 603.257h78.838v32.905H91.36z"/><path class="cls-12" d="M152.969 630.718l126.549-4 .407-325.417 134.177.644"/><path class="cls-13" d="M126.008 619.71l139.933-4 .407-328.095 147.754.713"/><path class="cls-14" d="M109.441 609.154l142.936-4 .404-331.218 187.529 1.053"/><g clip-path="url(#clip-path-8)"><path class="cls-14" d="M573.374 243.958h-88.188l.301 29.978h-26.836"/><path class="cls-25" d="M573.374 291.771l-55.908-.001v11.477l-50.6.004"/><path class="cls-13" d="M573.374 219.579l-71.34-.001v68.035l-43.383-.001"/><path class="cls-14" d="M573.374 195.945l-85.599 1.178v-18.016l-29.124-.182"/></g><path class="cls-27" d="M466.866 273.937l-48.306-.003m48.306 14.475l-48.306-.003m48.306 14.409l-48.306-.003m48.306-124.561l-48.306-.003"/></svg>