<?xml version="1.0" encoding="UTF-8" standalone="no"?>
<svg
   id="Layer_1"
   data-name="Layer 1"
   viewBox="0 0 959.0498 815.102"
   version="1.1"
   sodipodi:docname="amt10x-encoders-to-roborio.svg"
   inkscape:version="1.2.2 (b0a84865, 2022-12-01)"
   xmlns:inkscape="http://www.inkscape.org/namespaces/inkscape"
   xmlns:sodipodi="http://sodipodi.sourceforge.net/DTD/sodipodi-0.dtd"
   xmlns="http://www.w3.org/2000/svg"
   xmlns:svg="http://www.w3.org/2000/svg">
  <sodipodi:namedview
     id="namedview704"
     pagecolor="#ffffff"
     bordercolor="#000000"
     borderopacity="0.25"
     inkscape:showpageshadow="2"
     inkscape:pageopacity="0.0"
     inkscape:pagecheckerboard="0"
     inkscape:deskcolor="#d1d1d1"
     showgrid="false"
     inkscape:zoom="0.87885424"
     inkscape:cx="492.11801"
     inkscape:cy="363.54151"
     inkscape:window-width="1680"
     inkscape:window-height="997"
     inkscape:window-x="0"
     inkscape:window-y="25"
     inkscape:window-maximized="1"
     inkscape:current-layer="Layer_1" />
  <defs
     id="defs499">
    <style
       id="style476">.cls-1,.cls-12,.cls-13,.cls-14,.cls-18,.cls-21,.cls-25,.cls-27,.cls-7,.cls-8{fill:none;}.cls-2{fill:#434343;}.cls-3{fill:#4f4e51;}.cls-4{fill:#323031;}.cls-5{fill:#6a5f27;}.cls-10,.cls-6,.cls-9{fill:#fff;}.cls-10,.cls-7,.cls-8{stroke:#fff;}.cls-7{stroke-miterlimit:10;stroke-width:4.6939px;}.cls-8{stroke-miterlimit:2;}.cls-10,.cls-8{stroke-width:1.1891px;}.cls-9{font-size:18.9416px;}.cls-16,.cls-9{font-family:Verdana;}.cls-10,.cls-12,.cls-13,.cls-14,.cls-18,.cls-21,.cls-25,.cls-27{stroke-linecap:round;stroke-linejoin:round;}.cls-11{fill:#221f1f;}.cls-12{stroke:#221f1f;}.cls-12,.cls-13,.cls-14,.cls-25{stroke-width:9.478px;}.cls-13{stroke:#e9262a;}.cls-14{stroke:#babcbe;}.cls-15{font-size:37.912px;font-family:Verdana-Bold, Verdana;font-weight:700;letter-spacing:0.001em;}.cls-15,.cls-16{fill:#010101;}.cls-16{font-size:32px;letter-spacing:0.001em;}.cls-17{clip-path:url(#clip-path);}.cls-18,.cls-21,.cls-25{stroke:#231f20;}.cls-18{stroke-width:1.089px;}.cls-19{clip-path:url(#clip-path-2);}.cls-20{clip-path:url(#clip-path-4);}.cls-21{stroke-width:1.084px;}.cls-22{clip-path:url(#clip-path-5);}.cls-23{clip-path:url(#clip-path-6);}.cls-24{clip-path:url(#clip-path-7);}.cls-26{fill:#bab6af;}.cls-27{stroke:#6d6e71;stroke-width:14px;}.cls-28{clip-path:url(#clip-path-8);}</style>
    <clipPath
       id="clip-path">
      <rect
         class="cls-1"
         x="533.7097"
         y="121.2451"
         width="321.4283"
         height="268.9163"
         id="rect478" />
    </clipPath>
    <clipPath
       id="clip-path-2">
      <rect
         class="cls-1"
         x="515.8447"
         y="121.2451"
         width="339.2933"
         height="268.9163"
         id="rect481" />
    </clipPath>
    <clipPath
       id="clip-path-4">
      <rect
         class="cls-1"
         x="528.3875"
         y="463.1599"
         width="406.2476"
         height="268.9163"
         id="rect484" />
    </clipPath>
    <clipPath
       id="clip-path-5">
      <polygon
         class="cls-1"
         points="516.845 464.16 516.845 733.076 934.632 732.076 934.632 463.16 516.845 464.16"
         id="polygon487" />
    </clipPath>
    <clipPath
       id="clip-path-6">
      <polygon
         class="cls-1"
         points="528.387 464.16 528.387 733.076 934.635 732.076 934.635 463.16 528.387 464.16"
         id="polygon490" />
    </clipPath>
    <clipPath
       id="clip-path-7">
      <rect
         class="cls-1"
         x="352.9176"
         y="527.6142"
         width="225.6618"
         height="124.8607"
         transform="translate(-124.296 1055.7931) rotate(-90)"
         id="rect493" />
    </clipPath>
    <clipPath
       id="clip-path-8">
      <polygon
         class="cls-1"
         points="583.834 132.307 587.837 357.621 444.494 355.494 439.974 132.307 583.834 132.307"
         id="polygon496" />
    </clipPath>
  </defs>
  <text
     class="cls-15"
     id="text615"
     x="434.72916"
     y="758.67096">AMT102</text>
  <text
     class="cls-16"
     id="text617"
     x="136.01846"
     y="55.765926">AM10 Series Modular Incremental Encoder</text>
  <text
     class="cls-15"
     id="text619"
     x="394.47986"
     y="421.33298">AMT103</text>
  <g
     class="cls-17"
     clip-path="url(#clip-path)"
     id="g625"
     transform="translate(-204.86405,-14.366131)">
    <path
       class="cls-18"
       d="m 546.7375,338.6874 -1.6838,-3.37 v -33.489 m 0,-116.03 V 175.99 m 0,0 1.6838,-3.37 M 766.9031,389.6161 H 592.5145 l -3.37,-0.8908 m 177.7586,0.8908 -0.1982,-0.9912 m 83.429,-95.022 0.1983,2.4766 -0.4944,1.6863 a 145.0976,145.0976 0 0 1 -81.6474,91.253 l -1.2873,0.4994 m 0,-267.7269 1.6838,0.6926 a 144.7837,144.7837 0 0 1 81.3488,91.4561 l 0.3965,1.2873 -0.1983,2.5745 m -260.9894,-95.12 3.37,-0.8909 h 174.3886 l -0.1982,0.8909 m -177.56,266.0431 v -4.4615 m 0,4.4615 0.1,-0.1 m -0.1,-261.5841 v -4.3586 m 0.1,0 h -0.1 m 254.45,170.9207 h 6.5392 m -0.0978,0.1 0.0978,-0.1 m 0,-75.8009 h -6.5392 m 6.5392,0 -0.0978,-0.0978 m -295.372,120.9832 h -7.9268 m 0.1,0 h -0.1 m 0,-166.0677 h 8.0247 m -8.0247,0 0.1,0.1 m 42.505,211.15 v 1.1894 a 27.5457,27.5457 0 0 1 -0.0979,3.4679 v 0.0978 m 177.46,0 h -177.46 m -0.1,-4.3611 -0.8908,-1.1869 m 0.8908,1.1869 0.1983,-0.3965 m -3.3675,-4.5569 1.1894,1.5859 1.1894,1.488 0.9887,1.483 m -33.8855,-44.1912 -0.793,-0.9887 0.3965,-0.1982 m 31.7074,-33.69 h -4.2607 m 21.5,0 h -17.3397 m -4.16,0.1 v -0.1 m -30.5181,-0.0979 h 4.9533 l 0.1,0.0979 h 25.4644 m -30.7163,0.1 h 4.2608 m -9.2142,33.7876 -0.1,-0.1 h 0.1 c 2.3186,-0.1028 4.4038,-0.1229 6.7375,-0.0978 h 1.4855 m 0,0 0.3965,0.3965 0.296,0.4943 0.2987,0.3964 m 47.9551,-34.977 v -11.4948 m 0,11.4951 0.1983,0.1982 m -0.1983,-11.6933 h -17.3392 m 17.3392,0 0.1983,-0.1983 M 586.8661,194.32 h -0.1982 m 17.3392,0 h -0.5922 m -46.4722,-11.3947 0.1,-0.0978 m 0,0 h 29.7251 m 17.2389,0 h -17.3388 m -29.7252,0.0978 h -4.9533 m 52.0177,11.3947 v -11.4925 l 0.1983,-0.1983 m -0.1983,11.6908 0.1983,0.1983 m -52.4142,9.2166 v 8.8177 m 0,14.96 v 8.8176 m 0,14.9629 v 8.8177 m 0,14.9629 v 8.8177 m 0,15.8537 V 304.9 m 0.1982,-121.9745 v 121.776 l -0.1982,0.1983 m 0.1982,-121.9745 -0.1982,-0.1982 m 4.2608,-0.0979 h -2.8732 l -1.3876,0.0979 v 5.1516 m 3.3674,-15.0608 h -1.4855 c -2.2759,-0.0451 -4.5694,0.1029 -6.8353,-0.0978 v 0 m 164.0829,11.3947 3.8643,0.0978 3.8643,0.2986 3.764,0.4944 a 71.5756,71.5756 0 0 1 59.9467,65.8916 l 0.1982,3.8643 -0.0979,3.7664 a 71.5808,71.5808 0 0 1 -61.9294,68.17 l -3.8643,0.394 -3.8618,0.1982 h -3.7665 l -3.8643,-0.1982 a 71.7071,71.7071 0 0 1 -65.5955,-64.7 l -0.1957,-3.8644 -0.1,-3.7664 a 71.7132,71.7132 0 0 1 60.1428,-69.7559 l 3.8643,-0.4944 3.7665,-0.2986 3.8643,-0.0978 M 582.5075,304.9976 V 304.9 m -26.4555,0 h 26.4555 m -26.4555,0 v 34.8766 m 0,0 29.9233,39.534 m 0,0 H 764.8229 M 556.052,171.6285 v 11.0007 m 48.1534,11.8891 V 182.6292 H 556.052 m 48.1534,11.8891 v 0.0979 m 0,110.3814 V 293.106 h -2.9711 m 2.9711,11.8916 H 582.5075 M 554.7622,172.62 l 0.6951,-0.8908 m -0.6951,0.8908 0.3964,0.1982 m 30.8167,-40.7233 -29.9233,39.5336 -0.8934,1.1894 m 33.0951,-44.4873 0.8908,-1.29 0.1983,0.4969 m -0.0979,-4.8555 v 0.1982 a 27.5313,27.5313 0 0 1 0.0979,3.4679 v 1.1894 m 0,0 -0.9887,1.3851 -2.3788,3.1718 m 178.8476,0 H 585.9753 m 3.27,-9.4124 h 177.46 m 76.3947,106.4169 -0.2986,-1.6837 a 134.6568,134.6568 0 0 0 -77.3842,-95.1225 l -0.4969,-0.296 m 78.1797,85.5093 1.5833,0.0978 c 1.3676,0.0853 3.769,-0.1455 5.0563,0.1 h 0.2961 m -85.2132,-85.61 v -0.0979 c 0.5721,-3.0589 1.29,-6.065 1.882,-9.1163 v -0.1982 l 1.6837,0.6951 A 144.0234,144.0234 0 0 1 849.64,216.02 l 0.4943,1.5834 m -0.0978,76.1 h -0.1983 a 42.2747,42.2747 0 0 1 -4.2607,0.0953 H 843.1 m -78.2771,85.5113 1.5859,-0.6926 A 134.98,134.98 0 0 0 843.1,282.7025 l 0.0979,-0.3964 m -78.375,97.0039 v 0.1 c 0.56,3.0814 1.3224,6.04 1.882,9.1163 v 0.0978 m 83.3312,-94.9216 -0.3965,1.6837 A 144.5406,144.5406 0 0 1 768.19,388.03 l -1.3877,0.5947 m 76.792,-170.8229 v 0.6951 m 0,-0.6951 -0.4943,-0.296 m 0.4943,75.4043 v 0.6926 L 843.1,293.7984 V 217.506 m -214.5168,71.6378 -1.29,1.1894 -1.5859,-1.1894 -1.7841,-0.9911 -1.4855,-0.3965 -1.4855,-0.1982 -2.08,0.2986 -1.9824,0.7929 -1.6837,1.3877 -0.9912,1.3851 -0.5947,1.488 -0.1982,1.6838 0.3965,2.18 1.089,1.98 1.5859,1.5858 1.4855,0.793 1.6837,0.4943 1.7841,0.2008 1.6837,-0.2008 1.6863,-0.4943 1.3877,-0.9912 0.8907,-0.9912 0.6926,-1.1869 0.2986,-1.29 h -5.548 V 294.89 h 7.1339 l -0.1982,1.8845 c -0.6851,3.7915 -2.6122,5.5858 -6.2432,6.6371 l -1.9823,0.1 -2.2785,-0.1983 -2.1805,-0.695 -1.483,-0.9912 -1.29,-1.2873 -0.9912,-1.3876 -0.6951,-1.5859 -0.2961,-1.2873 -0.0978,-1.3875 0.1957,-1.98 a 8.54,8.54 0 0 1 6.8378,-6.64 l 1.9824,-0.1982 2.3763,0.1982 2.281,0.7929 1.5833,1.089 1.39,1.1894 m -16.1524,-29.0325 h 1.9824 l 4.853,7.7286 4.9558,-7.7286 m 1.8845,0 -5.8461,9.2177 m 0,0 6.1428,9.51 H 624.42 l -5.154,-8.0248 -5.1517,8.0248 h -1.8819 l 6.0449,-9.51 -5.8467,-9.2167 m 11.7912,0 h 1.8845 m -5.3524,-23.7806 8.72,18.7269 H 627.59 l -2.7728,-5.9445 h -8.4242 l -2.8706,5.9445 h -1.8845 l 8.918,-18.7269 h 0.1982 m -3.4678,10.8 h 6.6371 l -3.27,-7.1314 -3.3675,7.1314 m 9.9067,-34.5781 h 1.7841 m 14.27,0 -7.9286,18.7274 m 0,0 h -0.1957 l -7.9294,-18.7269 m 1.7841,0 6.2432,14.7622 6.2431,-14.7622 h 1.7841 m -28.5383,9.4124 1.882,-9.4124 m 0,0 h 7.7312 m 0,0 v 1.98 h -6.3435 l -1.0891,4.8554 1.2873,-0.2961 h 0.9912 l 1.6837,0.1983 1.6863,0.79 1.2872,1.1894 0.8908,1.8845 0.2986,1.9823 -0.1982,1.98 -0.7929,1.7842 -1.2873,1.4855 -1.29,0.7929 -1.3876,0.4969 -1.5834,0.0978 -1.5859,-0.1982 -1.3876,-0.5947 -1.2873,-1.089 -0.9911,-1.5859 -0.3965,-1.7842 h 1.6837 l 0.2986,0.9913 0.5922,0.8907 0.7955,0.7955 1.1869,0.4943 1.1894,0.1983 1.3876,-0.1983 1.2873,-0.5947 0.9912,-0.9911 0.8907,-1.3852 0.1983,-1.5859 -0.1983,-1.29 -0.4943,-1.187 -0.8908,-0.8932 -1.3876,-0.5947 -1.4855,-0.1983 -2.3788,0.3965 -1.7842,0.5947 m 1.6838,-25.2661 h 2.2809 a 3.8289,3.8289 0 0 0 3.8644,-2.3789 l 0.0978,-0.8907 -0.0978,-0.5947 -0.1983,-0.6951 -0.3964,-0.4943 -0.5948,-0.3965 -1.29,-0.3965 -1.3852,-0.0979 h -2.2804 v 5.9446 m -1.6838,-7.9269 h 3.6661 l 1.5859,0.0978 1.5859,0.3966 1.3851,0.7928 0.793,0.9913 0.3964,1.1868 0.2008,1.192 -0.2008,1.2872 -0.4918,1.2873 -0.5972,0.7929 -0.8908,0.5947 1.6837,0.793 1.1894,1.29 0.5948,1.2847 0.1982,1.4881 -0.2986,1.5858 -0.793,1.4855 -1.1894,1.1894 -1.7816,0.7929 -1.9823,0.1983 h -5.0538 V 188.772 m 1.6838,16.8449 h 2.3788 l 1.1894,-0.1 c 1.882,-0.0226 3.3022,-0.6348 3.9622,-2.4767 l 0.1982,-0.7928 -0.2961,-1.3877 -0.8933,-1.089 -0.8908,-0.5947 -0.9911,-0.2987 -1.98,-0.1982 h -2.6773 v 6.9382 m -5.2494,-7.2343 v 90.267 m -9.1163,-0.4968 0.4943,0.1 a 42.78,42.78 0 0 0 7.0361,0.3964 h 1.5859 l -0.0979,0.0979 -3.2721,2.1806 -1.6838,0.8908 -1.8844,0.7929 -1.4856,0.2961 -1.4855,0.1982 m 0,0 h -0.3964 m 0,-99.1824 1.6837,0.0979 1.6838,0.4968 m 0,0 1.7841,0.6951 1.6862,0.8908 3.37,2.178 0.0979,0.1 h -1.5859 a 42.5074,42.5074 0 0 0 -7.0361,0.3965 l -0.4943,0.0978 m -55.29,101.2652 -1.6838,1.6863 h -6.1428 m 7.8266,-1.7867 v -0.0978 h 0.1 a 35.7106,35.7106 0 0 1 3.764,-0.1983 h 1.1894 m 0,-0.1 v 0.1 m -12.88,-113.9471 h 6.1428 m 6.7375,2.1806 v -0.1 m -5.0537,-0.2961 0.1,0.0978 c 1.2471,0.07 2.5043,0.2384 3.764,0.1983 h 1.1894 m -5.0537,-0.3964 -1.6838,-1.6838 m 41.8129,107.3074 h 13.9718 m 0,0 h -1.0891 l -0.8908,-0.0978 -0.7954,-0.1 -0.4943,-0.0978 m 0,-98.59 0.4943,-0.0979 0.7954,-0.1 0.8908,-0.0979 h 1.0891 m -13.9718,0 h 13.9718 m -66.5842,-3.4678 v 106.615 m 8.8177,1.9823 -4.1605,2.7753 -0.8933,-0.1 a 4.6947,4.6947 0 0 1 -3.666,-3.6686 l -0.0979,-0.9886 4.16,-2.7728 m 0,-101.067 -4.16,-2.7752 0.0979,-0.8909 a 4.7013,4.7013 0 0 1 3.666,-3.6686 l 0.8933,-0.0978 4.1605,2.7753 m 58.9559,99.5789 V 198.8769 M 597.5683,292.81 594,292.1174 m 3.5683,0.6926 0.7929,-0.0979 a 4.5112,4.5112 0 0 0 3.5657,-3.6686 l 0.1,-0.8908 m -3.4679,-0.6951 3.4679,0.6951 m 0,-89.2758 -3.4679,0.6951 m 3.4679,-0.6951 -0.1,-0.8907 a 4.5115,4.5115 0 0 0 -3.5657,-3.6662 l -0.7929,-0.1 m -3.5683,0.695 3.5683,-0.695 m -53.8044,80.8545 v 8.8177 m 0,-32.5983 v 8.8177 m 0,-32.5982 v 8.8176 m 0,-32.5958 v 8.8177 m -5.35,81.7454 0.1,0.9887 a 4.6393,4.6393 0 0 0 3.6661,3.666 l 0.8908,0.1 m 0,-4.7551 v 4.7551 m 8.3233,0 h -8.3233 M 594,292.1174 l 0.8933,-0.1 c 1.8745,-0.1806 3.1592,-1.9523 3.5657,-3.6661 l 0.1,-0.8933 M 594,292.1174 h -6.7374 m 6.7374,0 v -4.66 m -50.9286,6.84 h 8.3233 m 0,-9.2167 v 9.2167 m 0,0 v 4.7551 m 0,-13.9718 0.3965,-1.1894 v 15.7534 l -0.3965,-0.5922 m -7.6308,-15.1612 h 8.0273 m -8.0273,0 -1.1869,1.1894 m 0.4944,0 h 8.3233 m 0.3965,-10.0071 h -8.0273 l -1.1869,-1.1894 m 1.1869,-13.7735 h 8.0273 m -8.0273,0 -1.1869,1.1894 m 8.8177,12.5841 h -8.3233 m 0,-12.5841 h 8.3233 m 0,0 0.3965,-1.1894 v 14.9629 l -0.3965,-1.1894 m 0,-12.5841 v 12.5841 m 0.3965,-22.5912 h -8.0273 l -1.1869,-1.1894 m 1.1869,-13.7735 h 8.0273 m -8.0273,0 -1.1869,1.1919 m 8.8177,0 0.3965,-1.1919 m 0,0 v 14.9629 l -0.3965,-1.1894 m -8.3233,-12.5816 h 8.3233 v 12.5816 m 0,0 h -8.3233 m 8.72,-22.5911 h -8.0273 l -1.1869,-1.1894 m 8.8177,0 h -8.3233 m 0.6925,-13.7711 h 8.0273 m -8.0273,0 -1.1871,1.188 m 0.4944,0 h 8.3233 m 0,0 0.3965,-1.1869 m -0.3965,1.1869 v 12.5842 m 0.3965,-13.7711 v 14.96 l -0.3965,-1.1894 m 0.3965,-22.5888 h -8.0273 L 542.577,202.543 M 594,287.4576 h 4.5594 m 0,-87.8856 v 87.8856 m -11.2968,0 H 594 V 199.572 m 0,0 h -6.7374 m 0,-4.6573 H 594 m 4.5594,4.6573 H 594 v -4.6573 m 4.5594,4.6573 -0.1,-0.8933 c -0.6,-2.05 -1.4378,-3.119 -3.5657,-3.6636 l -0.8933,-0.1 m -42.6053,7.6283 h -8.3233 m 0,-9.312 v 9.312 h -0.4944 m -4.1629,91.755 V 193.231 m 0,101.067 h 4.6573 m -0.4944,-91.755 v 11.197 h 0.4944 v 12.5842 h -0.4944 v 11.1989 h 0.4944 v 12.5816 h -0.4944 v 11.1965 h 0.4944 v 12.5841 h -0.4944 v 11.1965 h 0.4944 v 9.2167 m 0,-105.7242 h 8.3233 m 0,4.6572 h -8.3233 m 0,-4.6572 v 4.6572 h -4.6573 m 4.6573,-4.6572 -0.8908,0.0979 a 4.6785,4.6785 0 0 0 -3.6661,3.666 l -0.1,0.8933 m 13.3771,-5.2519 v 15.7558 l -0.3965,-1.1919 m 0.3965,-14.5639 -0.3965,0.5947 m 0,0 v 4.6572 m 0,0 v 9.312 m 35.8679,84.9146 V 199.572 m 0,0 v -4.6573 m -0.5947,-0.5947 0.1982,0.1983 v -0.5947 l 0.3965,0.9911 m -0.5947,-0.5947 v -11.4925 m 0.1,0 h -0.1 m -0.0979,0 v 121.9719 m 0.1982,0 h -0.1 m 0,0 v -11.4951 m 0,0 0.1982,-0.1983 m 0,0 v 0.1 m 0,-0.1 0.3965,-0.9886 m 0,0 v -4.66 m -40.5251,12.5841 v 38.5455 m 0,-165.8669 v 14.8625"
       id="path621" />
    <path
       class="cls-18"
       d="m 762.9389,232.6664 -0.1982,-0.6951 a 58.7643,58.7643 0 0 0 -12.4838,-17.5375 l -0.1982,-0.1982 m 12.88,18.4308 0.2986,0.8907 m 0,0 -0.3965,0.793 m 0,0 0.2961,0.5947 a 55.2857,55.2857 0 0 1 3.8644,17.44 v 0.1958 m 0.695,0.4968 -0.695,-0.4968 m 0.695,0.4968 0.1,0.9912 m -3.8643,22.0944 0.2961,-0.6926 a 56.6825,56.6825 0 0 0 3.5682,-21.2036 v -0.1982 m -3.8643,22.0944 -0.3965,0.8932 m 0,0 -0.7954,0.2962 m 0,0 -0.1983,0.5947 a 57.461,57.461 0 0 1 -9.6105,15.0632 h -0.0979 m 0.0979,0.9887 -0.0979,-0.8932 m 0.0979,0.8932 -0.6926,0.6926 m -18.23,12.9831 0.6925,-0.2986 a 57.6436,57.6436 0 0 0 17.5375,-12.5841 l 0.0978,-0.1 m -18.3278,12.9831 -0.9938,0.2936 m 0,0 -0.6925,-0.2936 m 0,0 -0.5947,0.1982 a 54.6142,54.6142 0 0 1 -17.44,3.8644 H 714.09 m -0.4943,0.69 0.3965,-0.69 m -0.3965,0.69 -1.089,0.1 m -22.0969,-3.764 0.6926,0.1983 a 56.9585,56.9585 0 0 0 21.2035,3.5657 h 0.2986 m -22.1947,-3.764 -0.8908,-0.4943 m 0,0 -0.1982,-0.6951 m 0,0 -0.5947,-0.2986 a 56.0463,56.0463 0 0 1 -15.0608,-9.6106 l -0.1983,-0.1 m -0.7929,0.1 0.7929,-0.1 m -0.7929,0.1 -0.7929,-0.5922 M 658.901,278.74 l 0.2986,0.5947 a 57.6043,57.6043 0 0 0 12.5816,17.54 l 0.1982,0.0979 M 658.901,278.74 l -0.2961,-0.9912 m 0,0 0.3964,-0.6926 m 0,0 -0.1982,-0.695 a 54.0947,54.0947 0 0 1 -3.8643,-17.4371 v -0.1983 m -0.6951,-0.3964 0.5947,0.4943 m -0.5947,-0.4943 -0.1957,-0.9911 m 3.8618,-22.0969 -0.1982,0.5947 a 58.0668,58.0668 0 0 0 -3.5657,21.2035 v 0.1983 m 3.7639,-21.9965 0.399,-0.8908 m 0,0 0.79,-0.2987 m 0,0 0.2986,-0.6925 a 56.6249,56.6249 0 0 1 9.6106,-15.0608 l 0.0979,-0.1983 m -0.0979,-0.6925 0.0979,0.7929 m -0.0979,-0.7929 0.5947,-0.7929 m 105.2274,24.5735 -0.0979,-0.7929 -0.3964,-1.5859 a 65.5752,65.5752 0 0 0 -77.0907,-47.2651 l -0.79,0.1982 -0.6951,0.1 a 65.6187,65.6187 0 0 0 -49.0467,76.6916 l 0.3965,1.5859 0.1,0.6926 0.1982,0.7929 a 65.6107,65.6107 0 0 0 76.4934,48.2538 l 1.5859,-0.3965 a 65.4362,65.4362 0 0 0 49.8371,-75.9966 l -0.0979,-0.7929 -0.3964,-1.5859 m -8.2251,1.9824 0.1982,0.5947 0.1,0.6926 0.1982,0.695 a 57.1558,57.1558 0 0 1 -42.9039,66.09 l -0.6926,0.0978 -0.5947,0.1983 a 57.0794,57.0794 0 0 1 -67.2767,-41.9128 l -0.2008,-0.6926 -0.0978,-0.6951 -0.1983,-0.5947 -0.1,-0.6925 A 57.0033,57.0033 0 0 1 697.05,200.2638 l 0.6926,-0.1982 0.695,-0.0979 c 29.61,-7.001 60.1429,11.5678 67.6733,41.022 l 0.3964,1.3851 0.0979,0.6951 m 7.829,-1.7841 -0.0978,-0.793 -0.1983,-0.7929 -0.1982,-0.7905 a 65.14,65.14 0 0 0 -76.5938,-46.9689 l -0.7929,0.2007 -0.6926,0.0978 A 65.1871,65.1871 0 0 0 647.11,268.4363 l 0.1982,0.79 0.2008,0.793 0.0978,0.6951 0.1983,0.79 a 65.1744,65.1744 0 0 0 75.9965,47.9577 l 1.5859,-0.394 a 65.0083,65.0083 0 0 0 49.541,-75.5047 l -0.0978,-0.793 -0.3965,-1.5833 m -203.321,-109.9841 0.1983,0.1 m -18.1347,23.8785 -0.0979,-0.0979 m 0,201.2406 0.0979,-0.1 m 18.1347,23.881 -0.1983,0.0978 m 279.22,-164.7779 0.1,0.5947 m -279.32,-84.8167 1.0891,-1.1894 c 2.1655,-2.4818 4.4163,-4.6523 6.64,-7.0336 l 1.1869,-1.0916 h 12.288 m -53.1092,63.9093 h 5.35 v -16.0495 l 1.089,-2.0828 c 2.2282,-4.0224 4.4415,-8.0222 6.9382,-11.889 l 0.4943,-0.793 M 544.5574,341.56 v -39.7325 h -5.35 m 13.8713,54.497 -1.1887,-1.9845 c -2.3261,-3.8944 -4.76,-7.9595 -6.8353,-11.9869 l -0.3965,-0.8908 m 47.6591,48.0555 h -12.288 l -1.5834,-1.6837 -1.5859,-1.5859 -4.7551,-5.0537 -0.8933,-1.089 m 279.2214,-84.7193 -0.1,0.5947 m -292.0021,-101.2627 -0.6951,1.7816 -0.5947,1.6838 m 0,0 v 106.6149 m -10.1049,40.8238 0.6925,1.2873 c 1.5608,2.6774 3.1567,5.37 4.7577,8.0272 l 0.79,1.2873 m 0,0 2.4792,-0.793 m 0,0 1.2873,1.8845 a 215.2456,215.2456 0 0 0 15.0608,19.8159 l 0.6925,0.793 m 0,0 -1.3851,2.1806 m 0,0 4.7551,5.0512 1.5859,1.5858 1.5858,1.6838 0.8909,0.8933 m 0,-267.33 -1.1895,1.1894 c -2.2307,2.296 -4.5267,4.5193 -6.637,6.9357 l -0.9912,1.1894 m 0,0 1.3851,2.1806 m 0,0 -1.4855,1.6837 a 177.31,177.31 0 0 0 -14.8626,19.9163 l -0.5947,0.8908 m -0.0978,0 -2.4792,-0.7929 m 0,0 -0.79,1.2872 c -1.5934,2.64 -3.1643,5.29 -4.7577,7.9269 l -0.6925,1.3876 m 2.6749,179.1461 -2.6749,0.6926 m 0,-6.9357 v 6.9357 m 2.6749,-179.1462 -2.6749,-0.6926 m 0,0 v 6.8353 m 303.5947,122.7671 0.4944,-1.7841 a 146.0613,146.0613 0 0 0 3.37,-15.6555 l 0.1983,-1.1869 m -0.0979,0 -2.3788,-0.8934 m 0,0 0.2961,-1.7841 a 142.7976,142.7976 0 0 0 -0.1958,-38.3445 l -0.1,-0.2986 m 0,0 2.3788,-0.7905 m 0,0 -0.1982,-1.7841 a 157.1605,157.1605 0 0 0 -3.37,-15.6554 l -0.3965,-1.1894 m -269.3131,170.6245 -1.089,2.675 m 0,0 h 10.6017 m -9.5127,-264.5551 -1.089,-2.7753 m 10.6017,0 h -10.6017 m -16.7446,227.7964 0.5947,-0.399 m 286.2555,-54.3962 0.2961,0.3965 m -2.08,-2.7753 0.6926,0.9912 m 1.0915,1.7841 h 0.1982 m 0,0 h 0.0979 m -0.2961,-79.07 0.2961,-0.296 m -2.08,2.7727 0.6926,-0.9886 m 1.3876,-1.7841 h -0.0979 m 0,0 h -0.1982 m -7.1364,3.1692 v 0.1 m 0,72.9278 v 0.0978 m -279.7142,-130.6922 0.5947,0.394 m 16.7446,209.5664 -0.4969,0.3964 m 0.4969,-232.1551 -0.4969,-0.3964 m 4.7576,237.801 -4.2607,-5.6459 m -16.7446,-22.1973 -3.9647,-5.1516 m 0,-177.0634 3.9647,-5.1541 m 16.7446,-22.1923 4.2607,-5.6483 m 258.1138,85.0124 1.3876,-0.0978 h 1.29 l 0.9887,-0.1 0.8933,-0.0979 h 0.4968 l 0.2961,-0.1 0.79,3.1743 a 141.8982,141.8982 0 0 1 0.2987,66.2855 l -1.0891,4.3587 -0.1982,-0.0979 a 40.8,40.8 0 0 0 -4.5569,-0.2986 h -0.5972 m 0,-73.0255 v 16.5488 m 0,39.9305 h 4.0625 l 0.1983,-9.312 0.1,-9.3171 -0.1,-10.7 -0.1983,-10.7022 h -3.0688 l -0.9937,0.1 m 0,39.9305 v 16.5462 m -293.191,47.9577 -1.483,-1.4855 m 42.0106,-216.4017 0.2961,-0.2961 m -3.0714,3.1717 1.4856,-1.5858 m -1.5859,7.2318 v 0.1 m 3.1717,-8.6219 v -0.2961 m -40.8237,49.1446 -1.3851,1.4854 m 11.5929,-13.5727 1.7816,1.3876 1.488,1.1894 m -3.27,-2.577 5.2494,-7.1339 5.3524,-7.0361 6.2406,-8.0248 m 4.2608,-12.0872 0.1982,0.0979 h 0.2986 l 2.3763,0.1982 h 1.3876 l 2.1806,0.1 -0.1,2.1781 v 3.4679 l -2.5746,3.37 -0.5947,0.6925 c -1.1894,1.2447 -2.4214,2.5821 -3.5682,3.8643 l -0.5947,0.6951 -0.0978,-0.1 -1.1895,-0.8907 -1.2872,-0.9913 -0.6951,-0.5947 m -13.5728,24.7718 -0.3965,0.6926 c -0.8481,1.3952 -1.7289,2.7677 -2.577,4.16 l -0.3965,0.6951 -2.8731,3.8643 h -4.7551 l -1.29,0.0979 h -1.1894 v -1.4855 l -0.0979,-1.29 v -1.2848 l -0.1,-0.4968 -0.0979,-0.1 1.1894,-1.98 a 177.9292,177.9292 0 0 1 30.1216,-39.436 l 0.2961,-0.3965 m 6.341,255.8353 v 0.1 m 2.8756,8.4212 0.2961,0.2986 m -3.0714,-3.0714 1.4856,1.4855 m 1.5858,1.5859 V 389.12 m -41.12,-44.1912 0.0979,-0.1 0.1,-0.5947 v -1.1894 l 0.0979,-1.3851 v -1.488 l 1.488,0.1 h 1.6837 l 1.7841,0.0979 h 2.2785 l 2.8731,3.8642 0.3965,0.6951 c 0.8481,1.3927 1.7289,2.7678 2.577,4.16 l 0.3965,0.6951 -0.7929,0.6926 -1.5859,1.1869 10.8,14.17 6.2431,7.8289 1.5859,-1.1894 0.5922,-0.4943 m 0,0 0.5947,0.6926 c 1.1468,1.2823 2.3788,2.62 3.5682,3.8643 l 0.5947,0.6926 2.5746,3.27 v 2.8732 l 0.1,2.8756 h -2.1806 l -1.8819,0.0979 -0.8908,0.1 h -0.6951 l -0.4943,0.0978 -0.2986,0.1 -1.5834,-1.6862 a 187.1452,187.1452 0 0 1 -29.7276,-39.6343 l -0.1982,-0.4944 m 13.5778,-160.1206 0.8908,-1.882 m 124.1532,138.324 -0.7929,-0.2986 A 74.1074,74.1074 0 0 1 677.53,316.2911 l -0.5947,-0.394 m 29.13,8.9156 -0.7929,-0.0979 -3.7665,-0.3964 -3.7639,-0.5947 -3.6661,-0.79 -0.3965,-0.1983 m 30.42,0.9887 -0.7929,0.1 a 69.13,69.13 0 0 1 -11.0008,1.0891 h -0.6925 m -152.39,-114.5419 v -4.459 m 0,28.24 v -4.459 m 0,28.24 v -4.4591 m 0,28.24 v -4.459 m 0,27.5445 v -3.7639 m 22.2926,-18.4307 -2.7753,-2.7754 m 0,0 H 561.204 l -2.8731,2.7754 m 0,0 v 17.54 m 0,0 2.8731,2.7727 m 0,0 h 17.5375 m 0,0 2.7753,-2.7727 m 0,0 v -17.54 m -8.5216,11.7911 h -6.1427 m 1.8819,-1.882 h 2.3788 m -4.2607,1.882 V 288.35 m 0,6.0449 1.8819,-1.882 m 0,-2.2784 v 2.2784 m 2.3788,-2.2784 h -2.3788 l -1.8819,-1.8845 h 6.1427 m -1.882,4.1629 v -2.2784 l 1.882,-1.8845 v 6.0449 l -1.882,-1.882 m 1.882,-21.8961 h -6.1427 m 1.8819,-1.8845 h 2.3788 m -4.2607,1.8845 v -6.0448 m 0,6.0448 1.8819,-1.8845 m 0,-2.2784 v 2.2784 m 2.3788,-2.2784 h -2.3788 l -1.8819,-1.8819 h 6.1427 m -1.882,4.16 v -2.278 l 1.882,-1.8819 v 6.0448 l -1.882,-1.8845 m 1.882,-21.8986 h -6.1427 m 0,0 v -6.0424 m 0,6.0424 1.8819,-1.8819 m 2.3788,-2.2785 h -2.3788 l -1.8819,-1.882 h 6.1427 m -4.2608,1.882 v 2.2785 m 0,0 h 2.3788 m 0,0 v -2.2785 l 1.882,-1.882 v 6.0424 l -1.882,-1.8819 m 1.882,-21.8987 h -6.1427 m 1.8819,-1.882 h 2.3788 m -4.2607,1.882 v -6.0449 m 0,6.0449 1.8819,-1.882 m 0,-2.2784 v 2.2784 m 4.2608,-4.1629 v 6.0449 l -1.882,-1.882 m 0,0 v -2.2784 m 0,0 1.882,-1.8845 m -1.882,1.8845 h -2.3788 l -1.8819,-1.8845 h 6.1427 m 0,-17.7332 h -6.1427 m 1.8819,-1.8845 h 2.3788 m -4.2607,1.8845 V 193.23 m 0,6.0449 1.8819,-1.8845 m 0,-2.2784 v 2.2784 m 4.2608,-4.16 v 6.0449 l -1.882,-1.8845 m 0,0 v -2.2784 m 0,0 1.882,-1.882 m -1.882,1.882 h -2.3788 l -1.8819,-1.882 h 6.1427 m -11.7912,62.82 -2.8731,2.7727 m 0,0 v 17.5375 m 0,0 2.8731,2.7753 m 0,0 h 17.5375 m 0,0 2.7753,-2.7753 m 0,0 v -17.5374 m 0,0 -2.7753,-2.7727 m 0,0 H 561.204 m 0,-23.7807 -2.8731,2.7754 m 0,0 V 252.58 m 0,0 2.8731,2.7753 m 0,0 h 17.5375 m 0,0 2.7753,-2.7753 m 0,0 v -17.5348 m 0,0 -2.7753,-2.7754 m 0,0 H 561.204 m 0,-23.7805 -2.8731,2.7752 m 0,0 v 17.5375 m 0,0 2.8731,2.7727 m 0,0 h 17.5375 m 0,0 2.7753,-2.7727 m 0,0 v -17.5375 m 0,0 -2.7753,-2.7752 m 0,0 H 561.204 m 17.5375,-23.7806 H 561.204 l -2.8731,2.7727 m 0,0 v 17.54 m 0,0 2.8731,2.7753 m 0,0 h 17.5375 m 0,0 2.7753,-2.7753 m 0,0 v -17.54 m 0,0 -2.7753,-2.7727 m -21.7982,119.992 V 182.9246"
       id="path623" />
  </g>
  <g
     class="cls-19"
     clip-path="url(#clip-path-2)"
     id="g629"
     transform="translate(-204.86405,-14.366131)">
    <path
       class="cls-18"
       d="m 719.6407,208.7873 -2.2784,-0.2986 m 0,0 v -0.0978 m -7.3347,-0.399 h 0.8933 a 43.5968,43.5968 0 0 1 5.5481,0.2986 l 0.8933,0.1 m 11.194,3.0713 0.695,2.2785 m -8.6194,-4.7551 0.5947,0.0978 a 39.7185,39.7185 0 0 1 6.7375,1.9824 l 0.5922,0.1982 v 0.0978 m 2.7753,94.8238 -0.0979,-0.0978 m 0,0 -2.1806,-1.0916 M 713.3,310.0525 h 0.0979 m 17.934,-3.8669 -0.5947,0.1983 a 55.29,55.29 0 0 1 -16.9428,3.6686 h -0.2961 m -4.9534,-100.0782 1.483,-1.882 m -1.483,-6.7375 1.483,6.7375 m 4.7576,99.9778 -1.4855,1.9824 m 0,0 -1.488,-6.74 m -21.2035,-98.0934 v 0.1 m 16.4484,-1.9824 1.488,-1.9823 m 0,0 h -0.1 m -16.3481,10.6017 -1.488,-6.7374 0.695,-0.2961 a 56.4745,56.4745 0 0 1 16.8424,-3.666 h 0.2987 m -17.8361,3.9621 2.1806,1.1894 m 9.4123,96.2115 -0.9911,-0.1983 m 0.9911,0.1983 2.281,0.2961 m 7.33,0.4968 h -0.8908 a 51.3723,51.3723 0 0 1 -5.548,-0.3989 l -0.8908,-0.0979 v 0.0979 m 8.8176,-1.586 -1.488,1.8845 m -10.6017,-0.8908 -0.9887,-0.2986 a 42.4053,42.4053 0 0 1 -5.947,-1.7816 l -0.9912,-0.2986 m 0,-0.0979 -3.6636,5.7438 m 3.6636,-5.7438 -0.6926,-2.3788 m -0.4943,-85.61 2.1781,1.0917 m -17.7357,9.6105 0.4943,-0.4968 a 48.1591,48.1591 0 0 1 14.7647,-10.2054 l 0.3965,-0.0977 m -15.2601,13.1769 -0.2986,-2.3763 m -5.8441,-3.666 5.8441,3.666 m -2.3764,73.1234 3.6661,-5.7462 m 11.6939,15.7558 v -0.1029 m 0,0 -0.6951,-2.2759 m -12.288,-7.9268 -2.3763,0.296 m 15.3594,10.01 -0.5972,-0.3011 a 54.9551,54.9551 0 0 1 -14.4661,-9.41 l -0.2961,-0.2987 -0.1,0.1 m -7.53,-57.7665 -5.7462,-3.6661 m 10.3056,-12.9806 -0.3964,-2.4766 m 0,0 v 0.0978 m -10.0084,15.2597 0.2961,-0.6925 a 54.867,54.867 0 0 1 9.4149,-14.4661 l 0.2961,-0.2986 m -10.0071,15.46 0.0979,0.0978 m 0,0 2.3788,-0.7929 m 17.0406,56.0823 -2.3763,0.2961 m -0.1,0 -0.3964,-0.4944 a 47.4747,47.4747 0 0 1 -10.2054,-14.8626 l -0.0978,-0.1 m 0,0 -6.64,1.4855 m 6.64,-1.4855 1.1894,-2.1781 m -4.2608,-25.4668 0.1982,-0.9912 m -0.1982,0.9912 -0.3965,2.2809 m -0.3964,7.43 v -0.9913 a 45.0514,45.0514 0 0 1 0.2961,-5.548 l 0.1,-0.8908 v 0.0979 m 2.971,-11.1965 2.3789,-0.793 m -4.7552,8.6195 0.1983,-0.5947 a 39.2,39.2 0 0 1 1.9823,-6.7375 l 0.1957,-0.5947 h 0.1 m -1.488,20.0166 -1.98,-1.3875 m -6.64,1.4854 6.64,-1.4854 m -2.7753,19.4194 v 0.1 m 0,-0.1 1.1894,-2.1781 m -3.0714,-14.2678 -1.9823,-1.4881 m 0,0 h -0.0979 m 3.9622,17.934 -0.1982,-0.6926 a 55.1519,55.1519 0 0 1 -3.6661,-16.8449 v -0.4944 m 75.4043,-35.87 -0.7929,-0.5922 -0.3965,-0.1982 a 39.64,39.64 0 0 0 -53.1092,12.6819 l -0.1983,0.4944 -0.2961,0.3964 a 39.583,39.583 0 0 0 11.7892,53.6051 l 0.3965,0.2961 0.4968,0.1982 0.79,0.5947 a 39.64,39.64 0 0 0 53.21,-12.09 l 0.2986,-0.394 0.1982,-0.4968 c 11.49,-17.4848 6.3134,-42.1386 -11.0986,-53.7039 l -0.7929,-0.5947 -0.4944,-0.1983 m -39.2378,-15.7534 1.4855,6.64 m 0,0 -0.4944,0.1981 a 44.7962,44.7962 0 0 0 -16.4484,11.3923 l -0.2986,0.3964 m -0.0979,0 -5.7463,-3.5657 m 0,0 -0.3964,0.3965 a 56.1919,56.1919 0 0 0 -7.2343,11.3947 l -0.1982,0.3965 m -0.0979,0 5.7463,3.666 m 0,0 -0.1983,0.4944 a 46.2955,46.2955 0 0 0 -3.5682,19.72 v 0.4943 m 0,0 -6.6371,1.586 m 0,0 0.0979,0.5921 a 55.2637,55.2637 0 0 0 2.8731,13.1789 l 0.1983,0.3964 m -0.0979,0.1 6.64,-1.4855 m 0,0 0.2961,0.4943 a 45.5877,45.5877 0 0 0 11.3947,16.4485 l 0.399,0.2961 m -0.1029,0.1 -3.6661,5.7463 m 0,0 0.4969,0.3964 a 56.7525,56.7525 0 0 0 11.3947,7.2318 l 0.4943,0.1982 m -0.0979,0.1 3.6661,-5.8467 m 0,0 0.5947,0.1983 a 46.3294,46.3294 0 0 0 19.7181,3.5682 H 713.3 m 0,0.0953 1.4855,6.6421 m 0,0 0.6926,-0.1 a 53.3,53.3 0 0 0 13.1788,-2.8732 l 0.3965,-0.1982 m 0,0.0978 -1.4855,-6.637 m 0,0 0.5947,-0.2986 a 46.2441,46.2441 0 0 0 16.5463,-11.3922 l 0.2986,-0.2986 m -0.1,0 5.8467,3.5657 m 0,0 0.4943,-0.4943 a 56.77,56.77 0 0 0 7.2343,-11.3948 l 0.1982,-0.3964 m -0.1,0 -5.7463,-3.5658 m 0,0 0.2986,-0.5971 a 45.5584,45.5584 0 0 0 3.5657,-19.7156 v -0.5947 m -0.0978,0.1 6.7374,-1.488 m 0,0 v -0.6926 a 53.4244,53.4244 0 0 0 -2.8756,-13.1789 l -0.1983,-0.4968 m -0.0978,0.1 -6.64,1.4855 m 0,0 -0.1983,-0.5922 a 44.8236,44.8236 0 0 0 -11.3922,-16.4484 l -0.3989,-0.2986 m 0,0 3.6661,-5.7463 m 0,0 -0.394,-0.4943 a 55.5192,55.5192 0 0 0 -11.3947,-7.2344 l -0.4969,-0.1982 m 0,0 -3.6661,5.7463 m 0,0 -0.4968,-0.2961 a 46.2351,46.2351 0 0 0 -19.7155,-3.5682 h -0.4944 m 0,0.0979 -1.488,-6.6372 m 0,0 h -0.5947 a 54.0432,54.0432 0 0 0 -13.1788,2.8732 l -0.3965,0.1982 m -0.5947,118.4037 0.1,-0.0954 v -0.1028 l 0.0979,-0.0954 V 324.32 l 0.1982,-0.1983 v -0.1 l 0.1,-0.1 v -0.0979 h 0.0978 v -0.1 l 0.1,-0.0979 v -0.0979 l 0.1982,-0.1982 v -0.1 l 0.2961,-0.2961 v -0.1 h 0.1 v -0.0978 l 0.0979,-0.1 h 0.1 v -0.0978 l 0.0979,-0.1 h 0.1 v -0.1 l 0.0978,-0.0979 h 0.1 v -0.1 l 0.0979,-0.0979 h 0.1 v -0.0978 h 0.0979 l 0.2961,-0.2987 h 0.1 l 0.1982,-0.1982 h 0.0978 l 0.1,-0.0978 h 0.1 v -0.1 h 0.0979 l 0.1,-0.0979 h 0.0978 l 0.1982,-0.1982 h 0.1983 l 0.1,-0.0979 h 0.0978 l 0.0979,-0.1 h 0.1 l 0.0979,-0.0979 h 0.1982 l 0.1,-0.1029 h 0.1982 l 0.0979,-0.0954 h 0.2986 l 0.0979,-0.1 h 0.3964 v -0.0979 h 0.1983 c 0.9359,0.0527 0.399,-0.13 0.9911,-0.1 h 0.1983 c 0.7578,-0.04 0.1,0.15 1.0915,0.1 h 0.1957 v 0.0979 h 0.3965 l 0.1,0.1 h 0.2961 l 0.1,0.0954 h 0.1982 l 0.0979,0.1029 h 0.1982 l 0.1,0.0979 h 0.0978 v 0.1 h 0.1983 l 0.1,0.0979 h 0.1983 l 0.1982,0.1982 h 0.0979 l 0.0978,0.0979 h 0.1 v 0.1 h 0.0979 l 0.1,0.0978 h 0.0979 l 0.1982,0.1982 h 0.1 l 0.2961,0.2987 h 0.1 v 0.0978 h 0.1 l 0.0979,0.0979 v 0.1 h 0.1 l 0.0978,0.0979 v 0.1 h 0.0979 l 0.1,0.1 v 0.0978 h 0.0979 l 0.1,0.1 v 0.0978 h 0.0979 v 0.1 l 0.2986,0.2961 v 0.1 l 0.1957,0.1982 v 0.0979 l 0.1,0.0979 v 0.1 h 0.0978 v 0.0979 l 0.1,0.1 v 0.1 l 0.1983,0.1983 v 0.1982 l 0.1,0.0954 v 0.1028 l 0.0979,0.0954 v 0.1029 l 0.1,0.0978 v 0.1982 l 0.0979,0.0979 v 0.1983 l 0.1,0.1 v 0.296 l 0.0979,0.1 v 0.394 h 0.1 v 0.695 m 4.0626,0.1983 0.0978,-0.0979 v -0.3964 l 0.1,-0.1 V 326.3 h 0.0979 v -0.2961 l 0.0978,-0.1 v -0.1982 l 0.1,-0.0978 v -0.1 l 0.0978,-0.0979 v -0.1 l 0.1,-0.0979 v -0.1982 h 0.0979 v -0.0978 l 0.1,-0.1029 v -0.1982 l 0.1982,-0.1958 V 324.32 l 0.0978,-0.1 v -0.0979 h 0.1 v -0.1 l 0.2961,-0.2985 v -0.0979 h 0.1 v -0.0979 c 0.1656,-0.1656 0.3287,-0.3312 0.4943,-0.4968 v -0.0979 h 0.1 l 0.2961,-0.2986 h 0.1 v -0.0978 l 0.0978,-0.1 h 0.0979 l 0.1982,-0.1983 h 0.1 l 0.1982,-0.1982 h 0.0979 l 0.2008,-0.1982 h 0.0978 l 0.1,-0.0979 h 0.0978 v -0.1 h 0.1 l 0.0979,-0.0978 h 0.1982 l 0.1,-0.1 h 0.0978 l 0.0979,-0.0978 h 0.1 l 0.0979,-0.1 h 0.2985 v -0.0979 h 0.1983 l 0.0979,-0.0979 h 0.3964 l 0.1,-0.1 h 0.3964 l 0.0979,-0.0979 h 2.0827 l 0.0979,0.0979 h 0.3965 l 0.0978,0.1 h 0.3965 v 0.0979 h 0.2986 l 0.0979,0.0979 h 0.1982 l 0.1,0.1 h 0.0978 l 0.1,0.0978 h 0.0979 l 0.1,0.1 h 0.1982 v 0.0978 h 0.0979 l 0.1,0.1 h 0.1957 l 0.1983,0.1983 h 0.1 l 0.0978,0.0978 h 0.1 v 0.0979 h 0.0978 l 0.2987,0.2986 h 0.0978 v 0.1 h 0.1 c 0.1656,0.1655 0.3287,0.3286 0.4943,0.4943 h 0.1 v 0.1 l 0.2961,0.296 v 0.1 h 0.1 l 0.0978,0.0979 v 0.0979 l 0.1982,0.1982 v 0.1 l 0.1983,0.1983 v 0.1 l 0.1982,0.1982 v 0.0954 l 0.1,0.1028 v 0.0954 h 0.0978 v 0.1029 l 0.1,0.0978 v 0.1982 l 0.0979,0.0979 v 0.1 l 0.1,0.0979 v 0.1 l 0.0978,0.0978 m -50.334,-8.0247 0.1983,-0.1983 v -0.1 h 0.0979 v -0.0978 l 0.1,-0.1 h 0.0979 v -0.0979 l 0.1,-0.0979 h 0.0979 v -0.1 l 0.1,-0.0978 h 0.0979 v -0.1 l 0.0978,-0.0979 h 0.1 v -0.1 l 0.0979,-0.0979 h 0.1028 v -0.1 h 0.0954 l 0.1,-0.0978 h 0.0978 v -0.1 h 0.1 l 0.1982,-0.1982 h 0.0979 v -0.0979 h 0.2007 l 0.1958,-0.2008 h 0.1 l 0.0979,-0.0978 h 0.1 l 0.0978,-0.1 h 0.1 l 0.0979,-0.0979 h 0.1982 l 0.1,-0.0979 h 0.0978 l 0.1,-0.1 h 0.1982 l 0.1,-0.0978 h 0.2961 v -0.1 h 0.2961 l 0.1,-0.0979 h 0.5922 l 0.1,-0.1 h 1.7842 l 0.0978,0.1 h 0.4969 v 0.0979 h 0.3964 l 0.1,0.1 h 0.1957 l 0.1,0.0978 h 0.1957 l 0.1,0.1 h 0.1982 l 0.0979,0.0979 h 0.1 l 0.0979,0.0979 h 0.1 l 0.0978,0.1 h 0.1 l 0.0979,0.0978 h 0.1 l 0.0978,0.1 h 0.1 l 0.1982,0.1983 h 0.0979 l 0.1,0.1 h 0.1 v 0.0979 h 0.0979 l 0.1,0.1 v 0.0978 h 0.0978 l 0.0979,0.1 h 0.1 v 0.0979 h 0.0978 l 0.1,0.1 v 0.0979 h 0.0978 l 0.1,0.1 v 0.0978 h 0.0979 l 0.1,0.1 v 0.0979 h 0.0978 l 0.1,0.0979 v 0.1 h 0.0978 l 0.1,0.0978 v 0.1 h 0.0979 v 0.1 l 0.1,0.0979 v 0.1 h 0.1 v 0.0954 l 0.1957,0.1982 v 0.1 h 0.0978 v 0.1983 l 0.1983,0.1981 v 0.1 l 0.1,0.0979 v 0.1 l 0.1,0.0979 v 0.1 l 0.0979,0.0978 v 0.1983 l 0.1,0.1 v 0.0979 l 0.0979,0.0978 v 0.1982 l 0.0979,0.1 v 0.2986 h 0.1 v 0.2936 l 0.0979,0.1029 v 0.5922 l 0.1,0.1 v 1.7841 l -0.1,0.0978 v 0.3965 m 50.5347,-1.9824 v -0.296 h -0.1 v -0.1983 l -0.0978,-0.0979 v -0.2985 h -0.1 v -0.4944 h -0.0978 v -1.29 h 0.0978 v -0.4944 h 0.1 v -0.2986 l 0.0978,-0.1 v -0.1982 h 0.1 v -0.1957 l 0.0979,-0.0979 v -0.1 l 0.1,-0.1 v -0.0978 l 0.0978,-0.1 v -0.0979 h 0.0979 v -0.0979 l 0.1,-0.1 V 316.79 h 0.0979 v -0.1 h 0.1 v -0.0979 l 0.5947,-0.5947 h 0.1 v -0.1 h 0.0978 v -0.0979 h 0.1 l 0.0978,-0.1 h 0.1 v -0.1 h 0.0979 l 0.0978,-0.0978 h 0.1 l 0.0979,-0.1 h 0.1982 v -0.0979 h 0.1983 v -0.0979 h 0.1982 l 0.1,-0.1 h 0.2987 v -0.0978 h 0.4943 v -0.1 h 1.2873 v 0.1 h 0.4968 v 0.0978 h 0.2961 l 0.1,0.1 h 0.1982 v 0.0979 h 0.1958 l 0.1,0.0979 h 0.0979 l 0.1,0.1 h 0.0979 l 0.1,0.0978 h 0.0979 v 0.1 h 0.1 l 0.0979,0.1 h 0.1 v 0.0979 h 0.0979 v 0.1 h 0.1 l 0.5947,0.5947 v 0.0979 h 0.0979 v 0.1 h 0.1 v 0.0978 l 0.0979,0.1 v 0.0979 h 0.1 v 0.0979 l 0.0978,0.1 m -0.8908,0.5922 v -0.1957 h -0.0979 v -0.1983 h -0.1 v -0.1 l -0.2986,-0.296 v -0.0979 h -0.0979 v -0.1 h -0.1 V 316.79 h -0.1983 v -0.1 h -0.0979 v -0.0979 h -0.1 v -0.1 h -0.1982 v -0.0979 h -0.0979 l -0.0979,-0.1 h -0.1 l -0.0978,-0.0978 h -0.1 l -0.0979,-0.1 h -0.1982 l -0.1,-0.0979 h -0.2961 l -0.1,-0.1 h -1.2873 v 0.1 h -0.3965 l -0.0978,0.0979 h -0.1983 v 0.1 h -0.2007 l -0.0979,0.0978 h -0.1 l -0.0979,0.1 h -0.1 v 0.0979 H 741.14 v 0.1 h -0.0979 l -0.2961,0.2961 h -0.1 v 0.1 h -0.0978 v 0.0979 h -0.1 v 0.1982 H 740.35 v 0.0978 h -0.1 v 0.1 h -0.0979 v 0.1983 h -0.1 v 0.1 l -0.0978,0.0954 v 0.1 l -0.1,0.0979 v 0.1 l -0.0978,0.1 v 0.1982 l -0.1,0.0978 v 0.2987 l -0.1,0.0979 v 1.29 h 0.1 v 0.3965 l 0.1,0.0979 v 0.1982 h 0.0978 v 0.1982 m -82.9359,-18.4271 0.1,-0.1 0.0979,-0.1 h 0.1 v -0.0979 h 0.0978 v -0.1 h 0.1029 l 0.0954,-0.0979 h 0.1 v -0.0978 h 0.0979 l 0.1,-0.1 h 0.0978 v -0.0979 h 0.2008 v -0.1 h 0.1982 v -0.0979 h 0.1957 l 0.1,-0.1028 h 0.2961 v -0.0953 h 0.3965 l 0.1,-0.103 h 1.4856 l 0.0978,0.103 h 0.3965 v 0.0953 h 0.2986 v 0.1028 h 0.2961 v 0.0979 h 0.1982 v 0.1 h 0.2008 v 0.0979 h 0.0978 l 0.0979,0.1 h 0.1 v 0.0978 h 0.1982 v 0.0979 h 0.0979 v 0.1 h 0.1 v 0.0979 h 0.0979 l 0.2986,0.2986 v 0.0979 h 0.0979 l 0.1,0.0979 v 0.1 h 0.0979 v 0.0978 h 0.1 v 0.1 l 0.1,0.1 v 0.0979 h 0.0979 v 0.1 l 0.0979,0.0979 v 0.1 h 0.1 v 0.1982 h 0.0979 v 0.1982 h 0.1 v 0.1983 l 0.0979,0.0978 v 0.2962 h 0.0978 v 0.3989 l 0.1,0.0979 v 1.4865 l -0.1,0.1 v 0.394 h -0.0978 v 0.2986 h -0.0979 v 0.2987 h -0.1 v 0.1981 h -0.0979 v 0.1983 h -0.1 v 0.0979 l -0.0979,0.1 v 0.0978 h -0.0979 v 0.1982 h -0.1 v 0.0979 h -0.1 v 0.1 h -0.0979 v 0.0978 l -0.1982,0.2007 m -0.6951,-0.4968 0.1,-0.0979 v -0.1 h 0.0979 v -0.0978 h 0.1 v -0.1 h 0.0979 v -0.0979 l 0.1,-0.1 0.0979,-0.0979 v -0.1 l 0.1,-0.0978 v -0.1 h 0.0979 v -0.1983 h 0.1 v -0.2986 h 0.0979 v -0.2961 h 0.1 v -0.5947 h 0.1 v -0.6951 h -0.1 v -0.5922 h -0.1 v -0.2985 h -0.0979 v -0.2962 h -0.1 V 304.304 H 663.46 v -0.0979 l -0.1,-0.1 v -0.0979 l -0.0979,-0.1 -0.1,-0.0978 v -0.1 h -0.0979 v -0.0979 h -0.1 v -0.1 h -0.0979 v -0.0979 h -0.1 v -0.1 h -0.0978 v -0.1 h -0.1 v -0.0978 h -0.0979 v -0.1 h -0.0978 l -0.2008,-0.1958 h -0.0978 l -0.1,-0.0978 h -0.0979 v -0.1 h -0.1982 v -0.1 h -0.2986 v -0.0979 h -0.2961 v -0.1 h -0.5947 v -0.0979 h -0.6926 v 0.0979 h -0.5947 v 0.1 h -0.2986 v 0.0979 h -0.2961 v 0.1 h -0.1982 v 0.1 h -0.1 l -0.0979,0.0978 H 658.11 l -0.2008,0.1958 h -0.0978 v 0.1 h -0.1 v 0.0978 h -0.0979 v 0.1 h -0.1 m 69.46,-117.4149 v 0.2985 l -0.1,0.0979 v 0.1983 l -0.0978,0.0978 v 0.1982 h -0.1 v 0.1983 h -0.0979 v 0.1982 h -0.1 v 0.1 l -0.0978,0.0979 v 0.1 l -0.1,0.1 v 0.0979 h -0.1 v 0.1 l -0.2961,0.296 v 0.1 h -0.1 v 0.0979 h -0.0979 v 0.0978 h -0.1 v 0.1 h -0.0979 l -0.1,0.0978 h -0.0978 v 0.1 h -0.1 v 0.0979 h -0.0979 l -0.1,0.1 h -0.0978 v 0.0978 h -0.2008 v 0.0979 h -0.0978 l -0.1,0.1 h -0.0979 l -0.0978,0.1 H 724.1 l -0.1,0.0979 h -0.1983 l -0.0978,0.1 h -0.2961 l -0.1,0.0978 h -1.5868 m -0.0979,0.1 v -0.1 h -0.3965 v -0.0978 h -0.2986 v -0.1 h -0.2961 v -0.0979 h -0.1982 v -0.1 h -0.2008 v -0.1 h -0.0978 l -0.0979,-0.0979 h -0.1 l -0.0978,-0.0978 h -0.1 v -0.1 h -0.0979 l -0.1982,-0.1983 h -0.0979 v -0.0978 h -0.1 v -0.1 h -0.0979 v -0.0978 h -0.1 v -0.0979 h -0.0978 v -0.1 h -0.1 V 187.98 l -0.0979,-0.1 v -0.0978 h -0.1 v -0.1 h -0.1 v -0.0979 l -0.0979,-0.1 v -0.1 h -0.1 v -0.1982 h -0.0979 v -0.0978 l -0.1,-0.1 V 186.79 l -0.0978,-0.0979 v -0.1 l -0.1,-0.0978 v -0.2962 h -0.0979 V 185.8 l -0.1,-0.0979 v -1.39 m 0.9936,0.1983 v 0.8933 l 0.0979,0.0978 v 0.3966 h 0.1 v 0.2985 l 0.0978,0.0979 v 0.1983 h 0.1 v 0.1981 h 0.0979 v 0.1983 h 0.1 v 0.0979 l 0.1958,0.1982 v 0.1 h 0.1 v 0.0979 h 0.0979 v 0.1 l 0.1,0.1 0.0978,0.0979 h 0.1 v 0.1 h 0.0979 v 0.0978 h 0.0978 v 0.1 h 0.1 l 0.1,0.0979 h 0.0978 v 0.1 h 0.1983 v 0.0979 h 0.1982 v 0.0978 h 0.1982 l 0.1,0.1 h 0.2961 v 0.0978 h 0.3965 m -0.0979,0.1 h 1.1869 l 0.1,-0.1 h 0.3965 v -0.0978 h 0.296 v -0.1 h 0.1983 v -0.0978 h 0.1982 l 0.1,-0.0979 h 0.0978 v -0.1 h 0.0979 l 0.1,-0.0979 h 0.0978 v -0.1 h 0.1 l 0.4969,-0.4969 v -0.0979 h 0.0978 v -0.1 h 0.1 v -0.0978 l 0.0979,-0.1 v -0.0979 h 0.1 v -0.1 l 0.0979,-0.0979 v -0.1 l 0.1,-0.0978 v -0.1983 h 0.0978 v -0.296 h 0.0979 v -0.3966 m 34.0863,68.8626 0.2961,0.1983 m 6.5417,-2.08 -0.8933,0.1982 m -8.8177,20.4106 -0.4943,0.0979 m 5.1516,3.47 0.7929,0.5947 m -6.64,-42.111 -0.3965,0.6925 7.134,-1.5833 m -7.134,1.5833 -0.1982,-0.5947 a 48.0693,48.0693 0 0 0 -10.7,-15.0608 l -0.1,-0.0978 m 8.1251,72.9252 -0.8933,-0.4969 m -7.1314,-72.6266 0.4943,-0.1 m 3.0714,-6.045 -0.4969,0.793 m -1.2847,75.0079 0.0978,0.3965 m -16.0494,10.5009 0.5947,-0.2961 a 49.9854,49.9854 0 0 0 15.1611,-10.7 l 0.0979,-0.1 m -14.4661,-84.8143 0.4944,-0.7954 m -1.0891,97.0044 -0.7929,-0.2986 m 0,0 1.6837,7.1364 m -3.9622,-98.392 0.1958,0.5947 m -18.9252,-3.37 0.2987,-0.3965 m -2.08,-6.5392 0.1982,0.9937 m 5.9445,111.1718 -0.1982,-0.8933 m -22.5912,-99.9754 -0.4969,0.1983 a 48.0569,48.0569 0 0 0 -15.0583,10.7021 l -0.1982,0.0979 m 36.7587,83.0326 -0.2961,0.3965 m -21.4045,-94.7259 0.6951,0.2985 m 0,0 -1.6838,-7.1339 m 3.9622,98.3921 -0.1982,-0.5947 m -3.4678,5.2493 -0.4944,0.793 m -14.07,-85.8054 -0.1,-0.3964 m -6.0449,-3.1715 0.7929,0.4944 m 3.5683,78.8721 0.4943,-0.7929 m 3.0714,-5.35 h -0.4943 m -10.4036,-15.9542 0.2986,0.4968 a 48.6226,48.6226 0 0 0 10.7,15.0608 h 0.1 m -12.6844,-52.8131 0.4943,-0.1983 m -5.1491,-3.4678 -0.7955,-0.4944 m 6.64,42.1111 0.3964,-0.6951 m 0,0 -7.1339,1.5859 m 2.6749,-20.1146 -0.2986,-0.296 m -6.5392,2.178 0.8933,-0.1982 m 104.7305,-3.9622 7.2343,-1.5834 m -4.459,-19.5223 -7.134,1.6863 m 7.4326,41.8124 -6.2432,-3.8644 m 1.2873,-0.4943 5.3523,3.4679 m 3.8643,-22.0969 -6.2431,1.3877 m -4.2608,17.7356 0.2961,-0.5947 a 51.635,51.635 0 0 0 2.9735,-17.9339 v -0.1 m -3.27,18.629 1.2873,-0.4943 m 2.9735,-17.2413 v 0.5947 a 47.7852,47.7852 0 0 1 -2.8732,16.4484 v 0.1982 m 2.8732,-17.2413 -1.0915,-0.793 m -3.764,-20.6089 6.2432,-1.3876 m -6.8379,2.5771 -0.1982,-0.5948 A 50.6227,50.6227 0 0 0 745.7977,220.28 l -0.4944,-0.3964 m 10.8,15.3594 0.5947,-1.1895 m -10.1049,-14.2678 0.4943,0.3965 a 49.1552,49.1552 0 0 1 9.5126,13.673 l 0.0978,0.1982 m -6.74,-19.718 -3.3649,5.45 -1.29,0.0979 3.8643,-6.1428 m -2.4767,76.2952 6.2432,3.9621 m -19.9184,13.9722 -1.5834,-7.1339 m 1.0891,0.5921 1.488,6.2457 m 18.23,-12.9831 -5.45,-3.3674 m -14.4661,-88.2847 -3.9622,6.2432 m 3.0714,91.5542 0.5947,-0.2986 a 50.0575,50.0575 0 0 0 14.3682,-10.2028 l 0.394,-0.2986 m -15.3569,10.8 1.0891,0.5921 m 14.2678,-10.1048 -0.394,0.3964 a 49.0964,49.0964 0 0 1 -13.6756,9.5127 l -0.1982,0.1 m 14.2678,-10.01 -0.0979,-1.2873 m -18.33,-80.7542 -0.4968,-0.2961 a 48.4975,48.4975 0 0 0 -17.3392,-2.8757 h -0.4969 m 18.3329,3.1718 -0.3964,-1.1894 m -17.2414,-2.9711 h 0.6925 a 47.2559,47.2559 0 0 1 16.3506,2.8707 h 0.2961 m -0.0978,0.1 3.4678,-5.4477 m -22.0968,-3.7664 1.3876,6.243 -0.7929,0.9887 -1.5859,-7.1339 m 3.5682,106.3189 1.6837,7.1339 m -20.1145,-10.3057 0.5947,0.1983 a 49.037,49.037 0 0 0 17.3392,2.8756 h 0.4969 m -0.7929,1.089 0.7929,-0.9911 m -23.088,-101.9578 1.6837,7.2319 m 21.999,101.96 -1.3876,-6.2432 -0.5947,-0.0978 a 47.847,47.847 0 0 1 -16.4485,-2.8757 h -0.1982 m -4.3587,4.9559 3.9622,-6.1453 0.3965,1.1894 m 0,0 -3.4678,5.45 m 0.0978,-98.1937 -0.4943,0.1981 a 48.9334,48.9334 0 0 0 -14.2679,10.1075 l -0.4943,0.4969 m 15.2565,-10.8025 -1.1869,-0.5947 m -14.2685,10.1089 0.0979,1.29 -6.1427,-3.9647 m 6.0448,2.6749 0.4944,-0.4943 a 48.1141,48.1141 0 0 1 13.6732,-9.5128 l 0.1982,-0.1 m -0.0979,0 -1.3876,-6.2407 m -18.33,12.88 5.45,3.4679 m -9.3144,56.0828 0.296,0.4943 A 50.03,50.03 0 0 0 676.24,291.027 l 0.2986,0.3965 -3.8644,6.2431 m 2.675,-6.0449 1.1894,-0.1982 m -18.23,-57.0714 6.2407,3.8618 m 0,0 -0.1983,0.4968 A 48.4383,48.4383 0 0 0 661.48,256.05 v 0.4943 m 3.0689,-18.33 -1.2873,0.3964 m 8.6194,58.4616 3.4679,-5.45 -0.3965,-0.4943 a 51.3235,51.3235 0 0 1 -9.6106,-13.6757 l -0.1,-0.1 m -6.6371,0.3965 7.134,-1.5833 -0.4969,1.1868 m 0,0 -6.341,1.39 m 1.488,-22.89 0.9887,0.793 -7.134,1.6837 m 6.1453,-2.4767 0.0979,-0.6926 a 47.2559,47.2559 0 0 1 2.8732,-16.35 V 238.61 m -0.0979,0 -5.3524,-3.37 m -3.8619,22.1 6.341,-1.4881 m 27.5446,-52.1181 -0.5947,0.1982 a 57.4984,57.4984 0 0 0 -17.44,12.4838 l -0.1982,0.1982 m 18.2326,-12.88 0.8908,-0.3965 m 0,0 0.695,0.3965 m 0,0 0.6926,-0.2986 a 54.2566,54.2566 0 0 1 17.44,-3.8643 h 0.2961 m 0.3965,-0.5947 -0.4943,0.5947 m 0.4943,-0.5947 0.9912,-0.0978 m 22.0968,3.7664 -0.5947,-0.2986 a 56.5309,56.5309 0 0 0 -21.2061,-3.5657 h -0.296 m 22.0968,3.8643 0.8908,0.3939 m 0,0 0.1983,0.793 m 0,0 0.6925,0.1982 a 56.6047,56.6047 0 0 1 15.0633,9.6132 l 0.1983,0.0978 m 0.6925,0 -0.7929,0.0978 m 0.7929,-0.0978 0.793,0.5947"
       id="path627" />
  </g>
  <g
     class="cls-17"
     clip-path="url(#clip-path)"
     id="g633"
     transform="translate(-204.86405,-14.366131)">
    <path
       class="cls-18"
       d="m 691.7,210.174 -0.5947,0.1982 m 65.3947,26.0591 -0.2986,-0.5947 m -26.0566,65.3947 0.6926,-0.296 m -65.4952,-25.9612 0.2961,0.5947 m 50.1379,-11.8888 24.7717,19.023 M 695.762,292.81 710.03,264.967 m 0,0 h 1.7816 l 0.1,-0.0979 h 0.5947 l 0.1,-0.1 h 0.394 l 0.1983,-0.0979 h 0.1982 l 0.1,-0.1 h 0.1983 l 0.0979,-0.1 h 0.1982 l 0.1982,-0.0978 h 0.1983 l 0.1,-0.1 h 0.0979 l 0.1,-0.0978 h 0.0979 l 0.1,-0.1 h 0.0979 l 0.1,-0.0979 h 0.0979 l 0.1,-0.0978 h 0.0979 l 0.0979,-0.1 h 0.1 l 0.1982,-0.1982 m -12.88,-3.0714 -18.9224,24.7697 m -10.1075,-44.7859 27.7428,14.2679 m 0,0 v 1.6837 l 0.1,0.1 v 0.5947 l 0.0978,0.0979 v 0.3964 l 0.1,0.1983 v 0.1982 l 0.1,0.0978 v 0.1983 l 0.0978,0.1 v 0.1982 l 0.0979,0.1982 v 0.1983 l 0.1,0.0978 v 0.1 l 0.0978,0.0979 v 0.1 l 0.1,0.0979 v 0.1 l 0.0979,0.0978 v 0.0979 l 0.1,0.1 v 0.0978 l 0.0979,0.1 v 0.1 l 0.1983,0.1982 m 15.9541,-9.5127 18.9251,-24.7718 m 10.1049,44.7859 -27.7428,-14.3657 m 0,0 0.0979,-0.1983 v -1.5858 l -0.0979,-0.0979 v -0.5972 l -0.1,-0.0979 v -0.3964 l -0.0978,-0.1983 v -0.1982 l -0.1,-0.0979 V 252.88 l -0.0979,-0.1 v -0.1982 l -0.1,-0.1982 v -0.1958 l -0.0979,-0.1 v -0.1 l -0.1,-0.0979 v -0.1 l -0.0978,-0.0979 v -0.1 l -0.0979,-0.0978 v -0.1 l -0.1,-0.0979 v -0.1 l -0.0978,-0.0979 v -0.1 l -0.1,-0.0978 v -0.1 m -12.88,-3.1693 -24.87,-18.9251 m 44.7859,-10.1074 -14.27,27.7452 m 0,0 -0.0979,-0.1 h -1.5858 l -0.0979,0.1 h -0.5947 l -0.1,0.0979 h -0.3965 l -0.1957,0.1 h -0.1982 l -0.1,0.0979 h -0.1982 l -0.1,0.0978 h -0.1982 l -0.1983,0.1 h -0.1982 l -0.0978,0.0979 h -0.1 l -0.0979,0.1 h -0.1 l -0.0978,0.0979 h -0.0979 l -0.1,0.1 H 706.76 l -0.1,0.0978 h -0.0978 l -0.1,0.1 h -0.0979 l -0.0978,0.0979 h -0.1 m -10.4045,45.2809 0.4944,0.0979 a 40.185,40.185 0 0 0 44.2915,-10.105 l 0.0979,-0.1 m -66.7824,-42.2089 -0.1,0.394 a 40.0166,40.0166 0 0 0 10.1074,44.1937 l 0.1982,0.0979 m 63.9093,-14.2679 0.1982,-0.4944 a 39.8935,39.8935 0 0 0 -10.0071,-44.1937 l -0.1982,-0.1982 m -11.889,-7.43 -0.3965,-0.1982 a 40.0125,40.0125 0 0 0 -44.1912,10.1074 l -0.1,0.1982 m 80.556,5.8442 0.296,0.5972 m -4.8529,1.089 -0.1983,-0.5947 m -25.07,71.0433 -0.6926,0.2985 m -1.0916,-4.7576 0.6951,-0.2986 m -41.22,-97.3 0.5947,-0.1957 m 1.0916,4.7551 -0.6951,0.2961 m -30.912,67.3771 -0.2008,-0.5921 m 4.7577,-1.0916 0.296,0.5947 m 97.0044,1.6863 0.1983,-0.6951 m -0.2987,0.5947 0.2987,-0.793 m -29.3299,-71.6386 -0.5947,-0.2986 m 0.5947,0.3965 -0.7929,-0.2961 m -42.6082,101.7595 0.5947,0.2986 m -0.5947,-0.399 0.793,0.2987 m -29.823,-72.727 -0.2961,0.5922 m 0.2961,-0.4943 -0.2961,0.7929 m 99.4785,29.0326 -0.5947,-0.6951 m -39.6318,-55.9824 -0.6951,0.6951 m -15.7534,96.2089 0.6926,-0.5922 m -40.9216,-55.9849 0.6926,0.695 m 92.3474,-11.5924 -0.1982,-0.5947 a 48.4509,48.4509 0 0 0 -10.4036,-15.0608 l -0.3964,-0.3965 m -14.564,79.7631 0.5922,-0.2987 a 47.5069,47.5069 0 0 0 15.0608,-10.401 l 0.4968,-0.399 m -54.1983,-78.1771 -0.4968,0.1983 a 48.4091,48.4091 0 0 0 -15.0583,10.4035 l -0.399,0.4943 m -9.6106,52.5146 0.2986,0.4968 a 48.4434,48.4434 0 0 0 10.4011,15.0608 l 0.4968,0.3965 m 83.9259,-55.2874 0.79,-0.1982 m 3.6661,17.9339 -0.5922,0.1957 m 0.79,-0.4943 v -0.6925 a 53.19,53.19 0 0 0 -3.6661,-16.5463 l -0.1983,-0.3965 m -4.0625,27.0477 v 0.1 m -0.0978,0.7929 0.3964,0.0979 h 0.2961 m 0.4969,-8.5191 v 0.9886 a 38.65,38.65 0 0 1 -0.3965,6.4414 l -0.1,1.0891 m 2.281,13.7735 0.5921,0.3965 m -10.007,15.3594 -0.4944,-0.2986 m 0.79,0.1982 0.4968,-0.5947 a 55.9616,55.9616 0 0 0 9.1163,-14.1675 l 0.1982,-0.4968 m -0.1,0 0.1,0.1 m -29.5269,-71.8387 0.3965,-0.5947 m 15.3569,10.01 -0.2986,0.4943 m 0.2007,-0.8908 -0.4968,-0.4968 A 55.9194,55.9194 0 0 0 733.2148,205.02 l -0.4968,-0.1982 m -0.0979,0.1982 v -0.0979 m -15.259,3.4679 v 0.1 m 0.9886,0.0978 v -0.3965 l 0.1,-0.296 m -8.6219,-0.5973 h 1.0915 a 50.159,50.159 0 0 1 6.4414,0.399 l 1.089,0.1983 m 12.88,98.2891 0.1,0.7954 m -17.934,3.6636 -0.1,-0.5922 m 0.3965,0.793 0.695,-0.1 a 53.3478,53.3478 0 0 0 16.5463,-3.6661 l 0.3965,-0.1983 m -26.95,-3.9621 v 0.0978 m -0.8933,-0.1982 -0.1,0.3965 -0.0979,0.2986 m 8.62,0.5922 h -1.0891 a 38.9341,38.9341 0 0 1 -6.4388,-0.4943 l -1.0916,-0.0979 m -12.7813,-98.2943 -0.1983,-0.7929 m 17.9365,-3.6661 0.0978,0.5947 m -0.3964,-0.7929 h -0.5947 a 52.1385,52.1385 0 0 0 -16.4485,3.6686 l -0.4943,0.1982 m -0.8908,101.363 -0.399,0.5922 m -15.3569,-10.0046 0.2961,-0.4968 m -0.1982,0.8933 0.5947,0.394 a 55.0687,55.0687 0 0 0 14.2678,9.1162 l 0.3965,0.1983 m 0,-0.1 v 0.1 m -28.4353,-72.1348 -0.5947,-0.296 m 10.007,-15.4573 0.5947,0.3965 m -0.8933,-0.2962 -0.3964,0.4944 a 55.8983,55.8983 0 0 0 -9.1138,14.17 l -0.1982,0.4943 m 0,0.1983 v -0.0979 m 3.4678,15.2565 v 0.1 m 0.0979,-0.9912 -0.2961,-0.0979 h -0.2986 m -0.5947,8.5217 v -1.0917 a 52.0989,52.0989 0 0 1 0.3964,-6.4413 l 0.1983,-0.9887 m -2.6749,27.8432 -0.793,0.1983 m -3.7634,-18.034 0.5947,-0.1 m -0.793,0.4969 0.1,0.5947 a 55.4655,55.4655 0 0 0 3.6636,16.5463 l 0.1982,0.4969 m 97.8952,-10.9 0.3965,0.1 0.2986,0.0979 -0.1,0.4944 a 39.4211,39.4211 0 0 1 -2.2784,7.4324 v 0.1983 m 2.3788,-8.1251 0.8908,-0.4943 m 0.1982,-0.5973 0.2986,0.1 m -39.04,-55.5859 0.0978,-0.3965 v -0.2961 l 0.5947,0.0979 a 48.6426,48.6426 0 0 1 7.43,2.1806 l 0.2007,0.1982 m -8.225,-2.4768 -0.3964,-0.7954 m -0.5947,-0.2961 v -0.1983 m -18.5289,95.4185 -0.0978,0.3965 v 0.2986 l -1.0891,-0.2986 a 51.6134,51.6134 0 0 1 -6.1427,-1.7816 l -0.9937,-0.3965 m 8.2255,2.4767 0.3964,0.79 m 0.5947,0.1983 v 0.296 m -37.85,-58.4565 h -0.3964 l -0.2987,-0.1 0.1983,-0.5947 a 48.6443,48.6443 0 0 1 2.1805,-7.43 l 0.1983,-0.1982 m -2.5771,8.2229 -0.8907,0.4968 m -0.1983,0.5923 -0.2986,-0.0979 m 58.4616,-37.85 v 0.0978 m -2.281,-0.4943 -0.9886,-0.1982 m 2.2784,0.3965 h 0.1982 l 0.0979,0.0978 h 0.4969 l 0.0978,0.1 h 0.1 m 0,0 -0.2986,-0.4943 -0.2961,-0.5947 -0.2986,-0.6951 m 0,0 -0.394,0.3964 -0.4968,0.3965 -0.4969,0.5947 m 39.2379,56.7754 v 0.1 m 0.4969,-2.3788 0.0978,-0.8933 m -0.3965,2.2784 v 0.2987 l -0.0978,0.1 v 0.3965 l -0.1,0.0979 m 0,0 0.5947,-0.1983 0.4969,-0.2961 0.6925,-0.399 m 0,0 -0.7929,-0.79 -0.4943,-0.5947 m -56.876,39.3361 v 0.0979 m 2.3789,0.2986 0.8933,0.1 m -2.281,-0.2986 -0.0979,-0.1 h -0.3964 l -0.1,-0.0979 H 701.21 m 0,0 0.5947,0.9912 0.2986,0.6926 m 0,0 0.3965,-0.3965 0.4944,-0.3939 0.5947,-0.4969 M 664.2528,245.944 v 0.0979 m -0.4968,2.2784 -0.0979,0.8908 m 0.3965,-2.2784 v -0.394 l 0.1,-0.1 v -0.296 l 0.0978,-0.1 m 0,0 -0.5947,0.1982 -0.4968,0.2986 -0.6926,0.394 m 0,0 0.793,0.7929 0.4943,0.5947 m 94.4273,13.8714 -0.0978,0.2986 c 0.0577,0.58 -0.2058,1.1141 -0.1983,1.6838 l -0.1,0.296 m -40.4247,-55.98 h 0.2961 a 12.59,12.59 0 0 1 1.7841,0.2961 h 0.1982 m -15.1586,94.1312 h -0.2986 l -0.2961,-0.1 h -0.2986 l -0.2987,-0.0978 h -0.5922 l -0.1982,-0.1 h -0.2986 m -38.5428,-53.4079 0.0979,-0.2961 c 0.0376,-0.5621 0.1681,-1.1216 0.2007,-1.6837 l 0.0979,-0.2986 m 101.1648,6.3409 -6.64,1.4881 m 2.8756,-19.4195 h -0.1 m 1.9823,16.446 1.882,1.4854 m 0,0 h 0.1 m -3.8643,-17.9314 0.2961,0.5923 A 52.4671,52.4671 0 0 1 765.32,252.88 l 0.0979,0.2961 m -10.7,-16.3506 6.6371,-1.483 m 0,0 -1.1895,2.1806 m -4.9532,35.7669 5.7463,3.6661 m 0.1,0 h -0.1 m 0,0 -2.3788,0.6951 m -7.53,14.7622 h 0.1 m 9.9093,-15.4573 -0.1983,0.5947 a 55.0327,55.0327 0 0 1 -9.4149,14.4661 l -0.2961,0.2986 m 6.6371,-27.8457 -0.1982,0.8934 m 0.1982,-0.8934 0.3965,-2.2784 m -1.5834,-8.9178 1.98,1.4881 v 0.8907 a 30.9159,30.9159 0 0 1 -0.2961,5.5506 l -0.1,0.9887 v 0.1 m -2.971,10.9982 -2.3788,0.7929 m 4.7551,-8.72 -0.0978,0.4943 a 39.5807,39.5807 0 0 1 -1.9824,6.7374 l -0.1982,0.5973 h -0.0979 m -7.6308,-57.6687 -3.5657,5.8467 m 6.7375,68.564 0.2961,2.4792 m 0,0 -5.8467,-3.6661 m -3.6661,-67.081 2.4792,-0.2961 m 0,0 0.4944,0.3964 a 44.92,44.92 0 0 1 10.1068,14.8638 l 0.1,0.1957 -1.1919,2.1806 m -21.3015,-33.3912 v 0.1 m 12.9785,10.2049 2.3788,-0.3965 m 0,0 h 0.0979 m -19.1234,-4.0626 3.6686,-5.8466 0.6926,0.2007 a 55.6357,55.6357 0 0 1 14.4661,9.4124 l 0.2961,0.2961 m -15.4548,-9.9092 0.6926,2.3788 m 11.9894,78.3754 0.2961,2.3788 m 0.1,0 -0.3965,0.3965 a 47.4062,47.4062 0 0 1 -14.8625,10.2052 l -0.2961,0.1 m 0,0 1.4855,6.6372 m -1.4851,-6.6362 -2.1806,-1.0915 m -7.9269,-89.5718 0.9912,0.1982"
       id="path631" />
  </g>
  <g
     class="cls-20"
     clip-path="url(#clip-path-4)"
     id="g639"
     transform="translate(-204.86405,-14.366131)">
    <path
       class="cls-21"
       d="m 923.042,559.8405 v -0.3939 m -387.7113,117.3171 -0.1958,-0.2961 -0.296,-0.394 -0.1958,-0.2936 m 0,0 H 530.701 V 519.4534 h 4.1379 m 388.3988,116.331 h -0.3939 m 0,-76.3378 h 0.3939 m -133.2737,-33 6.3033,0.2961 6.2055,0.788 6.208,1.38 a 71.1134,71.1134 0 0 1 52.3038,64.0272 l 0.1983,6.3033 -0.4944,6.2055 a 71.163,71.163 0 0 1 -55.064,61.6609 l -6.2055,1.0865 -6.3033,0.59 h -6.3034 l -6.3058,-0.59 A 71.3618,71.3618 0 0 1 720.1253,611.75 l -0.8858,-6.3033 -0.4944,-6.2055 a 71.3362,71.3362 0 0 1 52.5021,-70.3305 l 6.208,-1.38 6.2029,-0.788 6.3059,-0.2961 m -254.6333,-7.6834 v 158 m 0,0 36.6432,48.3668 m 0,0 h 272.4619 m 78.408,-89.346 V 559.4466 M 677.57,686.023 V 509.208 h -55.8518 v 176.815 z m -142.7312,-166.57 0.3939,-0.3939 0.0979,-0.2961 m 0,0 36.8415,-48.56 m 1.8719,-2.956 0.0978,-0.1 m -39.5966,52.3062 0.1957,-0.2936 M 844.4357,470.2033 H 572.1722 l 0.69,-0.9862 0.59,-0.8883 0.69,-0.7854 m 0,0 v -2.07 h 271.28 m 0,0 -0.1,0.2961 -0.0979,0.788 -0.2961,1.1818 -0.1957,1.38 -0.1982,0.9836 -0.0979,0.1 m 83.63,89.2431 h -4.828 l -0.3939,-1.6737 a 138.8756,138.8756 0 0 0 -77.8183,-87.4716 l -0.4918,-0.1982 m 0.8883,-4.63 1.6737,0.69 a 143.1723,143.1723 0 0 1 80.7717,92.1012 l 0.2961,1.084 m -4.9258,76.4357 h 4.828 m -82.6444,93.9766 -0.1,-0.296 -0.0979,-0.7879 -0.2961,-1.0841 -0.1957,-1.4805 -0.1982,-0.9811 h -0.0979 l 1.5758,-0.69 a 138.9561,138.9561 0 0 0 77.128,-88.0638 l 0.0978,-0.6876 m 4.828,0.0954 -0.394,1.6762 a 143.392,143.392 0 0 1 -81.1682,91.8051 l -0.9837,0.4943 m -283.395,-105.7944 -1.38,1.28 -3.4477,-2.2658 -3.1517,-0.6876 -3.25,0.6876 -2.7577,1.8743 -1.38,2.2635 -0.4918,2.5619 0.8858,3.35 2.3637,2.66 2.4641,1.1819 2.6574,0.394 2.66,-0.394 2.3637,-1.38 1.38,-1.6737 0.69,-1.97 h -5.9119 v -1.8719 h 7.4877 l -0.69,3.94 -2.2659,3.25 -2.7578,1.478 -3.0538,0.3939 -2.4616,-0.1957 -2.2659,-0.7879 -2.9534,-2.3638 -1.7741,-3.1542 -0.394,-2.7577 0.8858,-4.0374 2.562,-3.2521 2.8556,-1.478 3.252,-0.4918 2.4617,0.1982 2.2659,0.8858 3.1516,2.3638 m -17.8285,-25.7077 h 1.7716 m 4.3335,6.7951 4.4339,-6.7951 h 1.6737 m 0,0 -5.2193,8.1727 m -5.2218,-8.1727 4.3335,6.7951 m 0.8883,1.3776 5.5154,8.5718 h -1.774 l -4.63,-7.1891 -4.63,7.1891 h -1.6737 l 5.4176,-8.5718 -5.2193,-8.1727 m -0.1,-6.8956 7.98,-16.747 m 0,0 h 0.1982 m 0,0 7.681,16.747 h -1.5759 l -2.4616,-5.4176 h -7.6835 l -2.4616,5.4176 h -1.6761 m 5.0236,-7.0938 h 6.01 l -2.956,-6.4012 -3.0538,6.4012 m 15.0709,-20.0944 5.6158,-13.1989 h 1.5758 l -7.0915,16.7435 h -0.1982 l -7.0913,-16.7445 h 1.5759 l 5.6133,13.1989 m -18.4183,-4.8254 1.7716,-8.3735 h 6.8955 m 0,0 v 1.6737 m -5.2193,15.4645 -2.07,-0.394 -1.7715,-1.28 -0.8883,-1.3776 -0.394,-1.6762 h 1.478 l 0.4918,1.3776 1.084,0.9862 0.9862,0.4943 1.1819,0.1957 1.7715,-0.394 1.478,-1.1819 0.7879,-1.28 0.1982,-1.38 -0.3939,-1.6762 -1.084,-1.3776 -1.1819,-0.4918 -1.38,-0.1983 -2.0677,0.2961 -1.6737,0.5922 m 8.6671,-6.7 h -5.7136 l -0.8858,4.4339 1.084,-0.2961 h 0.8858 l 2.2659,0.4919 1.8719,1.4779 0.8858,1.5759 0.1982,1.8719 -0.4943,2.5595 -1.5759,2.07 -1.7715,0.9862 -1.97,0.2936 m -3.8417,-24.034 v -16.7438 m 1.4779,7.0913 h 1.0815 l 1.478,-0.0979 1.478,-0.3964 0.69,-0.3915 0.4918,-0.5922 0.2961,-0.69 0.0978,-0.788 -0.2961,-1.1818 -0.3939,-0.4918 -0.4919,-0.2961 -2.3637,-0.4919 h -2.0677 v 5.4176 m -1.4779,-7.0913 h 3.25 l 2.168,0.1958 1.872,0.8857 0.9836,1.38 0.2961,1.6736 -0.5922,2.2659 -1.28,1.28 1.38,0.69 1.1819,1.1819 0.4918,1.1819 0.0978,1.2822 -0.4918,2.0677 -1.4779,1.6737 -1.5734,0.7879 -1.7766,0.1983 h -4.5292 m 1.4779,-1.7741 h 3.7414 l 1.5758,-0.4918 1.0841,-0.9862 0.3939,-0.7854 0.0979,-0.69 -0.2936,-1.2822 -0.69,-0.8858 -1.774,-0.8858 L 549.32,536.1 h -2.3638 v 6.2055 m 183.51,94.465 0.1,-0.0979 h 0.0979 v -0.0979 h 0.0979 l 0.0978,-0.1 h 0.1 v -0.0978 h 0.1957 v -0.0979 h 0.1983 l 0.0978,-0.0979 h 0.1957 v -0.0978 h 0.2962 v -0.1 h 0.4918 v -0.0978 h 1.4779 v 0.0978 h 0.394 l 0.1,0.1 h 0.1957 l 0.0979,0.0978 H 734.9 l 0.0979,0.0979 h 0.0978 l 0.1,0.0979 h 0.0979 l 0.0978,0.0978 h 0.0979 l 0.1,0.1 h 0.0979 v 0.0979 h 0.0979 l 0.0978,0.0979 h 0.1 v 0.1 h 0.0979 v 0.0978 h 0.0978 c 0.1657,0.1631 0.3288,0.3263 0.4919,0.4919 v 0.0979 h 0.1 v 0.1 l 0.0979,0.0978 m 0,0 h 0.0979 l 0.0978,0.0978 v 0.1 l 0.1,0.0979 v 0.0978 h 0.0979 v 0.1983 h 0.0978 v 0.1957 l 0.0979,0.0979 v 0.1 l 0.1,0.0979 v 0.1957 h 0.0978 v 0.394 h 0.0979 v 0.59 l 0.1,0.1 v 0.7879 h -0.1 v 0.5922 l -0.0979,0.0954 v 0.1982 l -0.0978,0.1 v 0.1957 l -0.1,0.1 v 0.1957 h -0.0979 v 0.1983 h -0.0978 v 0.0978 l -0.0979,0.0979 v 0.0979 l -0.1,0.1 v 0.0979 h -0.0978 v 0.0954 l -0.0979,0.1 v 0.1 h -0.0979 v 0.0978 h -0.1 v 0.0979 h -0.0979 v 0.0979 l -0.0978,0.1 h -0.0979 v 0.0953 l -0.1,0.1 H 736.18 v 0.0979 h -0.0978 m -0.5922,-0.59 0.1,-0.0978 h 0.0979 v -0.1 h 0.0979 v -0.1 h 0.0978 v -0.0954 h 0.1 v -0.0979 h 0.0979 v -0.1 l 0.0978,-0.0979 v -0.0979 h 0.0979 v -0.0978 l 0.1,-0.1 v -0.0979 h 0.0979 v -0.1 l 0.0978,-0.0954 v -0.1 l 0.0979,-0.0978 v -0.1983 h 0.1 v -0.2936 h 0.0979 v -0.3939 l 0.0979,-0.1 v -1.0815 l -0.0979,-0.1 V 639.43 h -0.0979 v -0.2961 h -0.1 v -0.1983 h -0.0979 v -0.1932 l -0.0978,-0.1 v -0.0979 h -0.0979 v -0.0978 l -0.1,-0.0979 v -0.1 H 736.18 v -0.0979 m -0.0978,0.0979 v -0.1957 h -0.0979 v -0.0979 h -0.1 v -0.1 h -0.0978 v -0.0978 h -0.0979 v -0.0978 H 735.59 v -0.1 h -0.1 l -0.0979,-0.0979 h -0.0978 v -0.1 h -0.0979 v -0.0953 h -0.1982 v -0.1 h -0.1958 v -0.0979 h -0.1982 l -0.0979,-0.0979 h -0.1982 v -0.0978 h -0.2936 l -0.1,-0.1 h -1.4779 v 0.1 h -0.394 v 0.0978 h -0.2936 v 0.0979 h -0.199 v 0.0979 h -0.1957 v 0.1 h -0.1 l -0.0979,0.0953 h -0.0978 v 0.1 m 130.0242,-36.5429 v -0.1 h -0.7879 l -0.0979,-0.0978 h -0.2961 l -0.0979,-0.1 h -0.1982 v -0.0978 h -0.1957 l -0.0979,-0.0979 h -0.1 l -0.0979,-0.0979 h -0.0979 l -0.1,-0.0978 h -0.0978 l -0.1957,-0.1983 h -0.0979 v -0.0978 h -0.1 l -0.0978,-0.0979 h -0.0979 v -0.1 h -0.1 v -0.0979 h -0.0978 v -0.1 h -0.0979 v -0.0979 h -0.0979 v -0.0953 h -0.0978 v -0.1 l -0.2961,-0.2961 v -0.0979 h -0.1 v -0.1957 h -0.0978 v -0.1 l -0.0979,-0.0979 v -0.0979 l -0.0979,-0.0978 v -0.1 l -0.0978,-0.0979 v -0.1 l -0.1,-0.0979 v -0.2936 h -0.0979 v -0.3939 h -0.0978 v -0.79 l -0.1,-0.0978 v -0.0979 h 0.1 v -0.8858 l 0.0978,-0.1 v -0.2936 l 0.0979,-0.1 v -0.1957 h 0.1 v -0.1958 l 0.0978,-0.1 v -0.0979 l 0.0979,-0.0978 v -0.0979 l 0.0979,-0.1 v -0.0979 l 0.1982,-0.1982 v -0.0979 h 0.0978 V 593.43 l 0.0979,-0.0979 v -0.1 h 0.1 v -0.0979 h 0.0978 v -0.0979 h 0.0979 v -0.0978 h 0.0979 V 592.84 h 0.0978 v -0.1 h 0.1 l 0.2961,-0.2936 h 0.0979 v -0.1 h 0.1957 v -0.0979 h 0.0978 l 0.1,-0.1 h 0.0979 l 0.0979,-0.0978 h 0.1 l 0.0979,-0.0979 h 0.0978 l 0.0979,-0.0978 h 0.2961 v -0.0979 h 0.394 v -0.1 h 0.69 m 0,0.8858 h -0.59 v 0.1 h -0.3965 v 0.0978 h -0.1958 l -0.0978,0.1 h -0.1 l -0.0979,0.0979 h -0.0978 l -0.0979,0.0978 h -0.1 v 0.0979 h -0.1958 v 0.0979 h -0.1 v 0.1 h -0.0978 v 0.0979 h -0.0979 v 0.0978 h -0.0978 l -0.0979,0.0979 v 0.1 h -0.1 v 0.0978 h -0.0978 v 0.0979 h -0.0979 v 0.1 l -0.1,0.0979 v 0.0978 h -0.0978 v 0.0979 l -0.0979,0.1 v 0.0979 l -0.0979,0.0979 v 0.0978 l -0.0978,0.0979 v 0.1982 h -0.1 v 0.2961 l -0.0979,0.0979 v 0.5922 l -0.0978,0.0978 v 0.2936 l 0.0978,0.1 v 0.59 h 0.0979 v 0.394 h 0.1 v 0.1982 l 0.0978,0.0978 v 0.0979 l 0.0979,0.0979 v 0.1 l 0.0979,0.0979 v 0.1 h 0.0978 v 0.1957 h 0.1 v 0.0979 h 0.0979 v 0.1 h 0.0978 v 0.0979 h 0.1 v 0.0978 l 0.0979,0.0979 h 0.0978 v 0.0979 h 0.0979 v 0.1 h 0.0978 v 0.0978 h 0.1 l 0.0979,0.1 h 0.0979 v 0.0953 h 0.1 l 0.0979,0.0979 h 0.0978 l 0.0979,0.1 h 0.1 l 0.0978,0.0979 h 0.1958 v 0.1 h 0.2961 l 0.1,0.0979 h 0.59 l 0.0979,0.0978 m -46,-69.0508 v 0.1957 h -0.0978 v 0.1983 l -0.1,0.0978 v 0.1 l -0.0978,0.0979 v 0.0979 h -0.0979 v 0.1982 H 814.59 v 0.0978 l -0.1,0.0979 v 0.0979 h -0.0979 v 0.0978 h -0.0979 v 0.1 h -0.0978 v 0.0979 h -0.1 v 0.1 h -0.0979 v 0.0954 H 813.9 v 0.1 h -0.0979 v 0.0978 h -0.1 v 0.0979 h -0.0979 l -0.0979,0.1 h -0.0978 v 0.0979 h -0.1 a 0.8454,0.8454 0 0 1 -0.4919,0.2961 h -0.0978 v 0.0979 H 812.52 v 0.0978 h -0.1958 l -0.1,0.0979 H 811.93 v 0.0979 h -0.4943 v 0.1 h -1.28 l -0.0979,-0.1 h -0.3939 v -0.0979 h -0.2961 l -0.0979,-0.0979 h -0.1982 v -0.0978 h -0.1957 l -0.1,-0.0979 h -0.0954 l -0.1,-0.1 h -0.0979 v -0.0978 h -0.1982 v -0.0979 h -0.0979 l -0.0978,-0.0979 h -0.1 v -0.1 H 807.89 v -0.0979 h -0.0979 v -0.0978 h -0.0978 v -0.1 h -0.0979 v -0.0954 h -0.1 v -0.1 h -0.0979 v -0.0979 h -0.0979 v -0.1 h -0.1 v -0.0978 l -0.0979,-0.0979 v -0.0979 h -0.0979 v -0.0978 a 0.8474,0.8474 0 0 1 -0.2961,-0.4944 v -0.0978 h -0.0978 v -0.1983 h -0.0979 v -0.1957 l -0.1,-0.0979 v -0.296 h -0.0979 V 530.09 h -0.0979 v -1.2772 l 0.0979,-0.1 v -0.3939 h 0.0979 m 0.69,0.1957 v 0.3965 l -0.0979,0.0978 v 0.8858 l 0.0979,0.0979 v 0.3964 l 0.0979,0.0979 v 0.2936 h 0.1 v 0.1982 h 0.0979 v 0.1957 h 0.0979 v 0.1983 h 0.1 v 0.1982 h 0.0979 v 0.0979 h 0.0978 v 0.0979 l 0.69,0.69 h 0.0979 v 0.0979 h 0.1 l 0.0954,0.1 h 0.1 v 0.0954 h 0.1957 v 0.1 h 0.1982 v 0.0978 h 0.1982 v 0.0979 h 0.2936 l 0.0979,0.1 h 0.3965 l 0.0979,0.0979 h 0.8857 l 0.0979,-0.0979 h 0.394 l 0.1,-0.1 h 0.2936 v -0.0979 h 0.1982 V 532.85 h 0.1958 v -0.1 h 0.1982 v -0.0954 h 0.1957 v -0.1 h 0.1 v -0.0979 h 0.0979 c 0.2283,-0.2308 0.4592,-0.4592 0.69,-0.69 v -0.0979 H 813.9 v -0.0979 l 0.0978,-0.1 v -0.0978 h 0.0979 v -0.1983 h 0.1 v -0.1957 h 0.0978 V 530.78 h 0.0979 v -0.0979 m 0.9862,0.394 v 0.1982 h -0.1 v 0.1957 l -0.0979,0.1 v 0.0979 l -0.0979,0.0979 v 0.0978 h -0.0978 v 0.1982 h -0.1 v 0.0979 l -0.1957,0.1957 v 0.1 H 814.59 v 0.0979 l -0.1982,0.1957 v 0.1 h -0.0979 l -0.0978,0.0978 -0.1,0.0979 v 0.1 h -0.0979 l -0.1957,0.1958 h -0.1 v 0.0978 h -0.0979 l -0.0979,0.1 h -0.0978 v 0.0979 h -0.1 l -0.0979,0.0978 h -0.0978 l -0.0979,0.0979 h -0.1 l -0.0979,0.0979 h -0.0978 l -0.0978,0.1 h -0.1983 l -0.0979,0.0978 h -0.2961 v 0.1 h -0.3939 l -0.0979,0.0978 h -1.478 l -0.0978,-0.0978 h -0.394 l -0.0979,-0.1 h -0.1982 l -0.0978,-0.0978 h -0.1983 v -0.1 h -0.1982 l -0.0954,-0.0979 h -0.1 l -0.0979,-0.0979 h -0.0978 v -0.0978 h -0.1983 v -0.0979 h -0.0978 l -0.1983,-0.1982 h -0.0979 v -0.0979 h -0.0978 l -0.1982,-0.1982 h -0.0979 v -0.0979 L 807.2,532.75 h -0.0979 v -0.0954 l -0.1957,-0.1982 v -0.1 h -0.0979 v -0.0978 l -0.1,-0.0979 v -0.0979 h -0.0978 v -0.0978 l -0.0979,-0.1 v -0.0978 l -0.1,-0.0979 v -0.0979 l -0.0979,-0.1 v -0.0978 l -0.0979,-0.0979 v -0.1982 l -0.0978,-0.0979 v -0.2961 h -0.0979 v -0.3939 l -0.1,-0.0979 v -1.478 l 0.1,-0.0978 v -0.394 h 0.0979 m 54.9636,72.99 v -0.0979 h -0.7879 l -0.0979,-0.0978 h -0.2961 l -0.0979,-0.0979 h -0.1982 l -0.0979,-0.1 h -0.1957 l -0.1,-0.0978 h -0.0979 l -0.0979,-0.1 h -0.1 v -0.0978 h -0.1957 l -0.0978,-0.0979 h -0.0979 v -0.0979 h -0.1 l -0.1957,-0.1982 h -0.1 v -0.0979 h -0.0978 v -0.0978 h -0.0979 v -0.0979 h -0.0979 v -0.1 h -0.0978 l -0.1,-0.0979 v -0.1 h -0.0979 v -0.0979 h -0.0978 v -0.0953 l -0.1982,-0.1982 v -0.1 h -0.0979 v -0.0979 l -0.0979,-0.0979 v -0.1 h -0.0978 v -0.1982 h -0.1 v -0.0979 l -0.0979,-0.0979 v -0.1982 h -0.0978 v -0.1982 h -0.1 v -0.2936 l -0.0979,-0.0979 v -0.2961 l -0.0978,-0.0978 v -0.79 l -0.0979,-0.0978 v -0.0979 h 0.0979 v -0.8858 l 0.0978,-0.1 v -0.2936 l 0.0979,-0.1 v -0.1957 l 0.1,-0.0979 v -0.1982 l 0.0978,-0.0979 V 594.12 l 0.0979,-0.0979 v -0.1 h 0.1 v -0.1957 l 0.0978,-0.1 v -0.0979 h 0.0979 V 593.43 l 0.1957,-0.1982 v -0.0979 h 0.1 v -0.0979 h 0.0978 v -0.0978 h 0.0979 V 592.84 h 0.1 v -0.1 l 0.0978,-0.0978 h 0.0979 v -0.1 h 0.0979 v -0.0954 h 0.0978 l 0.1,-0.1 0.0979,-0.0979 h 0.0978 v -0.1 h 0.1 l 0.0979,-0.0978 h 0.0978 v -0.0979 h 0.1957 v -0.0978 h 0.1 l 0.0979,-0.0979 h 0.1982 v -0.1 h 0.1957 v -0.0979 h 0.2961 l 0.0979,-0.0978 h 0.2961 l 0.0979,-0.0979 h 0.5922 M 734.506,552.945 h 0.0979 l 0.0979,0.0979 h 0.1 v 0.0978 H 734.9 v 0.1 h 0.0979 l 0.0978,0.0979 v 0.0978 h 0.1 v 0.0979 h 0.0979 v 0.0978 h 0.0978 v 0.1 h 0.0979 v 0.0979 l 0.1,0.1 0.0979,0.0978 v 0.0979 h 0.0979 v 0.0979 l 0.0978,0.1 v 0.1957 h 0.1 v 0.0979 l 0.0979,0.0979 v 0.1 l 0.0978,0.0979 v 0.1982 l 0.0979,0.0954 v 0.1982 l 0.1,0.1 v 0.2936 l 0.1,0.1 v 1.8719 l -0.1,0.0953 v 0.2987 l -0.1,0.0978 v 0.1957 l -0.0979,0.0979 v 0.1982 h -0.0978 v 0.1957 l -0.0979,0.1 v 0.0979 h -0.1 v 0.1982 h -0.0978 v 0.0979 l -0.0979,0.0978 v 0.0979 m -0.0979,0 -0.1,0.1 v 0.0978 h -0.0979 v 0.0979 l -0.0978,0.0979 -0.0979,0.0978 v 0.1 h -0.1 v 0.0979 h -0.0978 l -0.394,0.3939 h -0.0979 v 0.1 h -0.0978 l -0.1,0.0979 H 734.21 v 0.0978 h -0.0979 l -0.0979,0.0979 h -0.1 l -0.0978,0.0978 h -0.0979 l -0.0978,0.1 h -0.1 l -0.0979,0.0979 h -0.1957 l -0.1,0.0979 H 732.83 v 0.0978 h -0.3939 l -0.0954,0.1 H 730.86 l -0.0978,-0.1 h -0.394 l -0.0979,-0.0978 h -0.1982 l -0.0978,-0.0979 h -0.1958 v -0.0979 H 729.58 l -0.0979,-0.1 h -0.0978 l -0.1,-0.0978 h -0.0978 v -0.0979 h -0.1958 v -0.0978 h -0.1 m 79.69,105.3979 v -0.3939 l -0.0979,-0.0979 v -0.69 l -0.0978,-0.0979 v -0.2961 l 0.0978,-0.1 v -0.6875 l 0.0979,-0.0979 v -0.2986 l 0.1,-0.0954 v -0.1982 l 0.0954,-0.0979 v -0.0978 l 0.1,-0.1 v -0.1957 h 0.0978 v -0.1982 h 0.0979 v -0.0979 l 0.1,-0.0979 v -0.0978 h 0.0978 v -0.1 l 0.0979,-0.0979 v -0.1 h 0.1 v -0.0953 l 0.1958,-0.1983 v -0.0978 h 0.0978 l 0.0979,-0.0978 v -0.1 h 0.1 v -0.1 h 0.0978 l 0.1983,-0.1958 h 0.0979 v -0.0978 h 0.0978 v -0.0979 h 0.0979 l 0.0978,-0.0979 h 0.1 v -0.0978 h 0.1957 v -0.1 h 0.1983 v -0.0979 h 0.1957 v -0.1 h 0.1982 l 0.0979,-0.0953 h 0.2961 v -0.1 h 0.2936 l 0.1,-0.0979 h 0.69 l 0.0979,-0.0979 h 0.2961 l 0.0978,0.0979 h 0.69 l 0.0978,0.0979 h 0.2961 l 0.0979,0.1 h 0.1957 l 0.1,0.0953 h 0.0978 l 0.0979,0.1 h 0.1983 v 0.0979 h 0.1957 v 0.1 h 0.0978 l 0.1,0.0978 h 0.0979 v 0.0979 h 0.0979 l 0.1,0.0979 h 0.0979 v 0.0978 h 0.0978 l 0.1958,0.1958 h 0.1 v 0.1 l 0.0979,0.1 h 0.0979 v 0.0978 h 0.1 v 0.0978 l 0.1957,0.1983 v 0.0953 h 0.0979 v 0.1 h 0.1 v 0.0979 l 0.0978,0.1 v 0.0978 h 0.0979 v 0.1958 h 0.0979 v 0.1982 h 0.1 v 0.1957 h 0.0978 v 0.1982 m -87.3737,-26.596 0.1982,-0.1982 h 0.1958 v -0.0979 h 0.0978 l 0.1,-0.0979 h 0.0979 l 0.0978,-0.0978 h 0.0979 l 0.1,-0.1 h 0.1957 v -0.0978 h 0.2961 l 0.0979,-0.1 h 0.2961 l 0.1,-0.0954 h 1.6737 l 0.0979,0.0954 h 0.3939 v 0.1 h 0.2961 v 0.0978 h 0.1958 l 0.0978,0.1 h 0.1983 v 0.0978 h 0.0978 l 0.0979,0.0979 h 0.1 l 0.0979,0.0979 h 0.0979 v 0.0978 h 0.0978 l 0.1,0.1 h 0.0979 v 0.0979 h 0.0978 l 0.0979,0.0979 v 0.1 h 0.1 c 0.1631,0.1631 0.3287,0.3287 0.4918,0.4893 v 0.1 h 0.0979 v 0.0979 l 0.0978,0.1 v 0.0978 h 0.1 l 0.1,0.0978 v 0.1983 h 0.0953 v 0.0978 l 0.0979,0.0979 v 0.1 l 0.1,0.0979 v 0.0978 l 0.0978,0.0979 v 0.1982 h 0.0979 v 0.2936 l 0.1,0.1 v 0.296 l 0.0979,0.0979 v 1.6737 l -0.0979,0.0979 v 0.3939 h -0.1 v 0.2961 h -0.0979 v 0.1958 l -0.0978,0.1 v 0.1983 h -0.1 v 0.0978 l -0.0979,0.0979 v 0.0979 l -0.0953,0.1 v 0.0979 h -0.1 v 0.0954 l -0.1,0.1 m 0.1,0.1 -0.9862,0.9836 m 25.1181,-7.3874 0.4943,0.2962 a 49.3287,49.3287 0 0 0 16.1549,7.4827 l 0.59,0.1 v 0.0978 m 0,0.2961 -0.2936,0.2961 m 0.2936,6.7952 0.0978,-0.9836 m 19.4069,-5.1216 -0.3939,-0.3939 m -0.394,6.2055 -0.0979,0.9836 m -35.8578,-15.2665 v -0.788 m 0,0 -5.4176,4.9258 m 59.6937,-2.562 -0.0979,0.3939 m 5.1215,4.63 -0.69,-0.69 m 9.36,-17.3368 0.394,-0.4917 a 47.8719,47.8719 0 0 0 7.583,-16.7471 l 0.1,-0.0979 m -94.071,19.2087 0.6876,-0.59 m 86.0939,-1.38 -0.7879,0.0978 m 0,0 4.9232,5.32 m -85.9935,-8.371 -0.394,-0.1 m 89.7375,-14.185 0.2961,0.3965 m 6.7976,-0.3965 h -0.9861 m -102.3467,-3.25 0.394,-0.4918 m -6.2055,-0.3965 h -0.8858 m 104.02,-15.3644 -0.394,0.4918 m 6.2055,0.394 h 0.8858 m -110.0199,-4.1308 0.8857,0.1 m 95.4512,-14.2829 h 0.4918 m 4.5318,-5.0261 -0.69,0.5922 m -93.5792,18.6164 -0.296,-0.2936 m 7.7838,-16.9427 0.7879,-0.0979 -0.2961,0.3915 a 50.14,50.14 0 0 0 -7.6835,16.747 v 0.1957 m 7.98,-17.3342 -4.9258,-5.32 m 72.8926,-5.32 -0.394,-0.3965 a 49.1487,49.1487 0 0 0 -16.2527,-7.4852 l -0.5922,-0.0979 v -0.0978 M 764.3546,555.9 v -0.394 m -5.0261,-4.63 0.69,0.6875 m 58.61,5.9119 v 0.7879 m 0,0 5.4176,-4.9257 m -42.1587,-4.3336 0.3939,0.394 m 0.394,-6.2055 0.0979,-0.9862 m 18.6164,7.7814 0.2961,-0.1958 m -0.3939,-6.7977 v 0.8858 m -3.5457,109.6361 0.2961,-7.29 m -19.7983,-0.69 -0.2961,7.2895 m 21.0781,-5.7137 -0.1957,6.3059 m 16.6466,-13.6933 5.0232,5.4195 m -0.7879,0.5923 -4.3335,-4.73 m -17.3368,5.2218 0.69,-0.1981 a 47.5411,47.5411 0 0 0 16.2527,-6.01 l 0.59,-0.2936 m -17.5325,6.5016 0.9837,0.8858 m 16.3531,-6.1076 -0.4944,0.2961 a 53.4733,53.4733 0 0 1 -15.5626,5.7137 h -0.2961 m 16.3531,-6.01 0.0978,-1.28 m -38.5152,12.9054 0.1983,-6.4038 m -21.1785,-3.5456 5.3172,-4.9257 m 0.1,1.28 -4.63,4.3361 m 4.5293,-5.6158 0.5922,0.2961 a 47.4152,47.4152 0 0 0 16.3531,7.3873 h 0.0978 m -17.0431,-7.6834 0.1,1.28 m 15.7609,7.1916 -0.5922,-0.1981 a 51.242,51.242 0 0 1 -14.973,-6.9935 l -0.0979,-0.0979 m 15.6631,7.2895 1.084,-0.69 m 56.7352,-13.889 -4.9233,-5.4175 m -82.2522,-3.0539 -5.3172,4.9258 m 88.8492,-1.8719 4.3335,4.6271 m 2.1681,-21.47 7.2895,0.1957 m -0.1983,0.9837 -6.3033,-0.1958 m -8.5693,15.8588 0.394,-0.5922 a 49.8134,49.8134 0 0 0 7.29,-15.7584 l 0.0979,-0.5922 m -7.7814,16.9428 h 1.28 m 7.2895,-15.8588 -0.0979,0.5923 a 49.8963,49.8963 0 0 1 -6.9934,14.97 l -0.1,0.2961 m 7.1917,-15.8588 -0.7879,-0.9836 m -95.943,17.9264 4.63,-4.336 m -5.2219,-17.2364 0.1983,0.59 a 48.6026,48.6026 0 0 0 6.01,16.3531 l 0.2936,0.4917 m -1.28,-0.1981 -0.2961,-0.59 a 49.993,49.993 0 0 1 -5.6133,-15.5626 l -0.1,-0.0978 m 6.01,16.25 1.28,0.1981 m -13.7904,-17.7298 7.287,0.2961 -0.7879,0.9862 m 0,0 -6.4012,-0.2987 m 111.8017,-16.6441 -7.29,-0.2961 m -96.5351,-3.5457 -7.2871,-0.296 m 103.8227,3.8413 -0.0979,-0.69 a 49.6838,49.6838 0 0 0 -6.01,-16.3505 l -0.2962,-0.4944 m 6.4038,17.535 0.7879,-0.8858 m -89.5389,-19.6023 -0.2936,0.4918 a 47.4071,47.4071 0 0 0 -7.39,16.3506 v 0.1 m -0.8883,-1.084 0.788,1.084 m 91.3132,-13.6932 0.394,0.4918 a 53.6445,53.6445 0 0 1 5.7137,15.563 v 0.1982 m -0.0978,0.1 6.4037,0.1957 m -7.7813,-20.8823 -4.6322,4.3335 -1.28,-0.1957 5.32,-4.9258 M 734.9,584.6625 l 6.4012,0.1982 0.1983,-0.69 a 50.5517,50.5517 0 0 1 6.9934,-14.973 l 0.0978,-0.1957 m -3.7413,-5.4176 5.0236,5.4176 -1.2823,0.0978 m 0,0 -4.3335,-4.73 m 79.69,-11.8188 -5.32,4.9258 m -54.2736,-1.97 -4.9257,-5.4176 m 59.1993,7.3874 -0.4918,-0.394 a 49.0552,49.0552 0 0 0 -15.8588,-7.2895 l -0.4943,-0.0978 m 16.8449,7.7813 -0.0979,-1.2823 m -36.6432,-7.1891 -0.5922,0.0979 a 48.6628,48.6628 0 0 0 -16.3506,6.01 l -0.4943,0.2936 v 0.1 m 0.1,-1.2822 -0.1957,1.2822 m 38.317,-6.5016 0.69,0.0979 a 49.83,49.83 0 0 1 14.9705,6.9934 l 0.1982,0.0978 m 0,0 4.63,-4.3335 m -20.1923,-9.2593 -0.2961,6.4037 -0.9862,0.7879 0.2961,-7.29 m -19.7983,-0.7879 -0.2961,7.2895 L 780.9,548.12 m -16.35,6.1048 0.59,-0.394 a 53.5584,53.5584 0 0 1 15.5652,-5.7112 h 0.2961 m -0.1,0 0.1982,-6.3058 m -20.8823,7.6834 4.3335,4.7276 m 81.2652,34.5752 -0.1,-0.69 a 56.107,56.107 0 0 0 -7.4853,-20.0945 l -0.0978,-0.1957 m 7.6834,20.98 0.0979,0.9862 m 0,0 -0.5922,0.59 m 0,0 0.1,0.59 a 54.22,54.22 0 0 1 -0.69,17.7306 v 0.2961 m 0.394,0.5922 -0.4919,-0.5922 m 0.4919,0.5922 -0.1983,0.9837 m -9.2593,20.29 0.4943,-0.5871 a 57.5319,57.5319 0 0 0 8.765,-19.5048 l 0.0979,-0.1982 m -9.3572,20.29 -0.69,0.79 m 0,0 h -0.788 m 0,0 -0.3939,0.4919 A 55.8736,55.8736 0 0 1 820.7957,644.16 l -0.1982,0.0978 m -0.0979,0.8858 0.0979,-0.7879 m -0.0979,0.7879 -0.7879,0.5923 m -20.8823,7.6841 0.69,-0.1982 a 54.962,54.962 0 0 0 19.9941,-7.4852 l 0.1982,-0.1 m -20.8823,7.7834 -1.0841,0.0978 m 0,0 -0.59,-0.4943 m 0,0 h -0.5921 a 56.0009,56.0009 0 0 1 -17.7307,-0.69 l -0.1983,-0.0953 m -0.6875,0.59 0.59,-0.4943 m -0.59,0.4943 -0.9862,-0.1957 m -20.1923,-9.2593 0.59,0.394 a 57.5328,57.5328 0 0 0 19.5048,8.7649 l 0.0978,0.1 m -20.1923,-9.2593 -0.7879,-0.69 m 0,0 -0.1,-0.7879 m 0,0 -0.4893,-0.4943 a 56.9536,56.9536 0 0 1 -12.0195,-13.0032 l -0.0979,-0.1957 m -0.7879,-0.0979 0.7879,0.0979 m -0.7879,-0.0979 -0.5922,-0.7879 m -7.7813,-20.8849 0.1957,0.5923 a 55.2957,55.2957 0 0 0 7.4878,20.0944 l 0.0978,0.1982 m -7.7813,-20.8849 -0.0979,-0.9836 m 0,0 0.59,-0.5922 m 0,0 v -0.6875 a 56.1507,56.1507 0 0 1 0.69,-17.7307 l 0.0978,-0.1983 m -0.59,-0.59 0.4919,0.59 m -0.4919,-0.59 0.0979,-0.9862 m 9.3572,-20.2927 -0.3915,0.4943 a 59.5862,59.5862 0 0 0 -8.8678,19.5048 v 0.2936 m 9.2593,-20.2927 0.5922,-0.7854 m 0,0 h 0.8857 m 0,0 0.4919,-0.5922 a 57.048,57.048 0 0 1 13.0031,-12.017 l 0.1983,-0.0978 m 0,-0.788 -0.1,0.788 m 0.1,-0.788 0.7879,-0.5922 m 20.8823,-7.6834 -0.5921,0.0978 a 56.14,56.14 0 0 0 -20.0945,7.4878 l -0.0978,0.0978 m 20.7844,-7.6834 1.0841,-0.0979 m 0,0 0.59,0.4918 m 0,0 0.69,-0.0978 a 56.9171,56.9171 0 0 1 17.8286,0.69 l 0.1,0.0979 m 0.59,-0.394 -0.69,0.4918 m 0.69,-0.4918 0.9862,0.0979 m 20.1922,9.2593 -0.4918,-0.4918 a 58.3585,58.3585 0 0 0 -19.5048,-8.7675 h -0.1957 m 20.1923,9.2593 0.7879,0.69 m 0,0 0.0979,0.788 m 0,0 0.5921,0.3939 a 53.3019,53.3019 0 0 1 12.0171,13.101 l 0.0978,0.0979 m 0.69,0.1982 -0.7879,-0.1 m 0.7879,0.1 0.5922,0.788 M 787.5,662.7769 h 2.4641 a 65.1529,65.1529 0 0 0 65.1112,-61.8592 v -0.8883 l 0.0979,-0.7879 a 65.2581,65.2581 0 0 0 -61.0738,-66.687 h -1.6737 l -0.7879,-0.0979 H 790.85 a 65.2323,65.2323 0 0 0 -65.8967,61.0712 v 1.6738 a 65.0784,65.0784 0 0 0 60.183,67.3771 l 0.7879,0.1 H 787.6 m 0.1958,-8.3735 -0.69,-0.0978 h -0.6875 l -0.69,-0.1 a 56.697,56.697 0 0 1 -52.4042,-57.92 l 0.0979,-0.7879 v -0.69 a 56.6783,56.6783 0 0 1 57.33,-53.7817 h 0.69 l 0.7879,0.0978 h 1.3776 a 56.745,56.745 0 0 1 53.0942,57.33 v 0.6876 l -0.0978,0.79 a 56.6346,56.6346 0 0 1 -56.64,54.4718 h -1.38 l -0.7879,-0.0978 m -0.2961,8.1752 h 2.4641 a 64.7547,64.7547 0 0 0 64.7173,-61.4652 v -0.8883 l 0.0978,-0.7879 a 64.8592,64.8592 0 0 0 -60.68,-66.2931 h -1.6737 l -0.7879,-0.0978 H 790.85 a 64.8369,64.8369 0 0 0 -65.5052,60.6772 v 1.6738 a 64.69,64.69 0 0 0 59.7915,66.9831 l 0.7879,0.1 H 787.6 m -27.188,-24.5275 -0.4918,-0.394"
       id="path635" />
    <path
       class="cls-21"
       d="m 761.5934,633.2254 0.4943,0.2961 a 44.8641,44.8641 0 0 0 18.0243,8.4714 l 0.394,0.0978 m 0,0 -0.1958,6.7977 m 0,0 0.69,0.0954 a 54.44,54.44 0 0 0 13.3946,0.5921 l 0.394,-0.0978 m 0,0.0978 0.2961,-6.6972 m 0,0 0.5922,-0.0979 a 45.8,45.8 0 0 0 18.8122,-6.7977 l 0.3965,-0.1982 m -0.1,0 4.63,4.9257 m 0,0 0.5922,-0.3939 a 53.4323,53.4323 0 0 0 9.849,-9.0611 l 0.2961,-0.3965 m 0,0.1 -4.63,-4.9257 m 0,0 0.3939,-0.4918 a 44.8423,44.8423 0 0 0 8.4714,-18.0268 l 0.0979,-0.59 m 0,0.0979 6.7977,0.296 m 0,0 0.1957,-0.69 a 54.716,54.716 0 0 0 0.5922,-13.3971 l -0.0979,-0.4919 m 0,0 -6.7977,-0.1982 m 0,0 v -0.59 a 45.8229,45.8229 0 0 0 -6.7977,-18.8147 l -0.1957,-0.3939 m -0.0979,0.0978 5.0236,-4.6271 m 0,0 -0.296,-0.5922 a 51.7633,51.7633 0 0 0 -9.0611,-9.8515 l -0.3965,-0.394 m -0.0978,0.1 -4.9258,4.5293 m 0,0 -0.3939,-0.394 a 45.4981,45.4981 0 0 0 -18.0243,-8.4714 l -0.4944,-0.0978 m -0.0978,0.0978 0.2961,-6.7951 m 0,0 -0.5922,-0.1983 a 54.9434,54.9434 0 0 0 -13.3946,-0.5922 l -0.394,0.1 m -0.1,0 -0.2936,6.7952 m 0,0 h -0.4943 a 45.8572,45.8572 0 0 0 -18.8147,6.7977 l -0.3939,0.1957 m 0,0.1 -4.63,-5.0236 m 0,0 -0.4918,0.2962 a 51.82,51.82 0 0 0 -9.849,9.061 l -0.2961,0.394 m -0.0979,0 4.63,5.0236 m 0,0 -0.2961,0.3939 a 44.841,44.841 0 0 0 -8.4714,18.0268 l -0.0979,0.4918 m -7.5856,14.283 6.7977,0.1982 m 0,0 0.0979,0.4918 a 46.5666,46.5666 0 0 0 6.9934,19.2087 v 0.0978 m 0,0 -5.0236,4.5318 m 0,0 0.394,0.4918 a 55.2812,55.2812 0 0 0 9.061,9.9494 l 0.394,0.2961 m -11.2291,-49.5486 -6.7952,-0.1957 m 6.7952,0.1957 -1.4755,-1.8694 m -6.7977,-0.2986 6.7977,0.2986 m -7.6838,17.9285 v 0.0979 m 0,-0.0979 1.6737,-1.774 m 0.69,-14.4787 -0.1,0.59 A 54.8331,54.8331 0 0 0 737.9537,602 l 0.0979,0.394 m 0.5922,-14.3808 -1.478,-1.9723 m -0.8858,18.225 v -0.69 a 53.35,53.35 0 0 1 0.788,-17.1385 l 0.0978,-0.3965 H 737.068 M 530.013,544.8681 h -0.4944 m 0,11.1312 h 0.4944 m 0.3939,59.5933 h -0.8883 m 0,11.1312 h 0.4944 m 24.33,93.2856 -0.3939,0.7829 m 9.3571,9.8515 -1.1819,-1.1794 c -2.311,-2.3462 -4.9006,-4.87 -6.9934,-7.39 l -1.1818,-1.2823 m -18.3229,-24.4255 0.8883,-0.1982 m -0.8883,0.1982 -0.8858,-1.38 -4.7275,-8.2731 -0.7879,-1.38 m 0.4918,-15.8587 v 0.0979 m 315.9,61.1716 1.6737,-0.79 a 143.9272,143.9272 0 0 0 80.8721,-90.9169 l 0.4943,-1.5758 m -0.1,-79.69 L 928.0651,556 a 144.148,144.148 0 0 0 -80.97,-90.8214 l -1.478,-0.59 m -315.9,61.1691 v 0.0978 m 6.7977,-26.7917 -0.8883,-0.0979 m -6.3036,10.7341 0.788,-1.3776 c 1.3073,-2.6473 3.1416,-5.5656 4.7275,-8.0774 l 0.7879,-1.28 m 18.3229,-24.5283 0.3939,0.7879 m -0.3939,-0.7879 1.5758,-1.7716 3.1517,-3.35 1.5758,-1.5759 1.5759,-1.6762 1.38,-1.28 m 0.2961,0.7879 -0.1,-0.1982 -0.2936,-0.59 1.0815,-0.6876 1.1819,-0.3964 h 0.3939 m -36.8392,47.7757 0.1957,-1.28 0.1982,-0.4943 m 0,0 0.2961,0.1 0.59,0.0978 M 530.013,646.03 h -0.4944 m 399.0384,-8.5692 0.4943,-1.774 a 122.7054,122.7054 0 0 0 3.3474,-15.5628 l 0.2961,-1.6736 m 0,0.0979 -1.5758,-0.788 m 0,0 0.296,-1.7741 a 144.4847,144.4847 0 0 0 -0.1982,-38.4173 l -0.0978,-0.0978 m 0,0 1.5758,-0.788 m 0,0 -0.1982,-1.7715 a 156.188,156.188 0 0 0 -3.3474,-15.5652 l -0.4919,-1.6737 m -85.01,173.8591 H 565.7679 m 277.8795,0 1.97,-0.7879 m -269.9,0 h 269.9 m -291.3721,-10.6391 1.0815,1.1818 c 2.2207,2.3738 4.597,5.0286 6.9959,7.1892 l 1.1819,1.1844 m -33.3937,-44.3268 0.7879,1.38 c 1.3751,2.8154 3.0814,5.4551 4.63,8.1727 l 0.8858,1.38 m 0,0 1.7741,-0.2936 m 0,0 1.1819,1.7715 a 187.3127,187.3127 0 0 0 15.269,20.1923 l 0.394,0.4943 m 0,0 -0.7879,1.6738 m -24.5288,-208.4318 -0.7879,-0.1982 m 0,172.3811 V 511.4744 m 1.084,157.5085 -0.4944,0.4918 h 0.1983 v 5.7112 m 0.2961,-28.6637 -0.4944,-0.4919 m 0,-19.3065 V 646.03 m 0,-19.3065 h -0.3939 m 0,-11.1312 v 11.1312 m 0,-11.1312 h 0.3939 m 0,-59.5933 v 59.5933 m 0,-59.5933 h -0.3939 m 0,-11.1312 v 11.1312 m 0,-11.1312 h 0.3939 m 0.1983,-24.8245 v 5.7137 h -0.1983 v 19.1108 m 33.986,-79.2963 -9.1615,9.6533 m 0,0 0.7879,1.6762 m 0,0 -1.38,1.6737 a 168.0664,168.0664 0 0 0 -14.7747,19.7983 l -0.5922,0.9862 m -0.0979,0 -1.7715,-0.2961 m 0,0 -6.3059,10.8351 M 565.7679,463.7 h 277.8795 m -277.8795,0 0.2962,0.7879 m 277.5833,-0.7879 1.97,0.7879 h -269.9 m -43.5389,220.3537 -0.2936,0.0979 -1.084,0.1983 -0.69,0.1956 m 0,0 -0.0979,-0.1956 -0.1982,0.0978 -0.59,0.0978 -0.2961,-1.1818 v -0.2961 l 2.7577,-0.7879 m -1.478,-173.1691 -0.3939,0.8858 -0.0979,0.8883 m 1.97,0.4918 -1.97,-0.4918 m 0.4918,-1.7741 0.1982,0.1 1.0841,0.1957 0.6875,0.1958 m 34.6735,218.384 -1.0841,2.7577 -1.3776,-0.2961 -1.084,-0.5922 0.1983,-0.1957 0.1957,-0.59 -0.1957,-0.1982 0.0978,-0.1958 0.394,-1.0839 0.2961,-0.69 m 0,-260.1487 -0.1,-0.1957 -0.3939,-1.084 -0.2936,-0.69 0.4918,-0.3939 0.69,-0.394 0.6876,-0.1957 0.69,-0.1 0.7879,2.07 m 8.3735,263.594 0.4918,0.5922 m -1.97,-1.97 0.394,0.2961 m 1.5758,1.6737 v -0.3965 m -0.4916,-265.2673 0.4918,-0.5922 m -1.97,2.07 0.394,-0.394 m 1.5758,-1.1819 v -0.4943 m -45.31,211.0945 -0.69,-0.3964 m 1.97,0.9861 -0.7879,-0.3939 m -0.7879,-0.5922 h -0.394 m 0.69,-155.5337 -0.69,0.3914 h 0.394 m 1.5758,-0.9836 -0.7879,0.3939 m 33.3933,208.2363 0.2936,0.1958 a 2.8342,2.8342 0 0 0 1.8719,0.79 l 0.394,0.0979 m 6.7977,-1.3777 v 0.59 l 0.0978,0.394 v 0.3939 m -6.8955,-3.7464 v 3.7464 m 6.8955,0 h -6.8955 m -5.2194,-9.0636 3.94,-2.9534 m 1.28,8.2706 h 4.9257 m -39.5992,-40.1864 -0.394,-0.7879 v -0.4918 l -0.0978,-0.1982 v -0.2961 m 7.5856,6.893 3.8417,-2.8531 m -11.4273,-4.04 v -6.895 m 0,6.8956 h 3.7439 m 0,-6.1076 v 6.1076 m -3.7439,-6.8956 0.0978,0.1 h 3.1517 m 8.1778,10.8351 v 0.0979 m 28.6637,37.8226 -6.2055,-8.2706 v 0.1 m 6.2055,8.17 0.4918,0.5947 0.4944,0.6876 0.4918,0.5921 0.394,0.4943 m 0,0 v 0.0955 m -38.7135,-51.22 v 0.0978 m 0,-0.0978 0.1983,0.1957 0.0978,0.2961 0.1983,0.1958 m 7.6834,10.1475 -7.684,-10.1463 m 390.1729,-56.0477 h -2.76 m 2.76,-46.5926 h -2.76 M 534.9362,518.9621 h -2.9534 l -0.1983,0.0979 h -0.0978 v -6.8956 m 0.4918,-1.774 -0.0978,0.1982 c -0.5471,0.9811 -0.1155,0.675 -0.394,1.3776 v 0.1982 m 0.4918,-1.774 h 0.1 c 0.4692,0.404 2.035,0.9987 2.5595,1.4779 l 0.5922,0.2961 h -3.7439 m 0.4918,-1.774 1.084,-1.9674 a 181.7088,181.7088 0 0 1 29.65,-39.4034 l 1.4779,-1.478 m 2.4617,2.66 -1.478,1.4779 a 179.4925,179.4925 0 0 0 -28.96,38.6131 l -0.9836,1.7741 m 0,0.0978 v 6.1076 m 7.3873,-9.7511 -2.2659,-1.7741 m 24.7241,-27.8757 -2.2656,-1.7742 -22.4582,29.65 M 573.65,467.8377 h 0.0978 m -8.4714,11.0334 6.5016,-8.67 m -6.5016,8.67 0.0979,0.0979 m -29.9434,39.303 7.3873,-9.7511 0.0979,0.0979 m -7.4852,9.6532 -0.1983,0.2961 -0.0978,0.1958 -0.1983,0.1982 m 0.1,0.0979 -0.1,-0.0979 m 29.3563,-51.42 0.0978,0.0979 0.0979,0.1982 0.2961,0.1957 0.2961,0.3965 1.7716,1.7716 m -2.5595,-2.66 0.2936,-0.1957 a 2.98,2.98 0 0 1 1.97,-0.7879 h 0.2961 m 0,0 h 6.8955 m -6.8955,0 v 3.6435 m 6.8955,-3.6435 v 0.2961 l -0.0978,0.3939 v 0.59 l -0.394,0.4918 -0.4918,0.5922 -0.4944,0.69 -0.4918,0.59 H 566.852 M 922.8433,574.32 v 0.0978 m 0,46.4948 v 0.0979 m 0,-59.1015 v 12.411 m 0,46.5926 v 12.5113 m -380.1233,62.155 15.0708,19.8962 m 6.5016,12.2152 -1.478,-1.4779 a 172.9785,172.9785 0 0 1 -30.0438,-40.3871 l -0.5922,-0.9837 m 32.114,42.8487 v -0.0978 l 0.1957,-0.1 c 0.7352,-0.67 1.1994,-1.3049 1.8719,-1.97 l 0.4919,-0.4944 m -34.6735,-40.1864 0.1983,-0.0978 c 0.9133,-0.384 1.5733,-0.9837 2.4616,-1.2822 l 0.5922,-0.394 0.4918,0.8883 c 0.7628,1.8368 1.9547,3.4528 2.8556,5.2193 l 0.4943,0.7854 -0.4943,0.3965 3.9421,5.2218 1.1819,1.6737 a 161.5772,161.5772 0 0 0 13.7885,18.0268 l 0.1,0.1957 3.4478,4.5343 0.3939,-0.2986 0.69,0.6876 c 1.1342,1.3475 2.6046,2.6548 3.8392,3.9421 l 0.69,0.6875 M 927.079,609.6832 v -24.1344 m 1.1844,51.42 0.2936,0.4918 m -1.28,-2.3663 0.59,0.9862 m -5.0236,-1.1819 v 0.1 m 5.5179,2.4616 h 0.1958 m -1.28,-2.3663 -0.296,-0.0939 -0.7879,-0.1 h -3.35 m 4.4339,-74.6641 0.4918,1.6737 a 141.7759,141.7759 0 0 1 -0.2935,72.4986 l -0.1983,0.5922 m -1.6737,-14.0872 h 1.3776 l 0.0979,-9.3572 v -1.8719 l 0.1982,-1.7741 a 143.2849,143.2849 0 0 0 -0.0979,-21.8685 l -0.1,-0.4918 -0.0979,-9.2593 v -1.97 h -1.3776 l -0.2961,-1.5758 c -0.5771,-3.1367 -1.2245,-6.2582 -1.97,-9.3572 l -0.4943,-1.478 v -1.478 m 0,72.9929 0.4943,-1.6762 c 0.8231,-3.3047 1.5583,-6.5969 2.1655,-9.9493 l 0.1,-0.9836 m -2.7577,14.0846 v -1.4755 m 0,-72.9929 v -0.0978 m 0,0.0978 1.6737,-0.0978 h 1.38 l 0.8858,-0.0979 h 0.4918 m 0.9862,-1.9723 0.2961,-0.4918 m -1.2823,2.4641 0.4918,-0.9861 m 0.79,-1.478 h -0.1983 m 2.8556,20.2927 h 1.1819 m 0,26.8921 v 12.2127 h -1.1819 m 1.1819,-39.1048 V 590.277 M 538.384,499.1613 h -0.0979 m 0,0 0.7879,-1.0841 m 306.5432,232.667 H 577.3935 l -3.252,-0.8858 v -0.1 m 271.4757,0.9862 -0.1957,-0.9862 m 82.8419,-93.9731 0.0978,2.4616 -0.4943,1.6762 a 144.0931,144.0931 0 0 1 -81.4618,90.425 l -0.7879,0.2961 m -315.11,-211.19 h 0.1957 m 0,156.3242 h -0.1957 m 0,0 -0.7879,-1.1819 v -5.1215 m -0.002,-143.7174 v -5.1215 l 0.79,-1.1819 m -0.79,6.3034 h 0.2961 m 0,34.8717 v -34.872 m 0,34.8717 h 0.3939 m 0,0 v 62.1552 m 0,0 h -0.3939 m 0,46.69 v -46.69 m 0,46.69 h -0.2961 m 398.6444,-112.4912 -0.0978,2.4616 m -82.6462,-94.9568 1.6762,0.69 a 144.1578,144.1578 0 0 1 80.97,91.0172 l 0.1957,0.69 M 574.1415,465.4739 v -0.1 m 0,0 3.252,-0.8858 h 268.2237 l -0.1957,0.9861 m 0,264.2841 h -271.28 v -1.7715 m -39.7949,-52.2084 0.1982,0.2936 m 39.4988,52.2109 0.0979,0.0979 m 0,-0.394 -0.69,-0.8883 -0.7879,-0.9862 -0.6876,-0.9836 m 351.0657,-89.3435 v -0.3914"
       id="path637" />
  </g>
  <g
     class="cls-22"
     clip-path="url(#clip-path-5)"
     id="g643"
     transform="translate(-204.86405,-14.366131)">
    <path
       class="cls-21"
       d="m 781.2951,599.9316 -24.5284,18.9125 m 1.7741,-45.6064 23.05,20.8824 m 0,0 v 0.1957 l -0.0978,0.1 v 0.1958 l -0.1,0.0978 v 0.1983 l -0.0979,0.0978 v 0.394 l -0.0978,0.1 v 0.0979 c 0.0251,0.5244 -0.1556,0.3062 -0.1,1.084 v 1.97 l 0.1,0.0979 v 0.4918 l 0.0978,0.1 v 0.1957 l 0.0979,0.0979 v 0.1982 m 6.3059,-11.4273 -19.013,-24.5284 m 45.7069,1.7741 -20.8828,22.9533 m 0,0 -0.1,-0.1 h -0.0978 l -0.0979,-0.0978 h -0.1957 l -0.1,-0.1 h -0.1957 l -0.1983,-0.0979 h -0.2935 l -0.1,-0.0978 h -0.4919 l -0.1,-0.0979 h -2.4616 l -0.1958,0.0979 h -0.3939 l -0.1,0.0978 h -0.394 l -0.0978,0.0979 h -0.1957 m 24.428,42.9491 -0.394,0.1982 a 40.2518,40.2518 0 0 1 -45.6064,-1.8719 l -0.1983,-0.1982 m 0.2961,-0.2936 0.394,0.1932 c 12.8827,9.7561 31.5318,10.4788 45.0168,1.5758 l 0.1956,-0.0953 m 12.3132,-55.2623 0.2961,0.3965 a 40.2566,40.2566 0 0 1 -1.872,45.6065 l -0.0978,0.1982 m -0.4944,-0.2986 0.2962,-0.394 c 9.7536,-12.8827 10.4788,-31.5318 1.5758,-45.0142 L 823.75,575.8 m -67.3772,43.34 -0.1957,-0.4943 A 40.312,40.312 0 0 1 758.049,573.14 l 0.1957,-0.2986 m 0.2961,0.3965 -0.1982,0.2936 a 39.8959,39.8959 0 0 0 -1.6737,45.1146 l 0.0978,0.1982 m 11.7233,-55.3578 0.4918,-0.2986 a 40.3162,40.3162 0 0 1 45.5086,1.8745 l 0.1983,0.1957 m -0.2961,0.394 -0.2962,-0.2961 a 39.8956,39.8956 0 0 0 -45.1146,-1.6737 l -0.2961,0.0978 m 64.9155,67.1789 -0.3939,0.4943 m -3.35,-3.5481 0.394,-0.4918 m -6.8953,-73.3844 0.4918,0.394 m -3.6435,3.35 -0.4918,-0.4943 m -63.1414,83.9259 -0.4944,-0.394 m 3.5482,-3.252 0.59,0.3964 m -13.8893,-73.683 0.3939,-0.4919 m 3.35,3.5457 -0.394,0.4943 m 94.7611,23.1458 v -0.59 m -0.1,0.59 -0.0979,-0.7855 m -47.6741,61.9571 0.6875,-0.0979 m -0.6875,0 0.7879,-0.1957 m -13.9893,-108.75 -0.6875,0.1 m 0.6875,0 -0.8858,0.1957 m -46.9865,60.8755 v 0.59 m 0.0978,-0.59 0.1,0.7879 m 99.98,-24.5258 -0.8858,-0.2986 m -27.68,63.1439 0.1957,-0.8883 m -34.4749,-90.6232 -0.1982,0.8883 m -28.4655,61.957 0.8858,0.2961 m 83.5319,11.5252 0.394,-0.4919 a 49.215,49.215 0 0 0 7.7813,-16.5487 l 0.0979,-0.5922 m -18.0268,-49.8422 -0.394,-0.3939 a 49.0722,49.0722 0 0 0 -16.5488,-7.7813 l -0.59,-0.0979 m -40.1913,85.4013 0.4944,0.2962 a 47.7608,47.7608 0 0 0 17.0406,7.8791 h 0.0979 m -27.384,-75.65 -0.2961,0.3939 a 48.2269,48.2269 0 0 0 -7.7813,16.5489 l -0.1958,0.4918 m 100.5726,4.8254 h 0.6876 m -0.8858,18.225 h -0.59 m 0.7879,0 0.1958,-0.69 a 55.25,55.25 0 0 0 0.69,-17.4346 v -0.1982 m -0.1982,0.0979 h 0.1 m -10.6394,-11.327 v 0.0978 m 0.3939,0.79 0.2961,-0.1982 0.2961,-0.1 m -3.7439,-7.681 0.394,0.4919 a 49.2364,49.2364 0 0 1 3.35,6.8955 l 0.0979,0.1982 m -15.367,63.5329 -0.3939,-0.4943 m 13.495,-12.3132 0.5922,0.5947 m -13.495,12.3132 0.59,-0.394 a 54.0823,54.0823 0 0 0 12.805,-11.8213 l 0.1,-0.1982 m -9.9494,-76.4382 0.59,-0.4918 m 12.1174,13.5928 -0.394,0.394 m 0.59,-0.4918 -0.2961,-0.5922 A 57.1817,57.1817 0 0 0 824.046,554.423 l -0.0978,-0.0979 m -16.057,87.1754 v 0.0954 m -0.7879,0.1982 0.0978,0.3965 0.0979,0.2936 m 7.6835,-3.7414 -0.8859,0.4919 a 37.8215,37.8215 0 0 1 -5.8115,2.8555 l -0.9861,0.394 m -10.7348,8.8658 v 0.69 m -18.225,-0.9862 v -0.59 m 0,0.7879 0.69,0.0979 a 54.3057,54.3057 0 0 0 17.4346,0.69 h 0.1 m 0,0 v 0.0979 m -13.201,-108.2561 v -0.6875 m 18.225,0.9836 v 0.5922 m 0,-0.7879 -0.5922,-0.1957 a 54.1614,54.1614 0 0 0 -17.4346,-0.6926 h -0.0978 m -0.1,0.1 v -0.1 m -11.4252,10.6394 v 0.0979 m 0.8857,-0.394 -0.0978,-0.3939 -0.1,-0.2936 m -7.6834,3.8417 0.5921,-0.3965 a 56.1933,56.1933 0 0 1 6.8956,-3.3474 l 0.2961,-0.0978 M 746.03,615.5921 v 0.1 m -0.2936,-0.9861 -0.394,0.1982 -0.296,0.0979 m 3.8417,7.6835 -0.2961,-0.5922 a 56.3162,56.3162 0 0 1 -3.35,-6.8931 l -0.0979,-0.2961 m -1.1819,12.3106 0.394,-0.3939 m 12.3131,13.4975 -0.5922,0.4918 m -12.3106,-13.495 0.394,0.4918 a 57.01,57.01 0 0 0 11.8183,12.903 l 0.0979,0.1 m -8.765,-76.4407 -0.5922,-0.59 m 13.5929,-12.1148 0.4943,0.3914 m -0.5922,-0.59 -0.4918,0.2961 a 57.2,57.2 0 0 0 -12.9053,11.8213 l -0.0979,0.0979 m -10.4411,40.5828 h -0.69 m 0.8883,-18.2225 h 0.59 m -0.7879,0 -0.0979,0.59 a 54.2471,54.2471 0 0 0 -0.69,17.4371 v 0.1957 m 0.0978,0 h -0.0978 m 99.4885,-21.5724 0.394,-0.0978 0.1982,-0.1 0.1957,0.4943 a 42.2881,42.2881 0 0 1 1.7741,7.4852 v 0.2961 m -1.97,-8.2756 0.59,-0.7855 m -0.0978,-0.69 0.1982,-0.1 m -31.1278,62.3535 0.7879,0.4944 m 0.59,-0.1 0.1,0.2961 m -1.774,-1.3776 0.1982,0.3939 0.0979,0.2936 m 0,0 -0.9862,0.2961 a 43.0663,43.0663 0 0 1 -6.3033,1.478 l -0.9862,0.1957 m -21.866,-92.593 -0.0979,-0.394 -0.1,-0.296 0.9862,-0.2936 a 46.3887,46.3887 0 0 1 6.2055,-1.478 l 1.084,-0.1982 m -8.2757,1.97 -0.7879,-0.4919 m -0.5922,0.0979 -0.0978,-0.2936 m -28.3685,61.2689 -0.394,0.0978 -0.2961,0.0979 -0.2961,-0.9862 a 55.2144,55.2144 0 0 1 -1.4779,-6.2054 l -0.0979,-1.0815 m 1.8719,8.2731 -0.4918,0.8858 m 0.0979,0.5922 -0.1983,0.0979 m 1.2823,-1.7716 v 0.0978 m 0.7879,2.0677 0.2936,0.8858 m -0.7879,-2.1656 v -0.1 l -0.0979,-0.0979 v -0.1957 l -0.0978,-0.1 v -0.1957 l -0.0979,-0.0979 v -0.0978 m 0,0 -0.5922,0.9836 -0.4918,0.69 m 0,0 0.59,0.1957 0.4944,0.0979 0.7879,0.1982 m 89.2431,-32.0136 v 0.1 m -0.7879,-2.2659 -0.3939,-0.8883 m 0.8857,2.168 v 0.0979 l 0.1,0.0978 v 0.1983 l 0.0979,0.1957 v 0.0979 l 0.0978,0.1 v 0.0978 m 0,0 0.5922,-0.9837 0.4919,-0.69 m 0,0 -0.59,-0.1 -0.4944,-0.1957 -0.7879,-0.1957 m -29.3537,62.0574 0.0978,0.0978 m 2.1681,-0.8883 0.7879,-0.2936 m -2.0677,0.788 -0.1,0.0978 h -0.1957 l -0.1,0.0979 h -0.1958 l -0.0978,0.1 h -0.0979 l -0.1,0.0978 m 0,0 0.4919,0.2961 0.3964,0.2936 0.6876,0.394 m 0,0 0.1982,-0.4943 0.1982,-0.5872 0.1958,-0.7905 m -32.1115,-89.1452 v 0.1 m -2.1681,0.6875 -0.8857,0.2961 m 2.1655,-0.7879 0.0979,-0.0979 h 0.2961 l 0.1,-0.0978 h 0.0979 l 0.0978,-0.1 h 0.1983 m 0,0 -0.4943,-0.394 -0.4919,-0.296 -0.5922,-0.394 m 0,0 -0.1957,0.4918 -0.1957,0.5922 -0.1983,0.7879 m 60.9735,26.2021 0.1,0.2961 c 0.1506,0.537 0.5119,0.9033 0.6876,1.5758 l 0.0978,0.2961 m -26.7917,59.6936 -0.1958,0.0954 c -0.5846,0.1857 -1.0765,0.4191 -1.6762,0.5947 l -0.1957,0.0979 m -33.7877,-88.5556 0.1983,-0.0978 c 0.4742,-0.1631 1.1241,-0.3915 1.5758,-0.5922 l 0.2936,-0.0979 m -27.9737,62.6473 -0.1,-0.2936 -0.1957,-0.1982 -0.0979,-0.2936 -0.1982,-0.5922 -0.0979,-0.1983 -0.1982,-0.59 m 98.407,-22.4606 v 0.1 m -0.8883,18.1247 h 0.1 m 0.7879,-18.225 0.0979,0.5921 a 51.827,51.827 0 0 1 -0.7879,17.1385 l -0.0979,0.394 m -1.5758,-1.7716 1.4754,1.872 m 0,0 -6.7951,-0.1983 m 0.8858,-18.2225 6.7976,0.1958 m 0,0 -1.6762,1.774 m -13.9868,33.0977 4.63,5.021 m 1.8719,-23.8357 1.478,1.97 m 0,0 -0.1,0.4944 a 45.7622,45.7622 0 0 1 -7.6809,16.1523 l -0.1983,0.1983 -2.4616,0.1981 m 9.1589,-44.2288 0.2961,0.8858 m -0.2961,-0.8858 -0.8857,-2.168 m 0,0 v 0.0978 m -3.25,-6.6972 0.394,0.4918 a 56.9613,56.9613 0 0 1 2.8556,5.7136 l 0.1,0.2961 m 1.0815,3.1517 0.2961,0.9861 a 53.9962,53.9962 0 0 1 1.478,6.01 l 0.0979,1.0815 -1.6738,1.7716 m -7.0937,-19.7005 2.3663,0.2986 m 5.0236,-4.6321 -5.0235,4.6324 m 2.1655,57.7188 v 0.1 m 0,-0.1 -2.4617,0.1 m -11.0338,12.213 v 0.1 m 13.495,-12.4135 -0.394,0.4944 a 53.1084,53.1084 0 0 1 -12.7071,11.5252 l -0.3939,0.1982 m 4.1378,-88.1616 -0.0979,0.1 m 9.9469,13.1989 2.3663,0.2936 m 0,0 0.0978,-0.0979 m -12.3131,-13.495 0.59,0.3939 a 53.1585,53.1585 0 0 1 11.5252,12.7071 l 0.2961,0.2961 m -16.2527,72.3988 -0.2961,2.4617 m 0,0 -4.63,-5.0212 m 3.7439,-78.5083 4.9257,-4.6271 m 0,0 0.0979,2.4616 m -26.4,86.9772 -0.2936,6.7977 m 9.2593,-8.9632 -0.9861,0.2961 m 0.9861,-0.2961 2.0677,-0.788 m 0,0 v 0.0954 m 6.8955,-5.8115 -0.2961,2.3662 -0.4918,0.2962 c -2.03,1.1015 -3.5707,1.9146 -5.7137,2.8555 l -0.3939,0.0979 m -3.0538,1.1844 -0.4918,0.0978 a 47.33,47.33 0 0 1 -7.3874,1.7716 h -0.1 l -1.7716,-1.5758 m 23.1483,-83.2359 0.0978,2.3663 m -17.0406,-10.4437 0.59,0.1 a 47.3162,47.3162 0 0 1 16.2552,7.6834 l 0.1957,0.0979 m -19.01,-6.3059 1.97,-1.4754 m 0.1957,-6.8956 -0.1957,6.8956 m -4.7288,99.6852 h -0.5922 a 53.4277,53.4277 0 0 1 -17.1385,-0.788 l -0.4943,-0.0978 v 0.0978 m 18.225,0.788 v -0.0979 m 0,0 -1.7742,-1.6741 m -14.4811,-0.69 -1.97,1.5759 m 0,0 0.2961,-6.8956 m 4.4339,-92.7887 0.1958,-6.7977 m 0.0978,-0.1 -0.0978,0.1 m 0,0 1.8719,1.6737 m 14.4811,0.69 1.8694,-1.5759 m 0,0 h 0.1 m -18.225,-0.8883 0.69,-0.0953 a 54.2662,54.2662 0 0 1 17.2388,0.7854 l 0.394,0.0979 m -21.1777,97.4206 -1.8719,1.478 m 0,0.0979 -0.4918,-0.1958 a 45.719,45.719 0 0 1 -16.1549,-7.6859 l -0.1982,-0.1957 m 12.3131,-82.6437 0.8883,-0.2961 m -0.8883,0.2961 -2.0677,0.7879 m -6.5994,3.35 0.59,-0.3939 c 2.0325,-1.1041 3.5707,-1.9171 5.7136,-2.8581 l 0.2961,-0.0979 h -0.0978 m 11.1312,-2.9534 1.7716,1.6737 m -9.849,0.1957 0.59,-0.1957 a 49.2562,49.2562 0 0 1 7.3873,-1.7741 h 0.1983 m -21.4746,84.91 -5.0236,4.63 m 5.0236,-4.63 -0.0978,-2.3638 m 3.5456,-73.6805 0.2961,-2.4616 m -4.63,-5.0261 4.63,5.0261 m -8.7675,83.2359 v -0.1 m 0,0 v -2.4616 m -12.2153,-10.9355 h -0.0978 m 12.3131,13.4975 -0.4918,-0.4944 a 54.5177,54.5177 0 0 1 -11.5252,-12.707 l -0.1983,-0.394 m 2.3638,0.2961 -2.3638,-0.1982 m 0,0 5.0236,-4.7275 m 2.4642,-52.6978 -4.63,-5.0261 m 0,0 v 0.1 m 0,-0.1 2.4617,-0.0978 m 10.7372,-9.7512 0.2961,-2.4641 m 0,0 v 0.1 m -13.4953,12.2126 0.4919,-0.59 a 54.6825,54.6825 0 0 1 12.707,-11.5252 l 0.394,-0.1982 m -15.663,61.37 -0.2936,-0.8857 m 0.2936,0.8857 0.8882,2.1656 m 0,0 h -0.1 m 3.35,6.6019 -0.2961,-0.5922 c -1.1016,-2.0325 -1.9146,-3.5707 -2.8556,-5.7136 l -0.0979,-0.394 m 5.7112,6.9934 -2.3638,-0.3939 m -4.5292,-9.5529 -0.2961,-0.9862 a 50.4536,50.4536 0 0 1 -1.478,-6.01 l -0.0979,-0.9837 m 8.8654,-35.1653 2.4616,-0.1 m -10.539,17.0431 0.1957,-0.5922 a 47.3312,47.3312 0 0 1 7.6834,-16.2527 l 0.1983,-0.2961 m -8.8654,35.3635 -6.7976,-0.2961 m 6.7976,0.2961 1.6738,-1.8719 m 5.9093,-6.5016 v 1.38 a 39.335,39.335 0 0 0 37.4337,39.3031 h 0.4918 l 0.394,0.0978 a 39.3976,39.3976 0 0 0 40.2868,-36.9393 v -0.9861 l 0.1,-0.3915 v -0.4943 A 39.385,39.385 0 0 0 792.4265,558.3626 H 791.44 l -0.3939,-0.0979 a 39.594,39.594 0 0 0 -26.6939,9.5554 l -0.394,0.2936 -0.2961,0.2961 a 39.1969,39.1969 0 0 0 -12.8049,25.8081 l -0.0979,0.4918 v 1.478 m 5.9094,41.569 4.9258,-4.5318"
       id="path641" />
  </g>
  <g
     class="cls-23"
     clip-path="url(#clip-path-6)"
     id="g647"
     transform="translate(-204.86405,-14.366131)">
    <path
       class="cls-21"
       d="m 760.4125,637.7574 -0.4918,-0.3939 m -10.2455,-69.4473 0.394,-0.59 m 10.4408,70.3309 -0.59,-0.394 m -9.1614,-69.1487 -0.394,0.4919 m 69.5426,-10.5391 -0.59,-0.3939 m 9.9469,69.643 0.3965,-0.5922 m -68.953,9.8515 0.4918,0.3939 m 31.62,-30.7363 19.01,24.6262 M 766.223,629.0878 787.0086,606.04 m 0,0 h 0.2961 l 0.0978,0.0954 h 0.1957 l 0.1,0.0979 h 0.1957 l 0.1,0.1 h 0.3915 l 0.1,0.0979 h 0.0979 c 0.5244,-0.0226 0.3061,0.1556 1.084,0.1 h 1.97 l 0.0978,-0.1 h 0.4944 l 0.0979,-0.0979 h 0.1957 l 0.0979,-0.1 h 0.296 m 6.3059,-11.4249 24.5259,-19.01 m -1.7716,45.6064 -22.9516,-20.7848 m 0,0 0.0978,-0.1957 v -0.1 l 0.1,-0.0979 V 600.03 l 0.0979,-0.1 v -0.1957 l 0.0978,-0.1958 V 599.24 l 0.0979,-0.0954 V 598.65 l 0.1,-0.0979 v -2.4641 l -0.1,-0.1957 v -0.394 l -0.0979,-0.0978 v -0.3965 l -0.0978,-0.0954 v -0.1982"
       id="path645" />
  </g>
  <polyline
     class="cls-26"
     points="528.741 660.513 528.741 670.014 516.604 670.014 516.604 524.185 528.464 524.112 528.464 532.342"
     id="polyline659"
     transform="translate(-204.86405,-14.366131)" />
</svg>
