<svg id="Layer_1" data-name="Layer 1" xmlns="http://www.w3.org/2000/svg" viewBox="0 0 718.1235 790.4006"><defs><style>.cls-1{fill:#434343;}.cls-2{fill:#4f4e51;}.cls-3{fill:#323031;}.cls-4{fill:#6a5f27;}.cls-5{fill:#fff;}.cls-10,.cls-11,.cls-12,.cls-13,.cls-15,.cls-16,.cls-17,.cls-6,.cls-8{fill:none;}.cls-6{stroke:#fff;stroke-miterlimit:10;stroke-width:4.6939px;}.cls-7{fill:#232d2f;}.cls-8{stroke:#00aeef;}.cls-10,.cls-11,.cls-12,.cls-13,.cls-15,.cls-16,.cls-17,.cls-8{stroke-linecap:round;stroke-linejoin:round;}.cls-10,.cls-11,.cls-12,.cls-15,.cls-16,.cls-17,.cls-8{stroke-width:9.478px;}.cls-9{fill:#221f1f;}.cls-10{stroke:#221f1f;}.cls-11{stroke:#e9262a;}.cls-12{stroke:#babcbe;}.cls-13{stroke:#6d6e71;stroke-width:14px;}.cls-14{font-size:37.912px;fill:#010101;font-family:Verdana;letter-spacing:0.001em;}.cls-15{stroke:#fff200;}.cls-16{stroke:#754c29;}.cls-17{stroke:#f7941d;}.cls-18{fill:#bab6af;}.cls-19{fill:#e5e0d6;}</style></defs><path class="cls-1" d="M882.4549-1066.3485l1.6139,1211.9843a72.4809,72.4809,0,0,1-72.577,72.3844H-386.13a72.4809,72.4809,0,0,1-72.577-72.3844l-1.614-1221.2159a72.481,72.481,0,0,1,72.5771-72.3844H800.6217c48.3418-4.1591,82.6585,21.4021,81.83,67.5711"/><rect class="cls-2" x="-446.7549" y="-1113.3093" width="1323.2948" height="1296.3962" rx="51.0409" transform="translate(680.0037 -250.2187) rotate(-90)"/><rect class="cls-3" x="19.4621" y="105.138" width="716.1661" height="80.3039"/><path class="cls-4" d="M58.5833,140.993a4.7218,4.7218,0,1,1-4.7214,4.7218,4.72,4.72,0,0,1,4.7214-4.7218"/><path class="cls-4" d="M58.5833,162.1248a4.7219,4.7219,0,1,1-4.7214,4.7185,4.7168,4.7168,0,0,1,4.7214-4.7185"/><path class="cls-4" d="M58.5833,119.0114a4.72,4.72,0,1,1-4.7214,4.7184,4.7167,4.7167,0,0,1,4.7214-4.7184"/><path class="cls-4" d="M130.052,140.993a4.7218,4.7218,0,1,1-4.721,4.7218,4.72,4.72,0,0,1,4.721-4.7218"/><path class="cls-4" d="M130.052,162.1248a4.7219,4.7219,0,1,1-4.721,4.7185,4.7168,4.7168,0,0,1,4.721-4.7185"/><path class="cls-4" d="M130.052,119.0114a4.72,4.72,0,1,1-4.721,4.7184,4.7167,4.7167,0,0,1,4.721-4.7184"/><path class="cls-4" d="M201.5207,140.993a4.7218,4.7218,0,1,1-4.7207,4.7218,4.72,4.72,0,0,1,4.7207-4.7218"/><path class="cls-4" d="M201.5207,162.1248a4.7219,4.7219,0,1,1-4.7207,4.7185,4.7168,4.7168,0,0,1,4.7207-4.7185"/><path class="cls-4" d="M201.5207,119.0114A4.72,4.72,0,1,1,196.8,123.73a4.7167,4.7167,0,0,1,4.7207-4.7184"/><path class="cls-4" d="M272.9894,140.993a4.7218,4.7218,0,1,1-4.72,4.7218,4.72,4.72,0,0,1,4.72-4.7218"/><path class="cls-4" d="M272.9894,162.1248a4.7219,4.7219,0,1,1-4.72,4.7185,4.7168,4.7168,0,0,1,4.72-4.7185"/><path class="cls-4" d="M272.9894,119.0114a4.72,4.72,0,1,1-4.72,4.7184,4.7167,4.7167,0,0,1,4.72-4.7184"/><path class="cls-4" d="M344.4581,140.993a4.7218,4.7218,0,1,1-4.72,4.7218,4.72,4.72,0,0,1,4.72-4.7218"/><path class="cls-4" d="M344.4581,162.1248a4.7219,4.7219,0,1,1-4.72,4.7185,4.7169,4.7169,0,0,1,4.72-4.7185"/><path class="cls-4" d="M344.4581,119.0114a4.72,4.72,0,1,1-4.72,4.7184,4.7168,4.7168,0,0,1,4.72-4.7184"/><path class="cls-4" d="M415.9268,140.993a4.7218,4.7218,0,1,1-4.72,4.7218,4.72,4.72,0,0,1,4.72-4.7218"/><path class="cls-4" d="M415.9268,162.1248a4.7219,4.7219,0,1,1-4.72,4.7185,4.7169,4.7169,0,0,1,4.72-4.7185"/><path class="cls-4" d="M415.9268,119.0114a4.72,4.72,0,1,1-4.72,4.7184,4.7168,4.7168,0,0,1,4.72-4.7184"/><path class="cls-4" d="M487.3955,140.993a4.7218,4.7218,0,1,1-4.7191,4.7218,4.72,4.72,0,0,1,4.7191-4.7218"/><path class="cls-4" d="M487.3955,162.1248a4.7219,4.7219,0,1,1-4.7191,4.7185,4.7168,4.7168,0,0,1,4.7191-4.7185"/><path class="cls-4" d="M487.3955,119.0114a4.72,4.72,0,1,1-4.7191,4.7184,4.7167,4.7167,0,0,1,4.7191-4.7184"/><path class="cls-4" d="M558.8643,140.993a4.7218,4.7218,0,1,1-4.7188,4.7218,4.72,4.72,0,0,1,4.7188-4.7218"/><path class="cls-4" d="M558.8643,162.1248a4.7219,4.7219,0,1,1-4.7188,4.7185,4.7168,4.7168,0,0,1,4.7188-4.7185"/><path class="cls-4" d="M558.8643,119.0114a4.72,4.72,0,1,1-4.7188,4.7184,4.7167,4.7167,0,0,1,4.7188-4.7184"/><path class="cls-4" d="M630.333,140.993a4.7218,4.7218,0,1,1-4.7184,4.7218,4.72,4.72,0,0,1,4.7184-4.7218"/><path class="cls-4" d="M630.333,162.1248a4.7219,4.7219,0,1,1-4.7184,4.7185,4.7168,4.7168,0,0,1,4.7184-4.7185"/><path class="cls-4" d="M630.333,119.0114a4.72,4.72,0,1,1-4.7184,4.7184,4.7167,4.7167,0,0,1,4.7184-4.7184"/><path class="cls-4" d="M701.8017,140.993a4.7218,4.7218,0,1,1-4.7181,4.7218,4.72,4.72,0,0,1,4.7181-4.7218"/><path class="cls-4" d="M701.8017,162.1248a4.7219,4.7219,0,1,1-4.7181,4.7185,4.7168,4.7168,0,0,1,4.7181-4.7185"/><path class="cls-4" d="M701.8017,119.0114a4.72,4.72,0,1,1-4.7181,4.7184,4.7167,4.7167,0,0,1,4.7181-4.7184"/><path class="cls-5" d="M369.7464,44.9488a7.7889,7.7889,0,0,1,3.03,3.1958,10.1069,10.1069,0,0,1,1.0867,4.765V54.753a10.0867,10.0867,0,0,1-1.0867,4.7718,7.7668,7.7668,0,0,1-3.05,3.1907A8.9453,8.9453,0,0,1,365.2,63.8429h-5.4743V43.82h5.5995A8.67,8.67,0,0,1,369.7464,44.9488Zm2.4409,7.9337a8.94,8.94,0,0,0-.8531-4.0083,6.3011,6.3011,0,0,0-2.4071-2.6677,6.8136,6.8136,0,0,0-3.6021-.9429h-3.9067V62.4125H365.2a6.97,6.97,0,0,0,3.7-.9631,6.3745,6.3745,0,0,0,2.4341-2.6948,8.9459,8.9459,0,0,0,.8531-4.0016Z"/><path class="cls-5" d="M378.5519,63.8429V43.82h1.6927V63.8429Z"/><path class="cls-5" d="M399.5179,59.7651a7.65,7.65,0,0,1-10.9112,3.2179,7.456,7.456,0,0,1-2.7524-3.2246,11.37,11.37,0,0,1-.975-4.8548V52.759a11.4265,11.4265,0,0,1,.9682-4.8547,7.4518,7.4518,0,0,1,2.7388-3.2247,7.3661,7.3661,0,0,1,4.0761-1.1341,7.2059,7.2059,0,0,1,6.8487,4.352,11.5175,11.5175,0,0,1,.9615,4.8615v2.1446A11.5653,11.5653,0,0,1,399.5179,59.7651Zm-1.4523-11.1313a5.8465,5.8465,0,0,0-2.1092-2.6677,5.744,5.744,0,0,0-3.294-.9361,5.6433,5.6433,0,0,0-3.2466.9361,5.9134,5.9134,0,0,0-2.1091,2.6745,10.4419,10.4419,0,0,0-.7381,4.0913v2.1717a10.414,10.414,0,0,0,.7448,4.1049,5.9822,5.9822,0,0,0,2.1227,2.6829,5.6454,5.6454,0,0,0,3.2534.9412,5.7351,5.7351,0,0,0,3.3008-.9344,5.7985,5.7985,0,0,0,2.0888-2.6745,10.7976,10.7976,0,0,0,.7177-4.12V52.7319A10.49,10.49,0,0,0,398.0656,48.6338Z"/><polyline class="cls-6" points="53.861 73.115 53.861 53.688 340.853 53.688"/><polyline class="cls-6" points="419.345 53.686 690.571 53.686 690.571 73.113"/><path class="cls-7" d="M350.5559,693.1131h.01v-118.04H64.2758V682.0168a183.1177,183.1177,0,0,0,194.86,293.811L371.9328,872.2362a183.24,183.24,0,0,0-21.3769-179.1231ZM202.9787,880.2825c-46.0355,0-83.3546-32.95-83.3546-73.5955s37.3191-73.5957,83.3546-73.5957,83.3547,32.95,83.3547,73.5957S249.0143,880.2825,202.9787,880.2825Z"/><polyline class="cls-8" points="223.224 639.764 223.224 453.576 193.246 453.877 193.246 413.041"/><rect class="cls-9" x="69.7058" y="111.4001" width="32.9048" height="78.8376"/><polyline class="cls-10" points="75.15 173.009 75.15 267.558 261.567 268.965 260.513 393.776"/><polyline class="cls-11" points="86.158 146.048 86.158 253.981 275.253 255.388 274.199 393.776"/><polyline class="cls-12" points="96.714 129.482 96.714 240.417 288.936 241.975 287.879 393.776"/><rect class="cls-9" x="30.0194" y="112.8262" width="32.9048" height="78.8376"/><polyline class="cls-10" points="35.464 174.436 35.464 324.984 165.88 326.391 165.236 367.569"/><polyline class="cls-11" points="46.471 147.475 46.471 311.407 179.567 312.814 178.854 367.569"/><polyline class="cls-12" points="57.028 130.908 57.028 297.843 193.246 299.247 192.192 393.776"/><line class="cls-13" x1="193.2442" y1="421.2568" x2="193.2477" y2="372.9505"/><text class="cls-14" transform="translate(324.9233 496.553)">E4T OEM Miniature <tspan x="0" y="45.4941">Optical Encoder</tspan></text><polyline class="cls-15" points="175.411 639.764 175.412 514.856 288.935 514.856 288.931 421.257"/><polyline class="cls-16" points="202.475 639.764 202.477 484.425 261.568 484.425 261.57 413.041"/><polyline class="cls-17" points="250.237 639.764 249.058 498.165 274.075 498.165 275.256 413.041"/><line class="cls-13" x1="261.5667" y1="421.2568" x2="261.5701" y2="372.9505"/><line class="cls-13" x1="275.2512" y1="421.2568" x2="275.2547" y2="372.9505"/><line class="cls-13" x1="288.9306" y1="421.2568" x2="288.9341" y2="372.9505"/><polygon class="cls-18" points="260.392 651.29 162.569 651.29 161.524 594.986 141.081 594.986 141.081 582.848 278.255 582.848 278.312 593.708 260.392 593.708 260.392 651.29"/><polygon class="cls-19" points="308.309 601.445 267.878 601.445 267.878 625.112 253.626 625.012 253.626 634.873 169.41 634.873 169.41 625.012 153.487 625.112 153.487 601.445 111.084 601.445 111.084 657.654 143.626 657.654 143.626 681.321 153.98 681.321 164.335 681.321 260.975 681.321 267.878 681.321 274.781 681.321 274.781 657.654 308.309 657.654 308.309 601.445"/></svg>