<svg id="Layer_1" data-name="Layer 1" xmlns="http://www.w3.org/2000/svg" viewBox="0 0 718.124 790.401"><defs><style>.cls-10,.cls-11,.cls-12,.cls-13{fill:none;stroke-linecap:round;stroke-linejoin:round}.cls-10,.cls-11,.cls-12{stroke-width:9.478px}.cls-9{fill:#221f1f}.cls-10{stroke:#221f1f}.cls-11{stroke:#e9262a}.cls-12{stroke:#babcbe}.cls-13{stroke:#6d6e71;stroke-width:14px}</style></defs><path d="M882.455-1066.349l1.614 1211.985a72.48 72.48 0 01-72.577 72.384H-386.13a72.48 72.48 0 01-72.577-72.384l-1.614-1221.216a72.481 72.481 0 0172.577-72.384H800.622c48.342-4.16 82.658 21.402 81.83 67.57" fill="#434343"/><rect x="-446.755" y="-1113.309" width="1323.295" height="1296.396" rx="51.041" transform="rotate(-90 214.892 -465.111)" fill="#4f4e51"/><path fill="#323031" d="M19.462 105.138h716.166v80.304H19.462z"/><path d="M58.583 140.993a4.722 4.722 0 11-4.721 4.722 4.72 4.72 0 014.721-4.722m0 21.132a4.722 4.722 0 11-4.721 4.718 4.717 4.717 0 014.721-4.718m0-43.114a4.72 4.72 0 11-4.721 4.719 4.717 4.717 0 014.721-4.719m71.469 21.982a4.722 4.722 0 11-4.721 4.722 4.72 4.72 0 014.721-4.722m0 21.132a4.722 4.722 0 11-4.721 4.718 4.717 4.717 0 014.721-4.718m0-43.114a4.72 4.72 0 11-4.721 4.719 4.717 4.717 0 014.721-4.719m71.468 21.982a4.722 4.722 0 11-4.72 4.722 4.72 4.72 0 014.72-4.722m0 21.132a4.722 4.722 0 11-4.72 4.718 4.717 4.717 0 014.72-4.718m0-43.114a4.72 4.72 0 11-4.72 4.719 4.717 4.717 0 014.72-4.718m71.47 21.981a4.722 4.722 0 11-4.72 4.722 4.72 4.72 0 014.72-4.722m0 21.132a4.722 4.722 0 11-4.72 4.718 4.717 4.717 0 014.72-4.718m0-43.114a4.72 4.72 0 11-4.72 4.719 4.717 4.717 0 014.72-4.719m71.468 21.982a4.722 4.722 0 11-4.72 4.722 4.72 4.72 0 014.72-4.722m0 21.132a4.722 4.722 0 11-4.72 4.718 4.717 4.717 0 014.72-4.718m0-43.114a4.72 4.72 0 11-4.72 4.719 4.717 4.717 0 014.72-4.719m71.469 21.982a4.722 4.722 0 11-4.72 4.722 4.72 4.72 0 014.72-4.722m0 21.132a4.722 4.722 0 11-4.72 4.718 4.717 4.717 0 014.72-4.718m0-43.114a4.72 4.72 0 11-4.72 4.719 4.717 4.717 0 014.72-4.719m71.469 21.982a4.722 4.722 0 11-4.72 4.722 4.72 4.72 0 014.72-4.722m0 21.132a4.722 4.722 0 11-4.72 4.718 4.717 4.717 0 014.72-4.718m0-43.114a4.72 4.72 0 11-4.72 4.719 4.717 4.717 0 014.72-4.719m71.468 21.982a4.722 4.722 0 11-4.719 4.722 4.72 4.72 0 014.72-4.722m-.001 21.132a4.722 4.722 0 11-4.719 4.718 4.717 4.717 0 014.72-4.718m-.001-43.114a4.72 4.72 0 11-4.719 4.719 4.717 4.717 0 014.72-4.719m71.468 21.982a4.722 4.722 0 11-4.718 4.722 4.72 4.72 0 014.718-4.722m0 21.132a4.722 4.722 0 11-4.718 4.718 4.717 4.717 0 014.718-4.718m0-43.114a4.72 4.72 0 11-4.718 4.719 4.717 4.717 0 014.718-4.719m71.469 21.982a4.722 4.722 0 11-4.718 4.722 4.72 4.72 0 014.718-4.722m0 21.132a4.722 4.722 0 11-4.718 4.718 4.717 4.717 0 014.718-4.718m0-43.114a4.72 4.72 0 11-4.718 4.719 4.717 4.717 0 014.718-4.719" fill="#6a5f27"/><path d="M369.746 44.949a7.789 7.789 0 013.03 3.196 10.107 10.107 0 011.087 4.765v1.843a10.087 10.087 0 01-1.087 4.772 7.767 7.767 0 01-3.05 3.19 8.945 8.945 0 01-4.526 1.128h-5.474V43.82h5.6a8.67 8.67 0 014.42 1.129zm2.441 7.934a8.94 8.94 0 00-.853-4.009 6.301 6.301 0 00-2.407-2.668 6.814 6.814 0 00-3.602-.942h-3.907v17.148h3.782a6.97 6.97 0 003.7-.963 6.375 6.375 0 002.434-2.694 8.946 8.946 0 00.853-4.002zm6.365 10.96V43.82h1.693v20.023zm20.966-4.078a7.65 7.65 0 01-10.911 3.218 7.456 7.456 0 01-2.753-3.225 11.37 11.37 0 01-.975-4.854v-2.145a11.427 11.427 0 01.968-4.855 7.452 7.452 0 012.74-3.224 7.366 7.366 0 014.075-1.134 7.206 7.206 0 016.85 4.352 11.518 11.518 0 01.96 4.861v2.145a11.565 11.565 0 01-.954 4.861zm-1.452-11.131a5.846 5.846 0 00-2.11-2.668 5.744 5.744 0 00-3.294-.936 5.643 5.643 0 00-3.246.936 5.913 5.913 0 00-2.11 2.675 10.442 10.442 0 00-.737 4.09v2.173a10.414 10.414 0 00.744 4.104 5.982 5.982 0 002.123 2.683 5.645 5.645 0 003.254.942 5.735 5.735 0 003.3-.935 5.798 5.798 0 002.09-2.674 10.798 10.798 0 00.717-4.12v-2.172a10.49 10.49 0 00-.731-4.098z" fill="#fff"/><path d="M53.861 73.115V53.688h286.992m78.492-.002h271.226v19.427" stroke="#fff" stroke-miterlimit="10" stroke-width="4.694" fill="none"/><path d="M350.556 693.113h.01v-118.04H64.276v106.944a183.118 183.118 0 00194.86 293.81l112.797-103.59a183.24 183.24 0 00-21.377-179.124zm-147.577 187.17c-46.036 0-83.355-32.95-83.355-73.596s37.32-73.596 83.355-73.596 83.354 32.95 83.354 73.596-37.319 73.596-83.354 73.596z" fill="#232d2f"/><path stroke-width="9.478" stroke-linecap="round" stroke-linejoin="round" stroke="#00aeef" fill="none" d="M223.224 639.764V453.576l-29.978.301v-40.836"/><path class="cls-9" d="M69.706 111.4h32.905v78.838H69.706z"/><path class="cls-10" d="M75.15 173.009v94.549l186.417 1.407-1.054 124.811"/><path class="cls-11" d="M86.158 146.048v107.933l189.095 1.407-1.054 138.388"/><path class="cls-12" d="M96.714 129.482v110.935l192.222 1.558-1.057 151.801"/><path class="cls-9" d="M30.019 112.826h32.905v78.838H30.019z"/><path class="cls-10" d="M35.464 174.436v150.548l130.416 1.407-.644 41.178"/><path class="cls-11" d="M46.471 147.475v163.932l133.096 1.407-.713 54.755"/><path class="cls-12" d="M57.028 130.908v166.935l136.218 1.404-1.054 94.529"/><path class="cls-13" d="M193.244 421.257l.004-48.307"/><text transform="translate(324.923 496.553)" font-size="37.912" fill="#010101" font-family="Verdana" letter-spacing=".001em">E4T OEM Miniature <tspan x="0" y="45.494">Optical Encoder</tspan></text><path stroke="#fff200" stroke-width="9.478" stroke-linecap="round" stroke-linejoin="round" fill="none" d="M175.411 639.764l.001-124.908h113.523l-.004-93.599"/><path stroke="#754c29" stroke-width="9.478" stroke-linecap="round" stroke-linejoin="round" fill="none" d="M202.475 639.764l.002-155.339h59.091l.002-71.384"/><path stroke="#f7941d" stroke-width="9.478" stroke-linecap="round" stroke-linejoin="round" fill="none" d="M250.237 639.764l-1.179-141.599h25.017l1.181-85.124"/><path class="cls-13" d="M261.567 421.257l.003-48.307m13.681 48.307l.004-48.307m13.676 48.307l.003-48.307"/><path fill="#bab6af" d="M260.392 651.29h-97.823l-1.045-56.304h-20.443v-12.138h137.174l.057 10.86h-17.92v57.582z"/><path fill="#e5e0d6" d="M308.309 601.445h-40.431v23.667l-14.252-.1v9.861H169.41v-9.861l-15.923.1v-23.667h-42.403v56.209h32.542v23.667h131.155v-23.667h33.528v-56.209z"/></svg>