<svg id="Layer_1" data-name="Layer 1" xmlns="http://www.w3.org/2000/svg" viewBox="0 0 705.408 326.825"><defs><clipPath id="clip-path"><path fill="none" d="M457.194 81.937v225.662l-128.876 43V124.937l128.876-43z"/></clipPath><style>.cls-10,.cls-11,.cls-18,.cls-9{fill:none}.cls-8{fill:#221f1f}.cls-9{stroke:#221f1f}.cls-10,.cls-11,.cls-18,.cls-9{stroke-linecap:round;stroke-linejoin:round}.cls-10,.cls-11,.cls-9{stroke-width:9.478px}.cls-10{stroke:#e9262a}.cls-11{stroke:#babcbe}.cls-18{stroke:#231f20}.cls-17{font-size:11.1055px;fill:#231f20;font-family:Helvetica}.cls-18{stroke-width:1.1172px}</style></defs><path d="M-1087.815-552.943l1211.985-1.614a72.481 72.481 0 0172.384 72.577V715.642a72.48 72.48 0 01-72.384 72.577l-1221.216 1.614a72.48 72.48 0 01-72.385-72.577V-471.11c-4.159-48.342 21.402-82.659 67.571-81.83" fill="#434343"/><rect x="-1148.225" y="-533.579" width="1323.295" height="1296.396" rx="51.041" transform="rotate(180 -486.577 114.62)" fill="#4f4e51"/><path fill="#323031" d="M83.672-406.117h80.304v716.166H83.672z"/><path d="M119.527 270.928a4.722 4.722 0 114.722 4.722 4.72 4.72 0 01-4.722-4.722m21.132 0a4.722 4.722 0 114.718 4.722 4.717 4.717 0 01-4.718-4.722m-43.114 0a4.72 4.72 0 114.719 4.722 4.717 4.717 0 01-4.719-4.722m21.982-71.468a4.722 4.722 0 114.722 4.721 4.72 4.72 0 01-4.722-4.721m21.132 0a4.722 4.722 0 114.718 4.721 4.717 4.717 0 01-4.718-4.721m-43.114 0a4.72 4.72 0 114.719 4.721 4.717 4.717 0 01-4.719-4.721m21.982-71.47a4.722 4.722 0 114.722 4.722 4.72 4.72 0 01-4.722-4.721m21.132-.001a4.722 4.722 0 114.718 4.722 4.717 4.717 0 01-4.718-4.721m-43.114-.001a4.72 4.72 0 114.719 4.722 4.717 4.717 0 01-4.719-4.721m21.982-71.469a4.722 4.722 0 114.722 4.72 4.72 4.72 0 01-4.722-4.72m21.132 0a4.722 4.722 0 114.718 4.72 4.717 4.717 0 01-4.718-4.72m-43.114 0a4.72 4.72 0 114.719 4.72 4.717 4.717 0 01-4.719-4.72" fill="#6a5f27"/><path d="M23.483 80.765a7.787 7.787 0 013.195-3.03 10.107 10.107 0 014.765-1.087h1.844a10.086 10.086 0 014.772 1.087 7.767 7.767 0 013.19 3.05 8.945 8.945 0 011.128 4.526v5.475H22.353v-5.6a8.67 8.67 0 011.13-4.42zm7.933-2.44a8.938 8.938 0 00-4.008.852 6.3 6.3 0 00-2.668 2.407 6.814 6.814 0 00-.943 3.602v3.907h17.15v-3.781a6.97 6.97 0 00-.964-3.7 6.373 6.373 0 00-2.695-2.434 8.945 8.945 0 00-4.001-.853zm10.961-6.365H22.353v-1.693h20.024zm-4.078-20.966a7.65 7.65 0 013.218 10.91 7.456 7.456 0 01-3.225 2.753 11.37 11.37 0 01-4.855.975h-2.144a11.427 11.427 0 01-4.855-.968 7.45 7.45 0 01-3.225-2.739 7.366 7.366 0 01-1.134-4.076A7.206 7.206 0 0126.431 51a11.52 11.52 0 014.862-.961h2.144a11.565 11.565 0 014.862.955zm-11.131 1.452a5.846 5.846 0 00-2.668 2.11 5.744 5.744 0 00-.936 3.293 5.644 5.644 0 00.936 3.247 5.915 5.915 0 002.675 2.109 10.442 10.442 0 004.09.738h2.173a10.413 10.413 0 004.104-.745 5.981 5.981 0 002.683-2.123 5.646 5.646 0 00.942-3.253 5.735 5.735 0 00-.935-3.3 5.798 5.798 0 00-2.674-2.09 10.796 10.796 0 00-4.12-.717h-2.172a10.49 10.49 0 00-4.098.731z" fill="#fff"/><path d="M51.649 275.651H32.222V109.658m-.002-79.491V-361.06h19.427" stroke="#fff" stroke-width="4.694" stroke-miterlimit="10" fill="none"/><path class="cls-8" d="M91.36 186.901h78.838v32.905H91.36z"/><path class="cls-9" d="M152.969 214.361l96.549-2 .407-20.416 57.811 1.053"/><path class="cls-10" d="M126.008 203.354l109.933-2 .407-23.095 71.388 1.053"/><path class="cls-11" d="M109.441 192.798l112.936-2 .558-26.222 113.801 1.057"/><path class="cls-8" d="M91.36 266.587h78.838v32.905H91.36z"/><path class="cls-9" d="M152.969 294.048l140.549-2 .407-38.417 15.177-.356"/><path class="cls-10" d="M126.008 283.04l153.933-2 .407-41.095 28.754-.288"/><path class="cls-11" d="M109.441 272.484l156.936-2 .404-44.218 68.529.053"/><text transform="translate(217.335 51.15)" font-size="32" fill="#010101" font-family="Verdana" letter-spacing=".001em">Greyhill 63R Optical Encoder</text><g clip-path="url(#clip-path)"><path class="cls-11" d="M458.298 226.288H395.11l.301-.022h-40.836"/><path stroke="#231f20" stroke-width="9.478" stroke-linejoin="round" stroke-linecap="round" fill="none" d="M460.298 152.101l-72.908-.001v42.477l-24.599.004"/><path class="cls-10" d="M458.298 207.909l-55.339-.001v-28.965l-48.384-.002"/><path class="cls-11" d="M460.298 189.275l-42.599.178v-24.016l-63.124-.182"/><path stroke="#6d6d6d" stroke-width="5" stroke-linecap="round" stroke-miterlimit="10" fill="none" d="M456.197 169.613h-11.924"/></g><path d="M362.791 226.267l-48.307-.003m48.307-32.847l-48.307-.003m48.307-13.773l-48.307-.003m48.307-14.057l-48.307-.004" stroke="#6d6e71" stroke-width="14" stroke-linecap="round" stroke-linejoin="round" fill="none"/><text class="cls-17" transform="rotate(90 188.62 308.99)"><tspan>63RXXX-XXX</tspan></text><path class="cls-18" d="M682.689 171.819v34.703m-5.523-40.213v40.213m-220.178 97.469h87.815m91.864-97.469v5.619m-24.057 18.316l.933-1.754m-4.151 6.028l.974-1.848.957-1.819.803-1.526m-2.733 5.193l2.733-5.193m-8.477 5.193l.971-1.848.958-1.819.805-1.526m-2.734 5.193l2.734-5.193m5.605-.261l-.931 1.787-.944 1.819-.962 1.848m2.837-5.454l-2.837 5.454m-2.906-5.454l-.929 1.787-.946 1.819-.964 1.848m2.839-5.454l-2.839 5.454m19.086-22.59v-45.832m-24.588 68.422l.973-1.848.958-1.819.803-1.526m-2.734 5.193l2.734-5.193m-8.477 5.193l.973-1.848.956-1.819.805-1.526m-2.734 5.193l2.734-5.193m5.607-.261l-.929 1.787-.946 1.819-.964 1.848m2.839-5.454l-2.839 5.454m-2.907-5.454l-.928 1.787-.946 1.819-.962 1.848m2.836-5.454l-2.837 5.454m21.735-85.241v79.213m-1.639-33.585l-.146-13.695-.076-6.69-.074-6.355-.074-5.862-.071-5.209-.074-4.427-.076-3.524-.074-2.53-.071-1.469-.052-.372"/><path class="cls-18" d="M612.015 195.118l-.591-45.762-.074-2.53-.071-1.469-.052-.372m1.383 85.472l-.074-1.377-.076-2.423-.074-3.41-.074-4.309-.074-5.108-.074-5.771-.076-6.293-.073-6.648"/><path class="cls-18" d="M612.61 230.457l-.074-1.377-.521-33.962m-11.397-51.798l.157.647.143 1.772.145 2.863.146 3.885.143 4.798.145 5.608.143 6.259.148 6.811.143 7.116"/><path class="cls-18" d="M600.618 143.32l.157.647.143 1.772.145 2.863.868 34.477m4.432-39.759l.15.614.146 1.738.143 2.823.143 3.847.145 4.753.144 5.568.145 6.215.145 6.739.146 7.056.143 7.248.145 7.201.144 7.032.145 6.634.143 6.122.146 5.409.143 4.586.145 3.657.146 2.64.143 1.529"/><path class="cls-18" d="M606.363 143.32l.15.614.146 1.738.143 2.823 1.877 78.41.145 3.657.146 2.64.143 1.529m-11.307-85.975l.074.274.149 1.362.153 2.403.147 3.381.15 4.266.152 5.042.148 5.677.15 6.159.15 6.485"/><path class="cls-18" d="M597.806 148.756l.074.274.149 1.362.153 2.403.897 31.01m-12.661 50.926l.971-1.848.958-1.819.803-1.526m-2.732 5.193l2.732-5.193m-8.477 5.193l.973-1.848.958-1.819.803-1.526m-2.734 5.193l2.734-5.193m5.606-.261l-.928 1.787-.947 1.819-.962 1.848m2.837-5.454l-2.836 5.454m-2.909-5.454l-.928 1.787-.945 1.819-.962 1.848m2.835-5.454l-2.835 5.454m21.498-51.652l.146 7.19.143 7.161.145 6.987.143 6.588.144 6.072.143 5.365.143 4.556.145 3.615.144 2.605.145 1.513"/><path class="cls-18" d="M601.931 183.079l1.007 43.919.145 3.615.144 2.605.145 1.513m-7.148-51.652l-.143-7.116-.146-6.811-.145-6.259-.143-5.608-.148-4.798-.143-3.885-.145-2.863-.144-1.772-.12-.616"/><path class="cls-18" d="M596.224 183.079l-.725-30.592-.143-3.885-.145-2.863-.144-1.772-.12-.616m4.132 40.454l.141 6.279.145 6.264.139 6.088.145 5.771.141 5.313.143 4.726.141 4.026.144 3.229.14 2.354.144 1.422"/><path class="cls-18" d="M599.079 183.805l.854 34.441.285 7.255.14 2.354.144 1.422m8.649 5.454l-.146-1.533-.145-2.665-.145-3.704-.146-4.604-.143-5.427-.145-6.135-.144-6.65-.147-7.04-.143-7.212-.146-7.282-.145-7.092-.146-6.706-.143-6.192-.143-5.552-.145-4.731-.144-3.816-.145-2.792-.146-1.707-.109-.54"/><path class="cls-18" d="M609.151 234.731l-.146-1.533-.145-2.665-1.881-78.327-.144-3.816-.145-2.792-.146-1.707-.109-.54m-3.029 91.38l-.144-1.529-.145-2.64-.145-3.657-.144-4.586-.145-5.409-.143-6.122-.146-6.634-.143-7.032-.145-7.201-.143-7.248-.146-7.056-.145-6.739-.143-6.215-.146-5.568-.143-4.753-.145-3.847-.144-2.823-.145-1.738-.114-.583"/><path class="cls-18" d="M603.406 234.731l-.144-1.529-.145-2.64-1.877-78.22-.145-3.847-.144-2.823-.145-1.738-.114-.583m-3.029 91.38l-.144-1.513-.143-2.605-.143-3.615-.145-4.556-.144-5.365-.145-6.072-.141-6.588-.145-6.987-.144-7.161-.145-7.19"/><path class="cls-18" d="M597.663 234.731l-.144-1.513-.143-2.605-1.152-47.534"/><path class="cls-18" d="M594.877 143.32l.148.607.145 1.743.143 2.818.146 3.838.143 4.747.145 5.556.144 6.217.145 6.796.148 7.147.143 7.226.145 7.183.144 7.019.145 6.625.143 6.106.146 5.4.143 4.601.147 3.662.144 2.605.143 1.515"/><path class="cls-18" d="M594.877 143.32l.148.607.145 1.743.143 2.818 1.88 78.461.147 3.662.144 2.605.143 1.515m-8.493-91.411l.137.52m-5.882-.52l.139.515m-35.043 105.068h.736m3.681-14.172l-.944.122-.898.373-.758.585-.584.761-.374.903-.123.956m61.988-93.446l-1.955 3.695m-34.324 86.051l.973-1.848.955-1.819.806-1.526m-2.734 5.193l2.734-5.193m-8.475 5.193l.971-1.848.955-1.819.803-1.526m-2.729 5.193l2.729-5.193m-8.474 5.193l.973-1.848.955-1.819.803-1.526m-2.731 5.193l2.731-5.193m11.35-.261l-.928 1.787-.947 1.819-.96 1.848m2.835-5.454l-2.835 5.454m-2.908-5.454l-.929 1.787-.946 1.819-.962 1.848m2.837-5.454l-2.837 5.454m-2.908-5.454l-.929 1.787-.946 1.819-.96 1.848m2.835-5.454l-2.835 5.454m21.769-38.144l.147 7.072.146 6.786.145 6.233.146 5.458.145 4.662.148 3.74.147 2.669.146 1.524"/><path class="cls-18" d="M584.971 196.587l.729 30.211.148 3.74.147 2.669.146 1.524m-8.352-90.84l.145 1.707.144 2.79.145 3.807.145 4.751.144 5.567.145 6.209.145 6.739.146 7.06.143 7.255.145 7.21.144 7.014.147 6.708.146 6.184.143 5.431.145 4.604.144 3.655.145 2.622.145 1.527"/><path class="cls-18" d="M577.789 143.891l.145 1.707.144 2.79 1.883 78.539.144 3.655.145 2.622.145 1.527m8.876-90.891l.145 1.649.143 2.729.143 3.803.15 4.782.143 5.579.148 6.194.146 6.811.147 7.197.146 7.306.143 7.195.145 7.022.143 6.632.146 6.117.143 5.414.145 4.626.146 3.693.148 2.629.143 1.513"/><path class="cls-18" d="M589.271 143.84l.145 1.649.143 2.729 1.888 78.678.146 3.693.148 2.629.143 1.513m-8.359-90.896l.146 1.647.143 2.723.145 3.758.146 4.733.145 5.547.143 6.168.146 6.708.143 7.032.289 14.436"/><path class="cls-18" d="M583.525 143.835l.146 1.647.143 2.723 1.157 48.382m6.949 38.144l-.146-1.515-.141-2.605-.148-3.662-.143-4.601-.145-5.4-.143-6.106-.144-6.625-.145-7.019-.143-7.183-.146-7.226-.145-7.147-.148-6.796-.143-6.217-.145-5.556-.143-4.747-.146-3.838-.143-2.818-.143-1.743-.117-.576"/><path class="cls-18" d="M591.92 234.731l-.146-1.515-.141-2.605-1.881-78.285-.146-3.838-.143-2.818-.143-1.743-.117-.576m-3.027 91.38l-.143-1.513-.147-2.629-.146-3.693-.143-4.626-.145-5.414-.144-6.117-.145-6.632-.143-7.022-.146-7.195-.145-7.306-.148-7.197-.145-6.811-.146-6.194-.145-5.579-.148-4.782-.145-3.803-.143-2.729-.146-1.649-.105-.489"/><path class="cls-18" d="M586.176 234.731l-.143-1.513-.147-2.629-1.889-78.568-.145-3.803-.143-2.729-.146-1.649-.105-.489m-11.558-.031l.148.593m5.598-.593l.143.571m-24.887 90.84h4.799m55.953-6.028h-.111m-7.213-85.352l-2.821 5.329m-2.922-5.329l-2.822 5.329m-40.064 86.051l.971-1.848.957-1.819.801-1.526m-2.729 5.193l2.729-5.193m-.134-.261l-.931 1.787-.946 1.819-.962 1.848m2.839-5.454l-2.839 5.454m21.806-38.144l-.286-14.436-.145-7.032-.144-6.708-.145-6.168-.145-5.547-.148-4.733-.143-3.758-.143-2.723-.146-1.647-.103-.484"/><path class="cls-18" d="M579.263 196.587l-1.013-44.624-.143-3.758-.143-2.723-.146-1.647-.103-.484m-5.667.562l.143 1.728.148 2.814.143 3.847.146 4.749.143 5.563.145 6.212.146 6.746.143 7.061.145 7.253.143 7.21.146 7.02.143 6.65.148 6.146.143 5.418.145 4.604.144 3.651.145 2.622.145 1.524"/><path class="cls-18" d="M572.048 143.913l.143 1.728.148 2.814 1.879 78.479.144 3.651.145 2.622.145 1.524m5.781 0l-.147-1.524-.146-2.669-.145-3.74-.148-4.662-.143-5.458-.148-6.233-.145-6.786-.148-7.072"/><path class="cls-18" d="M580.433 234.731l-.147-1.524-.146-2.669-.877-33.951m-4.573 38.144l-.145-1.527-.145-2.622-.146-3.655-.143-4.604-.148-5.431-.143-6.184-.148-6.708-.143-7.014-.145-7.21-.146-7.255-.143-7.06-.145-6.739-.143-6.209-.146-5.567-.145-4.751-.146-3.807-.143-2.79-.145-1.707-.11-.54"/><path class="cls-18" d="M574.69 234.731l-.145-1.527-.145-2.622-1.884-78.387-.146-3.807-.143-2.79-.145-1.707-.11-.54m-11.558-.031l.153.64.143 1.763.145 2.852.146 3.91.147 4.833.141 5.57.146 6.215.143 6.735.145 7.043.143 7.225.146 7.182.143 7.036.145 6.654.144 6.061.143 5.371.145 4.573.143 3.626.146 2.607.143 1.515"/><path class="cls-18" d="M560.414 143.32l.153.64.143 1.763.145 2.852 1.877 78.408.143 3.626.146 2.607.143 1.515m2.994-91.411l.147.598.146 1.732.143 2.822.147 3.87.144 4.78.145 5.55.143 6.215.146 6.746.143 7.058.143 7.25.148 7.204.143 7.038.145 6.643.143 6.108.146 5.409.143 4.597.148 3.647.143 2.62.145 1.524"/><path class="cls-18" d="M566.158 143.32l.147.598.146 1.732.143 2.822 1.879 78.468.148 3.647.143 2.62.145 1.524m25.932-91.38l-2.819 5.329m-2.924-5.329l-2.821 5.329m-2.922-5.329l-2.821 5.329"/><path class="cls-18" d="M568.945 234.731l-.143-1.524-.148-2.622-.143-3.651-.145-4.604-.144-5.418-.147-6.146-.143-6.65-.144-7.02-.145-7.21-.143-7.253-.146-7.061-.145-6.746-.145-6.212-.144-5.563-.145-4.749-.145-3.847-.144-2.814-.145-1.728-.114-.562"/><path class="cls-18" d="M568.945 234.731l-.143-1.524-.148-2.622-1.879-78.283-.145-3.847-.144-2.814-.145-1.728-.114-.562m-3.025 91.38l-.145-1.524-.146-2.62-.145-3.647-.143-4.597-.146-5.409-.143-6.108-.143-6.643-.146-7.038-.143-7.204-.147-7.25-.144-7.058-.145-6.746-.143-6.215-.146-5.55-.143-4.78-.145-3.87-.146-2.822-.145-1.732-.112-.567"/><path class="cls-18" d="M563.202 234.731l-.145-1.524-.146-2.62-1.877-78.245-.145-3.87-.146-2.822-.145-1.732-.112-.567m-2.886 5.405l.161.95.15 1.969.15 2.961.148 3.878.149 4.691.148 5.38.15 5.93.15 6.317.148 6.539.149 6.587.148 6.465.15 6.168.15 5.704.148 5.097.149 4.349.148 3.488.15 2.535.15 1.513"/><path class="cls-18" d="M557.6 148.756l.161.95.15 1.969.15 2.961 1.787 67.105.148 3.488.15 2.535.15 1.513m62.196-17.136h14.175m-14.545-1.286h.37m14.175-4.333h46.022m-83.608-22.717l2.852-.726m-24.323-39.728l-2.819 5.329m-2.924-5.329l-2.819 5.329m-16.146 86.051V143.32m-3.681-13.771v119.354m-.736-170.771v222.186m8.972-65.587l-.143-1.515-.146-2.607-.143-3.626-.143-4.573-.146-5.371-.141-6.061-.147-6.654-.143-7.036-.146-7.182-.143-7.225-.145-7.043-.144-6.735-.145-6.215-.141-5.57-.145-4.833-.148-3.91-.143-2.852-.146-1.763-.118-.609"/><path class="cls-18" d="M557.457 234.731l-.143-1.515-.146-2.607-1.872-78.124-.148-3.91-.143-2.852-.146-1.763-.118-.609m8.564 91.181l.103.199m-.244 0l-.971-1.848-.957-1.819-.94-1.787m2.868 5.454l-2.868-5.454m5.826-85.926l-2.817 5.329m-2.926-5.329l-2.819 5.329m-12.757-74.219v229.53m24.245-69.459l.103.199m5.64-.199l.101.196m-5.983.003l-.973-1.848-.957-1.819-.942-1.787m2.872 5.454l-2.872-5.454m8.615 5.454l-.973-1.848-.955-1.819-.942-1.787m2.87 5.454l-2.87-5.454m8.754 5.255l.103.199m5.64-.199l.103.199m5.643-.199l.098.199m-11.728 0l-.971-1.848-.957-1.819-.942-1.787m2.87 5.454l-2.87-5.454m8.616 5.454l-.974-1.848-.957-1.819-.942-1.787m2.873 5.454l-2.873-5.454m8.616 5.454l-.974-1.848-.955-1.819-.942-1.787m2.871 5.454l-2.871-5.454m7.213-46.198l2.855.726m23.041-16.21h.37m-59.149-18.839l.036.094.145 1.053.15 2.08.148 3.05.147 3.943.148 4.734.146 5.398.149 5.92.148 6.293.15 6.5.145 6.537.148 6.402.15 6.101.145 5.641.15 5.032.146 4.296.147 3.446.15 2.503.146 1.498"/><path class="cls-18" d="M563.343 148.756l.036.094.145 1.053.15 2.08.148 3.05 1.772 66.797.147 3.446.15 2.503.146 1.498m31.728 5.255l.103.196m5.641-.196l.102.196m-5.984.003l-.971-1.848-.958-1.819-.942-1.787m2.871 5.454l-2.871-5.454m8.616 5.454l-.973-1.848-.956-1.819-.941-1.787m2.87 5.454l-2.87-5.454M557.6 148.756l-2.859-5.405m67.751 22.958h54.674m-108.078-17.553l.034.094.148 1.053.147 2.08.148 3.05.147 3.943.148 4.734.148 5.398.147 5.92.15 6.293.146 6.5.147 6.537.15 6.402.148 6.101.148 5.641.147 5.032.146 4.296.15 3.446.147 2.503.148 1.498"/><path class="cls-18" d="M569.088 148.756l.034.094.148 1.053.147 2.08.148 3.05 1.772 66.797.15 3.446.147 2.503.148 1.498m3.049-80.521l.034.094.148 1.053.147 2.08.148 3.05.148 3.943.149 4.734.146 5.398.15 5.92.147 6.293.146 6.5.15 6.537.147 6.402.148 6.101.148 5.641.147 5.032.148 4.296.148 3.446.15 2.503.145 1.498"/><path class="cls-18" d="M574.831 148.756l.034.094.148 1.053.147 2.08.148 3.05 1.774 66.797.148 3.446.15 2.503.145 1.498m31.729 5.255l.103.196m3.253-4.271l-.622-1.18m-2.875 5.454l-.971-1.848-.955-1.819-.942-1.787m2.868 5.454l-2.868-5.454m-42.902-80.521l-2.857-5.405m8.602 5.405l-2.861-5.405m-13.325-.031h1.805m25.865 5.436l.036.094.148 1.053.15 2.08.145 3.05.15 3.943.147 4.734.146 5.398.15 5.92.147 6.293.148 6.5.148 6.537.15 6.402.145 6.101.148 5.641.15 5.032.145 4.296.15 3.446.148 2.503.145 1.498"/><path class="cls-18" d="M580.572 148.756l.036.094.148 1.053.15 2.08.145 3.05 1.774 66.797.15 3.446.148 2.503.145 1.498m3.049-80.521l.034.094.15 1.053.148 2.08.147 3.05.148 3.943.147 4.734.148 5.398.148 5.92.15 6.293.145 6.5.15 6.537.148 6.402.145 6.101.15 5.641.148 5.032.147 4.296.148 3.446.145 2.503.15 1.498"/><path class="cls-18" d="M586.317 148.756l.034.094.15 1.053.148 2.08.147 3.05 1.774 66.797.148 3.446.145 2.503.15 1.498m-14.182-80.521l-2.859-5.405m8.6 5.405l-2.857-5.405m8.602 5.405l-2.859-5.405m8.602 5.405l.036.094.148 1.053.15 2.08.145 3.05.148 3.943.15 4.734.145 5.398.15 5.92.146 6.293.149 6.5.148 6.537.148 6.402.147 6.101.148 5.641.148 5.032.147 4.296.148 3.446.148 2.503.147 1.498"/><path class="cls-18" d="M592.06 148.756l.036.094.148 1.053.15 2.08.145 3.05 1.774 66.797.148 3.446.148 2.503.147 1.498m8.793-80.521l.036.094.147 1.053.146 2.08.15 3.05.147 3.943.15 4.734.146 5.398.147 5.92.148 6.293.148 6.5.149 6.537.146 6.402.15 6.101.147 5.641.146 5.032.15 4.296.147 3.446.148 2.503.148 1.498"/><path class="cls-18" d="M603.549 148.756l.036.094.147 1.053.146 2.08.15 3.05 1.774 66.797.147 3.446.148 2.503.148 1.498m-14.185-80.521l-2.857-5.405m8.603 5.405l-2.859-5.405m-46.462-13.804h.736m-75.664-55.086v229.53m135.735-155.235l.036.094.147 1.053.148 2.08.148 3.05.15 3.943.145 4.734.148 5.398.149 5.92.146 6.293.15 6.5.147 6.537.146 6.402.15 6.101.147 5.641.148 5.032.148 4.296.15 3.446.145 2.503.148 1.498"/><path class="cls-18" d="M609.292 148.756l.036.094.147 1.053.148 2.08.148 3.05 1.774 66.797.15 3.446.145 2.503.148 1.498m-8.439-80.521l-2.857-5.405m8.6 5.405l-2.857-5.405m7.219 6.137l-2.427-4.503M456.988 74.461v229.53m220.178-137.682l5.523 5.51M456.988 74.461h87.815m68.851 143.225h3.681m-3.681-56.922h3.681m0 54.682h4.787m-4.787-52.444h4.787m-4.787-2.238v56.922m4.787-2.24v-52.444m-73.637-84.87a3.678 3.678 0 00-3.682-3.671m0 229.53a3.68 3.68 0 003.682-3.673m.736-160.671a3.676 3.676 0 003.68 3.673m-37.328 91.742a9.194 9.194 0 009.204-9.181m-9.204 9.181h-17.106m-9.204-9.181a9.193 9.193 0 009.204 9.18m-9.204-114.345v105.165m35.514-105.165v105.165m0-105.165a9.194 9.194 0 00-9.204-9.182m0 0h-17.106m0 0a9.193 9.193 0 00-9.204 9.182m-32.275 20.767v95.484"/><text class="cls-17" transform="rotate(90 194.833 315.203)">GRAYHILL XXXX X-X</text></svg>