<?xml version="1.0" encoding="UTF-8" standalone="no"?>
<svg
   id="Layer_1"
   data-name="Layer 1"
   viewBox="0 0 508.11601 321.71201"
   version="1.1"
   sodipodi:docname="greyhill-63r-encoder-to-roborio.svg"
   width="508.116"
   height="321.71201"
   inkscape:version="1.2.2 (b0a84865, 2022-12-01)"
   xmlns:inkscape="http://www.inkscape.org/namespaces/inkscape"
   xmlns:sodipodi="http://sodipodi.sourceforge.net/DTD/sodipodi-0.dtd"
   xmlns="http://www.w3.org/2000/svg"
   xmlns:svg="http://www.w3.org/2000/svg">
  <sodipodi:namedview
     id="namedview1064"
     pagecolor="#ffffff"
     bordercolor="#000000"
     borderopacity="0.25"
     inkscape:showpageshadow="2"
     inkscape:pageopacity="0.0"
     inkscape:pagecheckerboard="0"
     inkscape:deskcolor="#d1d1d1"
     showgrid="false"
     showguides="true"
     inkscape:lockguides="false"
     inkscape:zoom="1.2846937"
     inkscape:cx="296.95795"
     inkscape:cy="142.05721"
     inkscape:window-width="1680"
     inkscape:window-height="997"
     inkscape:window-x="0"
     inkscape:window-y="25"
     inkscape:window-maximized="1"
     inkscape:current-layer="Layer_1" />
  <defs
     id="defs555">
    <style
       id="style550">.cls-1,.cls-10,.cls-11,.cls-14,.cls-15,.cls-16,.cls-18,.cls-7,.cls-9{fill:none;}.cls-2{fill:#434343;}.cls-3{fill:#4f4e51;}.cls-4{fill:#323031;}.cls-5{fill:#6a5f27;}.cls-6{fill:#fff;}.cls-7{stroke:#fff;stroke-width:4.6939px;}.cls-15,.cls-7{stroke-miterlimit:10;}.cls-8{fill:#221f1f;}.cls-9{stroke:#221f1f;}.cls-10,.cls-11,.cls-14,.cls-15,.cls-16,.cls-18,.cls-9{stroke-linecap:round;}.cls-10,.cls-11,.cls-14,.cls-16,.cls-18,.cls-9{stroke-linejoin:round;}.cls-10,.cls-11,.cls-14,.cls-9{stroke-width:9.478px;}.cls-10{stroke:#e9262a;}.cls-11{stroke:#babcbe;}.cls-12{font-size:32px;fill:#010101;font-family:Verdana;letter-spacing:0.001em;}.cls-13{clip-path:url(#clip-path);}.cls-14,.cls-18{stroke:#231f20;}.cls-15{stroke:#6d6d6d;stroke-width:5px;}.cls-16{stroke:#6d6e71;stroke-width:14px;}.cls-17{font-size:11.1055px;fill:#231f20;font-family:Helvetica;}.cls-18{stroke-width:1.1172px;}</style>
    <clipPath
       id="clip-path">
      <polygon
         class="cls-1"
         points="457.194,307.599 328.318,350.599 328.318,124.937 457.194,81.937 "
         id="polygon552" />
    </clipPath>
  </defs>
  <text
     class="cls-12"
     id="text613"
     x="20.203259"
     y="46.312496">Grayhill 63R Optical Encoder</text>
  <g
     class="cls-13"
     clip-path="url(#clip-path)"
     id="g625"
     style="display:inline"
     transform="translate(-197.13224,-4.8379031)">
    <line
       class="cls-15"
       x1="456.19711"
       y1="169.6129"
       x2="444.27328"
       y2="169.6129"
       id="line623" />
    <line
       class="cls-15"
       x1="456.19711"
       y1="169.6129"
       x2="444.27328"
       y2="169.6129"
       id="line1444" />
    <line
       class="cls-15"
       x1="455.91019"
       y1="152.10086"
       x2="443.98636"
       y2="152.10086"
       id="line1417"
       style="display:inline" />
    <line
       class="cls-15"
       x1="455.91019"
       y1="189.22615"
       x2="443.98636"
       y2="189.22615"
       id="line1419"
       style="display:inline" />
    <line
       class="cls-15"
       x1="455.91019"
       y1="208.093"
       x2="443.98636"
       y2="208.093"
       id="line1421"
       style="display:inline" />
    <line
       class="cls-15"
       x1="455.91019"
       y1="226.27699"
       x2="443.98636"
       y2="226.27699"
       id="line1423"
       style="display:inline" />
  </g>
  <text
     class="cls-17"
     transform="rotate(90)"
     id="text637"
     x="115.5318"
     y="-300.47824"><tspan
       xml:space="preserve"
       id="tspan635">   63RXXX-XXX</tspan></text>
  <line
     class="cls-18"
     x1="485.55725"
     y1="166.98099"
     x2="485.55725"
     y2="201.68379"
     id="line639" />
  <line
     class="cls-18"
     x1="480.03345"
     y1="161.4713"
     x2="480.03345"
     y2="201.68379"
     id="line641" />
  <line
     class="cls-18"
     x1="259.85608"
     y1="299.15341"
     x2="347.67065"
     y2="299.15341"
     id="line643" />
  <line
     class="cls-18"
     x1="439.53461"
     y1="201.68379"
     x2="439.53461"
     y2="207.30289"
     id="line645" />
  <line
     class="cls-18"
     x1="415.47742"
     y1="225.6194"
     x2="416.41034"
     y2="223.86539"
     id="line647" />
  <polyline
     class="cls-18"
     points="609.392 234.731 610.366 232.883 611.323 231.064 612.126 229.538"
     id="polyline649"
     transform="translate(-197.13224,-4.8379031)" />
  <line
     class="cls-18"
     x1="412.26025"
     y1="229.8929"
     x2="414.99414"
     y2="224.7"
     id="line651" />
  <polyline
     class="cls-18"
     points="603.649 234.731 604.62 232.883 605.578 231.064 606.383 229.538"
     id="polyline653"
     transform="translate(-197.13224,-4.8379031)" />
  <line
     class="cls-18"
     x1="406.51721"
     y1="229.8929"
     x2="409.25116"
     y2="224.7"
     id="line655" />
  <polyline
     class="cls-18"
     points="611.988 229.277 611.057 231.064 610.113 232.883 609.151 234.731"
     id="polyline657"
     transform="translate(-197.13224,-4.8379031)" />
  <line
     class="cls-18"
     x1="414.85541"
     y1="224.43889"
     x2="412.01862"
     y2="229.8929"
     id="line659" />
  <polyline
     class="cls-18"
     points="606.245 229.277 605.316 231.064 604.37 232.883 603.406 234.731"
     id="polyline661"
     transform="translate(-197.13224,-4.8379031)" />
  <line
     class="cls-18"
     x1="409.11243"
     y1="224.43889"
     x2="406.27332"
     y2="229.8929"
     id="line663" />
  <line
     class="cls-18"
     x1="425.35931"
     y1="207.30289"
     x2="425.35931"
     y2="161.4713"
     id="line665" />
  <polyline
     class="cls-18"
     points="597.904 234.731 598.877 232.883 599.835 231.064 600.638 229.538"
     id="polyline667"
     transform="translate(-197.13224,-4.8379031)" />
  <line
     class="cls-18"
     x1="400.77191"
     y1="229.8929"
     x2="403.50586"
     y2="224.7"
     id="line669" />
  <polyline
     class="cls-18"
     points="592.161 234.731 593.134 232.883 594.09 231.064 594.895 229.538"
     id="polyline671"
     transform="translate(-197.13224,-4.8379031)" />
  <line
     class="cls-18"
     x1="395.02881"
     y1="229.8929"
     x2="397.76282"
     y2="224.7"
     id="line673" />
  <polyline
     class="cls-18"
     points="600.502 229.277 599.573 231.064 598.627 232.883 597.663 234.731"
     id="polyline675"
     transform="translate(-197.13224,-4.8379031)" />
  <line
     class="cls-18"
     x1="403.36932"
     y1="224.43889"
     x2="400.53033"
     y2="229.8929"
     id="line677" />
  <polyline
     class="cls-18"
     points="594.756 229.277 593.828 231.064 592.882 232.883 591.92 234.731"
     id="polyline679"
     transform="translate(-197.13224,-4.8379031)" />
  <line
     class="cls-18"
     x1="397.62415"
     y1="224.43889"
     x2="394.78723"
     y2="229.8929"
     id="line681" />
  <line
     class="cls-18"
     x1="416.52216"
     y1="144.65219"
     x2="416.52216"
     y2="223.86539"
     id="line683" />
  <polyline
     class="cls-18"
     points="612.015 195.118 611.869 181.423 611.793 174.733 611.719 168.378 611.645 162.516 611.574 157.307 611.5 152.88 611.424 149.356 611.35 146.826 611.279 145.357 611.227 144.985"
     id="polyline685"
     transform="translate(-197.13224,-4.8379031)" />
  <polyline
     class="cls-18"
     points="612.015 195.118 611.424 149.356 611.35 146.826 611.279 145.357 611.227 144.985"
     id="polyline687"
     transform="translate(-197.13224,-4.8379031)" />
  <polyline
     class="cls-18"
     points="612.61 230.457 612.536 229.08 612.46 226.657 612.386 223.247 612.312 218.938 612.238 213.83 612.164 208.059 612.088 201.766 612.015 195.118"
     id="polyline689"
     transform="translate(-197.13224,-4.8379031)" />
  <polyline
     class="cls-18"
     points="612.61 230.457 612.536 229.08 612.015 195.118"
     id="polyline691"
     transform="translate(-197.13224,-4.8379031)" />
  <polyline
     class="cls-18"
     points="600.618 143.32 600.775 143.967 600.918 145.739 601.063 148.602 601.209 152.487 601.352 157.285 601.497 162.893 601.64 169.152 601.788 175.963 601.931 183.079"
     id="polyline693"
     transform="translate(-197.13224,-4.8379031)" />
  <polyline
     class="cls-18"
     points="600.618 143.32 600.775 143.967 600.918 145.739 601.063 148.602 601.931 183.079"
     id="polyline695"
     transform="translate(-197.13224,-4.8379031)" />
  <polyline
     class="cls-18"
     points="606.363 143.32 606.513 143.934 606.659 145.672 606.802 148.495 606.945 152.342 607.09 157.095 607.234 162.663 607.379 168.878 607.524 175.617 607.67 182.673 607.813 189.921 607.958 197.122 608.102 204.154 608.247 210.788 608.39 216.91 608.536 222.319 608.679 226.905 608.824 230.562 608.97 233.202 609.113 234.731"
     id="polyline697"
     transform="translate(-197.13224,-4.8379031)" />
  <polyline
     class="cls-18"
     points="606.363 143.32 606.513 143.934 606.659 145.672 606.802 148.495 608.679 226.905 608.824 230.562 608.97 233.202 609.113 234.731"
     id="polyline699"
     transform="translate(-197.13224,-4.8379031)" />
  <polyline
     class="cls-18"
     points="597.806 148.756 597.88 149.03 598.029 150.392 598.182 152.795 598.329 156.176 598.479 160.442 598.631 165.484 598.779 171.161 598.929 177.32 599.079 183.805"
     id="polyline701"
     transform="translate(-197.13224,-4.8379031)" />
  <polyline
     class="cls-18"
     points="597.806 148.756 597.88 149.03 598.029 150.392 598.182 152.795 599.079 183.805"
     id="polyline703"
     transform="translate(-197.13224,-4.8379031)" />
  <polyline
     class="cls-18"
     points="586.418 234.731 587.389 232.883 588.347 231.064 589.15 229.538"
     id="polyline705"
     transform="translate(-197.13224,-4.8379031)" />
  <line
     class="cls-18"
     x1="389.28583"
     y1="229.8929"
     x2="392.01752"
     y2="224.7"
     id="line707" />
  <polyline
     class="cls-18"
     points="580.673 234.731 581.646 232.883 582.604 231.064 583.407 229.538"
     id="polyline709"
     transform="translate(-197.13224,-4.8379031)" />
  <line
     class="cls-18"
     x1="383.54053"
     y1="229.8929"
     x2="386.27441"
     y2="224.7"
     id="line711" />
  <polyline
     class="cls-18"
     points="589.013 229.277 588.085 231.064 587.138 232.883 586.176 234.731"
     id="polyline713"
     transform="translate(-197.13224,-4.8379031)" />
  <line
     class="cls-18"
     x1="391.88104"
     y1="224.43889"
     x2="389.04425"
     y2="229.8929"
     id="line715" />
  <polyline
     class="cls-18"
     points="583.268 229.277 582.34 231.064 581.395 232.883 580.433 234.731"
     id="polyline717"
     transform="translate(-197.13224,-4.8379031)" />
  <line
     class="cls-18"
     x1="386.13574"
     y1="224.43889"
     x2="383.30115"
     y2="229.8929"
     id="line719" />
  <polyline
     class="cls-18"
     points="601.931 183.079 602.077 190.269 602.22 197.43 602.365 204.417 602.508 211.005 602.652 217.077 602.795 222.442 602.938 226.998 603.083 230.613 603.227 233.218 603.372 234.731"
     id="polyline721"
     transform="translate(-197.13224,-4.8379031)" />
  <polyline
     class="cls-18"
     points="601.931 183.079 602.938 226.998 603.083 230.613 603.227 233.218 603.372 234.731"
     id="polyline723"
     transform="translate(-197.13224,-4.8379031)" />
  <polyline
     class="cls-18"
     points="596.224 183.079 596.081 175.963 595.935 169.152 595.79 162.893 595.647 157.285 595.499 152.487 595.356 148.602 595.211 145.739 595.067 143.967 594.947 143.351"
     id="polyline725"
     transform="translate(-197.13224,-4.8379031)" />
  <polyline
     class="cls-18"
     points="596.224 183.079 595.499 152.487 595.356 148.602 595.211 145.739 595.067 143.967 594.947 143.351"
     id="polyline727"
     transform="translate(-197.13224,-4.8379031)" />
  <polyline
     class="cls-18"
     points="599.079 183.805 599.22 190.084 599.365 196.348 599.504 202.436 599.649 208.207 599.79 213.52 599.933 218.246 600.074 222.272 600.218 225.501 600.358 227.855 600.502 229.277"
     id="polyline729"
     transform="translate(-197.13224,-4.8379031)" />
  <polyline
     class="cls-18"
     points="599.079 183.805 599.933 218.246 600.218 225.501 600.358 227.855 600.502 229.277"
     id="polyline731"
     transform="translate(-197.13224,-4.8379031)" />
  <polyline
     class="cls-18"
     points="609.151 234.731 609.005 233.198 608.86 230.533 608.715 226.829 608.569 222.225 608.426 216.798 608.281 210.663 608.137 204.013 607.99 196.973 607.847 189.761 607.701 182.479 607.556 175.387 607.41 168.681 607.267 162.489 607.124 156.937 606.979 152.206 606.835 148.39 606.69 145.598 606.544 143.891 606.435 143.351"
     id="polyline733"
     transform="translate(-197.13224,-4.8379031)" />
  <polyline
     class="cls-18"
     points="609.151 234.731 609.005 233.198 608.86 230.533 606.979 152.206 606.835 148.39 606.69 145.598 606.544 143.891 606.435 143.351"
     id="polyline735"
     transform="translate(-197.13224,-4.8379031)" />
  <polyline
     class="cls-18"
     points="603.406 234.731 603.262 233.202 603.117 230.562 602.972 226.905 602.828 222.319 602.683 216.91 602.54 210.788 602.394 204.154 602.251 197.122 602.106 189.921 601.963 182.673 601.817 175.617 601.672 168.878 601.529 162.663 601.383 157.095 601.24 152.342 601.095 148.495 600.951 145.672 600.806 143.934 600.692 143.351"
     id="polyline737"
     transform="translate(-197.13224,-4.8379031)" />
  <polyline
     class="cls-18"
     points="603.406 234.731 603.262 233.202 603.117 230.562 601.24 152.342 601.095 148.495 600.951 145.672 600.806 143.934 600.692 143.351"
     id="polyline739"
     transform="translate(-197.13224,-4.8379031)" />
  <polyline
     class="cls-18"
     points="597.663 234.731 597.519 233.218 597.376 230.613 597.233 226.998 597.088 222.442 596.944 217.077 596.799 211.005 596.658 204.417 596.513 197.43 596.369 190.269 596.224 183.079"
     id="polyline741"
     transform="translate(-197.13224,-4.8379031)" />
  <polyline
     class="cls-18"
     points="597.663 234.731 597.519 233.218 597.376 230.613 596.224 183.079"
     id="polyline743"
     transform="translate(-197.13224,-4.8379031)" />
  <polyline
     class="cls-18"
     points="594.877 143.32 595.025 143.927 595.17 145.67 595.313 148.488 595.459 152.326 595.602 157.073 595.747 162.629 595.891 168.846 596.036 175.642 596.184 182.789 596.327 190.015 596.472 197.198 596.616 204.217 596.761 210.842 596.904 216.948 597.05 222.348 597.193 226.949 597.34 230.611 597.484 233.216 597.627 234.731"
     id="polyline745"
     transform="translate(-197.13224,-4.8379031)" />
  <polyline
     class="cls-18"
     points="594.877 143.32 595.025 143.927 595.17 145.67 595.313 148.488 597.193 226.949 597.34 230.611 597.484 233.216 597.627 234.731"
     id="polyline747"
     transform="translate(-197.13224,-4.8379031)" />
  <line
     class="cls-18"
     x1="392.00183"
     y1="138.4819"
     x2="392.13837"
     y2="139.00189"
     id="line749" />
  <line
     class="cls-18"
     x1="386.25653"
     y1="138.4819"
     x2="386.39532"
     y2="138.99739"
     id="line751" />
  <line
     class="cls-18"
     x1="351.35315"
     y1="244.0654"
     x2="352.08923"
     y2="244.0654"
     id="line753" />
  <polyline
     class="cls-18"
     points="552.902 234.731 551.958 234.853 551.06 235.226 550.302 235.811 549.718 236.572 549.344 237.475 549.221 238.431"
     id="polyline755"
     transform="translate(-197.13224,-4.8379031)" />
  <line
     class="cls-18"
     x1="414.07684"
     y1="140.14671"
     x2="412.12152"
     y2="143.84209"
     id="line757" />
  <polyline
     class="cls-18"
     points="574.93 234.731 575.903 232.883 576.858 231.064 577.664 229.538"
     id="polyline759"
     transform="translate(-197.13224,-4.8379031)" />
  <line
     class="cls-18"
     x1="377.79755"
     y1="229.8929"
     x2="380.53143"
     y2="224.7"
     id="line761" />
  <polyline
     class="cls-18"
     points="569.189 234.731 570.16 232.883 571.115 231.064 571.918 229.538"
     id="polyline763"
     transform="translate(-197.13224,-4.8379031)" />
  <line
     class="cls-18"
     x1="372.05676"
     y1="229.8929"
     x2="374.78613"
     y2="224.7"
     id="line765" />
  <polyline
     class="cls-18"
     points="563.444 234.731 564.417 232.883 565.372 231.064 566.175 229.538"
     id="polyline767"
     transform="translate(-197.13224,-4.8379031)" />
  <line
     class="cls-18"
     x1="366.31146"
     y1="229.8929"
     x2="369.04315"
     y2="224.7"
     id="line769" />
  <polyline
     class="cls-18"
     points="577.525 229.277 576.597 231.064 575.65 232.883 574.69 234.731"
     id="polyline771"
     transform="translate(-197.13224,-4.8379031)" />
  <line
     class="cls-18"
     x1="380.39276"
     y1="224.43889"
     x2="377.55817"
     y2="229.8929"
     id="line773" />
  <polyline
     class="cls-18"
     points="571.782 229.277 570.853 231.064 569.907 232.883 568.945 234.731"
     id="polyline775"
     transform="translate(-197.13224,-4.8379031)" />
  <line
     class="cls-18"
     x1="374.64972"
     y1="224.43889"
     x2="371.81287"
     y2="229.8929"
     id="line777" />
  <polyline
     class="cls-18"
     points="566.037 229.277 565.108 231.064 564.162 232.883 563.202 234.731"
     id="polyline779"
     transform="translate(-197.13224,-4.8379031)" />
  <line
     class="cls-18"
     x1="368.90442"
     y1="224.43889"
     x2="366.06982"
     y2="229.8929"
     id="line781" />
  <polyline
     class="cls-18"
     points="584.971 196.587 585.118 203.659 585.264 210.445 585.409 216.678 585.555 222.136 585.7 226.798 585.848 230.538 585.995 233.207 586.141 234.731"
     id="polyline783"
     transform="translate(-197.13224,-4.8379031)" />
  <polyline
     class="cls-18"
     points="584.971 196.587 585.7 226.798 585.848 230.538 585.995 233.207 586.141 234.731"
     id="polyline785"
     transform="translate(-197.13224,-4.8379031)" />
  <polyline
     class="cls-18"
     points="577.789 143.891 577.934 145.598 578.078 148.388 578.223 152.195 578.368 156.946 578.512 162.513 578.657 168.722 578.802 175.461 578.948 182.521 579.091 189.776 579.236 196.986 579.38 204 579.527 210.708 579.673 216.892 579.816 222.323 579.961 226.927 580.105 230.582 580.25 233.204 580.395 234.731"
     id="polyline787"
     transform="translate(-197.13224,-4.8379031)" />
  <polyline
     class="cls-18"
     points="577.789 143.891 577.934 145.598 578.078 148.388 579.961 226.927 580.105 230.582 580.25 233.204 580.395 234.731"
     id="polyline789"
     transform="translate(-197.13224,-4.8379031)" />
  <polyline
     class="cls-18"
     points="589.271 143.84 589.416 145.489 589.559 148.218 589.702 152.021 589.852 156.803 589.995 162.382 590.143 168.576 590.289 175.387 590.436 182.584 590.582 189.89 590.725 197.085 590.87 204.107 591.013 210.739 591.159 216.856 591.302 222.27 591.447 226.896 591.593 230.589 591.741 233.218 591.884 234.731"
     id="polyline791"
     transform="translate(-197.13224,-4.8379031)" />
  <polyline
     class="cls-18"
     points="589.271 143.84 589.416 145.489 589.559 148.218 591.447 226.896 591.593 230.589 591.741 233.218 591.884 234.731"
     id="polyline793"
     transform="translate(-197.13224,-4.8379031)" />
  <polyline
     class="cls-18"
     points="583.525 143.835 583.671 145.482 583.814 148.205 583.959 151.963 584.105 156.696 584.25 162.243 584.393 168.411 584.539 175.119 584.682 182.151 584.971 196.587"
     id="polyline795"
     transform="translate(-197.13224,-4.8379031)" />
  <polyline
     class="cls-18"
     points="583.525 143.835 583.671 145.482 583.814 148.205 584.971 196.587"
     id="polyline797"
     transform="translate(-197.13224,-4.8379031)" />
  <polyline
     class="cls-18"
     points="591.92 234.731 591.774 233.216 591.633 230.611 591.485 226.949 591.342 222.348 591.197 216.948 591.054 210.842 590.91 204.217 590.765 197.198 590.622 190.015 590.476 182.789 590.331 175.642 590.183 168.846 590.04 162.629 589.895 157.073 589.752 152.326 589.606 148.488 589.463 145.67 589.32 143.927 589.203 143.351"
     id="polyline799"
     transform="translate(-197.13224,-4.8379031)" />
  <polyline
     class="cls-18"
     points="591.92 234.731 591.774 233.216 591.633 230.611 589.752 152.326 589.606 148.488 589.463 145.67 589.32 143.927 589.203 143.351"
     id="polyline801"
     transform="translate(-197.13224,-4.8379031)" />
  <polyline
     class="cls-18"
     points="586.176 234.731 586.033 233.218 585.886 230.589 585.74 226.896 585.597 222.27 585.452 216.856 585.308 210.739 585.163 204.107 585.02 197.085 584.874 189.89 584.729 182.584 584.581 175.387 584.436 168.576 584.29 162.382 584.145 156.803 583.997 152.021 583.852 148.218 583.709 145.489 583.563 143.84 583.458 143.351"
     id="polyline803"
     transform="translate(-197.13224,-4.8379031)" />
  <polyline
     class="cls-18"
     points="586.176 234.731 586.033 233.218 585.886 230.589 583.997 152.021 583.852 148.218 583.709 145.489 583.563 143.84 583.458 143.351"
     id="polyline805"
     transform="translate(-197.13224,-4.8379031)" />
  <line
     class="cls-18"
     x1="374.76825"
     y1="138.4819"
     x2="374.91595"
     y2="139.0755"
     id="line807" />
  <line
     class="cls-18"
     x1="380.51355"
     y1="138.4819"
     x2="380.65674"
     y2="139.05319"
     id="line809" />
  <line
     class="cls-18"
     x1="355.76953"
     y1="229.8929"
     x2="360.56842"
     y2="229.8929"
     id="line811" />
  <line
     class="cls-18"
     x1="416.52216"
     y1="223.86539"
     x2="416.41034"
     y2="223.86539"
     id="line813" />
  <line
     class="cls-18"
     x1="409.19733"
     y1="138.5132"
     x2="406.37622"
     y2="143.84209"
     id="line815" />
  <line
     class="cls-18"
     x1="403.45435"
     y1="138.5132"
     x2="400.63324"
     y2="143.84209"
     id="line817" />
  <polyline
     class="cls-18"
     points="557.701 234.731 558.672 232.883 559.629 231.064 560.43 229.538"
     id="polyline819"
     transform="translate(-197.13224,-4.8379031)" />
  <line
     class="cls-18"
     x1="360.56842"
     y1="229.8929"
     x2="363.29785"
     y2="224.7"
     id="line821" />
  <polyline
     class="cls-18"
     points="560.296 229.277 559.365 231.064 558.419 232.883 557.457 234.731"
     id="polyline823"
     transform="translate(-197.13224,-4.8379031)" />
  <line
     class="cls-18"
     x1="363.16364"
     y1="224.43889"
     x2="360.32452"
     y2="229.8929"
     id="line825" />
  <polyline
     class="cls-18"
     points="579.263 196.587 578.977 182.151 578.832 175.119 578.688 168.411 578.543 162.243 578.398 156.696 578.25 151.963 578.107 148.205 577.964 145.482 577.818 143.835 577.715 143.351"
     id="polyline827"
     transform="translate(-197.13224,-4.8379031)" />
  <polyline
     class="cls-18"
     points="579.263 196.587 578.25 151.963 578.107 148.205 577.964 145.482 577.818 143.835 577.715 143.351"
     id="polyline829"
     transform="translate(-197.13224,-4.8379031)" />
  <polyline
     class="cls-18"
     points="572.048 143.913 572.191 145.641 572.339 148.455 572.482 152.302 572.628 157.051 572.771 162.614 572.916 168.826 573.062 175.572 573.205 182.633 573.35 189.886 573.493 197.096 573.639 204.116 573.782 210.766 573.93 216.912 574.073 222.33 574.218 226.934 574.362 230.585 574.507 233.207 574.652 234.731"
     id="polyline831"
     transform="translate(-197.13224,-4.8379031)" />
  <polyline
     class="cls-18"
     points="572.048 143.913 572.191 145.641 572.339 148.455 574.218 226.934 574.362 230.585 574.507 233.207 574.652 234.731"
     id="polyline833"
     transform="translate(-197.13224,-4.8379031)" />
  <polyline
     class="cls-18"
     points="580.433 234.731 580.286 233.207 580.14 230.538 579.995 226.798 579.847 222.136 579.704 216.678 579.556 210.445 579.411 203.659 579.263 196.587"
     id="polyline835"
     transform="translate(-197.13224,-4.8379031)" />
  <polyline
     class="cls-18"
     points="580.433 234.731 580.286 233.207 580.14 230.538 579.263 196.587"
     id="polyline837"
     transform="translate(-197.13224,-4.8379031)" />
  <polyline
     class="cls-18"
     points="574.69 234.731 574.545 233.204 574.4 230.582 574.254 226.927 574.111 222.323 573.963 216.892 573.82 210.708 573.672 204 573.529 196.986 573.384 189.776 573.238 182.521 573.095 175.461 572.95 168.722 572.807 162.513 572.661 156.946 572.516 152.195 572.37 148.388 572.227 145.598 572.082 143.891 571.972 143.351"
     id="polyline839"
     transform="translate(-197.13224,-4.8379031)" />
  <polyline
     class="cls-18"
     points="574.69 234.731 574.545 233.204 574.4 230.582 572.516 152.195 572.37 148.388 572.227 145.598 572.082 143.891 571.972 143.351"
     id="polyline841"
     transform="translate(-197.13224,-4.8379031)" />
  <polyline
     class="cls-18"
     points="560.414 143.32 560.567 143.96 560.71 145.723 560.855 148.575 561.001 152.485 561.148 157.318 561.289 162.888 561.435 169.103 561.578 175.838 561.723 182.881 561.866 190.106 562.012 197.288 562.155 204.324 562.3 210.978 562.444 217.039 562.587 222.41 562.732 226.983 562.875 230.609 563.021 233.216 563.164 234.731"
     id="polyline843"
     transform="translate(-197.13224,-4.8379031)" />
  <polyline
     class="cls-18"
     points="560.414 143.32 560.567 143.96 560.71 145.723 560.855 148.575 562.732 226.983 562.875 230.609 563.021 233.216 563.164 234.731"
     id="polyline845"
     transform="translate(-197.13224,-4.8379031)" />
  <polyline
     class="cls-18"
     points="566.158 143.32 566.305 143.918 566.451 145.65 566.594 148.472 566.741 152.342 566.885 157.122 567.03 162.672 567.173 168.887 567.319 175.633 567.462 182.691 567.605 189.941 567.753 197.145 567.896 204.183 568.041 210.826 568.184 216.934 568.33 222.343 568.473 226.94 568.621 230.587 568.764 233.207 568.909 234.731"
     id="polyline847"
     transform="translate(-197.13224,-4.8379031)" />
  <polyline
     class="cls-18"
     points="566.158 143.32 566.305 143.918 566.451 145.65 566.594 148.472 568.473 226.94 568.621 230.587 568.764 233.207 568.909 234.731"
     id="polyline849"
     transform="translate(-197.13224,-4.8379031)" />
  <line
     class="cls-18"
     x1="397.70911"
     y1="138.5132"
     x2="394.89014"
     y2="143.84209"
     id="line851" />
  <line
     class="cls-18"
     x1="391.96606"
     y1="138.5132"
     x2="389.14496"
     y2="143.84209"
     id="line853" />
  <line
     class="cls-18"
     x1="386.22302"
     y1="138.5132"
     x2="383.40186"
     y2="143.84209"
     id="line855" />
  <polyline
     class="cls-18"
     points="568.945 234.731 568.802 233.207 568.654 230.585 568.511 226.934 568.366 222.33 568.222 216.912 568.075 210.766 567.932 204.116 567.788 197.096 567.643 189.886 567.5 182.633 567.354 175.572 567.209 168.826 567.064 162.614 566.92 157.051 566.775 152.302 566.63 148.455 566.486 145.641 566.341 143.913 566.227 143.351"
     id="polyline857"
     transform="translate(-197.13224,-4.8379031)" />
  <polyline
     class="cls-18"
     points="568.945 234.731 568.802 233.207 568.654 230.585 566.775 152.302 566.63 148.455 566.486 145.641 566.341 143.913 566.227 143.351"
     id="polyline859"
     transform="translate(-197.13224,-4.8379031)" />
  <polyline
     class="cls-18"
     points="563.202 234.731 563.057 233.207 562.911 230.587 562.766 226.94 562.623 222.343 562.477 216.934 562.334 210.826 562.191 204.183 562.045 197.145 561.902 189.941 561.755 182.691 561.611 175.633 561.466 168.887 561.323 162.672 561.177 157.122 561.034 152.342 560.889 148.472 560.743 145.65 560.598 143.918 560.486 143.351"
     id="polyline861"
     transform="translate(-197.13224,-4.8379031)" />
  <polyline
     class="cls-18"
     points="563.202 234.731 563.057 233.207 562.911 230.587 561.034 152.342 560.889 148.472 560.743 145.65 560.598 143.918 560.486 143.351"
     id="polyline863"
     transform="translate(-197.13224,-4.8379031)" />
  <polyline
     class="cls-18"
     points="557.6 148.756 557.761 149.706 557.911 151.675 558.061 154.636 558.209 158.514 558.358 163.205 558.506 168.585 558.656 174.515 558.806 180.832 558.954 187.371 559.103 193.958 559.251 200.423 559.401 206.591 559.551 212.295 559.699 217.392 559.848 221.741 559.996 225.229 560.146 227.764 560.296 229.277"
     id="polyline865"
     transform="translate(-197.13224,-4.8379031)" />
  <polyline
     class="cls-18"
     points="557.6 148.756 557.761 149.706 557.911 151.675 558.061 154.636 559.848 221.741 559.996 225.229 560.146 227.764 560.296 229.277"
     id="polyline867"
     transform="translate(-197.13224,-4.8379031)" />
  <line
     class="cls-18"
     x1="425.35931"
     y1="207.30289"
     x2="439.53461"
     y2="207.30289"
     id="line869" />
  <line
     class="cls-18"
     x1="424.99023"
     y1="206.01749"
     x2="425.35931"
     y2="206.01749"
     id="line871" />
  <line
     class="cls-18"
     x1="439.53461"
     y1="201.68379"
     x2="485.55725"
     y2="201.68379"
     id="line873" />
  <line
     class="cls-18"
     x1="401.94873"
     y1="178.96669"
     x2="404.80121"
     y2="178.24139"
     id="line875" />
  <line
     class="cls-18"
     x1="380.47772"
     y1="138.5132"
     x2="377.65881"
     y2="143.84209"
     id="line877" />
  <line
     class="cls-18"
     x1="374.73474"
     y1="138.5132"
     x2="371.91571"
     y2="143.84209"
     id="line879" />
  <line
     class="cls-18"
     x1="355.76953"
     y1="229.8929"
     x2="355.76953"
     y2="138.4819"
     id="line881" />
  <line
     class="cls-18"
     x1="352.08923"
     y1="124.7111"
     x2="352.08923"
     y2="244.0654"
     id="line883" />
  <line
     class="cls-18"
     x1="351.35315"
     y1="73.2939"
     x2="351.35315"
     y2="295.48022"
     id="line885" />
  <polyline
     class="cls-18"
     points="557.457 234.731 557.314 233.216 557.168 230.609 557.025 226.983 556.882 222.41 556.736 217.039 556.595 210.978 556.448 204.324 556.305 197.288 556.159 190.106 556.016 182.881 555.871 175.838 555.727 169.103 555.582 162.888 555.441 157.318 555.296 152.485 555.148 148.575 555.005 145.723 554.859 143.96 554.741 143.351"
     id="polyline887"
     transform="translate(-197.13224,-4.8379031)" />
  <polyline
     class="cls-18"
     points="557.457 234.731 557.314 233.216 557.168 230.609 555.296 152.485 555.148 148.575 555.005 145.723 554.859 143.96 554.741 143.351"
     id="polyline889"
     transform="translate(-197.13224,-4.8379031)" />
  <line
     class="cls-18"
     x1="366.17273"
     y1="229.6942"
     x2="366.27563"
     y2="229.8929"
     id="line891" />
  <polyline
     class="cls-18"
     points="563.164 234.731 562.193 232.883 561.236 231.064 560.296 229.277"
     id="polyline893"
     transform="translate(-197.13224,-4.8379031)" />
  <line
     class="cls-18"
     x1="366.03174"
     y1="229.8929"
     x2="363.16364"
     y2="224.43889"
     id="line895" />
  <line
     class="cls-18"
     x1="368.98944"
     y1="138.5132"
     x2="366.17273"
     y2="143.84209"
     id="line897" />
  <line
     class="cls-18"
     x1="363.24634"
     y1="138.5132"
     x2="360.42743"
     y2="143.84209"
     id="line899" />
  <line
     class="cls-18"
     x1="347.67065"
     y1="69.6231"
     x2="347.67065"
     y2="299.15341"
     id="line901" />
  <line
     class="cls-18"
     x1="371.91571"
     y1="229.6942"
     x2="372.01862"
     y2="229.8929"
     id="line903" />
  <line
     class="cls-18"
     x1="377.65881"
     y1="229.6942"
     x2="377.75946"
     y2="229.89059"
     id="line905" />
  <polyline
     class="cls-18"
     points="568.909 234.731 567.936 232.883 566.979 231.064 566.037 229.277"
     id="polyline907"
     transform="translate(-197.13224,-4.8379031)" />
  <line
     class="cls-18"
     x1="371.77704"
     y1="229.8929"
     x2="368.90442"
     y2="224.43889"
     id="line909" />
  <polyline
     class="cls-18"
     points="574.652 234.731 573.679 232.883 572.724 231.064 571.782 229.277"
     id="polyline911"
     transform="translate(-197.13224,-4.8379031)" />
  <line
     class="cls-18"
     x1="377.52002"
     y1="229.8929"
     x2="374.64972"
     y2="224.43889"
     id="line913" />
  <line
     class="cls-18"
     x1="383.40405"
     y1="229.6942"
     x2="383.50702"
     y2="229.8929"
     id="line915" />
  <line
     class="cls-18"
     x1="389.14716"
     y1="229.6942"
     x2="389.25006"
     y2="229.8929"
     id="line917" />
  <line
     class="cls-18"
     x1="394.89233"
     y1="229.6942"
     x2="394.99084"
     y2="229.8929"
     id="line919" />
  <polyline
     class="cls-18"
     points="580.395 234.731 579.424 232.883 578.467 231.064 577.525 229.277"
     id="polyline921"
     transform="translate(-197.13224,-4.8379031)" />
  <line
     class="cls-18"
     x1="383.26312"
     y1="229.8929"
     x2="380.39276"
     y2="224.43889"
     id="line923" />
  <polyline
     class="cls-18"
     points="586.141 234.731 585.167 232.883 584.21 231.064 583.268 229.277"
     id="polyline925"
     transform="translate(-197.13224,-4.8379031)" />
  <line
     class="cls-18"
     x1="389.00842"
     y1="229.8929"
     x2="386.13574"
     y2="224.43889"
     id="line927" />
  <polyline
     class="cls-18"
     points="591.884 234.731 590.91 232.883 589.955 231.064 589.013 229.277"
     id="polyline929"
     transform="translate(-197.13224,-4.8379031)" />
  <line
     class="cls-18"
     x1="394.75146"
     y1="229.8929"
     x2="391.88104"
     y2="224.43889"
     id="line931" />
  <line
     class="cls-18"
     x1="399.09393"
     y1="178.24139"
     x2="401.94873"
     y2="178.96669"
     id="line933" />
  <line
     class="cls-18"
     x1="424.99023"
     y1="162.7567"
     x2="425.35931"
     y2="162.7567"
     id="line935" />
  <polyline
     class="cls-18"
     points="563.343 148.756 563.379 148.85 563.524 149.903 563.674 151.983 563.822 155.033 563.969 158.976 564.117 163.71 564.263 169.108 564.412 175.028 564.56 181.321 564.71 187.821 564.855 194.358 565.003 200.76 565.153 206.861 565.298 212.502 565.448 217.534 565.594 221.83 565.741 225.276 565.891 227.779 566.037 229.277"
     id="polyline937"
     transform="translate(-197.13224,-4.8379031)" />
  <polyline
     class="cls-18"
     points="563.343 148.756 563.379 148.85 563.524 149.903 563.674 151.983 563.822 155.033 565.594 221.83 565.741 225.276 565.891 227.779 566.037 229.277"
     id="polyline939"
     transform="translate(-197.13224,-4.8379031)" />
  <line
     class="cls-18"
     x1="400.63324"
     y1="229.6942"
     x2="400.73615"
     y2="229.89059"
     id="line941" />
  <line
     class="cls-18"
     x1="406.37622"
     y1="229.6942"
     x2="406.47913"
     y2="229.89059"
     id="line943" />
  <polyline
     class="cls-18"
     points="597.627 234.731 596.656 232.883 595.698 231.064 594.756 229.277"
     id="polyline945"
     transform="translate(-197.13224,-4.8379031)" />
  <line
     class="cls-18"
     x1="400.49451"
     y1="229.8929"
     x2="397.62415"
     y2="224.43889"
     id="line947" />
  <polyline
     class="cls-18"
     points="603.372 234.731 602.399 232.883 601.443 231.064 600.502 229.277"
     id="polyline949"
     transform="translate(-197.13224,-4.8379031)" />
  <line
     class="cls-18"
     x1="406.23975"
     y1="229.8929"
     x2="403.36932"
     y2="224.43889"
     id="line951" />
  <line
     class="cls-18"
     x1="360.46771"
     y1="143.918"
     x2="357.60852"
     y2="138.5132"
     id="line953" />
  <line
     class="cls-18"
     x1="425.35931"
     y1="161.4713"
     x2="480.03345"
     y2="161.4713"
     id="line955" />
  <polyline
     class="cls-18"
     points="569.088 148.756 569.122 148.85 569.27 149.903 569.417 151.983 569.565 155.033 569.712 158.976 569.86 163.71 570.008 169.108 570.155 175.028 570.305 181.321 570.451 187.821 570.598 194.358 570.748 200.76 570.896 206.861 571.044 212.502 571.191 217.534 571.337 221.83 571.487 225.276 571.634 227.779 571.782 229.277"
     id="polyline957"
     transform="translate(-197.13224,-4.8379031)" />
  <polyline
     class="cls-18"
     points="569.088 148.756 569.122 148.85 569.27 149.903 569.417 151.983 569.565 155.033 571.337 221.83 571.487 225.276 571.634 227.779 571.782 229.277"
     id="polyline959"
     transform="translate(-197.13224,-4.8379031)" />
  <polyline
     class="cls-18"
     points="574.831 148.756 574.865 148.85 575.013 149.903 575.16 151.983 575.308 155.033 575.456 158.976 575.605 163.71 575.751 169.108 575.901 175.028 576.048 181.321 576.194 187.821 576.344 194.358 576.491 200.76 576.639 206.861 576.787 212.502 576.934 217.534 577.082 221.83 577.23 225.276 577.38 227.779 577.525 229.277"
     id="polyline961"
     transform="translate(-197.13224,-4.8379031)" />
  <polyline
     class="cls-18"
     points="574.831 148.756 574.865 148.85 575.013 149.903 575.16 151.983 575.308 155.033 577.082 221.83 577.23 225.276 577.38 227.779 577.525 229.277"
     id="polyline963"
     transform="translate(-197.13224,-4.8379031)" />
  <line
     class="cls-18"
     x1="412.12152"
     y1="229.6942"
     x2="412.22443"
     y2="229.89059"
     id="line965" />
  <line
     class="cls-18"
     x1="415.47742"
     y1="225.6194"
     x2="414.85541"
     y2="224.43889"
     id="line967" />
  <polyline
     class="cls-18"
     points="609.113 234.731 608.142 232.883 607.187 231.064 606.245 229.277"
     id="polyline969"
     transform="translate(-197.13224,-4.8379031)" />
  <line
     class="cls-18"
     x1="411.98053"
     y1="229.8929"
     x2="409.11243"
     y2="224.43889"
     id="line971" />
  <line
     class="cls-18"
     x1="366.21075"
     y1="143.918"
     x2="363.35376"
     y2="138.5132"
     id="line973" />
  <line
     class="cls-18"
     x1="371.95605"
     y1="143.918"
     x2="369.09467"
     y2="138.5132"
     id="line975" />
  <line
     class="cls-18"
     x1="355.76953"
     y1="138.4819"
     x2="357.57495"
     y2="138.4819"
     id="line977" />
  <polyline
     class="cls-18"
     points="580.572 148.756 580.608 148.85 580.756 149.903 580.906 151.983 581.051 155.033 581.201 158.976 581.348 163.71 581.494 169.108 581.644 175.028 581.791 181.321 581.939 187.821 582.087 194.358 582.237 200.76 582.382 206.861 582.53 212.502 582.68 217.534 582.825 221.83 582.975 225.276 583.123 227.779 583.268 229.277"
     id="polyline979"
     transform="translate(-197.13224,-4.8379031)" />
  <polyline
     class="cls-18"
     points="580.572 148.756 580.608 148.85 580.756 149.903 580.906 151.983 581.051 155.033 582.825 221.83 582.975 225.276 583.123 227.779 583.268 229.277"
     id="polyline981"
     transform="translate(-197.13224,-4.8379031)" />
  <polyline
     class="cls-18"
     points="586.317 148.756 586.351 148.85 586.501 149.903 586.649 151.983 586.796 155.033 586.944 158.976 587.091 163.71 587.239 169.108 587.387 175.028 587.537 181.321 587.682 187.821 587.832 194.358 587.98 200.76 588.125 206.861 588.275 212.502 588.423 217.534 588.57 221.83 588.718 225.276 588.863 227.779 589.013 229.277"
     id="polyline983"
     transform="translate(-197.13224,-4.8379031)" />
  <polyline
     class="cls-18"
     points="586.317 148.756 586.351 148.85 586.501 149.903 586.649 151.983 586.796 155.033 588.57 221.83 588.718 225.276 588.863 227.779 589.013 229.277"
     id="polyline985"
     transform="translate(-197.13224,-4.8379031)" />
  <line
     class="cls-18"
     x1="377.69916"
     y1="143.918"
     x2="374.83984"
     y2="138.5132"
     id="line987" />
  <line
     class="cls-18"
     x1="383.43982"
     y1="143.918"
     x2="380.58295"
     y2="138.5132"
     id="line989" />
  <line
     class="cls-18"
     x1="389.18512"
     y1="143.918"
     x2="386.32593"
     y2="138.5132"
     id="line991" />
  <polyline
     class="cls-18"
     points="592.06 148.756 592.096 148.85 592.244 149.903 592.394 151.983 592.539 155.033 592.687 158.976 592.837 163.71 592.982 169.108 593.132 175.028 593.278 181.321 593.427 187.821 593.575 194.358 593.723 200.76 593.87 206.861 594.018 212.502 594.166 217.534 594.313 221.83 594.461 225.276 594.609 227.779 594.756 229.277"
     id="polyline993"
     transform="translate(-197.13224,-4.8379031)" />
  <polyline
     class="cls-18"
     points="592.06 148.756 592.096 148.85 592.244 149.903 592.394 151.983 592.539 155.033 594.313 221.83 594.461 225.276 594.609 227.779 594.756 229.277"
     id="polyline995"
     transform="translate(-197.13224,-4.8379031)" />
  <polyline
     class="cls-18"
     points="603.549 148.756 603.585 148.85 603.732 149.903 603.878 151.983 604.028 155.033 604.175 158.976 604.325 163.71 604.471 169.108 604.618 175.028 604.766 181.321 604.914 187.821 605.063 194.358 605.209 200.76 605.359 206.861 605.506 212.502 605.652 217.534 605.802 221.83 605.949 225.276 606.097 227.779 606.245 229.277"
     id="polyline997"
     transform="translate(-197.13224,-4.8379031)" />
  <polyline
     class="cls-18"
     points="603.549 148.756 603.585 148.85 603.732 149.903 603.878 151.983 604.028 155.033 605.802 221.83 605.949 225.276 606.097 227.779 606.245 229.277"
     id="polyline999"
     transform="translate(-197.13224,-4.8379031)" />
  <line
     class="cls-18"
     x1="394.92816"
     y1="143.918"
     x2="392.07123"
     y2="138.5132"
     id="line1001" />
  <line
     class="cls-18"
     x1="400.67346"
     y1="143.918"
     x2="397.81421"
     y2="138.5132"
     id="line1003" />
  <line
     class="cls-18"
     x1="351.35315"
     y1="124.70881"
     x2="352.08923"
     y2="124.70881"
     id="line1005" />
  <line
     class="cls-18"
     x1="276.42517"
     y1="69.6231"
     x2="276.42517"
     y2="299.15341"
     id="line1007" />
  <polyline
     class="cls-18"
     points="609.292 148.756 609.328 148.85 609.475 149.903 609.623 151.983 609.771 155.033 609.921 158.976 610.066 163.71 610.214 169.108 610.363 175.028 610.509 181.321 610.659 187.821 610.806 194.358 610.952 200.76 611.102 206.861 611.249 212.502 611.397 217.534 611.545 221.83 611.695 225.276 611.84 227.779 611.988 229.277"
     id="polyline1009"
     transform="translate(-197.13224,-4.8379031)" />
  <polyline
     class="cls-18"
     points="609.292 148.756 609.328 148.85 609.475 149.903 609.623 151.983 609.771 155.033 611.545 221.83 611.695 225.276 611.84 227.779 611.988 229.277"
     id="polyline1011"
     transform="translate(-197.13224,-4.8379031)" />
  <line
     class="cls-18"
     x1="406.41644"
     y1="143.918"
     x2="403.55951"
     y2="138.5132"
     id="line1013" />
  <line
     class="cls-18"
     x1="412.15955"
     y1="143.918"
     x2="409.30255"
     y2="138.5132"
     id="line1015" />
  <line
     class="cls-18"
     x1="416.52216"
     y1="144.64989"
     x2="414.09473"
     y2="140.14671"
     id="line1017" />
  <line
     class="cls-18"
     x1="259.85608"
     y1="69.6231"
     x2="259.85608"
     y2="299.15341"
     id="line1019" />
  <line
     class="cls-18"
     x1="480.03345"
     y1="161.4713"
     x2="485.55725"
     y2="166.98099"
     id="line1021" />
  <line
     class="cls-18"
     x1="259.85608"
     y1="69.6231"
     x2="347.67065"
     y2="69.6231"
     id="line1023" />
  <line
     class="cls-18"
     x1="416.52216"
     y1="212.84819"
     x2="420.20245"
     y2="212.84819"
     id="line1025" />
  <line
     class="cls-18"
     x1="416.52216"
     y1="155.92589"
     x2="420.20245"
     y2="155.92589"
     id="line1027" />
  <line
     class="cls-18"
     x1="420.20245"
     y1="210.60779"
     x2="424.99023"
     y2="210.60779"
     id="line1029" />
  <line
     class="cls-18"
     x1="420.20245"
     y1="158.1642"
     x2="424.99023"
     y2="158.1642"
     id="line1031" />
  <line
     class="cls-18"
     x1="420.20245"
     y1="155.92589"
     x2="420.20245"
     y2="212.84819"
     id="line1033" />
  <line
     class="cls-18"
     x1="424.99023"
     y1="210.60779"
     x2="424.99023"
     y2="158.1642"
     id="line1035" />
  <path
     class="cls-18"
     d="m 351.35315,73.293897 a 3.6776,3.6776 0 0 0 -3.6825,-3.6709"
     id="path1037" />
  <path
     class="cls-18"
     d="m 347.67065,299.1534 a 3.68,3.68 0 0 0 3.6825,-3.6732"
     id="path1039" />
  <path
     class="cls-18"
     d="m 352.08925,134.8088 a 3.676,3.676 0 0 0 3.68,3.6731"
     id="path1041" />
  <path
     class="cls-18"
     d="m 318.44105,230.2237 a 9.194,9.194 0 0 0 9.20411,-9.1806"
     id="path1043" />
  <line
     class="cls-18"
     x1="318.44104"
     y1="230.22369"
     x2="301.33502"
     y2="230.22369"
     id="line1045" />
  <path
     class="cls-18"
     d="m 292.13095,221.0431 a 9.1926,9.1926 0 0 0 9.2041,9.1806"
     id="path1047" />
  <line
     class="cls-18"
     x1="292.13095"
     y1="115.8786"
     x2="292.13095"
     y2="221.04309"
     id="line1049" />
  <line
     class="cls-18"
     x1="327.64514"
     y1="115.8786"
     x2="327.64514"
     y2="221.04309"
     id="line1051" />
  <path
     class="cls-18"
     d="m 327.64515,115.8786 a 9.1945,9.1945 0 0 0 -9.2041,-9.1828"
     id="path1053" />
  <line
     class="cls-18"
     x1="318.44104"
     y1="106.6958"
     x2="301.33502"
     y2="106.6958"
     id="line1055" />
  <path
     class="cls-18"
     d="m 301.33505,106.6958 a 9.1931,9.1931 0 0 0 -9.20409,9.1828"
     id="path1057" />
  <line
     class="cls-18"
     x1="259.85626"
     y1="136.64529"
     x2="259.85626"
     y2="232.1288"
     id="line1059" />
  <text
     class="cls-17"
     transform="rotate(90)"
     id="text1061"
     x="115.5318"
     y="-312.90405">GRAYHILL XXXX X-X</text>
</svg>
