<svg xmlns="http://www.w3.org/2000/svg" viewBox="0 0 1080.964 447.961"><defs><style>.cls-3{fill:#323031}.cls-4{fill:#6a5f27}.cls-14,.cls-16,.cls-7{fill:#fff}.cls-16,.cls-7{font-family:Verdana}.cls-7{font-size:23.3332px}.cls-11,.cls-15,.cls-26,.cls-8{fill:none}.cls-14,.cls-15,.cls-8{stroke:#fff}.cls-8{stroke-miterlimit:10;stroke-width:5.3821px}.cls-10{fill:#23446c}.cls-11{stroke:#f1f2f2}.cls-11,.cls-15{stroke-miterlimit:2}.cls-11,.cls-14,.cls-15{stroke-width:1.3634px}.cls-14,.cls-26{stroke-linecap:round;stroke-linejoin:round}.cls-16{font-size:21.7188px}.cls-26{stroke:#939598;stroke-width:20px}</style></defs><g id="Layer_1" data-name="Layer 1"><path d="M705.475 214.017l-1389.685 1.85a83.108 83.108 0 01-82.997-83.217v-1373.217a83.108 83.108 0 0182.997-83.218l1400.27-1.85a83.108 83.108 0 0182.998 83.218V120.186c4.769 55.43-24.54 94.778-77.479 93.828" fill="#434343"/><rect x="-742.573" y="-1294.659" width="1517.315" height="1486.473" rx="58.525" fill="#4f4e51"/><path class="cls-3" d="M27.635 78.457h314.976v89.536H27.635z"/><path class="cls-4" d="M63.595 117.813a5.412 5.412 0 11-5.41 5.41 5.409 5.409 0 015.41-5.41M63.595 142.04a5.414 5.414 0 11-5.41 5.413 5.41 5.41 0 015.41-5.414M63.595 92.605a5.414 5.414 0 11-5.41 5.41 5.409 5.409 0 015.41-5.41"/><path class="cls-3" d="M108.033 78.457h71.923v89.536h-71.923z"/><path class="cls-4" d="M143.995 117.813a5.412 5.412 0 11-5.414 5.41 5.408 5.408 0 015.414-5.41M143.995 142.04a5.414 5.414 0 11-5.414 5.413 5.409 5.409 0 015.414-5.414M143.995 92.605a5.414 5.414 0 11-5.414 5.41 5.408 5.408 0 015.414-5.41"/><path class="cls-3" d="M270.689 78.457h71.923v89.536h-71.923z"/><path class="cls-4" d="M306.65 117.813a5.412 5.412 0 11-5.414 5.41 5.408 5.408 0 015.414-5.41M306.65 142.04a5.414 5.414 0 11-5.414 5.413 5.41 5.41 0 015.414-5.414M306.65 92.605a5.414 5.414 0 11-5.414 5.41 5.408 5.408 0 015.414-5.41"/><path class="cls-3" d="M189.405 78.457h71.927v89.536h-71.927z"/><path class="cls-4" d="M225.37 117.813a5.412 5.412 0 11-5.415 5.41 5.408 5.408 0 015.414-5.41M225.37 142.04a5.414 5.414 0 11-5.415 5.413 5.409 5.409 0 015.414-5.414M225.37 92.605a5.414 5.414 0 11-5.415 5.41 5.408 5.408 0 015.414-5.41"/><text transform="translate(107.646 29.438)" font-family="Verdana" fill="#fff" font-size="32.293">ANA<tspan x="68.307" y="0" letter-spacing="-.031em">L</tspan><tspan x="85.281" y="0">OG IN</tspan></text><text class="cls-7" transform="translate(458.49 54.535)">RESET</text><text class="cls-7" transform="translate(570.147 54.535)">USER</text><path class="cls-8" d="M62.014 40.237V23.82h27.884M286.32 21.639h27.69v20.916"/><rect x="437.746" y="72.55" width="216.334" height="101.351" rx="19.586" fill="#5a5d65"/><rect class="cls-10" x="466.101" y="96.093" width="53.902" height="54.265" rx="26.951"/><rect class="cls-10" x="571.824" y="96.093" width="53.902" height="54.265" rx="26.951"/><path class="cls-3" d="M651.818-789.539h92.078v821.17h-92.078z"/><path class="cls-11" d="M392.92 177.894h10.084M388.927 173.619h18.094M384.522 169.351h26.896M389.209 124.668h-15.948M389.201 97.708h-15.949M397.97 169.351v-16.94h-24.71"/><text transform="matrix(1 0 0 1.0605 390.948 103.41)" font-size="19.691" font-family="Verdana" fill="#fff">S</text><text transform="matrix(1 0 0 1.1297 392.252 131.578)" font-size="19.095" font-family="Verdana" fill="#fff">5V</text><path class="cls-14" d="M366.472 94.077h6.318v6.873h-6.318zM366.886 120.963h6.318v6.873h-6.318zM366.793 148.677h6.318v6.873h-6.318z"/><path class="cls-15" d="M718.295 83.241h10.084M714.302 78.973h18.086M709.905 74.706h26.896M668.891 52.893v15.723M696.11 53.014v36.052M723.319 52.893V75.44"/><text class="cls-16" transform="matrix(1 0 0 1.0056 662.311 87.188)">S</text><text class="cls-16" transform="matrix(1 0 0 1.0056 683.811 109.059)">6V</text><path class="cls-14" d="M665.513 46.393h6.318v6.873h-6.318zM692.937 46.393h6.318v6.873h-6.318zM720.048 46.393h6.318v6.873h-6.318z"/><path stroke-width="10.832" stroke="#f7941d" stroke-linecap="round" stroke-linejoin="round" fill="none" d="M140.882 346.178h64.529"/><path stroke="#1c75bc" stroke-width="10.832" stroke-linecap="round" stroke-linejoin="round" fill="none" d="M138.383 329.598h64.529"/><path stroke="#754c29" stroke-width="10.832" stroke-linecap="round" stroke-linejoin="round" fill="none" d="M138.383 313.018h64.529"/><text transform="translate(677.934 315.098)" font-size="43.328" fill="#010101" letter-spacing=".001em" font-family="Verdana">Absolute Encoder<tspan><tspan x="0" y="51.993">US Digital MA3</tspan></tspan></text><path fill="#221f1f" d="M52.504 86.9h37.605V177H52.504z"/><path stroke="#221f1f" stroke-width="10.832" stroke-linecap="round" stroke-linejoin="round" fill="none" d="M80.834 158.794l-.198 154.968 45.839 1.338"/><path stroke="#e9262a" stroke-width="10.832" stroke-linecap="round" stroke-linejoin="round" fill="none" d="M71.307 128.128l-.657 218.253 55.153 1.596"/><path stroke="#babcbe" stroke-width="10.832" stroke-linecap="round" stroke-linejoin="round" fill="none" d="M60.961 109.194l-.467 219.403 55.736 1.001"/><path class="cls-26" d="M98.227 315.098h38.624M98.227 346.178h38.624M98.227 329.598h38.624"/><rect x="510.61" y="291.286" width="144.04" height="78.704" rx="18.923" transform="rotate(180 582.63 330.639)" fill="#a8aaaa"/><rect x="492.573" y="280.775" width="26.531" height="99.728" rx="11.48" transform="rotate(180 505.838 330.639)" fill="#6f7170"/><rect x="494.791" y="270.44" width="15.819" height="120.397" rx="7.909" transform="rotate(-180 502.7 330.639)" fill="#c7cec7"/><rect x="429.341" y="261.606" width="76.43" height="138.066" rx="16.688" transform="rotate(180 467.556 330.639)" fill="#a89240"/><path transform="rotate(180 419.89 330.639)" fill="#e2d16d" d="M410.44 270.44h18.902v120.397H410.44z"/><rect x="259.635" y="241.471" width="150.804" height="178.335" rx="32.947" transform="rotate(-180 335.037 330.639)" fill="#b7a447"/><rect x="193.889" y="304.135" width="60.775" height="53.008" rx="5.713" transform="rotate(180 224.277 330.639)" fill="#e1dcc3"/><path d="M259.224 375.634c.14 0 .272-.034.411-.042v-89.907c-.139-.008-.27-.041-.41-.041a7.396 7.396 0 00-7.397 7.396v75.197a7.396 7.396 0 007.396 7.397z" fill="#524b52"/></g></svg>