<svg xmlns="http://www.w3.org/2000/svg" viewBox="0 0 796.28 784.618"><defs><style>.cls-3{fill:#323031}.cls-5{fill:#6a5f27}.cls-6{fill:#5a5a5d}.cls-7{fill:#f2f2f2}.cls-8{fill:#221f1f}.cls-13,.cls-32,.cls-43,.cls-47,.cls-9{fill:none}.cls-9{stroke:#5a5a5d;stroke-width:5.416px}.cls-13,.cls-9{stroke-miterlimit:10}.cls-10{font-size:16.248px}.cls-10,.cls-11,.cls-12,.cls-18,.cls-30,.cls-33,.cls-35,.cls-37,.cls-38,.cls-40,.cls-41,.cls-44{fill:#fff}.cls-10,.cls-11,.cls-18,.cls-30,.cls-35,.cls-37,.cls-40,.cls-41,.cls-44{font-family:Verdana}.cls-11{font-size:10.832px}.cls-13,.cls-32,.cls-33,.cls-38,.cls-47{stroke:#fff}.cls-13{stroke-width:2.708px}.cls-18{font-size:11.7401px}.cls-19{fill:#9b9b9b}.cls-20{fill:#171717}.cls-26{fill:#51545a}.cls-27{fill:#3c3d42}.cls-29{fill:#23446c}.cls-30{font-size:11.1981px}.cls-32,.cls-33,.cls-43{stroke-miterlimit:2}.cls-32,.cls-33,.cls-38,.cls-43{stroke-width:.686px}.cls-33,.cls-38,.cls-47{stroke-linecap:round}.cls-35{font-size:11.699px}.cls-37{font-size:10.9278px}.cls-38,.cls-47{stroke-linejoin:round}.cls-40{font-size:9.9074px}.cls-41{font-size:9.6078px}.cls-43{stroke:#020202}.cls-44{font-size:11.4352px}.cls-47{stroke-width:.506px}.cls-48{fill:#231f20}</style></defs><g id="roboRIO"><path d="M744.96 779.18l-699.219.932a41.816 41.816 0 01-41.76-41.871V47.308a41.816 41.816 0 0141.76-41.871l704.544-.931a41.816 41.816 0 0141.76 41.871V731.97c2.4 27.89-12.347 47.687-38.983 47.21" fill="#434343"/><rect x="16.375" y="20.092" width="763.436" height="747.917" rx="29.447" fill="#4f4e51"/><path class="cls-3" d="M22.776 281.303h46.329v413.171H22.776z"/><path d="M551.775 138.546H239.421a19.499 19.499 0 01-19.498-19.497V38.522a19.499 19.499 0 0119.498-19.498h312.354a19.498 19.498 0 0119.498 19.498v80.527a19.498 19.498 0 01-19.498 19.497" fill="#424242"/><path class="cls-3" d="M254.437 523.726h279.722v51.56H254.437z"/><path class="cls-5" d="M48.42 303.873a2.724 2.724 0 11-2.724-2.724 2.723 2.723 0 012.724 2.724m-12.192 0a2.724 2.724 0 11-2.722-2.724 2.721 2.721 0 012.722 2.724m24.873 0a2.723 2.723 0 11-2.722-2.724 2.721 2.721 0 012.722 2.724M48.42 345.104a2.724 2.724 0 11-2.724-2.723 2.723 2.723 0 012.724 2.723m-12.192 0a2.724 2.724 0 11-2.722-2.723 2.721 2.721 0 012.722 2.723m24.873 0a2.723 2.723 0 11-2.722-2.723 2.721 2.721 0 012.722 2.723M48.42 386.336a2.724 2.724 0 11-2.724-2.723 2.723 2.723 0 012.724 2.723m-12.192 0a2.724 2.724 0 11-2.722-2.723 2.721 2.721 0 012.722 2.723m24.873 0a2.723 2.723 0 11-2.722-2.723 2.721 2.721 0 012.722 2.723M48.42 427.568a2.724 2.724 0 11-2.724-2.723 2.723 2.723 0 012.724 2.723m-12.192 0a2.724 2.724 0 11-2.722-2.723 2.721 2.721 0 012.722 2.723m24.873 0a2.723 2.723 0 11-2.722-2.723 2.721 2.721 0 012.722 2.723M48.42 468.8a2.724 2.724 0 11-2.724-2.723 2.723 2.723 0 012.724 2.723m-12.192 0a2.724 2.724 0 11-2.722-2.723 2.721 2.721 0 012.722 2.723m24.873 0a2.723 2.723 0 11-2.722-2.723 2.721 2.721 0 012.722 2.723M48.42 510.031a2.724 2.724 0 11-2.724-2.723 2.723 2.723 0 012.724 2.723m-12.192 0a2.724 2.724 0 11-2.722-2.723 2.721 2.721 0 012.722 2.723m24.873 0a2.723 2.723 0 11-2.722-2.723 2.721 2.721 0 012.722 2.723M48.42 551.263a2.724 2.724 0 11-2.724-2.723 2.723 2.723 0 012.724 2.723m-12.192 0a2.724 2.724 0 11-2.722-2.723 2.721 2.721 0 012.722 2.723m24.873 0a2.723 2.723 0 11-2.722-2.723 2.721 2.721 0 012.722 2.723M48.42 592.495a2.724 2.724 0 11-2.724-2.722 2.723 2.723 0 012.724 2.722m-12.192 0a2.724 2.724 0 11-2.722-2.722 2.721 2.721 0 012.722 2.722m24.873 0a2.723 2.723 0 11-2.722-2.722 2.721 2.721 0 012.722 2.722M48.42 633.727a2.724 2.724 0 11-2.724-2.723 2.723 2.723 0 012.724 2.723m-12.192 0a2.724 2.724 0 11-2.722-2.723 2.721 2.721 0 012.722 2.723m24.873 0a2.723 2.723 0 11-2.722-2.723 2.721 2.721 0 012.722 2.723M48.42 674.958a2.724 2.724 0 11-2.724-2.722 2.723 2.723 0 012.724 2.722m-12.192 0a2.724 2.724 0 11-2.722-2.722 2.721 2.721 0 012.722 2.722m24.873 0a2.723 2.723 0 11-2.722-2.722 2.721 2.721 0 012.722 2.722"/><path class="cls-3" d="M24.151 226.31h45.05v36.188h-45.05z"/><path class="cls-5" d="M49.4 244.404a2.724 2.724 0 11-2.724-2.722 2.723 2.723 0 012.724 2.722m-12.191 0a2.724 2.724 0 11-2.723-2.722 2.721 2.721 0 012.723 2.722m24.873 0a2.723 2.723 0 11-2.723-2.722 2.721 2.721 0 012.723 2.722"/><path class="cls-3" d="M24.151 162.904h60.652v39.05H24.151z"/><path class="cls-5" d="M50.672 182.427a2.724 2.724 0 11-2.725-2.722 2.725 2.725 0 012.724 2.722m-12.191 0a2.724 2.724 0 11-2.722-2.722 2.723 2.723 0 012.722 2.722m24.873 0a2.723 2.723 0 11-2.722-2.722 2.723 2.723 0 012.722 2.722m12.567 0a2.724 2.724 0 11-2.722-2.722 2.723 2.723 0 012.722 2.722"/><path class="cls-3" d="M227.376 711.082h158.48v45.05h-158.48z"/><path class="cls-5" d="M245.472 730.884a2.723 2.723 0 11-2.724 2.722 2.721 2.721 0 012.724-2.722m0 12.189a2.724 2.724 0 11-2.724 2.724 2.722 2.722 0 012.724-2.724m0-24.873a2.724 2.724 0 11-2.724 2.722 2.721 2.721 0 012.724-2.722"/><path class="cls-3" d="M267.828 711.082h36.188v45.05h-36.188z"/><path class="cls-5" d="M285.924 730.884a2.723 2.723 0 11-2.723 2.722 2.723 2.723 0 012.723-2.722m0 12.189a2.724 2.724 0 11-2.723 2.724 2.723 2.723 0 012.723-2.724m0-24.873a2.724 2.724 0 11-2.723 2.722 2.723 2.723 0 012.723-2.722"/><path class="cls-3" d="M349.668 711.082h36.188v45.05h-36.188z"/><path class="cls-5" d="M367.763 730.884a2.723 2.723 0 11-2.722 2.722 2.723 2.723 0 012.722-2.722m0 12.189a2.724 2.724 0 11-2.722 2.724 2.723 2.723 0 012.722-2.724m0-24.873a2.724 2.724 0 11-2.722 2.722 2.723 2.723 0 012.722-2.722"/><path class="cls-3" d="M308.772 711.082h36.188v45.05h-36.188z"/><path class="cls-5" d="M326.867 730.884a2.723 2.723 0 11-2.722 2.722 2.721 2.721 0 012.722-2.722m0 12.189a2.724 2.724 0 11-2.722 2.724 2.722 2.722 0 012.722-2.724m0-24.873a2.724 2.724 0 11-2.722 2.722 2.721 2.721 0 012.722-2.722"/><path class="cls-3" d="M403.905 710.974h158.48v45.05h-158.48z"/><path class="cls-5" d="M421.998 730.776a2.723 2.723 0 11-2.722 2.722 2.722 2.722 0 012.722-2.722m0 12.189a2.724 2.724 0 11-2.722 2.724 2.722 2.722 0 012.722-2.724m0-24.873a2.724 2.724 0 11-2.722 2.722 2.722 2.722 0 012.722-2.722"/><path class="cls-3" d="M444.357 710.974h36.188v45.05h-36.188z"/><path class="cls-5" d="M462.451 730.776a2.723 2.723 0 11-2.724 2.722 2.721 2.721 0 012.724-2.722m0 12.189a2.724 2.724 0 11-2.724 2.724 2.722 2.722 0 012.724-2.724m0-24.873a2.724 2.724 0 11-2.724 2.722 2.721 2.721 0 012.724-2.722"/><path class="cls-3" d="M526.197 710.974h36.188v45.05h-36.188z"/><path class="cls-5" d="M544.291 730.776a2.723 2.723 0 11-2.724 2.722 2.721 2.721 0 012.724-2.722m0 12.189a2.724 2.724 0 11-2.724 2.724 2.722 2.722 0 012.724-2.724m0-24.873a2.724 2.724 0 11-2.724 2.722 2.721 2.721 0 012.724-2.722"/><path class="cls-3" d="M485.299 710.974h36.19v45.05h-36.19z"/><path class="cls-5" d="M503.395 730.776a2.723 2.723 0 11-2.724 2.722 2.721 2.721 0 012.724-2.722m0 12.189a2.724 2.724 0 11-2.724 2.724 2.722 2.722 0 012.724-2.724m0-24.873a2.724 2.724 0 11-2.724 2.722 2.721 2.721 0 012.724-2.722"/><path class="cls-6" d="M28.915 88.912h43.512v24.818H28.915z"/><path class="cls-7" d="M38.691 93.566h27.92V108.3h-27.92z"/><path class="cls-8" d="M51.681 101.322a9.791 9.791 0 11-9.792-9.792 9.79 9.79 0 019.792 9.792"/><path class="cls-6" d="M28.915 113.73h43.512v24.816H28.915z"/><path class="cls-7" d="M38.691 118.384h27.92v14.734h-27.92z"/><path class="cls-8" d="M51.681 126.138a9.791 9.791 0 11-9.792-9.792 9.792 9.792 0 019.792 9.792"/><path class="cls-3" d="M152.918 26.779v33.974h-7.387v40.18h7.387v25.206h35.45v-25.206h15.507V59.275l-15.507-.738V26.779h-35.45z"/><path class="cls-8" d="M180.433 41.914a9.791 9.791 0 11-9.792-9.792 9.792 9.792 0 019.792 9.792m0 68.986a9.791 9.791 0 11-9.792-9.792 9.79 9.79 0 019.792 9.792m-5.728-45.814h25.478v10.338h-25.478zm0 18.472h25.478v10.34h-25.478z"/><path class="cls-7" d="M365.641 621.872h-3.076a82.85 82.85 0 01-6.85-8.944h-.042v8.944h-3.622v-15.27h3.338c2.204 2.706 5.496 6.676 6.588 8.748h.042v-8.748h3.622v15.27m10.669-15.27l5.802 15.27h-4.886l-1.2-3.642h-4.734l-1.462 3.642h-3.598l6.216-15.27zm-1.026 9.206c-.502-1.81-.938-3.272-1.484-5.454h-.044c-.588 2.182-1.112 3.644-1.68 5.454h3.208m8.289 6.064V609.46h-4.406v-2.857h13.416v2.857h-4.406v12.412h-4.604zm10.493-15.268h4.604v15.27h-4.604zm5.713 7.46a7.592 7.592 0 1115.181 0c0 4.558-2.901 8.07-7.592 8.07s-7.59-3.512-7.59-8.07m10.382 0c0-2.706-.828-4.538-2.792-4.538s-2.792 1.832-2.792 4.538c0 2.878.742 4.884 2.792 4.884s2.792-2.006 2.792-4.884m19.5 7.808h-3.074a82.35 82.35 0 01-6.85-8.944h-.044v8.944h-3.622v-15.27h3.338c2.204 2.706 5.496 6.676 6.588 8.748h.044v-8.748h3.62v15.27m10.45-15.27l5.802 15.27h-4.884l-1.202-3.642h-4.734l-1.462 3.642h-3.598l6.218-15.27zm-1.026 9.206c-.5-1.81-.938-3.272-1.482-5.454h-.044c-.59 2.182-1.112 3.644-1.682 5.454h3.208m7.856-9.205h4.602v12.412h5.584v2.858H446.94v-15.27zm-101.762 19.999h4.604v15.272h-4.604zm20.154 15.27h-3.074a82.669 82.669 0 01-6.852-8.945h-.042v8.945h-3.622V626.6h3.338c2.204 2.706 5.498 6.676 6.588 8.748h.042V626.6h3.622v15.272m9.709-12.107a4.343 4.343 0 00-2.248-.568c-.894 0-1.352.438-1.352.94 0 .848 1.289 1.548 2.772 2.92 1.96 1.834 2.442 2.99 2.442 4.584 0 1.35-1.112 4.494-5.694 4.494a7.734 7.734 0 01-4.798-1.398l1.396-2.53a4.322 4.322 0 002.616 1.068c.916 0 1.92-.458 1.92-1.592 0-1.22-1.484-2.116-2.682-3.162-1.592-1.396-2.532-2.206-2.532-4.08 0-2.444 2.464-4.102 5.346-4.102a8.126 8.126 0 013.992 1.026l-1.178 2.4m6.151 12.107v-12.414h-4.406V626.6H390.2v2.858h-4.404v12.414h-4.604zm10.49-15.272h6.808c3.598 0 5.54 1.572 5.54 4.08a4.58 4.58 0 01-2.574 4.406l3.38 6.546-4.928.502-2.42-6.044h-1.202v5.782h-4.604zm4.604 6.612h1.307a1.841 1.841 0 001.832-1.876 1.685 1.685 0 00-1.917-1.878h-1.222v3.754m13.722-6.611v7.986c0 2.746.414 4.362 2.356 4.362 1.526 0 2.4-1.528 2.4-4.428v-7.92h3.97v9.228c0 4.56-3.098 6.306-6.588 6.306-3.904 0-6.741-1.638-6.741-6.196v-9.338h4.604m29.296 15.271h-4.602v-10.69h-.042c-1.18 3.992-2.4 7.352-3.624 10.69h-2.9c-1.244-3.337-2.488-6.698-3.688-10.69h-.042v10.69h-3.622V626.6h6.238c1.048 2.924 2.094 5.826 3.12 9.402h.044c.982-3.576 2.006-6.478 3.01-9.402h6.108v15.272m11.236-12.414h-4.668v3.012h4.56v2.858h-4.56v3.684h5.608v2.86h-10.21V626.6h9.27v2.858zm15.358 12.414h-3.076a82.648 82.648 0 01-6.85-8.945h-.042v8.945h-3.622V626.6h3.338c2.204 2.706 5.496 6.676 6.588 8.748h.042V626.6h3.622v15.272m5.236 0v-12.414h-4.406V626.6h13.416v2.858h-4.406v12.414h-4.604zm18.018-12.107a4.34 4.34 0 00-2.246-.568c-.896 0-1.354.438-1.354.94 0 .848 1.288 1.548 2.77 2.92 1.964 1.834 2.444 2.99 2.444 4.584 0 1.35-1.112 4.494-5.692 4.494a7.736 7.736 0 01-4.8-1.398l1.396-2.53a4.333 4.333 0 002.616 1.068c.916 0 1.92-.458 1.92-1.592 0-1.22-1.483-2.116-2.683-3.162-1.592-1.396-2.532-2.206-2.532-4.08 0-2.444 2.466-4.102 5.346-4.102a8.126 8.126 0 013.993 1.026l-1.178 2.4m2.443-.535v-2.16h-.82v-.276h2.056v.276h-.816v2.16zm4.444 0h-.424v-1.796h-.012l-.965 1.796h-.2l-.895-1.796h-.009v1.796h-.344v-2.436h.488l.918 1.826.994-1.826h.449v2.436m-167.557-16.863a5.821 5.821 0 014.208-4.886c5.154-1.464 7.912-1.194 17.154-1.27-5.54 4.957-9.964 12.77-8.974 20.413-1.99-1.63-3.334-3.96-5.062-5.822a19.255 19.255 0 001.668-3.887c.612-2.312 2.278-2.858 4.39-2.794.158.006-.124-1.78-.708-1.938-1.574-.426-2.906.08-4.734-.626a2.228 2.228 0 00-1.744.332c-1.5.766-2.45 2.404-4.138 2.922zm-28.256-1.497a25.091 25.091 0 019.954-4.324c4.716-.861 9.826-.926 13.348 2.47 6.654 6.408 12.042 13.134 17.878 20.456.23.288.21 1.077.01 1.19a83.724 83.724 0 01-12.672 5.934 2.188 2.188 0 01-2.03-.448c-6.654-6.046-11.21-13.282-17.596-19.572a21.322 21.322 0 00-8.724-5.186c-.264-.082-.312-.42-.168-.52"/><path class="cls-7" d="M323.481 640.37a42.829 42.829 0 00-11.938 12.718 26.506 26.506 0 01.48-14.968c1.67-4.675 1.99-9.216 2.212-14.09 3.035 3.496 6.482 7.36 9.32 10.866z"/><path class="cls-3" d="M265.603 533.714h260.228v32.484H265.603z"/><path class="cls-5" d="M284.35 553.033a1.964 1.964 0 11-1.965 1.964 1.963 1.963 0 011.964-1.964m.001-10.081a1.964 1.964 0 11-1.965 1.965 1.962 1.962 0 011.964-1.965m12.092 10.081a1.964 1.964 0 11-1.964 1.964 1.963 1.963 0 011.964-1.964m0-10.081a1.964 1.964 0 11-1.964 1.965 1.962 1.962 0 011.964-1.965m14.957 10.068a1.964 1.964 0 11-1.964 1.965 1.962 1.962 0 011.964-1.964m0-10.081a1.964 1.964 0 11-1.964 1.965 1.962 1.962 0 011.964-1.964m12.092 10.079a1.964 1.964 0 11-1.962 1.965 1.962 1.962 0 011.962-1.964m0-10.081a1.964 1.964 0 11-1.962 1.965 1.962 1.962 0 011.962-1.964m15.61 10.079a1.964 1.964 0 11-1.965 1.965 1.962 1.962 0 011.964-1.964m.001-10.081a1.964 1.964 0 11-1.965 1.963 1.961 1.961 0 011.964-1.962m12.092 10.079a1.964 1.964 0 11-1.962 1.965 1.964 1.964 0 011.962-1.964m0-10.081a1.964 1.964 0 11-1.962 1.963 1.963 1.963 0 011.962-1.962m15.215 10.079a1.964 1.964 0 11-1.962 1.965 1.962 1.962 0 011.962-1.964m0-10.081a1.964 1.964 0 11-1.962 1.963 1.962 1.962 0 011.962-1.962m14.599 10.079a1.964 1.964 0 11-1.964 1.965 1.962 1.962 0 011.965-1.964m-.001-10.081a1.964 1.964 0 11-1.964 1.963 1.961 1.961 0 011.965-1.962m14.451 10.079a1.964 1.964 0 11-1.962 1.965 1.962 1.962 0 011.962-1.964m0-10.081a1.964 1.964 0 11-1.962 1.965 1.962 1.962 0 011.962-1.964m12.906 10.082a1.963 1.963 0 11-1.962 1.962 1.962 1.962 0 011.962-1.962m0-10.083a1.964 1.964 0 11-1.962 1.965 1.962 1.962 0 011.962-1.964m13.217 10.079a1.964 1.964 0 11-1.964 1.965 1.963 1.963 0 011.964-1.964m0-10.081a1.964 1.964 0 11-1.964 1.965 1.962 1.962 0 011.964-1.964m13.02 10.079a1.964 1.964 0 11-1.965 1.965 1.962 1.962 0 011.964-1.964m.001-10.081a1.964 1.964 0 11-1.965 1.965 1.962 1.962 0 011.964-1.964m14.893 10.079a1.964 1.964 0 11-1.962 1.965 1.963 1.963 0 011.962-1.964m0-10.081a1.964 1.964 0 11-1.962 1.965 1.962 1.962 0 011.962-1.964m13.166 10.079a1.964 1.964 0 11-1.962 1.965 1.964 1.964 0 011.962-1.964m0-10.081a1.964 1.964 0 11-1.962 1.965 1.964 1.964 0 011.962-1.964m12.994 10.079a1.964 1.964 0 11-1.964 1.965 1.963 1.963 0 011.964-1.964m0-10.081a1.964 1.964 0 11-1.964 1.965 1.962 1.962 0 011.964-1.964m14.055 10.082a1.963 1.963 0 11-1.962 1.962 1.962 1.962 0 011.962-1.962m0-10.083a1.964 1.964 0 11-1.962 1.965 1.962 1.962 0 011.962-1.964m12.9 10.082a1.963 1.963 0 11-1.964 1.962 1.961 1.961 0 011.964-1.962m0-10.083a1.964 1.964 0 11-1.964 1.965 1.962 1.962 0 011.964-1.964"/><path class="cls-9" d="M379.414 530.281H262.01v39.328h264.194v-39.328H410.772"/><path class="cls-5" d="M270.685 183.67a9.381 9.381 0 11-9.38-9.38 9.38 9.38 0 019.38 9.38"/><path class="cls-8" d="M266.72 183.67a5.416 5.416 0 11-5.416-5.416 5.416 5.416 0 015.416 5.415"/><path class="cls-5" d="M537.568 175.744a9.381 9.381 0 11-13.268 0 9.383 9.383 0 0113.268 0"/><path class="cls-8" d="M536.351 182.376a5.416 5.416 0 11-5.416-5.415 5.417 5.417 0 015.416 5.415"/><path class="cls-3" d="M605.795 22.92h51.558v119.209h-51.558z"/><path class="cls-3" d="M615.769 29.186h32.486v104.862h-32.486z"/><path class="cls-9" d="M612.349 88.185v47.308h39.326V29.037h-39.326v46.514"/><text class="cls-10" transform="translate(76.844 248.862)">RS-232</text><text class="cls-10" transform="translate(95.393 188.53)">I</text><text class="cls-10" transform="matrix(.583 0 0 .583 102.231 183.12)">2</text><text class="cls-10" transform="translate(108.253 188.53)">C</text><text class="cls-10" transform="translate(34.553 80.628)">CAN</text><text class="cls-11" transform="translate(80.14 103.906)">L (GRN)</text><text class="cls-11" transform="translate(80.14 128.724)">H (YEL)</text><path class="cls-12" d="M103.83 483.389a4.493 4.493 0 01-1.844 1.748 5.83 5.83 0 01-2.75.627h-1.063a5.819 5.819 0 01-2.753-.627 4.48 4.48 0 01-1.84-1.76 5.16 5.16 0 01-.65-2.611v-3.159h11.551v3.23a5.002 5.002 0 01-.652 2.552zm-4.578 1.408a5.157 5.157 0 002.313-.492 3.635 3.635 0 001.539-1.389 3.93 3.93 0 00.544-2.078v-2.254h-9.894v2.182a4.02 4.02 0 00.556 2.135 3.677 3.677 0 001.554 1.404 5.161 5.161 0 002.31.492zm-6.323 3.672h11.552v.977H92.929zm2.352 12.096a4.413 4.413 0 01-1.856-6.295 4.301 4.301 0 011.86-1.588 6.56 6.56 0 012.8-.563h1.238a6.591 6.591 0 012.801.559 4.298 4.298 0 011.86 1.58 4.249 4.249 0 01.654 2.352 4.157 4.157 0 01-2.51 3.95 6.646 6.646 0 01-2.805.556h-1.237a6.673 6.673 0 01-2.805-.551zm6.422-.838a3.373 3.373 0 001.54-1.217 3.314 3.314 0 00.54-1.9 3.256 3.256 0 00-.54-1.873 3.413 3.413 0 00-1.543-1.217 6.025 6.025 0 00-2.36-.426h-1.254a6.007 6.007 0 00-2.368.43 3.45 3.45 0 00-1.548 1.225 3.257 3.257 0 00-.543 1.877 3.308 3.308 0 00.54 1.904 3.345 3.345 0 001.542 1.205 6.228 6.228 0 002.377.414h1.253a6.052 6.052 0 002.364-.422z"/><path class="cls-13" d="M87.58 301.148h11.208V466.72m.001 45.283v156.476H87.581"/><text class="cls-10" transform="translate(282.81 686.31)">RE<tspan x="21.571" y="0" letter-spacing=".009em">L</tspan><tspan x="30.762" y="0" letter-spacing="-.058em">A</tspan><tspan x="40.927" y="0">Y</tspan></text><path class="cls-13" d="M244.767 691.81v-8.874h30.718m64.13-.001h27.866v9.974"/><text transform="translate(439.164 688.027)" font-size="15.92" font-family="Verdana" fill="#fff">ANA<tspan x="33.675" y="0" letter-spacing="-.031em">L</tspan><tspan x="42.043" y="0">OG IN</tspan></text><text class="cls-18" transform="translate(620.69 698.939)">RESET</text><text class="cls-18" transform="translate(676.87 698.937)">USER</text><path class="cls-13" d="M421.203 691.743v-8.259h14.03m98.829-1.098h13.932v10.524"/><path class="cls-3" d="M100.986 711.082h39.958v45.05h-39.958z"/><path class="cls-5" d="M120.964 730.882a2.724 2.724 0 11-2.722 2.724 2.725 2.725 0 012.722-2.724m0 12.191a2.724 2.724 0 11-2.722 2.722 2.723 2.723 0 012.722-2.722"/><text class="cls-10" transform="translate(106.71 699.028)">RSL</text><text class="cls-10" transform="rotate(-90 599.524 -100.406)">PWM</text><path class="cls-13" d="M704.341 668.388h-11.208V507.371m-.001-55.143V295.795h11.208"/><path class="cls-5" d="M342.545 89.09a9.381 9.381 0 11-9.38-9.38 9.38 9.38 0 019.38 9.38"/><path class="cls-8" d="M338.58 89.09a5.416 5.416 0 11-5.416-5.416 5.417 5.417 0 015.416 5.415"/><path class="cls-5" d="M342.545 43.56a9.381 9.381 0 11-9.38-9.378 9.38 9.38 0 019.38 9.378"/><path class="cls-8" d="M338.58 43.56a5.416 5.416 0 11-5.416-5.414 5.416 5.416 0 015.416 5.414"/><path class="cls-19" d="M234.563 39.83h66.468v53.384h-66.468z"/><path class="cls-20" d="M252.103 45.289h31.204l7.57 7.756v34.71h-46.158V53.229l7.384-7.94z"/><path class="cls-5" d="M261.752 71.187a1.964 1.964 0 11-1.965 1.962 1.962 1.962 0 011.965-1.962m0-10.08a1.964 1.964 0 11-1.965 1.962 1.962 1.962 0 011.965-1.962m12.091 10.08a1.964 1.964 0 11-1.962 1.962 1.962 1.962 0 011.962-1.962m0-10.08a1.964 1.964 0 11-1.962 1.962 1.962 1.962 0 011.962-1.962"/><path class="cls-19" d="M469.631 28.956h87.148v94.458h-87.148z"/><path class="cls-20" d="M480.433 65.82h65.546v38.174h-65.546zm14.584 38.174h36.004v8.862h-36.004zm6.462 8.862h23.264v7.386h-23.264z"/><path fill="#f3ea07" d="M471.569 103.994h23.448v13.292h-23.448z"/><path fill="#7cc244" d="M531.021 103.994h23.45v13.292h-23.45z"/><path class="cls-19" d="M367.373 75.115h75.392v33.31h-75.392z"/><path class="cls-20" d="M369.371 76.458h71.456v30.084h-71.456z"/><path class="cls-19" d="M367.405 28.636h75.392v33.31h-75.392z"/><path class="cls-20" d="M369.403 29.977h71.454v30.084h-71.454z"/><text transform="translate(305.894 249.387)" font-size="32.496" font-family="Verdana" fill="#fff">NI <tspan x="49.41" y="0" letter-spacing="-.013em">r</tspan><tspan x="62.856" y="0" letter-spacing="0">oboRIO</tspan></text><path class="cls-6" d="M372.387 79.707h65.362v11.792h-65.362zm0-46.477h65.362v11.792h-65.362z"/><text class="cls-10" transform="translate(701.231 95.075)">POWER</text><path class="cls-26" d="M766.129 81.763h16.034v15.185h-16.034z"/><path class="cls-27" d="M781.292 81.882h10.603v15.185h-10.603z"/><text class="cls-10" transform="translate(696.293 121.034)">STATUS</text><path class="cls-26" d="M766.129 107.723h16.034v15.185h-16.034z"/><path class="cls-27" d="M781.292 107.842h10.603v15.185h-10.603z"/><text class="cls-10" transform="translate(706.98 160.687)">RADIO</text><path class="cls-26" d="M766.129 147.636h16.034v15.185h-16.034z"/><path class="cls-27" d="M781.292 147.755h10.603v15.185h-10.603z"/><text class="cls-10" transform="translate(710.01 187.556)">COMM</text><path class="cls-26" d="M766.129 174.245h16.034v15.185h-16.034z"/><path class="cls-27" d="M781.292 174.364h10.603v15.185h-10.603z"/><text class="cls-10" transform="translate(712.256 215.468)">MODE</text><path class="cls-26" d="M766.129 200.853h16.034v15.185h-16.034z"/><path class="cls-27" d="M781.292 200.973h10.603v15.185h-10.603z"/><text class="cls-10" transform="translate(730.06 256.015)">RSL</text><path class="cls-26" d="M766.129 241.399h16.034v15.185h-16.034z"/><path class="cls-27" d="M781.292 241.518h10.603v15.185h-10.603z"/><rect x="610.252" y="708.002" width="108.849" height="50.995" rx="9.855" fill="#5a5d65"/><rect class="cls-29" x="624.519" y="719.847" width="27.121" height="27.303" rx="13.56"/><rect class="cls-29" x="677.713" y="719.847" width="27.121" height="27.303" rx="13.56"/><path class="cls-3" d="M717.962 274.243h46.329v413.171h-46.329z"/><path class="cls-5" d="M743.605 296.812a2.724 2.724 0 11-2.724-2.723 2.723 2.723 0 012.724 2.723m-12.191 0a2.724 2.724 0 11-2.722-2.723 2.721 2.721 0 012.722 2.723m24.873 0a2.723 2.723 0 11-2.722-2.723 2.721 2.721 0 012.722 2.723m-12.682 41.232a2.724 2.724 0 11-2.724-2.723 2.723 2.723 0 012.724 2.723m-12.191 0a2.724 2.724 0 11-2.722-2.723 2.721 2.721 0 012.722 2.723m24.873 0a2.723 2.723 0 11-2.722-2.723 2.721 2.721 0 012.722 2.723m-12.682 41.232a2.724 2.724 0 11-2.724-2.724 2.723 2.723 0 012.724 2.724m-12.191 0a2.724 2.724 0 11-2.722-2.724 2.721 2.721 0 012.722 2.724m24.873 0a2.723 2.723 0 11-2.722-2.724 2.721 2.721 0 012.722 2.724m-12.682 41.232a2.724 2.724 0 11-2.724-2.723 2.723 2.723 0 012.724 2.723m-12.191 0a2.724 2.724 0 11-2.722-2.723 2.721 2.721 0 012.722 2.723m24.873 0a2.723 2.723 0 11-2.722-2.723 2.721 2.721 0 012.722 2.723m-12.682 41.232a2.724 2.724 0 11-2.724-2.724 2.723 2.723 0 012.724 2.723m-12.191.001a2.724 2.724 0 11-2.722-2.724 2.721 2.721 0 012.722 2.723m24.873.001a2.723 2.723 0 11-2.722-2.724 2.721 2.721 0 012.722 2.723m-12.682 41.232a2.724 2.724 0 11-2.724-2.723 2.723 2.723 0 012.724 2.723m-12.191 0a2.724 2.724 0 11-2.722-2.723 2.721 2.721 0 012.722 2.723m24.873 0a2.723 2.723 0 11-2.722-2.723 2.721 2.721 0 012.722 2.723m-12.682 41.232a2.724 2.724 0 11-2.724-2.723 2.723 2.723 0 012.724 2.723m-12.191 0a2.724 2.724 0 11-2.722-2.723 2.721 2.721 0 012.722 2.723m24.873 0a2.723 2.723 0 11-2.722-2.723 2.721 2.721 0 012.722 2.723m-12.682 41.232a2.724 2.724 0 11-2.724-2.723 2.723 2.723 0 012.724 2.723m-12.191 0a2.724 2.724 0 11-2.722-2.723 2.721 2.721 0 012.722 2.723m24.873 0a2.723 2.723 0 11-2.722-2.723 2.721 2.721 0 012.722 2.723m-12.682 41.232a2.724 2.724 0 11-2.724-2.723 2.723 2.723 0 012.724 2.723m-12.191 0a2.724 2.724 0 11-2.722-2.723 2.721 2.721 0 012.722 2.723m24.873 0a2.723 2.723 0 11-2.722-2.723 2.721 2.721 0 012.722 2.723m-12.682 41.231a2.724 2.724 0 11-2.724-2.722 2.723 2.723 0 012.724 2.722m-12.191 0a2.724 2.724 0 11-2.722-2.722 2.721 2.721 0 012.722 2.722m24.873 0a2.723 2.723 0 11-2.722-2.722 2.721 2.721 0 012.722 2.722"/><text class="cls-10" transform="translate(80.14 40.81)">INPUT</text><text class="cls-30" transform="translate(80.14 54.383)">7-16V</text><path d="M117.259 53.006h3.382m1.858 0h3.377m1.868 0h3.381m-13.865-3.393h13.865" stroke-miterlimit="2" stroke="#f1f2f2" fill="none"/><text class="cls-30" transform="translate(80.14 67.408)">45 W MAX</text><path class="cls-32" d="M138.293 182.813v24.451m13.698-49.848v22.992m13.691.561v23.011m13.691-46.803v22.99m-45.63 29.24h9.104m-11.32-2.147h13.532"/><path class="cls-33" d="M136.584 179.034h3.423v3.425h-3.423z"/><path class="cls-12" d="M150.274 179.034h3.427v3.425h-3.427zm13.696-.003h3.425v3.425h-3.425zm13.698.003h3.421v3.425h-3.421z"/><path class="cls-32" d="M131.892 163.626v34.233l53.874-.008v-34.225h-53.874z"/><text transform="matrix(1 0 0 1.0622 155.828 212.89)" font-size="10.922" font-family="Verdana" fill="#fff">SCL</text><text class="cls-35" transform="matrix(1 0 0 1.0115 140.388 153.246)">3.3V S<tspan x="39.238" y="0" letter-spacing="-.019em">D</tspan><tspan x="48.03" y="0">A</tspan></text><path class="cls-32" d="M135.756 211.558h5.074m10.467 32.674v24.333m13.695-23.959v31.586m13.691-31.586v20.436m-29.922 7.822h5.073m-7.087-2.152h9.104m-11.32-2.147h13.533"/><path class="cls-33" d="M176.975 240.808h3.425v3.425h-3.425zm-27.387 0h3.423v3.425h-3.423zm13.696 0h3.421v3.425h-3.421z"/><path class="cls-32" d="M144.454 224.997h41.08v34.232h-41.08z"/><text class="cls-35" transform="matrix(1 0 0 1.0115 168.197 275.606)">TXD</text><text class="cls-35" transform="matrix(1 0 0 1.0115 153.442 286.582)">RXD</text><path class="cls-32" d="M32.513 702.77v10.898m13.703-10.971l.317 18.411m13.374-18.338v7.846m-29.93 7.354h5.073m-7.087-2.155h9.104m-11.32-2.143h13.532"/><text class="cls-37" transform="matrix(1 0 0 1.0056 40.096 731.262)">5V</text><text class="cls-37" transform="matrix(1 0 0 1.0056 56.48 719.947)">S</text><path class="cls-38" d="M58.358 699.234h3.179v3.458h-3.179zm-13.573.256h3.179v3.458h-3.179zm-13.758-.045h3.179v3.458h-3.179z"/><path class="cls-32" d="M77.115 760.856h5.074m-7.087-2.16h9.104m-11.316-2.143h13.532m-6.766-8.382h12.538m-.065-13.747h-8.004m-4.473 13.402v8.727m.004-1.376v-6.656"/><text class="cls-37" transform="matrix(1 0 0 1.0056 75.98 738.184)">S</text><path class="cls-38" d="M92.199 732.62h3.179v3.458h-3.179zm-.182 13.861h3.179v3.458h-3.179z"/><path class="cls-32" d="M199.946 760.851h5.074"/><path stroke-width=".686" stroke-miterlimit="2" stroke="#fff" fill="#fff" d="M197.933 758.696h9.104"/><path class="cls-32" d="M195.721 756.549h13.532m5.813-22.125h-8.11m8.11-13.723h-8.11m-4.469 35.848v-8.576h12.579"/><text class="cls-40" transform="matrix(1 0 0 1.0605 182.327 723.182)">FWD</text><text class="cls-41" transform="matrix(1 0 0 1.1297 186.401 737.115)">REV</text><path class="cls-38" d="M215.18 718.878h3.179v3.458h-3.179zm-.322 13.713h3.179v3.458h-3.179zm-.029 13.747h3.179v3.458h-3.179z"/><path d="M587.698 761.006h5.073m-7.082-2.152h9.104m-11.321-2.147h13.533m-11.174-22.482h-8.025m8.021-13.565h-8.025m12.437 36.047v-8.523h-12.433" stroke-width=".686" stroke-miterlimit="2" stroke="#f1f2f2" fill="none"/><text class="cls-40" transform="matrix(1 0 0 1.0605 586.707 723.528)">S</text><text class="cls-41" transform="matrix(1 0 0 1.1297 587.363 737.7)">5V</text><path class="cls-38" d="M574.391 718.833h3.179v3.458h-3.179zm.208 13.528h3.179v3.458h-3.179zm-.047 13.944h3.179v3.458h-3.179z"/><path class="cls-32" d="M751.41 713.381h5.074m-7.083-2.147h9.1m-11.312-2.147h13.532m-34.168-10.976v7.911m13.694-7.85v18.14m13.691-18.201v11.345"/><text class="cls-37" transform="matrix(1 0 0 1.0056 723.242 715.365)">S</text><text class="cls-37" transform="matrix(1 0 0 1.0056 734.061 726.373)">6V</text><path class="cls-38" d="M724.853 694.841h3.179v3.458h-3.179zm13.798 0h3.179v3.458h-3.179zm13.641 0h3.179v3.458h-3.179z"/><path class="cls-43" d="M608.435 650.473a6.848 6.848 0 006.855-6.839m-6.855-6.851a6.853 6.853 0 00-6.84 6.851"/><text class="cls-44" transform="matrix(1 0 0 1.0349 558.2 663.678)"><tspan letter-spacing="-.02em">A</tspan><tspan x="7.588" y="0">CCELEROMETER</tspan></text><text class="cls-44" transform="matrix(1 0 0 1.0349 604.116 610.51)">Y</text><text class="cls-44" transform="matrix(1 0 0 1.0349 591.567 638.106)">Z</text><text class="cls-44" transform="matrix(1 0 0 1.0349 636.913 647.589)">X</text><path d="M632.451 643.975h-24.012m-.004 0V616.87" stroke-width=".588" stroke-miterlimit="2" stroke="#fff" fill="none"/><path class="cls-32" d="M608.435 650.473a6.845 6.845 0 10-6.84-6.839 6.848 6.848 0 006.84 6.84z"/><path class="cls-12" d="M636.076 643.975l-4.725-1.822 1.121 1.822-1.121 1.819"/><path class="cls-47" d="M636.076 643.975l-4.725-1.822 1.121 1.822-1.121 1.819"/><path class="cls-12" d="M608.435 613.367l-1.798 4.733 1.798-1.47 1.81 1.47-1.81-4.733"/><path class="cls-47" d="M608.435 613.367l-1.798 4.733 1.798-1.47 1.81 1.47-1.81-4.733"/><path class="cls-48" d="M631.351 645.793l4.725-1.818"/><path class="cls-47" d="M631.351 645.793l4.725-1.818"/><path class="cls-12" d="M608.439 645.18a1.546 1.546 0 10-1.543-1.546 1.552 1.552 0 001.543 1.547"/><path class="cls-32" d="M608.439 645.18a1.546 1.546 0 10-1.543-1.546 1.552 1.552 0 001.543 1.547z"/><path class="cls-43" d="M613.145 272.024h41.08"/><path class="cls-32" d="M604.414 248.052h23.688m-23.688-13.695h23.688m-23.687-13.691h23.687m-14.953-51.345v102.703m-8.735-65.048h23.688m-23.688-13.687h23.688m26.127 78.746V169.333"/><path class="cls-43" d="M654.229 169.317h-41.08"/><path d="M638.822 248.06h23.691m-58.099-.008h23.688m-23.692-13.691h23.688m10.72 0h23.691M604.41 220.67h23.688m10.72 0h23.691m-68.993-36.221v8.905m10.894 13.622h23.688m10.72 0h23.691m-71.534-9.32h5.078m-7.083-2.151h9.1m-11.316-2.147h13.528m4.128-.077h23.688m10.72 0h23.691m-49.36-23.96h41.08v102.703h-41.08z" stroke-linejoin="round" stroke-width=".686" stroke="#fff" fill="none"/><text class="cls-35" transform="matrix(1 0 0 1.0115 664.622 196.212)">CS0</text><text class="cls-35" transform="matrix(1 0 0 1.0115 664.616 209.888)">CS1</text><text class="cls-35" transform="matrix(1 0 0 1.0115 664.608 223.83)">5V</text><text class="cls-35" transform="matrix(1 0 0 1.0115 664.6 237.585)">CS2</text><text class="cls-35" transform="matrix(1 0 0 1.0115 664.793 251.29)">CS3</text><text class="cls-35" transform="matrix(1 0 0 1.0115 572.627 210.814)">SCLK</text><text class="cls-35" transform="matrix(1 0 0 1.0115 571.333 224.51)">MOSI</text><text class="cls-35" transform="matrix(1 0 0 1.0115 571.325 238.265)">MISO</text><text class="cls-35" transform="matrix(1 0 0 1.0115 578.453 252.456)">3.3V</text><path class="cls-38" d="M626.474 191.265h3.179v3.458h-3.179zm0 13.686h3.179v3.458h-3.179zm0 13.691h3.179v3.458h-3.179zm0 13.691h3.179v3.458h-3.179zm0 13.694h3.179v3.458h-3.179zm10.719.009h3.179v3.458h-3.179zm-.004-13.699h3.179v3.458h-3.179zm0-13.691h3.179v3.458h-3.179zm0-13.695h3.179v3.458h-3.179zm0-13.695h3.179v3.458h-3.179z"/><text class="cls-10" transform="translate(620.033 158.971)">SPI</text><path class="cls-5" d="M628.52 58.054a2.724 2.724 0 11-2.723-2.723 2.723 2.723 0 012.724 2.723m12.681 0a2.723 2.723 0 11-2.722-2.723 2.721 2.721 0 012.722 2.723M628.27 69.836a2.724 2.724 0 11-2.724-2.724 2.723 2.723 0 012.724 2.724m12.682 0a2.723 2.723 0 11-2.722-2.724 2.721 2.721 0 012.722 2.724M628.27 81.617a2.724 2.724 0 11-2.724-2.724 2.723 2.723 0 012.724 2.724m12.682 0a2.723 2.723 0 11-2.722-2.724 2.721 2.721 0 012.722 2.724M628.27 93.399a2.724 2.724 0 11-2.724-2.724 2.723 2.723 0 012.724 2.724m12.682 0a2.723 2.723 0 11-2.722-2.724 2.721 2.721 0 012.722 2.724M628.27 105.18a2.724 2.724 0 11-2.724-2.724 2.723 2.723 0 012.724 2.724m12.45 0a2.723 2.723 0 11-2.722-2.724 2.721 2.721 0 012.722 2.724"/></g><g id="Shader"><path class="cls-48" d="M53.086 781.618A50.143 50.143 0 013 731.532V53.086A50.143 50.143 0 0153.086 3h690.108c28.554 0 50.086 23.681 50.086 55.086v678.446c0 11.09-5.377 22.434-14.752 31.121a51.895 51.895 0 01-35.334 13.965zm569.688-99.123a11.413 11.413 0 00-11.4 11.4v62.123a11.413 11.413 0 0011.4 11.4h34.301a11.413 11.413 0 0011.4-11.4v-62.124a11.413 11.413 0 00-11.4-11.4zm76.829-585.758a11.413 11.413 0 00-11.4 11.4v14.302a11.412 11.412 0 0011.4 11.4h72.124a11.412 11.412 0 0011.4-11.4v-14.301a11.413 11.413 0 00-11.4-11.4z" opacity=".33"/><path d="M743.194 6c26.004 0 47.086 21.082 47.086 52.086v678.446c0 21.006-21.082 42.086-47.086 42.086H53.086A47.086 47.086 0 016 731.532V53.086A47.087 47.087 0 0153.086 6h690.108m-43.591 130.839h72.124a14.4 14.4 0 0014.4-14.4v-14.302a14.4 14.4 0 00-14.4-14.4h-72.124a14.4 14.4 0 00-14.4 14.4v14.302a14.4 14.4 0 0014.4 14.4m-76.829 633.58h34.302a14.4 14.4 0 0014.4-14.4v-62.125a14.4 14.4 0 00-14.4-14.4h-34.302a14.4 14.4 0 00-14.4 14.4v62.125a14.4 14.4 0 0014.4 14.4M743.194 0H53.086A53.146 53.146 0 000 53.086v678.446a53.146 53.146 0 0053.086 53.086h690.108a54.883 54.883 0 0037.373-14.765c9.986-9.253 15.713-21.398 15.713-33.321V58.086c0-16.269-5.47-31.1-15.401-41.76A50.954 50.954 0 00743.194 0zm-43.591 130.839a8.41 8.41 0 01-8.4-8.4v-14.302a8.41 8.41 0 018.4-8.4h72.124a8.41 8.41 0 018.4 8.4v14.302a8.41 8.41 0 01-8.4 8.4zm-76.829 633.58a8.41 8.41 0 01-8.4-8.4v-62.125a8.41 8.41 0 018.4-8.4h34.302a8.41 8.41 0 018.4 8.4v62.125a8.41 8.41 0 01-8.4 8.4z" fill="#00aeef"/></g><path class="cls-12" d="M-.869-1.55v787.72H797.15V-1.55zm749.747 778.816l-698.023.514c-25.784-2.065-41.715-20.164-44.877-45.14l.764-685.665c2.03-21.1 20.165-39.368 40.989-41.601l700.17.145c21.042 2.486 38.897 20.007 41.989 40.988l.076 684.101c.025 25.234-16.16 42.402-41.088 46.658z" id="Edge_Fix_TOP_" data-name="Edge Fix (TOP)"/></svg>