<svg xmlns="http://www.w3.org/2000/svg" viewBox="0 0 796.28 784.6179"><defs><style>.cls-1{fill:#434343;}.cls-2{fill:#4f4e51;}.cls-3{fill:#323031;}.cls-4{fill:#424242;}.cls-5{fill:#6a5f27;}.cls-6{fill:#5a5a5d;}.cls-7{fill:#f2f2f2;}.cls-8{fill:#221f1f;}.cls-13,.cls-31,.cls-32,.cls-42,.cls-43,.cls-46,.cls-47,.cls-49,.cls-9{fill:none;}.cls-9{stroke:#5a5a5d;stroke-width:5.416px;}.cls-13,.cls-9{stroke-miterlimit:10;}.cls-10{font-size:16.248px;}.cls-10,.cls-11,.cls-12,.cls-16,.cls-18,.cls-23,.cls-30,.cls-33,.cls-34,.cls-35,.cls-37,.cls-38,.cls-39,.cls-40,.cls-41,.cls-44{fill:#fff;}.cls-10,.cls-11,.cls-16,.cls-18,.cls-23,.cls-30,.cls-34,.cls-35,.cls-37,.cls-40,.cls-41,.cls-44{font-family:Verdana;}.cls-11{font-size:10.832px;}.cls-13,.cls-32,.cls-33,.cls-38,.cls-39,.cls-46,.cls-47,.cls-49{stroke:#fff;}.cls-13{stroke-width:2.708px;}.cls-14{letter-spacing:0.009em;}.cls-15{letter-spacing:-0.058em;}.cls-16{font-size:15.9201px;}.cls-17{letter-spacing:-0.031em;}.cls-18{font-size:11.7401px;}.cls-19{fill:#9b9b9b;}.cls-20{fill:#171717;}.cls-21{fill:#f3ea07;}.cls-22{fill:#7cc244;}.cls-23{font-size:32.496px;}.cls-24{letter-spacing:-0.013em;}.cls-25{letter-spacing:0em;}.cls-26{fill:#51545a;}.cls-27{fill:#3c3d42;}.cls-28{fill:#5a5d65;}.cls-29{fill:#23446c;}.cls-30{font-size:11.1981px;}.cls-31,.cls-42{stroke:#f1f2f2;}.cls-31,.cls-32,.cls-33,.cls-39,.cls-42,.cls-43,.cls-46{stroke-miterlimit:2;}.cls-32,.cls-33,.cls-38,.cls-39,.cls-42,.cls-43,.cls-49{stroke-width:0.686px;}.cls-33,.cls-38,.cls-47{stroke-linecap:round;}.cls-34{font-size:10.9221px;}.cls-35{font-size:11.699px;}.cls-36{letter-spacing:-0.019em;}.cls-37{font-size:10.9278px;}.cls-38,.cls-47,.cls-49{stroke-linejoin:round;}.cls-40{font-size:9.9074px;}.cls-41{font-size:9.6078px;}.cls-43{stroke:#020202;}.cls-44{font-size:11.4352px;}.cls-45{letter-spacing:-0.02em;}.cls-46{stroke-width:0.588px;}.cls-47{stroke-width:0.506px;}.cls-48{fill:#231f20;}.cls-50{opacity:0.33;}.cls-51{fill:#00aeef;}</style></defs><g id="roboRIO"><path class="cls-1" d="M744.6041,782.4986,45.3856,783.43a41.8157,41.8157,0,0,1-41.76-41.8712V50.6259a41.8157,41.8157,0,0,1,41.76-41.8712L749.93,7.8237a41.8156,41.8156,0,0,1,41.76,41.8711V735.2873c2.3994,27.8894-12.3474,47.6875-38.9832,47.21"/><rect class="cls-2" x="16.0202" y="23.4095" width="763.4358" height="747.9174" rx="29.4466"/><rect class="cls-3" x="22.4207" y="284.6205" width="46.329" height="413.1708"/><path class="cls-4" d="M551.42,141.8641H239.0657a19.4985,19.4985,0,0,1-19.498-19.4978V41.84a19.4986,19.4986,0,0,1,19.498-19.4981H551.42A19.4986,19.4986,0,0,1,570.9175,41.84v80.5261A19.4985,19.4985,0,0,1,551.42,141.8641"/><rect class="cls-3" x="254.0818" y="527.0433" width="279.7219" height="51.5601"/><path class="cls-5" d="M48.0642,307.19a2.7242,2.7242,0,1,1-2.7241-2.7239,2.723,2.723,0,0,1,2.7241,2.7239"/><path class="cls-5" d="M35.8728,307.19a2.7242,2.7242,0,1,1-2.7222-2.7239,2.7212,2.7212,0,0,1,2.7222,2.7239"/><path class="cls-5" d="M60.7458,307.19a2.723,2.723,0,1,1-2.7221-2.7239,2.7212,2.7212,0,0,1,2.7221,2.7239"/><path class="cls-5" d="M48.0642,348.422a2.7242,2.7242,0,1,1-2.7241-2.7236,2.723,2.723,0,0,1,2.7241,2.7236"/><path class="cls-5" d="M35.8728,348.422a2.7242,2.7242,0,1,1-2.7222-2.7236,2.7212,2.7212,0,0,1,2.7222,2.7236"/><path class="cls-5" d="M60.7458,348.422a2.723,2.723,0,1,1-2.7221-2.7236,2.7212,2.7212,0,0,1,2.7221,2.7236"/><path class="cls-5" d="M48.0642,389.6538A2.7242,2.7242,0,1,1,45.34,386.93a2.723,2.723,0,0,1,2.7241,2.7235"/><path class="cls-5" d="M35.8728,389.6538a2.7242,2.7242,0,1,1-2.7222-2.7235,2.7212,2.7212,0,0,1,2.7222,2.7235"/><path class="cls-5" d="M60.7458,389.6538a2.723,2.723,0,1,1-2.7221-2.7235,2.7212,2.7212,0,0,1,2.7221,2.7235"/><path class="cls-5" d="M48.0642,430.8855a2.7242,2.7242,0,1,1-2.7241-2.7232,2.7231,2.7231,0,0,1,2.7241,2.7232"/><path class="cls-5" d="M35.8728,430.8855a2.7242,2.7242,0,1,1-2.7222-2.7232,2.7213,2.7213,0,0,1,2.7222,2.7232"/><path class="cls-5" d="M60.7458,430.8855a2.723,2.723,0,1,1-2.7221-2.7232,2.7213,2.7213,0,0,1,2.7221,2.7232"/><path class="cls-5" d="M48.0642,472.1173a2.7242,2.7242,0,1,1-2.7241-2.723,2.723,2.723,0,0,1,2.7241,2.723"/><path class="cls-5" d="M35.8728,472.1173a2.7242,2.7242,0,1,1-2.7222-2.723,2.7212,2.7212,0,0,1,2.7222,2.723"/><path class="cls-5" d="M60.7458,472.1173a2.723,2.723,0,1,1-2.7221-2.723,2.7212,2.7212,0,0,1,2.7221,2.723"/><path class="cls-5" d="M48.0642,513.349a2.7242,2.7242,0,1,1-2.7241-2.7227,2.723,2.723,0,0,1,2.7241,2.7227"/><path class="cls-5" d="M35.8728,513.349a2.7242,2.7242,0,1,1-2.7222-2.7227,2.7212,2.7212,0,0,1,2.7222,2.7227"/><path class="cls-5" d="M60.7458,513.349a2.723,2.723,0,1,1-2.7221-2.7227,2.7212,2.7212,0,0,1,2.7221,2.7227"/><path class="cls-5" d="M48.0642,554.5808a2.7242,2.7242,0,1,1-2.7241-2.7226,2.723,2.723,0,0,1,2.7241,2.7226"/><path class="cls-5" d="M35.8728,554.5808a2.7242,2.7242,0,1,1-2.7222-2.7226,2.7212,2.7212,0,0,1,2.7222,2.7226"/><path class="cls-5" d="M60.7458,554.5808a2.723,2.723,0,1,1-2.7221-2.7226,2.7212,2.7212,0,0,1,2.7221,2.7226"/><path class="cls-5" d="M48.0642,595.8126A2.7242,2.7242,0,1,1,45.34,593.09a2.723,2.723,0,0,1,2.7241,2.7224"/><path class="cls-5" d="M35.8728,595.8126a2.7242,2.7242,0,1,1-2.7222-2.7224,2.7212,2.7212,0,0,1,2.7222,2.7224"/><path class="cls-5" d="M60.7458,595.8126a2.723,2.723,0,1,1-2.7221-2.7224,2.7212,2.7212,0,0,1,2.7221,2.7224"/><path class="cls-5" d="M48.0642,637.0443a2.7242,2.7242,0,1,1-2.7241-2.7221,2.723,2.723,0,0,1,2.7241,2.7221"/><path class="cls-5" d="M35.8728,637.0443a2.7242,2.7242,0,1,1-2.7222-2.7221,2.7212,2.7212,0,0,1,2.7222,2.7221"/><path class="cls-5" d="M60.7458,637.0443a2.723,2.723,0,1,1-2.7221-2.7221,2.7212,2.7212,0,0,1,2.7221,2.7221"/><path class="cls-5" d="M48.0642,678.2761a2.7242,2.7242,0,1,1-2.7241-2.722,2.723,2.723,0,0,1,2.7241,2.722"/><path class="cls-5" d="M35.8728,678.2761a2.7242,2.7242,0,1,1-2.7222-2.722,2.7212,2.7212,0,0,1,2.7222,2.722"/><path class="cls-5" d="M60.7458,678.2761a2.723,2.723,0,1,1-2.7221-2.722,2.7212,2.7212,0,0,1,2.7221,2.722"/><rect class="cls-3" x="23.7957" y="229.6273" width="45.05" height="36.188"/><path class="cls-5" d="M49.0447,247.7215A2.7241,2.7241,0,1,1,46.3206,245a2.723,2.723,0,0,1,2.7241,2.7219"/><path class="cls-5" d="M36.8533,247.7215A2.7241,2.7241,0,1,1,34.1311,245a2.7212,2.7212,0,0,1,2.7222,2.7219"/><path class="cls-5" d="M61.7264,247.7215A2.7231,2.7231,0,1,1,59.0042,245a2.7213,2.7213,0,0,1,2.7222,2.7219"/><rect class="cls-3" x="23.7957" y="166.2213" width="60.6521" height="39.05"/><path class="cls-5" d="M50.3162,185.745a2.7241,2.7241,0,1,1-2.7241-2.722,2.7247,2.7247,0,0,1,2.7241,2.722"/><path class="cls-5" d="M38.1248,185.745a2.7241,2.7241,0,1,1-2.7222-2.722,2.7229,2.7229,0,0,1,2.7222,2.722"/><path class="cls-5" d="M62.9978,185.745a2.723,2.723,0,1,1-2.7221-2.722,2.7229,2.7229,0,0,1,2.7221,2.722"/><path class="cls-5" d="M75.5643,185.745a2.7242,2.7242,0,1,1-2.7222-2.722,2.723,2.723,0,0,1,2.7222,2.722"/><rect class="cls-3" x="227.0211" y="714.3996" width="158.48" height="45.05"/><path class="cls-5" d="M245.1171,734.2015a2.723,2.723,0,1,1-2.7241,2.722,2.7211,2.7211,0,0,1,2.7241-2.722"/><path class="cls-5" d="M245.1171,746.3909a2.7241,2.7241,0,1,1-2.7241,2.7241,2.7216,2.7216,0,0,1,2.7241-2.7241"/><path class="cls-5" d="M245.1171,721.5179a2.7241,2.7241,0,1,1-2.7241,2.722,2.7211,2.7211,0,0,1,2.7241-2.722"/><rect class="cls-3" x="267.473" y="714.3996" width="36.188" height="45.05"/><path class="cls-5" d="M285.5682,734.2015a2.723,2.723,0,1,1-2.7221,2.722,2.7228,2.7228,0,0,1,2.7221-2.722"/><path class="cls-5" d="M285.5682,746.3909a2.7241,2.7241,0,1,1-2.7221,2.7241,2.7232,2.7232,0,0,1,2.7221-2.7241"/><path class="cls-5" d="M285.5682,721.5179a2.7241,2.7241,0,1,1-2.7221,2.722,2.7228,2.7228,0,0,1,2.7221-2.722"/><rect class="cls-3" x="349.3131" y="714.3996" width="36.188" height="45.05"/><path class="cls-5" d="M367.4081,734.2015a2.723,2.723,0,1,1-2.7222,2.722,2.7228,2.7228,0,0,1,2.7222-2.722"/><path class="cls-5" d="M367.4081,746.3909a2.7241,2.7241,0,1,1-2.7222,2.7241,2.7233,2.7233,0,0,1,2.7222-2.7241"/><path class="cls-5" d="M367.4081,721.5179a2.7241,2.7241,0,1,1-2.7222,2.722,2.7228,2.7228,0,0,1,2.7222-2.722"/><rect class="cls-3" x="308.4171" y="714.3996" width="36.188" height="45.05"/><path class="cls-5" d="M326.5116,734.2015a2.723,2.723,0,1,1-2.7222,2.722,2.7211,2.7211,0,0,1,2.7222-2.722"/><path class="cls-5" d="M326.5116,746.3909a2.7241,2.7241,0,1,1-2.7222,2.7241,2.7216,2.7216,0,0,1,2.7222-2.7241"/><path class="cls-5" d="M326.5116,721.5179a2.7241,2.7241,0,1,1-2.7222,2.722,2.7211,2.7211,0,0,1,2.7222-2.722"/><rect class="cls-3" x="403.5498" y="714.2916" width="158.48" height="45.05"/><path class="cls-5" d="M421.6428,734.0935a2.723,2.723,0,1,1-2.7221,2.722,2.7215,2.7215,0,0,1,2.7221-2.722"/><path class="cls-5" d="M421.6428,746.2829a2.7241,2.7241,0,1,1-2.7221,2.7241,2.722,2.722,0,0,1,2.7221-2.7241"/><path class="cls-5" d="M421.6428,721.41a2.7241,2.7241,0,1,1-2.7221,2.722,2.7215,2.7215,0,0,1,2.7221-2.722"/><rect class="cls-3" x="444.0017" y="714.2916" width="36.188" height="45.05"/><path class="cls-5" d="M462.096,734.0935a2.723,2.723,0,1,1-2.7242,2.722,2.7211,2.7211,0,0,1,2.7242-2.722"/><path class="cls-5" d="M462.096,746.2829a2.7241,2.7241,0,1,1-2.7242,2.7241,2.7216,2.7216,0,0,1,2.7242-2.7241"/><path class="cls-5" d="M462.096,721.41a2.7241,2.7241,0,1,1-2.7242,2.722,2.7211,2.7211,0,0,1,2.7242-2.722"/><rect class="cls-3" x="525.8418" y="714.2916" width="36.188" height="45.05"/><path class="cls-5" d="M543.9358,734.0935a2.723,2.723,0,1,1-2.7241,2.722,2.7211,2.7211,0,0,1,2.7241-2.722"/><path class="cls-5" d="M543.9358,746.2829a2.7241,2.7241,0,1,1-2.7241,2.7241,2.7216,2.7216,0,0,1,2.7241-2.7241"/><path class="cls-5" d="M543.9358,721.41a2.7241,2.7241,0,1,1-2.7241,2.722,2.7211,2.7211,0,0,1,2.7241-2.722"/><rect class="cls-3" x="484.9439" y="714.2916" width="36.1899" height="45.05"/><path class="cls-5" d="M503.0393,734.0935a2.723,2.723,0,1,1-2.7241,2.722,2.7211,2.7211,0,0,1,2.7241-2.722"/><path class="cls-5" d="M503.0393,746.2829a2.7241,2.7241,0,1,1-2.7241,2.7241,2.7216,2.7216,0,0,1,2.7241-2.7241"/><path class="cls-5" d="M503.0393,721.41a2.7241,2.7241,0,1,1-2.7241,2.722,2.7211,2.7211,0,0,1,2.7241-2.722"/><rect class="cls-6" x="28.5599" y="92.2293" width="43.512" height="24.8181"/><rect class="cls-7" x="38.336" y="96.8834" width="27.9199" height="14.7339"/><path class="cls-8" d="M51.326,104.64a9.7911,9.7911,0,1,1-9.7923-9.792,9.79,9.79,0,0,1,9.7923,9.792"/><rect class="cls-6" x="28.5599" y="117.0474" width="43.512" height="24.8159"/><rect class="cls-7" x="38.336" y="121.7015" width="27.9199" height="14.7339"/><path class="cls-8" d="M51.326,129.4559a9.7911,9.7911,0,1,1-9.7923-9.792,9.7923,9.7923,0,0,1,9.7923,9.792"/><polygon class="cls-3" points="152.562 30.097 152.562 64.071 145.176 64.071 145.176 104.251 152.562 104.251 152.562 129.457 188.012 129.457 188.012 104.251 203.52 104.251 203.52 62.593 188.012 61.855 188.012 30.097 152.562 30.097"/><path class="cls-8" d="M180.0779,45.2313a9.791,9.791,0,1,1-9.7922-9.792,9.7922,9.7922,0,0,1,9.7922,9.792"/><path class="cls-8" d="M180.0779,114.2176a9.791,9.791,0,1,1-9.7922-9.792,9.7908,9.7908,0,0,1,9.7922,9.792"/><rect class="cls-8" x="174.3499" y="68.4034" width="25.478" height="10.3379"/><rect class="cls-8" x="174.3499" y="86.8753" width="25.478" height="10.3401"/><path class="cls-7" d="M365.2858,625.19H362.21a82.8732,82.8732,0,0,1-6.85-8.9439h-.0419V625.19h-3.6221V609.92h3.3379c2.2041,2.706,5.4961,6.6759,6.5881,8.748h.042V609.92h3.6221v15.27"/><path class="cls-7" d="M375.9542,609.92l5.802,15.27H376.87l-1.2-3.642h-4.7341l-1.4619,3.642h-3.5979l6.2158-15.27Zm-1.0258,9.2059c-.5022-1.81-.9383-3.272-1.4842-5.454H373.4c-.5882,2.182-1.1121,3.6441-1.68,5.454h3.2081"/><polygon class="cls-7" points="383.217 625.19 383.217 612.778 378.811 612.778 378.811 609.92 392.227 609.92 392.227 612.778 387.821 612.778 387.821 625.19 383.217 625.19"/><rect class="cls-7" x="393.7106" y="609.9213" width="4.604" height="15.27"/><path class="cls-7" d="M399.4232,617.3815a7.5921,7.5921,0,1,1,15.1819,0c0,4.5582-2.9018,8.07-7.592,8.07s-7.59-3.5119-7.59-8.07m10.3821,0c0-2.7059-.8281-4.5379-2.7922-4.5379s-2.792,1.832-2.792,4.5379c0,2.8781.7422,4.8841,2.792,4.8841s2.7922-2.006,2.7922-4.8841"/><path class="cls-7" d="M429.3053,625.19h-3.0742a82.36,82.36,0,0,1-6.85-8.9439h-.0439V625.19h-3.6221V609.92h3.3379c2.2041,2.706,5.4961,6.6759,6.5881,8.748h.044V609.92h3.62v15.27"/><path class="cls-7" d="M439.755,609.92l5.802,15.27h-4.884l-1.2019-3.642h-4.7342l-1.4619,3.642h-3.5979l6.2178-15.27Zm-1.0259,9.2059c-.5-1.81-.9382-3.272-1.4821-5.454h-.044c-.59,2.182-1.112,3.6441-1.6819,5.454h3.208"/><polygon class="cls-7" points="446.585 609.92 451.186 609.92 451.186 622.333 456.77 622.333 456.77 625.191 446.585 625.191 446.585 609.92"/><rect class="cls-7" x="344.8226" y="629.9194" width="4.604" height="15.272"/><path class="cls-7" d="M364.9772,645.19H361.903a82.6463,82.6463,0,0,1-6.8518-8.9459h-.042V645.19h-3.6221V629.9182h3.3379c2.2041,2.706,5.498,6.676,6.5881,8.748h.042v-8.748h3.6221V645.19"/><path class="cls-7" d="M374.6862,633.0827a4.3444,4.3444,0,0,0-2.2481-.568c-.894,0-1.352.4381-1.352.94,0,.848,1.2881,1.548,2.7719,2.92,1.96,1.834,2.4419,2.99,2.4419,4.584,0,1.35-1.1118,4.494-5.6938,4.494a7.7349,7.7349,0,0,1-4.7981-1.398l1.396-2.53a4.3224,4.3224,0,0,0,2.616,1.068c.916,0,1.92-.458,1.92-1.5919,0-1.22-1.4841-2.1161-2.6821-3.162-1.592-1.396-2.532-2.206-2.532-4.08,0-2.4439,2.4641-4.1019,5.346-4.1019a8.1253,8.1253,0,0,1,3.9921,1.026l-1.1779,2.4"/><polygon class="cls-7" points="380.837 645.19 380.837 632.776 376.431 632.776 376.431 629.918 389.844 629.918 389.844 632.776 385.44 632.776 385.44 645.19 380.837 645.19"/><path class="cls-7" d="M391.3263,629.918h6.8079c3.5979,0,5.54,1.5721,5.54,4.08a4.58,4.58,0,0,1-2.574,4.406l3.38,6.546-4.928.5021-2.42-6.0441H395.93v5.782h-4.604Zm4.604,6.612h1.3079a1.8411,1.8411,0,0,0,1.832-1.876,1.6848,1.6848,0,0,0-1.918-1.8779H395.93V636.53"/><path class="cls-7" d="M409.653,629.9188v7.9861c0,2.7459.4138,4.3619,2.3559,4.3619,1.5259,0,2.4-1.528,2.4-4.428v-7.92h3.97v9.228c0,4.56-3.0979,6.306-6.5879,6.306-3.9041,0-6.7419-1.6379-6.7419-6.196v-9.338h4.604"/><path class="cls-7" d="M438.95,645.19h-4.602V634.5h-.042c-1.18,3.9919-2.4,7.3521-3.624,10.69h-2.9c-1.2439-3.3378-2.4878-6.698-3.688-10.69h-.042v10.69H420.43V629.9182h6.2378c1.0481,2.924,2.094,5.826,3.12,9.4019h.044c.9819-3.5759,2.0061-6.4779,3.01-9.4019H438.95V645.19"/><polygon class="cls-7" points="450.186 632.776 445.518 632.776 445.518 635.788 450.078 635.788 450.078 638.646 445.518 638.646 445.518 642.33 451.126 642.33 451.126 645.19 440.916 645.19 440.916 629.918 450.186 629.918 450.186 632.776"/><path class="cls-7" d="M465.5436,645.19h-3.0762a82.6128,82.6128,0,0,1-6.85-8.9459h-.042V645.19h-3.6221V629.9182h3.3379c2.2041,2.706,5.4961,6.676,6.5881,8.748h.042v-8.748h3.6221V645.19"/><polygon class="cls-7" points="470.78 645.19 470.78 632.776 466.374 632.776 466.374 629.918 479.79 629.918 479.79 632.776 475.384 632.776 475.384 645.19 470.78 645.19"/><path class="cls-7" d="M488.7975,633.0827a4.3418,4.3418,0,0,0-2.2461-.568c-.896,0-1.354.4381-1.354.94,0,.848,1.2881,1.548,2.77,2.92,1.9639,1.834,2.4439,2.99,2.4439,4.584,0,1.35-1.1119,4.494-5.6919,4.494a7.7372,7.7372,0,0,1-4.8-1.398l1.396-2.53a4.3324,4.3324,0,0,0,2.616,1.068c.916,0,1.92-.458,1.92-1.5919,0-1.22-1.4821-2.1161-2.6821-3.162-1.592-1.396-2.532-2.206-2.532-4.08,0-2.4439,2.4661-4.1019,5.346-4.1019a8.1258,8.1258,0,0,1,3.9922,1.026l-1.178,2.4"/><path class="cls-7" d="M491.24,632.5476v-2.16h-.82v-.276h2.0561v.276H491.66v2.16Zm4.4441,0H495.26v-1.7959h-.0119l-.9641,1.7959h-.2l-.896-1.7959h-.008v1.7959h-.344v-2.4359h.488l.918,1.8259.9939-1.8259h.4482v2.4359"/><path class="cls-7" d="M328.1276,615.6843a5.8213,5.8213,0,0,1,4.2077-4.886c5.1541-1.464,7.9121-1.194,17.1541-1.27-5.54,4.9579-9.9639,12.77-8.9739,20.4139-1.99-1.63-3.334-3.96-5.062-5.822a19.2523,19.2523,0,0,0,1.668-3.8879c.612-2.312,2.278-2.8581,4.39-2.7941.1582.006-.1241-1.78-.708-1.938-1.574-.426-2.9061.08-4.7339-.626a2.228,2.228,0,0,0-1.7439.3321c-1.5.766-2.45,2.4039-4.1382,2.922Z"/><path class="cls-7" d="M299.8717,614.1882a25.0925,25.0925,0,0,1,9.9539-4.324c4.716-.8619,9.8259-.926,13.3479,2.47,6.654,6.408,12.0422,13.1339,17.8781,20.4559.23.288.21,1.0761.01,1.19a83.73,83.73,0,0,1-12.6722,5.934,2.1881,2.1881,0,0,1-2.03-.448c-6.6538-6.0461-11.21-13.282-17.5959-19.5721a21.3232,21.3232,0,0,0-8.7239-5.186c-.2642-.0819-.312-.42-.168-.52"/><path class="cls-7" d="M323.1256,643.6882a42.8284,42.8284,0,0,0-11.9382,12.718,26.5054,26.5054,0,0,1,.48-14.968c1.67-4.6759,1.99-9.216,2.2119-14.09,3.0359,3.496,6.482,7.36,9.32,10.866Z"/><rect class="cls-3" x="265.2478" y="537.0313" width="260.228" height="32.484"/><path class="cls-5" d="M283.9939,556.35a1.9641,1.9641,0,1,1-1.9641,1.9641,1.9632,1.9632,0,0,1,1.9641-1.9641"/><path class="cls-5" d="M283.9939,546.27a1.9641,1.9641,0,1,1-1.9641,1.9641,1.962,1.962,0,0,1,1.9641-1.9641"/><path class="cls-5" d="M296.0857,556.35a1.9641,1.9641,0,1,1-1.9641,1.9641,1.9632,1.9632,0,0,1,1.9641-1.9641"/><path class="cls-5" d="M296.0857,546.27a1.9641,1.9641,0,1,1-1.9641,1.9641,1.962,1.962,0,0,1,1.9641-1.9641"/><path class="cls-5" d="M311.0428,556.3386a1.9641,1.9641,0,1,1-1.9641,1.9641,1.9618,1.9618,0,0,1,1.9641-1.9641"/><path class="cls-5" d="M311.0428,546.2585a1.9641,1.9641,0,1,1-1.9641,1.9641,1.9619,1.9619,0,0,1,1.9641-1.9641"/><path class="cls-5" d="M323.1346,556.3386a1.9641,1.9641,0,1,1-1.9622,1.9641,1.9618,1.9618,0,0,1,1.9622-1.9641"/><path class="cls-5" d="M323.1346,546.2585a1.9641,1.9641,0,1,1-1.9622,1.9641,1.9619,1.9619,0,0,1,1.9622-1.9641"/><path class="cls-5" d="M338.7439,556.3386a1.9641,1.9641,0,1,1-1.9641,1.9641,1.9619,1.9619,0,0,1,1.9641-1.9641"/><path class="cls-5" d="M338.7439,546.2585a1.9641,1.9641,0,1,1-1.9641,1.962,1.9615,1.9615,0,0,1,1.9641-1.962"/><path class="cls-5" d="M350.8357,556.3386a1.9641,1.9641,0,1,1-1.9621,1.9641,1.9635,1.9635,0,0,1,1.9621-1.9641"/><path class="cls-5" d="M350.8357,546.2585a1.9641,1.9641,0,1,1-1.9621,1.962,1.9632,1.9632,0,0,1,1.9621-1.962"/><path class="cls-5" d="M366.0506,556.3386a1.9641,1.9641,0,1,1-1.9622,1.9641,1.9623,1.9623,0,0,1,1.9622-1.9641"/><path class="cls-5" d="M366.0506,546.2585a1.9641,1.9641,0,1,1-1.9622,1.962,1.9619,1.9619,0,0,1,1.9622-1.962"/><path class="cls-5" d="M380.65,556.3386a1.9641,1.9641,0,1,1-1.9641,1.9641,1.9618,1.9618,0,0,1,1.9641-1.9641"/><path class="cls-5" d="M380.65,546.2585a1.9641,1.9641,0,1,1-1.9641,1.962,1.9614,1.9614,0,0,1,1.9641-1.962"/><path class="cls-5" d="M395.1014,556.3386a1.9641,1.9641,0,1,1-1.9622,1.9641,1.9622,1.9622,0,0,1,1.9622-1.9641"/><path class="cls-5" d="M395.1014,546.2585a1.9641,1.9641,0,1,1-1.9622,1.9641,1.9623,1.9623,0,0,1,1.9622-1.9641"/><path class="cls-5" d="M408.0076,556.3405a1.9631,1.9631,0,1,1-1.9621,1.9621,1.9619,1.9619,0,0,1,1.9621-1.9621"/><path class="cls-5" d="M408.0076,546.2585a1.9641,1.9641,0,1,1-1.9621,1.9641,1.9623,1.9623,0,0,1,1.9621-1.9641"/><path class="cls-5" d="M421.2244,556.3386a1.9641,1.9641,0,1,1-1.9641,1.9641,1.9631,1.9631,0,0,1,1.9641-1.9641"/><path class="cls-5" d="M421.2244,546.2585a1.9641,1.9641,0,1,1-1.9641,1.9641,1.9619,1.9619,0,0,1,1.9641-1.9641"/><path class="cls-5" d="M434.2439,556.3386a1.9641,1.9641,0,1,1-1.9641,1.9641,1.9619,1.9619,0,0,1,1.9641-1.9641"/><path class="cls-5" d="M434.2439,546.2585a1.9641,1.9641,0,1,1-1.9641,1.9641,1.962,1.962,0,0,1,1.9641-1.9641"/><path class="cls-5" d="M449.1365,556.3386a1.9641,1.9641,0,1,1-1.9621,1.9641,1.9631,1.9631,0,0,1,1.9621-1.9641"/><path class="cls-5" d="M449.1365,546.2585a1.9641,1.9641,0,1,1-1.9621,1.9641,1.9619,1.9619,0,0,1,1.9621-1.9641"/><path class="cls-5" d="M462.3025,556.3386a1.9641,1.9641,0,1,1-1.9621,1.9641,1.9635,1.9635,0,0,1,1.9621-1.9641"/><path class="cls-5" d="M462.3025,546.2585a1.9641,1.9641,0,1,1-1.9621,1.9641,1.9636,1.9636,0,0,1,1.9621-1.9641"/><path class="cls-5" d="M475.2967,556.3386a1.9641,1.9641,0,1,1-1.9641,1.9641,1.9631,1.9631,0,0,1,1.9641-1.9641"/><path class="cls-5" d="M475.2967,546.2585a1.9641,1.9641,0,1,1-1.9641,1.9641,1.9619,1.9619,0,0,1,1.9641-1.9641"/><path class="cls-5" d="M489.3514,556.3405a1.9631,1.9631,0,1,1-1.9622,1.9621,1.9619,1.9619,0,0,1,1.9622-1.9621"/><path class="cls-5" d="M489.3514,546.2585a1.9641,1.9641,0,1,1-1.9622,1.9641,1.9623,1.9623,0,0,1,1.9622-1.9641"/><path class="cls-5" d="M502.2518,556.3405a1.9631,1.9631,0,1,1-1.9642,1.9621,1.9615,1.9615,0,0,1,1.9642-1.9621"/><path class="cls-5" d="M502.2518,546.2585a1.9641,1.9641,0,1,1-1.9642,1.9641,1.962,1.962,0,0,1,1.9642-1.9641"/><polyline class="cls-9" points="379.058 533.598 261.654 533.598 261.654 572.926 525.848 572.926 525.848 533.598 410.416 533.598"/><path class="cls-5" d="M270.33,186.9871a9.3811,9.3811,0,1,1-9.38-9.38,9.3807,9.3807,0,0,1,9.38,9.38"/><path class="cls-8" d="M266.365,186.9871a5.416,5.416,0,1,1-5.416-5.4157,5.4161,5.4161,0,0,1,5.416,5.4157"/><path class="cls-5" d="M537.2127,179.0614a9.3813,9.3813,0,1,1-13.2681,0,9.3831,9.3831,0,0,1,13.2681,0"/><path class="cls-8" d="M535.9959,185.6942a5.416,5.416,0,1,1-5.416-5.4158,5.4174,5.4174,0,0,1,5.416,5.4158"/><rect class="cls-3" x="605.4397" y="26.2378" width="51.5581" height="119.2091"/><rect class="cls-3" x="615.4139" y="32.5033" width="32.4861" height="104.8621"/><path class="cls-5" d="M634.7342,118.911c0-.438.8779-.792,1.9619-.792s1.9639.354,1.9639.792-.88.7922-1.9639.7922-1.9619-.354-1.9619-.7922"/><path class="cls-5" d="M624.6521,118.911c0-.438.878-.792,1.9639-.792,1.084,0,1.9641.354,1.9641.792s-.88.7922-1.9641.7922c-1.0859,0-1.9639-.354-1.9639-.7922"/><path class="cls-5" d="M634.7342,114.0379c0-.438.8779-.792,1.9619-.792s1.9639.354,1.9639.792-.88.7923-1.9639.7923-1.9619-.354-1.9619-.7923"/><path class="cls-5" d="M624.6521,114.0379c0-.438.878-.792,1.9639-.792,1.084,0,1.9641.354,1.9641.792s-.88.7923-1.9641.7923c-1.0859,0-1.9639-.354-1.9639-.7923"/><path class="cls-5" d="M634.7342,107.7489c0-.438.8779-.792,1.9619-.792s1.9639.354,1.9639.792-.88.7922-1.9639.7922-1.9619-.354-1.9619-.7922"/><path class="cls-5" d="M624.6521,107.7489c0-.438.878-.792,1.9639-.792,1.084,0,1.9641.354,1.9641.792s-.88.7922-1.9641.7922c-1.0859,0-1.9639-.354-1.9639-.7922"/><path class="cls-5" d="M634.7342,102.8758c0-.438.8779-.792,1.9619-.792s1.9639.354,1.9639.792-.88.7922-1.9639.7922-1.9619-.354-1.9619-.7922"/><path class="cls-5" d="M624.6521,102.8758c0-.438.878-.792,1.9639-.792,1.084,0,1.9641.354,1.9641.792s-.88.7922-1.9641.7922c-1.0859,0-1.9639-.354-1.9639-.7922"/><path class="cls-5" d="M634.7342,96.745c0-.438.8779-.792,1.9619-.792s1.9639.354,1.9639.792-.88.7922-1.9639.7922-1.9619-.354-1.9619-.7922"/><path class="cls-5" d="M624.6521,96.745c0-.438.878-.792,1.9639-.792,1.084,0,1.9641.354,1.9641.792s-.88.7922-1.9641.7922c-1.0859,0-1.9639-.354-1.9639-.7922"/><path class="cls-5" d="M634.7342,90.8621c0-.4379.8779-.792,1.9619-.792s1.9639.3541,1.9639.792-.88.7923-1.9639.7923-1.9619-.354-1.9619-.7923"/><path class="cls-5" d="M624.6521,90.8621c0-.4379.878-.792,1.9639-.792,1.084,0,1.9641.3541,1.9641.792s-.88.7923-1.9641.7923c-1.0859,0-1.9639-.354-1.9639-.7923"/><path class="cls-5" d="M634.7342,85.0379c0-.4358.8779-.792,1.9619-.792s1.9639.3562,1.9639.792c0,.4383-.88.7923-1.9639.7923s-1.9619-.354-1.9619-.7923"/><path class="cls-5" d="M624.6521,85.0379c0-.4358.878-.792,1.9639-.792,1.084,0,1.9641.3562,1.9641.792,0,.4383-.88.7923-1.9641.7923-1.0859,0-1.9639-.354-1.9639-.7923"/><path class="cls-5" d="M634.7342,79.8387c0-.438.8779-.792,1.9619-.792,1.0859,0,1.9661.354,1.9661.792,0,.436-.88.7922-1.9661.7922-1.084,0-1.9619-.3562-1.9619-.7922"/><path class="cls-5" d="M624.6541,79.8387c0-.438.8779-.792,1.9619-.792s1.9639.354,1.9639.792c0,.436-.88.7922-1.9639.7922s-1.9619-.3562-1.9619-.7922"/><path class="cls-5" d="M634.7342,74.5125c0-.438.8779-.792,1.9619-.792s1.9661.354,1.9661.792-.8821.7923-1.9661.7923-1.9619-.354-1.9619-.7923"/><path class="cls-5" d="M624.6521,74.5125c0-.438.88-.792,1.9639-.792s1.9641.354,1.9641.792-.88.7923-1.9641.7923-1.9639-.354-1.9639-.7923"/><path class="cls-5" d="M634.7342,69.2664c0-.438.8779-.792,1.9619-.792s1.9639.354,1.9639.792-.88.7923-1.9639.7923-1.9619-.354-1.9619-.7923"/><path class="cls-5" d="M624.6521,69.2664c0-.438.878-.792,1.9639-.792,1.084,0,1.9641.354,1.9641.792s-.88.7923-1.9641.7923c-1.0859,0-1.9639-.354-1.9639-.7923"/><path class="cls-5" d="M634.7342,63.2645c0-.4358.8779-.792,1.9619-.792s1.9661.3562,1.9661.792c0,.4382-.8821.7922-1.9661.7922s-1.9619-.354-1.9619-.7922"/><path class="cls-5" d="M624.6521,63.2645c0-.4358.88-.792,1.9639-.792s1.9641.3562,1.9641.792c0,.4382-.88.7922-1.9641.7922s-1.9639-.354-1.9639-.7922"/><path class="cls-5" d="M634.7342,57.96c0-.438.8779-.792,1.9619-.792s1.9639.354,1.9639.792-.88.7922-1.9639.7922-1.9619-.354-1.9619-.7922"/><path class="cls-5" d="M624.6521,57.96c0-.438.878-.792,1.9639-.792,1.084,0,1.9641.354,1.9641.792s-.88.7922-1.9641.7922c-1.0859,0-1.9639-.354-1.9639-.7922"/><path class="cls-5" d="M634.7342,52.7235c0-.438.8779-.792,1.9619-.792s1.9661.354,1.9661.792-.8821.7922-1.9661.7922-1.9619-.354-1.9619-.7922"/><path class="cls-5" d="M624.6521,52.7235c0-.4358.88-.792,1.9639-.792s1.9641.3562,1.9641.792c0,.4382-.88.7922-1.9641.7922s-1.9639-.354-1.9639-.7922"/><polyline class="cls-9" points="611.994 91.503 611.994 138.811 651.32 138.811 651.32 32.355 611.994 32.355 611.994 78.869"/><text class="cls-10" transform="translate(76.4884 252.1799)">RS-232</text><text class="cls-10" transform="translate(95.0372 191.8484)">I</text><text class="cls-10" transform="translate(101.8761 186.4377) scale(0.583)">2</text><text class="cls-10" transform="translate(107.8981 191.8484)">C</text><text class="cls-10" transform="translate(34.1979 83.9456)">CAN</text><text class="cls-11" transform="translate(79.7848 107.2234)">L (GRN)</text><text class="cls-11" transform="translate(79.7848 132.0422)">H (YEL)</text><path class="cls-12" d="M103.474,486.7066a4.493,4.493,0,0,1-1.8437,1.7481,5.8317,5.8317,0,0,1-2.749.6269H97.8178a5.82,5.82,0,0,1-2.7529-.6269,4.481,4.481,0,0,1-1.8409-1.76,5.1609,5.1609,0,0,1-.65-2.6113v-3.1582h11.5518v3.23A5.0017,5.0017,0,0,1,103.474,486.7066Zm-4.5771,1.4082a5.1563,5.1563,0,0,0,2.3125-.4922,3.6356,3.6356,0,0,0,1.539-1.3886,3.9306,3.9306,0,0,0,.544-2.0782v-2.2539H93.3988v2.1817a4.02,4.02,0,0,0,.5557,2.1347,3.6762,3.6762,0,0,0,1.5547,1.4043,5.1594,5.1594,0,0,0,2.3086.4922Z"/><path class="cls-12" d="M92.5736,491.7867h11.5518v.9766H92.5736Z"/><path class="cls-12" d="M94.9262,503.8824a4.4132,4.4132,0,0,1-1.8565-6.2949A4.3019,4.3019,0,0,1,94.93,496a6.56,6.56,0,0,1,2.8008-.5625h1.2373a6.5913,6.5913,0,0,1,2.8008.5586,4.2978,4.2978,0,0,1,1.86,1.58,4.2494,4.2494,0,0,1,.6543,2.3515,4.1575,4.1575,0,0,1-2.5107,3.9512,6.6463,6.6463,0,0,1-2.8047.5547H97.7309A6.6725,6.6725,0,0,1,94.9262,503.8824Zm6.4219-.8379a3.3724,3.3724,0,0,0,1.539-1.2168,3.3135,3.3135,0,0,0,.54-1.9,3.2555,3.2555,0,0,0-.54-1.873,3.4122,3.4122,0,0,0-1.5429-1.2168,6.0249,6.0249,0,0,0-2.36-.4258H97.7309a6.0068,6.0068,0,0,0-2.3682.43,3.45,3.45,0,0,0-1.5478,1.2246,3.2569,3.2569,0,0,0-.543,1.8769,3.309,3.309,0,0,0,.539,1.9043,3.3459,3.3459,0,0,0,1.543,1.2051,6.2286,6.2286,0,0,0,2.377.4141h1.2529A6.0509,6.0509,0,0,0,101.3481,503.0445Z"/><polyline class="cls-13" points="87.224 304.466 98.432 304.466 98.432 470.038"/><polyline class="cls-13" points="98.433 515.321 98.433 671.797 87.225 671.797"/><text class="cls-10" transform="translate(282.4542 689.6282)">RE<tspan class="cls-14" x="21.5713" y="0">L</tspan><tspan class="cls-15" x="30.7617" y="0">A</tspan><tspan x="40.9268" y="0">Y</tspan></text><polyline class="cls-13" points="244.412 695.128 244.412 686.254 275.13 686.254"/><polyline class="cls-13" points="339.26 686.253 367.126 686.253 367.126 696.227"/><text class="cls-16" transform="translate(438.8085 691.3447)">ANA<tspan class="cls-17" x="33.6748" y="0">L</tspan><tspan x="42.043" y="0">OG IN</tspan></text><text class="cls-18" transform="translate(620.3341 702.2566)">RESET</text><text class="cls-18" transform="translate(676.5138 702.2546)">USER</text><polyline class="cls-13" points="420.847 695.061 420.847 686.801 434.877 686.801"/><polyline class="cls-13" points="533.707 685.704 547.639 685.704 547.639 696.228"/><rect class="cls-3" x="100.6306" y="714.3996" width="39.958" height="45.05"/><path class="cls-5" d="M120.6088,734.1994a2.7241,2.7241,0,1,1-2.7222,2.7241,2.7245,2.7245,0,0,1,2.7222-2.7241"/><path class="cls-5" d="M120.6088,746.3909a2.7241,2.7241,0,1,1-2.7222,2.7221,2.7228,2.7228,0,0,1,2.7222-2.7221"/><text class="cls-10" transform="translate(106.3541 702.3455)">RSL</text><text class="cls-10" transform="translate(699.5743 502.4363) rotate(-90)">PWM</text><polyline class="cls-13" points="703.986 671.706 692.778 671.706 692.778 510.689"/><polyline class="cls-13" points="692.777 455.546 692.777 299.112 703.985 299.112"/><path class="cls-5" d="M342.1893,92.4071a9.3812,9.3812,0,1,1-9.38-9.38,9.3807,9.3807,0,0,1,9.38,9.38"/><path class="cls-8" d="M338.2244,92.4071a5.416,5.416,0,1,1-5.416-5.4158,5.4174,5.4174,0,0,1,5.416,5.4158"/><path class="cls-5" d="M342.1893,46.8778a9.3812,9.3812,0,1,1-9.38-9.378,9.3795,9.3795,0,0,1,9.38,9.378"/><path class="cls-8" d="M338.2244,46.8778a5.416,5.416,0,1,1-5.416-5.4139,5.4161,5.4161,0,0,1,5.416,5.4139"/><rect class="cls-19" x="234.2078" y="43.1473" width="66.468" height="53.384"/><polygon class="cls-20" points="251.748 48.606 282.952 48.606 290.522 56.362 290.522 91.072 244.364 91.072 244.364 56.546 251.748 48.606"/><path class="cls-5" d="M261.3963,74.5047a1.9641,1.9641,0,1,1-1.9641,1.9622,1.9616,1.9616,0,0,1,1.9641-1.9622"/><path class="cls-5" d="M261.3963,64.4246a1.9642,1.9642,0,1,1-1.9641,1.9622,1.9616,1.9616,0,0,1,1.9641-1.9622"/><path class="cls-5" d="M273.4881,74.5047a1.9641,1.9641,0,1,1-1.9622,1.9622,1.962,1.962,0,0,1,1.9622-1.9622"/><path class="cls-5" d="M273.4881,64.4246a1.9642,1.9642,0,1,1-1.9622,1.9622,1.962,1.962,0,0,1,1.9622-1.9622"/><rect class="cls-19" x="469.2759" y="32.2733" width="87.1479" height="94.458"/><rect class="cls-20" x="480.0779" y="69.1373" width="65.5459" height="38.1741"/><rect class="cls-20" x="494.6619" y="107.3114" width="36.0039" height="8.8621"/><rect class="cls-20" x="501.1238" y="116.1734" width="23.2639" height="7.386"/><rect class="cls-21" x="471.2139" y="107.3114" width="23.448" height="13.292"/><rect class="cls-22" x="530.6658" y="107.3114" width="23.45" height="13.292"/><rect class="cls-19" x="367.0176" y="78.4332" width="75.3921" height="33.3101"/><rect class="cls-20" x="369.0157" y="79.7755" width="71.4561" height="30.084"/><rect class="cls-19" x="367.0499" y="31.9532" width="75.3921" height="33.3101"/><rect class="cls-20" x="369.0477" y="33.2952" width="71.4541" height="30.084"/><text class="cls-23" transform="translate(305.5389 252.7048)">NI <tspan class="cls-24" x="49.4102" y="0">r</tspan><tspan class="cls-25" x="62.856" y="0">oboRIO</tspan></text><rect class="cls-6" x="372.0318" y="83.0252" width="65.3621" height="11.792"/><rect class="cls-6" x="372.0318" y="36.5474" width="65.3621" height="11.792"/><text class="cls-10" transform="translate(700.8761 98.3923)">POWER</text><rect class="cls-26" x="765.7735" y="85.0806" width="16.0342" height="15.1855"/><rect class="cls-27" x="780.9371" y="85.1999" width="10.6027" height="15.1855"/><text class="cls-10" transform="translate(695.9381 124.3518)">STATUS</text><rect class="cls-26" x="765.7735" y="111.0404" width="16.0342" height="15.1855"/><rect class="cls-27" x="780.9371" y="111.1597" width="10.6027" height="15.1855"/><text class="cls-10" transform="translate(706.6246 164.0046)">RADIO</text><rect class="cls-26" x="765.7735" y="150.9536" width="16.0342" height="15.1855"/><rect class="cls-27" x="780.9371" y="151.0729" width="10.6027" height="15.1855"/><text class="cls-10" transform="translate(709.6554 190.8738)">COMM</text><rect class="cls-26" x="765.7735" y="177.5623" width="16.0342" height="15.1855"/><rect class="cls-27" x="780.9371" y="177.6817" width="10.6027" height="15.1855"/><text class="cls-10" transform="translate(711.9005 218.7859)">MODE</text><rect class="cls-26" x="765.7735" y="204.1711" width="16.0342" height="15.1855"/><rect class="cls-27" x="780.9371" y="204.2904" width="10.6027" height="15.1855"/><text class="cls-10" transform="translate(729.7052 259.3328)">RSL</text><rect class="cls-26" x="765.7735" y="244.7169" width="16.0342" height="15.1855"/><rect class="cls-27" x="780.9371" y="244.8362" width="10.6027" height="15.1855"/><rect class="cls-28" x="609.8968" y="711.3193" width="108.8485" height="50.9946" rx="9.8548"/><rect class="cls-29" x="624.1634" y="723.165" width="27.1208" height="27.3032" rx="13.5604"/><rect class="cls-29" x="677.3579" y="723.165" width="27.1208" height="27.3032" rx="13.5604"/><rect class="cls-3" x="717.6065" y="277.5603" width="46.329" height="413.1708"/><path class="cls-5" d="M743.25,300.13a2.7242,2.7242,0,1,1-2.7242-2.7238A2.723,2.723,0,0,1,743.25,300.13"/><path class="cls-5" d="M731.0586,300.13a2.7242,2.7242,0,1,1-2.7222-2.7238,2.7213,2.7213,0,0,1,2.7222,2.7238"/><path class="cls-5" d="M755.9316,300.13a2.723,2.723,0,1,1-2.7222-2.7238,2.7212,2.7212,0,0,1,2.7222,2.7238"/><path class="cls-5" d="M743.25,341.3619a2.7242,2.7242,0,1,1-2.7242-2.7237,2.723,2.723,0,0,1,2.7242,2.7237"/><path class="cls-5" d="M731.0586,341.3619a2.7242,2.7242,0,1,1-2.7222-2.7237,2.7213,2.7213,0,0,1,2.7222,2.7237"/><path class="cls-5" d="M755.9316,341.3619a2.723,2.723,0,1,1-2.7222-2.7237,2.7212,2.7212,0,0,1,2.7222,2.7237"/><path class="cls-5" d="M743.25,382.5936a2.7242,2.7242,0,1,1-2.7242-2.7234,2.723,2.723,0,0,1,2.7242,2.7234"/><path class="cls-5" d="M731.0586,382.5936a2.7242,2.7242,0,1,1-2.7222-2.7234,2.7213,2.7213,0,0,1,2.7222,2.7234"/><path class="cls-5" d="M755.9316,382.5936a2.723,2.723,0,1,1-2.7222-2.7234,2.7212,2.7212,0,0,1,2.7222,2.7234"/><path class="cls-5" d="M743.25,423.8254a2.7242,2.7242,0,1,1-2.7242-2.7232,2.723,2.723,0,0,1,2.7242,2.7232"/><path class="cls-5" d="M731.0586,423.8254a2.7242,2.7242,0,1,1-2.7222-2.7232,2.7213,2.7213,0,0,1,2.7222,2.7232"/><path class="cls-5" d="M755.9316,423.8254a2.723,2.723,0,1,1-2.7222-2.7232,2.7212,2.7212,0,0,1,2.7222,2.7232"/><path class="cls-5" d="M743.25,465.0572a2.7242,2.7242,0,1,1-2.7242-2.723,2.723,2.723,0,0,1,2.7242,2.723"/><path class="cls-5" d="M731.0586,465.0572a2.7242,2.7242,0,1,1-2.7222-2.723,2.7213,2.7213,0,0,1,2.7222,2.723"/><path class="cls-5" d="M755.9316,465.0572a2.723,2.723,0,1,1-2.7222-2.723,2.7212,2.7212,0,0,1,2.7222,2.723"/><path class="cls-5" d="M743.25,506.2889a2.7242,2.7242,0,1,1-2.7242-2.7228,2.723,2.723,0,0,1,2.7242,2.7228"/><path class="cls-5" d="M731.0586,506.2889a2.7242,2.7242,0,1,1-2.7222-2.7228,2.7213,2.7213,0,0,1,2.7222,2.7228"/><path class="cls-5" d="M755.9316,506.2889a2.723,2.723,0,1,1-2.7222-2.7228,2.7212,2.7212,0,0,1,2.7222,2.7228"/><path class="cls-5" d="M743.25,547.5207a2.7242,2.7242,0,1,1-2.7242-2.7226,2.7231,2.7231,0,0,1,2.7242,2.7226"/><path class="cls-5" d="M731.0586,547.5207a2.7242,2.7242,0,1,1-2.7222-2.7226,2.7213,2.7213,0,0,1,2.7222,2.7226"/><path class="cls-5" d="M755.9316,547.5207a2.723,2.723,0,1,1-2.7222-2.7226,2.7213,2.7213,0,0,1,2.7222,2.7226"/><path class="cls-5" d="M743.25,588.7524a2.7242,2.7242,0,1,1-2.7242-2.7223,2.723,2.723,0,0,1,2.7242,2.7223"/><path class="cls-5" d="M731.0586,588.7524a2.7242,2.7242,0,1,1-2.7222-2.7223,2.7213,2.7213,0,0,1,2.7222,2.7223"/><path class="cls-5" d="M755.9316,588.7524a2.723,2.723,0,1,1-2.7222-2.7223,2.7212,2.7212,0,0,1,2.7222,2.7223"/><path class="cls-5" d="M743.25,629.9842a2.7242,2.7242,0,1,1-2.7242-2.7222,2.723,2.723,0,0,1,2.7242,2.7222"/><path class="cls-5" d="M731.0586,629.9842a2.7242,2.7242,0,1,1-2.7222-2.7222,2.7212,2.7212,0,0,1,2.7222,2.7222"/><path class="cls-5" d="M755.9316,629.9842a2.723,2.723,0,1,1-2.7222-2.7222,2.7212,2.7212,0,0,1,2.7222,2.7222"/><path class="cls-5" d="M743.25,671.2159a2.7242,2.7242,0,1,1-2.7242-2.7219,2.723,2.723,0,0,1,2.7242,2.7219"/><path class="cls-5" d="M731.0586,671.2159a2.7242,2.7242,0,1,1-2.7222-2.7219,2.7213,2.7213,0,0,1,2.7222,2.7219"/><path class="cls-5" d="M755.9316,671.2159a2.723,2.723,0,1,1-2.7222-2.7219,2.7212,2.7212,0,0,1,2.7222,2.7219"/><text class="cls-10" transform="translate(79.7848 44.1277)">INPUT</text><text class="cls-30" transform="translate(79.7848 57.7014)">7-16V </text><line class="cls-31" x1="116.9041" y1="56.3239" x2="120.2851" y2="56.3239"/><line class="cls-31" x1="122.1442" y1="56.3239" x2="125.5211" y2="56.3239"/><line class="cls-31" x1="127.3883" y1="56.3239" x2="130.7693" y2="56.3239"/><line class="cls-31" x1="116.9042" y1="52.9307" x2="130.7693" y2="52.9307"/><text class="cls-30" transform="translate(79.7848 70.7263)">45 W MAX</text><line class="cls-32" x1="137.9372" y1="186.1305" x2="137.9372" y2="210.5814"/><line class="cls-32" x1="151.6361" y1="160.7338" x2="151.6361" y2="183.7255"/><line class="cls-32" x1="165.3268" y1="184.287" x2="165.3268" y2="207.2977"/><line class="cls-32" x1="179.0175" y1="160.4944" x2="179.0175" y2="183.4849"/><line class="cls-32" x1="133.3876" y1="212.7245" x2="142.4917" y2="212.7245"/><line class="cls-32" x1="131.1714" y1="210.5774" x2="144.7038" y2="210.5774"/><rect class="cls-33" x="136.2284" y="182.3517" width="3.423" height="3.4251"/><rect class="cls-12" x="149.9191" y="182.3517" width="3.4266" height="3.4251"/><rect class="cls-12" x="163.6145" y="182.3483" width="3.4251" height="3.425"/><rect class="cls-12" x="177.3127" y="182.3517" width="3.421" height="3.4251"/><polygon class="cls-32" points="131.536 166.944 131.536 201.177 185.41 201.169 185.41 166.944 131.536 166.944"/><text class="cls-34" transform="translate(155.4728 216.2078) scale(1 1.0622)">SCL</text><text class="cls-35" transform="translate(140.0323 156.5642) scale(1 1.0115)">3.3V S<tspan class="cls-36" x="39.2383" y="0">D</tspan><tspan x="48.0303" y="0">A</tspan></text><line class="cls-32" x1="135.4008" y1="214.8757" x2="140.4744" y2="214.8757"/><line class="cls-32" x1="150.942" y1="247.5499" x2="150.942" y2="271.8831"/><line class="cls-32" x1="164.6368" y1="247.9232" x2="164.6368" y2="279.5097"/><line class="cls-32" x1="178.3275" y1="247.9233" x2="178.3275" y2="268.36"/><line class="cls-32" x1="148.4051" y1="276.1814" x2="153.4788" y2="276.1814"/><line class="cls-32" x1="146.3919" y1="274.0301" x2="155.496" y2="274.0301"/><line class="cls-32" x1="144.1757" y1="271.883" x2="157.7081" y2="271.883"/><rect class="cls-33" x="176.6193" y="244.1253" width="3.4251" height="3.4246"/><rect class="cls-33" x="149.2323" y="244.1253" width="3.4226" height="3.4246"/><rect class="cls-33" x="162.9286" y="244.1253" width="3.421" height="3.4246"/><rect class="cls-32" x="144.0988" y="228.3151" width="41.0802" height="34.2324"/><text class="cls-35" transform="translate(167.8419 278.9236) scale(1 1.0115)">TXD</text><text class="cls-35" transform="translate(153.087 289.9001) scale(1 1.0115)">RXD</text><line class="cls-32" x1="32.1579" y1="706.0874" x2="32.1579" y2="716.9857"/><line class="cls-32" x1="45.8608" y1="706.0143" x2="46.1773" y2="724.4256"/><line class="cls-32" x1="59.5515" y1="706.0874" x2="59.5515" y2="713.9333"/><line class="cls-32" x1="29.6211" y1="721.288" x2="34.6948" y2="721.288"/><line class="cls-32" x1="27.6079" y1="719.1327" x2="36.712" y2="719.1327"/><line class="cls-32" x1="25.3917" y1="716.9895" x2="38.9241" y2="716.9895"/><text class="cls-37" transform="translate(39.7404 734.5798) scale(1 1.0056)">5V</text><text class="cls-37" transform="translate(56.1241 723.2644) scale(1 1.0056)">S</text><rect class="cls-38" x="58.0028" y="702.5519" width="3.1791" height="3.4581"/><rect class="cls-38" x="44.4295" y="702.8079" width="3.1791" height="3.4581"/><rect class="cls-38" x="30.6722" y="702.7629" width="3.1791" height="3.4581"/><line class="cls-32" x1="76.7601" y1="764.1732" x2="81.8338" y2="764.1732"/><line class="cls-32" x1="74.7469" y1="762.0138" x2="83.851" y2="762.0138"/><line class="cls-32" x1="72.5347" y1="759.8708" x2="86.0671" y2="759.8708"/><line class="cls-32" x1="79.301" y1="751.4891" x2="91.8389" y2="751.4891"/><line class="cls-32" x1="91.7741" y1="737.7416" x2="83.7699" y2="737.7416"/><line class="cls-32" x1="79.2969" y1="751.1435" x2="79.2969" y2="759.8708"/><line class="cls-32" x1="79.301" y1="758.4949" x2="79.301" y2="751.8383"/><text class="cls-37" transform="translate(75.6241 741.5017) scale(1 1.0056)">S</text><rect class="cls-38" x="91.8434" y="735.9374" width="3.1791" height="3.4581"/><rect class="cls-38" x="91.6618" y="749.799" width="3.1791" height="3.4581"/><line class="cls-32" x1="199.5908" y1="764.1691" x2="204.6644" y2="764.1691"/><line class="cls-39" x1="197.5776" y1="762.0138" x2="206.6816" y2="762.0138"/><line class="cls-32" x1="195.3654" y1="759.8667" x2="208.8978" y2="759.8667"/><line class="cls-32" x1="214.7103" y1="737.7416" x2="206.6005" y2="737.7416"/><line class="cls-32" x1="214.7103" y1="724.0184" x2="206.6005" y2="724.0184"/><polyline class="cls-32" points="202.132 759.867 202.132 751.29 214.71 751.29"/><text class="cls-40" transform="translate(181.9713 726.5002) scale(1 1.0605)">FWD</text><text class="cls-41" transform="translate(186.046 740.4329) scale(1 1.1297)">REV</text><rect class="cls-38" x="214.8243" y="722.1956" width="3.1791" height="3.4581"/><rect class="cls-38" x="214.5022" y="735.9091" width="3.1791" height="3.4581"/><rect class="cls-38" x="214.4735" y="749.6559" width="3.1791" height="3.4581"/><line class="cls-42" x1="587.3424" y1="764.3234" x2="592.4161" y2="764.3234"/><line class="cls-42" x1="585.3333" y1="762.1721" x2="594.4374" y2="762.1721"/><line class="cls-42" x1="583.1171" y1="760.025" x2="596.6494" y2="760.025"/><line class="cls-42" x1="585.4754" y1="737.5427" x2="577.4508" y2="737.5427"/><line class="cls-42" x1="585.4713" y1="723.9778" x2="577.4468" y2="723.9778"/><polyline class="cls-42" points="589.883 760.025 589.883 751.501 577.451 751.501"/><text class="cls-40" transform="translate(586.3512 726.8455) scale(1 1.0605)">S</text><text class="cls-41" transform="translate(587.0074 741.0188) scale(1 1.1297)">5V</text><rect class="cls-38" x="574.0352" y="722.1508" width="3.1791" height="3.4581"/><rect class="cls-38" x="574.2434" y="735.6787" width="3.1791" height="3.4581"/><rect class="cls-38" x="574.1965" y="749.6229" width="3.1791" height="3.4581"/><line class="cls-32" x1="751.0546" y1="716.6986" x2="756.1282" y2="716.6986"/><line class="cls-32" x1="749.0454" y1="714.5514" x2="758.1454" y2="714.5514"/><line class="cls-32" x1="746.8333" y1="712.4043" x2="760.3656" y2="712.4043"/><line class="cls-32" x1="726.1972" y1="701.4291" x2="726.1972" y2="709.3399"/><line class="cls-32" x1="739.8919" y1="701.4899" x2="739.8919" y2="719.6293"/><line class="cls-32" x1="753.5826" y1="701.4291" x2="753.5826" y2="712.7738"/><text class="cls-37" transform="translate(722.8868 718.6829) scale(1 1.0056)">S</text><text class="cls-37" transform="translate(733.7057 729.6907) scale(1 1.0056)">6V</text><rect class="cls-38" x="724.4974" y="698.1588" width="3.1791" height="3.4581"/><rect class="cls-38" x="738.2954" y="698.1588" width="3.1791" height="3.4581"/><rect class="cls-38" x="751.9367" y="698.1588" width="3.1791" height="3.4581"/><path class="cls-43" d="M608.0794,653.7912a6.8485,6.8485,0,0,0,6.8555-6.8393"/><path class="cls-43" d="M608.0794,640.1005a6.8529,6.8529,0,0,0-6.8393,6.8515"/><text class="cls-44" transform="translate(557.8448 666.9954) scale(1 1.0349)"><tspan class="cls-45">A</tspan><tspan x="7.5884" y="0">CCELEROMETER</tspan></text><text class="cls-44" transform="translate(603.7604 613.8284) scale(1 1.0349)">Y</text><text class="cls-44" transform="translate(591.212 641.4236) scale(1 1.0349)">Z</text><text class="cls-44" transform="translate(636.5573 650.9065) scale(1 1.0349)">X</text><line class="cls-46" x1="632.096" y1="647.2928" x2="608.0834" y2="647.2928"/><line class="cls-46" x1="608.0794" y1="647.2928" x2="608.0794" y2="620.1875"/><path class="cls-32" d="M608.0794,653.7912a6.8454,6.8454,0,1,0-6.8393-6.8393A6.8485,6.8485,0,0,0,608.0794,653.7912Z"/><polyline class="cls-12" points="635.721 647.293 630.996 645.47 632.116 647.293 630.996 649.111"/><polyline class="cls-47" points="635.721 647.293 630.996 645.47 632.116 647.293 630.996 649.111"/><polyline class="cls-12" points="608.079 616.685 606.281 621.417 608.079 619.948 609.89 621.417 608.079 616.685"/><polyline class="cls-47" points="608.079 616.685 606.281 621.417 608.079 619.948 609.89 621.417 608.079 616.685"/><line class="cls-48" x1="630.996" y1="649.1112" x2="635.7205" y2="647.2928"/><line class="cls-47" x1="630.996" y1="649.1112" x2="635.7205" y2="647.2928"/><path class="cls-12" d="M608.0834,648.4983a1.5465,1.5465,0,1,0-1.5424-1.5464,1.5521,1.5521,0,0,0,1.5424,1.5464"/><path class="cls-32" d="M608.0834,648.4983a1.5465,1.5465,0,1,0-1.5424-1.5464A1.5521,1.5521,0,0,0,608.0834,648.4983Z"/><line class="cls-43" x1="612.7896" y1="275.3415" x2="653.8697" y2="275.3415"/><line class="cls-32" x1="604.059" y1="251.3695" x2="627.7468" y2="251.3695"/><line class="cls-32" x1="604.059" y1="237.6748" x2="627.7468" y2="237.6748"/><line class="cls-32" x1="604.0593" y1="223.9841" x2="627.747" y2="223.9841"/><line class="cls-32" x1="612.7937" y1="172.6388" x2="612.7937" y2="275.3415"/><line class="cls-32" x1="604.059" y1="210.2934" x2="627.7468" y2="210.2934"/><line class="cls-32" x1="604.059" y1="196.6068" x2="627.7468" y2="196.6068"/><line class="cls-32" x1="653.874" y1="275.3531" x2="653.874" y2="172.6506"/><line class="cls-43" x1="653.8739" y1="172.6348" x2="612.7937" y2="172.6348"/><line class="cls-49" x1="638.4663" y1="251.3777" x2="662.1581" y2="251.3777"/><line class="cls-49" x1="604.059" y1="251.3695" x2="627.7468" y2="251.3695"/><line class="cls-49" x1="604.0549" y1="237.6789" x2="627.7427" y2="237.6789"/><line class="cls-49" x1="638.4623" y1="237.6789" x2="662.154" y2="237.6789"/><line class="cls-49" x1="604.0549" y1="223.9881" x2="627.7427" y2="223.9881"/><line class="cls-49" x1="638.4623" y1="223.9881" x2="662.154" y2="223.9881"/><line class="cls-49" x1="593.1608" y1="187.7664" x2="593.1608" y2="196.6716"/><line class="cls-49" x1="604.0549" y1="210.2934" x2="627.7427" y2="210.2934"/><line class="cls-49" x1="638.4623" y1="210.2934" x2="662.154" y2="210.2934"/><line class="cls-49" x1="590.6199" y1="200.974" x2="595.6975" y2="200.974"/><line class="cls-49" x1="588.6149" y1="198.8228" x2="597.7149" y2="198.8228"/><line class="cls-49" x1="586.3986" y1="196.6757" x2="599.9269" y2="196.6757"/><line class="cls-49" x1="604.0549" y1="196.5986" x2="627.7427" y2="196.5986"/><line class="cls-49" x1="638.4623" y1="196.5986" x2="662.154" y2="196.5986"/><rect class="cls-49" x="612.7937" y="172.639" width="41.0802" height="102.7025"/><text class="cls-35" transform="translate(664.2667 199.53) scale(1 1.0115)">CS0</text><text class="cls-35" transform="translate(664.2604 213.2063) scale(1 1.0115)">CS1</text><text class="cls-35" transform="translate(664.2526 227.1487) scale(1 1.0115)">5V</text><text class="cls-35" transform="translate(664.2448 240.9031) scale(1 1.0115)">CS2</text><text class="cls-35" transform="translate(664.4371 254.6082) scale(1 1.0115)">CS3</text><text class="cls-35" transform="translate(572.2716 214.1316) scale(1 1.0115)">SCLK</text><text class="cls-35" transform="translate(570.9777 227.8284) scale(1 1.0115)">MOSI</text><text class="cls-35" transform="translate(570.9698 241.5828) scale(1 1.0115)">MISO</text><text class="cls-35" transform="translate(578.0978 255.7737) scale(1 1.0115)">3.3V</text><rect class="cls-38" x="626.1183" y="194.5824" width="3.1791" height="3.4581"/><rect class="cls-38" x="626.1183" y="208.269" width="3.1791" height="3.4581"/><rect class="cls-38" x="626.1186" y="221.9598" width="3.1791" height="3.4581"/><rect class="cls-38" x="626.1183" y="235.6504" width="3.1791" height="3.4581"/><rect class="cls-38" x="626.1183" y="249.3451" width="3.1791" height="3.4581"/><rect class="cls-38" x="636.8379" y="249.3533" width="3.1791" height="3.4581"/><rect class="cls-38" x="636.8338" y="235.6545" width="3.1791" height="3.4581"/><rect class="cls-38" x="636.8338" y="221.9637" width="3.1791" height="3.4581"/><rect class="cls-38" x="636.8338" y="208.269" width="3.1791" height="3.4581"/><rect class="cls-38" x="636.8338" y="194.5743" width="3.1791" height="3.4581"/><text class="cls-10" transform="translate(619.6779 162.2893)">SPI</text></g><g id="Shader"><g class="cls-50"><path class="cls-48" d="M53.0862,781.6179A50.1427,50.1427,0,0,1,3,731.532V53.0857A50.1427,50.1427,0,0,1,53.0862,3H743.1941C771.7478,3,793.28,26.6814,793.28,58.0857V736.532c0,11.09-5.3769,22.4336-14.7524,31.1211a51.8947,51.8947,0,0,1-35.3335,13.9648Zm569.688-99.123a11.4131,11.4131,0,0,0-11.4,11.3994v62.124a11.4134,11.4134,0,0,0,11.4,11.4h34.3012a11.413,11.413,0,0,0,11.4-11.4v-62.124a11.4127,11.4127,0,0,0-11.4-11.3994ZM700.16,98.9675a11.413,11.413,0,0,0-11.4,11.4V124.67a11.4122,11.4122,0,0,0,11.4,11.3994h72.1245a11.4122,11.4122,0,0,0,11.4-11.3994V110.3679a11.413,11.413,0,0,0-11.4-11.4Z"/></g><path class="cls-51" d="M743.1941,6C769.198,6,790.28,27.082,790.28,58.0859V736.532c0,21.0061-21.082,42.0859-47.0859,42.0859H53.0859A47.0857,47.0857,0,0,1,6,731.532V53.0859A47.0871,47.0871,0,0,1,53.0859,6H743.1941M700.1606,139.0693h72.1243a14.4,14.4,0,0,0,14.4-14.4V110.3677a14.4,14.4,0,0,0-14.4-14.4H700.1606a14.4,14.4,0,0,0-14.4,14.4v14.3015a14.4,14.4,0,0,0,14.4,14.4M622.774,770.4187h34.3016a14.4,14.4,0,0,0,14.4-14.4V693.8945a14.4,14.4,0,0,0-14.4-14.4H622.774a14.4,14.4,0,0,0-14.4,14.4v62.1243a14.4,14.4,0,0,0,14.4,14.4M743.1941,0H53.0859A53.146,53.146,0,0,0,0,53.0859V731.532a53.146,53.146,0,0,0,53.0859,53.0859H743.1941a54.8827,54.8827,0,0,0,37.3726-14.7646c9.986-9.2534,15.7133-21.3985,15.7133-33.3213V58.0859c0-16.2685-5.47-31.0991-15.4014-41.7595A50.9539,50.9539,0,0,0,743.1941,0ZM700.1606,133.0693a8.41,8.41,0,0,1-8.4-8.4V110.3677a8.4093,8.4093,0,0,1,8.4-8.4h72.1243a8.4093,8.4093,0,0,1,8.4,8.4v14.3015a8.41,8.41,0,0,1-8.4,8.4ZM622.774,764.4187a8.41,8.41,0,0,1-8.4-8.4V693.8945a8.41,8.41,0,0,1,8.4-8.4h34.3016a8.41,8.41,0,0,1,8.4,8.4v62.1243a8.41,8.41,0,0,1-8.4,8.4Z"/></g><g id="Edge_Fix_TOP_" data-name="Edge Fix (TOP)"><path class="cls-12" d="M-.8689-1.5509v787.72H797.1489V-1.5509ZM748.8779,777.2662,50.8551,777.78C25.0707,775.7153,9.14,757.6163,5.9782,732.64L6.7421,46.9749c2.03-21.1,20.1644-39.3677,40.9884-41.6014l700.17.1456c21.0427,2.4862,38.8976,20.007,41.9894,40.9877l.0759,684.1015C789.9913,755.8423,773.8058,773.01,748.8779,777.2662Z"/></g></svg>