<svg xmlns="http://www.w3.org/2000/svg" viewBox="0 0 796.28 784.6179"><defs><style>.cls-1{fill:#434343;}.cls-2{fill:#4f4e51;}.cls-3{fill:#323031;}.cls-4{fill:#424242;}.cls-5{fill:#6a5f27;}.cls-6{fill:#5a5a5d;}.cls-7{fill:#f2f2f2;}.cls-8{fill:#221f1f;}.cls-13,.cls-31,.cls-32,.cls-42,.cls-43,.cls-46,.cls-47,.cls-49,.cls-9{fill:none;}.cls-9{stroke:#5a5a5d;stroke-width:5.416px;}.cls-13,.cls-9{stroke-miterlimit:10;}.cls-10{font-size:16.248px;}.cls-10,.cls-11,.cls-12,.cls-16,.cls-18,.cls-23,.cls-30,.cls-33,.cls-34,.cls-35,.cls-37,.cls-38,.cls-39,.cls-40,.cls-41,.cls-44{fill:#fff;}.cls-10,.cls-11,.cls-16,.cls-18,.cls-23,.cls-30,.cls-34,.cls-35,.cls-37,.cls-40,.cls-41,.cls-44{font-family:Verdana;}.cls-11{font-size:10.832px;}.cls-13,.cls-32,.cls-33,.cls-38,.cls-39,.cls-46,.cls-47,.cls-49{stroke:#fff;}.cls-13{stroke-width:2.708px;}.cls-14{letter-spacing:0.009em;}.cls-15{letter-spacing:-0.058em;}.cls-16{font-size:15.9201px;}.cls-17{letter-spacing:-0.031em;}.cls-18{font-size:11.7401px;}.cls-19{fill:#9b9b9b;}.cls-20{fill:#171717;}.cls-21{fill:#f3ea07;}.cls-22{fill:#7cc244;}.cls-23{font-size:32.496px;}.cls-24{letter-spacing:-0.013em;}.cls-25{letter-spacing:0em;}.cls-26{fill:#51545a;}.cls-27{fill:#3c3d42;}.cls-28{fill:#5a5d65;}.cls-29{fill:#23446c;}.cls-30{font-size:11.1981px;}.cls-31,.cls-42{stroke:#f1f2f2;}.cls-31,.cls-32,.cls-33,.cls-39,.cls-42,.cls-43,.cls-46{stroke-miterlimit:2;}.cls-32,.cls-33,.cls-38,.cls-39,.cls-42,.cls-43,.cls-49{stroke-width:0.686px;}.cls-33,.cls-38,.cls-47{stroke-linecap:round;}.cls-34{font-size:10.9221px;}.cls-35{font-size:11.699px;}.cls-36{letter-spacing:-0.019em;}.cls-37{font-size:10.9278px;}.cls-38,.cls-47,.cls-49{stroke-linejoin:round;}.cls-40{font-size:9.9074px;}.cls-41{font-size:9.6078px;}.cls-43{stroke:#020202;}.cls-44{font-size:11.4352px;}.cls-45{letter-spacing:-0.02em;}.cls-46{stroke-width:0.588px;}.cls-47{stroke-width:0.506px;}.cls-48{fill:#231f20;}.cls-50{opacity:0.33;}.cls-51{fill:#00aeef;}</style></defs><g id="roboRIO"><path class="cls-1" d="M744.9594,779.1809,45.741,780.112a41.8157,41.8157,0,0,1-41.76-41.8712V47.3082A41.8157,41.8157,0,0,1,45.741,5.437l704.5444-.9311a41.8157,41.8157,0,0,1,41.76,41.8712V731.97c2.3995,27.8894-12.3474,47.6874-38.9832,47.21"/><rect class="cls-2" x="16.3755" y="20.0918" width="763.4358" height="747.9174" rx="29.4466"/><rect class="cls-3" x="22.776" y="281.3027" width="46.329" height="413.1708"/><path class="cls-4" d="M551.7751,138.5464H239.4211a19.4986,19.4986,0,0,1-19.4981-19.4978V38.5224a19.4986,19.4986,0,0,1,19.4981-19.498h312.354a19.4985,19.4985,0,0,1,19.4978,19.498v80.5262a19.4985,19.4985,0,0,1-19.4978,19.4978"/><rect class="cls-3" x="254.4372" y="523.7256" width="279.7219" height="51.5601"/><path class="cls-5" d="M48.42,303.8725a2.7241,2.7241,0,1,1-2.7241-2.7238,2.723,2.723,0,0,1,2.7241,2.7238"/><path class="cls-5" d="M36.2281,303.8725a2.7241,2.7241,0,1,1-2.7222-2.7238,2.7212,2.7212,0,0,1,2.7222,2.7238"/><path class="cls-5" d="M61.1012,303.8725a2.7231,2.7231,0,1,1-2.7222-2.7238,2.7213,2.7213,0,0,1,2.7222,2.7238"/><path class="cls-5" d="M48.42,345.1043a2.7241,2.7241,0,1,1-2.7241-2.7237,2.7231,2.7231,0,0,1,2.7241,2.7237"/><path class="cls-5" d="M36.2281,345.1043a2.7241,2.7241,0,1,1-2.7222-2.7237,2.7213,2.7213,0,0,1,2.7222,2.7237"/><path class="cls-5" d="M61.1012,345.1043a2.7231,2.7231,0,1,1-2.7222-2.7237,2.7213,2.7213,0,0,1,2.7222,2.7237"/><path class="cls-5" d="M48.42,386.3361a2.7241,2.7241,0,1,1-2.7241-2.7235,2.723,2.723,0,0,1,2.7241,2.7235"/><path class="cls-5" d="M36.2281,386.3361a2.7241,2.7241,0,1,1-2.7222-2.7235,2.7212,2.7212,0,0,1,2.7222,2.7235"/><path class="cls-5" d="M61.1012,386.3361a2.7231,2.7231,0,1,1-2.7222-2.7235,2.7213,2.7213,0,0,1,2.7222,2.7235"/><path class="cls-5" d="M48.42,427.5678a2.7241,2.7241,0,1,1-2.7241-2.7232,2.723,2.723,0,0,1,2.7241,2.7232"/><path class="cls-5" d="M36.2281,427.5678a2.7241,2.7241,0,1,1-2.7222-2.7232,2.7212,2.7212,0,0,1,2.7222,2.7232"/><path class="cls-5" d="M61.1012,427.5678a2.7231,2.7231,0,1,1-2.7222-2.7232,2.7213,2.7213,0,0,1,2.7222,2.7232"/><path class="cls-5" d="M48.42,468.8a2.7241,2.7241,0,1,1-2.7241-2.723A2.723,2.723,0,0,1,48.42,468.8"/><path class="cls-5" d="M36.2281,468.8a2.7241,2.7241,0,1,1-2.7222-2.723,2.7212,2.7212,0,0,1,2.7222,2.723"/><path class="cls-5" d="M61.1012,468.8a2.7231,2.7231,0,1,1-2.7222-2.723,2.7213,2.7213,0,0,1,2.7222,2.723"/><path class="cls-5" d="M48.42,510.0313a2.7241,2.7241,0,1,1-2.7241-2.7228,2.723,2.723,0,0,1,2.7241,2.7228"/><path class="cls-5" d="M36.2281,510.0313a2.7241,2.7241,0,1,1-2.7222-2.7228,2.7212,2.7212,0,0,1,2.7222,2.7228"/><path class="cls-5" d="M61.1012,510.0313a2.7231,2.7231,0,1,1-2.7222-2.7228,2.7213,2.7213,0,0,1,2.7222,2.7228"/><path class="cls-5" d="M48.42,551.2631a2.7241,2.7241,0,1,1-2.7241-2.7226,2.7231,2.7231,0,0,1,2.7241,2.7226"/><path class="cls-5" d="M36.2281,551.2631a2.7241,2.7241,0,1,1-2.7222-2.7226,2.7213,2.7213,0,0,1,2.7222,2.7226"/><path class="cls-5" d="M61.1012,551.2631a2.7231,2.7231,0,1,1-2.7222-2.7226,2.7213,2.7213,0,0,1,2.7222,2.7226"/><path class="cls-5" d="M48.42,592.4948a2.7241,2.7241,0,1,1-2.7241-2.7223,2.723,2.723,0,0,1,2.7241,2.7223"/><path class="cls-5" d="M36.2281,592.4948a2.7241,2.7241,0,1,1-2.7222-2.7223,2.7212,2.7212,0,0,1,2.7222,2.7223"/><path class="cls-5" d="M61.1012,592.4948a2.7231,2.7231,0,1,1-2.7222-2.7223,2.7213,2.7213,0,0,1,2.7222,2.7223"/><path class="cls-5" d="M48.42,633.7266a2.7241,2.7241,0,1,1-2.7241-2.7221,2.7231,2.7231,0,0,1,2.7241,2.7221"/><path class="cls-5" d="M36.2281,633.7266a2.7241,2.7241,0,1,1-2.7222-2.7221,2.7213,2.7213,0,0,1,2.7222,2.7221"/><path class="cls-5" d="M61.1012,633.7266a2.7231,2.7231,0,1,1-2.7222-2.7221,2.7213,2.7213,0,0,1,2.7222,2.7221"/><path class="cls-5" d="M48.42,674.9583a2.7241,2.7241,0,1,1-2.7241-2.7219,2.723,2.723,0,0,1,2.7241,2.7219"/><path class="cls-5" d="M36.2281,674.9583a2.7241,2.7241,0,1,1-2.7222-2.7219,2.7212,2.7212,0,0,1,2.7222,2.7219"/><path class="cls-5" d="M61.1012,674.9583a2.7231,2.7231,0,1,1-2.7222-2.7219,2.7213,2.7213,0,0,1,2.7222,2.7219"/><rect class="cls-3" x="24.151" y="226.3096" width="45.05" height="36.188"/><path class="cls-5" d="M49.4,244.4038a2.7242,2.7242,0,1,1-2.7242-2.7219A2.7232,2.7232,0,0,1,49.4,244.4038"/><path class="cls-5" d="M37.2087,244.4038a2.7242,2.7242,0,1,1-2.7222-2.7219,2.7213,2.7213,0,0,1,2.7222,2.7219"/><path class="cls-5" d="M62.0817,244.4038a2.723,2.723,0,1,1-2.7222-2.7219,2.7213,2.7213,0,0,1,2.7222,2.7219"/><rect class="cls-3" x="24.151" y="162.9035" width="60.6521" height="39.05"/><path class="cls-5" d="M50.6715,182.4272a2.7241,2.7241,0,1,1-2.7241-2.7219,2.7247,2.7247,0,0,1,2.7241,2.7219"/><path class="cls-5" d="M38.48,182.4272a2.7241,2.7241,0,1,1-2.7221-2.7219,2.7229,2.7229,0,0,1,2.7221,2.7219"/><path class="cls-5" d="M63.3532,182.4272a2.7231,2.7231,0,1,1-2.7222-2.7219,2.7229,2.7229,0,0,1,2.7222,2.7219"/><path class="cls-5" d="M75.92,182.4272a2.7242,2.7242,0,1,1-2.7222-2.7219,2.7229,2.7229,0,0,1,2.7222,2.7219"/><rect class="cls-3" x="227.3765" y="711.0819" width="158.48" height="45.05"/><path class="cls-5" d="M245.4724,730.8837a2.7231,2.7231,0,1,1-2.7241,2.7221,2.7212,2.7212,0,0,1,2.7241-2.7221"/><path class="cls-5" d="M245.4724,743.0732a2.7241,2.7241,0,1,1-2.7241,2.7241,2.7216,2.7216,0,0,1,2.7241-2.7241"/><path class="cls-5" d="M245.4724,718.2a2.7241,2.7241,0,1,1-2.7241,2.7221,2.7212,2.7212,0,0,1,2.7241-2.7221"/><rect class="cls-3" x="267.8284" y="711.0819" width="36.188" height="45.05"/><path class="cls-5" d="M285.9236,730.8837a2.7231,2.7231,0,1,1-2.7222,2.7221,2.7229,2.7229,0,0,1,2.7222-2.7221"/><path class="cls-5" d="M285.9236,743.0732a2.7241,2.7241,0,1,1-2.7222,2.7241,2.7233,2.7233,0,0,1,2.7222-2.7241"/><path class="cls-5" d="M285.9236,718.2a2.7241,2.7241,0,1,1-2.7222,2.7221,2.7229,2.7229,0,0,1,2.7222-2.7221"/><rect class="cls-3" x="349.6685" y="711.0819" width="36.188" height="45.05"/><path class="cls-5" d="M367.7634,730.8837a2.7231,2.7231,0,1,1-2.7221,2.7221,2.7229,2.7229,0,0,1,2.7221-2.7221"/><path class="cls-5" d="M367.7634,743.0732a2.7241,2.7241,0,1,1-2.7221,2.7241,2.7233,2.7233,0,0,1,2.7221-2.7241"/><path class="cls-5" d="M367.7634,718.2a2.7241,2.7241,0,1,1-2.7221,2.7221,2.7229,2.7229,0,0,1,2.7221-2.7221"/><rect class="cls-3" x="308.7725" y="711.0819" width="36.188" height="45.05"/><path class="cls-5" d="M326.8669,730.8837a2.7231,2.7231,0,1,1-2.7221,2.7221,2.7213,2.7213,0,0,1,2.7221-2.7221"/><path class="cls-5" d="M326.8669,743.0732a2.7241,2.7241,0,1,1-2.7221,2.7241,2.7216,2.7216,0,0,1,2.7221-2.7241"/><path class="cls-5" d="M326.8669,718.2a2.7241,2.7241,0,1,1-2.7221,2.7221,2.7213,2.7213,0,0,1,2.7221-2.7221"/><rect class="cls-3" x="403.9051" y="710.9739" width="158.48" height="45.05"/><path class="cls-5" d="M421.9982,730.7757a2.7231,2.7231,0,1,1-2.7222,2.7221,2.7216,2.7216,0,0,1,2.7222-2.7221"/><path class="cls-5" d="M421.9982,742.9652a2.7241,2.7241,0,1,1-2.7222,2.7241,2.722,2.722,0,0,1,2.7222-2.7241"/><path class="cls-5" d="M421.9982,718.0921a2.7241,2.7241,0,1,1-2.7222,2.7221,2.7216,2.7216,0,0,1,2.7222-2.7221"/><rect class="cls-3" x="444.3571" y="710.9739" width="36.188" height="45.05"/><path class="cls-5" d="M462.4513,730.7757a2.7231,2.7231,0,1,1-2.7241,2.7221,2.7212,2.7212,0,0,1,2.7241-2.7221"/><path class="cls-5" d="M462.4513,742.9652a2.7241,2.7241,0,1,1-2.7241,2.7241,2.7216,2.7216,0,0,1,2.7241-2.7241"/><path class="cls-5" d="M462.4513,718.0921a2.7241,2.7241,0,1,1-2.7241,2.7221,2.7212,2.7212,0,0,1,2.7241-2.7221"/><rect class="cls-3" x="526.1971" y="710.9739" width="36.188" height="45.05"/><path class="cls-5" d="M544.2911,730.7757a2.7231,2.7231,0,1,1-2.7241,2.7221,2.7213,2.7213,0,0,1,2.7241-2.7221"/><path class="cls-5" d="M544.2911,742.9652a2.7241,2.7241,0,1,1-2.7241,2.7241,2.7216,2.7216,0,0,1,2.7241-2.7241"/><path class="cls-5" d="M544.2911,718.0921a2.7241,2.7241,0,1,1-2.7241,2.7221,2.7213,2.7213,0,0,1,2.7241-2.7221"/><rect class="cls-3" x="485.2992" y="710.9739" width="36.1899" height="45.05"/><path class="cls-5" d="M503.3946,730.7757a2.7231,2.7231,0,1,1-2.7241,2.7221,2.7212,2.7212,0,0,1,2.7241-2.7221"/><path class="cls-5" d="M503.3946,742.9652a2.7241,2.7241,0,1,1-2.7241,2.7241,2.7216,2.7216,0,0,1,2.7241-2.7241"/><path class="cls-5" d="M503.3946,718.0921a2.7241,2.7241,0,1,1-2.7241,2.7221,2.7212,2.7212,0,0,1,2.7241-2.7221"/><rect class="cls-6" x="28.9152" y="88.9116" width="43.512" height="24.8181"/><rect class="cls-7" x="38.6913" y="93.5657" width="27.9199" height="14.7339"/><path class="cls-8" d="M51.6813,101.3218a9.791,9.791,0,1,1-9.7922-9.792,9.79,9.79,0,0,1,9.7922,9.792"/><rect class="cls-6" x="28.9152" y="113.7297" width="43.512" height="24.8159"/><rect class="cls-7" x="38.6913" y="118.3838" width="27.9199" height="14.7339"/><path class="cls-8" d="M51.6813,126.1382a9.791,9.791,0,1,1-9.7922-9.792,9.7922,9.7922,0,0,1,9.7922,9.792"/><polygon class="cls-3" points="152.918 26.779 152.918 60.753 145.531 60.753 145.531 100.933 152.918 100.933 152.918 126.139 188.368 126.139 188.368 100.933 203.875 100.933 203.875 59.275 188.368 58.537 188.368 26.779 152.918 26.779"/><path class="cls-8" d="M180.4333,41.9136a9.7911,9.7911,0,1,1-9.7923-9.792,9.7923,9.7923,0,0,1,9.7923,9.792"/><path class="cls-8" d="M180.4333,110.9a9.7911,9.7911,0,1,1-9.7923-9.792,9.7909,9.7909,0,0,1,9.7923,9.792"/><rect class="cls-8" x="174.7052" y="65.0857" width="25.478" height="10.3379"/><rect class="cls-8" x="174.7052" y="83.5576" width="25.478" height="10.3401"/><path class="cls-7" d="M365.6411,621.8724h-3.0762a82.8494,82.8494,0,0,1-6.85-8.944h-.042v8.944H352.051v-15.27h3.3379c2.2041,2.706,5.4961,6.6759,6.5881,8.7479h.042v-8.7479h3.6221v15.27"/><path class="cls-7" d="M376.31,606.602l5.802,15.27h-4.886l-1.2-3.642h-4.7341l-1.4619,3.642h-3.5979l6.2158-15.27Zm-1.0259,9.206c-.5022-1.81-.9382-3.272-1.4841-5.454h-.044c-.5881,2.182-1.1121,3.644-1.68,5.454h3.208"/><polygon class="cls-7" points="383.573 621.872 383.573 609.46 379.167 609.46 379.167 606.603 392.583 606.603 392.583 609.46 388.177 609.46 388.177 621.872 383.573 621.872"/><rect class="cls-7" x="394.0659" y="606.6036" width="4.604" height="15.27"/><path class="cls-7" d="M399.7786,614.0638a7.592,7.592,0,1,1,15.1818,0c0,4.5581-2.9018,8.07-7.592,8.07s-7.59-3.512-7.59-8.07m10.382,0c0-2.7059-.8281-4.5379-2.7922-4.5379s-2.792,1.832-2.792,4.5379c0,2.8781.7422,4.8841,2.792,4.8841s2.7922-2.006,2.7922-4.8841"/><path class="cls-7" d="M429.6606,621.8724h-3.0742a82.35,82.35,0,0,1-6.85-8.944h-.044v8.944h-3.622v-15.27h3.3378c2.2041,2.706,5.4961,6.6759,6.5882,8.7479h.0439v-8.7479h3.62v15.27"/><path class="cls-7" d="M440.11,606.602l5.802,15.27h-4.884l-1.2019-3.642h-4.7341l-1.4619,3.642h-3.5979l6.2177-15.27Zm-1.0258,9.206c-.5-1.81-.9383-3.272-1.4822-5.454h-.044c-.59,2.182-1.112,3.644-1.6818,5.454h3.208"/><polygon class="cls-7" points="446.94 606.603 451.542 606.603 451.542 619.015 457.126 619.015 457.126 621.873 446.94 621.873 446.94 606.603"/><rect class="cls-7" x="345.178" y="626.6017" width="4.604" height="15.272"/><path class="cls-7" d="M365.3325,641.8724h-3.0742a82.6689,82.6689,0,0,1-6.8518-8.9459h-.042v8.9459h-3.6221V626.6H355.08c2.2041,2.7061,5.4981,6.6761,6.5882,8.7481h.0419V626.6h3.6221v15.272"/><path class="cls-7" d="M375.0415,629.765a4.3431,4.3431,0,0,0-2.248-.568c-.8941,0-1.3521.4381-1.3521.94,0,.848,1.2881,1.5479,2.772,2.92,1.96,1.834,2.4419,2.99,2.4419,4.584,0,1.35-1.1118,4.494-5.6939,4.494a7.7345,7.7345,0,0,1-4.7981-1.3981l1.396-2.53a4.3224,4.3224,0,0,0,2.616,1.068c.916,0,1.92-.458,1.92-1.5919,0-1.22-1.4842-2.1161-2.6822-3.162-1.592-1.396-2.532-2.2061-2.532-4.08,0-2.4439,2.4642-4.1019,5.346-4.1019a8.1258,8.1258,0,0,1,3.9922,1.026l-1.178,2.4"/><polygon class="cls-7" points="381.192 641.872 381.192 629.458 376.786 629.458 376.786 626.6 390.2 626.6 390.2 629.458 385.796 629.458 385.796 641.872 381.192 641.872"/><path class="cls-7" d="M391.6816,626.6H398.49c3.5979,0,5.54,1.572,5.54,4.08a4.58,4.58,0,0,1-2.5739,4.406l3.38,6.546-4.9279.5021-2.42-6.0441h-1.2019v5.782h-4.604Zm4.604,6.612h1.3079a1.8411,1.8411,0,0,0,1.832-1.876,1.6848,1.6848,0,0,0-1.9179-1.8779h-1.222v3.7539"/><path class="cls-7" d="M410.0083,626.6011v7.986c0,2.746.4138,4.362,2.356,4.362,1.5258,0,2.4-1.528,2.4-4.428v-7.92h3.97v9.228c0,4.56-3.0979,6.306-6.5879,6.306-3.904,0-6.7419-1.6379-6.7419-6.196v-9.338h4.604"/><path class="cls-7" d="M439.3052,641.8724h-4.6021v-10.69h-.042c-1.18,3.9919-2.4,7.352-3.624,10.69h-2.9c-1.2439-3.3379-2.4878-6.698-3.688-10.69h-.042v10.69h-3.6218V626.6h6.2377c1.0481,2.9241,2.094,5.8261,3.12,9.402h.0439c.9819-3.5759,2.0061-6.4779,3.01-9.402h6.1082v15.272"/><polygon class="cls-7" points="450.541 629.458 445.873 629.458 445.873 632.47 450.433 632.47 450.433 635.328 445.873 635.328 445.873 639.012 451.481 639.012 451.481 641.872 441.271 641.872 441.271 626.6 450.541 626.6 450.541 629.458"/><path class="cls-7" d="M465.8989,641.8724h-3.0762a82.6482,82.6482,0,0,1-6.85-8.9459h-.042v8.9459h-3.6221V626.6h3.3379c2.2041,2.7061,5.4961,6.6761,6.5882,8.7481h.042V626.6h3.622v15.272"/><polygon class="cls-7" points="471.135 641.872 471.135 629.458 466.729 629.458 466.729 626.6 480.145 626.6 480.145 629.458 475.739 629.458 475.739 641.872 471.135 641.872"/><path class="cls-7" d="M489.1528,629.765a4.3406,4.3406,0,0,0-2.2461-.568c-.896,0-1.354.4381-1.354.94,0,.848,1.2881,1.5479,2.77,2.92,1.9639,1.834,2.4439,2.99,2.4439,4.584,0,1.35-1.1118,4.494-5.6919,4.494a7.7362,7.7362,0,0,1-4.8-1.3981l1.3959-2.53a4.3327,4.3327,0,0,0,2.616,1.068c.916,0,1.92-.458,1.92-1.5919,0-1.22-1.4822-2.1161-2.6821-3.162-1.5921-1.396-2.532-2.2061-2.532-4.08,0-2.4439,2.466-4.1019,5.3459-4.1019a8.1258,8.1258,0,0,1,3.9922,1.026l-1.178,2.4"/><path class="cls-7" d="M491.5955,629.23v-2.16h-.82v-.276h2.0561v.276h-.8161v2.16Zm4.444,0h-.424v-1.7959h-.012l-.9641,1.7959h-.2l-.8959-1.7959h-.0081V629.23h-.344v-2.4359h.488l.918,1.826.9939-1.826h.4482V629.23"/><path class="cls-7" d="M328.4829,612.3666a5.8213,5.8213,0,0,1,4.2078-4.886c5.154-1.464,7.9121-1.194,17.154-1.27-5.54,4.9579-9.9638,12.77-8.9739,20.4139-1.99-1.63-3.3339-3.96-5.062-5.822a19.2547,19.2547,0,0,0,1.668-3.8879c.6121-2.3121,2.2781-2.8581,4.39-2.7941.1582.006-.124-1.78-.708-1.938-1.574-.426-2.906.08-4.7339-.626a2.2276,2.2276,0,0,0-1.7439.3321c-1.5.7659-2.45,2.4039-4.1382,2.922Z"/><path class="cls-7" d="M300.227,610.8705a25.0911,25.0911,0,0,1,9.9539-4.324c4.7161-.8619,9.8259-.926,13.3479,2.47,6.6541,6.4079,12.0422,13.1339,17.8782,20.4559.23.288.21,1.0761.01,1.19a83.7237,83.7237,0,0,1-12.6721,5.9339,2.1877,2.1877,0,0,1-2.03-.448c-6.6538-6.046-11.21-13.2819-17.5959-19.572a21.3219,21.3219,0,0,0-8.7239-5.186c-.2641-.0819-.312-.42-.168-.52"/><path class="cls-7" d="M323.481,640.3705a42.8288,42.8288,0,0,0-11.9383,12.718,26.5063,26.5063,0,0,1,.48-14.968c1.67-4.6759,1.99-9.216,2.212-14.09,3.0358,3.496,6.4819,7.36,9.32,10.866Z"/><rect class="cls-3" x="265.6032" y="533.7136" width="260.228" height="32.484"/><path class="cls-5" d="M284.3493,553.0326a1.9641,1.9641,0,1,1-1.9641,1.9641,1.9631,1.9631,0,0,1,1.9641-1.9641"/><path class="cls-5" d="M284.3493,542.9524a1.9641,1.9641,0,1,1-1.9641,1.9641,1.9618,1.9618,0,0,1,1.9641-1.9641"/><path class="cls-5" d="M296.4411,553.0326a1.9641,1.9641,0,1,1-1.9641,1.9641,1.9631,1.9631,0,0,1,1.9641-1.9641"/><path class="cls-5" d="M296.4411,542.9524a1.9641,1.9641,0,1,1-1.9641,1.9641,1.9618,1.9618,0,0,1,1.9641-1.9641"/><path class="cls-5" d="M311.3981,553.0209a1.9641,1.9641,0,1,1-1.9641,1.9641,1.9618,1.9618,0,0,1,1.9641-1.9641"/><path class="cls-5" d="M311.3981,542.9408a1.9641,1.9641,0,1,1-1.9641,1.9641,1.9618,1.9618,0,0,1,1.9641-1.9641"/><path class="cls-5" d="M323.49,553.0209a1.9641,1.9641,0,1,1-1.9622,1.9641,1.9618,1.9618,0,0,1,1.9622-1.9641"/><path class="cls-5" d="M323.49,542.9408a1.9641,1.9641,0,1,1-1.9622,1.9641,1.9618,1.9618,0,0,1,1.9622-1.9641"/><path class="cls-5" d="M339.0993,553.0209a1.9641,1.9641,0,1,1-1.9641,1.9641,1.9618,1.9618,0,0,1,1.9641-1.9641"/><path class="cls-5" d="M339.0993,542.9408a1.9641,1.9641,0,1,1-1.9641,1.962,1.9614,1.9614,0,0,1,1.9641-1.962"/><path class="cls-5" d="M351.1911,553.0209a1.9641,1.9641,0,1,1-1.9622,1.9641,1.9635,1.9635,0,0,1,1.9622-1.9641"/><path class="cls-5" d="M351.1911,542.9408a1.9641,1.9641,0,1,1-1.9622,1.962,1.963,1.963,0,0,1,1.9622-1.962"/><path class="cls-5" d="M366.4059,553.0209a1.9641,1.9641,0,1,1-1.9621,1.9641,1.9623,1.9623,0,0,1,1.9621-1.9641"/><path class="cls-5" d="M366.4059,542.9408a1.9641,1.9641,0,1,1-1.9621,1.962,1.9618,1.9618,0,0,1,1.9621-1.962"/><path class="cls-5" d="M381.0055,553.0209a1.9641,1.9641,0,1,1-1.9641,1.9641,1.9618,1.9618,0,0,1,1.9641-1.9641"/><path class="cls-5" d="M381.0055,542.9408a1.9641,1.9641,0,1,1-1.9641,1.962,1.9614,1.9614,0,0,1,1.9641-1.962"/><path class="cls-5" d="M395.4567,553.0209a1.9641,1.9641,0,1,1-1.9622,1.9641,1.9623,1.9623,0,0,1,1.9622-1.9641"/><path class="cls-5" d="M395.4567,542.9408a1.9641,1.9641,0,1,1-1.9622,1.9641,1.9623,1.9623,0,0,1,1.9622-1.9641"/><path class="cls-5" d="M408.3629,553.0228a1.963,1.963,0,1,1-1.9621,1.962,1.9619,1.9619,0,0,1,1.9621-1.962"/><path class="cls-5" d="M408.3629,542.9408a1.9641,1.9641,0,1,1-1.9621,1.9641,1.9623,1.9623,0,0,1,1.9621-1.9641"/><path class="cls-5" d="M421.58,553.0209a1.9641,1.9641,0,1,1-1.9641,1.9641,1.9632,1.9632,0,0,1,1.9641-1.9641"/><path class="cls-5" d="M421.58,542.9408a1.9641,1.9641,0,1,1-1.9641,1.9641,1.9619,1.9619,0,0,1,1.9641-1.9641"/><path class="cls-5" d="M434.5993,553.0209a1.9641,1.9641,0,1,1-1.9641,1.9641,1.9618,1.9618,0,0,1,1.9641-1.9641"/><path class="cls-5" d="M434.5993,542.9408a1.9641,1.9641,0,1,1-1.9641,1.9641,1.9618,1.9618,0,0,1,1.9641-1.9641"/><path class="cls-5" d="M449.4919,553.0209a1.9641,1.9641,0,1,1-1.9622,1.9641,1.9632,1.9632,0,0,1,1.9622-1.9641"/><path class="cls-5" d="M449.4919,542.9408a1.9641,1.9641,0,1,1-1.9622,1.9641,1.9619,1.9619,0,0,1,1.9622-1.9641"/><path class="cls-5" d="M462.6579,553.0209a1.9641,1.9641,0,1,1-1.9622,1.9641,1.9635,1.9635,0,0,1,1.9622-1.9641"/><path class="cls-5" d="M462.6579,542.9408a1.9641,1.9641,0,1,1-1.9622,1.9641,1.9635,1.9635,0,0,1,1.9622-1.9641"/><path class="cls-5" d="M475.652,553.0209a1.9641,1.9641,0,1,1-1.9641,1.9641,1.9631,1.9631,0,0,1,1.9641-1.9641"/><path class="cls-5" d="M475.652,542.9408a1.9641,1.9641,0,1,1-1.9641,1.9641,1.9618,1.9618,0,0,1,1.9641-1.9641"/><path class="cls-5" d="M489.7067,553.0228a1.963,1.963,0,1,1-1.9622,1.962,1.9619,1.9619,0,0,1,1.9622-1.962"/><path class="cls-5" d="M489.7067,542.9408a1.9641,1.9641,0,1,1-1.9622,1.9641,1.9623,1.9623,0,0,1,1.9622-1.9641"/><path class="cls-5" d="M502.6071,553.0228a1.963,1.963,0,1,1-1.9641,1.962,1.9614,1.9614,0,0,1,1.9641-1.962"/><path class="cls-5" d="M502.6071,542.9408a1.9641,1.9641,0,1,1-1.9641,1.9641,1.9618,1.9618,0,0,1,1.9641-1.9641"/><polyline class="cls-9" points="379.414 530.281 262.01 530.281 262.01 569.609 526.204 569.609 526.204 530.281 410.772 530.281"/><path class="cls-5" d="M270.6852,183.6694a9.3811,9.3811,0,1,1-9.38-9.38,9.3807,9.3807,0,0,1,9.38,9.38"/><path class="cls-8" d="M266.72,183.6694a5.4161,5.4161,0,1,1-5.416-5.4158,5.4161,5.4161,0,0,1,5.416,5.4158"/><path class="cls-5" d="M537.568,175.7436a9.3812,9.3812,0,1,1-13.268,0,9.3831,9.3831,0,0,1,13.268,0"/><path class="cls-8" d="M536.3512,182.3764a5.416,5.416,0,1,1-5.416-5.4157,5.4174,5.4174,0,0,1,5.416,5.4157"/><rect class="cls-3" x="605.7951" y="22.92" width="51.5581" height="119.2091"/><rect class="cls-3" x="615.7692" y="29.1855" width="32.4861" height="104.8621"/><polyline class="cls-9" points="612.349 88.185 612.349 135.493 651.675 135.493 651.675 29.037 612.349 29.037 612.349 75.551"/><text class="cls-10" transform="translate(76.8438 248.8621)">RS-232</text><text class="cls-10" transform="translate(95.3926 188.5305)">I</text><text class="cls-10" transform="translate(102.2314 183.1199) scale(0.583)">2</text><text class="cls-10" transform="translate(108.2534 188.5305)">C</text><text class="cls-10" transform="translate(34.5532 80.6277)">CAN</text><text class="cls-11" transform="translate(80.1401 103.9055)">L (GRN)</text><text class="cls-11" transform="translate(80.1401 128.7244)">H (YEL)</text><path class="cls-12" d="M103.8294,483.3889a4.493,4.493,0,0,1-1.8438,1.748,5.8305,5.8305,0,0,1-2.749.627H98.1731a5.8188,5.8188,0,0,1-2.7529-.627,4.48,4.48,0,0,1-1.8408-1.76,5.1609,5.1609,0,0,1-.65-2.6113v-3.1583h11.5517v3.2305A5.0017,5.0017,0,0,1,103.8294,483.3889Zm-4.5772,1.4082a5.1574,5.1574,0,0,0,2.3125-.4922,3.6349,3.6349,0,0,0,1.5391-1.3887,3.9309,3.9309,0,0,0,.5439-2.0781v-2.2539H93.7542v2.1817a4.0206,4.0206,0,0,0,.5556,2.1347,3.6774,3.6774,0,0,0,1.5547,1.4043,5.161,5.161,0,0,0,2.3086.4922Z"/><path class="cls-12" d="M92.929,488.469h11.5517v.9765H92.929Z"/><path class="cls-12" d="M95.2815,500.5647a4.4132,4.4132,0,0,1-1.8564-6.2949,4.3011,4.3011,0,0,1,1.86-1.5879,6.56,6.56,0,0,1,2.8008-.5625h1.2373a6.5913,6.5913,0,0,1,2.8008.5586,4.2983,4.2983,0,0,1,1.86,1.58,4.2489,4.2489,0,0,1,.6543,2.3516,4.1575,4.1575,0,0,1-2.5107,3.9512,6.646,6.646,0,0,1-2.8047.5547H98.0862A6.6725,6.6725,0,0,1,95.2815,500.5647Zm6.4219-.8379a3.3734,3.3734,0,0,0,1.5391-1.2168,3.3144,3.3144,0,0,0,.54-1.9,3.2562,3.2562,0,0,0-.54-1.873A3.4125,3.4125,0,0,0,101.7,493.52a6.0249,6.0249,0,0,0-2.36-.4258H98.0862a6.0068,6.0068,0,0,0-2.3682.43,3.45,3.45,0,0,0-1.5478,1.2246,3.2569,3.2569,0,0,0-.543,1.8769,3.3083,3.3083,0,0,0,.5391,1.9043,3.3449,3.3449,0,0,0,1.543,1.2051,6.2284,6.2284,0,0,0,2.3769.4141h1.2529A6.0524,6.0524,0,0,0,101.7034,499.7268Z"/><polyline class="cls-13" points="87.58 301.148 98.788 301.148 98.788 466.72"/><polyline class="cls-13" points="98.789 512.003 98.789 668.479 87.581 668.479"/><text class="cls-10" transform="translate(282.8096 686.3103)">RE<tspan class="cls-14" x="21.5713" y="0">L</tspan><tspan class="cls-15" x="30.7617" y="0">A</tspan><tspan x="40.9268" y="0">Y</tspan></text><polyline class="cls-13" points="244.767 691.81 244.767 682.936 275.485 682.936"/><polyline class="cls-13" points="339.615 682.935 367.481 682.935 367.481 692.909"/><text class="cls-16" transform="translate(439.164 688.0273)">ANA<tspan class="cls-17" x="33.6748" y="0">L</tspan><tspan x="42.043" y="0">OG IN</tspan></text><text class="cls-18" transform="translate(620.6895 698.9387)">RESET</text><text class="cls-18" transform="translate(676.8691 698.9368)">USER</text><polyline class="cls-13" points="421.203 691.743 421.203 683.484 435.233 683.484"/><polyline class="cls-13" points="534.062 682.386 547.994 682.386 547.994 692.91"/><rect class="cls-3" x="100.9859" y="711.0819" width="39.958" height="45.05"/><path class="cls-5" d="M120.9641,730.8817a2.7241,2.7241,0,1,1-2.7222,2.7241,2.7246,2.7246,0,0,1,2.7222-2.7241"/><path class="cls-5" d="M120.9641,743.0732a2.7241,2.7241,0,1,1-2.7222,2.722,2.7228,2.7228,0,0,1,2.7222-2.722"/><text class="cls-10" transform="translate(106.7095 699.0276)">RSL</text><text class="cls-10" transform="translate(699.9297 499.1184) rotate(-90)">PWM</text><polyline class="cls-13" points="704.341 668.388 693.133 668.388 693.133 507.371"/><polyline class="cls-13" points="693.132 452.228 693.132 295.795 704.34 295.795"/><path class="cls-5" d="M342.5446,89.0893a9.3811,9.3811,0,1,1-9.38-9.38,9.3807,9.3807,0,0,1,9.38,9.38"/><path class="cls-8" d="M338.58,89.0893a5.416,5.416,0,1,1-5.416-5.4157,5.4174,5.4174,0,0,1,5.416,5.4157"/><path class="cls-5" d="M342.5446,43.56a9.3811,9.3811,0,1,1-9.38-9.3779,9.3795,9.3795,0,0,1,9.38,9.3779"/><path class="cls-8" d="M338.58,43.56a5.416,5.416,0,1,1-5.416-5.4138A5.4162,5.4162,0,0,1,338.58,43.56"/><rect class="cls-19" x="234.5631" y="39.8296" width="66.468" height="53.384"/><polygon class="cls-20" points="252.103 45.289 283.307 45.289 290.877 53.045 290.877 87.755 244.719 87.755 244.719 53.229 252.103 45.289"/><path class="cls-5" d="M261.7516,71.187a1.9641,1.9641,0,1,1-1.9641,1.9622,1.9616,1.9616,0,0,1,1.9641-1.9622"/><path class="cls-5" d="M261.7516,61.1069a1.9641,1.9641,0,1,1-1.9641,1.9622,1.9616,1.9616,0,0,1,1.9641-1.9622"/><path class="cls-5" d="M273.8434,71.187a1.9641,1.9641,0,1,1-1.9621,1.9622,1.962,1.962,0,0,1,1.9621-1.9622"/><path class="cls-5" d="M273.8434,61.1069a1.9641,1.9641,0,1,1-1.9621,1.9622,1.962,1.962,0,0,1,1.9621-1.9622"/><rect class="cls-19" x="469.6313" y="28.9555" width="87.1479" height="94.458"/><rect class="cls-20" x="480.4333" y="65.8196" width="65.5459" height="38.1741"/><rect class="cls-20" x="495.0172" y="103.9936" width="36.0039" height="8.8621"/><rect class="cls-20" x="501.4792" y="112.8557" width="23.2639" height="7.386"/><rect class="cls-21" x="471.5692" y="103.9936" width="23.448" height="13.292"/><rect class="cls-22" x="531.0212" y="103.9936" width="23.45" height="13.292"/><rect class="cls-19" x="367.373" y="75.1155" width="75.3921" height="33.3101"/><rect class="cls-20" x="369.371" y="76.4577" width="71.4561" height="30.084"/><rect class="cls-19" x="367.4052" y="28.6355" width="75.3921" height="33.3101"/><rect class="cls-20" x="369.403" y="29.9775" width="71.4541" height="30.084"/><text class="cls-23" transform="translate(305.8943 249.387)">NI <tspan class="cls-24" x="49.4102" y="0">r</tspan><tspan class="cls-25" x="62.856" y="0">oboRIO</tspan></text><rect class="cls-6" x="372.3871" y="79.7075" width="65.3621" height="11.792"/><rect class="cls-6" x="372.3871" y="33.2297" width="65.3621" height="11.792"/><text class="cls-10" transform="translate(701.2314 95.0745)">POWER</text><rect class="cls-26" x="766.1288" y="81.7628" width="16.0342" height="15.1855"/><rect class="cls-27" x="781.2924" y="81.8822" width="10.6027" height="15.1855"/><text class="cls-10" transform="translate(696.2935 121.0339)">STATUS</text><rect class="cls-26" x="766.1288" y="107.7227" width="16.0342" height="15.1855"/><rect class="cls-27" x="781.2924" y="107.842" width="10.6027" height="15.1855"/><text class="cls-10" transform="translate(706.98 160.6868)">RADIO</text><rect class="cls-26" x="766.1288" y="147.6358" width="16.0342" height="15.1855"/><rect class="cls-27" x="781.2924" y="147.7552" width="10.6027" height="15.1855"/><text class="cls-10" transform="translate(710.0107 187.5559)">COMM</text><rect class="cls-26" x="766.1288" y="174.2446" width="16.0342" height="15.1855"/><rect class="cls-27" x="781.2924" y="174.3639" width="10.6027" height="15.1855"/><text class="cls-10" transform="translate(712.2559 215.468)">MODE</text><rect class="cls-26" x="766.1288" y="200.8534" width="16.0342" height="15.1855"/><rect class="cls-27" x="781.2924" y="200.9727" width="10.6027" height="15.1855"/><text class="cls-10" transform="translate(730.0605 256.0149)">RSL</text><rect class="cls-26" x="766.1288" y="241.3992" width="16.0342" height="15.1855"/><rect class="cls-27" x="781.2924" y="241.5185" width="10.6027" height="15.1855"/><rect class="cls-28" x="610.2521" y="708.0016" width="108.8485" height="50.9946" rx="9.8548"/><rect class="cls-29" x="624.5187" y="719.8473" width="27.1208" height="27.3032" rx="13.5604"/><rect class="cls-29" x="677.7132" y="719.8473" width="27.1208" height="27.3032" rx="13.5604"/><rect class="cls-3" x="717.9618" y="274.2426" width="46.329" height="413.1708"/><path class="cls-5" d="M743.6053,296.8124a2.7241,2.7241,0,1,1-2.7241-2.7239,2.723,2.723,0,0,1,2.7241,2.7239"/><path class="cls-5" d="M731.4139,296.8124a2.7241,2.7241,0,1,1-2.7222-2.7239,2.7212,2.7212,0,0,1,2.7222,2.7239"/><path class="cls-5" d="M756.2869,296.8124a2.723,2.723,0,1,1-2.7221-2.7239,2.7212,2.7212,0,0,1,2.7221,2.7239"/><path class="cls-5" d="M743.6053,338.0442a2.7241,2.7241,0,1,1-2.7241-2.7237,2.723,2.723,0,0,1,2.7241,2.7237"/><path class="cls-5" d="M731.4139,338.0442a2.7241,2.7241,0,1,1-2.7222-2.7237,2.7212,2.7212,0,0,1,2.7222,2.7237"/><path class="cls-5" d="M756.2869,338.0442a2.723,2.723,0,1,1-2.7221-2.7237,2.7212,2.7212,0,0,1,2.7221,2.7237"/><path class="cls-5" d="M743.6053,379.2759a2.7241,2.7241,0,1,1-2.7241-2.7234,2.7231,2.7231,0,0,1,2.7241,2.7234"/><path class="cls-5" d="M731.4139,379.2759a2.7241,2.7241,0,1,1-2.7222-2.7234,2.7213,2.7213,0,0,1,2.7222,2.7234"/><path class="cls-5" d="M756.2869,379.2759a2.723,2.723,0,1,1-2.7221-2.7234,2.7213,2.7213,0,0,1,2.7221,2.7234"/><path class="cls-5" d="M743.6053,420.5077a2.7241,2.7241,0,1,1-2.7241-2.7232,2.723,2.723,0,0,1,2.7241,2.7232"/><path class="cls-5" d="M731.4139,420.5077a2.7241,2.7241,0,1,1-2.7222-2.7232,2.7212,2.7212,0,0,1,2.7222,2.7232"/><path class="cls-5" d="M756.2869,420.5077a2.723,2.723,0,1,1-2.7221-2.7232,2.7212,2.7212,0,0,1,2.7221,2.7232"/><path class="cls-5" d="M743.6053,461.7394a2.7241,2.7241,0,1,1-2.7241-2.723,2.7231,2.7231,0,0,1,2.7241,2.723"/><path class="cls-5" d="M731.4139,461.7394a2.7241,2.7241,0,1,1-2.7222-2.723,2.7213,2.7213,0,0,1,2.7222,2.723"/><path class="cls-5" d="M756.2869,461.7394a2.723,2.723,0,1,1-2.7221-2.723,2.7213,2.7213,0,0,1,2.7221,2.723"/><path class="cls-5" d="M743.6053,502.9712a2.7241,2.7241,0,1,1-2.7241-2.7228,2.723,2.723,0,0,1,2.7241,2.7228"/><path class="cls-5" d="M731.4139,502.9712a2.7241,2.7241,0,1,1-2.7222-2.7228,2.7212,2.7212,0,0,1,2.7222,2.7228"/><path class="cls-5" d="M756.2869,502.9712a2.723,2.723,0,1,1-2.7221-2.7228,2.7212,2.7212,0,0,1,2.7221,2.7228"/><path class="cls-5" d="M743.6053,544.203a2.7241,2.7241,0,1,1-2.7241-2.7226,2.723,2.723,0,0,1,2.7241,2.7226"/><path class="cls-5" d="M731.4139,544.203a2.7241,2.7241,0,1,1-2.7222-2.7226,2.7212,2.7212,0,0,1,2.7222,2.7226"/><path class="cls-5" d="M756.2869,544.203a2.723,2.723,0,1,1-2.7221-2.7226,2.7212,2.7212,0,0,1,2.7221,2.7226"/><path class="cls-5" d="M743.6053,585.4347a2.7241,2.7241,0,1,1-2.7241-2.7224,2.723,2.723,0,0,1,2.7241,2.7224"/><path class="cls-5" d="M731.4139,585.4347a2.7241,2.7241,0,1,1-2.7222-2.7224,2.7212,2.7212,0,0,1,2.7222,2.7224"/><path class="cls-5" d="M756.2869,585.4347a2.723,2.723,0,1,1-2.7221-2.7224,2.7212,2.7212,0,0,1,2.7221,2.7224"/><path class="cls-5" d="M743.6053,626.6665a2.7241,2.7241,0,1,1-2.7241-2.7222,2.723,2.723,0,0,1,2.7241,2.7222"/><path class="cls-5" d="M731.4139,626.6665a2.7241,2.7241,0,1,1-2.7222-2.7222,2.7212,2.7212,0,0,1,2.7222,2.7222"/><path class="cls-5" d="M756.2869,626.6665a2.723,2.723,0,1,1-2.7221-2.7222,2.7212,2.7212,0,0,1,2.7221,2.7222"/><path class="cls-5" d="M743.6053,667.8982a2.7241,2.7241,0,1,1-2.7241-2.7219,2.7231,2.7231,0,0,1,2.7241,2.7219"/><path class="cls-5" d="M731.4139,667.8982a2.7241,2.7241,0,1,1-2.7222-2.7219,2.7213,2.7213,0,0,1,2.7222,2.7219"/><path class="cls-5" d="M756.2869,667.8982a2.723,2.723,0,1,1-2.7221-2.7219,2.7212,2.7212,0,0,1,2.7221,2.7219"/><text class="cls-10" transform="translate(80.1401 40.8093)">INPUT</text><text class="cls-30" transform="translate(80.1401 54.3831)">7-16V </text><line class="cls-31" x1="117.2594" y1="53.0062" x2="120.6405" y2="53.0062"/><line class="cls-31" x1="122.4995" y1="53.0062" x2="125.8764" y2="53.0062"/><line class="cls-31" x1="127.7436" y1="53.0062" x2="131.1247" y2="53.0062"/><line class="cls-31" x1="117.2595" y1="49.613" x2="131.1247" y2="49.613"/><text class="cls-30" transform="translate(80.1401 67.408)">45 W MAX</text><line class="cls-32" x1="138.2926" y1="182.8128" x2="138.2926" y2="207.2637"/><line class="cls-32" x1="151.9914" y1="157.4161" x2="151.9914" y2="180.4078"/><line class="cls-32" x1="165.6821" y1="180.9693" x2="165.6821" y2="203.98"/><line class="cls-32" x1="179.3728" y1="157.1767" x2="179.3728" y2="180.1671"/><line class="cls-32" x1="133.7429" y1="209.4068" x2="142.847" y2="209.4068"/><line class="cls-32" x1="131.5267" y1="207.2596" x2="145.0591" y2="207.2596"/><rect class="cls-33" x="136.5838" y="179.0339" width="3.423" height="3.4251"/><rect class="cls-12" x="150.2745" y="179.0339" width="3.4266" height="3.4251"/><rect class="cls-12" x="163.9699" y="179.0306" width="3.4251" height="3.425"/><rect class="cls-12" x="177.6681" y="179.0339" width="3.421" height="3.4251"/><polygon class="cls-32" points="131.892 163.626 131.892 197.859 185.766 197.851 185.766 163.626 131.892 163.626"/><text class="cls-34" transform="translate(155.8281 212.8899) scale(1 1.0622)">SCL</text><text class="cls-35" transform="translate(140.3877 153.2463) scale(1 1.0115)">3.3V S<tspan class="cls-36" x="39.2383" y="0">D</tspan><tspan x="48.0303" y="0">A</tspan></text><line class="cls-32" x1="135.7561" y1="211.558" x2="140.8298" y2="211.558"/><line class="cls-32" x1="151.2973" y1="244.2321" x2="151.2973" y2="268.5654"/><line class="cls-32" x1="164.9921" y1="244.6055" x2="164.9921" y2="276.192"/><line class="cls-32" x1="178.6828" y1="244.6056" x2="178.6828" y2="265.0422"/><line class="cls-32" x1="148.7605" y1="272.8636" x2="153.8341" y2="272.8636"/><line class="cls-32" x1="146.7473" y1="270.7124" x2="155.8514" y2="270.7124"/><line class="cls-32" x1="144.5311" y1="268.5653" x2="158.0635" y2="268.5653"/><rect class="cls-33" x="176.9746" y="240.8076" width="3.4251" height="3.4246"/><rect class="cls-33" x="149.5876" y="240.8076" width="3.4226" height="3.4246"/><rect class="cls-33" x="163.284" y="240.8076" width="3.421" height="3.4246"/><rect class="cls-32" x="144.4541" y="224.9974" width="41.0802" height="34.2324"/><text class="cls-35" transform="translate(168.1973 275.6057) scale(1 1.0115)">TXD</text><text class="cls-35" transform="translate(153.4424 286.5823) scale(1 1.0115)">RXD</text><line class="cls-32" x1="32.5133" y1="702.7697" x2="32.5133" y2="713.6679"/><line class="cls-32" x1="46.2161" y1="702.6966" x2="46.5327" y2="721.1078"/><line class="cls-32" x1="59.9068" y1="702.7697" x2="59.9068" y2="710.6156"/><line class="cls-32" x1="29.9765" y1="717.9703" x2="35.0501" y2="717.9703"/><line class="cls-32" x1="27.9632" y1="715.815" x2="37.0674" y2="715.815"/><line class="cls-32" x1="25.747" y1="713.6718" x2="39.2794" y2="713.6718"/><text class="cls-37" transform="translate(40.0957 731.262) scale(1 1.0056)">5V</text><text class="cls-37" transform="translate(56.4795 719.9465) scale(1 1.0056)">S</text><rect class="cls-38" x="58.3581" y="699.2341" width="3.1791" height="3.4581"/><rect class="cls-38" x="44.7849" y="699.4902" width="3.1791" height="3.4581"/><rect class="cls-38" x="31.0275" y="699.4452" width="3.1791" height="3.4581"/><line class="cls-32" x1="77.1155" y1="760.8555" x2="82.1891" y2="760.8555"/><line class="cls-32" x1="75.1022" y1="758.6961" x2="84.2064" y2="758.6961"/><line class="cls-32" x1="72.8901" y1="756.5531" x2="86.4225" y2="756.5531"/><line class="cls-32" x1="79.6563" y1="748.1714" x2="92.1942" y2="748.1714"/><line class="cls-32" x1="92.1294" y1="734.4239" x2="84.1252" y2="734.4239"/><line class="cls-32" x1="79.6523" y1="747.8258" x2="79.6523" y2="756.5531"/><line class="cls-32" x1="79.6564" y1="755.1771" x2="79.6564" y2="748.5206"/><text class="cls-37" transform="translate(75.9795 738.1838) scale(1 1.0056)">S</text><rect class="cls-38" x="92.1988" y="732.6197" width="3.1791" height="3.4581"/><rect class="cls-38" x="92.0172" y="746.4813" width="3.1791" height="3.4581"/><line class="cls-32" x1="199.9461" y1="760.8514" x2="205.0198" y2="760.8514"/><line class="cls-39" x1="197.9329" y1="758.6961" x2="207.037" y2="758.6961"/><line class="cls-32" x1="195.7207" y1="756.549" x2="209.2531" y2="756.549"/><line class="cls-32" x1="215.0656" y1="734.4239" x2="206.9558" y2="734.4239"/><line class="cls-32" x1="215.0656" y1="720.7007" x2="206.9558" y2="720.7007"/><polyline class="cls-32" points="202.487 756.549 202.487 747.973 215.066 747.973"/><text class="cls-40" transform="translate(182.3267 723.1824) scale(1 1.0605)">FWD</text><text class="cls-41" transform="translate(186.4014 737.115) scale(1 1.1297)">REV</text><rect class="cls-38" x="215.1796" y="718.8779" width="3.1791" height="3.4581"/><rect class="cls-38" x="214.8576" y="732.5914" width="3.1791" height="3.4581"/><rect class="cls-38" x="214.8288" y="746.3382" width="3.1791" height="3.4581"/><line class="cls-42" x1="587.6978" y1="761.0056" x2="592.7714" y2="761.0056"/><line class="cls-42" x1="585.6886" y1="758.8544" x2="594.7927" y2="758.8544"/><line class="cls-42" x1="583.4724" y1="756.7073" x2="597.0047" y2="756.7073"/><line class="cls-42" x1="585.8307" y1="734.225" x2="577.8062" y2="734.225"/><line class="cls-42" x1="585.8266" y1="720.6601" x2="577.8021" y2="720.6601"/><polyline class="cls-42" points="590.239 756.707 590.239 748.184 577.806 748.184"/><text class="cls-40" transform="translate(586.7065 723.5276) scale(1 1.0605)">S</text><text class="cls-41" transform="translate(587.3628 737.7009) scale(1 1.1297)">5V</text><rect class="cls-38" x="574.3906" y="718.8331" width="3.1791" height="3.4581"/><rect class="cls-38" x="574.5987" y="732.361" width="3.1791" height="3.4581"/><rect class="cls-38" x="574.5519" y="746.3052" width="3.1791" height="3.4581"/><line class="cls-32" x1="751.4099" y1="713.3808" x2="756.4835" y2="713.3808"/><line class="cls-32" x1="749.4008" y1="711.2337" x2="758.5007" y2="711.2337"/><line class="cls-32" x1="747.1886" y1="709.0866" x2="760.7209" y2="709.0866"/><line class="cls-32" x1="726.5525" y1="698.1114" x2="726.5525" y2="706.0222"/><line class="cls-32" x1="740.2473" y1="698.1722" x2="740.2473" y2="716.3115"/><line class="cls-32" x1="753.9379" y1="698.1114" x2="753.9379" y2="709.4561"/><text class="cls-37" transform="translate(723.2422 715.365) scale(1 1.0056)">S</text><text class="cls-37" transform="translate(734.061 726.3728) scale(1 1.0056)">6V</text><rect class="cls-38" x="724.8527" y="694.8411" width="3.1791" height="3.4581"/><rect class="cls-38" x="738.6508" y="694.8411" width="3.1791" height="3.4581"/><rect class="cls-38" x="752.292" y="694.8411" width="3.1791" height="3.4581"/><path class="cls-43" d="M608.4348,650.4734a6.8485,6.8485,0,0,0,6.8555-6.8392"/><path class="cls-43" d="M608.4348,636.7828a6.8529,6.8529,0,0,0-6.8394,6.8515"/><text class="cls-44" transform="translate(558.2002 663.6775) scale(1 1.0349)"><tspan class="cls-45">A</tspan><tspan x="7.5884" y="0">CCELEROMETER</tspan></text><text class="cls-44" transform="translate(604.1157 610.5105) scale(1 1.0349)">Y</text><text class="cls-44" transform="translate(591.5674 638.1057) scale(1 1.0349)">Z</text><text class="cls-44" transform="translate(636.9126 647.5886) scale(1 1.0349)">X</text><line class="cls-46" x1="632.4513" y1="643.9751" x2="608.4387" y2="643.9751"/><line class="cls-46" x1="608.4348" y1="643.9751" x2="608.4348" y2="616.8698"/><path class="cls-32" d="M608.4348,650.4734a6.8453,6.8453,0,1,0-6.8394-6.8392A6.8485,6.8485,0,0,0,608.4348,650.4734Z"/><polyline class="cls-12" points="636.076 643.975 631.351 642.153 632.472 643.975 631.351 645.794"/><polyline class="cls-47" points="636.076 643.975 631.351 642.153 632.472 643.975 631.351 645.794"/><polyline class="cls-12" points="608.435 613.367 606.637 618.1 608.435 616.63 610.245 618.1 608.435 613.367"/><polyline class="cls-47" points="608.435 613.367 606.637 618.1 608.435 616.63 610.245 618.1 608.435 613.367"/><line class="cls-48" x1="631.3514" y1="645.7935" x2="636.0758" y2="643.9751"/><line class="cls-47" x1="631.3514" y1="645.7935" x2="636.0758" y2="643.9751"/><path class="cls-12" d="M608.4387,645.1806a1.5465,1.5465,0,1,0-1.5424-1.5464,1.5521,1.5521,0,0,0,1.5424,1.5464"/><path class="cls-32" d="M608.4387,645.1806a1.5465,1.5465,0,1,0-1.5424-1.5464A1.5521,1.5521,0,0,0,608.4387,645.1806Z"/><line class="cls-43" x1="613.1449" y1="272.0237" x2="654.225" y2="272.0237"/><line class="cls-32" x1="604.4143" y1="248.0518" x2="628.1021" y2="248.0518"/><line class="cls-32" x1="604.4143" y1="234.3571" x2="628.1021" y2="234.3571"/><line class="cls-32" x1="604.4146" y1="220.6664" x2="628.1024" y2="220.6664"/><line class="cls-32" x1="613.149" y1="169.3211" x2="613.149" y2="272.0237"/><line class="cls-32" x1="604.4143" y1="206.9757" x2="628.1021" y2="206.9757"/><line class="cls-32" x1="604.4143" y1="193.2891" x2="628.1021" y2="193.2891"/><line class="cls-32" x1="654.2294" y1="272.0354" x2="654.2294" y2="169.3329"/><line class="cls-43" x1="654.2292" y1="169.317" x2="613.149" y2="169.317"/><line class="cls-49" x1="638.8217" y1="248.06" x2="662.5134" y2="248.06"/><line class="cls-49" x1="604.4143" y1="248.0518" x2="628.1021" y2="248.0518"/><line class="cls-49" x1="604.4103" y1="234.3611" x2="628.098" y2="234.3611"/><line class="cls-49" x1="638.8176" y1="234.3611" x2="662.5093" y2="234.3611"/><line class="cls-49" x1="604.4103" y1="220.6704" x2="628.098" y2="220.6704"/><line class="cls-49" x1="638.8176" y1="220.6704" x2="662.5093" y2="220.6704"/><line class="cls-49" x1="593.5162" y1="184.4486" x2="593.5162" y2="193.3539"/><line class="cls-49" x1="604.4103" y1="206.9757" x2="628.098" y2="206.9757"/><line class="cls-49" x1="638.8176" y1="206.9757" x2="662.5093" y2="206.9757"/><line class="cls-49" x1="590.9753" y1="197.6563" x2="596.0529" y2="197.6563"/><line class="cls-49" x1="588.9702" y1="195.5051" x2="598.0702" y2="195.5051"/><line class="cls-49" x1="586.754" y1="193.358" x2="600.2822" y2="193.358"/><line class="cls-49" x1="604.4103" y1="193.2809" x2="628.098" y2="193.2809"/><line class="cls-49" x1="638.8176" y1="193.2809" x2="662.5093" y2="193.2809"/><rect class="cls-49" x="613.149" y="169.3212" width="41.0802" height="102.7025"/><text class="cls-35" transform="translate(664.6221 196.2122) scale(1 1.0115)">CS0</text><text class="cls-35" transform="translate(664.6157 209.8884) scale(1 1.0115)">CS1</text><text class="cls-35" transform="translate(664.6079 223.8308) scale(1 1.0115)">5V</text><text class="cls-35" transform="translate(664.6001 237.5852) scale(1 1.0115)">CS2</text><text class="cls-35" transform="translate(664.7925 251.2903) scale(1 1.0115)">CS3</text><text class="cls-35" transform="translate(572.627 210.8137) scale(1 1.0115)">SCLK</text><text class="cls-35" transform="translate(571.333 224.5105) scale(1 1.0115)">MOSI</text><text class="cls-35" transform="translate(571.3252 238.2649) scale(1 1.0115)">MISO</text><text class="cls-35" transform="translate(578.4531 252.4558) scale(1 1.0115)">3.3V</text><rect class="cls-38" x="626.4736" y="191.2647" width="3.1791" height="3.4581"/><rect class="cls-38" x="626.4736" y="204.9513" width="3.1791" height="3.4581"/><rect class="cls-38" x="626.4739" y="218.642" width="3.1791" height="3.4581"/><rect class="cls-38" x="626.4736" y="232.3327" width="3.1791" height="3.4581"/><rect class="cls-38" x="626.4736" y="246.0274" width="3.1791" height="3.4581"/><rect class="cls-38" x="637.1932" y="246.0356" width="3.1791" height="3.4581"/><rect class="cls-38" x="637.1891" y="232.3368" width="3.1791" height="3.4581"/><rect class="cls-38" x="637.1891" y="218.646" width="3.1791" height="3.4581"/><rect class="cls-38" x="637.1891" y="204.9513" width="3.1791" height="3.4581"/><rect class="cls-38" x="637.1891" y="191.2565" width="3.1791" height="3.4581"/><text class="cls-10" transform="translate(620.0332 158.9714)">SPI</text><path class="cls-5" d="M628.5207,58.0545a2.7241,2.7241,0,1,1-2.7241-2.7238,2.723,2.723,0,0,1,2.7241,2.7238"/><path class="cls-5" d="M641.2024,58.0545a2.7231,2.7231,0,1,1-2.7222-2.7238,2.7212,2.7212,0,0,1,2.7222,2.7238"/><path class="cls-5" d="M628.27,69.836a2.7242,2.7242,0,1,1-2.7242-2.7239A2.7231,2.7231,0,0,1,628.27,69.836"/><path class="cls-5" d="M640.952,69.836a2.7231,2.7231,0,1,1-2.7222-2.7239,2.7212,2.7212,0,0,1,2.7222,2.7239"/><path class="cls-5" d="M628.27,81.6174a2.7242,2.7242,0,1,1-2.7242-2.7239,2.7231,2.7231,0,0,1,2.7242,2.7239"/><path class="cls-5" d="M640.952,81.6174a2.7231,2.7231,0,1,1-2.7222-2.7239,2.7212,2.7212,0,0,1,2.7222,2.7239"/><path class="cls-5" d="M628.27,93.3989a2.7242,2.7242,0,1,1-2.7242-2.7239,2.7231,2.7231,0,0,1,2.7242,2.7239"/><path class="cls-5" d="M640.952,93.3989A2.7231,2.7231,0,1,1,638.23,90.675a2.7212,2.7212,0,0,1,2.7222,2.7239"/><path class="cls-5" d="M628.27,105.18a2.7242,2.7242,0,1,1-2.7242-2.7239A2.7231,2.7231,0,0,1,628.27,105.18"/><path class="cls-5" d="M640.72,105.18a2.723,2.723,0,1,1-2.7222-2.7239A2.7212,2.7212,0,0,1,640.72,105.18"/></g><g id="Shader"><g class="cls-50"><path class="cls-48" d="M53.0862,781.6179A50.1427,50.1427,0,0,1,3,731.532V53.0857A50.1427,50.1427,0,0,1,53.0862,3H743.1941C771.7478,3,793.28,26.6814,793.28,58.0857V736.532c0,11.09-5.3769,22.4336-14.7524,31.1211a51.8947,51.8947,0,0,1-35.3335,13.9648Zm569.688-99.123a11.4131,11.4131,0,0,0-11.4,11.3994v62.124a11.4134,11.4134,0,0,0,11.4,11.4h34.3012a11.413,11.413,0,0,0,11.4-11.4v-62.124a11.4127,11.4127,0,0,0-11.4-11.3994ZM699.6028,96.7371a11.4132,11.4132,0,0,0-11.4,11.4v14.3017a11.4124,11.4124,0,0,0,11.4,11.3994h72.1245a11.4125,11.4125,0,0,0,11.4-11.3994V108.1375a11.4133,11.4133,0,0,0-11.4-11.4Z"/></g><path class="cls-51" d="M743.1941,6C769.198,6,790.28,27.082,790.28,58.0859V736.532c0,21.0061-21.082,42.0859-47.0859,42.0859H53.0859A47.0857,47.0857,0,0,1,6,731.532V53.0859A47.0871,47.0871,0,0,1,53.0859,6H743.1941M699.6029,136.8389h72.1243a14.4,14.4,0,0,0,14.4-14.4V108.1372a14.4,14.4,0,0,0-14.4-14.4H699.6029a14.4,14.4,0,0,0-14.4,14.4v14.3015a14.4,14.4,0,0,0,14.4,14.4m-76.8289,633.58h34.3016a14.4,14.4,0,0,0,14.4-14.4V693.8945a14.4,14.4,0,0,0-14.4-14.4H622.774a14.4,14.4,0,0,0-14.4,14.4v62.1243a14.4,14.4,0,0,0,14.4,14.4M743.1941,0H53.0859A53.146,53.146,0,0,0,0,53.0859V731.532a53.146,53.146,0,0,0,53.0859,53.0859H743.1941a54.8827,54.8827,0,0,0,37.3726-14.7646c9.986-9.2534,15.7133-21.3985,15.7133-33.3213V58.0859c0-16.2685-5.47-31.0991-15.4014-41.7595A50.9539,50.9539,0,0,0,743.1941,0ZM699.6029,130.8389a8.41,8.41,0,0,1-8.4-8.4V108.1372a8.41,8.41,0,0,1,8.4-8.4h72.1243a8.41,8.41,0,0,1,8.4,8.4v14.3015a8.41,8.41,0,0,1-8.4,8.4Zm-76.8289,633.58a8.41,8.41,0,0,1-8.4-8.4V693.8945a8.41,8.41,0,0,1,8.4-8.4h34.3016a8.41,8.41,0,0,1,8.4,8.4v62.1243a8.41,8.41,0,0,1-8.4,8.4Z"/></g><g id="Edge_Fix_TOP_" data-name="Edge Fix (TOP)"><path class="cls-12" d="M-.8689-1.5509v787.72H797.1489V-1.5509ZM748.8779,777.2662,50.8551,777.78C25.0707,775.7153,9.14,757.6163,5.9782,732.64L6.7421,46.9749c2.03-21.1,20.1644-39.3677,40.9884-41.6014l700.17.1456c21.0427,2.4862,38.8976,20.007,41.9894,40.9877l.0759,684.1015C789.9913,755.8423,773.8058,773.01,748.8779,777.2662Z"/></g></svg>