<svg id="Layer_1" data-name="Layer 1" xmlns="http://www.w3.org/2000/svg" viewBox="0 0 471.1048 444.7286"><defs><style>.cls-1{fill:#434343;}.cls-2{fill:#4f4e51;}.cls-3{fill:#323031;}.cls-4{fill:#6a5f27;}.cls-10,.cls-5,.cls-7,.cls-9{fill:#fff;}.cls-14,.cls-15,.cls-16,.cls-6,.cls-8{fill:none;}.cls-10,.cls-6,.cls-8{stroke:#fff;}.cls-6{stroke-miterlimit:10;stroke-width:4.0289px;}.cls-7{font-size:24.1731px;}.cls-11,.cls-17,.cls-7,.cls-9{font-family:Heebo-Light, Heebo;font-weight:300;}.cls-8{stroke-miterlimit:2;}.cls-10,.cls-8{stroke-width:1.0206px;}.cls-9{font-size:16.258px;}.cls-10,.cls-14,.cls-15,.cls-16{stroke-linecap:round;stroke-linejoin:round;}.cls-11,.cls-17{font-size:32.496px;fill:#010101;}.cls-12{letter-spacing:0.001em;}.cls-13{fill:#221f1f;}.cls-14{stroke:#babcbe;}.cls-14,.cls-15,.cls-16{stroke-width:8.124px;}.cls-15{stroke:#e9262a;}.cls-16{stroke:#231f20;}.cls-17{letter-spacing:0.001em;}.cls-18{fill:#030304;}.cls-19{fill:#e9e8e8;}.cls-20{fill:#6d6d6d;}.cls-21{fill:#efe8ce;}.cls-22{fill:#e6e7e8;}.cls-23{fill:#f7dca0;}.cls-24{fill:#fbeeb8;}</style></defs><path class="cls-1" d="M486.4848-940.2921,487.87,99.9785a62.2118,62.2118,0,0,1-62.2943,62.129H-602.3675a62.2119,62.2119,0,0,1-62.2944-62.129l-1.3852-1048.1943a62.2117,62.2117,0,0,1,62.2943-62.1289H416.2456c41.4928-3.57,70.9476,18.37,70.2368,57.9977"/><rect class="cls-2" x="-654.4029" y="-980.5995" width="1135.8106" height="1112.723" rx="43.8095" transform="translate(337.7404 -510.7355) rotate(-90)"/><rect class="cls-3" x="-254.2394" y="65.2184" width="614.6998" height="68.9265"/><path class="cls-4" d="M24.7113,95.9935a4.0529,4.0529,0,1,1-4.0512,4.0528,4.0512,4.0512,0,0,1,4.0512-4.0528"/><path class="cls-4" d="M24.7113,114.1314a4.0529,4.0529,0,1,1-4.0512,4.05,4.0485,4.0485,0,0,1,4.0512-4.05"/><path class="cls-4" d="M24.7113,77.1262a4.0512,4.0512,0,1,1-4.0512,4.05,4.0485,4.0485,0,0,1,4.0512-4.05"/><path class="cls-4" d="M86.0543,95.9935a4.0529,4.0529,0,1,1-4.0509,4.0528,4.0512,4.0512,0,0,1,4.0509-4.0528"/><path class="cls-4" d="M86.0543,114.1314a4.0529,4.0529,0,1,1-4.0509,4.05,4.0485,4.0485,0,0,1,4.0509-4.05"/><path class="cls-4" d="M86.0543,77.1262a4.0512,4.0512,0,1,1-4.0509,4.05,4.0485,4.0485,0,0,1,4.0509-4.05"/><path class="cls-4" d="M147.3973,95.9935a4.0529,4.0529,0,1,1-4.05,4.0528,4.0513,4.0513,0,0,1,4.05-4.0528"/><path class="cls-4" d="M147.3973,114.1314a4.0529,4.0529,0,1,1-4.05,4.05,4.0486,4.0486,0,0,1,4.05-4.05"/><path class="cls-4" d="M147.3973,77.1262a4.0512,4.0512,0,1,1-4.05,4.05,4.0486,4.0486,0,0,1,4.05-4.05"/><path class="cls-4" d="M208.74,95.9935a4.0529,4.0529,0,1,1-4.05,4.0528,4.0512,4.0512,0,0,1,4.05-4.0528"/><path class="cls-4" d="M208.74,114.1314a4.0529,4.0529,0,1,1-4.05,4.05,4.0485,4.0485,0,0,1,4.05-4.05"/><path class="cls-4" d="M208.74,77.1262a4.0512,4.0512,0,1,1-4.05,4.05,4.0485,4.0485,0,0,1,4.05-4.05"/><path class="cls-4" d="M270.0834,95.9935a4.0529,4.0529,0,1,1-4.05,4.0528,4.0512,4.0512,0,0,1,4.05-4.0528"/><path class="cls-4" d="M270.0834,114.1314a4.0529,4.0529,0,1,1-4.05,4.05,4.0485,4.0485,0,0,1,4.05-4.05"/><path class="cls-4" d="M270.0834,77.1262a4.0512,4.0512,0,1,1-4.05,4.05,4.0485,4.0485,0,0,1,4.05-4.05"/><path class="cls-4" d="M331.4264,95.9935a4.0529,4.0529,0,1,1-4.05,4.0528,4.0512,4.0512,0,0,1,4.05-4.0528"/><path class="cls-4" d="M331.4264,114.1314a4.0529,4.0529,0,1,1-4.05,4.05,4.0485,4.0485,0,0,1,4.05-4.05"/><path class="cls-4" d="M331.4264,77.1262a4.0512,4.0512,0,1,1-4.05,4.05,4.0485,4.0485,0,0,1,4.05-4.05"/><path class="cls-5" d="M46.4167,13.5568A6.6848,6.6848,0,0,1,49.0174,16.3a8.6749,8.6749,0,0,1,.9328,4.09V21.972a8.6583,8.6583,0,0,1-.9328,4.0957,6.6668,6.6668,0,0,1-2.6181,2.7387,7.6792,7.6792,0,0,1-3.885.9676H37.8156V12.5877h4.8062A7.4411,7.4411,0,0,1,46.4167,13.5568Zm2.0951,6.81a7.672,7.672,0,0,0-.7323-3.44,5.4077,5.4077,0,0,0-2.066-2.29,5.8485,5.8485,0,0,0-3.0917-.8093H39.2685V28.5463h3.2458A5.9818,5.9818,0,0,0,45.69,27.72a5.47,5.47,0,0,0,2.0892-2.313,7.6775,7.6775,0,0,0,.7323-3.4346Z"/><path class="cls-5" d="M53.9747,29.774V12.5877h1.4529V29.774Z"/><path class="cls-5" d="M71.97,26.274a6.5658,6.5658,0,0,1-9.3654,2.7619,6.4,6.4,0,0,1-2.3624-2.7677,9.7594,9.7594,0,0,1-.8368-4.1669V20.2605a9.8073,9.8073,0,0,1,.831-4.1669,6.3945,6.3945,0,0,1,2.3508-2.7678,6.3223,6.3223,0,0,1,3.4986-.9734,6.1852,6.1852,0,0,1,5.8784,3.7353,9.8871,9.8871,0,0,1,.8252,4.1728v1.8408A9.9275,9.9275,0,0,1,71.97,26.274ZM70.7236,16.72a5.0175,5.0175,0,0,0-1.81-2.29,4.93,4.93,0,0,0-2.8273-.8035,4.8438,4.8438,0,0,0-2.7867.8035,5.0772,5.0772,0,0,0-1.81,2.2956,8.9632,8.9632,0,0,0-.6334,3.5116v1.8641a8.9378,8.9378,0,0,0,.6392,3.5232,5.1352,5.1352,0,0,0,1.822,2.3029,4.8454,4.8454,0,0,0,2.7924.8078,4.9231,4.9231,0,0,0,2.8332-.802,4.9773,4.9773,0,0,0,1.7928-2.2956,9.2654,9.2654,0,0,0,.6161-3.5363V20.2372A9.0032,9.0032,0,0,0,70.7236,16.72Z"/><polyline class="cls-6" points="-224.714 37.732 -224.714 21.058 21.617 21.058"/><polyline class="cls-6" points="88.988 21.056 321.787 21.056 321.787 37.731"/><rect class="cls-3" x="385.1696" y="-41.6609" width="67.0237" height="59.448"/><text class="cls-7" transform="translate(367.2356 9.2711) rotate(-90)">RSL</text><line class="cls-8" x1="372.8031" y1="119.6582" x2="389.0171" y2="119.6582"/><line class="cls-8" x1="372.6943" y1="99.2716" x2="400.0859" y2="98.8007"/><line class="cls-8" x1="372.8031" y1="78.9031" x2="384.4759" y2="78.9031"/><line class="cls-8" x1="395.4179" y1="123.4323" x2="395.4179" y2="115.884"/><line class="cls-8" x1="392.2113" y1="126.4275" x2="392.2113" y2="112.8828"/><line class="cls-8" x1="389.0228" y1="129.7247" x2="389.0228" y2="109.5917"/><text class="cls-9" transform="translate(415.1946 108.3765) rotate(-90) scale(1 1.0056)">5V</text><text class="cls-9" transform="translate(398.3606 84.0015) rotate(-90) scale(1 1.0056)">S</text><rect class="cls-10" x="367.543" y="76.4775" width="5.1449" height="4.7297"/><rect class="cls-10" x="367.9239" y="96.6713" width="5.1449" height="4.7297"/><rect class="cls-10" x="367.857" y="117.1389" width="5.1449" height="4.7297"/><line class="cls-8" x1="459.221" y1="53.3007" x2="459.221" y2="45.7524"/><line class="cls-8" x1="456.0083" y1="56.2959" x2="456.0083" y2="42.7512"/><line class="cls-8" x1="452.82" y1="59.5871" x2="452.82" y2="39.4541"/><line class="cls-8" x1="440.3501" y1="49.5206" x2="440.3501" y2="30.8671"/><line class="cls-8" x1="419.897" y1="30.9636" x2="419.897" y2="42.8719"/><line class="cls-8" x1="439.8359" y1="49.5266" x2="452.82" y2="49.5266"/><line class="cls-8" x1="450.7729" y1="49.5205" x2="440.8696" y2="49.5205"/><text class="cls-9" transform="translate(425.4914 54.9879) rotate(-90) scale(1 1.0056)">S</text><rect class="cls-10" x="417.2128" y="26.1306" width="5.1449" height="4.7297"/><rect class="cls-10" x="437.8355" y="26.4008" width="5.1449" height="4.7297"/><text class="cls-11" transform="translate(284.611 206.1627)"><tspan class="cls-12">26 A</tspan><tspan x="64.4077" y="0">WG</tspan><tspan x="0" y="38.9951">minumum</tspan></text><rect class="cls-13" x="197.7386" y="68.665" width="28.2041" height="67.5751"/><line class="cls-14" x1="202.4052" y1="121.473" x2="202.4052" y2="250.5148"/><line class="cls-15" x1="211.8403" y1="98.3636" x2="211.8403" y2="238.8773"/><line class="cls-16" x1="220.8884" y1="84.1634" x2="220.8884" y2="227.2512"/><text class="cls-17" transform="translate(53.3278 426.1803)">WCP Hall Effect Sensor</text><rect class="cls-18" x="134.5668" y="269.8081" width="154.5477" height="112.7708"/><circle class="cls-19" cx="150.8973" cy="345.3218" r="12.8629"/><circle class="cls-19" cx="193.2411" cy="287.1635" r="3.7365"/><circle class="cls-19" cx="212.6421" cy="287.1635" r="3.7365"/><circle class="cls-19" cx="232.0431" cy="287.1635" r="3.7365"/><circle class="cls-19" cx="271.7487" cy="345.3218" r="12.8629"/><rect class="cls-20" x="176.3275" y="206.1637" width="71.9232" height="59.9748"/><rect class="cls-21" x="190.6155" y="266.1385" width="5.2511" height="21.025"/><rect class="cls-21" x="210.0165" y="266.1385" width="5.2511" height="21.025"/><rect class="cls-21" x="229.4175" y="266.1385" width="5.2511" height="21.025"/><path class="cls-22" d="M171.883,303.3834l1.2432-1.4639a4.7216,4.7216,0,0,0,3.1328,1.3721c1.3535,0,2.0967-.6143,2.0967-1.5518,0-.9892-.7764-1.3056-1.8682-1.7685l-1.6435-.7139a3.4486,3.4486,0,0,1-2.4317-3.1885c0-1.916,1.6924-3.3906,4.0381-3.3906a5.2685,5.2685,0,0,1,3.707,1.5342l-1.0957,1.3525a3.8755,3.8755,0,0,0-2.6113-1.0332c-1.14,0-1.8828.5332-1.8828,1.4121,0,.9453.916,1.2949,1.9121,1.7032l1.6221.68a3.3318,3.3318,0,0,1,2.4306,3.2442c0,1.9492-1.6181,3.5742-4.3173,3.5742A6.1954,6.1954,0,0,1,171.883,303.3834Z"/><path class="cls-22" d="M182.7239,292.899h2.1328v12.0254h-2.1328Z"/><path class="cls-22" d="M187.2746,298.9527c0-3.9355,2.4932-6.2744,5.6924-6.2744a4.9463,4.9463,0,0,1,3.6328,1.5225l-1.14,1.3759a3.2543,3.2543,0,0,0-2.4268-1.0449c-2.1338,0-3.5674,1.6553-3.5674,4.3545,0,2.7432,1.2725,4.4053,3.6846,4.4053a2.6965,2.6965,0,0,0,1.7139-.5293v-2.5967h-2.2656v-1.75h4.1777v5.3027a5.4659,5.4659,0,0,1-3.8389,1.4268C189.6936,305.1451,187.2746,302.9312,187.2746,298.9527Z"/><path class="cls-22" d="M202.03,303.52l.9854-1.3535a3.8675,3.8675,0,0,0,2.7353,1.25,2.1149,2.1149,0,0,0,2.2578-2.2432,2.0126,2.0126,0,0,0-2.1543-2.1846,3.0135,3.0135,0,0,0-1.8681.6553l-1.0078-.6474.3535-5.7735h6.2509v1.794h-4.413l-.25,2.8242a3.2815,3.2815,0,0,1,1.5449-.375,3.3949,3.3949,0,0,1,3.6777,3.6484,3.9352,3.9352,0,0,1-4.1191,4.03A5.3659,5.3659,0,0,1,202.03,303.52Z"/><path class="cls-22" d="M211.2444,295.8931h2.1474l1.4346,4.6846c.25.89.5146,1.8164.7646,2.7217h.0733c.251-.9053.5156-1.832.7656-2.7217l1.4336-4.6846h2.0449l-3.0674,9.0313h-2.4482Z"/><path class="cls-22" d="M224.6946,298.9527c0-3.9355,2.4931-6.2744,5.6923-6.2744a4.9487,4.9487,0,0,1,3.6338,1.5225l-1.1406,1.3759a3.2509,3.2509,0,0,0-2.4268-1.0449c-2.1328,0-3.5673,1.6553-3.5673,4.3545,0,2.7432,1.2724,4.4053,3.6855,4.4053a2.6916,2.6916,0,0,0,1.7129-.5293v-2.5967H230.02v-1.75h4.1768v5.3027a5.4641,5.4641,0,0,1-3.8389,1.4268C227.1145,305.1451,224.6946,302.9312,224.6946,298.9527Z"/><path class="cls-22" d="M236.8694,292.899h2.1923l3.7354,6.76,1.2432,2.5664h.0742c-.1035-1.2432-.2725-2.7656-.2725-4.1035V292.899h2.03v12.0254H243.68l-3.7363-6.7695-1.2422-2.5567h-.0742c.1035,1.2725.2724,2.7217.2724,4.0606v5.2656h-2.03Z"/><path class="cls-22" d="M248.926,292.899h3.207c3.6846,0,5.8614,1.9863,5.8614,5.9648s-2.1768,6.0606-5.751,6.0606H248.926Zm3.0674,10.2969c2.42,0,3.81-1.375,3.81-4.3321s-1.39-4.2363-3.81-4.2363h-.9346v8.5684Z"/><rect class="cls-22" x="193.0501" y="317.3245" width="3.7365" height="15.8718"/><rect class="cls-22" x="207.4962" y="317.3245" width="6.0934" height="15.8718"/><rect class="cls-22" x="228.3025" y="317.3245" width="5.728" height="15.8718"/><rect class="cls-23" x="191.2536" y="344.3996" width="16.2427" height="4.916"/><rect class="cls-24" x="217.0166" y="344.3996" width="16.7755" height="4.916"/><rect class="cls-22" x="191.2536" y="358.0925" width="19.401" height="8.7137"/><rect class="cls-22" x="230.0556" y="355.0232" width="3.965" height="11.783"/></svg>