<svg xmlns="http://www.w3.org/2000/svg" viewBox="0 0 1219.333 782.046"><defs><style>.cls-10,.cls-12,.cls-8,.cls-9{fill:none}.cls-7{fill:#221f1f}.cls-8{stroke:#221f1f}.cls-10,.cls-12,.cls-8,.cls-9{stroke-linecap:round;stroke-linejoin:round}.cls-10,.cls-8,.cls-9{stroke-width:16.248px}.cls-9{stroke:#e9262a}.cls-10{stroke:#babcbe}.cls-11{font-size:64.992px;font-family:Verdana;letter-spacing:.001em}.cls-11,.cls-17{fill:#010101}.cls-12{stroke:#6d6e71;stroke-width:24px}.cls-13{fill:#38363d}.cls-14{fill:#5f5c65}.cls-16{fill:#1c1b20}</style></defs><g id="Layer_1" data-name="Layer 1"><path d="M1508.791-1833.5l2.771 2081.03c0 68.642-55.793 124.287-124.618 124.287h-2056.37c-68.824 0-124.618-55.645-124.618-124.287l-2.77-2096.882c0-68.642 55.793-124.287 124.617-124.287H1368.28c83.005-7.141 141.928 36.749 140.506 116.023" fill="#434343"/><rect x="-773.521" y="-1914.134" width="2272.156" height="2225.97" rx="87.64" transform="rotate(-90 362.557 -801.15)" fill="#4f4e51"/><path fill="#323031" d="M26.994 177.994h1229.689v137.885H26.994z"/><path d="M94.167 239.558a8.108 8.108 0 11-8.107 8.108 8.104 8.104 0 018.107-8.108m0 36.285a8.108 8.108 0 11-8.107 8.101 8.099 8.099 0 018.107-8.101m0-74.028a8.104 8.104 0 11-8.107 8.102 8.099 8.099 0 018.107-8.102m122.715 37.743a8.108 8.108 0 11-8.106 8.108 8.104 8.104 0 018.106-8.108m0 36.285a8.108 8.108 0 11-8.106 8.101 8.099 8.099 0 018.106-8.101m0-74.028a8.104 8.104 0 11-8.106 8.102 8.099 8.099 0 018.106-8.102m122.715 37.743a8.108 8.108 0 11-8.105 8.108 8.104 8.104 0 018.105-8.108m0 36.285a8.108 8.108 0 11-8.105 8.101 8.099 8.099 0 018.105-8.101m0-74.028a8.104 8.104 0 11-8.105 8.102 8.099 8.099 0 018.105-8.102m122.715 37.743a8.108 8.108 0 11-8.105 8.108 8.104 8.104 0 018.105-8.108m0 36.285a8.108 8.108 0 11-8.105 8.101 8.099 8.099 0 018.105-8.101m0-74.028a8.104 8.104 0 11-8.105 8.102 8.099 8.099 0 018.105-8.102m122.715 37.743a8.108 8.108 0 11-8.104 8.108 8.104 8.104 0 018.104-8.108m0 36.285a8.108 8.108 0 11-8.104 8.101 8.099 8.099 0 018.104-8.101m0-74.028a8.104 8.104 0 11-8.104 8.102 8.099 8.099 0 018.104-8.102m122.715 37.743a8.108 8.108 0 11-8.104 8.108 8.104 8.104 0 018.104-8.108m0 36.285a8.108 8.108 0 11-8.104 8.101 8.099 8.099 0 018.104-8.101m0-74.028a8.104 8.104 0 11-8.104 8.102 8.099 8.099 0 018.104-8.102m122.715 37.743a8.108 8.108 0 11-8.103 8.108 8.104 8.104 0 018.103-8.108m0 36.285a8.108 8.108 0 11-8.103 8.101 8.099 8.099 0 018.103-8.101m0-74.028a8.104 8.104 0 11-8.103 8.102 8.099 8.099 0 018.103-8.102m122.715 37.743a8.108 8.108 0 11-8.103 8.108 8.104 8.104 0 018.103-8.108m0 36.285a8.108 8.108 0 11-8.103 8.101 8.099 8.099 0 018.103-8.101m0-74.028a8.104 8.104 0 11-8.103 8.102 8.099 8.099 0 018.103-8.102m122.715 37.743a8.108 8.108 0 11-8.102 8.108 8.104 8.104 0 018.102-8.108m0 36.285a8.108 8.108 0 11-8.102 8.101 8.099 8.099 0 018.102-8.101m0-74.028a8.104 8.104 0 11-8.102 8.102 8.099 8.099 0 018.102-8.102m122.715 37.743a8.108 8.108 0 11-8.102 8.108 8.104 8.104 0 018.102-8.108m0 36.285a8.108 8.108 0 11-8.102 8.101 8.099 8.099 0 018.102-8.101m0-74.028a8.104 8.104 0 11-8.102 8.102 8.099 8.099 0 018.102-8.102" fill="#6a5f27"/><path d="M628.448 74.646a13.372 13.372 0 015.203 5.488 17.353 17.353 0 011.866 8.181v3.165a17.319 17.319 0 01-1.866 8.194 13.336 13.336 0 01-5.238 5.478 15.36 15.36 0 01-7.772 1.936h-9.4v-34.38h9.615a14.886 14.886 0 017.592 1.938zm4.191 13.623a15.348 15.348 0 00-1.465-6.883 10.82 10.82 0 00-4.133-4.58 11.7 11.7 0 00-6.185-1.62h-6.708v29.446h6.493a11.966 11.966 0 006.354-1.654 10.943 10.943 0 004.18-4.627 15.358 15.358 0 001.464-6.87zm10.928 18.819v-34.38h2.907v34.38zm36-7.001a13.135 13.135 0 01-18.735 5.525 12.802 12.802 0 01-4.726-5.537 19.522 19.522 0 01-1.674-8.336v-3.682a19.619 19.619 0 011.662-8.336 12.792 12.792 0 014.703-5.537 12.647 12.647 0 016.999-1.947 12.374 12.374 0 0111.76 7.472 19.778 19.778 0 011.65 8.348v3.682a19.86 19.86 0 01-1.639 8.347zm-2.494-19.113a10.038 10.038 0 00-3.621-4.581 9.862 9.862 0 00-5.656-1.607 9.69 9.69 0 00-5.575 1.607 10.156 10.156 0 00-3.621 4.592 17.931 17.931 0 00-1.267 7.025v3.73a17.879 17.879 0 001.279 7.047 10.27 10.27 0 003.644 4.607 9.693 9.693 0 005.587 1.616 9.847 9.847 0 005.667-1.604 9.956 9.956 0 003.587-4.592 18.54 18.54 0 001.232-7.075V88.01a18.01 18.01 0 00-1.256-7.036z" fill="#fff"/><path d="M86.058 123.009V89.652h492.78m134.772-.004h465.709v33.358" stroke="#fff" stroke-miterlimit="10" stroke-width="8.06" fill="none"/><path class="cls-7" d="M178.748 188.677h56.408v135.15h-56.408z"/><path class="cls-8" d="M190.862 294.293V557.2h267.523"/><path class="cls-9" d="M206.951 248.074V520.96h251.434"/><path class="cls-10" d="M222.694 219.674v357.441l235.691-1.271"/><text class="cls-11" transform="translate(718.943 714.982)">IR Transmitter</text><text class="cls-11" transform="translate(718.943 575.974)">IR Reciver</text><path class="cls-12" d="M507.587 575.847l-82.811-.006m82.811-18.641l-82.811-.006m82.811-36.231l-82.811-.006"/><path class="cls-13" d="M668.78 500.583H507.04v100.742h161.74a21.6 21.6 0 0021.6-21.6v-57.542a21.6 21.6 0 00-21.6-21.6z"/><circle class="cls-14" cx="647.049" cy="550.954" r="36.313"/><circle cx="647.049" cy="550.954" r="12.415" fill="#cccdd1"/><circle class="cls-16" cx="552.935" cy="550.954" r="25.019"/><circle class="cls-17" cx="552.935" cy="550.954" r="12.415"/><path class="cls-7" d="M72.838 190.937h56.408v135.15H72.838z"/><path class="cls-8" d="M84.951 296.553v402.69h364.247"/><path class="cls-9" d="M101.041 250.334v412.669h348.157"/><path class="cls-10" d="M116.784 221.934v353.907"/><path class="cls-12" d="M507.587 699.879l-82.811-.006m82.811-36.231l-82.811-.006"/><path class="cls-13" d="M668.78 640.71H507.04v100.742h161.74a21.6 21.6 0 0021.6-21.6V662.31a21.6 21.6 0 00-21.6-21.6z"/><circle class="cls-14" cx="647.049" cy="691.081" r="36.313"/><circle cx="647.049" cy="691.081" r="12.415" fill="#0d0d0e"/><circle class="cls-16" cx="552.935" cy="691.081" r="25.019"/><circle class="cls-17" cx="552.935" cy="691.081" r="12.415"/></g></svg>