<svg xmlns="http://www.w3.org/2000/svg" viewBox="0 0 1196.961 786.566"><defs><style>.cls-30{fill:#fff;font-family:Verdana}.cls-16{fill:#f8f3f9}.cls-17{fill:#e0cea0}.cls-18{fill:#d0d5d5}.cls-19{fill:#371d1c}.cls-20{fill:#805b44}.cls-21{fill:#e9dba0}.cls-24{fill:#cfced5}.cls-28{fill:#2f2431}.cls-29{fill:#c9c9b5}.cls-30{font-size:24.46px;letter-spacing:.001em}</style></defs><g id="Layer_1" data-name="Layer 1"><path d="M1475.329-1869.656l2.777 2085.876c0 68.802-55.923 124.577-124.908 124.577H-707.96c-68.985 0-124.908-55.775-124.908-124.577l-2.778-2101.764c0-68.802 55.923-124.576 124.908-124.576H1334.49c83.198-7.158 142.259 36.834 140.834 116.292" fill="#434343"/><rect x="-812.297" y="-1950.477" width="2277.446" height="2231.152" rx="87.844" transform="rotate(-90 326.426 -834.901)" fill="#4f4e51"/><path fill="#323031" d="M-9.918 146.522h1232.552v138.206H-9.918z"/><path d="M57.41 208.23a8.127 8.127 0 11-8.125 8.127 8.123 8.123 0 018.126-8.127m-.001 36.368a8.127 8.127 0 11-8.125 8.121 8.118 8.118 0 018.126-8.12m-.001-74.201a8.123 8.123 0 11-8.125 8.12 8.118 8.118 0 018.126-8.12m123.001 37.832a8.127 8.127 0 11-8.126 8.127 8.123 8.123 0 018.126-8.127m0 36.368a8.127 8.127 0 11-8.126 8.121 8.118 8.118 0 018.126-8.12m0-74.201a8.123 8.123 0 11-8.126 8.12 8.118 8.118 0 018.126-8.12m123 37.832a8.127 8.127 0 11-8.124 8.127 8.123 8.123 0 018.124-8.127m0 36.368a8.127 8.127 0 11-8.124 8.121 8.118 8.118 0 018.124-8.12m0-74.201a8.123 8.123 0 11-8.124 8.12 8.118 8.118 0 018.124-8.12m123.001 37.832a8.127 8.127 0 11-8.124 8.127 8.123 8.123 0 018.124-8.127m0 36.368a8.127 8.127 0 11-8.124 8.121 8.118 8.118 0 018.124-8.12m0-74.201a8.123 8.123 0 11-8.124 8.12 8.118 8.118 0 018.124-8.12m123 37.832a8.127 8.127 0 11-8.123 8.127 8.123 8.123 0 018.124-8.127m-.001 36.368a8.127 8.127 0 11-8.123 8.121 8.118 8.118 0 018.124-8.12m-.001-74.201a8.123 8.123 0 11-8.123 8.12 8.118 8.118 0 018.124-8.12m123 37.832a8.127 8.127 0 11-8.122 8.127 8.123 8.123 0 018.122-8.127m0 36.368a8.127 8.127 0 11-8.122 8.121 8.118 8.118 0 018.122-8.12m0-74.201a8.123 8.123 0 11-8.122 8.12 8.118 8.118 0 018.122-8.12m123.001 37.832a8.127 8.127 0 11-8.122 8.127 8.123 8.123 0 018.122-8.127m0 36.368a8.127 8.127 0 11-8.122 8.121 8.118 8.118 0 018.122-8.12m0-74.201a8.123 8.123 0 11-8.122 8.12 8.118 8.118 0 018.122-8.12m123 37.832a8.127 8.127 0 11-8.12 8.127 8.123 8.123 0 018.12-8.127m0 36.368a8.127 8.127 0 11-8.12 8.121 8.118 8.118 0 018.12-8.12m0-74.201a8.123 8.123 0 11-8.12 8.12 8.118 8.118 0 018.12-8.12m123.001 37.832a8.127 8.127 0 11-8.12 8.127 8.123 8.123 0 018.12-8.127m0 36.368a8.127 8.127 0 11-8.12 8.121 8.118 8.118 0 018.12-8.12m0-74.201a8.123 8.123 0 11-8.12 8.12 8.118 8.118 0 018.12-8.12m123.001 37.832a8.127 8.127 0 11-8.12 8.127 8.123 8.123 0 018.12-8.127m0 36.368a8.127 8.127 0 11-8.12 8.121 8.118 8.118 0 018.12-8.12m0-74.201a8.123 8.123 0 11-8.12 8.12 8.118 8.118 0 018.12-8.12" fill="#6a5f27"/><path d="M592.936 42.934a13.403 13.403 0 015.214 5.5 17.394 17.394 0 011.87 8.2v3.173a17.359 17.359 0 01-1.87 8.212 13.367 13.367 0 01-5.25 5.492 15.396 15.396 0 01-7.79 1.94h-9.421V40.99h9.637a14.92 14.92 0 017.61 1.944zm4.2 13.654a15.384 15.384 0 00-1.468-6.899 10.845 10.845 0 00-4.142-4.591 11.727 11.727 0 00-6.2-1.623h-6.723V72.99h6.508a11.995 11.995 0 006.368-1.657 10.968 10.968 0 004.19-4.638 15.394 15.394 0 001.468-6.887zm10.954 18.863V40.99h2.913v34.461zm36.084-7.018a13.165 13.165 0 01-18.779 5.538 12.831 12.831 0 01-4.737-5.55 19.568 19.568 0 01-1.678-8.355v-3.69a19.666 19.666 0 011.666-8.356 12.823 12.823 0 014.714-5.55 12.676 12.676 0 017.015-1.952 12.402 12.402 0 0111.787 7.49 19.824 19.824 0 011.655 8.367v3.691a19.905 19.905 0 01-1.643 8.367zm-2.5-19.157a10.06 10.06 0 00-3.63-4.592 9.885 9.885 0 00-5.67-1.61 9.712 9.712 0 00-5.587 1.61 10.18 10.18 0 00-3.63 4.603 17.973 17.973 0 00-1.27 7.042v3.737a17.92 17.92 0 001.282 7.065 10.294 10.294 0 003.653 4.617 9.716 9.716 0 005.6 1.62 9.87 9.87 0 005.68-1.608 9.98 9.98 0 003.595-4.603 18.582 18.582 0 001.235-7.09v-3.739a18.05 18.05 0 00-1.258-7.052z" fill="#fff"/><path d="M49.283 91.409V57.974H543.21m135.086-.004h466.793v33.436" stroke="#fff" stroke-miterlimit="10" stroke-width="8.078" fill="none"/><text transform="rotate(-90 635.281 -600.94)" font-family="Verdana" font-size="48.47" fill="#fff">RSL</text><path fill="#221f1f" d="M10.611 154.381h56.408v135.15H10.611z"/><path stroke-width="16.248" stroke-linecap="round" stroke-linejoin="round" stroke="#221f1f" fill="none" d="M22.725 259.997v256.655h192.524"/><path stroke="#e9262a" stroke-width="16.248" stroke-linecap="round" stroke-linejoin="round" fill="none" d="M38.815 213.778v254.819h176.434"/><path stroke="#babcbe" stroke-width="16.248" stroke-linecap="round" stroke-linejoin="round" fill="none" d="M54.557 185.378v383.596l160.692-1.271"/><text transform="matrix(.9166 0 0 1 41.886 746.752)" font-size="64.992" fill="#010101" letter-spacing=".001em" font-family="Verdana">IR Digital Obstacle Avoidance Sensor</text><path d="M1056.58 654.1a47.82 47.82 0 0034.91-40.966c2.073-20.731-10.107-40.773-29.922-48.8H920.507v91.788z" fill="#34232b"/><path d="M1056.58 531.31a47.82 47.82 0 0034.91-40.965c2.073-20.732-10.107-40.774-29.922-48.802H920.507v91.79z" fill="#e0d8e3"/><path transform="rotate(180 630.664 535.761)" fill="#9a1b1e" d="M351.999 405.24H909.33v261.043H351.999z"/><circle class="cls-16" cx="879.885" cy="588.6" r="12.458"/><rect class="cls-17" x="878.803" y="585.814" width="46.538" height="5.572" rx="2.786" transform="rotate(180 902.072 588.6)"/><circle class="cls-16" cx="879.885" cy="637.344" r="12.458"/><rect class="cls-17" x="878.803" y="634.558" width="46.538" height="5.572" rx="2.786" transform="rotate(180 902.072 637.344)"/><circle class="cls-16" cx="881.821" cy="463.408" r="12.458"/><rect class="cls-17" x="880.74" y="460.622" width="46.538" height="5.572" rx="2.786" transform="rotate(-180 904.009 463.408)"/><circle class="cls-16" cx="881.821" cy="512.152" r="12.458"/><rect class="cls-17" x="880.74" y="509.366" width="46.538" height="5.572" rx="2.786" transform="rotate(180 904.009 512.152)"/><path class="cls-18" transform="rotate(180 812.077 648.126)" d="M799.82 640.13h24.513v15.992H799.82z"/><path class="cls-18" transform="rotate(180 812.077 607.622)" d="M799.82 599.626h24.513v15.992H799.82z"/><path class="cls-19" transform="rotate(180 812.077 627.874)" d="M799.82 615.618h24.513v24.513H799.82z"/><path class="cls-18" transform="rotate(180 812.077 476.418)" d="M799.82 468.422h24.513v15.992H799.82z"/><path class="cls-18" transform="rotate(180 812.077 435.913)" d="M799.82 427.917h24.513v15.992H799.82z"/><path class="cls-19" transform="rotate(180 812.077 456.165)" d="M799.82 443.909h24.513v24.513H799.82z"/><path class="cls-18" transform="rotate(-90 472.596 599.626)" d="M460.34 591.63h24.513v15.992H460.34z"/><path class="cls-18" transform="rotate(-90 513.1 599.626)" d="M500.844 591.63h24.513v15.992h-24.513z"/><path class="cls-19" transform="rotate(-90 492.849 599.626)" d="M480.592 587.37h24.513v24.513h-24.513z"/><path class="cls-18" transform="rotate(-90 472.596 557.828)" d="M460.34 549.833h24.513v15.992H460.34z"/><path class="cls-18" transform="rotate(-90 513.1 557.828)" d="M500.844 549.833h24.513v15.992h-24.513z"/><path class="cls-19" transform="rotate(-90 492.849 557.828)" d="M480.592 545.572h24.513v24.513h-24.513z"/><path class="cls-18" transform="rotate(-90 472.596 499.694)" d="M460.34 491.698h24.513v15.992H460.34z"/><path class="cls-18" transform="rotate(-90 513.1 499.694)" d="M500.844 491.698h24.513v15.992h-24.513z"/><path class="cls-19" transform="rotate(-90 492.849 499.694)" d="M480.592 487.438h24.513v24.513h-24.513z"/><path class="cls-18" transform="rotate(-90 472.596 465.897)" d="M460.34 457.901h24.513v15.992H460.34z"/><path class="cls-18" transform="rotate(-90 513.1 465.897)" d="M500.844 457.901h24.513v15.992h-24.513z"/><path class="cls-20" transform="rotate(-90 492.849 465.897)" d="M480.592 453.641h24.513v24.513h-24.513z"/><path class="cls-18" transform="rotate(-90 472.596 645.156)" d="M460.34 637.16h24.513v15.992H460.34z"/><path class="cls-18" transform="rotate(-90 513.1 645.156)" d="M500.844 637.16h24.513v15.992h-24.513z"/><path class="cls-20" transform="rotate(-90 492.849 645.156)" d="M480.592 632.9h24.513v24.513h-24.513z"/><path class="cls-18" transform="rotate(-90 723.396 649.802)" d="M711.14 641.807h24.513v15.992H711.14z"/><path class="cls-18" transform="rotate(-90 763.9 649.802)" d="M751.644 641.807h24.513v15.992h-24.513z"/><path class="cls-21" transform="rotate(-90 743.648 649.802)" d="M731.392 637.546h24.513v24.513h-24.513z"/><path class="cls-18" transform="rotate(-90 729.108 435.913)" d="M716.851 427.917h24.513v15.992h-24.513z"/><path class="cls-18" transform="rotate(-90 769.612 435.913)" d="M757.356 427.917h24.513v15.992h-24.513z"/><path class="cls-21" transform="rotate(-90 749.36 435.913)" d="M737.104 423.657h24.513v24.513h-24.513z"/><circle cx="749.36" cy="538.197" r="39.575" fill="#d9c5c5"/><path transform="rotate(180 617.582 609.9)" fill="#251a1e" d="M575.695 563.678h83.773v92.444h-83.773z"/><path class="cls-24" transform="rotate(180 672.575 649.172)" d="M654.376 644.695h36.399v8.954h-36.399z"/><path class="cls-24" transform="rotate(180 672.575 624.841)" d="M654.376 620.365h36.399v8.954h-36.399z"/><path class="cls-24" transform="rotate(180 672.575 600.51)" d="M654.376 596.034h36.399v8.954h-36.399z"/><path class="cls-24" transform="rotate(180 672.575 576.18)" d="M654.376 571.703h36.399v8.954h-36.399z"/><path class="cls-24" transform="rotate(180 565.714 648.379)" d="M547.514 643.902h36.399v8.954h-36.399z"/><path class="cls-24" transform="rotate(180 565.714 624.048)" d="M547.514 619.571h36.399v8.954h-36.399z"/><path class="cls-24" transform="rotate(180 565.714 599.717)" d="M547.514 595.24h36.399v8.954h-36.399z"/><path class="cls-24" transform="rotate(180 565.714 575.386)" d="M547.514 570.909h36.399v8.954h-36.399z"/><path transform="rotate(180 611.845 487.438)" fill="#28449c" d="M542.867 418.46h137.956v137.956H542.867z"/><circle cx="611.845" cy="487.438" r="26.97" fill="#8f7b8a"/><path d="M585.823 494.164h17.694v18.798a24.688 24.688 0 0014.673.616v-20.603h20.046a27.04 27.04 0 00.579-5.537 26.729 26.729 0 00-.958-6.757H618.19v-19.383a25.002 25.002 0 00-12.294-.123v21.092h-20.5a27.033 27.033 0 00-.52 5.17 26.745 26.745 0 00.947 6.727z" fill="#31253d"/><rect class="cls-28" x="359.205" y="588.746" width="48.061" height="48.061" rx="10.213" transform="rotate(180 383.236 612.777)"/><rect class="cls-28" x="359.205" y="540.685" width="48.061" height="48.061" rx="10.213" transform="rotate(180 383.236 564.716)"/><rect class="cls-28" x="359.205" y="492.624" width="48.061" height="48.061" rx="10.213" transform="rotate(180 383.236 516.655)"/><rect class="cls-28" x="359.205" y="444.563" width="48.061" height="48.061" rx="10.213" transform="rotate(180 383.236 468.594)"/><path class="cls-29" transform="rotate(180 311.573 614.62)" d="M236.77 609.67h149.607v9.901H236.77z"/><path class="cls-29" transform="rotate(180 309.65 567.7)" d="M234.847 562.75h149.607v9.901H234.847z"/><path class="cls-29" transform="rotate(180 309.65 516.655)" d="M234.847 511.704h149.607v9.901H234.847z"/><path class="cls-29" transform="rotate(180 311.573 468.594)" d="M236.77 463.643h149.607v9.901H236.77z"/><text class="cls-30" transform="rotate(-90 529.914 98.802)">AO</text><text class="cls-30" transform="rotate(-90 508.183 77.072)">DO</text><text class="cls-30" transform="rotate(-90 487.174 56.062)">GND</text><text class="cls-30" transform="rotate(-90 460.814 29.702)">VCC</text><path d="M267.434 567.703l-82.811-.006m82.811-51.039l-82.811-.006m82.811-48.055l-82.811-.006" stroke="#6d6e71" stroke-width="24" stroke-linecap="round" stroke-linejoin="round" fill="none"/></g></svg>