<svg id="Layer_1" data-name="Layer 1" xmlns="http://www.w3.org/2000/svg" viewBox="0 0 715.0682 567.8607"><defs><style>.cls-1{fill:#434343;}.cls-2{fill:#4f4e51;}.cls-3{fill:#323031;}.cls-4{fill:#6a5f27;}.cls-5{fill:#fff;}.cls-10,.cls-14,.cls-21,.cls-6,.cls-8,.cls-9{fill:none;}.cls-6{stroke:#fff;stroke-miterlimit:10;stroke-width:4.8659px;}.cls-7{fill:#221f1f;}.cls-8{stroke:#221f1f;}.cls-10,.cls-14,.cls-21,.cls-8,.cls-9{stroke-linecap:round;stroke-linejoin:round;}.cls-10,.cls-8,.cls-9{stroke-width:9.7488px;}.cls-9{stroke:#e9262a;}.cls-10{stroke:#babcbe;}.cls-11{font-size:38.9952px;fill:#010101;font-family:Heebo-Light, Heebo;font-weight:300;letter-spacing:0.001em;}.cls-12{fill:#e6e7e8;}.cls-13{fill:#999f9b;}.cls-14{stroke:#dadbd5;stroke-width:7.2px;}.cls-15{fill:#5c6162;}.cls-16{fill:#465154;}.cls-17{fill:#545c5b;}.cls-18{fill:#121118;}.cls-19{fill:#edeec8;}.cls-20{fill:#231f20;}.cls-21{stroke:#6d6e71;stroke-width:14.4px;}</style></defs><path class="cls-1" d="M891.7981-1138.0242l1.673,1256.41a75.1377,75.1377,0,0,1-75.2374,75.0377H-423.288a75.1377,75.1377,0,0,1-75.2374-75.0377l-1.6731-1265.98a75.1378,75.1378,0,0,1,75.2374-75.0376H806.9652c50.1138-4.3115,85.6885,22.1867,84.83,70.048"/><rect class="cls-2" x="-486.1349" y="-1186.7064" width="1371.8011" height="1343.9165" rx="52.9119" transform="translate(714.5138 -314.9825) rotate(-90)"/><rect class="cls-3" x="-2.8283" y="76.4039" width="742.4176" height="83.2475"/><path class="cls-4" d="M37.7269,113.5732a4.8949,4.8949,0,1,1-4.8945,4.8949,4.893,4.893,0,0,1,4.8945-4.8949"/><path class="cls-4" d="M37.7269,135.48a4.895,4.895,0,1,1-4.8945,4.8914,4.89,4.89,0,0,1,4.8945-4.8914"/><path class="cls-4" d="M37.7269,90.7858a4.893,4.893,0,1,1-4.8945,4.8914,4.89,4.89,0,0,1,4.8945-4.8914"/><path class="cls-4" d="M111.8153,113.5732a4.8949,4.8949,0,1,1-4.8941,4.8949,4.8929,4.8929,0,0,1,4.8941-4.8949"/><path class="cls-4" d="M111.8153,135.48a4.895,4.895,0,1,1-4.8941,4.8914,4.89,4.89,0,0,1,4.8941-4.8914"/><path class="cls-4" d="M111.8153,90.7858a4.893,4.893,0,1,1-4.8941,4.8914,4.89,4.89,0,0,1,4.8941-4.8914"/><path class="cls-4" d="M185.9037,113.5732a4.8949,4.8949,0,1,1-4.8937,4.8949,4.8929,4.8929,0,0,1,4.8937-4.8949"/><path class="cls-4" d="M185.9037,135.48a4.895,4.895,0,1,1-4.8937,4.8914,4.89,4.89,0,0,1,4.8937-4.8914"/><path class="cls-4" d="M185.9037,90.7858a4.893,4.893,0,1,1-4.8937,4.8914,4.89,4.89,0,0,1,4.8937-4.8914"/><path class="cls-4" d="M259.9922,113.5732a4.8949,4.8949,0,1,1-4.8933,4.8949,4.8929,4.8929,0,0,1,4.8933-4.8949"/><path class="cls-4" d="M259.9922,135.48a4.895,4.895,0,1,1-4.8933,4.8914,4.89,4.89,0,0,1,4.8933-4.8914"/><path class="cls-4" d="M259.9922,90.7858a4.893,4.893,0,1,1-4.8933,4.8914,4.89,4.89,0,0,1,4.8933-4.8914"/><path class="cls-4" d="M334.0806,113.5732a4.8949,4.8949,0,1,1-4.8929,4.8949,4.8929,4.8929,0,0,1,4.8929-4.8949"/><path class="cls-4" d="M334.0806,135.48a4.895,4.895,0,1,1-4.8929,4.8914,4.89,4.89,0,0,1,4.8929-4.8914"/><path class="cls-4" d="M334.0806,90.7858a4.893,4.893,0,1,1-4.8929,4.8914,4.89,4.89,0,0,1,4.8929-4.8914"/><path class="cls-4" d="M408.1691,113.5732a4.8949,4.8949,0,1,1-4.8925,4.8949,4.893,4.893,0,0,1,4.8925-4.8949"/><path class="cls-4" d="M408.1691,135.48a4.895,4.895,0,1,1-4.8925,4.8914,4.89,4.89,0,0,1,4.8925-4.8914"/><path class="cls-4" d="M408.1691,90.7858a4.893,4.893,0,1,1-4.8925,4.8914,4.89,4.89,0,0,1,4.8925-4.8914"/><path class="cls-4" d="M482.2575,113.5732a4.8949,4.8949,0,1,1-4.8921,4.8949,4.893,4.893,0,0,1,4.8921-4.8949"/><path class="cls-4" d="M482.2575,135.48a4.895,4.895,0,1,1-4.8921,4.8914,4.89,4.89,0,0,1,4.8921-4.8914"/><path class="cls-4" d="M482.2575,90.7858a4.893,4.893,0,1,1-4.8921,4.8914,4.89,4.89,0,0,1,4.8921-4.8914"/><path class="cls-4" d="M556.346,113.5732a4.8949,4.8949,0,1,1-4.8918,4.8949,4.8929,4.8929,0,0,1,4.8918-4.8949"/><path class="cls-4" d="M556.346,135.48a4.895,4.895,0,1,1-4.8918,4.8914,4.89,4.89,0,0,1,4.8918-4.8914"/><path class="cls-4" d="M556.346,90.7858a4.893,4.893,0,1,1-4.8918,4.8914,4.89,4.89,0,0,1,4.8918-4.8914"/><path class="cls-4" d="M630.4344,113.5732a4.8949,4.8949,0,1,1-4.8913,4.8949,4.8929,4.8929,0,0,1,4.8913-4.8949"/><path class="cls-4" d="M630.4344,135.48a4.895,4.895,0,1,1-4.8913,4.8914,4.89,4.89,0,0,1,4.8913-4.8914"/><path class="cls-4" d="M630.4344,90.7858a4.893,4.893,0,1,1-4.8913,4.8914,4.89,4.89,0,0,1,4.8913-4.8914"/><path class="cls-4" d="M704.5229,113.5732a4.8949,4.8949,0,1,1-4.891,4.8949,4.8928,4.8928,0,0,1,4.891-4.8949"/><path class="cls-4" d="M704.5229,135.48a4.895,4.895,0,1,1-4.891,4.8914,4.89,4.89,0,0,1,4.891-4.8914"/><path class="cls-4" d="M704.5229,90.7858a4.893,4.893,0,1,1-4.891,4.8914,4.89,4.89,0,0,1,4.891-4.8914"/><path class="cls-5" d="M360.2959,14.0084a8.0737,8.0737,0,0,1,3.141,3.313,10.4767,10.4767,0,0,1,1.1266,4.94V24.172a10.4559,10.4559,0,0,1-1.1266,4.9467,8.0509,8.0509,0,0,1-3.1621,3.3077,9.2736,9.2736,0,0,1-4.6922,1.1687h-5.6749V12.838h5.8047A8.9879,8.9879,0,0,1,360.2959,14.0084Zm2.53,8.2246a9.2671,9.2671,0,0,0-.8844-4.1553,6.5326,6.5326,0,0,0-2.4953-2.7655,7.0639,7.0639,0,0,0-3.7342-.9774h-4.05V32.1123h3.92a7.2247,7.2247,0,0,0,3.8359-.9984,6.6072,6.6072,0,0,0,2.5234-2.7936,9.2731,9.2731,0,0,0,.8844-4.1483Z"/><path class="cls-5" d="M369.4242,33.5951V12.838h1.7547V33.5951Z"/><path class="cls-5" d="M391.1587,29.3679a7.7555,7.7555,0,0,1-14.1645-.0071,11.7866,11.7866,0,0,1-1.0107-5.0326V22.1049a11.846,11.846,0,0,1,1.0037-5.0327,7.724,7.724,0,0,1,2.8392-3.3428,7.6353,7.6353,0,0,1,4.2255-1.1757,7.47,7.47,0,0,1,7.1,4.5115,11.941,11.941,0,0,1,.9967,5.04v2.2233A11.99,11.99,0,0,1,391.1587,29.3679Zm-1.5056-11.5394a6.0611,6.0611,0,0,0-2.1865-2.7655,5.9544,5.9544,0,0,0-3.4147-.97,5.8508,5.8508,0,0,0-3.3657.97A6.1317,6.1317,0,0,0,378.5,17.8356a10.8244,10.8244,0,0,0-.7651,4.2412v2.2514a10.7943,10.7943,0,0,0,.7721,4.2553,6.2009,6.2009,0,0,0,2.2,2.7813,5.8523,5.8523,0,0,0,3.3727.9756,5.9443,5.9443,0,0,0,3.4217-.9686,6.0106,6.0106,0,0,0,2.1654-2.7725,11.1915,11.1915,0,0,0,.744-4.2711V22.0768A10.8737,10.8737,0,0,0,389.6531,17.8285Z"/><polyline class="cls-6" points="32.831 43.207 32.831 23.068 330.344 23.068"/><polyline class="cls-6" points="411.712 23.066 692.881 23.066 692.881 43.205"/><rect class="cls-7" x="20.6162" y="84.482" width="33.8449" height="81.0901"/><polyline class="cls-8" points="26.216 147.852 26.216 427.664 298.628 427.664"/><polyline class="cls-9" points="37.538 120.12 37.538 416.387 87.754 416.387"/><polyline class="cls-10" points="48.396 103.08 48.396 339.748 157.785 338.222"/><text class="cls-11" transform="translate(259.346 505.4476)">Limit Switch<tspan x="0" y="46.7939">or Micro Switch</tspan></text><path class="cls-12" d="M463.3437,277.0576V267.733a3.9432,3.9432,0,0,0-.6452-2.1822l-2.2961-3.44a3.0336,3.0336,0,0,0-2.5055-1.4169H439.2584a2.9313,2.9313,0,0,0-2.0582.8741l-3.5073,3.4569A3.8329,3.8329,0,0,0,432.6,267.75v9.3079a3.3974,3.3974,0,0,0,3.1507,3.5991H460.193A3.3974,3.3974,0,0,0,463.3437,277.0576Z"/><path class="cls-13" d="M406.2015,282.7308V276.69c0-1.3639.87-6.6524,5.3727-9.2791l7.7185-3.0211a130.4379,130.4379,0,0,1,12.9455-2.537L664.3466,231.48a3.2482,3.2482,0,0,0,2.7242-3.293v-5.2449a3.1817,3.1817,0,0,0-3.5-3.29L450.6153,249.2375c-13.341,1.8534-29.6144,3.7732-41.5226,10.0669l-6.7961,3.5086c-1.0578.5591-3.8323,5.3363-3.8323,6.5987v13.3191a3.2146,3.2146,0,0,0,3.1007,3.3175h1.5358A3.2146,3.2146,0,0,0,406.2015,282.7308Z"/><polyline class="cls-14" points="386.126 406.389 386.126 427.664 311.767 427.664"/><rect class="cls-15" x="276.4414" y="313.0137" width="8.5173" height="72.0136" rx="1.5148" transform="translate(561.4002 698.0409) rotate(180)"/><path class="cls-16" d="M297.3393,278.17H518.5507a14.2168,14.2168,0,0,1,14.2169,14.2168v99.7855a14.2168,14.2168,0,0,1-14.2169,14.2167H297.3393a14.2168,14.2168,0,0,1-14.2169-14.2167V292.3864A14.2168,14.2168,0,0,1,297.3393,278.17Z"/><path class="cls-17" d="M532.4389,361.9124s-58.6265-18.88-47.7035,44.4762l36.9523-.2247c3.6483-1.5491,9.6027-7.6619,11.08-11.34Z"/><circle class="cls-18" cx="509.5868" cy="385.0273" r="13.4827"/><path class="cls-17" d="M283.4512,322.6459s58.6264,18.88,47.7034-44.4763l-36.9522.2247c-3.6484,1.5491-9.6028,7.662-11.08,11.34Z"/><circle class="cls-18" cx="306.3032" cy="299.531" r="13.4827"/><rect class="cls-19" x="193.32" y="367.6785" width="83.1214" height="7.7322" transform="translate(469.7615 743.0892) rotate(180)"/><rect class="cls-19" x="193.32" y="334.5469" width="83.1214" height="7.7322" transform="translate(469.7615 676.826) rotate(180)"/><path class="cls-20" d="M290.4515,331.6771h3.2158l5.4825,8.6494,1.8232,3.2841h.1084c-.1514-1.5908-.3994-3.539-.3994-5.2519v-6.6816h2.9785v15.3876h-3.2158l-5.4824-8.663-1.8233-3.2705h-.1084c.1514,1.6279.3994,3.4824.3994,5.1953v6.7382h-2.9785Z"/><path class="cls-20" d="M307.2181,339.31c0-4.98,3.1836-7.9151,7.78-7.9151s7.78,2.95,7.78,7.9151c0,4.9785-3.1836,8.0371-7.78,8.0371S307.2181,344.2884,307.2181,339.31Zm12.3447,0c0-3.4541-1.791-5.544-4.5644-5.544s-4.5645,2.09-4.5645,5.544,1.7911,5.665,4.5645,5.665S319.5628,342.764,319.5628,339.31Z"/><path class="cls-20" d="M324.7289,345.23l1.4785-1.7324a6.0565,6.0565,0,0,0,4.0683,1.6377c1.877,0,3.1719-.8467,3.1719-2.2588,0-1.543-1.1377-2.541-5.0391-2.541v-1.9766c3.3565,0,4.4571-1.0166,4.4571-2.3906,0-1.251-.9551-2.0039-2.5362-2.0039a5.2522,5.2522,0,0,0-3.4316,1.4111l-1.6074-1.6748a8.19,8.19,0,0,1,5.1689-1.8916c3.28,0,5.5352,1.4307,5.5352,3.957,0,1.6709-1.1328,2.8-2.9893,3.44V339.3c2.0293.4609,3.5723,1.7314,3.5723,3.7275,0,2.7286-2.7305,4.3194-6.0322,4.3194A7.9445,7.9445,0,0,1,324.7289,345.23Z"/><path class="cls-20" d="M290.4515,359.9134h3.2158l5.4825,8.6494,1.8232,3.2842h.1084c-.1514-1.5908-.3994-3.5391-.3994-5.252v-6.6816h2.9785v15.3877h-3.2158l-5.4824-8.6631-1.8233-3.27h-.1084c.1514,1.6279.3994,3.4824.3994,5.1953v6.7383h-2.9785Z"/><path class="cls-20" d="M307.2181,367.6585c0-5.0352,3.6152-8.0273,8.083-8.0273a7.4991,7.4991,0,0,1,5.0821,1.9482l-1.6729,1.76a4.9153,4.9153,0,0,0-3.3447-1.337c-2.87,0-4.9317,2.1182-4.9317,5.5723,0,3.51,1.8994,5.6367,4.8555,5.6367a5.2654,5.2654,0,0,0,3.7666-1.581l1.6729,1.7129a7.49,7.49,0,0,1-5.5577,2.24C310.7357,375.5833,307.2181,372.75,307.2181,367.6585Z"/><path class="cls-20" d="M322.474,373.73c4.7588-4.0381,7.7588-6.6641,7.7588-8.9512,0-1.5762-.9932-2.5781-2.8379-2.5781a4.9051,4.9051,0,0,0-3.3457,1.6562l-1.7266-1.4873a7.4143,7.4143,0,0,1,5.4824-2.3242c3.28,0,5.4278,1.8164,5.4278,4.5928,0,2.6631-2.8272,5.4023-6.2481,8.5176.9063-.0752,2.0391-.1514,2.8809-.1514h4.1982v2.2969h-11.59Z"/><path class="cls-20" d="M351.0472,387.9476c0-5.0352,3.6153-8.0274,8.083-8.0274a7.4991,7.4991,0,0,1,5.0821,1.9483l-1.6729,1.76a4.9157,4.9157,0,0,0-3.3447-1.3369c-2.87,0-4.9317,2.1182-4.9317,5.5723,0,3.51,1.9,5.6367,4.8565,5.6367a5.2649,5.2649,0,0,0,3.7656-1.5811l1.6729,1.7129a7.49,7.49,0,0,1-5.5577,2.24C354.5648,395.8724,351.0472,393.0394,351.0472,387.9476Z"/><path class="cls-20" d="M365.6937,387.8353c0-4.98,3.1836-7.9151,7.78-7.9151s7.78,2.95,7.78,7.9151c0,4.9785-3.1835,8.0371-7.78,8.0371S365.6937,392.8138,365.6937,387.8353Zm12.3447,0c0-3.4541-1.791-5.544-4.5644-5.544s-4.5645,2.09-4.5645,5.544,1.791,5.665,4.5645,5.665S378.0384,391.2894,378.0384,387.8353Z"/><path class="cls-20" d="M384.8011,380.2024h3.54l3.1181,7.52c.3887.9785.7451,2.0136,1.1328,3.0215h.1084c.3887-1.0079.7227-2.043,1.1114-3.0215l3.0537-7.52h3.54V395.59h-2.8711v-7.04c0-1.4209.249-3.4678.3994-4.8936h-.1074l-1.4248,3.5762-2.9023,6.9131h-1.8565l-2.9131-6.9131-1.4033-3.5762h-.1074c.15,1.4258.3984,3.4727.3984,4.8936v7.04h-2.8164Z"/><path class="cls-20" d="M404.6478,393.3782H408.49V383.553h-3.1729v-1.7041a12.086,12.086,0,0,0,3.961-1.2324h2.3193v12.7617h3.378V395.59H404.6478Z"/><line class="cls-21" x1="197.0233" y1="338.2235" x2="147.3369" y2="338.22"/><line class="cls-21" x1="325.8018" y1="427.6657" x2="276.1154" y2="427.6622"/></svg>