<svg id="Layer_1" data-name="Layer 1" xmlns="http://www.w3.org/2000/svg" viewBox="0 0 715.068 525.424"><defs><style>.cls-22{font-family:Verdana}.cls-19{fill:#545c5b}.cls-20{fill:#121118}.cls-21{fill:#edeec8}.cls-22{font-size:23.5305px;fill:#231f20}</style></defs><path d="M891.798-1138.024l1.673 1256.41a75.138 75.138 0 01-75.237 75.038H-423.288a75.138 75.138 0 01-75.237-75.038l-1.674-1265.98a75.138 75.138 0 0175.238-75.038H806.965c50.114-4.311 85.689 22.187 84.83 70.048" fill="#434343"/><rect x="-486.135" y="-1186.706" width="1371.801" height="1343.917" rx="52.912" transform="rotate(-90 199.766 -514.748)" fill="#4f4e51"/><path fill="#323031" d="M-2.828 76.404H739.59v83.248H-2.828z"/><path d="M37.727 113.573a4.895 4.895 0 11-4.895 4.895 4.893 4.893 0 014.895-4.895m0 21.907a4.895 4.895 0 11-4.895 4.891 4.89 4.89 0 014.895-4.891m0-44.694a4.893 4.893 0 11-4.895 4.891 4.89 4.89 0 014.895-4.891m74.088 22.787a4.895 4.895 0 11-4.894 4.895 4.893 4.893 0 014.894-4.895m0 21.907a4.895 4.895 0 11-4.894 4.891 4.89 4.89 0 014.894-4.891m0-44.694a4.893 4.893 0 11-4.894 4.891 4.89 4.89 0 014.894-4.891m74.089 22.787a4.895 4.895 0 11-4.894 4.895 4.893 4.893 0 014.894-4.895m0 21.907a4.895 4.895 0 11-4.894 4.891 4.89 4.89 0 014.894-4.891m0-44.694a4.893 4.893 0 11-4.894 4.891 4.89 4.89 0 014.894-4.891m74.088 22.787a4.895 4.895 0 11-4.893 4.895 4.893 4.893 0 014.893-4.895m0 21.907a4.895 4.895 0 11-4.893 4.891 4.89 4.89 0 014.893-4.891m0-44.694a4.893 4.893 0 11-4.893 4.891 4.89 4.89 0 014.893-4.891m74.088 22.787a4.895 4.895 0 11-4.892 4.895 4.893 4.893 0 014.893-4.895m-.001 21.907a4.895 4.895 0 11-4.892 4.891 4.89 4.89 0 014.893-4.891m-.001-44.694a4.893 4.893 0 11-4.892 4.891 4.89 4.89 0 014.893-4.891m74.089 22.787a4.895 4.895 0 11-4.893 4.895 4.893 4.893 0 014.892-4.895m.001 21.907a4.895 4.895 0 11-4.893 4.891 4.89 4.89 0 014.892-4.891m.001-44.694a4.893 4.893 0 11-4.893 4.891 4.89 4.89 0 014.892-4.891m74.088 22.787a4.895 4.895 0 11-4.892 4.895 4.893 4.893 0 014.892-4.895m0 21.907a4.895 4.895 0 11-4.892 4.891 4.89 4.89 0 014.892-4.891m0-44.694a4.893 4.893 0 11-4.892 4.891 4.89 4.89 0 014.892-4.891m74.089 22.787a4.895 4.895 0 11-4.892 4.895 4.893 4.893 0 014.892-4.895m0 21.907a4.895 4.895 0 11-4.892 4.891 4.89 4.89 0 014.892-4.891m0-44.694a4.893 4.893 0 11-4.892 4.891 4.89 4.89 0 014.892-4.891m74.088 22.787a4.895 4.895 0 11-4.89 4.895 4.893 4.893 0 014.89-4.895m0 21.907a4.895 4.895 0 11-4.89 4.891 4.89 4.89 0 014.89-4.891m0-44.694a4.893 4.893 0 11-4.89 4.891 4.89 4.89 0 014.89-4.891m74.089 22.787a4.895 4.895 0 11-4.891 4.895 4.893 4.893 0 014.89-4.895m.001 21.907a4.895 4.895 0 11-4.891 4.891 4.89 4.89 0 014.89-4.891m.001-44.694a4.893 4.893 0 11-4.891 4.891 4.89 4.89 0 014.89-4.891" fill="#6a5f27"/><path d="M360.296 14.008a8.074 8.074 0 013.14 3.313 10.477 10.477 0 011.128 4.94v1.911a10.456 10.456 0 01-1.127 4.947 8.05 8.05 0 01-3.162 3.307 9.274 9.274 0 01-4.692 1.17h-5.675V12.837h5.804a8.988 8.988 0 014.584 1.17zm2.53 8.225a9.267 9.267 0 00-.885-4.155 6.533 6.533 0 00-2.495-2.766 7.064 7.064 0 00-3.734-.977h-4.05v17.777h3.92a7.225 7.225 0 003.836-.998 6.607 6.607 0 002.523-2.794 9.273 9.273 0 00.885-4.148zm6.598 11.362V12.838h1.755v20.757zm21.735-4.227a7.755 7.755 0 01-14.165-.007 11.787 11.787 0 01-1.01-5.033v-2.223a11.846 11.846 0 011.003-5.033 7.724 7.724 0 012.84-3.343 7.635 7.635 0 014.225-1.175 7.47 7.47 0 017.1 4.511 11.941 11.941 0 01.997 5.04v2.224a11.99 11.99 0 01-.99 5.039zm-1.506-11.54a6.061 6.061 0 00-2.186-2.765 5.954 5.954 0 00-3.415-.97 5.85 5.85 0 00-3.366.97 6.132 6.132 0 00-2.186 2.773 10.824 10.824 0 00-.765 4.24v2.252a10.794 10.794 0 00.772 4.255 6.2 6.2 0 002.2 2.782 5.852 5.852 0 003.373.975 5.944 5.944 0 003.421-.968 6.01 6.01 0 002.166-2.773 11.191 11.191 0 00.744-4.27v-2.252a10.874 10.874 0 00-.758-4.249z" fill="#fff"/><path d="M32.831 43.207V23.068h297.513m81.368-.002h281.169v20.139" stroke="#fff" stroke-miterlimit="10" stroke-width="4.866" fill="none"/><text transform="translate(-186.447 260.694)" font-family="Verdana" font-size="38.995" fill="#010101"><tspan letter-spacing=".001em">26 A</tspan><tspan x="90.104" y="0">WG</tspan><tspan x="0" y="46.794">minumum</tspan></text><path fill="#221f1f" d="M20.616 84.482h33.845v81.09H20.616z"/><path stroke-width="9.749" stroke-linecap="round" stroke-linejoin="round" stroke="#221f1f" fill="none" d="M26.216 147.852v279.812h272.412"/><path stroke="#e9262a" stroke-width="9.749" stroke-linecap="round" stroke-linejoin="round" fill="none" d="M37.538 120.12v296.267h50.216"/><path stroke="#babcbe" stroke-width="9.749" stroke-linecap="round" stroke-linejoin="round" fill="none" d="M48.396 103.08v236.668l109.389-1.526"/><text transform="translate(79.49 498.919)" letter-spacing=".001em" font-family="Verdana" font-size="38.995" fill="#010101">Limit Switch or Micro Switch</text><path d="M463.344 277.058v-9.325a3.943 3.943 0 00-.645-2.182l-2.297-3.44a3.034 3.034 0 00-2.505-1.417h-18.639a2.931 2.931 0 00-2.058.874l-3.507 3.457a3.833 3.833 0 00-1.093 2.725v9.308a3.397 3.397 0 003.15 3.599h24.443a3.397 3.397 0 003.15-3.6z" fill="#e6e7e8"/><path d="M406.202 282.73v-6.04c0-1.364.87-6.652 5.372-9.28l7.719-3.02a130.438 130.438 0 0112.945-2.537l232.109-30.373a3.248 3.248 0 002.724-3.293v-5.245a3.182 3.182 0 00-3.5-3.29l-212.956 29.586c-13.34 1.853-29.614 3.773-41.522 10.066l-6.796 3.509c-1.058.56-3.833 5.336-3.833 6.599v13.319a3.215 3.215 0 003.101 3.317h1.536a3.215 3.215 0 003.1-3.317z" fill="#999f9b"/><path stroke="#dadbd5" stroke-width="7.2" stroke-linecap="round" stroke-linejoin="round" fill="none" d="M386.126 406.389v21.275h-74.359"/><rect x="276.441" y="313.014" width="8.517" height="72.014" rx="1.515" transform="rotate(180 280.7 349.02)" fill="#5c6162"/><path d="M297.34 278.17h221.21a14.217 14.217 0 0114.218 14.217v99.785a14.217 14.217 0 01-14.217 14.217H297.339a14.217 14.217 0 01-14.217-14.217v-99.786a14.217 14.217 0 0114.217-14.216z" fill="#465154"/><path class="cls-19" d="M532.439 361.912s-58.627-18.88-47.704 44.477l36.953-.225c3.648-1.55 9.602-7.662 11.08-11.34z"/><circle class="cls-20" cx="509.587" cy="385.027" r="13.483"/><path class="cls-19" d="M283.451 322.646s58.627 18.88 47.704-44.476l-36.953.224c-3.648 1.55-9.602 7.662-11.08 11.34z"/><circle class="cls-20" cx="306.303" cy="299.531" r="13.483"/><path class="cls-21" transform="rotate(180 234.88 371.545)" d="M193.32 367.678h83.121v7.732H193.32z"/><path class="cls-21" transform="rotate(180 234.88 338.413)" d="M193.32 334.547h83.121v7.732H193.32z"/><text class="cls-22" transform="matrix(1.1463 0 0 1 288.207 347.065)">NO3<tspan x="0" y="28.236">NC2</tspan></text><text class="cls-22" transform="matrix(1.1463 0 0 1 349.73 395.59)">COM1</text><path d="M197.023 338.224l-49.686-.004m178.465 89.446l-49.687-.004" stroke="#6d6e71" stroke-width="14.4" stroke-linecap="round" stroke-linejoin="round" fill="none"/></svg>