<svg xmlns="http://www.w3.org/2000/svg" viewBox="0 0 664.5577 849.1107"><defs><style>.cls-1{fill:#434343;}.cls-2{fill:#4f4e51;}.cls-3{fill:#323031;}.cls-4{fill:#6a5f27;}.cls-5{fill:#5a5a5d;}.cls-6{fill:#221f1f;}.cls-7{fill:#f2f2f2;}.cls-8{font-size:32.306px;}.cls-13,.cls-19,.cls-20,.cls-8,.cls-9{fill:#fff;}.cls-19,.cls-20,.cls-22,.cls-8,.cls-9{font-family:Verdana;}.cls-9{font-size:21.5373px;}.cls-10,.cls-23,.cls-24,.cls-25,.cls-26{fill:none;}.cls-10{stroke:#fff;stroke-miterlimit:10;stroke-width:5.3843px;}.cls-11{fill:#1e4696;}.cls-12{fill:#e3cba4;}.cls-14{fill:#45444d;}.cls-15{fill:#a88a72;}.cls-16{fill:#bfbebe;}.cls-17{fill:#31313a;}.cls-18{fill:#bcbab6;}.cls-19{font-size:58.0665px;}.cls-20{font-size:35.4174px;}.cls-21{fill:#231f20;}.cls-22{font-size:39.6483px;fill:#010101;letter-spacing:0.001em;}.cls-23{stroke:#e9262a;}.cls-23,.cls-24,.cls-25,.cls-26{stroke-linecap:round;stroke-linejoin:round;stroke-width:10.832px;}.cls-24{stroke:#221f1f;}.cls-25{stroke:#babcbe;}.cls-26{stroke:#1c75bc;}</style></defs><g id="Layer_1" data-name="Layer 1"><path class="cls-1" d="M-667.6906,2071.1875l-1.8513-1390.2611a83.1424,83.1424,0,0,1,83.2527-83.0317H787.4971A83.1424,83.1424,0,0,1,870.75,680.9264l1.8514,1400.8507a83.1425,83.1425,0,0,1-83.2528,83.0317H-573.82c-55.4526,4.7709-94.8173-24.55-93.8673-77.51"/><rect class="cls-2" x="-660.9055" y="637.9664" width="1517.9448" height="1487.0895" rx="58.5488" transform="translate(1479.5781 1283.4443) rotate(90)"/><rect class="cls-3" x="-499.2664" y="635.2651" width="821.5105" height="92.1162"/><path class="cls-4" d="M277.3684,686.2522a5.4164,5.4164,0,1,1,5.4159-5.4164,5.4143,5.4143,0,0,1-5.4159,5.4164"/><path class="cls-4" d="M277.3684,662.0119a5.4164,5.4164,0,1,1,5.4159-5.4125,5.4106,5.4106,0,0,1-5.4159,5.4125"/><path class="cls-4" d="M277.3684,711.4672a5.4142,5.4142,0,1,1,5.4159-5.4125,5.4106,5.4106,0,0,1-5.4159,5.4125"/><path class="cls-4" d="M195.387,686.2522a5.4164,5.4164,0,1,1,5.4154-5.4164,5.4143,5.4143,0,0,1-5.4154,5.4164"/><path class="cls-4" d="M195.387,662.0119a5.4164,5.4164,0,1,1,5.4154-5.4125,5.4106,5.4106,0,0,1-5.4154,5.4125"/><path class="cls-4" d="M195.387,711.4672a5.4142,5.4142,0,1,1,5.4154-5.4125,5.4106,5.4106,0,0,1-5.4154,5.4125"/><path class="cls-4" d="M113.4056,686.2522a5.4164,5.4164,0,1,1,5.415-5.4164,5.4143,5.4143,0,0,1-5.415,5.4164"/><path class="cls-4" d="M113.4056,662.0119a5.4164,5.4164,0,1,1,5.415-5.4125,5.4106,5.4106,0,0,1-5.415,5.4125"/><path class="cls-4" d="M113.4056,711.4672a5.4142,5.4142,0,1,1,5.415-5.4125,5.4106,5.4106,0,0,1-5.415,5.4125"/><path class="cls-4" d="M31.4242,686.2522a5.4164,5.4164,0,1,1,5.4146-5.4164,5.4142,5.4142,0,0,1-5.4146,5.4164"/><path class="cls-4" d="M31.4242,662.0119a5.4164,5.4164,0,1,1,5.4146-5.4125,5.4105,5.4105,0,0,1-5.4146,5.4125"/><path class="cls-4" d="M31.4242,711.4672a5.4142,5.4142,0,1,1,5.4146-5.4125,5.4105,5.4105,0,0,1-5.4146,5.4125"/><rect class="cls-3" x="359.6346" y="637.999" width="71.9528" height="89.5733"/><path class="cls-4" d="M395.6105,688.2018a5.4164,5.4164,0,1,1,5.412-5.4164,5.4143,5.4143,0,0,1-5.412,5.4164"/><path class="cls-4" d="M395.6105,663.9615a5.4164,5.4164,0,1,1,5.412-5.4125,5.4106,5.4106,0,0,1-5.412,5.4125"/><path class="cls-4" d="M395.6105,713.4168a5.4142,5.4142,0,1,1,5.412-5.4125,5.4106,5.4106,0,0,1-5.412,5.4125"/><rect class="cls-3" x="480.0145" y="637.999" width="77.6435" height="120.595"/><path class="cls-4" d="M518.839,690.73a5.4164,5.4164,0,1,1,5.412-5.4164,5.4175,5.4175,0,0,1-5.412,5.4164"/><path class="cls-4" d="M518.839,666.49a5.4164,5.4164,0,1,1,5.412-5.4125,5.4139,5.4139,0,0,1-5.412,5.4125"/><path class="cls-4" d="M518.839,715.9449a5.4142,5.4142,0,1,1,5.412-5.4125,5.4139,5.4139,0,0,1-5.412,5.4125"/><path class="cls-4" d="M518.839,740.9308a5.4164,5.4164,0,1,1,5.412-5.4125,5.4139,5.4139,0,0,1-5.412,5.4125"/><rect class="cls-5" x="655.4307" y="647.4716" width="49.346" height="86.5151"/><path class="cls-6" d="M680.1015,692.7376a19.4676,19.4676,0,1,1,19.47-19.47,19.4663,19.4663,0,0,1-19.47,19.47"/><rect class="cls-5" x="606.089" y="647.4716" width="49.3417" height="86.5151"/><rect class="cls-7" x="616.8815" y="666.9095" width="29.2955" height="55.5134"/><path class="cls-6" d="M630.7589,692.7376a19.4676,19.4676,0,1,1,19.4695-19.47,19.47,19.47,0,0,1-19.4695,19.47"/><text class="cls-8" transform="translate(386.7478 746.7446) rotate(90)">RS-232</text><text class="cls-8" transform="translate(506.7087 781.6353) rotate(90)">I</text><text class="cls-8" transform="translate(517.4665 795.2329) rotate(90) scale(0.583)">2</text><text class="cls-8" transform="translate(506.7087 807.2066) rotate(90)">C</text><text class="cls-9" transform="translate(625.6189 755.9478) rotate(90)">H (YEL)</text><polyline class="cls-10" points="282.786 764.115 282.786 786.399 -46.422 786.399"/><path class="cls-11" d="M521.3713,513.4846H141.4621A59.9385,59.9385,0,0,1,81.5236,453.546V138.1372a59.9385,59.9385,0,0,1,59.9385-59.9386H521.3713A59.9385,59.9385,0,0,1,581.31,138.1372V453.546A59.9385,59.9385,0,0,1,521.3713,513.4846Z"/><circle class="cls-12" cx="144.6834" cy="138.7314" r="43.28"/><circle class="cls-13" cx="144.6834" cy="138.7314" r="31.5346"/><circle class="cls-12" cx="144.6834" cy="449.0551" r="21.0673"/><circle class="cls-13" cx="144.6834" cy="449.0551" r="15.35"/><circle class="cls-12" cx="205.6753" cy="449.0551" r="21.0673"/><circle class="cls-13" cx="205.6753" cy="449.0551" r="15.35"/><circle class="cls-12" cx="269.5445" cy="449.0551" r="21.0673"/><circle class="cls-13" cx="269.5445" cy="449.0551" r="15.35"/><circle class="cls-12" cx="330.5363" cy="449.0551" r="21.0673"/><circle class="cls-13" cx="330.5363" cy="449.0551" r="15.35"/><circle class="cls-12" cx="392.6513" cy="449.0551" r="21.0673"/><circle class="cls-13" cx="392.6513" cy="449.0551" r="15.35"/><circle class="cls-12" cx="456.5205" cy="449.0551" r="21.0673"/><circle class="cls-13" cx="456.5205" cy="449.0551" r="15.35"/><circle class="cls-12" cx="517.5124" cy="449.0551" r="21.0673"/><circle class="cls-13" cx="517.5124" cy="449.0551" r="15.35"/><circle class="cls-12" cx="518.4686" cy="138.7314" r="43.28"/><circle class="cls-13" cx="518.4686" cy="138.7314" r="31.5346"/><rect class="cls-14" x="302.396" y="208.1641" width="58.0414" height="108.6536"/><rect class="cls-15" x="232.073" y="158.1686" width="22.2127" height="32.0276"/><rect class="cls-16" x="254.2857" y="158.1686" width="22.2127" height="32.0276"/><rect class="cls-16" x="210.0182" y="158.1686" width="22.2127" height="32.0276"/><rect class="cls-15" x="140.1826" y="199.4015" width="22.2127" height="32.0276"/><rect class="cls-16" x="162.3953" y="199.4015" width="22.2127" height="32.0276"/><rect class="cls-16" x="118.1278" y="199.4015" width="22.2127" height="32.0276"/><rect class="cls-15" x="143.538" y="355.4975" width="22.2127" height="32.0276"/><rect class="cls-16" x="165.7507" y="355.4975" width="22.2127" height="32.0276"/><rect class="cls-16" x="121.4832" y="355.4975" width="22.2127" height="32.0276"/><rect class="cls-17" x="223.7175" y="325.4153" width="26.8418" height="32.0276" transform="translate(578.5675 104.2907) rotate(90)"/><rect class="cls-16" x="223.7175" y="352.2571" width="26.8418" height="32.0276" transform="translate(605.4094 131.1325) rotate(90)"/><rect class="cls-16" x="223.7175" y="298.7643" width="26.8418" height="32.0276" transform="translate(551.9166 77.6397) rotate(90)"/><rect class="cls-17" x="227.5787" y="225.5076" width="26.8418" height="32.0276" transform="translate(482.521 0.5219) rotate(90)"/><rect class="cls-16" x="227.5787" y="252.3495" width="26.8418" height="32.0276" transform="translate(509.3628 27.3637) rotate(90)"/><rect class="cls-16" x="227.5787" y="198.8567" width="26.8418" height="32.0276" transform="translate(455.87 -26.1291) rotate(90)"/><rect class="cls-17" x="423.6283" y="219.3287" width="26.8418" height="32.0276" transform="translate(874.0984 470.685) rotate(180)"/><rect class="cls-16" x="396.7864" y="219.3287" width="26.8418" height="32.0276" transform="translate(820.4147 470.685) rotate(180)"/><rect class="cls-16" x="450.2792" y="219.3287" width="26.8418" height="32.0276" transform="translate(927.4003 470.685) rotate(180)"/><rect class="cls-17" x="423.7237" y="219.3287" width="26.8418" height="32.0276" transform="translate(874.2892 470.685) rotate(180)"/><rect class="cls-16" x="396.8819" y="219.3287" width="26.8418" height="32.0276" transform="translate(820.6056 470.685) rotate(180)"/><rect class="cls-16" x="450.3747" y="219.3287" width="26.8418" height="32.0276" transform="translate(927.5912 470.685) rotate(180)"/><rect class="cls-17" x="513.7758" y="219.3287" width="26.8418" height="32.0276" transform="translate(1054.3935 470.685) rotate(180)"/><rect class="cls-16" x="486.934" y="219.3287" width="26.8418" height="32.0276" transform="translate(1000.7099 470.685) rotate(180)"/><rect class="cls-16" x="540.4268" y="219.3287" width="26.8418" height="32.0276" transform="translate(1107.6955 470.685) rotate(180)"/><rect class="cls-17" x="518.1196" y="354.85" width="26.8418" height="32.0276" transform="translate(1063.0811 741.7277) rotate(180)"/><rect class="cls-16" x="491.2778" y="354.85" width="26.8418" height="32.0276" transform="translate(1009.3975 741.7277) rotate(180)"/><rect class="cls-16" x="544.7706" y="354.85" width="26.8418" height="32.0276" transform="translate(1116.3831 741.7277) rotate(180)"/><rect class="cls-17" x="423.8191" y="354.85" width="26.8418" height="32.0276" transform="translate(874.48 741.7277) rotate(180)"/><rect class="cls-16" x="396.9773" y="354.85" width="26.8418" height="32.0276" transform="translate(820.7964 741.7277) rotate(180)"/><rect class="cls-16" x="450.4701" y="354.85" width="26.8418" height="32.0276" transform="translate(927.782 741.7277) rotate(180)"/><rect class="cls-17" x="318.0912" y="352.0298" width="26.8418" height="28.3754" transform="translate(663.0242 732.4349) rotate(180)"/><rect class="cls-16" x="291.2494" y="352.0298" width="26.8418" height="28.3754" transform="translate(609.3406 732.4349) rotate(180)"/><rect class="cls-16" x="344.7422" y="352.0298" width="26.8418" height="28.3754" transform="translate(716.3262 732.4349) rotate(180)"/><rect class="cls-17" x="400.5597" y="287.2221" width="69.6483" height="24.9002"/><rect class="cls-18" x="400.5597" y="262.4909" width="23.0685" height="24.7312"/><rect class="cls-18" x="422.0452" y="312.1223" width="23.0685" height="24.7312"/><rect class="cls-18" x="445.8789" y="262.4909" width="24.3291" height="24.7312"/><rect class="cls-17" x="119.8202" y="275.7744" width="69.6483" height="32.9391"/><rect class="cls-18" x="123.7654" y="243.0588" width="14.1128" height="32.7156"/><rect class="cls-18" x="170.4952" y="243.0588" width="14.1128" height="32.7156"/><rect class="cls-18" x="169.8007" y="308.7135" width="14.1128" height="32.7156"/><rect class="cls-18" x="145.9826" y="308.7135" width="14.1128" height="32.7156"/><rect class="cls-18" x="123.7654" y="308.7135" width="14.1128" height="32.7156"/><rect class="cls-17" x="496.7164" y="287.2221" width="69.6483" height="24.9002"/><rect class="cls-18" x="496.7164" y="262.4909" width="23.0685" height="24.7312"/><rect class="cls-18" x="518.2019" y="312.1223" width="23.0685" height="24.7312"/><rect class="cls-18" x="542.0356" y="262.4909" width="24.3291" height="24.7312"/><text class="cls-19" transform="translate(193.7439 133.1157) scale(1.0844 1)">VL53L0X</text><text class="cls-20" transform="translate(119.8215 502.5103) scale(1.0844 1)">VIN</text><text class="cls-20" transform="translate(176.8611 421.4907) scale(1.0844 1)">2v8</text><text class="cls-20" transform="translate(286.9372 421.4907) scale(1.0844 1)">GPIO</text><text class="cls-20" transform="translate(422.0466 421.4907) scale(1.0844 1)">SCL</text><text class="cls-20" transform="translate(466.8708 502.5103) scale(1.0844 1)">SDA</text><text class="cls-20" transform="translate(339.7419 502.5103) scale(1.0844 1)">SHDN</text><text class="cls-20" transform="translate(232.0759 502.5103) scale(1.0844 1)">GND</text><circle class="cls-21" cx="329.7867" cy="225.6048" r="5.2549"/><text class="cls-22" transform="translate(26.8428 50.8134)">Time of Flight Distance Sensor</text><rect class="cls-6" x="497.6062" y="647.793" width="49.5685" height="99.8614"/><polyline class="cls-23" points="527.26 692.196 528.147 548.313 144.683 548.308 144.683 449.055"/><polyline class="cls-24" points="538.124 675.614 539.885 538.043 271.294 537.726 269.545 449.055"/><polyline class="cls-25" points="516.481 711.223 517.835 547.954 517.835 547.954 517.512 449.055"/><polyline class="cls-26" points="505.42 725.36 506.898 558.689 456.682 558.689 456.521 449.055"/></g></svg>