<svg xmlns="http://www.w3.org/2000/svg" viewBox="0 0 664.558 849.111"><defs><style>.cls-3{fill:#323031}.cls-4{fill:#6a5f27}.cls-5{fill:#5a5a5d}.cls-6{fill:#221f1f}.cls-8{font-size:32.306px}.cls-13,.cls-20,.cls-8{fill:#fff}.cls-20,.cls-8{font-family:Verdana}.cls-12{fill:#e3cba4}.cls-15{fill:#a88a72}.cls-16{fill:#bfbebe}.cls-17{fill:#31313a}.cls-18{fill:#bcbab6}.cls-20{font-size:35.4174px}</style></defs><g id="Layer_1" data-name="Layer 1"><path d="M-667.69 2071.188l-1.852-1390.262a83.142 83.142 0 0183.253-83.031H787.497a83.142 83.142 0 0183.253 83.031l1.851 1400.851a83.142 83.142 0 01-83.252 83.032H-573.82c-55.453 4.77-94.817-24.55-93.867-77.51" fill="#434343"/><rect x="-660.905" y="637.966" width="1517.945" height="1487.09" rx="58.549" transform="rotate(90 98.067 1381.511)" fill="#4f4e51"/><path class="cls-3" d="M-499.266 635.265h821.51v92.116h-821.51z"/><path class="cls-4" d="M277.368 686.252a5.416 5.416 0 115.416-5.416 5.414 5.414 0 01-5.416 5.416m0-24.24a5.416 5.416 0 115.416-5.413 5.41 5.41 0 01-5.416 5.413m0 49.455a5.414 5.414 0 115.416-5.412 5.41 5.41 0 01-5.416 5.412m-81.981-25.215a5.416 5.416 0 115.415-5.416 5.414 5.414 0 01-5.415 5.416m0-24.24a5.416 5.416 0 115.415-5.413 5.41 5.41 0 01-5.415 5.413m0 49.455a5.414 5.414 0 115.415-5.412 5.41 5.41 0 01-5.415 5.412m-81.981-25.215a5.416 5.416 0 115.415-5.416 5.414 5.414 0 01-5.415 5.416m0-24.24a5.416 5.416 0 115.415-5.413 5.41 5.41 0 01-5.415 5.413m0 49.455a5.414 5.414 0 115.415-5.412 5.41 5.41 0 01-5.415 5.412m-81.982-25.215a5.416 5.416 0 115.415-5.416 5.414 5.414 0 01-5.415 5.416m0-24.24a5.416 5.416 0 115.415-5.413 5.41 5.41 0 01-5.415 5.413m0 49.455a5.414 5.414 0 115.415-5.412 5.41 5.41 0 01-5.415 5.412"/><path class="cls-3" d="M359.635 637.999h71.953v89.573h-71.953z"/><path class="cls-4" d="M395.61 688.202a5.416 5.416 0 115.412-5.417 5.414 5.414 0 01-5.412 5.417m0-24.24a5.416 5.416 0 115.412-5.413 5.41 5.41 0 01-5.412 5.412m0 49.456a5.414 5.414 0 115.412-5.413 5.41 5.41 0 01-5.412 5.413"/><path class="cls-3" d="M480.014 637.999h77.644v120.595h-77.644z"/><path class="cls-4" d="M518.839 690.73a5.416 5.416 0 115.412-5.416 5.418 5.418 0 01-5.412 5.416m0-24.24a5.416 5.416 0 115.412-5.412 5.414 5.414 0 01-5.412 5.412m0 49.455a5.414 5.414 0 115.412-5.413 5.414 5.414 0 01-5.412 5.413m0 24.985a5.416 5.416 0 115.412-5.412 5.414 5.414 0 01-5.412 5.413"/><path class="cls-5" d="M655.431 647.472h49.346v86.515h-49.346z"/><path class="cls-6" d="M680.101 692.738a19.468 19.468 0 1119.47-19.47 19.466 19.466 0 01-19.47 19.47"/><path class="cls-5" d="M606.089 647.472h49.342v86.515h-49.342z"/><path fill="#f2f2f2" d="M616.881 666.909h29.296v55.513h-29.296z"/><path class="cls-6" d="M630.759 692.738a19.468 19.468 0 1119.47-19.47 19.47 19.47 0 01-19.47 19.47"/><text class="cls-8" transform="rotate(90 -179.998 566.746)">RS-232</text><text class="cls-8" transform="rotate(90 -137.463 644.172)">I</text><text class="cls-8" transform="rotate(90 -138.883 656.35) scale(.583)">2</text><text class="cls-8" transform="rotate(90 -150.249 656.958)">C</text><text transform="rotate(90 -65.164 690.783)" font-size="21.537" font-family="Verdana" fill="#fff">H (YEL)</text><path stroke="#fff" stroke-miterlimit="10" stroke-width="5.384" fill="none" d="M282.786 764.115v22.284H-46.422"/><path d="M521.371 513.485H141.462a59.938 59.938 0 01-59.938-59.939V138.137A59.938 59.938 0 01141.462 78.2h379.91a59.938 59.938 0 0159.938 59.938v315.409a59.938 59.938 0 01-59.939 59.939z" fill="#1e4696"/><circle class="cls-12" cx="144.683" cy="138.731" r="43.28"/><circle class="cls-13" cx="144.683" cy="138.731" r="31.535"/><circle class="cls-12" cx="144.683" cy="449.055" r="21.067"/><circle class="cls-13" cx="144.683" cy="449.055" r="15.35"/><circle class="cls-12" cx="205.675" cy="449.055" r="21.067"/><circle class="cls-13" cx="205.675" cy="449.055" r="15.35"/><circle class="cls-12" cx="269.545" cy="449.055" r="21.067"/><circle class="cls-13" cx="269.545" cy="449.055" r="15.35"/><circle class="cls-12" cx="330.536" cy="449.055" r="21.067"/><circle class="cls-13" cx="330.536" cy="449.055" r="15.35"/><circle class="cls-12" cx="392.651" cy="449.055" r="21.067"/><circle class="cls-13" cx="392.651" cy="449.055" r="15.35"/><circle class="cls-12" cx="456.521" cy="449.055" r="21.067"/><circle class="cls-13" cx="456.521" cy="449.055" r="15.35"/><circle class="cls-12" cx="517.512" cy="449.055" r="21.067"/><circle class="cls-13" cx="517.512" cy="449.055" r="15.35"/><circle class="cls-12" cx="518.469" cy="138.731" r="43.28"/><circle class="cls-13" cx="518.469" cy="138.731" r="31.535"/><path fill="#45444d" d="M302.396 208.164h58.041v108.654h-58.041z"/><path class="cls-15" d="M232.073 158.169h22.213v32.028h-22.213z"/><path class="cls-16" d="M254.286 158.169h22.213v32.028h-22.213zm-44.268 0h22.213v32.028h-22.213z"/><path class="cls-15" d="M140.183 199.401h22.213v32.028h-22.213z"/><path class="cls-16" d="M162.395 199.401h22.213v32.028h-22.213zm-44.267 0h22.213v32.028h-22.213z"/><path class="cls-15" d="M143.538 355.498h22.213v32.028h-22.213z"/><path class="cls-16" d="M165.751 355.498h22.213v32.028h-22.213zm-44.268 0h22.213v32.028h-22.213z"/><path class="cls-17" transform="rotate(90 237.138 341.43)" d="M223.718 325.415h26.842v32.028h-26.842z"/><path class="cls-16" transform="rotate(90 237.138 368.271)" d="M223.718 352.257h26.842v32.028h-26.842z"/><path class="cls-16" transform="rotate(90 237.138 314.778)" d="M223.718 298.764h26.842v32.028h-26.842z"/><path class="cls-17" transform="rotate(90 241 241.521)" d="M227.579 225.508h26.842v32.028h-26.842z"/><path class="cls-16" transform="rotate(90 241 268.363)" d="M227.579 252.35h26.842v32.028h-26.842z"/><path class="cls-16" transform="rotate(90 241 214.87)" d="M227.579 198.857h26.842v32.028h-26.842z"/><path class="cls-17" transform="rotate(180 437.05 235.343)" d="M423.628 219.329h26.842v32.028h-26.842z"/><path class="cls-16" transform="rotate(180 410.207 235.343)" d="M396.786 219.329h26.842v32.028h-26.842z"/><path class="cls-16" transform="rotate(180 463.7 235.343)" d="M450.279 219.329h26.842v32.028h-26.842z"/><path class="cls-17" transform="rotate(180 437.145 235.343)" d="M423.724 219.329h26.842v32.028h-26.842z"/><path class="cls-16" transform="rotate(180 410.303 235.343)" d="M396.882 219.329h26.842v32.028h-26.842z"/><path class="cls-16" transform="rotate(180 463.796 235.343)" d="M450.375 219.329h26.842v32.028h-26.842z"/><path class="cls-17" transform="rotate(180 527.197 235.343)" d="M513.776 219.329h26.842v32.028h-26.842z"/><path class="cls-16" transform="rotate(180 500.355 235.343)" d="M486.934 219.329h26.842v32.028h-26.842z"/><path class="cls-16" transform="rotate(180 553.848 235.343)" d="M540.427 219.329h26.842v32.028h-26.842z"/><path class="cls-17" transform="rotate(180 531.54 370.864)" d="M518.12 354.85h26.842v32.028H518.12z"/><path class="cls-16" transform="rotate(180 504.699 370.864)" d="M491.278 354.85h26.842v32.028h-26.842z"/><path class="cls-16" transform="rotate(180 558.192 370.864)" d="M544.771 354.85h26.842v32.028h-26.842z"/><path class="cls-17" transform="rotate(180 437.24 370.864)" d="M423.819 354.85h26.842v32.028h-26.842z"/><path class="cls-16" transform="rotate(180 410.398 370.864)" d="M396.977 354.85h26.842v32.028h-26.842z"/><path class="cls-16" transform="rotate(180 463.891 370.864)" d="M450.47 354.85h26.842v32.028H450.47z"/><path class="cls-17" transform="rotate(180 331.512 366.217)" d="M318.091 352.03h26.842v28.375h-26.842z"/><path class="cls-16" transform="rotate(180 304.67 366.217)" d="M291.249 352.03h26.842v28.375h-26.842z"/><path class="cls-16" transform="rotate(180 358.163 366.217)" d="M344.742 352.03h26.842v28.375h-26.842z"/><path class="cls-17" d="M400.56 287.222h69.648v24.9H400.56z"/><path class="cls-18" d="M400.56 262.491h23.069v24.731H400.56zm21.485 49.631h23.069v24.731h-23.069zm23.834-49.631h24.329v24.731h-24.329z"/><path class="cls-17" d="M119.82 275.774h69.648v32.939H119.82z"/><path class="cls-18" d="M123.765 243.059h14.113v32.716h-14.113zm46.73 0h14.113v32.716h-14.113zm-.694 65.655h14.113v32.716h-14.113zm-23.818 0h14.113v32.716h-14.113zm-22.218 0h14.113v32.716h-14.113z"/><path class="cls-17" d="M496.716 287.222h69.648v24.9h-69.648z"/><path class="cls-18" d="M496.716 262.491h23.069v24.731h-23.069zm21.486 49.631h23.069v24.731h-23.069zm23.834-49.631h24.329v24.731h-24.329z"/><text transform="matrix(1.0844 0 0 1 193.744 133.116)" font-size="58.066" font-family="Verdana" fill="#fff">VL53L0X</text><text class="cls-20" transform="matrix(1.0844 0 0 1 119.822 502.51)">VIN</text><text class="cls-20" transform="matrix(1.0844 0 0 1 176.861 421.49)">2v8</text><text class="cls-20" transform="matrix(1.0844 0 0 1 286.937 421.49)">GPIO</text><text class="cls-20" transform="matrix(1.0844 0 0 1 422.047 421.49)">SCL</text><text class="cls-20" transform="matrix(1.0844 0 0 1 466.87 502.51)">SDA</text><text class="cls-20" transform="matrix(1.0844 0 0 1 339.742 502.51)">SHDN</text><text class="cls-20" transform="matrix(1.0844 0 0 1 232.076 502.51)">GND</text><circle cx="329.787" cy="225.605" r="5.255" fill="#231f20"/><text transform="translate(26.843 50.813)" font-size="39.648" fill="#010101" letter-spacing=".001em" font-family="Verdana">Time of Flight Distance Sensor</text><path class="cls-6" d="M497.606 647.793h49.569v99.861h-49.569z"/><path stroke-linecap="round" stroke-linejoin="round" stroke-width="10.832" stroke="#e9262a" fill="none" d="M527.26 692.196l.887-143.883-383.464-.005v-99.253"/><path stroke="#221f1f" stroke-linecap="round" stroke-linejoin="round" stroke-width="10.832" fill="none" d="M538.124 675.614l1.761-137.571-268.591-.317-1.749-88.671"/><path stroke="#babcbe" stroke-linecap="round" stroke-linejoin="round" stroke-width="10.832" fill="none" d="M516.481 711.223l1.354-163.269h0l-.323-98.899"/><path stroke="#1c75bc" stroke-linecap="round" stroke-linejoin="round" stroke-width="10.832" fill="none" d="M505.42 725.36l1.478-166.671h-50.216l-.161-109.634"/></g></svg>