<svg xmlns="http://www.w3.org/2000/svg" viewBox="0 0 916.7499 638.0051"><defs><style>.cls-1{fill:#434343;}.cls-2{fill:#4f4e51;}.cls-3{fill:#323031;}.cls-4{fill:#6a5f27;}.cls-5{font-size:36.2844px;}.cls-10,.cls-14,.cls-15,.cls-16,.cls-17,.cls-5{fill:#fff;}.cls-10,.cls-14,.cls-15,.cls-17,.cls-19,.cls-21,.cls-5{font-family:Heebo-Light, Heebo;font-weight:300;}.cls-6{letter-spacing:0.009em;}.cls-7{letter-spacing:-0.058em;}.cls-13,.cls-23,.cls-24,.cls-25,.cls-34,.cls-8{fill:none;}.cls-16,.cls-8{stroke:#fff;}.cls-8{stroke-miterlimit:10;stroke-width:6.0474px;}.cls-9{letter-spacing:-0.031em;}.cls-10{font-size:26.2174px;}.cls-11{fill:#5a5d65;}.cls-12{fill:#23446c;}.cls-13{stroke:#f1f2f2;stroke-miterlimit:2;}.cls-13,.cls-16{stroke-width:1.5319px;}.cls-14{font-size:22.1248px;}.cls-15{font-size:21.4559px;}.cls-16,.cls-23,.cls-24,.cls-25,.cls-34{stroke-linecap:round;stroke-linejoin:round;}.cls-17{font-size:25.5365px;}.cls-18{letter-spacing:-0.02em;}.cls-19,.cls-21{font-size:48.744px;fill:#010101;}.cls-20,.cls-21{letter-spacing:0.001em;}.cls-22{fill:#221f1f;}.cls-23{stroke:#221f1f;}.cls-23,.cls-24,.cls-25{stroke-width:12.186px;}.cls-24{stroke:#e9262a;}.cls-25{stroke:#babcbe;}.cls-26{fill:#1b1b19;}.cls-27{fill:#1e1f19;}.cls-28{fill:#262626;}.cls-29{fill:#232122;}.cls-30{fill:#624118;}.cls-31{fill:#a6a39b;}.cls-32{fill:#181818;}.cls-33{fill:#0b0c09;}.cls-34{stroke:#939598;stroke-width:22.5px;}</style></defs><g id="Layer_1" data-name="Layer 1"><path class="cls-1" d="M1084.6871,252.06-476.78,254.14a93.3812,93.3812,0,0,1-93.2568-93.5051V-1382.3288a93.3812,93.3812,0,0,1,93.2568-93.5051l1573.3606-2.0793a93.3812,93.3812,0,0,1,93.2568,93.5051V146.63c5.3584,62.2814-27.5736,106.4936-87.0556,105.4267"/><rect class="cls-2" x="-542.3576" y="-1443.1074" width="1704.8744" height="1670.2194" rx="65.7589"/><rect class="cls-3" x="-71.1586" y="99.9841" width="353.9112" height="100.604"/><rect class="cls-3" x="19.177" y="99.9841" width="80.8136" height="100.604"/><path class="cls-4" d="M59.5865,144.2049a6.081,6.081,0,1,1-6.079,6.0788,6.08,6.08,0,0,1,6.079-6.0788"/><path class="cls-4" d="M59.5865,171.4259a6.0833,6.0833,0,1,1-6.079,6.0834,6.0814,6.0814,0,0,1,6.079-6.0834"/><path class="cls-4" d="M59.5865,115.88a6.0833,6.0833,0,1,1-6.079,6.0788,6.08,6.08,0,0,1,6.079-6.0788"/><rect class="cls-3" x="201.939" y="99.9841" width="80.8136" height="100.604"/><path class="cls-4" d="M242.348,144.2049a6.081,6.081,0,1,1-6.0791,6.0788,6.08,6.08,0,0,1,6.0791-6.0788"/><path class="cls-4" d="M242.348,171.4259a6.0833,6.0833,0,1,1-6.0791,6.0834,6.0814,6.0814,0,0,1,6.0791-6.0834"/><path class="cls-4" d="M242.348,115.88a6.0833,6.0833,0,1,1-6.0791,6.0788,6.08,6.08,0,0,1,6.0791-6.0788"/><rect class="cls-3" x="110.6117" y="99.9841" width="80.8136" height="100.604"/><path class="cls-4" d="M151.02,144.2049a6.081,6.081,0,1,1-6.0791,6.0788,6.0768,6.0768,0,0,1,6.0791-6.0788"/><path class="cls-4" d="M151.02,171.4259a6.0833,6.0833,0,1,1-6.0791,6.0834,6.0778,6.0778,0,0,1,6.0791-6.0834"/><path class="cls-4" d="M151.02,115.88a6.0833,6.0833,0,1,1-6.0791,6.0788A6.0768,6.0768,0,0,1,151.02,115.88"/><rect class="cls-3" x="323.0582" y="99.743" width="353.9112" height="100.604"/><path class="cls-4" d="M363.4628,143.9637a6.081,6.081,0,1,1-6.079,6.0788,6.0777,6.0777,0,0,1,6.079-6.0788"/><path class="cls-4" d="M363.4628,171.1847a6.0833,6.0833,0,1,1-6.079,6.0834,6.0787,6.0787,0,0,1,6.079-6.0834"/><path class="cls-4" d="M363.4628,115.6392a6.0833,6.0833,0,1,1-6.079,6.0788,6.0777,6.0777,0,0,1,6.079-6.0788"/><rect class="cls-3" x="413.3938" y="99.743" width="80.8136" height="100.604"/><path class="cls-4" d="M453.8012,143.9637a6.081,6.081,0,1,1-6.0834,6.0788,6.0768,6.0768,0,0,1,6.0834-6.0788"/><path class="cls-4" d="M453.8012,171.1847a6.0833,6.0833,0,1,1-6.0834,6.0834,6.0778,6.0778,0,0,1,6.0834-6.0834"/><path class="cls-4" d="M453.8012,115.6392a6.0833,6.0833,0,1,1-6.0834,6.0788,6.0768,6.0768,0,0,1,6.0834-6.0788"/><rect class="cls-3" x="596.1559" y="99.743" width="80.8136" height="100.604"/><path class="cls-4" d="M636.5626,143.9637a6.081,6.081,0,1,1-6.0834,6.0788,6.0768,6.0768,0,0,1,6.0834-6.0788"/><path class="cls-4" d="M636.5626,171.1847a6.0833,6.0833,0,1,1-6.0834,6.0834,6.0778,6.0778,0,0,1,6.0834-6.0834"/><path class="cls-4" d="M636.5626,115.6392a6.0833,6.0833,0,1,1-6.0834,6.0788,6.0768,6.0768,0,0,1,6.0834-6.0788"/><rect class="cls-3" x="504.8242" y="99.743" width="80.8179" height="100.604"/><path class="cls-4" d="M545.2342,143.9637a6.081,6.081,0,1,1-6.0834,6.0788,6.0768,6.0768,0,0,1,6.0834-6.0788"/><path class="cls-4" d="M545.2342,171.1847a6.0833,6.0833,0,1,1-6.0834,6.0834,6.0778,6.0778,0,0,1,6.0834-6.0834"/><path class="cls-4" d="M545.2342,115.6392a6.0833,6.0833,0,1,1-6.0834,6.0788,6.0768,6.0768,0,0,1,6.0834-6.0788"/><text class="cls-5" transform="translate(59.3342 44.6631)">RE<tspan class="cls-6" x="43.6899" y="0">L</tspan><tspan class="cls-7" x="63.1509" y="0">A</tspan><tspan x="83.7241" y="0">Y</tspan></text><polyline class="cls-8" points="-32.322 56.947 -32.322 37.13 36.276 37.13"/><polyline class="cls-8" points="179.488 37.128 241.717 37.128 241.717 59.402"/><text class="cls-5" transform="translate(412.9592 44.6631)">ANA<tspan class="cls-9" x="71.1338" y="0">L</tspan><tspan x="89.1436" y="0">OG IN</tspan></text><text class="cls-10" transform="translate(807.1741 72.8623)">RESET</text><polyline class="cls-8" points="361.687 56.798 361.687 38.353 393.017 38.353"/><polyline class="cls-8" points="613.72 35.902 644.832 35.902 644.832 59.403"/><rect class="cls-11" x="783.864" y="93.1054" width="243.0762" height="113.8791" rx="22.0073"/><rect class="cls-12" x="815.7237" y="119.5587" width="60.565" height="60.9725" rx="30.2825"/><line class="cls-13" x1="733.4966" y1="211.4719" x2="744.8269" y2="211.4719"/><line class="cls-13" x1="729.0099" y1="206.6679" x2="749.3407" y2="206.6679"/><line class="cls-13" x1="724.0607" y1="201.873" x2="754.2806" y2="201.873"/><line class="cls-13" x1="729.3272" y1="151.6664" x2="711.4071" y2="151.6664"/><line class="cls-13" x1="729.3181" y1="121.3738" x2="711.398" y2="121.3738"/><polyline class="cls-13" points="739.171 201.873 739.171 182.838 711.407 182.838"/><text class="cls-14" transform="translate(731.2834 127.7764) scale(1 1.0605)">S</text><text class="cls-15" transform="translate(732.7483 159.4248) scale(1 1.1297)">5V</text><rect class="cls-16" x="703.7795" y="117.2938" width="7.0994" height="7.7226"/><rect class="cls-16" x="704.2443" y="147.5038" width="7.0994" height="7.7226"/><rect class="cls-16" x="704.1397" y="178.6434" width="7.0994" height="7.7226"/><text class="cls-17" transform="translate(691.7209 -5.8838) scale(1 1.0349)"><tspan class="cls-18">A</tspan><tspan x="15.4492" y="0">CCELEROMETER</tspan></text><text class="cls-19" transform="translate(54.4045 317.7432)"><tspan class="cls-20">26 A</tspan><tspan x="96.6118" y="0">WG</tspan><tspan x="0" y="58.4932">minumum</tspan></text><text class="cls-21" transform="translate(464.5061 317.7412)">IR Proximity Sensor<tspan x="0" y="58.4932">Sharp GP2Y0A21YK</tspan></text><rect class="cls-22" x="352.0116" y="108.31" width="42.3062" height="101.3626"/><line class="cls-23" x1="383.8828" y1="189.1911" x2="385.6004" y2="398.1726"/><line class="cls-24" x1="373.1653" y1="154.6915" x2="373.855" y2="398.1726"/><line class="cls-25" x1="361.5261" y1="133.3912" x2="362.066" y2="398.1726"/><path class="cls-26" d="M615.5918,468.84H586.3641a48.9755,48.9755,0,0,0-48.9755,48.9756h0a48.9755,48.9755,0,0,0,48.9755,48.9756h29.2277a48.9755,48.9755,0,0,0,48.9756-48.9756h0A48.9755,48.9755,0,0,0,615.5918,468.84Zm-.333,70.2454a21.27,21.27,0,1,1,21.27-21.27A21.27,21.27,0,0,1,615.2588,539.0855Z"/><path class="cls-26" d="M189.8741,467.3093H130.7022a48.94,48.94,0,0,0-48.94,48.94h0a48.94,48.94,0,0,0,48.94,48.94h59.1719a48.94,48.94,0,0,0,48.94-48.94h0A48.94,48.94,0,0,0,189.8741,467.3093Zm-57.8148,69.4749a21.0874,21.0874,0,1,1,21.0874-21.0874A21.0875,21.0875,0,0,1,132.0593,536.7842Z"/><rect class="cls-27" x="182.3566" y="430.3351" width="393.8318" height="172.2592" transform="translate(758.5449 1032.9293) rotate(180)"/><rect class="cls-28" x="182.3566" y="460.0582" width="393.8318" height="113.4884" transform="translate(758.5449 1033.6048) rotate(180)"/><rect class="cls-29" x="466.7531" y="468.8401" width="102.68" height="97.9513" transform="translate(1036.1861 1035.6314) rotate(180)"/><rect class="cls-26" x="196.5426" y="468.8401" width="216.8439" height="93.7134" transform="translate(609.9291 1031.3935) rotate(180)"/><rect class="cls-30" x="304.9646" y="351.9527" width="139.6602" height="108.1055" transform="translate(749.5893 812.011) rotate(180)"/><polygon class="cls-31" points="425.09 455.07 425.09 355.473 324.499 355.473 324.499 455.07 337.053 455.07 337.053 430.335 413.975 430.335 413.975 455.07 425.09 455.07"/><path class="cls-29" d="M196.5426,466.8147H296.792a66.14,66.14,0,0,1,0,94.9319H196.5426Z"/><circle cx="249.3039" cy="515.6968" r="32.9667"/><path class="cls-29" d="M132.0593,470.2a46.05,46.05,0,1,0,46.05,46.05A46.05,46.05,0,0,0,132.0593,470.2Zm-.2507,66.9356a21.0874,21.0874,0,1,1,21.0873-21.0874A21.0875,21.0875,0,0,1,131.8086,537.1353Z"/><path class="cls-29" d="M615.2587,471.99a45.7507,45.7507,0,0,0-39.07,21.9672v47.7171a45.8062,45.8062,0,1,0,39.07-69.6843Zm0,67.0955a21.27,21.27,0,1,1,21.27-21.27A21.27,21.27,0,0,1,615.2588,539.0855Z"/><circle class="cls-32" cx="518.0931" cy="517.8157" r="40.7024"/><circle class="cls-33" cx="518.0931" cy="517.8157" r="24.6211"/><line class="cls-34" x1="387.0099" y1="330.5486" x2="387.0099" y2="374.0011"/><line class="cls-34" x1="373.1647" y1="330.2264" x2="373.1647" y2="373.6789"/><line class="cls-34" x1="359.3195" y1="330.5486" x2="359.3195" y2="374.0011"/></g></svg>