<svg xmlns="http://www.w3.org/2000/svg" viewBox="0 0 997.4915 630.9841"><defs><style>.cls-1{fill:#434343;}.cls-2{fill:#4f4e51;}.cls-3{fill:#323031;}.cls-4{fill:#6a5f27;}.cls-5{font-size:36.2844px;}.cls-11,.cls-15,.cls-16,.cls-17,.cls-5{fill:#fff;}.cls-11,.cls-15,.cls-16,.cls-18,.cls-5{font-family:Verdana;}.cls-6{letter-spacing:0.009em;}.cls-7{letter-spacing:-0.058em;}.cls-8{letter-spacing:0em;}.cls-14,.cls-20,.cls-21,.cls-22,.cls-31,.cls-9{fill:none;}.cls-17,.cls-9{stroke:#fff;}.cls-9{stroke-miterlimit:10;stroke-width:6.0474px;}.cls-10{letter-spacing:-0.031em;}.cls-11{font-size:26.2174px;}.cls-12{fill:#5a5d65;}.cls-13{fill:#23446c;}.cls-14{stroke:#f1f2f2;stroke-miterlimit:2;}.cls-14,.cls-17{stroke-width:1.5319px;}.cls-15{font-size:22.1248px;}.cls-16{font-size:21.4559px;}.cls-17,.cls-20,.cls-21,.cls-22,.cls-31{stroke-linecap:round;stroke-linejoin:round;}.cls-18{font-size:48.744px;fill:#010101;letter-spacing:0.001em;}.cls-19{fill:#221f1f;}.cls-20{stroke:#221f1f;}.cls-20,.cls-21,.cls-22{stroke-width:12.186px;}.cls-21{stroke:#e9262a;}.cls-22{stroke:#babcbe;}.cls-23{fill:#1b1b19;}.cls-24{fill:#1e1f19;}.cls-25{fill:#262626;}.cls-26{fill:#232122;}.cls-27{fill:#624118;}.cls-28{fill:#a6a39b;}.cls-29{fill:#181818;}.cls-30{fill:#0b0c09;}.cls-31{stroke:#939598;stroke-width:22.5px;}</style></defs><g id="Layer_1" data-name="Layer 1"><path class="cls-1" d="M1067.1346,245.0392l-1561.4669,2.0793a93.3812,93.3812,0,0,1-93.2568-93.5051V-1389.35a93.3812,93.3812,0,0,1,93.2568-93.5051l1573.3606-2.0793a93.3811,93.3811,0,0,1,93.2567,93.5051V139.6088c5.3584,62.2815-27.5736,106.4937-87.0556,105.4268"/><rect class="cls-2" x="-559.9101" y="-1450.1284" width="1704.8744" height="1670.2194" rx="65.7589"/><rect class="cls-3" x="-88.7111" y="92.9631" width="353.9112" height="100.604"/><rect class="cls-3" x="1.6245" y="92.9631" width="80.8136" height="100.604"/><path class="cls-4" d="M42.034,137.1839a6.081,6.081,0,1,1-6.0791,6.0788,6.08,6.08,0,0,1,6.0791-6.0788"/><path class="cls-4" d="M42.034,164.4049a6.0833,6.0833,0,1,1-6.0791,6.0834,6.0814,6.0814,0,0,1,6.0791-6.0834"/><path class="cls-4" d="M42.034,108.8594a6.0833,6.0833,0,1,1-6.0791,6.0788,6.08,6.08,0,0,1,6.0791-6.0788"/><rect class="cls-3" x="184.3865" y="92.9631" width="80.8136" height="100.604"/><path class="cls-4" d="M224.7955,137.1839a6.081,6.081,0,1,1-6.0791,6.0788,6.08,6.08,0,0,1,6.0791-6.0788"/><path class="cls-4" d="M224.7955,164.4049a6.0833,6.0833,0,1,1-6.0791,6.0834,6.0814,6.0814,0,0,1,6.0791-6.0834"/><path class="cls-4" d="M224.7955,108.8594a6.0833,6.0833,0,1,1-6.0791,6.0788,6.08,6.08,0,0,1,6.0791-6.0788"/><rect class="cls-3" x="93.0592" y="92.9631" width="80.8136" height="100.604"/><path class="cls-4" d="M133.4671,137.1839a6.081,6.081,0,1,1-6.0791,6.0788,6.0768,6.0768,0,0,1,6.0791-6.0788"/><path class="cls-4" d="M133.4671,164.4049a6.0833,6.0833,0,1,1-6.0791,6.0834,6.0778,6.0778,0,0,1,6.0791-6.0834"/><path class="cls-4" d="M133.4671,108.8594a6.0833,6.0833,0,1,1-6.0791,6.0788,6.0768,6.0768,0,0,1,6.0791-6.0788"/><rect class="cls-3" x="305.5057" y="92.7219" width="353.9112" height="100.604"/><path class="cls-4" d="M345.91,136.9427a6.081,6.081,0,1,1-6.079,6.0788,6.0777,6.0777,0,0,1,6.079-6.0788"/><path class="cls-4" d="M345.91,164.1637a6.0833,6.0833,0,1,1-6.079,6.0834,6.0787,6.0787,0,0,1,6.079-6.0834"/><path class="cls-4" d="M345.91,108.6182a6.0833,6.0833,0,1,1-6.079,6.0788,6.0777,6.0777,0,0,1,6.079-6.0788"/><rect class="cls-3" x="395.8413" y="92.7219" width="80.8136" height="100.604"/><path class="cls-4" d="M436.2486,136.9427a6.081,6.081,0,1,1-6.0834,6.0788,6.0767,6.0767,0,0,1,6.0834-6.0788"/><path class="cls-4" d="M436.2486,164.1637a6.0833,6.0833,0,1,1-6.0834,6.0834,6.0777,6.0777,0,0,1,6.0834-6.0834"/><path class="cls-4" d="M436.2486,108.6182a6.0833,6.0833,0,1,1-6.0834,6.0788,6.0767,6.0767,0,0,1,6.0834-6.0788"/><rect class="cls-3" x="578.6033" y="92.7219" width="80.8136" height="100.604"/><path class="cls-4" d="M619.01,136.9427a6.081,6.081,0,1,1-6.0834,6.0788,6.0767,6.0767,0,0,1,6.0834-6.0788"/><path class="cls-4" d="M619.01,164.1637a6.0833,6.0833,0,1,1-6.0834,6.0834,6.0777,6.0777,0,0,1,6.0834-6.0834"/><path class="cls-4" d="M619.01,108.6182a6.0833,6.0833,0,1,1-6.0834,6.0788,6.0767,6.0767,0,0,1,6.0834-6.0788"/><rect class="cls-3" x="487.2717" y="92.7219" width="80.8179" height="100.604"/><path class="cls-4" d="M527.6817,136.9427a6.081,6.081,0,1,1-6.0834,6.0788,6.0767,6.0767,0,0,1,6.0834-6.0788"/><path class="cls-4" d="M527.6817,164.1637a6.0833,6.0833,0,1,1-6.0834,6.0834,6.0777,6.0777,0,0,1,6.0834-6.0834"/><path class="cls-4" d="M527.6817,108.6182a6.0833,6.0833,0,1,1-6.0834,6.0788,6.0767,6.0767,0,0,1,6.0834-6.0788"/><text class="cls-5" transform="translate(41.7817 37.6421)">RE<tspan class="cls-6" x="48.1724" y="0">L</tspan><tspan class="cls-7" x="68.6963" y="0">A</tspan><tspan class="cls-8" x="91.3955" y="0">Y</tspan></text><polyline class="cls-9" points="-49.875 49.926 -49.875 30.109 18.723 30.109"/><polyline class="cls-9" points="161.935 30.107 224.164 30.107 224.164 52.381"/><text class="cls-5" transform="translate(395.4067 37.6421)">ANA<tspan class="cls-10" x="76.75" y="0">L</tspan><tspan x="95.8223" y="0">OG IN</tspan></text><text class="cls-11" transform="translate(789.6216 65.8413)">RESET</text><text class="cls-11" transform="translate(915.0747 65.8413)">USER</text><polyline class="cls-9" points="344.134 49.777 344.134 31.332 375.465 31.332"/><polyline class="cls-9" points="596.167 28.881 627.279 28.881 627.279 52.382"/><polyline class="cls-9" points="976.428 -2.379 951.399 -2.379 951.399 -361.955"/><rect class="cls-12" x="766.3115" y="86.0844" width="243.0762" height="113.8791" rx="22.0073"/><rect class="cls-13" x="798.1711" y="112.5377" width="60.565" height="60.9725" rx="30.2825"/><rect class="cls-13" x="916.9631" y="112.5377" width="60.565" height="60.9725" rx="30.2825"/><line class="cls-14" x1="715.9441" y1="204.4509" x2="727.2744" y2="204.4509"/><line class="cls-14" x1="711.4574" y1="199.6469" x2="731.7882" y2="199.6469"/><line class="cls-14" x1="706.5082" y1="194.852" x2="736.728" y2="194.852"/><line class="cls-14" x1="711.7747" y1="144.6454" x2="693.8546" y2="144.6454"/><line class="cls-14" x1="711.7655" y1="114.3528" x2="693.8455" y2="114.3528"/><polyline class="cls-14" points="721.618 194.852 721.618 175.817 693.854 175.817"/><text class="cls-15" transform="translate(713.7309 120.7554) scale(1 1.0605)">S</text><text class="cls-16" transform="translate(715.1958 152.4038) scale(1 1.1297)">5V</text><rect class="cls-17" x="686.227" y="110.2728" width="7.0994" height="7.7226"/><rect class="cls-17" x="686.6918" y="140.4828" width="7.0994" height="7.7226"/><rect class="cls-17" x="686.5872" y="171.6224" width="7.0994" height="7.7226"/><text class="cls-18" transform="translate(468.0166 310.7202)">IR Proximity Sensor<tspan x="0" y="58.4932">Sharp GP2Y0A21YK</tspan></text><rect class="cls-19" x="334.4591" y="101.289" width="42.3062" height="101.3626"/><line class="cls-20" x1="366.3303" y1="182.1701" x2="368.0479" y2="391.1516"/><line class="cls-21" x1="355.6128" y1="147.6705" x2="356.3025" y2="391.1516"/><line class="cls-22" x1="343.9735" y1="126.3702" x2="344.5135" y2="391.1516"/><path class="cls-23" d="M598.0393,461.8191H568.8116a48.9756,48.9756,0,0,0-48.9756,48.9756h0A48.9756,48.9756,0,0,0,568.8116,559.77h29.2277a48.9756,48.9756,0,0,0,48.9756-48.9756h0A48.9756,48.9756,0,0,0,598.0393,461.8191Zm-.333,70.2454a21.27,21.27,0,1,1,21.27-21.27A21.27,21.27,0,0,1,597.7063,532.0645Z"/><path class="cls-23" d="M172.3216,460.2883H113.15a48.94,48.94,0,0,0-48.94,48.94h0a48.94,48.94,0,0,0,48.94,48.94h59.1719a48.94,48.94,0,0,0,48.94-48.94h0A48.94,48.94,0,0,0,172.3216,460.2883Zm-57.8148,69.4749a21.0874,21.0874,0,1,1,21.0874-21.0874A21.0875,21.0875,0,0,1,114.5068,529.7632Z"/><rect class="cls-24" x="164.8041" y="423.3141" width="393.8318" height="172.2592" transform="translate(723.4399 1018.8873) rotate(180)"/><rect class="cls-25" x="164.8041" y="453.0372" width="393.8318" height="113.4884" transform="translate(723.4399 1019.5628) rotate(180)"/><rect class="cls-26" x="449.2006" y="461.8191" width="102.68" height="97.9513" transform="translate(1001.0811 1021.5894) rotate(180)"/><rect class="cls-23" x="178.9901" y="461.8191" width="216.8439" height="93.7134" transform="translate(574.8241 1017.3515) rotate(180)"/><rect class="cls-27" x="287.412" y="344.9317" width="139.6602" height="108.1055" transform="translate(714.4843 797.969) rotate(180)"/><polygon class="cls-28" points="407.538 448.049 407.538 348.452 306.946 348.452 306.946 448.049 319.501 448.049 319.501 423.314 396.422 423.314 396.422 448.049 407.538 448.049"/><path class="cls-26" d="M178.99,459.7937H279.24a66.14,66.14,0,0,1,0,94.9318H178.99Z"/><circle cx="231.7514" cy="508.6758" r="32.9667"/><path class="cls-26" d="M114.5068,463.1787a46.05,46.05,0,1,0,46.05,46.05A46.05,46.05,0,0,0,114.5068,463.1787Zm-.2507,66.9356a21.0874,21.0874,0,1,1,21.0873-21.0874A21.0874,21.0874,0,0,1,114.2561,530.1143Z"/><path class="cls-26" d="M597.7062,464.969a45.7507,45.7507,0,0,0-39.07,21.9672v47.7171a45.8062,45.8062,0,1,0,39.07-69.6843Zm0,67.0955a21.27,21.27,0,1,1,21.27-21.27A21.27,21.27,0,0,1,597.7063,532.0645Z"/><circle class="cls-29" cx="500.5406" cy="510.7947" r="40.7024"/><circle class="cls-30" cx="500.5406" cy="510.7947" r="24.6211"/><line class="cls-31" x1="369.4574" y1="323.5276" x2="369.4574" y2="366.9801"/><line class="cls-31" x1="355.6122" y1="323.2054" x2="355.6122" y2="366.6579"/><line class="cls-31" x1="341.767" y1="323.5276" x2="341.767" y2="366.9801"/></g></svg>