<svg xmlns="http://www.w3.org/2000/svg" viewBox="0 0 997.491 630.984"><defs><style>.cls-3{fill:#323031}.cls-4{fill:#6a5f27}.cls-5{font-size:36.2844px}.cls-11,.cls-5{fill:#fff;font-family:Verdana}.cls-9{fill:none;stroke:#fff;stroke-miterlimit:10;stroke-width:6.0474px}.cls-11{font-size:26.2174px}.cls-13{fill:#23446c}.cls-23{fill:#1b1b19}.cls-26{fill:#232122}</style></defs><g id="Layer_1" data-name="Layer 1"><path d="M1067.135 245.04l-1561.467 2.079a93.381 93.381 0 01-93.257-93.506V-1389.35a93.381 93.381 0 0193.257-93.505l1573.36-2.08a93.381 93.381 0 0193.257 93.506V139.609c5.358 62.281-27.574 106.493-87.056 105.427" fill="#434343"/><rect x="-559.91" y="-1450.128" width="1704.874" height="1670.219" rx="65.759" fill="#4f4e51"/><path class="cls-3" d="M-88.711 92.963H265.2v100.604H-88.711z"/><path class="cls-3" d="M1.625 92.963h80.814v100.604H1.625z"/><path class="cls-4" d="M42.034 137.184a6.081 6.081 0 11-6.08 6.079 6.08 6.08 0 016.08-6.08m0 27.222a6.083 6.083 0 11-6.08 6.083 6.081 6.081 0 016.08-6.083m0-55.545a6.083 6.083 0 11-6.08 6.078 6.08 6.08 0 016.08-6.079"/><path class="cls-3" d="M184.387 92.963h80.814v100.604h-80.814z"/><path class="cls-4" d="M224.796 137.184a6.081 6.081 0 11-6.08 6.079 6.08 6.08 0 016.08-6.08m0 27.222a6.083 6.083 0 11-6.08 6.083 6.081 6.081 0 016.08-6.083m0-55.545a6.083 6.083 0 11-6.08 6.078 6.08 6.08 0 016.08-6.079"/><path class="cls-3" d="M93.059 92.963h80.814v100.604H93.059z"/><path class="cls-4" d="M133.467 137.184a6.081 6.081 0 11-6.079 6.079 6.077 6.077 0 016.08-6.08m-.001 27.222a6.083 6.083 0 11-6.079 6.083 6.078 6.078 0 016.08-6.083m-.001-55.545a6.083 6.083 0 11-6.079 6.078 6.077 6.077 0 016.08-6.079"/><path class="cls-3" d="M305.506 92.722h353.911v100.604H305.506z"/><path class="cls-4" d="M345.91 136.943a6.081 6.081 0 11-6.079 6.078 6.078 6.078 0 016.079-6.078m0 27.221a6.083 6.083 0 11-6.079 6.083 6.079 6.079 0 016.079-6.083m0-55.546a6.083 6.083 0 11-6.079 6.079 6.078 6.078 0 016.079-6.079"/><path class="cls-3" d="M395.841 92.722h80.814v100.604h-80.814z"/><path class="cls-4" d="M436.249 136.943a6.081 6.081 0 11-6.084 6.078 6.077 6.077 0 016.084-6.078m0 27.221a6.083 6.083 0 11-6.084 6.083 6.078 6.078 0 016.084-6.083m0-55.546a6.083 6.083 0 11-6.084 6.079 6.077 6.077 0 016.084-6.079"/><path class="cls-3" d="M578.603 92.722h80.814v100.604h-80.814z"/><path class="cls-4" d="M619.01 136.943a6.081 6.081 0 11-6.083 6.078 6.077 6.077 0 016.083-6.078m0 27.221a6.083 6.083 0 11-6.083 6.083 6.078 6.078 0 016.083-6.083m0-55.546a6.083 6.083 0 11-6.083 6.079 6.077 6.077 0 016.083-6.079"/><path class="cls-3" d="M487.272 92.722h80.818v100.604h-80.818z"/><path class="cls-4" d="M527.682 136.943a6.081 6.081 0 11-6.084 6.078 6.077 6.077 0 016.084-6.078m0 27.221a6.083 6.083 0 11-6.084 6.083 6.078 6.078 0 016.084-6.083m0-55.546a6.083 6.083 0 11-6.084 6.079 6.077 6.077 0 016.084-6.079"/><text class="cls-5" transform="translate(41.782 37.642)">RE<tspan x="48.172" y="0" letter-spacing=".009em">L</tspan><tspan x="68.696" y="0" letter-spacing="-.058em">A</tspan><tspan x="91.395" y="0" letter-spacing="0">Y</tspan></text><path class="cls-9" d="M-49.875 49.926V30.109h68.598m143.212-.002h62.229v22.274"/><text class="cls-5" transform="translate(395.407 37.642)">ANA<tspan x="76.75" y="0" letter-spacing="-.031em">L</tspan><tspan x="95.822" y="0">OG IN</tspan></text><text class="cls-11" transform="translate(789.622 65.841)">RESET</text><text class="cls-11" transform="translate(915.075 65.841)">USER</text><path class="cls-9" d="M344.134 49.777V31.332h31.331m220.702-2.451h31.112v23.501M976.428-2.379h-25.029v-359.576"/><rect x="766.312" y="86.084" width="243.076" height="113.879" rx="22.007" fill="#5a5d65"/><rect class="cls-13" x="798.171" y="112.538" width="60.565" height="60.972" rx="30.282"/><rect class="cls-13" x="916.963" y="112.538" width="60.565" height="60.972" rx="30.282"/><path d="M715.944 204.451h11.33m-15.817-4.804h20.331m-25.28-4.795h30.22m-24.953-50.207h-17.92m17.91-30.292h-17.919m27.772 80.499v-19.035h-27.764" stroke-width="1.532" stroke="#f1f2f2" stroke-miterlimit="2" fill="none"/><text transform="matrix(1 0 0 1.0605 713.73 120.755)" font-size="22.125" font-family="Verdana" fill="#fff">S</text><text transform="matrix(1 0 0 1.1297 715.196 152.404)" font-size="21.456" font-family="Verdana" fill="#fff">5V</text><path d="M686.227 110.273h7.099v7.723h-7.099zm.465 30.21h7.099v7.723h-7.099zm-.105 31.139h7.099v7.723h-7.099z" stroke-linecap="round" stroke-linejoin="round" stroke-width="1.532" stroke="#fff" fill="#fff"/><text transform="translate(468.017 310.72)" font-size="48.744" fill="#010101" letter-spacing=".001em" font-family="Verdana">IR Proximity Sensor<tspan x="0" y="58.493">Sharp GP2Y0A21YK</tspan></text><path fill="#221f1f" d="M334.459 101.289h42.306v101.363h-42.306z"/><path stroke-width="12.186" stroke="#221f1f" stroke-linecap="round" stroke-linejoin="round" fill="none" d="M366.33 182.17l1.718 208.982"/><path stroke="#e9262a" stroke-width="12.186" stroke-linecap="round" stroke-linejoin="round" fill="none" d="M355.613 147.671l.69 243.481"/><path stroke="#babcbe" stroke-width="12.186" stroke-linecap="round" stroke-linejoin="round" fill="none" d="M343.974 126.37l.54 264.782"/><path class="cls-23" d="M598.04 461.82h-29.228a48.976 48.976 0 00-48.976 48.975 48.976 48.976 0 0048.976 48.975h29.227a48.976 48.976 0 0048.976-48.976 48.976 48.976 0 00-48.976-48.975zm-.334 70.245a21.27 21.27 0 1121.27-21.27 21.27 21.27 0 01-21.27 21.27zm-425.384-71.777H113.15a48.94 48.94 0 00-48.94 48.94 48.94 48.94 0 0048.94 48.94h59.172a48.94 48.94 0 0048.94-48.94 48.94 48.94 0 00-48.94-48.94zm-57.815 69.475a21.087 21.087 0 1121.087-21.087 21.087 21.087 0 01-21.087 21.087z"/><path transform="rotate(180 361.72 509.444)" fill="#1e1f19" d="M164.804 423.314h393.832v172.259H164.804z"/><path transform="rotate(180 361.72 509.781)" fill="#262626" d="M164.804 453.037h393.832v113.488H164.804z"/><path class="cls-26" transform="rotate(180 500.54 510.795)" d="M449.201 461.819h102.68v97.951h-102.68z"/><path class="cls-23" transform="rotate(180 287.412 508.676)" d="M178.99 461.819h216.844v93.713H178.99z"/><path transform="rotate(180 357.242 398.985)" fill="#624118" d="M287.412 344.932h139.66v108.106h-139.66z"/><path fill="#a6a39b" d="M407.538 448.049v-99.597H306.946v99.597h12.555v-24.735h76.921v24.735h11.116z"/><path class="cls-26" d="M178.99 459.794h100.25a66.14 66.14 0 010 94.932H178.99z"/><circle cx="231.751" cy="508.676" r="32.967"/><path class="cls-26" d="M114.507 463.179a46.05 46.05 0 1046.05 46.05 46.05 46.05 0 00-46.05-46.05zm-.25 66.935a21.087 21.087 0 1121.086-21.087 21.087 21.087 0 01-21.087 21.087zm483.449-65.145a45.75 45.75 0 00-39.07 21.967v47.717a45.806 45.806 0 1039.07-69.684zm0 67.096a21.27 21.27 0 1121.27-21.27 21.27 21.27 0 01-21.27 21.27z"/><circle cx="500.541" cy="510.795" r="40.702" fill="#181818"/><circle cx="500.541" cy="510.795" r="24.621" fill="#0b0c09"/><path d="M369.457 323.528v43.452m-13.845-43.775v43.453m-13.845-43.13v43.452" stroke="#939598" stroke-width="22.5" stroke-linecap="round" stroke-linejoin="round" fill="none"/></g></svg>