<?xml version="1.0" encoding="UTF-8" standalone="no"?>
<!-- Generator: Adobe Illustrator 28.0.0, SVG Export Plug-In . SVG Version: 6.00 Build 0)  -->

<svg
   version="1.1"
   id="Layer_1"
   x="0px"
   y="0px"
   viewBox="0 0 249.54 38.42"
   style="enable-background:new 0 0 249.54 38.42;"
   xml:space="preserve"
   sodipodi:docname="wpilib-generic.svg"
   inkscape:version="1.3.2 (091e20e, 2023-11-25, custom)"
   xmlns:inkscape="http://www.inkscape.org/namespaces/inkscape"
   xmlns:sodipodi="http://sodipodi.sourceforge.net/DTD/sodipodi-0.dtd"
   xmlns="http://www.w3.org/2000/svg"
   xmlns:svg="http://www.w3.org/2000/svg"><defs
   id="defs10" /><sodipodi:namedview
   id="namedview10"
   pagecolor="#ffffff"
   bordercolor="#000000"
   borderopacity="0.25"
   inkscape:showpageshadow="2"
   inkscape:pageopacity="0.0"
   inkscape:pagecheckerboard="0"
   inkscape:deskcolor="#d1d1d1"
   inkscape:zoom="5.1494752"
   inkscape:cx="124.77"
   inkscape:cy="19.128163"
   inkscape:window-width="1920"
   inkscape:window-height="1121"
   inkscape:window-x="-9"
   inkscape:window-y="234"
   inkscape:window-maximized="1"
   inkscape:current-layer="Layer_1" />
<style
   type="text/css"
   id="style1">
	.st0{fill:#AA182C;}
	.st1{fill:#4D4E4E;}
	.st2{fill:#FFFFFF;}
	.st3{fill:#B5BABD;}
	.st4{fill:none;}
	.st5{fill:none;stroke:#B5BABD;stroke-miterlimit:10;}
	.st6{fill:none;stroke:#B5BABD;stroke-width:2.5;stroke-miterlimit:10;}
</style>
<g
   id="g10">
	<g
   id="g3">
		<path
   class="st0"
   d="M102.35,2.34l0.23-0.02V0H85.62v2.32l0.23,0.02c4.24,0.39,4.7,0.59,4.7,5.37v22.36c0,4.78-0.47,4.98-4.7,5.37    l-0.23,0.02v2.32h16.96v-2.32l-0.23-0.02c-4.25-0.39-4.65-0.56-4.65-5.37V7.71C97.71,2.9,98.1,2.73,102.35,2.34z"
   id="path1" />
		<g
   id="g2">
			<path
   class="st0"
   d="M79.99,2.29C77.77,0.73,74.57,0,69.92,0H41.34v2.32c2.43,0.11,4.34,1.32,4.34,2.78     c0,0.14-0.02,0.26-0.05,0.38c-0.06,0.37-0.15,0.82-0.27,1.31c-0.8,3.36-3.33,12.81-5.61,20.1L30.14,0.4h-2.78L18.9,26.73     l-6.34-21.6c0,0-0.92-2.49,3.83-2.81V0H0v2.31c0,0,3.89-0.13,5.03,3.24l10.06,32.87h2.95l8.72-26.27l9.5,26.27h2.95     c4.96-16.77,8.34-26.95,9.51-30.23c0.75-2.22,1.3-3.53,2.08-4.35c0.86-0.89,2.13-1.44,3.54-1.44C56.91,2.4,59,4.02,59,6.08v24     c0,4.78-0.47,4.99-4.7,5.37l-0.23,0.02v2.32h17.54v-2.32l-0.24-0.02c-4.83-0.38-5.26-0.57-5.26-5.37v-7.35     c0.42,0.08,0.83,0.15,1.27,0.2c0.86,0.12,1.8,0.12,2.49,0.12c0.7,0,1.62,0,2.5-0.12c5.7-0.66,11.8-4.18,11.8-12.06     C84.17,7.19,82.76,4.31,79.99,2.29z M69.36,20.02c-1.48,0-2.65-0.29-3.24-0.55V5.07c0-1.06,0.15-1.64,0.5-1.94     c0.28-0.28,1.02-0.56,2.35-0.56c4.64,0,7.42,3.17,7.42,8.46C76.38,19.58,70.53,20.02,69.36,20.02z"
   id="path2" />
		</g>
	</g>
	<g
   id="g6">
		<g
   id="g5">
			<path
   class="st1"
   d="M188.71,33.91V1.92h-4.96v35.91h21.28v-3.92H188.71z"
   id="path3" />
			<path
   class="st1"
   d="M212.82,1.87c-1.83,0-3.1,1.3-3.1,2.91c-0.01,1.59,1.21,2.91,3.01,2.91c1.98,0,3.17-1.32,3.17-2.91     C215.89,3.14,214.68,1.87,212.82,1.87z M210.34,12.07v25.76h4.96V12.07H210.34z"
   id="path4" />
			<path
   class="st1"
   d="M237.98,11.48c-4.42,0-7.59,1.82-9.34,4.72h-0.11V0h-4.96v31.18c0,2.29-0.09,4.88-0.22,6.65h4.3l0.25-4.24     h0.13c2.06,3.36,5.23,4.83,9.18,4.83c6.11,0,12.33-4.57,12.33-13.82C249.57,16.8,244.79,11.48,237.98,11.48z M236.21,34.69     c-3.6,0-6.54-2.23-7.47-5.48c-0.14-0.54-0.21-1.12-0.21-1.7v-4.63c0-0.74,0.13-1.38,0.28-1.95c1-3.53,4.17-5.76,7.54-5.76     c5.33,0,8.17,4.44,8.17,9.62C244.53,30.69,241.45,34.69,236.21,34.69z"
   id="path5" />
		</g>
	</g>
	<polygon
   class="st0"
   points="142.5,21.06 138.59,38.42 124.39,38.42 109.45,19.21 124.39,0 137.82,0 137.82,3.62 126.17,3.62    114.04,19.21 126.17,34.79 135.68,34.79 138.78,21.06  "
   id="polygon6" />
	<polygon
   class="st1"
   points="172.64,19.21 157.71,38.42 144.28,38.42 144.28,34.79 155.92,34.79 168.05,19.21 155.92,3.62    146.41,3.62 143.32,17.36 139.61,17.36 143.51,0 157.71,0  "
   id="polygon7" />
	<g
   id="g9">
		<polygon
   class="st0"
   points="123.32,19.21 132.37,30.91 132.13,31.09 127.93,31.09 118.74,19.21 127.93,7.33 132.5,7.33   "
   id="polygon8" />
		<polygon
   class="st1"
   points="158.78,19.21 149.73,30.91 149.96,31.09 154.17,31.09 163.36,19.21 154.17,7.33 149.6,7.33   "
   id="polygon9" />
	</g>
</g>
</svg>
