<svg id="Layer_1" data-name="Layer 1" xmlns="http://www.w3.org/2000/svg" xmlns:xlink="http://www.w3.org/1999/xlink" viewBox="0 0 197.5338 238.8501"><defs><style>.cls-1{fill:none;}.cls-2{fill:#323031;}.cls-14,.cls-3{fill:#819356;}.cls-4{fill:#079247;}.cls-5{fill:#f2f2f2;}.cls-6{fill:#6e7071;}.cls-7{fill:#424242;}.cls-8{fill:#5a5a5d;}.cls-22,.cls-9{fill:#221f1f;}.cls-10{fill:#bc2030;}.cls-11{fill:#2f3378;}.cls-12{fill:#d6dd28;}.cls-13{fill:#37b24a;}.cls-14{font-size:8.7057px;font-family:Heebo-Regular, Heebo;}.cls-15{letter-spacing:0.001em;}.cls-16{letter-spacing:-0.0001em;}.cls-17{letter-spacing:-0.015em;}.cls-18,.cls-19{fill:#fff;}.cls-19,.cls-22{font-size:5.8038px;font-family:Heebo-Light, Heebo;font-weight:300;}.cls-20{letter-spacing:0.0009em;}.cls-21{letter-spacing:0.001em;}.cls-23{letter-spacing:-0.0001em;}.cls-24{letter-spacing:0.0011em;}.cls-25{letter-spacing:-0.03em;}.cls-26{letter-spacing:-0.046em;}.cls-27{letter-spacing:-0.06em;}.cls-28{fill:#383d37;}.cls-29{fill:#b0a997;}.cls-30{clip-path:url(#clip-path);}.cls-31{opacity:0.33;}.cls-32{fill:#231f20;}.cls-33{fill:#00aeef;}</style><clipPath id="clip-path"><path class="cls-1" d="M184.7815,103.8419h-.3887a4.05,4.05,0,0,0-.108-.6h2.9819a3.4814,3.4814,0,0,0,3.4819-3.482V12.5453a3.4823,3.4823,0,0,0-3.4819-3.483H11.1486a3.4838,3.4838,0,0,0-3.483,3.483V99.76a3.4829,3.4829,0,0,0,3.483,3.482h.08a3.615,3.615,0,0,0-.1306.8824,8.5223,8.5223,0,0,0-6.2329,8.2045v78.2413a8.52,8.52,0,0,0,4.9918,7.7516,3.39,3.39,0,0,0-.08.6542v27.675a3.4814,3.4814,0,0,0,3.481,3.483h170.843a3.4823,3.4823,0,0,0,3.482-3.483v-27.675c0-.1069-.02-.2081-.03-.3126a8.5222,8.5222,0,0,0,5.7531-8.0552V112.3672A8.5253,8.5253,0,0,0,184.7815,103.8419Z"/></clipPath></defs><path class="cls-2" d="M186.8264,103.0691H10.7084a3.4829,3.4829,0,0,1-3.483-3.482V12.3721a3.4838,3.4838,0,0,1,3.483-3.483h176.118a3.4823,3.4823,0,0,1,3.482,3.483v87.215a3.4814,3.4814,0,0,1-3.482,3.482"/><path class="cls-2" d="M180.38,198.8317H14.2531a3.5974,3.5974,0,0,1-3.598-3.5979v-91.245a3.5974,3.5974,0,0,1,3.598-3.5971H180.38a3.5974,3.5974,0,0,1,3.598,3.5971v91.245a3.5974,3.5974,0,0,1-3.598,3.5979"/><path class="cls-2" d="M12.8185,195.3211H183.6614a3.4826,3.4826,0,0,1,3.482,3.482v27.675a3.4822,3.4822,0,0,1-3.482,3.483H12.8185a3.4814,3.4814,0,0,1-3.481-3.483v-27.675a3.4819,3.4819,0,0,1,3.481-3.482"/><path class="cls-3" d="M82.3859,110.7459h36.167V83.6979H82.3859a2.3494,2.3494,0,0,0-2.349,2.349v22.35a2.3494,2.3494,0,0,0,2.349,2.349"/><path class="cls-3" d="M80.2931,64.2645v36.127h27.972V64.2645a2.39,2.39,0,0,0-2.3891-2.389H82.6821a2.3889,2.3889,0,0,0-2.389,2.389"/><rect class="cls-4" x="95.7331" y="84.4706" width="9.458" height="16.818"/><rect class="cls-2" x="83.7301" y="92.2106" width="9.629" height="17.368"/><path class="cls-3" d="M92.7961,164.9324h0a4.6511,4.6511,0,0,1-4.651-4.6509V116.4694a.4741.4741,0,0,1,.4729-.474h8.357a.4736.4736,0,0,1,.4731.474V160.28a4.6523,4.6523,0,0,1-4.652,4.652"/><path class="cls-3" d="M106.47,165.1336h0a4.65,4.65,0,0,1-4.65-4.65v-43.813a.4742.4742,0,0,1,.473-.474h8.356a.4742.4742,0,0,1,.473.474v43.811a4.6523,4.6523,0,0,1-4.652,4.652"/><path class="cls-3" d="M137.0129,195.8855l.0069-89.565a1.164,1.164,0,0,1,1.164-1.165h9.209l-.0069,92.361h-8.742a1.63,1.63,0,0,1-1.631-1.631"/><path class="cls-3" d="M62.718,105.7391l-.007,89.566a1.164,1.164,0,0,1-1.165,1.164H52.337l.007-92.361h8.743a1.6314,1.6314,0,0,1,1.631,1.631"/><path class="cls-5" d="M144.093,92.83V47.5109a.825.825,0,0,1,.824-.825h9.318v47.297h-8.989a1.1534,1.1534,0,0,1-1.153-1.153"/><rect class="cls-3" x="108.8171" y="45.1715" width="25.346" height="13.512"/><rect class="cls-3" x="113.1581" y="58.6836" width="15.348" height="9.712"/><path class="cls-3" d="M64.6193,95.0232H59.05a1.9636,1.9636,0,0,1-1.964-1.964V24.3082a1.9636,1.9636,0,0,1,1.964-1.964h5.569a1.9642,1.9642,0,0,1,1.964,1.964v68.751a1.9642,1.9642,0,0,1-1.964,1.964"/><path class="cls-3" d="M60.1242,95.0232H46.1992a1.9077,1.9077,0,0,1-1.908-1.908V72.2432a1.9077,1.9077,0,0,1,1.908-1.908h13.925a1.9077,1.9077,0,0,1,1.908,1.908v20.872a1.9077,1.9077,0,0,1-1.908,1.908"/><rect class="cls-6" x="108.8181" y="18.1016" width="25.286" height="25.589"/><rect class="cls-7" x="26.7481" y="104.2566" width="25.589" height="92.201"/><rect class="cls-6" x="147.3961" y="105.2406" width="25.589" height="92.201"/><rect class="cls-6" x="155.5041" y="46.5706" width="25.589" height="47.529"/><rect class="cls-7" x="17.4081" y="46.5706" width="25.59" height="47.529"/><rect class="cls-8" x="19.446" y="48.1176" width="18.767" height="10.703"/><rect class="cls-5" x="23.6631" y="50.1256" width="12.041" height="6.355"/><path class="cls-9" d="M29.2658,53.4694a4.223,4.223,0,1,1-4.223-4.2229,4.2234,4.2234,0,0,1,4.223,4.2229"/><rect class="cls-8" x="19.446" y="58.8216" width="18.767" height="10.703"/><rect class="cls-5" x="23.6631" y="60.8286" width="12.041" height="6.355"/><path class="cls-9" d="M29.2658,64.1727a4.223,4.223,0,1,1-4.223-4.223,4.2234,4.2234,0,0,1,4.223,4.223"/><rect class="cls-8" x="19.446" y="69.5246" width="18.767" height="10.704"/><rect class="cls-5" x="23.6631" y="71.5316" width="12.041" height="6.355"/><path class="cls-9" d="M29.2658,74.8758a4.223,4.223,0,1,1-4.223-4.223,4.2236,4.2236,0,0,1,4.223,4.223"/><rect class="cls-8" x="19.446" y="80.2285" width="18.767" height="10.703"/><rect class="cls-5" x="23.6631" y="82.2356" width="12.041" height="6.354"/><path class="cls-9" d="M29.2658,85.58a4.223,4.223,0,1,1-4.223-4.223,4.2234,4.2234,0,0,1,4.223,4.223"/><rect class="cls-8" x="161.5951" y="81.3576" width="18.767" height="10.703"/><rect class="cls-5" x="164.1041" y="83.6976" width="12.041" height="6.355"/><path class="cls-9" d="M170.5422,86.7088a4.2225,4.2225,0,1,1,4.2229,4.223,4.2227,4.2227,0,0,1-4.2229-4.223"/><rect class="cls-8" x="161.5951" y="70.6536" width="18.767" height="10.704"/><rect class="cls-5" x="164.1041" y="72.9946" width="12.041" height="6.355"/><path class="cls-9" d="M170.5422,76.0047a4.2225,4.2225,0,1,1,4.2229,4.224,4.2234,4.2234,0,0,1-4.2229-4.224"/><rect class="cls-8" x="161.5951" y="59.9495" width="18.767" height="10.703"/><rect class="cls-5" x="164.1041" y="62.2916" width="12.041" height="6.354"/><path class="cls-9" d="M170.5422,65.3016a4.2225,4.2225,0,1,1,4.2229,4.223,4.2234,4.2234,0,0,1-4.2229-4.223"/><rect class="cls-8" x="161.5951" y="49.2465" width="18.767" height="10.703"/><rect class="cls-5" x="164.1041" y="51.5875" width="12.041" height="6.355"/><path class="cls-9" d="M170.5422,54.5983a4.2225,4.2225,0,1,1,4.2229,4.2231,4.2233,4.2233,0,0,1-4.2229-4.2231"/><rect class="cls-8" x="121.4601" y="19.2326" width="10.704" height="18.767"/><rect class="cls-5" x="123.8021" y="23.4486" width="6.355" height="12.041"/><path class="cls-9" d="M126.8117,29.0516a4.223,4.223,0,1,1,4.224-4.223,4.2234,4.2234,0,0,1-4.224,4.223"/><rect class="cls-8" x="110.7571" y="19.2326" width="10.703" height="18.767"/><rect class="cls-5" x="113.0991" y="23.4486" width="6.354" height="12.041"/><path class="cls-9" d="M116.1086,29.0516a4.223,4.223,0,1,1,4.2229-4.223,4.2234,4.2234,0,0,1-4.2229,4.223"/><rect class="cls-8" x="28.8291" y="108.4506" width="18.767" height="10.703"/><rect class="cls-5" x="33.0461" y="110.4575" width="12.042" height="6.354"/><path class="cls-9" d="M38.6486,113.8016a4.2225,4.2225,0,1,1-4.223-4.223,4.2234,4.2234,0,0,1,4.223,4.223"/><rect class="cls-8" x="28.8291" y="119.1536" width="18.767" height="10.703"/><rect class="cls-5" x="35.8896" y="118.3171" width="6.355" height="12.042" transform="translate(-86.0651 160.7817) rotate(-88.795)"/><path class="cls-9" d="M38.6486,124.5047a4.2225,4.2225,0,1,1-4.223-4.223,4.2234,4.2234,0,0,1,4.223,4.223"/><rect class="cls-8" x="28.8291" y="129.8566" width="18.767" height="10.703"/><rect class="cls-5" x="33.0461" y="131.8636" width="12.042" height="6.355"/><path class="cls-9" d="M38.6486,135.2078a4.2225,4.2225,0,1,1-4.223-4.223,4.2234,4.2234,0,0,1,4.223,4.223"/><rect class="cls-8" x="28.8291" y="140.5596" width="18.767" height="10.704"/><rect class="cls-5" x="33.0461" y="142.5666" width="12.042" height="6.355"/><path class="cls-9" d="M38.6486,145.9119a4.2225,4.2225,0,1,1-4.223-4.224,4.2234,4.2234,0,0,1,4.223,4.224"/><rect class="cls-8" x="28.8291" y="151.3405" width="18.767" height="10.703"/><rect class="cls-5" x="33.0461" y="153.3476" width="12.042" height="6.355"/><path class="cls-9" d="M38.6486,156.6922a4.2225,4.2225,0,1,1-4.223-4.223,4.2234,4.2234,0,0,1,4.223,4.223"/><rect class="cls-8" x="28.8291" y="162.0435" width="18.767" height="10.703"/><rect class="cls-5" x="33.0461" y="164.0506" width="12.042" height="6.355"/><path class="cls-9" d="M38.6486,167.3953a4.2225,4.2225,0,1,1-4.223-4.223,4.2234,4.2234,0,0,1,4.223,4.223"/><rect class="cls-8" x="28.8291" y="172.7466" width="18.767" height="10.704"/><rect class="cls-5" x="33.0461" y="174.7546" width="12.042" height="6.355"/><path class="cls-9" d="M38.6486,178.0983a4.2225,4.2225,0,1,1-4.223-4.2229,4.2236,4.2236,0,0,1,4.223,4.2229"/><rect class="cls-8" x="28.8291" y="183.4516" width="18.767" height="10.703"/><rect class="cls-5" x="33.0461" y="185.4586" width="12.042" height="6.354"/><path class="cls-9" d="M38.6486,188.8025a4.2225,4.2225,0,1,1-4.223-4.223,4.2234,4.2234,0,0,1,4.223,4.223"/><rect class="cls-8" x="152.9951" y="184.6176" width="18.767" height="10.703"/><rect class="cls-5" x="155.5041" y="186.9596" width="12.041" height="6.354"/><path class="cls-9" d="M161.9426,189.9694a4.2225,4.2225,0,1,1,4.223,4.2231,4.2234,4.2234,0,0,1-4.223-4.2231"/><rect class="cls-8" x="152.9951" y="173.9146" width="18.767" height="10.703"/><rect class="cls-5" x="155.5041" y="176.2566" width="12.041" height="6.354"/><path class="cls-9" d="M161.9426,179.2664a4.2225,4.2225,0,1,1,4.223,4.223,4.2234,4.2234,0,0,1-4.223-4.223"/><rect class="cls-8" x="152.9951" y="163.2116" width="18.767" height="10.703"/><rect class="cls-5" x="155.5041" y="165.5526" width="12.041" height="6.355"/><path class="cls-9" d="M161.9426,168.5633a4.2225,4.2225,0,1,1,4.223,4.223,4.2234,4.2234,0,0,1-4.223-4.223"/><rect class="cls-8" x="152.9951" y="152.5086" width="18.767" height="10.703"/><rect class="cls-5" x="155.5041" y="154.8496" width="12.041" height="6.355"/><path class="cls-9" d="M161.9426,157.86a4.2225,4.2225,0,1,1,4.223,4.223,4.2236,4.2236,0,0,1-4.223-4.223"/><rect class="cls-8" x="152.9951" y="141.7276" width="18.767" height="10.703"/><rect class="cls-5" x="155.5041" y="144.0695" width="12.041" height="6.354"/><path class="cls-9" d="M161.9426,147.0789a4.2225,4.2225,0,1,1,4.223,4.223,4.2234,4.2234,0,0,1-4.223-4.223"/><rect class="cls-8" x="152.9951" y="131.0246" width="18.767" height="10.703"/><rect class="cls-5" x="155.5041" y="133.3646" width="12.041" height="6.355"/><path class="cls-9" d="M161.9426,136.3758a4.2225,4.2225,0,1,1,4.223,4.223,4.2234,4.2234,0,0,1-4.223-4.223"/><rect class="cls-8" x="152.9951" y="120.3206" width="18.767" height="10.703"/><rect class="cls-5" x="155.5041" y="122.6616" width="12.041" height="6.355"/><path class="cls-9" d="M161.9426,125.6727a4.2225,4.2225,0,1,1,4.223,4.223,4.2234,4.2234,0,0,1-4.223-4.223"/><rect class="cls-10" x="53.8831" y="108.7646" width="8.149" height="10.389"/><rect class="cls-8" x="152.9951" y="109.6166" width="18.767" height="10.704"/><rect class="cls-5" x="155.5041" y="111.9586" width="12.041" height="6.355"/><path class="cls-9" d="M161.9426,114.9686a4.2225,4.2225,0,1,1,4.223,4.224,4.2234,4.2234,0,0,1-4.223-4.224"/><rect class="cls-9" x="53.8831" y="119.1426" width="8.149" height="10.389"/><rect class="cls-10" x="53.8831" y="129.5316" width="8.149" height="10.388"/><rect class="cls-9" x="53.8831" y="139.9096" width="8.149" height="10.389"/><rect class="cls-10" x="53.8831" y="150.2886" width="8.149" height="10.389"/><rect class="cls-9" x="53.8831" y="160.6676" width="8.149" height="10.389"/><rect class="cls-10" x="53.8831" y="171.0565" width="8.149" height="10.388"/><rect class="cls-9" x="53.8831" y="181.4336" width="8.149" height="10.389"/><rect class="cls-9" x="45.9671" y="70.7876" width="8.149" height="11.94"/><rect class="cls-10" x="137.5541" y="182.4046" width="8.149" height="10.388"/><rect class="cls-9" x="137.5541" y="172.0256" width="8.149" height="10.389"/><rect class="cls-10" x="137.5541" y="161.6366" width="8.149" height="10.389"/><rect class="cls-9" x="137.5541" y="151.2586" width="8.149" height="10.388"/><rect class="cls-10" x="137.5541" y="140.8796" width="8.149" height="10.389"/><rect class="cls-9" x="137.5541" y="130.5006" width="8.149" height="10.389"/><rect class="cls-10" x="137.5541" y="120.1126" width="8.149" height="10.388"/><rect class="cls-9" x="137.5541" y="109.7346" width="8.149" height="10.389"/><rect class="cls-10" x="45.9671" y="82.6196" width="8.149" height="11.951"/><path class="cls-11" d="M53.9152,68.6463h-6.399a1.5483,1.5483,0,0,1-1.549-1.549V24.9983a1.5483,1.5483,0,0,1,1.549-1.549h6.399a1.549,1.549,0,0,1,1.549,1.549v42.099a1.549,1.549,0,0,1-1.549,1.549"/><rect class="cls-9" x="121.4121" y="45.1716" width="11.94" height="12.521"/><rect class="cls-10" x="109.5681" y="45.1716" width="11.951" height="12.521"/><rect class="cls-12" x="145.7871" y="47.9235" width="8.149" height="11.077"/><rect class="cls-13" x="145.7871" y="58.9906" width="8.149" height="11.077"/><rect class="cls-12" x="145.7871" y="70.0675" width="8.149" height="11.077"/><rect class="cls-13" x="145.7871" y="81.1336" width="8.149" height="11.077"/><path class="cls-5" d="M136.0471,81.0506V59.7676a.7791.7791,0,0,1,.778-.779h7.268v23.152h-6.956a1.09,1.09,0,0,1-1.09-1.09"/><path class="cls-3" d="M72.3713,121.16H62.7172v-8.462h9.6541a2.7854,2.7854,0,0,1,2.785,2.786v2.89a2.7854,2.7854,0,0,1-2.785,2.786"/><path class="cls-3" d="M72.3713,143.6619H62.7172V135.2h9.6541a2.7854,2.7854,0,0,1,2.785,2.786v2.89a2.7854,2.7854,0,0,1-2.785,2.786"/><path class="cls-3" d="M72.3713,166.8563H62.7172v-8.462h9.6541a2.7854,2.7854,0,0,1,2.785,2.786v2.89a2.7854,2.7854,0,0,1-2.785,2.786"/><path class="cls-3" d="M72.3713,189.3582H62.7172v-8.462h9.6541a2.7854,2.7854,0,0,1,2.785,2.786v2.89a2.7861,2.7861,0,0,1-2.785,2.786"/><path class="cls-3" d="M127.9,181.2088h9.654v8.462H127.9a2.786,2.786,0,0,1-2.785-2.786v-2.891a2.7851,2.7851,0,0,1,2.785-2.785"/><path class="cls-3" d="M127.9,158.7067h9.654v8.4621H127.9a2.7854,2.7854,0,0,1-2.785-2.786v-2.89a2.7854,2.7854,0,0,1,2.785-2.7861"/><path class="cls-3" d="M127.9,135.5125h9.654v8.462H127.9a2.7854,2.7854,0,0,1-2.785-2.786v-2.89a2.7854,2.7854,0,0,1,2.785-2.786"/><path class="cls-3" d="M127.9,113.0105h9.654v8.462H127.9a2.7854,2.7854,0,0,1-2.785-2.786v-2.89a2.7854,2.7854,0,0,1,2.785-2.786"/><path class="cls-4" d="M117.5158,131.93h-6.448a.4346.4346,0,0,1-.435-.435V116.4965a.4342.4342,0,0,1,.435-.433h6.448a.4342.4342,0,0,1,.435.433v14.9989a.4346.4346,0,0,1-.435.435"/><path class="cls-4" d="M88.1447,131.8631h-6.448a.4345.4345,0,0,1-.435-.434V116.43a.4345.4345,0,0,1,.435-.434h6.448a.4345.4345,0,0,1,.435.434v14.999a.4345.4345,0,0,1-.435.434"/><rect class="cls-3" x="86.1041" y="94.6295" width="4.881" height="12.53"/><rect class="cls-3" x="98.4841" y="86.8756" width="3.957" height="12.471"/><path class="cls-9" d="M129.6974,110.7459h-11.145V83.6979h11.145a1.3377,1.3377,0,0,1,1.3379,1.337v24.374a1.3377,1.3377,0,0,1-1.3379,1.337"/><text class="cls-14" transform="translate(46.4182 213.6699)">Pn<tspan class="cls-15" x="10.3042" y="0">e</tspan><tspan class="cls-16" x="14.9336" y="0">umati</tspan><tspan class="cls-15" x="37.0674" y="0">c</tspan><tspan x="41.6372" y="0">s </tspan><tspan class="cls-15" x="48.2896" y="0">Co</tspan><tspan x="58.9429" y="0">nt</tspan><tspan class="cls-17" x="66.5986" y="0">r</tspan><tspan class="cls-15" x="69.418" y="0">o</tspan><tspan x="74.396" y="0">l M</tspan><tspan class="cls-15" x="86.2769" y="0">o</tspan><tspan x="91.2549" y="0">dule</tspan></text><path class="cls-18" d="M168.3625,24.0886a6.4344,6.4344,0,1,1,7.042,5.763,6.4336,6.4336,0,0,1-7.042-5.763"/><path class="cls-18" d="M14.4172,22.9832a6.4348,6.4348,0,1,1,7.042,5.764,6.4362,6.4362,0,0,1-7.042-5.764"/><path class="cls-18" d="M14.4172,216.619a6.4348,6.4348,0,1,1,7.042,5.763,6.4351,6.4351,0,0,1-7.042-5.763"/><path class="cls-18" d="M170.5744,216.619a6.4344,6.4344,0,1,1,7.042,5.763,6.4337,6.4337,0,0,1-7.042-5.763"/><text class="cls-19" transform="translate(48.8513 26.8681) rotate(90)"><tspan class="cls-20">P</tspan><tspan x="3.5791" y="0">R</tspan><tspan class="cls-21" x="7.2661" y="0">E</tspan><tspan x="10.5732" y="0">SS</tspan><tspan class="cls-21" x="17.4482" y="0">U</tspan><tspan x="21.2715" y="0">R</tspan><tspan class="cls-21" x="24.9585" y="0">E</tspan><tspan x="28.2656" y="0" xml:space="preserve"> SW</tspan></text><text class="cls-22" transform="translate(99.2742 67.9765) rotate(90)"><tspan class="cls-21">12</tspan><tspan x="6.4502" y="0">V</tspan></text><text class="cls-22" transform="translate(59.5066 32.5211) rotate(90)">COM<tspan class="cls-21" x="12.7212" y="0">P</tspan><tspan class="cls-23" x="16.3008" y="0">R</tspan><tspan class="cls-24" x="19.9873" y="0">E</tspan><tspan x="23.2949" y="0">SSOR</tspan><tspan class="cls-21" x="37.7871" y="0"> </tspan><tspan x="39.207" y="0">O</tspan><tspan class="cls-21" x="43.1377" y="0">U</tspan><tspan x="46.9609" y="0">T</tspan></text><text class="cls-22" transform="translate(86.9636 67.9763) rotate(90)"><tspan class="cls-21">24</tspan><tspan x="6.4502" y="0">V</tspan></text><text class="cls-22" transform="translate(113.1101 88.7658) rotate(90)">VS<tspan class="cls-25" x="7.0195" y="0">L</tspan><tspan class="cls-23" x="9.9063" y="0">OL</tspan></text><text class="cls-22" transform="translate(91.6189 131.7602) rotate(90)">COMP</text><text class="cls-22" transform="translate(105.0212 128.8756) rotate(90)">S<tspan class="cls-26" x="3.4375" y="0">T</tspan><tspan class="cls-27" x="6.6362" y="0">A</tspan><tspan x="9.9155" y="0">T</tspan><tspan class="cls-21" x="13.3813" y="0">U</tspan><tspan x="17.2046" y="0">S</tspan></text><text class="cls-22" transform="translate(124.8767 61.1008) rotate(180)">V<tspan class="cls-21" x="3.582" y="0">i</tspan><tspan x="4.8916" y="0">n</tspan></text><text class="cls-22" transform="translate(142.8157 76.4192) rotate(-90)">CAN</text><text class="cls-22" transform="translate(133.843 118.8488) rotate(-90)">7</text><text class="cls-22" transform="translate(133.8434 141.5305) rotate(-90)">6</text><text class="cls-22" transform="translate(133.9361 164.6701) rotate(-90)">5</text><text class="cls-22" transform="translate(133.9354 187.3459) rotate(-90)">4</text><text class="cls-22" transform="translate(66.7869 183.4111) rotate(90)">3</text><text class="cls-22" transform="translate(66.7869 160.7356) rotate(90)">2</text><text class="cls-22" transform="translate(66.6941 137.5959) rotate(90)">1</text><text class="cls-22" transform="translate(66.6941 114.9204) rotate(90)">0</text><rect class="cls-28" x="121.7404" y="87.1837" width="6.107" height="6.107" rx="0.4552"/><rect class="cls-28" x="121.7404" y="93.7159" width="6.107" height="6.107" rx="0.4552"/><rect class="cls-28" x="121.7404" y="100.2481" width="6.107" height="6.107" rx="0.4552"/><rect class="cls-29" x="123.3781" y="88.8215" width="2.8314" height="2.8314"/><rect class="cls-29" x="123.3781" y="101.8859" width="2.8314" height="2.8314"/><rect class="cls-29" x="123.3781" y="95.3537" width="2.8314" height="2.8314"/><rect class="cls-29" x="122.1888" y="87.557" width="1.2188" height="12.0468"/><rect class="cls-8" x="12.4651" y="110.4575" width="3.7862" height="17.2869"/><rect class="cls-8" x="12.4651" y="131.8636" width="3.7862" height="17.2869"/><rect class="cls-8" x="12.6781" y="153.3476" width="3.7862" height="17.2869"/><rect class="cls-8" x="12.6781" y="174.7546" width="3.7862" height="17.2869"/><rect class="cls-8" x="178.0122" y="111.9586" width="3.7862" height="17.2869"/><rect class="cls-8" x="178.0122" y="133.3646" width="3.7862" height="17.2869"/><rect class="cls-8" x="178.2252" y="154.8487" width="3.7862" height="17.2869"/><rect class="cls-8" x="178.2252" y="176.2556" width="3.7862" height="17.2869"/><g class="cls-30"><g class="cls-31"><path class="cls-32" d="M13.8132,247.9123a24.96,24.96,0,0,1-24.9316-24.9316V14.758A24.96,24.96,0,0,1,13.8132-10.1736H188.8669A24.96,24.96,0,0,1,213.7986,14.758V222.9807a24.96,24.96,0,0,1-24.9317,24.9316ZM182.36,105.2317a7.1451,7.1451,0,0,0-7.1372,7.1367V190.61a7.1451,7.1451,0,0,0,7.1372,7.1367h2.0459a7.1447,7.1447,0,0,0,7.1367-7.1367V112.3684a7.1446,7.1446,0,0,0-7.1367-7.1367Zm-169.3442-.0381A7.145,7.145,0,0,0,5.8791,112.33v78.2412a7.145,7.145,0,0,0,7.1368,7.1367h2.0463a7.145,7.145,0,0,0,7.1368-7.1367V112.33a7.145,7.145,0,0,0-7.1368-7.1367Zm68.1113,8.1225a4.4946,4.4946,0,0,0-4.7813,4.8116v45.2812a4.4945,4.4945,0,0,0,4.7813,4.8115h36.7236a4.4945,4.4945,0,0,0,4.7813-4.8115V118.1277a4.4946,4.4946,0,0,0-4.7813-4.8116Z"/></g><path class="cls-33" d="M188.8672-8.7852a23.5436,23.5436,0,0,1,23.543,23.543v208.223a23.5429,23.5429,0,0,1-23.543,23.543H13.8131A23.5429,23.5429,0,0,1-9.73,222.9808V14.7578A23.5436,23.5436,0,0,1,13.8131-8.7852H188.8672M13.0156,199.0968h2.0467a8.5253,8.5253,0,0,0,8.5253-8.5253V112.33a8.5254,8.5254,0,0,0-8.5253-8.5253H13.0156A8.5254,8.5254,0,0,0,4.49,112.33v78.2413a8.5253,8.5253,0,0,0,8.5253,8.5253m169.3441.038h2.0468a8.5252,8.5252,0,0,0,8.5252-8.5252V112.3683a8.5254,8.5254,0,0,0-8.5252-8.5254H182.36a8.5254,8.5254,0,0,0-8.5253,8.5254V190.61a8.5253,8.5253,0,0,0,8.5253,8.5252M81.1271,169.609h36.7236a5.86,5.86,0,0,0,6.17-6.2V118.1274a5.86,5.86,0,0,0-6.17-6.2H81.1271a5.86,5.86,0,0,0-6.17,6.2V163.409a5.86,5.86,0,0,0,6.17,6.2m107.74-181.1713H13.8131a26.35,26.35,0,0,0-26.32,26.32v208.223a26.35,26.35,0,0,0,26.32,26.32H188.8672a26.35,26.35,0,0,0,26.32-26.32V14.7578a26.35,26.35,0,0,0-26.32-26.32ZM13.0156,196.32a5.7547,5.7547,0,0,1-5.7482-5.7482V112.33a5.7548,5.7548,0,0,1,5.7482-5.7482h2.0467a5.7547,5.7547,0,0,1,5.7482,5.7482v78.2413a5.7547,5.7547,0,0,1-5.7482,5.7482Zm169.3441.038a5.7547,5.7547,0,0,1-5.7482-5.7481V112.3683A5.7547,5.7547,0,0,1,182.36,106.62h2.0468a5.7546,5.7546,0,0,1,5.7481,5.7482V190.61a5.7546,5.7546,0,0,1-5.7481,5.7481ZM81.1271,166.8319a3.1225,3.1225,0,0,1-3.3927-3.4229V118.1274a3.1225,3.1225,0,0,1,3.3927-3.4229h36.7236a3.1225,3.1225,0,0,1,3.3927,3.4229V163.409a3.1225,3.1225,0,0,1-3.3927,3.4229Z"/></g></svg>