<svg id="Layer_1" data-name="Layer 1" xmlns="http://www.w3.org/2000/svg" viewBox="0 0 372.633 178.256"><defs><clipPath id="clip-path"><path class="cls-1" d="M0 0h372.633v178.256H0z"/></clipPath><clipPath id="clip-path-3"><path class="cls-1" d="M520.921 34.051H352.519v-13.97h140.512a8.124 8.124 0 000-16.248H352.52V-33.04h-6.248v-345.364a19.125 19.125 0 00-19.124-19.124H45.97a19.124 19.124 0 00-19.123 19.124v345.231h-5.035V3.394h-135.1a8.124 8.124 0 00-8.124 8.124 8.124 8.124 0 008.124 8.124h135.1v14.395l-162.236-.121h-.006a8.125 8.125 0 00-8.124 8.118 8.124 8.124 0 008.118 8.13l162.248.121v6.8h5.035v70.849a19.124 19.124 0 0019.123 19.124h37.425v76.006H.222a9.478 9.478 0 100 18.955h92.652a9.478 9.478 0 009.478-9.477v-85.484h41.264v85.484a9.478 9.478 0 009.478 9.477h123.96a9.478 9.478 0 100-18.955H162.572v-76.006h164.575a19.124 19.124 0 0019.124-19.124v-25.856h103.984a.75.75 0 000-1.5H346.27V89.544l101.583.21h.001a.75.75 0 00.001-1.5l-101.585-.21V62.535h6.248V50.3h168.402a8.124 8.124 0 000-16.248z"/></clipPath><style>.cls-1,.cls-25,.cls-26{fill:none}.cls-2{clip-path:url(#clip-path)}.cls-25,.cls-26{stroke:#e9262a;stroke-linecap:round;stroke-linejoin:round}.cls-26{stroke:#221f1f}.cls-5{fill:#424242}.cls-6{fill:#5a5a5c}.cls-7{fill:#f2f2f2}.cls-18,.cls-8{fill:#221f1f}.cls-9{fill:#37b24a}.cls-10{fill:#d6dd28}.cls-18,.cls-20,.cls-21,.cls-24{font-family:Verdana}.cls-13{fill:#bc2030}.cls-14{fill:#631011}.cls-16{fill:#819356}.cls-18{font-size:8.4385px}.cls-20{font-size:10.832px}.cls-20,.cls-21,.cls-24{fill:#fff}.cls-21{font-size:5.416px}.cls-22{letter-spacing:-.014em}.cls-23{letter-spacing:-.0001em}.cls-24{font-size:4.062px}.cls-25,.cls-26{stroke-width:16.248px}</style></defs><g class="cls-2"><path stroke-width="18.956" stroke-linecap="round" stroke-linejoin="round" stroke="#e9262a" fill="none" d="M153.093 147.057v85.484h123.96"/><path stroke="#221f1f" stroke-width="18.956" stroke-linecap="round" stroke-linejoin="round" fill="none" d="M92.873 147.057v85.484H.221"/><path class="cls-5" d="M26.847 127.933v-506.338a19.124 19.124 0 0119.123-19.124h281.176a19.124 19.124 0 0119.124 19.124v506.338a19.124 19.124 0 01-19.124 19.124H45.97a19.124 19.124 0 01-19.123-19.124"/><path class="cls-6" d="M73.887 66.639h37.973v80.418H73.887zM134.106 66.639h37.974v80.418h-37.974zM57.103 97.85h1.079v1.079h-1.079z"/><path class="cls-7" d="M270.081 67.824h50.274v64.225h-50.274z"/><path class="cls-6" d="M298.6 119.639h21.756v12.408H298.6z"/><path class="cls-7" d="M301.508 122.355h13.959v7.367h-13.959z"/><path class="cls-8" d="M308.972 125.844a4.896 4.896 0 114.896 4.896 4.897 4.897 0 01-4.896-4.896"/><path class="cls-6" d="M298.6 107.338h21.756v12.408H298.6z"/><path class="cls-7" d="M301.508 110.052h13.959v7.368h-13.959z"/><path class="cls-8" d="M308.972 113.542a4.896 4.896 0 114.896 4.896 4.896 4.896 0 01-4.896-4.896"/><path class="cls-6" d="M298.6 94.93h21.756v12.408H298.6z"/><path class="cls-7" d="M301.508 97.644h13.959v7.367h-13.959z"/><path class="cls-8" d="M308.972 101.134a4.896 4.896 0 114.896 4.896 4.896 4.896 0 01-4.896-4.896"/><path class="cls-6" d="M298.6 82.522h21.756V94.93H298.6z"/><path class="cls-7" d="M301.508 85.236h13.959v7.367h-13.959z"/><path class="cls-8" d="M308.972 88.725a4.896 4.896 0 114.896 4.896 4.896 4.896 0 01-4.896-4.896"/><path class="cls-9" d="M293.076 119.639h5.523v12.408h-5.523z"/><path class="cls-10" d="M293.076 82.522h5.523V94.93h-5.523z"/><path class="cls-9" d="M293.076 94.93h5.523v12.408h-5.523z"/><path class="cls-10" d="M293.076 107.338h5.523v12.408h-5.523z"/><text transform="rotate(180 34.012 44.32)" font-family="Verdana" font-size="40.521" fill="#f2f2f2">-</text><path fill="#4f4e51" d="M117.084-368.872h138.947V48.369H117.084z"/><path class="cls-8" d="M260.074 27.132h92.444v30.086h-92.444z"/><path class="cls-5" d="M321.952 42.175a11.453 11.453 0 1111.452 11.453 11.452 11.452 0 01-11.452-11.453"/><path class="cls-13" d="M260.074-2.954h92.444v30.086h-92.444z"/><path class="cls-14" d="M321.952 12.089a11.453 11.453 0 1111.452 11.452 11.453 11.453 0 01-11.452-11.452"/><path class="cls-8" d="M21.812-3.087h92.444v30.086H21.812z"/><path class="cls-5" d="M52.246 12.089A11.453 11.453 0 1140.794.636a11.451 11.451 0 0111.452 11.453"/><path class="cls-13" d="M21.812 27h92.444v30.086H21.812z"/><path class="cls-14" d="M52.246 42.175a11.453 11.453 0 11-11.452-11.452 11.452 11.452 0 0111.452 11.452"/><path fill="#a6a7aa" d="M260.074 57.166h92.444v5.368h-92.444z"/><path class="cls-16" d="M199.738 113.206h30.687a7.742 7.742 0 110 15.485h-30.687a7.742 7.742 0 010-15.485"/><path class="cls-5" d="M235.696 120.948a5.726 5.726 0 11-5.727-5.726 5.726 5.726 0 015.727 5.726"/><path class="cls-16" d="M199.738 74.778h30.687a7.742 7.742 0 110 15.485h-30.687a7.742 7.742 0 010-15.485"/><path class="cls-5" d="M235.696 82.521a5.726 5.726 0 11-5.727-5.727 5.726 5.726 0 015.727 5.727"/><text transform="rotate(-90 201.99 -84.35)" font-size="10.548" font-family="Verdana" fill="#221f1f">CAN</text><text class="cls-18" transform="translate(195.54 123.873)">COMM</text><text class="cls-18" transform="translate(196.764 84.795)">S<tspan x="5.769" y="0" letter-spacing="-.059em">TA</tspan><tspan x="15.741" y="0">T</tspan></text><path class="cls-16" d="M233.14 42.702V13.59a1.632 1.632 0 011.634-1.633h12.22a1.631 1.631 0 011.632 1.633v29.112a1.632 1.632 0 01-1.632 1.633h-12.22a1.633 1.633 0 01-1.633-1.633M123.775 42.264V13.15a1.633 1.633 0 011.633-1.633h12.22a1.632 1.632 0 011.632 1.634v29.113a1.633 1.633 0 01-1.632 1.632h-12.22a1.634 1.634 0 01-1.633-1.632"/><path class="cls-5" d="M179.133 39.325h25.479v5.435h-25.479zM128.974 39.325h25.479v5.435h-25.479zM217.229 11.957h25.479v5.435h-25.479zM168.608 11.957h25.479v5.435h-25.479z"/><path class="cls-8" d="M129.383 31.883h74.82a.41.41 0 01.409.409v19.502a.409.409 0 01-.409.409h-74.82a.408.408 0 01-.409-.41V32.293a.409.409 0 01.409-.41"/><text class="cls-20" transform="rotate(180 99.269 20.67)">40</text><text class="cls-21" transform="rotate(180 99.185 18.06)">AMP</text><text class="cls-21" transform="rotate(180 73.354 20.974)">AU<tspan class="cls-22" x="7.667" y="0">T</tspan><tspan class="cls-23" x="10.928" y="0">O</tspan></text><text class="cls-24" transform="rotate(180 73.049 18.956)">RESET</text><path class="cls-8" d="M167.202 4.513h74.82a.409.409 0 01.41.41v19.502a.408.408 0 01-.41.409h-74.82a.409.409 0 01-.409-.41v-19.5a.41.41 0 01.41-.41"/><text class="cls-20" transform="rotate(180 118.178 6.986)">40</text><text class="cls-21" transform="rotate(180 118.095 4.375)">AMP</text><text class="cls-21" transform="rotate(180 92.263 7.288)">AU<tspan class="cls-22" x="7.667" y="0">T</tspan><tspan class="cls-23" x="10.928" y="0">O</tspan></text><text class="cls-24" transform="rotate(180 91.959 5.271)">RESET</text><path class="cls-25" d="M333.665 11.957H493.03"/><path class="cls-26" d="M333.665 42.175H520.92M40.794 11.517h-154.082"/><path class="cls-25" d="M40.794 42.175l-181.224-.135"/><path stroke-width="1.5" stroke="#37b24a" stroke-linecap="round" stroke-linejoin="round" fill="none" d="M313.867 101.327h136.387"/><path stroke="#d6dd28" stroke-width="1.5" stroke-linecap="round" stroke-linejoin="round" fill="none" d="M313.867 88.725l133.987.279"/></g><g clip-path="url(#clip-path-3)"><path d="M8.171 385.533a33.096 33.096 0 01-33.058-33.06V-95.322a33.096 33.096 0 0133.058-33.059h455.494a33.096 33.096 0 0133.058 33.059v447.796a33.096 33.096 0 01-33.058 33.06zM193.31 64.55a7.532 7.532 0 00-7.524 7.524v59.774a7.533 7.533 0 007.524 7.524h43.275a7.533 7.533 0 007.524-7.524V72.073a7.532 7.532 0 00-7.524-7.523z" fill="#231f20" opacity=".4"/><path d="M463.665-126.4a31.08 31.08 0 0131.078 31.078v447.796a31.078 31.078 0 01-31.078 31.078H8.171a31.078 31.078 0 01-31.078-31.078V-95.322A31.08 31.08 0 018.17-126.401h455.494M193.309 141.352h43.275a9.505 9.505 0 009.504-9.504V72.073a9.505 9.505 0 00-9.504-9.504h-43.275a9.505 9.505 0 00-9.504 9.504v59.775a9.505 9.505 0 009.504 9.504M463.665-130.36H8.171a35.078 35.078 0 00-35.038 35.038v447.797A35.078 35.078 0 008.17 387.512h455.494a35.078 35.078 0 0035.039-35.038V-95.322a35.078 35.078 0 00-35.039-35.039zM193.309 137.392a5.55 5.55 0 01-5.544-5.544V72.073a5.55 5.55 0 015.544-5.544h43.275a5.55 5.55 0 015.544 5.544v59.775a5.55 5.55 0 01-5.544 5.544z" fill="#00aeef"/></g></svg>