<?xml version="1.0" encoding="utf-8"?>
<!-- Generator: Adobe Illustrator 24.1.0, SVG Export Plug-In . SVG Version: 6.00 Build 0)  -->
<svg version="1.1" id="Layer_1" xmlns="http://www.w3.org/2000/svg" xmlns:xlink="http://www.w3.org/1999/xlink" x="0px" y="0px"
	 viewBox="0 0 416.8 196" style="enable-background:new 0 0 416.8 196;" xml:space="preserve">
<style type="text/css">
	.st0{fill:#E9262A;}
	.st1{fill:#221F1F;}
	.st2{fill:#363435;}
	.st3{fill:#2C2929;}
	.st4{fill:#505052;}
	.st5{fill:#965E25;}
	.st6{clip-path:url(#SVGID_2_);}
	.st7{fill:#F59222;}
	.st8{fill:#AC6B29;}
	.st9{opacity:0.57;}
	.st10{fill:#A6A7AA;}
	.st11{fill:#9C9EA1;}
	.st12{fill:#BD994D;}
	.st13{fill:#857033;}
	.st14{fill:none;}
	.st15{fill:#5A5A5C;}
	.st16{fill:#665429;}
</style>
<rect x="0" y="70.5" class="st0" width="177.9" height="6.4"/>
<rect x="70.5" y="23" transform="matrix(1.175452e-02 -0.9999 0.9999 1.175452e-02 -23.8391 169.2105)" class="st1" width="6.4" height="147.3"/>
<path class="st0" d="M95.5,127.5c-0.7,0-1.4-0.2-2-0.7c-12.4-9.9-18.6-20-18.5-30.2c0.1-10,6.3-19.8,18.5-29.3
	c1.4-1.1,3.4-0.8,4.5,0.6c1.1,1.4,0.8,3.4-0.6,4.5c-10.5,8.2-15.9,16.3-16,24.2c-0.1,8.1,5.4,16.5,16.1,25.1
	c1.4,1.1,1.6,3.1,0.5,4.5C97.4,127,96.5,127.5,95.5,127.5L95.5,127.5z"/>
<rect x="91.9" y="64.4" transform="matrix(1 -2.134531e-03 2.134531e-03 1 -0.2073 0.2404)" class="st2" width="41.1" height="65.7"/>
<polyline class="st3" points="334.5,0.7 239,1 239.4,193.1 334.9,192.8 "/>
<polyline class="st4" points="239,17.6 231.9,17.7 232.2,176.4 239.3,176.4 "/>
<polygon class="st5" points="319.9,192.9 319.5,0.8 334.5,0.7 334.9,192.8 "/>
<g>
	<defs>
		<path id="SVGID_1_" d="M334.5,0.8l0.4,192.1l14.8,0l62.6-34.5c2.2-1,3.8-3,4.4-5.3l-0.2-111.9c-0.7-2.9-2.5-5.3-5-7L350,0.7
			L334.5,0.8z"/>
	</defs>
	<clipPath id="SVGID_2_">
		<use xlink:href="#SVGID_1_"  style="overflow:visible;"/>
	</clipPath>
	<g class="st6">
		<path class="st7" d="M334.5,0.7l15.5,0l61.6,33.4c2.4,1.6,4.2,4.1,5,7l0.2,111.9c-0.6,2.3-2.2,4.3-4.4,5.3l-62.6,34.5l-14.8,0
			L334.5,0.7z"/>
		<path class="st8" d="M345.8,20.7l-2.6-4.4l2.6-4.5l5.1,0l2.6,4.4l-2.6,4.5L345.8,20.7z M345.1,16.2l1.6,2.8l3.3,0l1.6-2.9
			l-1.7-2.8l-3.3,0L345.1,16.2z"/>
		<path class="st8" d="M345.9,33.1l-2.6-4.4l2.6-4.5l5.1,0l2.6,4.5l-2.6,4.5L345.9,33.1z M345.1,28.6l1.7,2.8l3.3,0l1.6-2.9
			l-1.6-2.8l-3.3,0L345.1,28.6z"/>
		<path class="st8" d="M345.9,45.6l-2.6-4.4l2.6-4.5l5.1,0l2.6,4.5l-2.6,4.5L345.9,45.6z M345.2,41.1l1.6,2.8l3.3,0l1.6-2.9
			l-1.7-2.8l-3.3,0L345.2,41.1z"/>
		<path class="st8" d="M345.9,58l-2.6-4.4l2.6-4.5l5.1,0l2.6,4.5l-2.6,4.5L345.9,58z M345.2,53.5l1.6,2.8l3.3,0l1.6-2.9l-1.7-2.8
			l-3.3,0L345.2,53.5z"/>
		<path class="st8" d="M345.8,20.7l-2.6-4.4l2.6-4.5l5.1,0l2.6,4.4l-2.6,4.5L345.8,20.7z M345.1,16.2l1.6,2.8l3.3,0l1.6-2.9
			l-1.7-2.8l-3.3,0L345.1,16.2z"/>
		<path class="st8" d="M345.9,33.1l-2.6-4.4l2.6-4.5l5.1,0l2.6,4.5l-2.6,4.5L345.9,33.1z M345.1,28.6l1.7,2.8l3.3,0l1.6-2.9
			l-1.6-2.8l-3.3,0L345.1,28.6z"/>
		<path class="st8" d="M345.9,45.6l-2.6-4.4l2.6-4.5l5.1,0l2.6,4.5l-2.6,4.5L345.9,45.6z M345.2,41.1l1.6,2.8l3.3,0l1.6-2.9
			l-1.7-2.8l-3.3,0L345.2,41.1z"/>
		<path class="st8" d="M345.9,58l-2.6-4.4l2.6-4.5l5.1,0l2.6,4.5l-2.6,4.5L345.9,58z M345.2,53.5l1.6,2.8l3.3,0l1.6-2.9l-1.7-2.8
			l-3.3,0L345.2,53.5z"/>
		<path class="st8" d="M345.9,70.2l-2.6-4.4l2.6-4.5l5.1,0l2.6,4.5l-2.6,4.5L345.9,70.2z M345.2,65.8l1.7,2.8l3.3,0l1.6-2.9
			l-1.6-2.8l-3.3,0L345.2,65.8z"/>
		<path class="st8" d="M346,82.6l-2.6-4.5l2.6-4.5l5.1,0l2.6,4.4l-2.6,4.5L346,82.6z M345.2,78.2l1.7,2.8l3.3,0l1.6-2.9l-1.7-2.8
			l-3.3,0L345.2,78.2z"/>
		<path class="st8" d="M346,95.2l-2.6-4.4l2.6-4.5l5.1,0l2.6,4.5l-2.6,4.5L346,95.2z M345.3,90.7l1.6,2.8l3.3,0l1.6-2.9l-1.7-2.8
			l-3.3,0L345.3,90.7z"/>
		<path class="st8" d="M346,107.6l-2.6-4.4l2.6-4.5l5.1,0l2.6,4.4l-2.6,4.5L346,107.6z M345.3,103.1l1.7,2.8l3.3,0l1.6-2.9l-1.6-2.8
			l-3.3,0L345.3,103.1z"/>
		<path class="st8" d="M346,119.3l-2.6-4.4l2.6-4.5l5.1,0l2.6,4.4l-2.6,4.5L346,119.3z M345.3,114.8l1.6,2.8l3.3,0l1.6-2.9l-1.7-2.8
			l-3.3,0L345.3,114.8z"/>
		<path class="st8" d="M346.1,131.7l-2.6-4.4l2.6-4.5l5.1,0l2.6,4.4l-2.6,4.5L346.1,131.7z M345.3,127.2l1.7,2.8l3.3,0l1.6-2.9
			l-1.6-2.8l-3.3,0L345.3,127.2z"/>
		<path class="st8" d="M346.1,144.2l-2.6-4.5l2.6-4.5l5.1,0l2.6,4.4l-2.6,4.5L346.1,144.2z M345.4,139.8l1.6,2.8l3.3,0l1.6-2.9
			l-1.7-2.8l-3.3,0L345.4,139.8z"/>
		<path class="st8" d="M346.1,156.6l-2.6-4.4l2.6-4.5l5.1,0l2.6,4.5l-2.6,4.5L346.1,156.6z M345.4,152.2l1.6,2.8l3.3,0l1.6-2.9
			l-1.7-2.8l-3.3,0L345.4,152.2z"/>
		<path class="st8" d="M346.1,168.2l-2.6-4.5l2.6-4.5l5.1,0l2.6,4.5l-2.6,4.5L346.1,168.2z M345.4,163.8l1.6,2.8l3.3,0l1.6-2.9
			l-1.7-2.8l-3.3,0L345.4,163.8z"/>
		<path class="st8" d="M346.2,180.6l-2.6-4.5l2.6-4.5l5.1,0l2.6,4.4l-2.6,4.5L346.2,180.6z M345.4,176.2l1.6,2.8l3.3,0l1.6-2.9
			l-1.7-2.8l-3.3,0L345.4,176.2z"/>
		<path class="st8" d="M346.2,193.1l-2.6-4.5l2.6-4.5l5.1,0l2.6,4.4l-2.6,4.5L346.2,193.1z M345.5,188.7l1.7,2.8l3.3,0l1.6-2.9
			l-1.6-2.8l-3.3,0L345.5,188.7z"/>
		<path class="st8" d="M345.8,8.9l-2.6-4.5l2.6-4.5l5.1,0l2.6,4.4L351,8.9L345.8,8.9z M345.1,4.5l1.7,2.8l3.3,0l1.6-2.9L350,1.6
			l-3.3,0L345.1,4.5z"/>
		<path class="st8" d="M335.4,48.5l-2.6-4.4l2.6-4.5l5.1,0l2.6,4.4l-2.6,4.5L335.4,48.5z M334.7,44.1l1.6,2.8l3.3,0l1.6-2.9
			l-1.7-2.8l-3.3,0L334.7,44.1z"/>
		<path class="st8" d="M335.5,60.9l-2.6-4.4l2.6-4.5l5.1,0l2.6,4.5l-2.6,4.5L335.5,60.9z M334.7,56.5l1.7,2.8l3.3,0l1.6-2.9
			l-1.6-2.8l-3.3,0L334.7,56.5z"/>
		<path class="st8" d="M335.5,73.4l-2.6-4.4l2.6-4.5l5.1,0l2.6,4.4l-2.6,4.5L335.5,73.4z M334.8,69l1.7,2.8l3.3,0l1.6-2.9l-1.7-2.8
			l-3.3,0L334.8,69z"/>
		<path class="st8" d="M335.5,85.8l-2.6-4.4l2.6-4.5l5.1,0l2.6,4.5l-2.6,4.5L335.5,85.8z M334.8,81.4l1.6,2.8l3.3,0l1.6-2.9
			l-1.7-2.8l-3.3,0L334.8,81.4z"/>
		<path class="st8" d="M335.4,48.5l-2.6-4.4l2.6-4.5l5.1,0l2.6,4.4l-2.6,4.5L335.4,48.5z M334.7,44.1l1.6,2.8l3.3,0l1.6-2.9
			l-1.7-2.8l-3.3,0L334.7,44.1z"/>
		<path class="st8" d="M335.5,60.9l-2.6-4.4l2.6-4.5l5.1,0l2.6,4.5l-2.6,4.5L335.5,60.9z M334.7,56.5l1.7,2.8l3.3,0l1.6-2.9
			l-1.6-2.8l-3.3,0L334.7,56.5z"/>
		<path class="st8" d="M335.5,73.4l-2.6-4.4l2.6-4.5l5.1,0l2.6,4.4l-2.6,4.5L335.5,73.4z M334.8,69l1.7,2.8l3.3,0l1.6-2.9l-1.7-2.8
			l-3.3,0L334.8,69z"/>
		<path class="st8" d="M335.5,85.8l-2.6-4.4l2.6-4.5l5.1,0l2.6,4.5l-2.6,4.5L335.5,85.8z M334.8,81.4l1.6,2.8l3.3,0l1.6-2.9
			l-1.7-2.8l-3.3,0L334.8,81.4z"/>
		<path class="st8" d="M335.6,98.1l-2.6-4.4l2.6-4.5l5.1,0l2.6,4.4l-2.6,4.5L335.6,98.1z M334.8,93.6l1.6,2.8l3.3,0l1.6-2.9
			l-1.7-2.8l-3.3,0L334.8,93.6z"/>
		<path class="st8" d="M335.6,110.5L333,106l2.6-4.5l5.1,0l2.6,4.4l-2.6,4.5L335.6,110.5z M334.9,106l1.7,2.8l3.3,0l1.6-2.9
			l-1.6-2.8l-3.3,0L334.9,106z"/>
		<path class="st8" d="M335.6,123l-2.6-4.4l2.6-4.5l5.1,0l2.6,4.4l-2.6,4.5L335.6,123z M334.9,118.5l1.6,2.8l3.3,0l1.6-2.9l-1.7-2.8
			l-3.3,0L334.9,118.5z"/>
		<path class="st8" d="M335.6,135.4l-2.6-4.4l2.6-4.5l5.1,0l2.6,4.5l-2.6,4.5L335.6,135.4z M334.9,130.9l1.7,2.8l3.3,0l1.6-2.9
			l-1.6-2.8l-3.3,0L334.9,130.9z"/>
		<path class="st8" d="M335.7,147.1l-2.6-4.4l2.6-4.5l5.1,0l2.6,4.5l-2.6,4.5L335.7,147.1z M334.9,142.7l1.6,2.8l3.3,0l1.6-2.9
			l-1.7-2.8l-3.3,0L334.9,142.7z"/>
		<path class="st8" d="M335.7,159.5l-2.6-4.4l2.6-4.5l5.1,0l2.6,4.5l-2.6,4.5L335.7,159.5z M335,155.1l1.7,2.8l3.3,0l1.6-2.9
			l-1.6-2.8l-3.3,0L335,155.1z"/>
		<path class="st8" d="M335.7,172l-2.6-4.4l2.6-4.5l5.1,0l2.6,4.5l-2.6,4.5L335.7,172z M335,167.6l1.6,2.8l3.3,0l1.6-2.9l-1.7-2.8
			l-3.3,0L335,167.6z"/>
		<path class="st8" d="M335.7,184.4l-2.6-4.4l2.6-4.5l5.1,0l2.6,4.5l-2.6,4.5L335.7,184.4z M335,180l1.6,2.8l3.3,0l1.6-2.9l-1.7-2.8
			l-3.3,0L335,180z"/>
		<path class="st8" d="M335.8,196l-2.6-4.4l2.6-4.5l5.1,0l2.6,4.4l-2.6,4.5L335.8,196z M335,191.6l1.7,2.8l3.3,0l1.6-2.9l-1.7-2.8
			l-3.3,0L335,191.6z"/>
		<path class="st8" d="M335.4,11.9l-2.6-4.4l2.6-4.5l5.1,0l2.6,4.4l-2.6,4.5L335.4,11.9z M334.6,7.4l1.7,2.8l3.3,0l1.6-2.9l-1.6-2.8
			l-3.3,0L334.6,7.4z"/>
		<path class="st8" d="M335.4,24.4l-2.6-4.5l2.6-4.5l5.1,0l2.6,4.4l-2.6,4.5L335.4,24.4z M334.7,19.9l1.6,2.8l3.3,0l1.6-2.9
			l-1.7-2.8l-3.3,0L334.7,19.9z"/>
		<path class="st8" d="M335.4,36.8l-2.6-4.4l2.6-4.5l5.1,0l2.6,4.5l-2.6,4.5L335.4,36.8z M334.7,32.3l1.7,2.8l3.3,0l1.6-2.9
			l-1.6-2.8l-3.3,0L334.7,32.3z"/>
		<path class="st8" d="M366.7,21.2l-2.6-4.4l2.6-4.5l5.1,0l2.6,4.5l-2.6,4.5L366.7,21.2z M366,16.8l1.7,2.8l3.3,0l1.6-2.9l-1.6-2.8
			l-3.3,0L366,16.8z"/>
		<path class="st8" d="M366.8,33.6l-2.6-4.4l2.6-4.5l5.1,0l2.6,4.5l-2.6,4.5L366.8,33.6z M366,29.2l1.6,2.8l3.3,0l1.6-2.9l-1.7-2.8
			l-3.3,0L366,29.2z"/>
		<path class="st8" d="M366.8,46.1l-2.6-4.4l2.6-4.5l5.1,0l2.6,4.5l-2.6,4.5L366.8,46.1z M366.1,41.7l1.7,2.8l3.3,0l1.6-2.9
			l-1.6-2.8l-3.3,0L366.1,41.7z"/>
		<path class="st8" d="M366.8,58.5l-2.6-4.4l2.6-4.5l5.1,0l2.6,4.5l-2.6,4.5L366.8,58.5z M366.1,54.1l1.7,2.8l3.3,0l1.6-2.9
			l-1.6-2.8l-3.3,0L366.1,54.1z"/>
		<path class="st8" d="M366.7,21.2l-2.6-4.4l2.6-4.5l5.1,0l2.6,4.5l-2.6,4.5L366.7,21.2z M366,16.8l1.7,2.8l3.3,0l1.6-2.9l-1.6-2.8
			l-3.3,0L366,16.8z"/>
		<path class="st8" d="M366.8,33.6l-2.6-4.4l2.6-4.5l5.1,0l2.6,4.5l-2.6,4.5L366.8,33.6z M366,29.2l1.6,2.8l3.3,0l1.6-2.9l-1.7-2.8
			l-3.3,0L366,29.2z"/>
		<path class="st8" d="M366.8,46.1l-2.6-4.4l2.6-4.5l5.1,0l2.6,4.5l-2.6,4.5L366.8,46.1z M366.1,41.7l1.7,2.8l3.3,0l1.6-2.9
			l-1.6-2.8l-3.3,0L366.1,41.7z"/>
		<path class="st8" d="M366.8,58.5l-2.6-4.4l2.6-4.5l5.1,0l2.6,4.5l-2.6,4.5L366.8,58.5z M366.1,54.1l1.7,2.8l3.3,0l1.6-2.9
			l-1.6-2.8l-3.3,0L366.1,54.1z"/>
		<path class="st8" d="M366.8,70.8l-2.6-4.5l2.6-4.5l5.1,0l2.6,4.4l-2.6,4.5L366.8,70.8z M366.1,66.3l1.6,2.8l3.3,0l1.6-2.9
			l-1.7-2.8l-3.3,0L366.1,66.3z"/>
		<path class="st8" d="M366.9,83.2l-2.6-4.4l2.6-4.5l5.1,0l2.6,4.4l-2.6,4.5L366.9,83.2z M366.1,78.7l1.6,2.8l3.3,0l1.6-2.9
			l-1.7-2.8l-3.3,0L366.1,78.7z"/>
		<path class="st8" d="M366.9,95.7l-2.6-4.4l2.6-4.5l5.1,0l2.6,4.4l-2.6,4.5L366.9,95.7z M366.2,91.2l1.7,2.8l3.3,0l1.6-2.9
			l-1.6-2.8l-3.3,0L366.2,91.2z"/>
		<path class="st8" d="M366.9,108.1l-2.6-4.4l2.6-4.5l5.1,0l2.6,4.5l-2.6,4.5L366.9,108.1z M366.2,103.6l1.6,2.8l3.3,0l1.6-2.9
			l-1.7-2.8l-3.3,0L366.2,103.6z"/>
		<path class="st8" d="M366.9,119.8l-2.6-4.4l2.6-4.5l5.1,0l2.6,4.4l-2.6,4.5L366.9,119.8z M366.2,115.4l1.7,2.8l3.3,0l1.6-2.9
			l-1.6-2.8l-3.3,0L366.2,115.4z"/>
		<path class="st8" d="M367,132.2l-2.6-4.4l2.6-4.5l5.1,0l2.6,4.5l-2.6,4.5L367,132.2z M366.2,127.8l1.6,2.8l3.3,0l1.6-2.9l-1.7-2.8
			l-3.3,0L366.2,127.8z"/>
		<path class="st8" d="M367,144.7l-2.6-4.4l2.6-4.5l5.1,0l2.6,4.4l-2.6,4.5L367,144.7z M366.3,140.3l1.7,2.8l3.3,0l1.6-2.9l-1.6-2.8
			l-3.3,0L366.3,140.3z"/>
		<path class="st8" d="M367,157.1l-2.6-4.4l2.6-4.5l5.1,0l2.6,4.5l-2.6,4.5L367,157.1z M366.3,152.7l1.7,2.8l3.3,0l1.6-2.9l-1.7-2.8
			l-3.3,0L366.3,152.7z"/>
		<path class="st8" d="M367,168.7l-2.6-4.5l2.6-4.5l5.1,0l2.6,4.4l-2.6,4.5L367,168.7z M366.3,164.3l1.7,2.8l3.3,0l1.6-2.9l-1.6-2.8
			l-3.3,0L366.3,164.3z"/>
		<path class="st8" d="M367.1,181.1l-2.6-4.5l2.6-4.5l5.1,0l2.6,4.4l-2.6,4.5L367.1,181.1z M366.3,176.7l1.7,2.8l3.3,0l1.6-2.9
			l-1.6-2.8l-3.3,0L366.3,176.7z"/>
		<path class="st8" d="M356.3,49.1l-2.6-4.4l2.6-4.5l5.1,0l2.6,4.5l-2.6,4.5L356.3,49.1z M355.6,44.6l1.7,2.8l3.3,0l1.6-2.9
			l-1.6-2.8l-3.3,0L355.6,44.6z"/>
		<path class="st8" d="M356.4,61.5l-2.6-4.5l2.6-4.5l5.1,0l2.6,4.5l-2.6,4.5L356.4,61.5z M355.6,57l1.6,2.8l3.3,0l1.6-2.9l-1.7-2.8
			l-3.3,0L355.6,57z"/>
		<path class="st8" d="M356.4,74l-2.6-4.5l2.6-4.5l5.1,0l2.6,4.5l-2.6,4.5L356.4,74z M355.7,69.5l1.6,2.8l3.3,0l1.6-2.9l-1.7-2.8
			l-3.3,0L355.7,69.5z"/>
		<path class="st8" d="M356.4,86.4l-2.6-4.4l2.6-4.5l5.1,0l2.6,4.4l-2.6,4.5L356.4,86.4z M355.7,81.9l1.7,2.8l3.3,0l1.6-2.9
			l-1.6-2.8l-3.3,0L355.7,81.9z"/>
		<path class="st8" d="M356.3,49.1l-2.6-4.4l2.6-4.5l5.1,0l2.6,4.5l-2.6,4.5L356.3,49.1z M355.6,44.6l1.7,2.8l3.3,0l1.6-2.9
			l-1.6-2.8l-3.3,0L355.6,44.6z"/>
		<path class="st8" d="M356.4,61.5l-2.6-4.5l2.6-4.5l5.1,0l2.6,4.5l-2.6,4.5L356.4,61.5z M355.6,57l1.6,2.8l3.3,0l1.6-2.9l-1.7-2.8
			l-3.3,0L355.6,57z"/>
		<path class="st8" d="M356.4,74l-2.6-4.5l2.6-4.5l5.1,0l2.6,4.5l-2.6,4.5L356.4,74z M355.7,69.5l1.6,2.8l3.3,0l1.6-2.9l-1.7-2.8
			l-3.3,0L355.7,69.5z"/>
		<path class="st8" d="M356.4,86.4l-2.6-4.4l2.6-4.5l5.1,0l2.6,4.4l-2.6,4.5L356.4,86.4z M355.7,81.9l1.7,2.8l3.3,0l1.6-2.9
			l-1.6-2.8l-3.3,0L355.7,81.9z"/>
		<path class="st8" d="M356.4,98.6l-2.6-4.4l2.6-4.5l5.1,0l2.6,4.4l-2.6,4.5L356.4,98.6z M355.7,94.2l1.7,2.8l3.3,0l1.6-2.9
			l-1.7-2.8l-3.3,0L355.7,94.2z"/>
		<path class="st8" d="M356.5,111l-2.6-4.4l2.6-4.5l5.1,0l2.6,4.5l-2.6,4.5L356.5,111z M355.7,106.6l1.6,2.8l3.3,0l1.6-2.9l-1.7-2.8
			l-3.3,0L355.7,106.6z"/>
		<path class="st8" d="M356.5,123.5l-2.6-4.4l2.6-4.5l5.1,0l2.6,4.5l-2.6,4.5L356.5,123.5z M355.8,119.1l1.7,2.8l3.3,0l1.6-2.9
			l-1.6-2.8l-3.3,0L355.8,119.1z"/>
		<path class="st8" d="M356.5,135.9l-2.6-4.4l2.6-4.5l5.1,0l2.6,4.5l-2.6,4.5L356.5,135.9z M355.8,131.5l1.6,2.8l3.3,0l1.6-2.9
			l-1.7-2.8l-3.3,0L355.8,131.5z"/>
		<path class="st8" d="M356.6,147.7l-2.6-4.4l2.6-4.5l5.1,0l2.6,4.5l-2.6,4.5L356.6,147.7z M355.8,143.2l1.7,2.8l3.3,0l1.6-2.9
			l-1.6-2.8l-3.3,0L355.8,143.2z"/>
		<path class="st8" d="M356.6,160.1l-2.6-4.5l2.6-4.5l5.1,0l2.6,4.4l-2.6,4.5L356.6,160.1z M355.8,155.6l1.6,2.8l3.3,0l1.6-2.9
			l-1.7-2.8l-3.3,0L355.8,155.6z"/>
		<path class="st8" d="M356.6,172.6l-2.6-4.4l2.6-4.5l5.1,0l2.6,4.5l-2.6,4.5L356.6,172.6z M355.9,168.1l1.7,2.8l3.3,0l1.6-2.9
			l-1.6-2.8l-3.3,0L355.9,168.1z"/>
		<path class="st8" d="M356.6,185l-2.6-4.5l2.6-4.5l5.1,0l2.6,4.4l-2.6,4.5L356.6,185z M355.9,180.5l1.7,2.8l3.3,0l1.6-2.9l-1.6-2.8
			l-3.3,0L355.9,180.5z"/>
		<path class="st8" d="M356.3,12.4l-2.6-4.4l2.6-4.5l5.1,0l2.6,4.5l-2.6,4.5L356.3,12.4z M355.5,7.9l1.6,2.8l3.3,0l1.6-2.9l-1.7-2.8
			l-3.3,0L355.5,7.9z"/>
		<path class="st8" d="M356.3,24.9l-2.6-4.4l2.6-4.5l5.1,0l2.6,4.5l-2.6,4.5L356.3,24.9z M355.6,20.4l1.7,2.8l3.3,0l1.6-2.9
			l-1.6-2.8l-3.3,0L355.6,20.4z"/>
		<path class="st8" d="M356.3,37.3l-2.6-4.4l2.6-4.5l5.1,0l2.6,4.5l-2.6,4.5L356.3,37.3z M355.6,32.8l1.7,2.8l3.3,0l1.6-2.9
			l-1.7-2.8l-3.3,0L355.6,32.8z"/>
		<path class="st8" d="M387.6,33.3l-2.6-4.4l2.6-4.5l5.1,0l2.6,4.5l-2.6,4.5L387.6,33.3z M386.9,28.8l1.7,2.8l3.3,0l1.6-2.9
			l-1.6-2.8l-3.3,0L386.9,28.8z"/>
		<path class="st8" d="M387.7,45.8l-2.6-4.4l2.6-4.5l5.1,0l2.6,4.5l-2.6,4.5L387.7,45.8z M386.9,41.3l1.6,2.8l3.3,0l1.6-2.9
			l-1.7-2.8l-3.3,0L386.9,41.3z"/>
		<path class="st8" d="M387.7,58.2l-2.6-4.4l2.6-4.5l5.1,0l2.6,4.5l-2.6,4.5L387.7,58.2z M387,53.7l1.7,2.8l3.3,0l1.6-2.9l-1.6-2.8
			l-3.3,0L387,53.7z"/>
		<path class="st8" d="M387.6,33.3l-2.6-4.4l2.6-4.5l5.1,0l2.6,4.5l-2.6,4.5L387.6,33.3z M386.9,28.8l1.7,2.8l3.3,0l1.6-2.9
			l-1.6-2.8l-3.3,0L386.9,28.8z"/>
		<path class="st8" d="M387.7,45.8l-2.6-4.4l2.6-4.5l5.1,0l2.6,4.5l-2.6,4.5L387.7,45.8z M386.9,41.3l1.6,2.8l3.3,0l1.6-2.9
			l-1.7-2.8l-3.3,0L386.9,41.3z"/>
		<path class="st8" d="M387.7,58.2l-2.6-4.4l2.6-4.5l5.1,0l2.6,4.5l-2.6,4.5L387.7,58.2z M387,53.7l1.7,2.8l3.3,0l1.6-2.9l-1.6-2.8
			l-3.3,0L387,53.7z"/>
		<path class="st8" d="M387.7,70.4l-2.6-4.4l2.6-4.5l5.1,0l2.6,4.4l-2.6,4.5L387.7,70.4z M387,66l1.7,2.8l3.3,0l1.6-2.9l-1.6-2.8
			l-3.3,0L387,66z"/>
		<path class="st8" d="M387.8,82.8l-2.6-4.5l2.6-4.5l5.1,0l2.6,4.4l-2.6,4.5L387.8,82.8z M387,78.4l1.6,2.8l3.3,0l1.6-2.9l-1.7-2.8
			l-3.3,0L387,78.4z"/>
		<path class="st8" d="M387.8,95.4l-2.6-4.5l2.6-4.5l5.1,0l2.6,4.4l-2.6,4.5L387.8,95.4z M387.1,90.9l1.7,2.8l3.3,0l1.6-2.9L392,88
			l-3.3,0L387.1,90.9z"/>
		<path class="st8" d="M387.8,107.8l-2.6-4.4l2.6-4.5l5.1,0l2.6,4.4l-2.6,4.5L387.8,107.8z M387.1,103.3l1.7,2.8l3.3,0l1.6-2.9
			l-1.6-2.8l-3.3,0L387.1,103.3z"/>
		<path class="st8" d="M387.8,119.5l-2.6-4.4l2.6-4.5l5.1,0l2.6,4.4l-2.6,4.5L387.8,119.5z M387.1,115.1l1.7,2.8l3.3,0l1.6-2.9
			l-1.6-2.8l-3.3,0L387.1,115.1z"/>
		<path class="st8" d="M387.9,131.9l-2.6-4.4l2.6-4.5l5.1,0l2.6,4.5l-2.6,4.5L387.9,131.9z M387.1,127.5l1.7,2.8l3.3,0l1.6-2.9
			l-1.6-2.8l-3.3,0L387.1,127.5z"/>
		<path class="st8" d="M387.9,144.4l-2.6-4.4l2.6-4.5l5.1,0l2.6,4.4l-2.6,4.5L387.9,144.4z M387.2,140l1.6,2.8l3.3,0l1.6-2.9
			l-1.7-2.8l-3.3,0L387.2,140z"/>
		<path class="st8" d="M387.9,156.8l-2.6-4.5l2.6-4.5l5.1,0l2.6,4.5l-2.6,4.5L387.9,156.8z M387.2,152.4l1.7,2.8l3.3,0l1.6-2.9
			l-1.6-2.8l-3.3,0L387.2,152.4z"/>
		<path class="st8" d="M387.9,168.4l-2.6-4.5l2.6-4.5l5.1,0l2.6,4.5l-2.6,4.5L387.9,168.4z M387.2,164l1.6,2.8l3.3,0l1.6-2.9
			l-1.7-2.8l-3.3,0L387.2,164z"/>
		<path class="st8" d="M377.2,48.7l-2.6-4.5l2.6-4.5l5.1,0l2.6,4.4l-2.6,4.5L377.2,48.7z M376.5,44.3l1.6,2.8l3.3,0l1.6-2.9
			l-1.7-2.8l-3.3,0L376.5,44.3z"/>
		<path class="st8" d="M377.3,61.1l-2.6-4.4l2.6-4.5l5.1,0l2.6,4.5l-2.6,4.5L377.3,61.1z M376.5,56.7l1.7,2.8l3.3,0l1.6-2.9
			l-1.6-2.8l-3.3,0L376.5,56.7z"/>
		<path class="st8" d="M377.3,73.6l-2.6-4.4l2.6-4.5l5.1,0l2.6,4.4l-2.6,4.5L377.3,73.6z M376.6,69.2l1.6,2.8l3.3,0l1.6-2.9
			l-1.7-2.8l-3.3,0L376.6,69.2z"/>
		<path class="st8" d="M377.3,86l-2.6-4.4l2.6-4.5l5.1,0l2.6,4.5l-2.6,4.5L377.3,86z M376.6,81.6l1.6,2.8l3.3,0l1.6-2.9l-1.7-2.8
			l-3.3,0L376.6,81.6z"/>
		<path class="st8" d="M377.2,48.7l-2.6-4.5l2.6-4.5l5.1,0l2.6,4.4l-2.6,4.5L377.2,48.7z M376.5,44.3l1.6,2.8l3.3,0l1.6-2.9
			l-1.7-2.8l-3.3,0L376.5,44.3z"/>
		<path class="st8" d="M377.3,61.1l-2.6-4.4l2.6-4.5l5.1,0l2.6,4.5l-2.6,4.5L377.3,61.1z M376.5,56.7l1.7,2.8l3.3,0l1.6-2.9
			l-1.6-2.8l-3.3,0L376.5,56.7z"/>
		<path class="st8" d="M377.3,73.6l-2.6-4.4l2.6-4.5l5.1,0l2.6,4.4l-2.6,4.5L377.3,73.6z M376.6,69.2l1.6,2.8l3.3,0l1.6-2.9
			l-1.7-2.8l-3.3,0L376.6,69.2z"/>
		<path class="st8" d="M377.3,86l-2.6-4.4l2.6-4.5l5.1,0l2.6,4.5l-2.6,4.5L377.3,86z M376.6,81.6l1.6,2.8l3.3,0l1.6-2.9l-1.7-2.8
			l-3.3,0L376.6,81.6z"/>
		<path class="st8" d="M377.3,98.3l-2.6-4.4l2.6-4.5l5.1,0l2.6,4.4l-2.6,4.5L377.3,98.3z M376.6,93.8l1.7,2.8l3.3,0l1.6-2.9
			l-1.6-2.8l-3.3,0L376.6,93.8z"/>
		<path class="st8" d="M377.4,110.7l-2.6-4.4l2.6-4.5l5.1,0l2.6,4.4l-2.6,4.5L377.4,110.7z M376.6,106.2l1.7,2.8l3.3,0l1.6-2.9
			l-1.7-2.8l-3.3,0L376.6,106.2z"/>
		<path class="st8" d="M377.4,123.2l-2.6-4.4l2.6-4.5l5.1,0l2.6,4.4l-2.6,4.5L377.4,123.2z M376.7,118.7l1.6,2.8l3.3,0l1.6-2.9
			l-1.7-2.8l-3.3,0L376.7,118.7z"/>
		<path class="st8" d="M377.4,135.6l-2.6-4.4l2.6-4.5l5.1,0l2.6,4.4l-2.6,4.5L377.4,135.6z M376.7,131.1l1.7,2.8l3.3,0l1.6-2.9
			l-1.6-2.8l-3.3,0L376.7,131.1z"/>
		<path class="st8" d="M377.4,147.3l-2.6-4.5l2.6-4.5l5.1,0l2.6,4.5l-2.6,4.5L377.4,147.3z M376.7,142.9l1.6,2.8l3.3,0l1.6-2.9
			l-1.7-2.8l-3.3,0L376.7,142.9z"/>
		<path class="st8" d="M377.5,159.7l-2.6-4.4l2.6-4.5l5.1,0l2.6,4.4l-2.6,4.5L377.5,159.7z M376.7,155.3l1.7,2.8l3.3,0l1.6-2.9
			l-1.6-2.8l-3.3,0L376.7,155.3z"/>
		<path class="st8" d="M377.5,172.3l-2.6-4.4l2.6-4.5l5.1,0l2.6,4.5l-2.6,4.5L377.5,172.3z M376.8,167.8l1.6,2.8l3.3,0l1.6-2.9
			l-1.7-2.8l-3.3,0L376.8,167.8z"/>
		<path class="st8" d="M377.2,24.6l-2.6-4.4l2.6-4.5l5.1,0l2.6,4.4l-2.6,4.5L377.2,24.6z M376.5,20.1l1.6,2.8l3.3,0l1.6-2.9
			l-1.7-2.8l-3.3,0L376.5,20.1z"/>
		<path class="st8" d="M377.2,37l-2.6-4.4l2.6-4.5l5.1,0l2.6,4.5l-2.6,4.5L377.2,37z M376.5,32.5l1.7,2.8l3.3,0l1.6-2.9l-1.6-2.8
			l-3.3,0L376.5,32.5z"/>
		<path class="st8" d="M408.6,46.3l-2.6-4.4l2.6-4.5l5.1,0l2.6,4.5l-2.6,4.5L408.6,46.3z M407.8,41.9l1.7,2.8l3.3,0l1.6-2.9
			l-1.6-2.8l-3.3,0L407.8,41.9z"/>
		<path class="st8" d="M408.6,58.7l-2.6-4.4l2.6-4.5l5.1,0l2.6,4.4l-2.6,4.5L408.6,58.7z M407.9,54.3l1.6,2.8l3.3,0l1.6-2.9
			l-1.7-2.8l-3.3,0L407.9,54.3z"/>
		<path class="st8" d="M408.6,46.3l-2.6-4.4l2.6-4.5l5.1,0l2.6,4.5l-2.6,4.5L408.6,46.3z M407.8,41.9l1.7,2.8l3.3,0l1.6-2.9
			l-1.6-2.8l-3.3,0L407.8,41.9z"/>
		<path class="st8" d="M408.6,58.7l-2.6-4.4l2.6-4.5l5.1,0l2.6,4.4l-2.6,4.5L408.6,58.7z M407.9,54.3l1.6,2.8l3.3,0l1.6-2.9
			l-1.7-2.8l-3.3,0L407.9,54.3z"/>
		<path class="st8" d="M408.6,71l-2.6-4.5l2.6-4.5l5.1,0l2.6,4.4l-2.6,4.5L408.6,71z M407.9,66.5l1.6,2.8l3.3,0l1.6-2.9l-1.7-2.8
			l-3.3,0L407.9,66.5z"/>
		<path class="st8" d="M408.6,83.4l-2.6-4.4l2.6-4.5l5.1,0l2.6,4.4l-2.6,4.5L408.6,83.4z M407.9,78.9l1.7,2.8l3.3,0l1.6-2.9
			l-1.6-2.8l-3.3,0L407.9,78.9z"/>
		<path class="st8" d="M408.7,95.9l-2.6-4.4l2.6-4.5l5.1,0l2.6,4.4l-2.6,4.5L408.7,95.9z M407.9,91.4l1.7,2.8l3.3,0l1.6-2.9
			l-1.7-2.8l-3.3,0L407.9,91.4z"/>
		<path class="st8" d="M408.7,108.3l-2.6-4.4l2.6-4.5l5.1,0l2.6,4.5l-2.6,4.5L408.7,108.3z M408,103.8l1.6,2.8l3.3,0l1.6-2.9
			l-1.7-2.8l-3.3,0L408,103.8z"/>
		<path class="st8" d="M408.7,120l-2.6-4.4l2.6-4.5l5.1,0l2.6,4.5l-2.6,4.5L408.7,120z M408,115.6l1.6,2.8l3.3,0l1.6-2.9l-1.7-2.8
			l-3.3,0L408,115.6z"/>
		<path class="st8" d="M408.8,132.4l-2.6-4.4l2.6-4.5l5.1,0l2.6,4.5l-2.6,4.5L408.8,132.4z M408,128l1.6,2.8l3.3,0l1.6-2.9l-1.7-2.8
			l-3.3,0L408,128z"/>
		<path class="st8" d="M408.8,145l-2.6-4.4l2.6-4.5l5.1,0l2.6,4.5l-2.6,4.5L408.8,145z M408,140.5l1.7,2.8l3.3,0l1.6-2.9l-1.6-2.8
			l-3.3,0L408,140.5z"/>
		<path class="st8" d="M408.8,157.4l-2.6-4.4l2.6-4.5l5.1,0l2.6,4.5l-2.6,4.5L408.8,157.4z M408.1,152.9l1.6,2.8l3.3,0l1.6-2.9
			L413,150l-3.3,0L408.1,152.9z"/>
		<path class="st8" d="M398.1,49.3l-2.6-4.4l2.6-4.5l5.1,0l2.6,4.5l-2.6,4.5L398.1,49.3z M397.4,44.8l1.7,2.8l3.3,0l1.6-2.9
			l-1.7-2.8l-3.3,0L397.4,44.8z"/>
		<path class="st8" d="M398.2,61.7l-2.6-4.4l2.6-4.5l5.1,0l2.6,4.5l-2.6,4.5L398.2,61.7z M397.4,57.2l1.6,2.8l3.3,0l1.6-2.9
			l-1.7-2.8l-3.3,0L397.4,57.2z"/>
		<path class="st8" d="M398.2,74.2l-2.6-4.5l2.6-4.5l5.1,0l2.6,4.5l-2.6,4.5L398.2,74.2z M397.5,69.7l1.7,2.8l3.3,0l1.6-2.9
			l-1.6-2.8l-3.3,0L397.5,69.7z"/>
		<path class="st8" d="M398.2,86.6l-2.6-4.4l2.6-4.5l5.1,0l2.6,4.4l-2.6,4.5L398.2,86.6z M397.5,82.1l1.7,2.8l3.3,0l1.6-2.9
			l-1.7-2.8l-3.3,0L397.5,82.1z"/>
		<path class="st8" d="M398.1,49.3l-2.6-4.4l2.6-4.5l5.1,0l2.6,4.5l-2.6,4.5L398.1,49.3z M397.4,44.8l1.7,2.8l3.3,0l1.6-2.9
			l-1.7-2.8l-3.3,0L397.4,44.8z"/>
		<path class="st8" d="M398.2,61.7l-2.6-4.4l2.6-4.5l5.1,0l2.6,4.5l-2.6,4.5L398.2,61.7z M397.4,57.2l1.6,2.8l3.3,0l1.6-2.9
			l-1.7-2.8l-3.3,0L397.4,57.2z"/>
		<path class="st8" d="M398.2,74.2l-2.6-4.5l2.6-4.5l5.1,0l2.6,4.5l-2.6,4.5L398.2,74.2z M397.5,69.7l1.7,2.8l3.3,0l1.6-2.9
			l-1.6-2.8l-3.3,0L397.5,69.7z"/>
		<path class="st8" d="M398.2,86.6l-2.6-4.4l2.6-4.5l5.1,0l2.6,4.4l-2.6,4.5L398.2,86.6z M397.5,82.1l1.7,2.8l3.3,0l1.6-2.9
			l-1.7-2.8l-3.3,0L397.5,82.1z"/>
		<path class="st8" d="M398.2,98.8l-2.6-4.5l2.6-4.5l5.1,0l2.6,4.4l-2.6,4.5L398.2,98.8z M397.5,94.4l1.6,2.8l3.3,0l1.6-2.9
			l-1.7-2.8l-3.3,0L397.5,94.4z"/>
		<path class="st8" d="M398.3,111.2l-2.6-4.4l2.6-4.5l5.1,0l2.6,4.5l-2.6,4.5L398.3,111.2z M397.5,106.8l1.6,2.8l3.3,0l1.6-2.9
			l-1.7-2.8l-3.3,0L397.5,106.8z"/>
		<path class="st8" d="M398.3,123.7l-2.6-4.4l2.6-4.5l5.1,0l2.6,4.4l-2.6,4.5L398.3,123.7z M397.6,119.3l1.7,2.8l3.3,0l1.6-2.9
			l-1.7-2.8l-3.3,0L397.6,119.3z"/>
		<path class="st8" d="M398.3,136.1l-2.6-4.4l2.6-4.5l5.1,0l2.6,4.5l-2.6,4.5L398.3,136.1z M397.6,131.7l1.6,2.8l3.3,0l1.6-2.9
			l-1.7-2.8l-3.3,0L397.6,131.7z"/>
		<path class="st8" d="M398.3,147.9l-2.6-4.4l2.6-4.5l5.1,0l2.6,4.4l-2.6,4.5L398.3,147.9z M397.6,143.4l1.7,2.8l3.3,0l1.6-2.9
			l-1.7-2.8l-3.3,0L397.6,143.4z"/>
		<path class="st8" d="M398.4,160.3l-2.6-4.4l2.6-4.5l5.1,0l2.6,4.5l-2.6,4.5L398.4,160.3z M397.6,155.8l1.6,2.8l3.3,0l1.6-2.9
			l-1.7-2.8l-3.3,0L397.6,155.8z"/>
		<path class="st8" d="M398.1,37.5l-2.6-4.4l2.6-4.5l5.1,0l2.6,4.5l-2.6,4.5L398.1,37.5z M397.4,33.1l1.6,2.8l3.3,0L404,33l-1.7-2.8
			l-3.3,0L397.4,33.1z"/>
	</g>
</g>
<g class="st9">
	<path class="st10" d="M261.7,164l-6.1-3.8l-4.8,0l0-1.4l4.6,0l6.3-3.9l0,1.6l-4.9,3l4.9,3L261.7,164z"/>
	<path class="st10" d="M250.8,154.4l0-7.2l10.9,0l0,7.2l-1.3,0l0-5.7l-3,0l0,5.7l-1.3,0l0-5.7l-4,0l0,5.7L250.8,154.4z"/>
	<path class="st10" d="M250.7,145.6l0-6.9l10.9,0l0,1.4l-9.6,0l0,5.4L250.7,145.6z"/>
	<path class="st10" d="M256.2,136.3c-0.9,0-1.9-0.2-2.7-0.6c-0.8-0.4-1.4-1-1.9-1.7c-0.3-0.5-0.5-1.1-0.7-1.7
		c-0.2-0.8-0.2-1.6-0.2-2.4l0-2.8l10.9,0l0,2.7c0,0.9-0.1,1.7-0.2,2.5c-0.1,0.6-0.3,1.1-0.6,1.6c-0.5,0.7-1.1,1.3-1.8,1.7
		C258.1,136.2,257.1,136.4,256.2,136.3z M256.2,134.8c0.7,0,1.5-0.1,2.2-0.5c0.6-0.3,1.1-0.8,1.4-1.3c0.2-0.4,0.4-0.9,0.5-1.4
		c0.1-0.6,0.1-1.2,0.1-1.7l0-1.4l-8.4,0l0,1.4c0,0.6,0,1.2,0.2,1.8c0.1,0.5,0.3,1,0.6,1.4c0.3,0.5,0.8,1,1.4,1.2
		C254.7,134.7,255.5,134.9,256.2,134.8z"/>
	<path class="st10" d="M250.7,124.5l0-1.5l3-1.1l0-4.7l-3-1.1l0-1.5l10.9,3.9l0,1.9L250.7,124.5z M255,121.5l5.3-1.9l-5.4-1.9
		L255,121.5z"/>
	<path class="st10" d="M250.7,115l0-1.9l4.3-3.7l0-2l-4.3,0l0-1.4l10.9,0l0,3.1c0,0.6,0,1.1-0.1,1.6c-0.1,0.4-0.2,0.8-0.5,1.2
		c-0.2,0.4-0.6,0.7-0.9,0.9c-0.4,0.2-0.9,0.4-1.4,0.3c-0.7,0-1.4-0.2-2-0.6c-0.5-0.4-1-1-1.2-1.6L250.7,115z M258.5,111.6
		c0.3,0,0.6-0.1,0.8-0.2c0.3-0.1,0.5-0.3,0.6-0.5c0.1-0.2,0.2-0.5,0.3-0.7c0.1-0.3,0.1-0.7,0.1-1l0-1.7l-4.1,0l0,1.5
		c0,0.4,0,0.8,0.1,1.2c0.1,0.3,0.2,0.6,0.4,0.9c0.2,0.2,0.4,0.4,0.7,0.5C257.8,111.6,258.2,111.6,258.5,111.6z"/>
	<path class="st10" d="M254,104.1c-0.5,0-1-0.1-1.4-0.3c-0.4-0.2-0.8-0.5-1-0.8c-0.3-0.4-0.6-0.9-0.7-1.3c-0.2-0.6-0.2-1.2-0.2-1.9
		l0-3.9l10.9,0l0,3.2c0,0.6,0,1.2-0.1,1.8c-0.1,0.4-0.2,0.8-0.4,1.1c-0.2,0.4-0.5,0.7-0.8,0.9c-0.4,0.2-0.8,0.3-1.2,0.3
		c-0.5,0-0.9-0.1-1.3-0.4c-0.4-0.3-0.7-0.6-0.9-1.1h-0.1c-0.1,0.7-0.5,1.3-1,1.7C255.4,103.9,254.7,104.2,254,104.1z M253.9,102.6
		c0.4,0,0.7-0.1,1-0.2c0.3-0.2,0.5-0.4,0.7-0.7c0.1-0.3,0.2-0.6,0.2-0.9c0-0.4,0.1-0.8,0.1-1.2l0-2.3l-4.1,0l0,1.9
		c0,0.5,0,1,0.1,1.6c0,0.4,0.2,0.7,0.4,1c0.2,0.2,0.4,0.5,0.7,0.6C253.3,102.6,253.6,102.6,253.9,102.6z M258.9,101.7
		c0.2,0,0.5,0,0.7-0.1c0.2-0.1,0.3-0.2,0.4-0.4c0.1-0.3,0.2-0.5,0.2-0.8c0-0.3,0-0.7,0-1.2l0-1.7l-3.1,0l0,1.9c0,0.4,0,0.7,0.1,1.1
		c0,0.3,0.1,0.5,0.3,0.7c0.1,0.2,0.3,0.4,0.6,0.5C258.4,101.7,258.6,101.7,258.9,101.7z"/>
	<path class="st10" d="M254.7,90.6l0-4.6l1.3,0l0,4.6L254.7,90.6z"/>
	<path class="st10" d="M250.6,83l0-1.8l9.7-5.2l-9.7,0l0-1.4l10.9,0l0,2.2l-8.9,4.7l8.9,0l0,1.4L250.6,83z"/>
	<path class="st10" d="M250.6,72.8l0-7.2l10.9,0l0,7.2l-1.3,0l0-5.7l-3,0l0,5.7l-1.3,0l0-5.7l-4,0l0,5.7L250.6,72.8z"/>
	<path class="st10" d="M250.6,64.1l0-6.9l10.9,0l0,1.4l-9.6,0l0,5.4L250.6,64.1z"/>
	<path class="st10" d="M250.6,55.6l0-6.9l10.9,0l0,1.4l-9.6,0l0,5.4L250.6,55.6z"/>
	<path class="st10" d="M250.5,46.1l0-1.5l3-1.1l0-4.7l-3-1.1l0-1.5l10.9,3.9l0,1.9L250.5,46.1z M254.8,43l5.3-1.9l-5.4-1.9L254.8,43
		z"/>
</g>
<rect x="159.6" y="49.8" transform="matrix(1 -2.204344e-03 2.204344e-03 1 -0.2106 0.4345)" class="st3" width="74.7" height="92"/>
<rect x="193.9" y="34.6" transform="matrix(1 -2.099625e-03 2.099625e-03 1 -0.2028 0.4244)" class="st4" width="16.4" height="124.4"/>
<rect x="175" y="37.9" transform="matrix(1 -2.094389e-03 2.094389e-03 1 -0.2024 0.3865)" class="st2" width="18.9" height="117.8"/>
<rect x="133.1" y="52.3" transform="matrix(1 -2.096134e-03 2.096134e-03 1 -0.2032 0.307)" class="st11" width="26.6" height="89.5"/>
<path class="st12" d="M115.1,82.5c-4.3,0-7.8-3.5-7.8-7.8c0-4.3,3.5-7.8,7.8-7.8c4.3,0,7.8,3.5,7.8,7.8
	C122.9,79,119.4,82.5,115.1,82.5"/>
<path class="st13" d="M115.1,82.6c-4.3,0-7.8-3.5-7.8-7.8c0-4.3,3.5-7.8,7.8-7.8c4.3,0,7.8,3.5,7.8,7.8
	C122.9,79.1,119.4,82.6,115.1,82.6"/>
<rect x="106" y="72.8" transform="matrix(0.8437 -0.5368 0.5368 0.8437 -22.2155 73.1947)" class="st14" width="17.2" height="3.8"/>
<path class="st12" d="M115.2,104.7c-4.3,0-7.8-3.5-7.8-7.8s3.5-7.8,7.8-7.8s7.8,3.5,7.8,7.8c0,0,0,0,0,0
	C123,101.2,119.5,104.7,115.2,104.7"/>
<path class="st13" d="M115.2,104.8c-4.3,0-7.8-3.5-7.8-7.8s3.5-7.8,7.8-7.8s7.8,3.5,7.8,7.8c0,0,0,0,0,0
	C123,101.3,119.5,104.8,115.2,104.8"/>
<rect x="106" y="95" transform="matrix(0.8445 -0.5356 0.5356 0.8445 -34.0885 76.4838)" class="st14" width="17.2" height="3.8"/>
<path class="st12" d="M115.7,127.3c-4.3,0-7.8-3.5-7.8-7.8c0-4.3,3.5-7.8,7.8-7.8c4.3,0,7.8,3.5,7.8,7.8
	C123.5,123.8,120,127.3,115.7,127.3"/>
<path class="st13" d="M115.7,127.4c-4.3,0-7.8-3.5-7.8-7.8c0-4.3,3.5-7.8,7.8-7.8c4.3,0,7.8,3.5,7.8,7.8
	C123.5,123.9,120,127.4,115.7,127.4"/>
<rect x="106.6" y="117.6" transform="matrix(0.8441 -0.5362 0.5362 0.8441 -46.1181 80.4185)" class="st14" width="17.2" height="3.8"/>
<line class="st14" x1="103" y1="64.4" x2="103.1" y2="130.1"/>
<rect x="102.2" y="64.4" transform="matrix(1 -2.134531e-03 2.134531e-03 1 -0.2074 0.2202)" class="st15" width="1.6" height="65.7"/>
<line class="st14" x1="128.8" y1="64.4" x2="128.9" y2="130"/>
<rect x="128.1" y="64.4" transform="matrix(1 -2.134531e-03 2.134531e-03 1 -0.2072 0.2753)" class="st15" width="1.6" height="65.7"/>
<path class="st11" d="M94.9,79.1c-0.2,0-0.3,0.1-0.5,0.1h-0.1v-0.6c0.2-0.1,0.5-0.1,0.7-0.1c-0.3-0.2-0.5-0.5-0.6-0.7
	c-0.2-0.3-0.2-0.7-0.2-1c0-0.3,0.1-0.6,0.2-0.9c0.2-0.5,0.7-0.8,1.3-0.8c0.3,0,0.6,0.1,0.9,0.3c0.3,0.2,0.5,0.5,0.6,0.8
	c0.1,0.4,0.2,0.8,0.2,1.3l0,1.1l0.6,0c0.3,0,0.7-0.1,0.9-0.4c0.2-0.3,0.3-0.6,0.3-1c0-0.2,0-0.5-0.1-0.7c-0.1-0.2-0.2-0.4-0.4-0.5
	c-0.2-0.1-0.3-0.2-0.5-0.2l0-0.6c0.3,0,0.5,0.1,0.8,0.3c0.3,0.2,0.5,0.4,0.6,0.7c0.2,0.3,0.2,0.7,0.2,1c0,0.3-0.1,0.7-0.2,1
	c-0.1,0.3-0.3,0.5-0.6,0.7c-0.3,0.2-0.6,0.3-0.9,0.2l-2.6,0C95.2,79.1,95.1,79.1,94.9,79.1z M95,77.9c0.2,0.3,0.4,0.5,0.8,0.7l1.2,0
	v-1c0-0.3,0-0.7-0.1-1c-0.1-0.2-0.2-0.5-0.4-0.7c-0.2-0.2-0.4-0.2-0.6-0.2c-0.2,0-0.4,0.1-0.5,0.2c-0.2,0.1-0.3,0.2-0.4,0.4
	c-0.1,0.2-0.1,0.4-0.1,0.6C94.7,77.2,94.8,77.5,95,77.9z"/>
<path class="st11" d="M94.8,74.3l-0.5,0l0-3.7v-0.4l7.1,0v0.6l-6.6,0L94.8,74.3z"/>
<path class="st11" d="M94.4,99.1l6.1-4.1l-6.1,0v-0.6l7.1,0V95l-6.1,4.1l6.1,0v0.6l-7.1,0L94.4,99.1z"/>
<path class="st11" d="M99.5,123.3c-0.2,0.3-0.6,0.6-0.9,0.7c-0.5,0.2-0.9,0.3-1.4,0.2H97c-0.5,0-1-0.1-1.4-0.2
	c-0.4-0.1-0.7-0.4-0.9-0.7c-0.2-0.3-0.3-0.7-0.3-1.1c0-0.3,0.1-0.7,0.2-1c0.1-0.3,0.3-0.5,0.6-0.7l-0.7,0V120l7.5,0v0.6l-3,0
	c0.3,0.2,0.5,0.4,0.6,0.7c0.2,0.3,0.2,0.6,0.2,1C99.8,122.6,99.7,122.9,99.5,123.3z M97.1,123.6c0.6,0,1.1-0.1,1.6-0.4
	c0.4-0.3,0.6-0.7,0.6-1.2c0-0.4-0.1-0.7-0.3-1c-0.2-0.3-0.5-0.4-0.8-0.6l-2.4,0c-0.3,0.1-0.5,0.3-0.7,0.6c-0.2,0.3-0.3,0.6-0.3,1
	c0,0.3,0.1,0.6,0.3,0.9c0.2,0.2,0.5,0.4,0.8,0.5c0.4,0.1,0.7,0.2,1.1,0.2L97.1,123.6z"/>
<path class="st11" d="M94.9,118.9l-0.5,0l0-3.7v-0.4l7.1,0v0.6l-6.6,0L94.9,118.9z"/>
<rect x="107.3" y="73.6" transform="matrix(0.7071 -0.7071 0.7071 0.7071 -19.1998 103.3194)" class="st16" width="15.6" height="2.5"/>
<rect x="107.4" y="95.8" transform="matrix(0.7071 -0.7071 0.7071 0.7071 -34.873 109.8498)" class="st16" width="15.6" height="2.5"/>
<rect x="107.9" y="118.3" transform="matrix(0.7071 -0.7071 0.7071 0.7071 -50.6661 116.8552)" class="st16" width="15.6" height="2.5"/>
</svg>
