<svg version="1.1" id="Layer_1" xmlns="http://www.w3.org/2000/svg" xmlns:xlink="http://www.w3.org/1999/xlink" x="0" y="0" viewBox="0 0 416.8 196" xml:space="preserve"><style>.st0{fill:#e9262a}.st2{fill:#363435}.st3{fill:#2c2929}.st4{fill:#505052}.st8{fill:#ac6b29}.st10{fill:#a6a7aa}.st11{fill:#9c9ea1}.st12{fill:#bd994d}.st13{fill:#857033}.st14{fill:none}.st15{fill:#5a5a5c}.st16{fill:#665429}</style><path class="st0" d="M0 70.5h177.9v6.4H0z"/><path transform="rotate(-89.326 73.686 96.666) scale(.99997)" fill="#221f1f" d="M70.5 23h6.4v147.3h-6.4z"/><path class="st0" d="M95.5 127.5c-.7 0-1.4-.2-2-.7-12.4-9.9-18.6-20-18.5-30.2.1-10 6.3-19.8 18.5-29.3 1.4-1.1 3.4-.8 4.5.6s.8 3.4-.6 4.5c-10.5 8.2-15.9 16.3-16 24.2-.1 8.1 5.4 16.5 16.1 25.1 1.4 1.1 1.6 3.1.5 4.5-.6.8-1.5 1.3-2.5 1.3z"/><path transform="translate(-.207 .24)" class="st2" d="M91.9 64.4H133v65.7H91.9z"/><path class="st3" d="M334.5.7L239 1l.4 192.1 95.5-.3"/><path class="st4" d="M239 17.6l-7.1.1.3 158.7h7.1"/><path fill="#965e25" d="M319.9 192.9L319.5.8l15-.1.4 192.1z"/><defs><path id="SVGID_1_" d="M334.5.8l.4 192.1h14.8l62.6-34.5c2.2-1 3.8-3 4.4-5.3l-.2-111.9c-.7-2.9-2.5-5.3-5-7L350 .7l-15.5.1z"/></defs><clipPath id="SVGID_2_"><use xlink:href="#SVGID_1_" overflow="visible"/></clipPath><g clip-path="url(#SVGID_2_)"><path d="M334.5.7H350l61.6 33.4c2.4 1.6 4.2 4.1 5 7l.2 111.9c-.6 2.3-2.2 4.3-4.4 5.3l-62.6 34.5H335L334.5.7z" fill="#f59222"/><path class="st8" d="M345.8 20.7l-2.6-4.4 2.6-4.5h5.1l2.6 4.4-2.6 4.5h-5.1zm-.7-4.5l1.6 2.8h3.3l1.6-2.9-1.7-2.8h-3.3l-1.5 2.9zM345.9 33.1l-2.6-4.4 2.6-4.5h5.1l2.6 4.5-2.6 4.5-5.1-.1zm-.8-4.5l1.7 2.8h3.3l1.6-2.9-1.6-2.8h-3.3l-1.7 2.9zM345.9 45.6l-2.6-4.4 2.6-4.5h5.1l2.6 4.5-2.6 4.5-5.1-.1zm-.7-4.5l1.6 2.8h3.3l1.6-2.9-1.7-2.8h-3.3l-1.5 2.9zM345.9 58l-2.6-4.4 2.6-4.5h5.1l2.6 4.5-2.6 4.5-5.1-.1zm-.7-4.5l1.6 2.8h3.3l1.6-2.9-1.7-2.8h-3.3l-1.5 2.9z"/><path class="st8" d="M345.8 20.7l-2.6-4.4 2.6-4.5h5.1l2.6 4.4-2.6 4.5h-5.1zm-.7-4.5l1.6 2.8h3.3l1.6-2.9-1.7-2.8h-3.3l-1.5 2.9zM345.9 33.1l-2.6-4.4 2.6-4.5h5.1l2.6 4.5-2.6 4.5-5.1-.1zm-.8-4.5l1.7 2.8h3.3l1.6-2.9-1.6-2.8h-3.3l-1.7 2.9zM345.9 45.6l-2.6-4.4 2.6-4.5h5.1l2.6 4.5-2.6 4.5-5.1-.1zm-.7-4.5l1.6 2.8h3.3l1.6-2.9-1.7-2.8h-3.3l-1.5 2.9zM345.9 58l-2.6-4.4 2.6-4.5h5.1l2.6 4.5-2.6 4.5-5.1-.1zm-.7-4.5l1.6 2.8h3.3l1.6-2.9-1.7-2.8h-3.3l-1.5 2.9zM345.9 70.2l-2.6-4.4 2.6-4.5h5.1l2.6 4.5-2.6 4.5-5.1-.1zm-.7-4.4l1.7 2.8h3.3l1.6-2.9-1.6-2.8h-3.3l-1.7 2.9zM346 82.6l-2.6-4.5 2.6-4.5h5.1l2.6 4.4-2.6 4.5-5.1.1zm-.8-4.4l1.7 2.8h3.3l1.6-2.9-1.7-2.8h-3.3l-1.6 2.9zM346 95.2l-2.6-4.4 2.6-4.5h5.1l2.6 4.5-2.6 4.5-5.1-.1zm-.7-4.5l1.6 2.8h3.3l1.6-2.9-1.7-2.8h-3.3l-1.5 2.9zM346 107.6l-2.6-4.4 2.6-4.5h5.1l2.6 4.4-2.6 4.5H346zm-.7-4.5l1.7 2.8h3.3l1.6-2.9-1.6-2.8H347l-1.7 2.9zM346 119.3l-2.6-4.4 2.6-4.5h5.1l2.6 4.4-2.6 4.5H346zm-.7-4.5l1.6 2.8h3.3l1.6-2.9-1.7-2.8h-3.3l-1.5 2.9zM346.1 131.7l-2.6-4.4 2.6-4.5h5.1l2.6 4.4-2.6 4.5h-5.1zm-.8-4.5l1.7 2.8h3.3l1.6-2.9-1.6-2.8H347l-1.7 2.9zM346.1 144.2l-2.6-4.5 2.6-4.5h5.1l2.6 4.4-2.6 4.5-5.1.1zm-.7-4.4l1.6 2.8h3.3l1.6-2.9-1.7-2.8h-3.3l-1.5 2.9zM346.1 156.6l-2.6-4.4 2.6-4.5h5.1l2.6 4.5-2.6 4.5-5.1-.1zm-.7-4.4l1.6 2.8h3.3l1.6-2.9-1.7-2.8h-3.3l-1.5 2.9zM346.1 168.2l-2.6-4.5 2.6-4.5h5.1l2.6 4.5-2.6 4.5h-5.1zm-.7-4.4l1.6 2.8h3.3l1.6-2.9-1.7-2.8h-3.3l-1.5 2.9zM346.2 180.6l-2.6-4.5 2.6-4.5h5.1l2.6 4.4-2.6 4.5-5.1.1zm-.8-4.4l1.6 2.8h3.3l1.6-2.9-1.7-2.8h-3.3l-1.5 2.9zM346.2 193.1l-2.6-4.5 2.6-4.5h5.1l2.6 4.4-2.6 4.5-5.1.1zm-.7-4.4l1.7 2.8h3.3l1.6-2.9-1.6-2.8h-3.3l-1.7 2.9zM345.8 8.9l-2.6-4.5 2.6-4.5h5.1l2.6 4.4-2.5 4.6h-5.2zm-.7-4.4l1.7 2.8h3.3l1.6-2.9-1.7-2.8h-3.3l-1.6 2.9zM335.4 48.5l-2.6-4.4 2.6-4.5h5.1l2.6 4.4-2.6 4.5h-5.1zm-.7-4.4l1.6 2.8h3.3l1.6-2.9-1.7-2.8h-3.3l-1.5 2.9zM335.5 60.9l-2.6-4.4 2.6-4.5h5.1l2.6 4.5-2.6 4.5-5.1-.1zm-.8-4.4l1.7 2.8h3.3l1.6-2.9-1.6-2.8h-3.3l-1.7 2.9zM335.5 73.4l-2.6-4.4 2.6-4.5h5.1l2.6 4.4-2.6 4.5h-5.1zm-.7-4.4l1.7 2.8h3.3l1.6-2.9-1.7-2.8h-3.3l-1.6 2.9zM335.5 85.8l-2.6-4.4 2.6-4.5h5.1l2.6 4.5-2.6 4.5-5.1-.1zm-.7-4.4l1.6 2.8h3.3l1.6-2.9-1.7-2.8h-3.3l-1.5 2.9z"/><path class="st8" d="M335.4 48.5l-2.6-4.4 2.6-4.5h5.1l2.6 4.4-2.6 4.5h-5.1zm-.7-4.4l1.6 2.8h3.3l1.6-2.9-1.7-2.8h-3.3l-1.5 2.9zM335.5 60.9l-2.6-4.4 2.6-4.5h5.1l2.6 4.5-2.6 4.5-5.1-.1zm-.8-4.4l1.7 2.8h3.3l1.6-2.9-1.6-2.8h-3.3l-1.7 2.9zM335.5 73.4l-2.6-4.4 2.6-4.5h5.1l2.6 4.4-2.6 4.5h-5.1zm-.7-4.4l1.7 2.8h3.3l1.6-2.9-1.7-2.8h-3.3l-1.6 2.9zM335.5 85.8l-2.6-4.4 2.6-4.5h5.1l2.6 4.5-2.6 4.5-5.1-.1zm-.7-4.4l1.6 2.8h3.3l1.6-2.9-1.7-2.8h-3.3l-1.5 2.9zM335.6 98.1l-2.6-4.4 2.6-4.5h5.1l2.6 4.4-2.6 4.5h-5.1zm-.8-4.5l1.6 2.8h3.3l1.6-2.9-1.7-2.8h-3.3l-1.5 2.9zM335.6 110.5L333 106l2.6-4.5h5.1l2.6 4.4-2.6 4.5-5.1.1zm-.7-4.5l1.7 2.8h3.3l1.6-2.9-1.6-2.8h-3.3l-1.7 2.9zM335.6 123l-2.6-4.4 2.6-4.5h5.1l2.6 4.4-2.6 4.5h-5.1zm-.7-4.5l1.6 2.8h3.3l1.6-2.9-1.7-2.8h-3.3l-1.5 2.9zM335.6 135.4L333 131l2.6-4.5h5.1l2.6 4.5-2.6 4.5-5.1-.1zm-.7-4.5l1.7 2.8h3.3l1.6-2.9-1.6-2.8h-3.3l-1.7 2.9zM335.7 147.1l-2.6-4.4 2.6-4.5h5.1l2.6 4.5-2.6 4.5-5.1-.1zm-.8-4.4l1.6 2.8h3.3l1.6-2.9-1.7-2.8h-3.3l-1.5 2.9zM335.7 159.5l-2.6-4.4 2.6-4.5h5.1l2.6 4.5-2.6 4.5-5.1-.1zm-.7-4.4l1.7 2.8h3.3l1.6-2.9-1.6-2.8h-3.3l-1.7 2.9zM335.7 172l-2.6-4.4 2.6-4.5h5.1l2.6 4.5-2.6 4.5-5.1-.1zm-.7-4.4l1.6 2.8h3.3l1.6-2.9-1.7-2.8h-3.3l-1.5 2.9zM335.7 184.4l-2.6-4.4 2.6-4.5h5.1l2.6 4.5-2.6 4.5-5.1-.1zm-.7-4.4l1.6 2.8h3.3l1.6-2.9-1.7-2.8h-3.3L335 180zM335.8 196l-2.6-4.4 2.6-4.5h5.1l2.6 4.4-2.6 4.5h-5.1zm-.8-4.4l1.7 2.8h3.3l1.6-2.9-1.7-2.8h-3.3l-1.6 2.9zM335.4 11.9l-2.6-4.4 2.6-4.5h5.1l2.6 4.4-2.6 4.5h-5.1zm-.8-4.5l1.7 2.8h3.3l1.6-2.9-1.6-2.8h-3.3l-1.7 2.9zM335.4 24.4l-2.6-4.5 2.6-4.5h5.1l2.6 4.4-2.6 4.5-5.1.1zm-.7-4.5l1.6 2.8h3.3l1.6-2.9-1.7-2.8h-3.3l-1.5 2.9zM335.4 36.8l-2.6-4.4 2.6-4.5h5.1l2.6 4.5-2.6 4.5-5.1-.1zm-.7-4.5l1.7 2.8h3.3l1.6-2.9-1.6-2.8h-3.3l-1.7 2.9zM366.7 21.2l-2.6-4.4 2.6-4.5h5.1l2.6 4.5-2.6 4.5-5.1-.1zm-.7-4.4l1.7 2.8h3.3l1.6-2.9-1.6-2.8h-3.3l-1.7 2.9zM366.8 33.6l-2.6-4.4 2.6-4.5h5.1l2.6 4.5-2.6 4.5-5.1-.1zm-.8-4.4l1.6 2.8h3.3l1.6-2.9-1.7-2.8h-3.3l-1.5 2.9zM366.8 46.1l-2.6-4.4 2.6-4.5h5.1l2.6 4.5-2.6 4.5-5.1-.1zm-.7-4.4l1.7 2.8h3.3l1.6-2.9-1.6-2.8h-3.3l-1.7 2.9zM366.8 58.5l-2.6-4.4 2.6-4.5h5.1l2.6 4.5-2.6 4.5-5.1-.1zm-.7-4.4l1.7 2.8h3.3l1.6-2.9-1.6-2.8h-3.3l-1.7 2.9z"/><path class="st8" d="M366.7 21.2l-2.6-4.4 2.6-4.5h5.1l2.6 4.5-2.6 4.5-5.1-.1zm-.7-4.4l1.7 2.8h3.3l1.6-2.9-1.6-2.8h-3.3l-1.7 2.9zM366.8 33.6l-2.6-4.4 2.6-4.5h5.1l2.6 4.5-2.6 4.5-5.1-.1zm-.8-4.4l1.6 2.8h3.3l1.6-2.9-1.7-2.8h-3.3l-1.5 2.9zM366.8 46.1l-2.6-4.4 2.6-4.5h5.1l2.6 4.5-2.6 4.5-5.1-.1zm-.7-4.4l1.7 2.8h3.3l1.6-2.9-1.6-2.8h-3.3l-1.7 2.9zM366.8 58.5l-2.6-4.4 2.6-4.5h5.1l2.6 4.5-2.6 4.5-5.1-.1zm-.7-4.4l1.7 2.8h3.3l1.6-2.9-1.6-2.8h-3.3l-1.7 2.9zM366.8 70.8l-2.6-4.5 2.6-4.5h5.1l2.6 4.4-2.6 4.5-5.1.1zm-.7-4.5l1.6 2.8h3.3l1.6-2.9-1.7-2.8h-3.3l-1.5 2.9zM366.9 83.2l-2.6-4.4 2.6-4.5h5.1l2.6 4.4-2.6 4.5h-5.1zm-.8-4.5l1.6 2.8h3.3l1.6-2.9-1.7-2.8h-3.3l-1.5 2.9zM366.9 95.7l-2.6-4.4 2.6-4.5h5.1l2.6 4.4-2.6 4.5h-5.1zm-.7-4.5l1.7 2.8h3.3l1.6-2.9-1.6-2.8h-3.3l-1.7 2.9zM366.9 108.1l-2.6-4.4 2.6-4.5h5.1l2.6 4.5-2.6 4.5-5.1-.1zm-.7-4.5l1.6 2.8h3.3l1.6-2.9-1.7-2.8h-3.3l-1.5 2.9zM366.9 119.8l-2.6-4.4 2.6-4.5h5.1l2.6 4.4-2.6 4.5h-5.1zm-.7-4.4l1.7 2.8h3.3l1.6-2.9-1.6-2.8h-3.3l-1.7 2.9zM367 132.2l-2.6-4.4 2.6-4.5h5.1l2.6 4.5-2.6 4.5-5.1-.1zm-.8-4.4l1.6 2.8h3.3l1.6-2.9-1.7-2.8h-3.3l-1.5 2.9zM367 144.7l-2.6-4.4 2.6-4.5h5.1l2.6 4.4-2.6 4.5H367zm-.7-4.4l1.7 2.8h3.3l1.6-2.9-1.6-2.8H368l-1.7 2.9zM367 157.1l-2.6-4.4 2.6-4.5h5.1l2.6 4.5-2.6 4.5-5.1-.1zm-.7-4.4l1.7 2.8h3.3l1.6-2.9-1.7-2.8h-3.3l-1.6 2.9zM367 168.7l-2.6-4.5 2.6-4.5h5.1l2.6 4.4-2.6 4.5-5.1.1zm-.7-4.4l1.7 2.8h3.3l1.6-2.9-1.6-2.8H368l-1.7 2.9zM367.1 181.1l-2.6-4.5 2.6-4.5h5.1l2.6 4.4-2.6 4.5-5.1.1zm-.8-4.4l1.7 2.8h3.3l1.6-2.9-1.6-2.8H368l-1.7 2.9zM356.3 49.1l-2.6-4.4 2.6-4.5h5.1l2.6 4.5-2.6 4.5-5.1-.1zm-.7-4.5l1.7 2.8h3.3l1.6-2.9-1.6-2.8h-3.3l-1.7 2.9zM356.4 61.5l-2.6-4.5 2.6-4.5h5.1l2.6 4.5-2.6 4.5h-5.1zm-.8-4.5l1.6 2.8h3.3l1.6-2.9-1.7-2.8h-3.3l-1.5 2.9zM356.4 74l-2.6-4.5 2.6-4.5h5.1l2.6 4.5-2.6 4.5h-5.1zm-.7-4.5l1.6 2.8h3.3l1.6-2.9-1.7-2.8h-3.3l-1.5 2.9zM356.4 86.4l-2.6-4.4 2.6-4.5h5.1l2.6 4.4-2.6 4.5h-5.1zm-.7-4.5l1.7 2.8h3.3l1.6-2.9-1.6-2.8h-3.3l-1.7 2.9z"/><path class="st8" d="M356.3 49.1l-2.6-4.4 2.6-4.5h5.1l2.6 4.5-2.6 4.5-5.1-.1zm-.7-4.5l1.7 2.8h3.3l1.6-2.9-1.6-2.8h-3.3l-1.7 2.9zM356.4 61.5l-2.6-4.5 2.6-4.5h5.1l2.6 4.5-2.6 4.5h-5.1zm-.8-4.5l1.6 2.8h3.3l1.6-2.9-1.7-2.8h-3.3l-1.5 2.9zM356.4 74l-2.6-4.5 2.6-4.5h5.1l2.6 4.5-2.6 4.5h-5.1zm-.7-4.5l1.6 2.8h3.3l1.6-2.9-1.7-2.8h-3.3l-1.5 2.9zM356.4 86.4l-2.6-4.4 2.6-4.5h5.1l2.6 4.4-2.6 4.5h-5.1zm-.7-4.5l1.7 2.8h3.3l1.6-2.9-1.6-2.8h-3.3l-1.7 2.9zM356.4 98.6l-2.6-4.4 2.6-4.5h5.1l2.6 4.4-2.6 4.5h-5.1zm-.7-4.4l1.7 2.8h3.3l1.6-2.9-1.7-2.8h-3.3l-1.6 2.9zM356.5 111l-2.6-4.4 2.6-4.5h5.1l2.6 4.5-2.6 4.5-5.1-.1zm-.8-4.4l1.6 2.8h3.3l1.6-2.9-1.7-2.8h-3.3l-1.5 2.9zM356.5 123.5l-2.6-4.4 2.6-4.5h5.1l2.6 4.5-2.6 4.5-5.1-.1zm-.7-4.4l1.7 2.8h3.3l1.6-2.9-1.6-2.8h-3.3l-1.7 2.9zM356.5 135.9l-2.6-4.4 2.6-4.5h5.1l2.6 4.5-2.6 4.5-5.1-.1zm-.7-4.4l1.6 2.8h3.3l1.6-2.9-1.7-2.8h-3.3l-1.5 2.9zM356.6 147.7l-2.6-4.4 2.6-4.5h5.1l2.6 4.5-2.6 4.5-5.1-.1zm-.8-4.5l1.7 2.8h3.3l1.6-2.9-1.6-2.8h-3.3l-1.7 2.9zM356.6 160.1l-2.6-4.5 2.6-4.5h5.1l2.6 4.4-2.6 4.5-5.1.1zm-.8-4.5l1.6 2.8h3.3l1.6-2.9-1.7-2.8h-3.3l-1.5 2.9zM356.6 172.6l-2.6-4.4 2.6-4.5h5.1l2.6 4.5-2.6 4.5-5.1-.1zm-.7-4.5l1.7 2.8h3.3l1.6-2.9-1.6-2.8h-3.3l-1.7 2.9zM356.6 185l-2.6-4.5 2.6-4.5h5.1l2.6 4.4-2.6 4.5-5.1.1zm-.7-4.5l1.7 2.8h3.3l1.6-2.9-1.6-2.8h-3.3l-1.7 2.9zM356.3 12.4L353.7 8l2.6-4.5h5.1L364 8l-2.6 4.5-5.1-.1zm-.8-4.5l1.6 2.8h3.3l1.6-2.9-1.7-2.8H357l-1.5 2.9zM356.3 24.9l-2.6-4.4 2.6-4.5h5.1l2.6 4.5-2.6 4.5-5.1-.1zm-.7-4.5l1.7 2.8h3.3l1.6-2.9-1.6-2.8h-3.3l-1.7 2.9zM356.3 37.3l-2.6-4.4 2.6-4.5h5.1l2.6 4.5-2.6 4.5-5.1-.1zm-.7-4.5l1.7 2.8h3.3l1.6-2.9-1.7-2.8h-3.3l-1.6 2.9zM387.6 33.3l-2.6-4.4 2.6-4.5h5.1l2.6 4.5-2.6 4.5-5.1-.1zm-.7-4.5l1.7 2.8h3.3l1.6-2.9-1.6-2.8h-3.3l-1.7 2.9zM387.7 45.8l-2.6-4.4 2.6-4.5h5.1l2.6 4.5-2.6 4.5-5.1-.1zm-.8-4.5l1.6 2.8h3.3l1.6-2.9-1.7-2.8h-3.3l-1.5 2.9zM387.7 58.2l-2.6-4.4 2.6-4.5h5.1l2.6 4.5-2.6 4.5-5.1-.1zm-.7-4.5l1.7 2.8h3.3l1.6-2.9-1.6-2.8h-3.3l-1.7 2.9z"/><path class="st8" d="M387.6 33.3l-2.6-4.4 2.6-4.5h5.1l2.6 4.5-2.6 4.5-5.1-.1zm-.7-4.5l1.7 2.8h3.3l1.6-2.9-1.6-2.8h-3.3l-1.7 2.9zM387.7 45.8l-2.6-4.4 2.6-4.5h5.1l2.6 4.5-2.6 4.5-5.1-.1zm-.8-4.5l1.6 2.8h3.3l1.6-2.9-1.7-2.8h-3.3l-1.5 2.9zM387.7 58.2l-2.6-4.4 2.6-4.5h5.1l2.6 4.5-2.6 4.5-5.1-.1zm-.7-4.5l1.7 2.8h3.3l1.6-2.9-1.6-2.8h-3.3l-1.7 2.9zM387.7 70.4l-2.6-4.4 2.6-4.5h5.1l2.6 4.4-2.6 4.5h-5.1zM387 66l1.7 2.8h3.3l1.6-2.9-1.6-2.8h-3.3L387 66zM387.8 82.8l-2.6-4.5 2.6-4.5h5.1l2.6 4.4-2.6 4.5-5.1.1zm-.8-4.4l1.6 2.8h3.3l1.6-2.9-1.7-2.8h-3.3l-1.5 2.9zM387.8 95.4l-2.6-4.5 2.6-4.5h5.1l2.6 4.4-2.6 4.5-5.1.1zm-.7-4.5l1.7 2.8h3.3l1.6-2.9L392 88h-3.3l-1.6 2.9zM387.8 107.8l-2.6-4.4 2.6-4.5h5.1l2.6 4.4-2.6 4.5h-5.1zm-.7-4.5l1.7 2.8h3.3l1.6-2.9-1.6-2.8h-3.3l-1.7 2.9zM387.8 119.5l-2.6-4.4 2.6-4.5h5.1l2.6 4.4-2.6 4.5h-5.1zm-.7-4.4l1.7 2.8h3.3l1.6-2.9-1.6-2.8h-3.3l-1.7 2.9zM387.9 131.9l-2.6-4.4 2.6-4.5h5.1l2.6 4.5-2.6 4.5-5.1-.1zm-.8-4.4l1.7 2.8h3.3l1.6-2.9-1.6-2.8h-3.3l-1.7 2.9zM387.9 144.4l-2.6-4.4 2.6-4.5h5.1l2.6 4.4-2.6 4.5h-5.1zm-.7-4.4l1.6 2.8h3.3l1.6-2.9-1.7-2.8h-3.3l-1.5 2.9zM387.9 156.8l-2.6-4.5 2.6-4.5h5.1l2.6 4.5-2.6 4.5h-5.1zm-.7-4.4l1.7 2.8h3.3l1.6-2.9-1.6-2.8h-3.3l-1.7 2.9zM387.9 168.4l-2.6-4.5 2.6-4.5h5.1l2.6 4.5-2.6 4.5h-5.1zm-.7-4.4l1.6 2.8h3.3l1.6-2.9-1.7-2.8h-3.3l-1.5 2.9zM377.2 48.7l-2.6-4.5 2.6-4.5h5.1l2.6 4.4-2.6 4.5-5.1.1zm-.7-4.4l1.6 2.8h3.3l1.6-2.9-1.7-2.8H378l-1.5 2.9zM377.3 61.1l-2.6-4.4 2.6-4.5h5.1l2.6 4.5-2.6 4.5-5.1-.1zm-.8-4.4l1.7 2.8h3.3l1.6-2.9-1.6-2.8h-3.3l-1.7 2.9zM377.3 73.6l-2.6-4.4 2.6-4.5h5.1l2.6 4.4-2.6 4.5h-5.1zm-.7-4.4l1.6 2.8h3.3l1.6-2.9-1.7-2.8h-3.3l-1.5 2.9zM377.3 86l-2.6-4.4 2.6-4.5h5.1l2.6 4.5-2.6 4.5-5.1-.1zm-.7-4.4l1.6 2.8h3.3l1.6-2.9-1.7-2.8h-3.3l-1.5 2.9z"/><path class="st8" d="M377.2 48.7l-2.6-4.5 2.6-4.5h5.1l2.6 4.4-2.6 4.5-5.1.1zm-.7-4.4l1.6 2.8h3.3l1.6-2.9-1.7-2.8H378l-1.5 2.9zM377.3 61.1l-2.6-4.4 2.6-4.5h5.1l2.6 4.5-2.6 4.5-5.1-.1zm-.8-4.4l1.7 2.8h3.3l1.6-2.9-1.6-2.8h-3.3l-1.7 2.9zM377.3 73.6l-2.6-4.4 2.6-4.5h5.1l2.6 4.4-2.6 4.5h-5.1zm-.7-4.4l1.6 2.8h3.3l1.6-2.9-1.7-2.8h-3.3l-1.5 2.9zM377.3 86l-2.6-4.4 2.6-4.5h5.1l2.6 4.5-2.6 4.5-5.1-.1zm-.7-4.4l1.6 2.8h3.3l1.6-2.9-1.7-2.8h-3.3l-1.5 2.9zM377.3 98.3l-2.6-4.4 2.6-4.5h5.1l2.6 4.4-2.6 4.5h-5.1zm-.7-4.5l1.7 2.8h3.3l1.6-2.9-1.6-2.8h-3.3l-1.7 2.9zM377.4 110.7l-2.6-4.4 2.6-4.5h5.1l2.6 4.4-2.6 4.5h-5.1zm-.8-4.5l1.7 2.8h3.3l1.6-2.9-1.7-2.8h-3.3l-1.6 2.9zM377.4 123.2l-2.6-4.4 2.6-4.5h5.1l2.6 4.4-2.6 4.5h-5.1zm-.7-4.5l1.6 2.8h3.3l1.6-2.9-1.7-2.8h-3.3l-1.5 2.9zM377.4 135.6l-2.6-4.4 2.6-4.5h5.1l2.6 4.4-2.6 4.5h-5.1zm-.7-4.5l1.7 2.8h3.3l1.6-2.9-1.6-2.8h-3.3l-1.7 2.9zM377.4 147.3l-2.6-4.5 2.6-4.5h5.1l2.6 4.5-2.6 4.5h-5.1zm-.7-4.4l1.6 2.8h3.3l1.6-2.9-1.7-2.8h-3.3l-1.5 2.9zM377.5 159.7l-2.6-4.4 2.6-4.5h5.1l2.6 4.4-2.6 4.5h-5.1zm-.8-4.4l1.7 2.8h3.3l1.6-2.9-1.6-2.8h-3.3l-1.7 2.9zM377.5 172.3l-2.6-4.4 2.6-4.5h5.1l2.6 4.5-2.6 4.5-5.1-.1zm-.7-4.5l1.6 2.8h3.3l1.6-2.9-1.7-2.8h-3.3l-1.5 2.9zM377.2 24.6l-2.6-4.4 2.6-4.5h5.1l2.6 4.4-2.6 4.5h-5.1zm-.7-4.5l1.6 2.8h3.3L383 20l-1.7-2.8H378l-1.5 2.9zM377.2 37l-2.6-4.4 2.6-4.5h5.1l2.6 4.5-2.6 4.5-5.1-.1zm-.7-4.5l1.7 2.8h3.3l1.6-2.9-1.6-2.8h-3.3l-1.7 2.9zM408.6 46.3l-2.6-4.4 2.6-4.5h5.1l2.6 4.5-2.6 4.5-5.1-.1zm-.8-4.4l1.7 2.8h3.3l1.6-2.9-1.6-2.8h-3.3l-1.7 2.9zM408.6 58.7l-2.6-4.4 2.6-4.5h5.1l2.6 4.4-2.6 4.5h-5.1zm-.7-4.4l1.6 2.8h3.3l1.6-2.9-1.7-2.8h-3.3l-1.5 2.9z"/><path class="st8" d="M408.6 46.3l-2.6-4.4 2.6-4.5h5.1l2.6 4.5-2.6 4.5-5.1-.1zm-.8-4.4l1.7 2.8h3.3l1.6-2.9-1.6-2.8h-3.3l-1.7 2.9zM408.6 58.7l-2.6-4.4 2.6-4.5h5.1l2.6 4.4-2.6 4.5h-5.1zm-.7-4.4l1.6 2.8h3.3l1.6-2.9-1.7-2.8h-3.3l-1.5 2.9zM408.6 71l-2.6-4.5 2.6-4.5h5.1l2.6 4.4-2.6 4.5-5.1.1zm-.7-4.5l1.6 2.8h3.3l1.6-2.9-1.7-2.8h-3.3l-1.5 2.9zM408.6 83.4L406 79l2.6-4.5h5.1l2.6 4.4-2.6 4.5h-5.1zm-.7-4.5l1.7 2.8h3.3l1.6-2.9-1.6-2.8h-3.3l-1.7 2.9zM408.7 95.9l-2.6-4.4 2.6-4.5h5.1l2.6 4.4-2.6 4.5h-5.1zm-.8-4.5l1.7 2.8h3.3l1.6-2.9-1.7-2.8h-3.3l-1.6 2.9zM408.7 108.3l-2.6-4.4 2.6-4.5h5.1l2.6 4.5-2.6 4.5-5.1-.1zm-.7-4.5l1.6 2.8h3.3l1.6-2.9-1.7-2.8h-3.3l-1.5 2.9zM408.7 120l-2.6-4.4 2.6-4.5h5.1l2.6 4.5-2.6 4.5-5.1-.1zm-.7-4.4l1.6 2.8h3.3l1.6-2.9-1.7-2.8h-3.3l-1.5 2.9zM408.8 132.4l-2.6-4.4 2.6-4.5h5.1l2.6 4.5-2.6 4.5-5.1-.1zm-.8-4.4l1.6 2.8h3.3l1.6-2.9-1.7-2.8h-3.3L408 128zM408.8 145l-2.6-4.4 2.6-4.5h5.1l2.6 4.5-2.6 4.5-5.1-.1zm-.8-4.5l1.7 2.8h3.3l1.6-2.9-1.6-2.8h-3.3l-1.7 2.9zM408.8 157.4l-2.6-4.4 2.6-4.5h5.1l2.6 4.5-2.6 4.5-5.1-.1zm-.7-4.5l1.6 2.8h3.3l1.6-2.9-1.6-2.8h-3.3l-1.6 2.9zM398.1 49.3l-2.6-4.4 2.6-4.5h5.1l2.6 4.5-2.6 4.5-5.1-.1zm-.7-4.5l1.7 2.8h3.3l1.6-2.9-1.7-2.8H399l-1.6 2.9zM398.2 61.7l-2.6-4.4 2.6-4.5h5.1l2.6 4.5-2.6 4.5-5.1-.1zm-.8-4.5L399 60h3.3l1.6-2.9-1.7-2.8h-3.3l-1.5 2.9zM398.2 74.2l-2.6-4.5 2.6-4.5h5.1l2.6 4.5-2.6 4.5h-5.1zm-.7-4.5l1.7 2.8h3.3l1.6-2.9-1.6-2.8h-3.3l-1.7 2.9zM398.2 86.6l-2.6-4.4 2.6-4.5h5.1l2.6 4.4-2.6 4.5h-5.1zm-.7-4.5l1.7 2.8h3.3l1.6-2.9-1.7-2.8h-3.3l-1.6 2.9z"/><path class="st8" d="M398.1 49.3l-2.6-4.4 2.6-4.5h5.1l2.6 4.5-2.6 4.5-5.1-.1zm-.7-4.5l1.7 2.8h3.3l1.6-2.9-1.7-2.8H399l-1.6 2.9zM398.2 61.7l-2.6-4.4 2.6-4.5h5.1l2.6 4.5-2.6 4.5-5.1-.1zm-.8-4.5L399 60h3.3l1.6-2.9-1.7-2.8h-3.3l-1.5 2.9zM398.2 74.2l-2.6-4.5 2.6-4.5h5.1l2.6 4.5-2.6 4.5h-5.1zm-.7-4.5l1.7 2.8h3.3l1.6-2.9-1.6-2.8h-3.3l-1.7 2.9zM398.2 86.6l-2.6-4.4 2.6-4.5h5.1l2.6 4.4-2.6 4.5h-5.1zm-.7-4.5l1.7 2.8h3.3l1.6-2.9-1.7-2.8h-3.3l-1.6 2.9zM398.2 98.8l-2.6-4.5 2.6-4.5h5.1l2.6 4.4-2.6 4.5-5.1.1zm-.7-4.4l1.6 2.8h3.3l1.6-2.9-1.7-2.8H399l-1.5 2.9zM398.3 111.2l-2.6-4.4 2.6-4.5h5.1l2.6 4.5-2.6 4.5-5.1-.1zm-.8-4.4l1.6 2.8h3.3l1.6-2.9-1.7-2.8H399l-1.5 2.9zM398.3 123.7l-2.6-4.4 2.6-4.5h5.1l2.6 4.4-2.6 4.5h-5.1zm-.7-4.4l1.7 2.8h3.3l1.6-2.9-1.7-2.8h-3.3l-1.6 2.9zM398.3 136.1l-2.6-4.4 2.6-4.5h5.1l2.6 4.5-2.6 4.5-5.1-.1zm-.7-4.4l1.6 2.8h3.3l1.6-2.9-1.7-2.8h-3.3l-1.5 2.9zM398.3 147.9l-2.6-4.4 2.6-4.5h5.1l2.6 4.4-2.6 4.5h-5.1zm-.7-4.5l1.7 2.8h3.3l1.6-2.9-1.7-2.8h-3.3l-1.6 2.9zM398.4 160.3l-2.6-4.4 2.6-4.5h5.1l2.6 4.5-2.6 4.5-5.1-.1zm-.8-4.5l1.6 2.8h3.3l1.6-2.9-1.7-2.8h-3.3l-1.5 2.9zM398.1 37.5l-2.6-4.4 2.6-4.5h5.1l2.6 4.5-2.6 4.5-5.1-.1zm-.7-4.4l1.6 2.8h3.3L404 33l-1.7-2.8H399l-1.6 2.9z"/></g><g opacity=".57"><path class="st10" d="M261.7 164l-6.1-3.8h-4.8v-1.4h4.6l6.3-3.9v1.6l-4.9 3 4.9 3v1.5zM250.8 154.4v-7.2h10.9v7.2h-1.3v-5.7h-3v5.7h-1.3v-5.7h-4v5.7h-1.3zM250.7 145.6v-6.9h10.9v1.4H252v5.4l-1.3.1zM256.2 136.3c-.9 0-1.9-.2-2.7-.6-.8-.4-1.4-1-1.9-1.7-.3-.5-.5-1.1-.7-1.7-.2-.8-.2-1.6-.2-2.4v-2.8h10.9v2.7c0 .9-.1 1.7-.2 2.5-.1.6-.3 1.1-.6 1.6-.5.7-1.1 1.3-1.8 1.7-.9.6-1.9.8-2.8.7zm0-1.5c.7 0 1.5-.1 2.2-.5.6-.3 1.1-.8 1.4-1.3.2-.4.4-.9.5-1.4.1-.6.1-1.2.1-1.7v-1.4H252v1.4c0 .6 0 1.2.2 1.8.1.5.3 1 .6 1.4.3.5.8 1 1.4 1.2.5.4 1.3.6 2 .5zM250.7 124.5V123l3-1.1v-4.7l-3-1.1v-1.5l10.9 3.9v1.9l-10.9 4.1zm4.3-3l5.3-1.9-5.4-1.9.1 3.8z"/><path class="st10" d="M250.7 115v-1.9l4.3-3.7v-2h-4.3V106h10.9v3.1c0 .6 0 1.1-.1 1.6-.1.4-.2.8-.5 1.2-.2.4-.6.7-.9.9-.4.2-.9.4-1.4.3-.7 0-1.4-.2-2-.6-.5-.4-1-1-1.2-1.6l-4.8 4.1zm7.8-3.4c.3 0 .6-.1.8-.2.3-.1.5-.3.6-.5.1-.2.2-.5.3-.7.1-.3.1-.7.1-1v-1.7h-4.1v1.5c0 .4 0 .8.1 1.2.1.3.2.6.4.9.2.2.4.4.7.5h1.1zM254 104.1c-.5 0-1-.1-1.4-.3-.4-.2-.8-.5-1-.8-.3-.4-.6-.9-.7-1.3-.2-.6-.2-1.2-.2-1.9v-3.9h10.9v3.2c0 .6 0 1.2-.1 1.8-.1.4-.2.8-.4 1.1-.2.4-.5.7-.8.9-.4.2-.8.3-1.2.3-.5 0-.9-.1-1.3-.4-.4-.3-.7-.6-.9-1.1h-.1c-.1.7-.5 1.3-1 1.7-.4.5-1.1.8-1.8.7zm-.1-1.5c.4 0 .7-.1 1-.2.3-.2.5-.4.7-.7.1-.3.2-.6.2-.9 0-.4.1-.8.1-1.2v-2.3h-4.1v1.9c0 .5 0 1 .1 1.6 0 .4.2.7.4 1 .2.2.4.5.7.6.3.2.6.2.9.2zm5-.9c.2 0 .5 0 .7-.1.2-.1.3-.2.4-.4.1-.3.2-.5.2-.8v-2.9h-3.1v1.9c0 .4 0 .7.1 1.1 0 .3.1.5.3.7.1.2.3.4.6.5h.8zM254.7 90.6V86h1.3v4.6h-1.3zM250.6 83v-1.8l9.7-5.2h-9.7v-1.4h10.9v2.2l-8.9 4.7h8.9v1.4l-10.9.1zM250.6 72.8v-7.2h10.9v7.2h-1.3v-5.7h-3v5.7h-1.3v-5.7h-4v5.7h-1.3zM250.6 64.1v-6.9h10.9v1.4h-9.6V64l-1.3.1zM250.6 55.6v-6.9h10.9v1.4h-9.6v5.4l-1.3.1zM250.5 46.1v-1.5l3-1.1v-4.7l-3-1.1v-1.5l10.9 3.9V42l-10.9 4.1zm4.3-3.1l5.3-1.9-5.4-1.9.1 3.8z"/></g><path transform="translate(-.21 .434)" class="st3" d="M159.6 49.8h74.7v92h-74.7z"/><path transform="translate(-.203 .424)" class="st4" d="M193.9 34.6h16.4V159h-16.4z"/><path transform="translate(-.202 .387)" class="st2" d="M175 37.9h18.9v117.8H175z"/><path transform="translate(-.203 .307)" class="st11" d="M133.1 52.3h26.6v89.5h-26.6z"/><path class="st12" d="M115.1 82.5c-4.3 0-7.8-3.5-7.8-7.8s3.5-7.8 7.8-7.8 7.8 3.5 7.8 7.8-3.5 7.8-7.8 7.8"/><path class="st13" d="M115.1 82.6c-4.3 0-7.8-3.5-7.8-7.8s3.5-7.8 7.8-7.8 7.8 3.5 7.8 7.8-3.5 7.8-7.8 7.8"/><path transform="rotate(-32.467 114.589 74.75)" class="st14" d="M106 72.8h17.2v3.8H106z"/><path class="st12" d="M115.2 104.7c-4.3 0-7.8-3.5-7.8-7.8s3.5-7.8 7.8-7.8 7.8 3.5 7.8 7.8-3.5 7.8-7.8 7.8"/><path class="st13" d="M115.2 104.8c-4.3 0-7.8-3.5-7.8-7.8s3.5-7.8 7.8-7.8 7.8 3.5 7.8 7.8-3.5 7.8-7.8 7.8"/><path transform="rotate(-32.382 114.658 96.934)" class="st14" d="M106 95h17.2v3.8H106z"/><path class="st12" d="M115.7 127.3c-4.3 0-7.8-3.5-7.8-7.8s3.5-7.8 7.8-7.8 7.8 3.5 7.8 7.8-3.5 7.8-7.8 7.8"/><path class="st13" d="M115.7 127.4c-4.3 0-7.8-3.5-7.8-7.8s3.5-7.8 7.8-7.8 7.8 3.5 7.8 7.8-3.5 7.8-7.8 7.8"/><path transform="rotate(-32.424 115.23 119.512)" class="st14" d="M106.6 117.6h17.2v3.8h-17.2z"/><path class="st14" d="M103 64.4l.1 65.7"/><path transform="translate(-.207 .22)" class="st15" d="M102.2 64.4h1.6v65.7h-1.6z"/><path class="st14" d="M128.8 64.4l.1 65.6"/><path transform="translate(-.207 .275)" class="st15" d="M128.1 64.4h1.6v65.7h-1.6z"/><path class="st11" d="M94.9 79.1c-.2 0-.3.1-.5.1h-.1v-.6c.2-.1.5-.1.7-.1-.3-.2-.5-.5-.6-.7-.2-.3-.2-.7-.2-1 0-.3.1-.6.2-.9.2-.5.7-.8 1.3-.8.3 0 .6.1.9.3.3.2.5.5.6.8.1.4.2.8.2 1.3v1.1h.6c.3 0 .7-.1.9-.4.2-.3.3-.6.3-1 0-.2 0-.5-.1-.7-.1-.2-.2-.4-.4-.5-.2-.1-.3-.2-.5-.2v-.6c.3 0 .5.1.8.3.3.2.5.4.6.7.2.3.2.7.2 1 0 .3-.1.7-.2 1-.1.3-.3.5-.6.7-.3.2-.6.3-.9.2h-3.2zm.1-1.2c.2.3.4.5.8.7H97v-1c0-.3 0-.7-.1-1-.1-.2-.2-.5-.4-.7-.2-.2-.4-.2-.6-.2-.2 0-.4.1-.5.2-.2.1-.3.2-.4.4-.1.2-.1.4-.1.6-.2.3-.1.6.1 1zM94.8 74.3h-.5V70.2h7.1v.6h-6.6v3.5zM94.4 99.1l6.1-4.1h-6.1v-.6h7.1v.6l-6.1 4.1h6.1v.6h-7.1v-.6zM99.5 123.3c-.2.3-.6.6-.9.7-.5.2-.9.3-1.4.2H97c-.5 0-1-.1-1.4-.2-.4-.1-.7-.4-.9-.7-.2-.3-.3-.7-.3-1.1 0-.3.1-.7.2-1 .1-.3.3-.5.6-.7h-.7v-.5h7.5v.6h-3c.3.2.5.4.6.7.2.3.2.6.2 1 0 .3-.1.6-.3 1zm-2.4.3c.6 0 1.1-.1 1.6-.4.4-.3.6-.7.6-1.2 0-.4-.1-.7-.3-1-.2-.3-.5-.4-.8-.6h-2.4c-.3.1-.5.3-.7.6-.2.3-.3.6-.3 1 0 .3.1.6.3.9.2.2.5.4.8.5.4.1.7.2 1.1.2h.1zM94.9 118.9h-.5V114.8h7.1v.6h-6.6v3.5z"/><path transform="rotate(-45.001 115.117 74.838)" class="st16" d="M107.3 73.6h15.6v2.5h-15.6z"/><path transform="rotate(-45.001 115.163 97.022)" class="st16" d="M107.4 95.8H123v2.5h-15.6z"/><path transform="rotate(-45.001 115.723 119.589)" class="st16" d="M107.9 118.3h15.6v2.5h-15.6z"/></svg>