<svg id="Layer_1" data-name="Layer 1" xmlns="http://www.w3.org/2000/svg" xmlns:xlink="http://www.w3.org/1999/xlink" viewBox="0 0 266.4947 156.9626"><defs><style>.cls-1,.cls-12,.cls-13,.cls-17,.cls-20,.cls-4,.cls-5,.cls-6,.cls-7,.cls-9{fill:none;}.cls-2{clip-path:url(#clip-path);}.cls-3{font-size:10px;fill:#231f20;}.cls-10,.cls-11,.cls-14,.cls-15,.cls-3{font-family:Verdana;}.cls-12,.cls-17,.cls-4{stroke:gray;}.cls-12,.cls-4,.cls-5,.cls-6,.cls-7{stroke-linejoin:round;}.cls-4,.cls-5{stroke-width:1.2px;}.cls-13,.cls-20,.cls-5,.cls-6,.cls-7{stroke:#000;}.cls-12,.cls-6,.cls-7{stroke-linecap:round;}.cls-12,.cls-6{stroke-width:0.48px;}.cls-13,.cls-17,.cls-7,.cls-9{stroke-width:0.24px;}.cls-8{fill:#fff;}.cls-9{stroke:#fff;}.cls-13,.cls-17,.cls-9{stroke-miterlimit:10;}.cls-10{font-size:6px;}.cls-11{font-size:9.84px;}.cls-14{font-size:5.2848px;}.cls-15{font-size:8.667px;}.cls-16{fill:red;}.cls-18{fill:#8c9091;}.cls-19{fill:#00953b;}</style><clipPath id="clip-path"><rect class="cls-1" width="266.4947" height="156.9626"/></clipPath></defs><g class="cls-2"><rect class="cls-1" x="-32963.0855" y="-32155.4283" width="65536" height="65536"/><rect class="cls-1" x="-32963.0855" y="-32155.4283" width="65536" height="65536"/><text class="cls-3" transform="translate(188.6743 146.7694)">LED Indicator</text><line class="cls-4" x1="56.1143" y1="82.6918" x2="56.1143" y2="81.2518"/><line class="cls-4" x1="57.7945" y1="84.3724" x2="70.0345" y2="84.3724"/><line class="cls-5" x1="56.1143" y1="14.5321" x2="56.1143" y2="11.8921"/><path class="cls-5" d="M48.6744,32.2919a9.1051,9.1051,0,0,1,7.44-4.08,8.6434,8.6434,0,0,1,0,17.28,8.7706,8.7706,0,0,1-7.44-4.32"/><rect class="cls-1" x="-21.9255" y="4.5317" width="270.32" height="129.68"/><line class="cls-6" x1="46.6343" y1="45.8519" x2="46.8743" y2="27.612"/><line class="cls-6" x1="65.1143" y1="45.8519" x2="65.1143" y2="27.612"/><line class="cls-6" x1="46.6343" y1="45.8519" x2="65.1143" y2="45.8519"/><line class="cls-6" x1="46.6343" y1="27.6117" x2="65.1143" y2="27.6117"/><line class="cls-7" x1="47.4747" y1="45.4921" x2="47.4747" y2="28.2121"/><line class="cls-7" x1="64.5147" y1="45.4921" x2="64.7547" y2="28.2121"/><line class="cls-7" x1="47.4747" y1="45.4921" x2="64.5147" y2="45.4921"/><line class="cls-7" x1="47.4747" y1="28.2117" x2="64.5147" y2="28.2117"/><line class="cls-6" x1="46.6343" y1="45.8519" x2="46.8743" y2="27.612"/><line class="cls-6" x1="65.1143" y1="45.8519" x2="65.1143" y2="27.612"/><line class="cls-6" x1="46.6343" y1="45.8519" x2="65.1143" y2="45.8519"/><line class="cls-6" x1="46.6343" y1="27.6117" x2="65.1143" y2="27.6117"/><rect class="cls-8" x="53.1145" y="25.4517" width="5.52" height="4.8"/><rect class="cls-9" x="53.2345" y="25.5719" width="5.52" height="4.8"/><rect class="cls-8" x="51.9145" y="14.4117" width="7.92" height="11.04"/><rect class="cls-9" x="52.0345" y="14.5319" width="7.92" height="11.04"/><line class="cls-7" x1="47.4747" y1="67.5717" x2="47.4747" y2="50.5317"/><line class="cls-7" x1="64.5147" y1="67.5717" x2="64.7547" y2="50.5317"/><line class="cls-7" x1="47.4747" y1="67.5717" x2="64.5147" y2="67.8117"/><line class="cls-7" x1="47.4747" y1="50.5321" x2="64.5147" y2="50.5321"/><line class="cls-7" x1="161.7149" y1="45.4921" x2="161.9539" y2="28.2121"/><line class="cls-7" x1="178.9942" y1="45.4921" x2="179.2342" y2="28.2121"/><line class="cls-7" x1="161.7149" y1="45.4921" x2="178.9939" y2="45.4921"/><line class="cls-7" x1="161.7149" y1="28.2117" x2="178.9939" y2="28.2117"/><line class="cls-7" x1="161.7149" y1="67.5717" x2="161.9539" y2="50.5317"/><line class="cls-7" x1="178.9942" y1="67.5717" x2="179.2342" y2="50.5317"/><line class="cls-7" x1="161.7149" y1="67.5717" x2="178.9939" y2="67.8117"/><line class="cls-7" x1="161.7149" y1="50.5321" x2="178.9939" y2="50.5321"/><line class="cls-6" x1="161.1143" y1="68.1718" x2="161.1143" y2="49.6918"/><line class="cls-6" x1="179.5948" y1="68.1718" x2="179.5948" y2="49.6918"/><line class="cls-6" x1="161.1143" y1="68.1718" x2="179.5943" y2="68.1718"/><line class="cls-6" x1="161.1143" y1="49.6918" x2="179.5943" y2="49.6918"/><line class="cls-6" x1="161.1143" y1="68.1718" x2="161.1143" y2="49.6918"/><line class="cls-6" x1="179.5948" y1="68.1718" x2="179.5948" y2="49.6918"/><line class="cls-6" x1="161.1143" y1="68.1718" x2="179.5943" y2="68.1718"/><line class="cls-6" x1="161.1143" y1="49.6918" x2="179.5943" y2="49.6918"/><rect class="cls-8" x="177.6745" y="54.4917" width="7.199" height="8.88"/><rect class="cls-9" x="177.7945" y="54.6119" width="7.199" height="8.88"/><line class="cls-6" x1="161.1143" y1="45.8519" x2="161.1143" y2="27.612"/><line class="cls-6" x1="179.5948" y1="45.8519" x2="179.5948" y2="27.612"/><line class="cls-6" x1="161.1143" y1="45.8519" x2="179.5943" y2="45.8519"/><line class="cls-6" x1="161.1143" y1="27.6117" x2="179.5943" y2="27.6117"/><line class="cls-6" x1="161.1143" y1="45.8519" x2="161.1143" y2="27.612"/><line class="cls-6" x1="179.5948" y1="45.8519" x2="179.5948" y2="27.612"/><line class="cls-6" x1="161.1143" y1="45.8519" x2="179.5943" y2="45.8519"/><line class="cls-6" x1="161.1143" y1="27.6117" x2="179.5943" y2="27.6117"/><rect class="cls-8" x="177.6745" y="32.1716" width="7.199" height="8.88"/><rect class="cls-9" x="177.7945" y="32.2919" width="7.199" height="8.88"/><line class="cls-6" x1="46.6343" y1="68.1718" x2="46.8743" y2="49.6918"/><line class="cls-6" x1="65.1143" y1="68.1718" x2="65.1143" y2="49.6918"/><line class="cls-6" x1="46.6343" y1="68.1718" x2="65.1143" y2="68.1718"/><line class="cls-6" x1="46.6343" y1="49.6918" x2="65.1143" y2="49.6918"/><line class="cls-6" x1="46.6343" y1="68.1718" x2="46.8743" y2="49.6918"/><line class="cls-6" x1="65.1143" y1="68.1718" x2="65.1143" y2="49.6918"/><line class="cls-6" x1="46.6343" y1="68.1718" x2="65.1143" y2="68.1718"/><line class="cls-6" x1="46.6343" y1="49.6918" x2="65.1143" y2="49.6918"/><rect class="cls-8" x="41.3545" y="54.4917" width="7.2" height="8.88"/><rect class="cls-9" x="41.4745" y="54.6119" width="7.2" height="8.88"/><rect class="cls-8" x="41.3545" y="32.1716" width="7.2" height="8.88"/><rect class="cls-9" x="41.4745" y="32.2919" width="7.2" height="8.88"/><polyline class="cls-6" points="44.955 10.572 43.035 10.812 41.355 11.532 39.915 12.492 38.955 13.932 38.235 15.612 37.995 17.532"/><polyline class="cls-6" points="188.234 17.532 187.994 15.612 187.274 13.932 186.314 12.492 184.874 11.532 183.194 10.812 181.274 10.572"/><line class="cls-6" x1="44.9546" y1="10.5717" x2="181.2746" y2="10.5717"/><path class="cls-6" d="M185.3545,17.5321a3.9992,3.9992,0,0,1-4.08,3.84,3.7909,3.7909,0,0,1-3.84-3.84,3.9992,3.9992,0,0,1,3.84-4.08,4.2057,4.2057,0,0,1,4.08,4.08"/><rect class="cls-1" x="-21.9255" y="4.5317" width="270.32" height="129.68"/><polyline class="cls-6" points="44.955 10.572 43.035 10.812 41.355 11.532 39.915 12.492 38.955 13.932 38.235 15.612 37.995 17.532"/><polyline class="cls-6" points="188.234 17.532 187.994 15.612 187.274 13.932 186.314 12.492 184.874 11.532 183.194 10.812 181.274 10.572"/><line class="cls-6" x1="44.9546" y1="10.5717" x2="181.2746" y2="10.5717"/><polyline class="cls-6" points="37.995 126.012 38.235 127.692 38.955 129.612 39.915 130.812 41.355 132.012 43.035 132.732 44.955 132.972"/><polyline class="cls-6" points="181.274 132.972 183.194 132.732 184.874 132.012 186.314 130.812 187.274 129.612 187.994 127.692 188.234 126.012"/><path class="cls-6" d="M48.7945,126.0121h0a3.84,3.84,0,1,1-3.84-3.841,3.7909,3.7909,0,0,1,3.84,3.841"/><rect class="cls-1" x="-21.9255" y="4.5317" width="270.32" height="129.68"/><line class="cls-6" x1="44.9546" y1="132.9721" x2="181.2746" y2="132.9721"/><polyline class="cls-6" points="37.995 126.012 38.235 127.692 38.955 129.612 39.915 130.812 41.355 132.012 43.035 132.732 44.955 132.972"/><polyline class="cls-6" points="181.274 132.972 183.194 132.732 184.874 132.012 186.314 130.812 187.274 129.612 187.994 127.692 188.234 126.012"/><line class="cls-6" x1="44.9546" y1="132.9721" x2="181.2746" y2="132.9721"/><path class="cls-6" d="M175.0342,116.892h0a5.4305,5.4305,0,0,1-5.52,5.52,5.525,5.525,0,1,1,0-11.04,5.4305,5.4305,0,0,1,5.52,5.52"/><rect class="cls-1" x="-21.9255" y="4.5317" width="270.32" height="129.68"/><line class="cls-6" x1="52.6343" y1="33.1318" x2="54.5543" y2="32.1718"/><line class="cls-6" x1="59.3545" y1="33.372" x2="60.5545" y2="35.292"/><line class="cls-6" x1="57.1944" y1="41.2919" x2="59.1144" y2="40.0919"/><line class="cls-6" x1="51.4346" y1="38.1718" x2="52.3946" y2="39.8518"/><line class="cls-6" x1="52.3946" y1="39.8519" x2="54.0746" y2="38.892"/><line class="cls-6" x1="56.4747" y1="39.6117" x2="57.1947" y2="41.2917"/><path class="cls-6" d="M54.0743,39.1318c.24-.24.48-.24.96-.24a2.0744,2.0744,0,0,1,1.44.72"/><rect class="cls-1" x="-21.9255" y="4.5317" width="270.32" height="129.68"/><line class="cls-6" x1="58.1543" y1="38.6518" x2="59.1143" y2="40.0918"/><line class="cls-6" x1="58.8746" y1="36.2518" x2="60.5546" y2="35.2919"/><path class="cls-6" d="M58.1543,38.6518c0-.24-.24-.72-.24-.96a1.9733,1.9733,0,0,1,.96-1.44"/><rect class="cls-1" x="-21.9255" y="4.5317" width="270.32" height="129.68"/><line class="cls-6" x1="57.9146" y1="34.332" x2="59.3546" y2="33.372"/><line class="cls-6" x1="54.5547" y1="32.1718" x2="55.5147" y2="33.6118"/><path class="cls-6" d="M57.9146,34.332a1.88,1.88,0,0,1-2.4-.48"/><rect class="cls-1" x="-21.9255" y="4.5317" width="270.32" height="129.68"/><line class="cls-6" x1="52.6343" y1="33.1318" x2="53.5943" y2="34.8118"/><line class="cls-6" x1="51.4346" y1="38.1718" x2="52.8746" y2="37.2118"/><path class="cls-6" d="M53.5943,34.8118c.24.24.24.48.24.96a1.7107,1.7107,0,0,1-.72,1.44"/><rect class="cls-1" x="-21.9255" y="4.5317" width="270.32" height="129.68"/><line class="cls-6" x1="52.6343" y1="55.452" x2="54.5543" y2="54.4921"/><line class="cls-6" x1="59.3545" y1="55.6918" x2="60.5545" y2="57.6118"/><line class="cls-6" x1="57.1944" y1="63.6117" x2="59.1144" y2="62.4117"/><line class="cls-6" x1="51.4346" y1="60.2518" x2="52.3946" y2="62.1719"/><line class="cls-6" x1="52.3946" y1="62.1718" x2="54.0746" y2="61.2118"/><line class="cls-6" x1="56.4747" y1="61.9321" x2="57.1947" y2="63.6121"/><path class="cls-6" d="M54.0743,61.2117c.24,0,.48-.24.96-.24s.96.48,1.44.96"/><rect class="cls-1" x="-21.9255" y="4.5317" width="270.32" height="129.68"/><line class="cls-6" x1="58.1543" y1="60.9721" x2="59.1143" y2="62.4121"/><line class="cls-6" x1="58.8746" y1="58.5717" x2="60.5546" y2="57.6117"/><path class="cls-6" d="M58.1543,60.7319c0-.24-.24-.48-.24-.72a1.62,1.62,0,0,1,.96-1.44"/><rect class="cls-1" x="-21.9255" y="4.5317" width="270.32" height="129.68"/><line class="cls-6" x1="57.9146" y1="56.6518" x2="59.3546" y2="55.6918"/><line class="cls-6" x1="54.5547" y1="54.4921" x2="55.5147" y2="55.9321"/><path class="cls-6" d="M57.9146,56.6518a1.8142,1.8142,0,0,1-.96.24,1.316,1.316,0,0,1-1.44-.96"/><rect class="cls-1" x="-21.9255" y="4.5317" width="270.32" height="129.68"/><line class="cls-6" x1="52.6343" y1="55.452" x2="53.5943" y2="57.1321"/><line class="cls-6" x1="51.4346" y1="60.2518" x2="52.8746" y2="59.2919"/><path class="cls-6" d="M53.5943,57.1318a.8817.8817,0,0,1,.24.72,2.1788,2.1788,0,0,1-.72,1.68"/><rect class="cls-1" x="-21.9255" y="4.5317" width="270.32" height="129.68"/><line class="cls-6" x1="167.1143" y1="55.452" x2="169.0343" y2="54.4921"/><line class="cls-6" x1="173.834" y1="55.6918" x2="174.795" y2="57.6118"/><line class="cls-6" x1="171.6749" y1="63.6117" x2="173.5949" y2="62.4117"/><line class="cls-6" x1="165.9141" y1="60.2518" x2="166.8741" y2="62.1719"/><line class="cls-6" x1="166.8741" y1="62.1718" x2="168.5551" y2="61.2118"/><line class="cls-6" x1="170.7149" y1="61.9321" x2="171.6749" y2="63.6121"/><path class="cls-6" d="M168.5547,61.2117c.24,0,.479-.24.72-.24a1.6217,1.6217,0,0,1,1.44.96"/><rect class="cls-1" x="-21.9255" y="4.5317" width="270.32" height="129.68"/><line class="cls-6" x1="172.6348" y1="60.9721" x2="173.5948" y2="62.4121"/><line class="cls-6" x1="173.3545" y1="58.5717" x2="174.7945" y2="57.6117"/><path class="cls-6" d="M172.6348,60.9721a1.8142,1.8142,0,0,1-.24-.96,1.316,1.316,0,0,1,.96-1.44"/><rect class="cls-1" x="-21.9255" y="4.5317" width="270.32" height="129.68"/><line class="cls-6" x1="172.1543" y1="56.6518" x2="173.8343" y2="55.6918"/><line class="cls-6" x1="169.0342" y1="54.4921" x2="169.7552" y2="55.9321"/><path class="cls-6" d="M172.1543,56.6518a.8807.8807,0,0,1-.72.24,1.81,1.81,0,0,1-1.679-.96"/><rect class="cls-1" x="-21.9255" y="4.5317" width="270.32" height="129.68"/><line class="cls-6" x1="167.1143" y1="55.452" x2="168.0743" y2="57.1321"/><line class="cls-6" x1="165.9141" y1="60.2518" x2="167.3541" y2="59.2919"/><path class="cls-6" d="M168.0743,57.1318c0,.24.24.48.24.72a2.4293,2.4293,0,0,1-.96,1.68"/><path class="cls-6" d="M177.1944,59.0522a6.96,6.96,0,1,1-6.96-6.96,6.965,6.965,0,0,1,6.96,6.96"/><rect class="cls-1" x="-21.9255" y="4.5317" width="270.32" height="129.68"/><line class="cls-6" x1="167.1143" y1="33.1318" x2="169.0343" y2="32.1718"/><line class="cls-6" x1="173.834" y1="33.372" x2="174.795" y2="35.292"/><line class="cls-6" x1="171.6749" y1="41.2919" x2="173.5949" y2="40.0919"/><line class="cls-6" x1="165.9141" y1="38.1718" x2="166.8741" y2="39.8518"/><line class="cls-6" x1="166.8741" y1="39.8519" x2="168.5551" y2="38.892"/><line class="cls-6" x1="170.7149" y1="39.6117" x2="171.6749" y2="41.2917"/><path class="cls-6" d="M168.5547,39.1318a.8807.8807,0,0,1,.72-.24,1.4521,1.4521,0,0,1,1.44.72"/><rect class="cls-1" x="-21.9255" y="4.5317" width="270.32" height="129.68"/><line class="cls-6" x1="172.6348" y1="38.6518" x2="173.5948" y2="40.0918"/><line class="cls-6" x1="173.3545" y1="36.2518" x2="174.7945" y2="35.2919"/><path class="cls-6" d="M172.6348,38.6518c-.24-.24-.24-.48-.24-.96a1.4925,1.4925,0,0,1,.96-1.44"/><rect class="cls-1" x="-21.9255" y="4.5317" width="270.32" height="129.68"/><line class="cls-6" x1="172.1543" y1="34.332" x2="173.8343" y2="33.372"/><line class="cls-6" x1="169.0342" y1="32.1718" x2="169.7552" y2="33.6118"/><path class="cls-6" d="M172.1543,34.332a.8807.8807,0,0,1-.72.24,2.1767,2.1767,0,0,1-1.679-.72"/><rect class="cls-1" x="-21.9255" y="4.5317" width="270.32" height="129.68"/><line class="cls-6" x1="167.1143" y1="33.1318" x2="168.0743" y2="34.8118"/><line class="cls-6" x1="165.9141" y1="38.1718" x2="167.3541" y2="37.2118"/><path class="cls-6" d="M168.0743,34.8118c0,.24.24.48.24.96a1.9735,1.9735,0,0,1-.96,1.44"/><path class="cls-6" d="M177.1944,36.7319a6.96,6.96,0,1,1-6.96-6.96,6.965,6.965,0,0,1,6.96,6.96"/><rect class="cls-1" x="-21.9255" y="4.5317" width="270.32" height="129.68"/><text class="cls-10" transform="translate(57.1928 120.2514)">C</text><text class="cls-11" transform="translate(61.5258 120.2514)"> </text><rect class="cls-1" x="57.1945" y="114.7327" width="4.32" height="6.719"/><text class="cls-10" transform="translate(51.6733 120.2514)">B</text><text class="cls-11" transform="translate(55.6752 120.2514)"> </text><rect class="cls-1" x="51.6735" y="114.7327" width="4.081" height="6.719"/><text class="cls-10" transform="translate(165.6743 74.6508)">M</text><text class="cls-11" transform="translate(170.6752 74.6508)"> </text><rect class="cls-1" x="165.6755" y="69.1306" width="5.04" height="6.96"/><text class="cls-10" transform="translate(165.6743 25.6908)">M</text><text class="cls-11" transform="translate(170.6752 25.6908)"> </text><rect class="cls-1" x="165.6755" y="20.1707" width="5.04" height="6.96"/><line class="cls-7" x1="170.834" y1="72.3724" x2="174.675" y2="72.3724"/><line class="cls-7" x1="172.7549" y1="74.2924" x2="172.7549" y2="70.4524"/><line class="cls-7" x1="172.7549" y1="74.2924" x2="172.7549" y2="70.4524"/><line class="cls-7" x1="172.5147" y1="74.2924" x2="172.5147" y2="70.4524"/><line class="cls-7" x1="170.834" y1="72.3724" x2="174.675" y2="72.3724"/><line class="cls-7" x1="170.834" y1="72.6117" x2="174.675" y2="72.6117"/><line class="cls-7" x1="170.834" y1="23.4119" x2="174.675" y2="23.4119"/><line class="cls-7" x1="170.834" y1="23.4119" x2="174.675" y2="23.4119"/><line class="cls-7" x1="170.834" y1="23.6518" x2="174.675" y2="23.6518"/><path class="cls-6" d="M155.3545,118.5717h0a2.7737,2.7737,0,0,1-2.88,2.881,2.7255,2.7255,0,0,1-2.641-2.881,2.665,2.665,0,0,1,2.641-2.64,2.8825,2.8825,0,0,1,2.88,2.64"/><rect class="cls-1" x="-21.9255" y="4.5317" width="270.32" height="129.68"/><line class="cls-5" x1="41.4747" y1="32.2919" x2="48.6747" y2="32.5319"/><line class="cls-5" x1="41.4747" y1="41.1718" x2="48.6747" y2="41.4118"/><line class="cls-5" x1="19.3946" y1="30.6117" x2="41.4746" y2="30.6117"/><line class="cls-5" x1="19.3946" y1="42.8519" x2="41.4746" y2="43.092"/><line class="cls-5" x1="19.3946" y1="42.8519" x2="19.3946" y2="30.612"/><path class="cls-5" d="M48.6744,54.6117a8.5216,8.5216,0,1,1,0,8.88"/><rect class="cls-1" x="-21.9255" y="4.5317" width="270.32" height="129.68"/><line class="cls-5" x1="41.4747" y1="54.6117" x2="48.6747" y2="54.6117"/><line class="cls-5" x1="41.4747" y1="63.4921" x2="48.6747" y2="63.4921"/><line class="cls-5" x1="41.4747" y1="65.1718" x2="41.4747" y2="52.9318"/><line class="cls-5" x1="19.3946" y1="52.9321" x2="41.4746" y2="52.9321"/><line class="cls-5" x1="19.3946" y1="65.1718" x2="41.4746" y2="65.1718"/><line class="cls-5" x1="19.3946" y1="65.1718" x2="19.3946" y2="52.9318"/><path class="cls-5" d="M177.795,41.1718a8.6245,8.6245,0,1,1-7.44-12.96,9.1065,9.1065,0,0,1,7.44,4.08"/><rect class="cls-1" x="-21.9255" y="4.5317" width="270.32" height="129.68"/><line class="cls-5" x1="177.795" y1="32.2919" x2="184.994" y2="32.5319"/><line class="cls-5" x1="177.795" y1="41.1718" x2="184.994" y2="41.4118"/><line class="cls-5" x1="184.9942" y1="42.8519" x2="184.9942" y2="30.612"/><line class="cls-5" x1="184.9942" y1="30.6117" x2="207.0742" y2="30.6117"/><line class="cls-5" x1="184.9942" y1="42.8519" x2="207.0742" y2="43.092"/><line class="cls-5" x1="207.0743" y1="42.8519" x2="207.3143" y2="30.612"/><path class="cls-5" d="M177.795,63.4921a8.5459,8.5459,0,0,1-7.44,4.08,8.5208,8.5208,0,1,1,0-17.04,8.5459,8.5459,0,0,1,7.44,4.08"/><rect class="cls-1" x="-21.9255" y="4.5317" width="270.32" height="129.68"/><line class="cls-5" x1="177.795" y1="54.6117" x2="184.994" y2="54.6117"/><line class="cls-5" x1="177.795" y1="63.4921" x2="184.994" y2="63.4921"/><line class="cls-5" x1="184.9942" y1="65.1718" x2="184.9942" y2="52.9318"/><line class="cls-5" x1="184.9942" y1="52.9321" x2="207.0742" y2="52.9321"/><line class="cls-5" x1="184.9942" y1="65.1718" x2="207.0742" y2="65.1718"/><line class="cls-5" x1="207.0743" y1="65.1718" x2="207.3143" y2="52.9318"/><line class="cls-5" x1="41.4747" y1="42.8519" x2="41.4747" y2="30.612"/><line class="cls-6" x1="37.9947" y1="52.8118" x2="37.9947" y2="42.7319"/><line class="cls-6" x1="37.9947" y1="30.4921" x2="37.9947" y2="17.5321"/><line class="cls-6" x1="188.2344" y1="126.0121" x2="188.2344" y2="65.0521"/><line class="cls-6" x1="188.2344" y1="30.4921" x2="188.2344" y2="17.5321"/><line class="cls-6" x1="188.2344" y1="52.8118" x2="188.2344" y2="42.7319"/><line class="cls-12" x1="42.7945" y1="69.8519" x2="68.9545" y2="69.8519"/><polyline class="cls-12" points="76.154 14.652 74.474 14.892 72.794 15.372 71.354 16.572 70.154 18.012 69.434 19.692 69.194 21.612"/><line class="cls-12" x1="76.1543" y1="102.2514" x2="150.0743" y2="102.2514"/><polyline class="cls-12" points="150.074 102.251 151.755 102.012 153.434 101.292 154.874 100.091 156.074 98.651 156.795 96.972 157.034 95.292"/><line class="cls-12" x1="157.0342" y1="95.2924" x2="157.0342" y2="21.6114"/><line class="cls-12" x1="76.1543" y1="14.6518" x2="150.0743" y2="14.6518"/><polyline class="cls-12" points="157.034 21.612 156.795 19.692 156.074 18.012 154.874 16.572 153.434 15.372 151.755 14.892 150.074 14.652"/><line class="cls-12" x1="75.6744" y1="20.892" x2="77.1144" y2="19.932"/><line class="cls-12" x1="81.1944" y1="20.892" x2="81.9144" y2="22.572"/><line class="cls-12" x1="79.5147" y1="27.372" x2="80.9547" y2="26.412"/><line class="cls-12" x1="74.7144" y1="24.7319" x2="75.4344" y2="26.1719"/><line class="cls-12" x1="75.4346" y1="26.1718" x2="76.8746" y2="25.4518"/><line class="cls-12" x1="78.7945" y1="25.9321" x2="79.5145" y2="27.3721"/><path class="cls-12" d="M76.8746,25.452c.24,0,.48-.24.72-.24a2.0406,2.0406,0,0,1,1.2.72"/><rect class="cls-1" x="-21.9255" y="4.5317" width="270.32" height="129.68"/><line class="cls-12" x1="80.2344" y1="25.2117" x2="80.9544" y2="26.4118"/><line class="cls-12" x1="80.7144" y1="23.2919" x2="81.9144" y2="22.5719"/><path class="cls-12" d="M80.2344,25.2117a.8814.8814,0,0,1-.24-.72,1.32,1.32,0,0,1,.72-1.2"/><rect class="cls-1" x="-21.9255" y="4.5317" width="270.32" height="129.68"/><line class="cls-12" x1="79.7544" y1="21.8519" x2="81.1944" y2="20.892"/><line class="cls-12" x1="77.1143" y1="19.9321" x2="78.0743" y2="21.1321"/><path class="cls-12" d="M79.7544,21.8519h-.72a1.32,1.32,0,0,1-1.2-.72"/><rect class="cls-1" x="-21.9255" y="4.5317" width="270.32" height="129.68"/><line class="cls-12" x1="75.6744" y1="20.892" x2="76.3944" y2="22.092"/><line class="cls-12" x1="74.7144" y1="24.7319" x2="75.9144" y2="24.0119"/><path class="cls-12" d="M76.3946,22.0917a.8817.8817,0,0,1,.24.72,1.32,1.32,0,0,1-.72,1.2"/><path class="cls-12" d="M83.8345,23.5321h0a5.525,5.525,0,1,1-11.04,0,5.52,5.52,0,0,1,11.04,0"/><rect class="cls-1" x="-21.9255" y="4.5317" width="270.32" height="129.68"/><line class="cls-12" x1="145.2745" y1="20.892" x2="146.7145" y2="19.932"/><line class="cls-12" x1="150.795" y1="20.892" x2="151.515" y2="22.572"/><line class="cls-12" x1="149.1143" y1="27.372" x2="150.5543" y2="26.412"/><line class="cls-12" x1="144.3145" y1="24.7319" x2="145.0345" y2="26.1719"/><line class="cls-12" x1="145.0342" y1="26.1718" x2="146.4742" y2="25.4518"/><line class="cls-12" x1="148.3946" y1="25.9321" x2="149.1146" y2="27.3721"/><path class="cls-12" d="M146.4747,25.452c.24,0,.479-.24.72-.24a2.0406,2.0406,0,0,1,1.2.72"/><rect class="cls-1" x="-21.9255" y="4.5317" width="270.32" height="129.68"/><line class="cls-12" x1="149.834" y1="25.2117" x2="150.555" y2="26.4118"/><line class="cls-12" x1="150.3145" y1="23.2919" x2="151.5145" y2="22.5719"/><path class="cls-12" d="M149.834,25.2117a.8837.8837,0,0,1-.239-.72,1.3189,1.3189,0,0,1,.719-1.2"/><rect class="cls-1" x="-21.9255" y="4.5317" width="270.32" height="129.68"/><line class="cls-12" x1="149.3545" y1="21.8519" x2="150.7945" y2="20.892"/><line class="cls-12" x1="146.7149" y1="19.9321" x2="147.6749" y2="21.1321"/><path class="cls-12" d="M149.3545,21.8519h-.72a1.32,1.32,0,0,1-1.2-.72"/><rect class="cls-1" x="-21.9255" y="4.5317" width="270.32" height="129.68"/><line class="cls-12" x1="145.2745" y1="20.892" x2="145.9945" y2="22.092"/><line class="cls-12" x1="144.3145" y1="24.7319" x2="145.5145" y2="24.0119"/><path class="cls-12" d="M145.9942,22.0917a.8817.8817,0,0,1,.24.72,1.3207,1.3207,0,0,1-.719,1.2"/><path class="cls-12" d="M153.4346,23.5321h0a5.525,5.525,0,1,1-11.04,0,5.52,5.52,0,1,1,11.04,0"/><rect class="cls-1" x="-21.9255" y="4.5317" width="270.32" height="129.68"/><line class="cls-12" x1="145.2745" y1="90.4916" x2="146.7145" y2="89.5326"/><line class="cls-12" x1="150.795" y1="90.4916" x2="151.515" y2="92.1716"/><line class="cls-12" x1="149.1143" y1="96.9721" x2="150.5543" y2="96.0121"/><line class="cls-12" x1="144.3145" y1="94.3315" x2="145.0345" y2="95.7715"/><line class="cls-12" x1="145.0342" y1="95.7719" x2="146.4742" y2="95.0519"/><line class="cls-12" x1="148.3946" y1="95.5325" x2="149.1146" y2="96.9716"/><path class="cls-12" d="M146.4747,95.0522a.8807.8807,0,0,1,.72-.24,1.32,1.32,0,0,1,1.2.72"/><rect class="cls-1" x="-21.9255" y="4.5317" width="270.32" height="129.68"/><line class="cls-12" x1="149.834" y1="94.8118" x2="150.555" y2="96.0119"/><line class="cls-12" x1="150.3145" y1="92.892" x2="151.5145" y2="92.171"/><path class="cls-12" d="M149.834,94.8118a.8848.8848,0,0,1-.239-.7209,1.3185,1.3185,0,0,1,.719-1.199"/><rect class="cls-1" x="-21.9255" y="4.5317" width="270.32" height="129.68"/><line class="cls-12" x1="149.3545" y1="91.2123" x2="150.7945" y2="90.4913"/><line class="cls-12" x1="146.7149" y1="89.5325" x2="147.6749" y2="90.7316"/><path class="cls-12" d="M149.3545,91.4526h-.72a1.319,1.319,0,0,1-1.2-.721"/><rect class="cls-1" x="-21.9255" y="4.5317" width="270.32" height="129.68"/><line class="cls-12" x1="145.2745" y1="90.4916" x2="145.9945" y2="91.6916"/><line class="cls-12" x1="144.3145" y1="94.3315" x2="145.5145" y2="93.6115"/><path class="cls-12" d="M145.9942,91.6918a.8807.8807,0,0,1,.24.72,1.32,1.32,0,0,1-.719,1.2"/><path class="cls-12" d="M153.4346,93.1322h0a5.525,5.525,0,1,1-11.04,0,5.52,5.52,0,1,1,11.04,0"/><rect class="cls-1" x="-21.9255" y="4.5317" width="270.32" height="129.68"/><line class="cls-12" x1="75.6744" y1="90.4916" x2="77.1144" y2="89.5326"/><line class="cls-12" x1="81.1944" y1="90.4916" x2="81.9144" y2="92.1716"/><line class="cls-12" x1="79.5147" y1="96.9721" x2="80.9547" y2="96.0121"/><line class="cls-12" x1="74.7144" y1="94.3315" x2="75.4344" y2="95.7715"/><line class="cls-12" x1="75.4346" y1="95.7719" x2="76.8746" y2="95.0519"/><line class="cls-12" x1="78.7945" y1="95.5325" x2="79.5145" y2="96.9716"/><path class="cls-12" d="M76.8746,95.0522a.8817.8817,0,0,1,.72-.24,1.32,1.32,0,0,1,1.2.72"/><rect class="cls-1" x="-21.9255" y="4.5317" width="270.32" height="129.68"/><line class="cls-12" x1="80.2344" y1="94.8118" x2="80.9544" y2="96.0119"/><line class="cls-12" x1="80.7144" y1="92.892" x2="81.9144" y2="92.171"/><path class="cls-12" d="M80.2344,94.8118a.8824.8824,0,0,1-.24-.7209,1.3194,1.3194,0,0,1,.72-1.199"/><rect class="cls-1" x="-21.9255" y="4.5317" width="270.32" height="129.68"/><line class="cls-12" x1="79.7544" y1="91.2123" x2="81.1944" y2="90.4913"/><line class="cls-12" x1="77.1143" y1="89.5325" x2="78.0743" y2="90.7316"/><path class="cls-12" d="M79.7544,91.4526h-.48a1.45,1.45,0,0,1-1.44-.721"/><rect class="cls-1" x="-21.9255" y="4.5317" width="270.32" height="129.68"/><line class="cls-12" x1="75.6744" y1="90.4916" x2="76.3944" y2="91.6916"/><line class="cls-12" x1="74.7144" y1="94.3315" x2="75.9144" y2="93.6115"/><path class="cls-12" d="M76.3946,91.6918a.8807.8807,0,0,1,.24.72,1.3188,1.3188,0,0,1-.72,1.2"/><path class="cls-12" d="M83.8345,93.1322h0a5.525,5.525,0,1,1-11.04,0,5.52,5.52,0,1,1,11.04,0"/><rect class="cls-1" x="-21.9255" y="4.5317" width="270.32" height="129.68"/><polyline class="cls-12" points="69.194 69.852 69.194 69.852 68.954 69.852"/><line class="cls-12" x1="70.6343" y1="106.0912" x2="70.6343" y2="99.3722"/><line class="cls-12" x1="69.1944" y1="95.2924" x2="69.1944" y2="21.6114"/><polyline class="cls-12" points="69.194 95.292 69.434 96.972 70.154 98.651 71.354 100.091 72.794 101.292 74.474 102.012 76.154 102.251"/><path class="cls-12" d="M154.8741,58.332a41.76,41.76,0,1,1-41.76-41.76,41.7885,41.7885,0,0,1,41.76,41.76"/><path class="cls-12" d="M138.0743,58.332a24.96,24.96,0,1,1-24.96-24.96,24.9947,24.9947,0,0,1,24.96,24.96"/><rect class="cls-1" x="-21.9255" y="4.5317" width="270.32" height="129.68"/><line class="cls-12" x1="100.6343" y1="96.7319" x2="105.4343" y2="82.0909"/><line class="cls-12" x1="120.795" y1="34.5717" x2="125.595" y2="20.1717"/><line class="cls-12" x1="100.6343" y1="20.1718" x2="105.4343" y2="34.5718"/><line class="cls-12" x1="120.795" y1="82.0911" x2="125.595" y2="96.7322"/><line class="cls-12" x1="80.4747" y1="34.8118" x2="92.7147" y2="43.6919"/><line class="cls-12" x1="133.5147" y1="73.2123" x2="145.7547" y2="82.0913"/><line class="cls-12" x1="72.7945" y1="58.332" x2="88.1545" y2="58.572"/><line class="cls-12" x1="138.0743" y1="58.332" x2="153.4343" y2="58.572"/><line class="cls-12" x1="80.4747" y1="82.0911" x2="92.9547" y2="73.2122"/><line class="cls-12" x1="133.5147" y1="43.6918" x2="145.7547" y2="34.8118"/><path class="cls-12" d="M80.4747,34.8118a40.2744,40.2744,0,0,1,20.16-14.88"/><rect class="cls-1" x="-21.9255" y="4.5317" width="270.32" height="129.68"/><polyline class="cls-12" points="72.795 58.332 72.795 60.972 73.034 63.372 73.514 66.012 73.994 68.412 74.714 70.812 75.674 73.212 76.635 75.612 77.834 77.772 79.034 79.932 80.474 82.091"/><path class="cls-12" d="M125.5948,96.7319a36.7055,36.7055,0,0,1-12.48,1.92,37.6234,37.6234,0,0,1-12.48-1.92"/><rect class="cls-1" x="-21.9255" y="4.5317" width="270.32" height="129.68"/><polyline class="cls-12" points="145.755 82.091 147.194 79.932 148.395 77.772 149.595 75.612 150.555 73.212 151.515 70.812 152.234 68.412 152.715 66.012 153.194 63.372 153.435 60.972 153.435 58.332"/><path class="cls-12" d="M125.5948,19.9321a40.274,40.274,0,0,1,20.16,14.88"/><rect class="cls-1" x="-21.9255" y="4.5317" width="270.32" height="129.68"/><polyline class="cls-12" points="41.114 106.091 41.114 106.571 41.354 106.812 41.594 107.292 42.074 107.532 42.314 107.772 42.794 107.772"/><line class="cls-12" x1="48.0743" y1="114.4916" x2="66.0743" y2="114.4916"/><line class="cls-12" x1="48.0743" y1="114.4916" x2="48.0743" y2="107.7716"/><line class="cls-12" x1="66.0743" y1="114.4916" x2="66.0743" y2="107.7716"/><line class="cls-12" x1="42.7945" y1="107.7719" x2="68.7145" y2="107.7719"/><polyline class="cls-12" points="68.955 107.772 69.435 107.772 69.915 107.533 70.155 107.293 70.395 106.812 70.635 106.572 70.635 106.091"/><polyline class="cls-12" points="42.795 69.852 42.314 70.092 42.075 70.092 41.594 70.332 41.355 70.812 41.114 71.292 41.114 71.772"/><line class="cls-12" x1="41.1143" y1="106.0912" x2="41.1143" y2="71.7722"/><line class="cls-12" x1="50.9546" y1="112.0912" x2="50.9546" y2="111.1322"/><line class="cls-12" x1="50.9546" y1="111.1322" x2="50.9546" y2="109.9322"/><line class="cls-12" x1="50.9546" y1="111.1322" x2="51.9146" y2="111.1322"/><line class="cls-12" x1="49.7544" y1="111.1322" x2="50.9544" y2="111.1322"/><line class="cls-12" x1="56.4747" y1="112.0912" x2="56.4747" y2="111.1322"/><line class="cls-12" x1="56.4747" y1="111.1322" x2="56.4747" y2="109.9322"/><line class="cls-12" x1="56.4747" y1="111.1322" x2="57.6747" y2="111.1322"/><line class="cls-12" x1="55.2745" y1="111.1322" x2="56.4745" y2="111.1322"/><line class="cls-12" x1="61.9947" y1="112.0912" x2="61.9947" y2="111.1322"/><line class="cls-12" x1="61.9947" y1="111.1322" x2="61.9947" y2="109.9322"/><line class="cls-12" x1="61.9947" y1="111.1322" x2="63.1947" y2="111.1322"/><line class="cls-12" x1="61.0342" y1="111.1322" x2="61.9942" y2="111.1322"/><line class="cls-6" x1="44.7144" y1="94.5717" x2="66.7944" y2="94.8117"/><line class="cls-6" x1="67.0342" y1="104.1713" x2="67.0342" y2="94.5713"/><text class="cls-10" transform="translate(48.3134 93.3715)">W</text><text class="cls-11" transform="translate(53.979 93.3715)"> </text><rect class="cls-1" x="48.3145" y="87.8507" width="5.521" height="6.961"/><text class="cls-10" transform="translate(60.0732 93.3715)">B</text><text class="cls-11" transform="translate(64.0756 93.3715)"> </text><rect class="cls-1" x="60.0745" y="87.8507" width="4.08" height="6.961"/><text class="cls-10" transform="translate(54.7934 93.3715)">R</text><text class="cls-11" transform="translate(59.1259 93.3715)"> </text><rect class="cls-1" x="54.7945" y="87.8507" width="4.32" height="6.961"/><line class="cls-6" x1="44.7144" y1="104.1713" x2="44.7144" y2="94.5713"/><line class="cls-6" x1="44.7144" y1="104.1713" x2="66.7944" y2="104.1713"/><line class="cls-7" x1="48.6744" y1="102.3724" x2="48.9144" y2="96.6114"/><line class="cls-7" x1="65.4747" y1="102.3724" x2="65.4747" y2="96.6114"/><line class="cls-7" x1="48.6744" y1="102.3724" x2="65.4744" y2="102.3724"/><line class="cls-7" x1="48.6744" y1="96.6117" x2="65.4744" y2="96.8517"/><path class="cls-6" d="M188.2344,17.5321a6.96,6.96,0,1,1-6.96-6.96,6.965,6.965,0,0,1,6.96,6.96"/><path class="cls-6" d="M185.3545,17.5321a3.9992,3.9992,0,0,1-4.08,3.84,3.7909,3.7909,0,0,1-3.84-3.84,3.9992,3.9992,0,0,1,3.84-4.08,4.2057,4.2057,0,0,1,4.08,4.08"/><path class="cls-6" d="M51.9146,126.0121a6.96,6.96,0,1,1-6.96-6.96,6.965,6.965,0,0,1,6.96,6.96"/><path class="cls-6" d="M48.7945,126.0121h0a3.84,3.84,0,1,1-3.84-3.841,3.7909,3.7909,0,0,1,3.84,3.841"/><rect class="cls-1" x="-21.9255" y="4.5317" width="270.32" height="129.68"/><line class="cls-6" x1="37.9947" y1="126.0121" x2="37.9947" y2="65.0521"/><line class="cls-12" x1="161.1143" y1="46.0917" x2="179.5943" y2="46.0917"/><line class="cls-12" x1="161.1143" y1="49.452" x2="179.5943" y2="49.452"/><polyline class="cls-12" points="179.595 49.452 179.834 49.452 180.315 49.212 180.795 48.972 181.034 48.732 181.034 48.252 181.275 47.772 181.034 47.292 181.034 47.052 180.795 46.572 180.315 46.332 179.834 46.332 179.595 46.092"/><polyline class="cls-12" points="161.114 46.092 160.635 46.332 160.394 46.332 159.914 46.572 159.675 47.052 159.434 47.292 159.434 47.772 159.434 48.252 159.675 48.732 159.914 48.972 160.394 49.212 160.635 49.452 161.114 49.452"/><line class="cls-12" x1="46.6343" y1="46.0917" x2="65.1143" y2="46.0917"/><line class="cls-12" x1="46.6343" y1="49.452" x2="65.1143" y2="49.452"/><polyline class="cls-12" points="65.114 49.452 65.594 49.452 65.834 49.212 66.314 48.972 66.554 48.732 66.794 48.252 66.794 47.772 66.794 47.292 66.554 47.052 66.314 46.572 65.834 46.332 65.594 46.332 65.114 46.092"/><polyline class="cls-12" points="46.634 46.092 46.394 46.332 45.914 46.332 45.674 46.572 45.194 47.052 45.194 47.292 44.954 47.772 45.194 48.252 45.194 48.732 45.674 48.972 45.914 49.212 46.394 49.452 46.634 49.452"/><rect x="54.3145" y="108.2507" width="11.04" height="5.521"/><rect class="cls-13" x="54.4345" y="108.3729" width="11.04" height="5.52"/><line class="cls-7" x1="53.2344" y1="30.372" x2="53.2344" y2="25.572"/><line class="cls-7" x1="58.7544" y1="30.372" x2="58.9944" y2="25.572"/><line class="cls-7" x1="52.0347" y1="25.5717" x2="59.9547" y2="25.8117"/><line class="cls-7" x1="52.0347" y1="25.5717" x2="52.2747" y2="14.5317"/><line class="cls-7" x1="59.9546" y1="25.5717" x2="59.9546" y2="14.5317"/><line class="cls-7" x1="52.0347" y1="14.5321" x2="59.9547" y2="14.5321"/><path class="cls-6" d="M62.9546,36.7319a6.96,6.96,0,1,1-6.96-6.96,6.965,6.965,0,0,1,6.96,6.96"/><rect class="cls-1" x="-21.9255" y="4.5317" width="270.32" height="129.68"/><line class="cls-7" x1="46.7544" y1="47.892" x2="65.2344" y2="47.892"/><rect class="cls-8" x="53.1145" y="65.2916" width="5.52" height="4.8"/><rect class="cls-9" x="53.2345" y="65.4119" width="5.52" height="4.8"/><rect class="cls-8" x="51.9145" y="70.0917" width="7.92" height="11.041"/><rect class="cls-9" x="52.0345" y="70.212" width="7.92" height="11.04"/><line class="cls-7" x1="53.2344" y1="70.2117" x2="53.2344" y2="65.4118"/><line class="cls-7" x1="58.7544" y1="70.2117" x2="58.9944" y2="65.4118"/><line class="cls-7" x1="52.0347" y1="70.2117" x2="59.9547" y2="70.2117"/><line class="cls-7" x1="52.0347" y1="81.2514" x2="52.2747" y2="70.2114"/><line class="cls-7" x1="59.9546" y1="81.2514" x2="59.9546" y2="70.2114"/><line class="cls-7" x1="52.0347" y1="81.2514" x2="59.9547" y2="81.4914"/><path class="cls-6" d="M62.9546,59.0522a6.96,6.96,0,1,1-6.96-6.96,6.965,6.965,0,0,1,6.96,6.96"/><rect class="cls-1" x="-21.9255" y="4.5317" width="270.32" height="129.68"/><polyline class="cls-5" points="61.634 6.132 60.194 6.372 58.754 6.852 57.554 7.812 56.834 9.012 56.114 10.212 56.114 11.892"/><polyline class="cls-5" points="68.355 11.892 68.114 10.212 67.635 9.012 66.674 7.812 65.474 6.852 64.274 6.372 62.834 6.132"/><line class="cls-5" x1="61.6343" y1="6.1318" x2="62.8343" y2="6.1318"/><line class="cls-5" x1="68.3545" y1="82.6918" x2="68.3545" y2="11.8918"/><line class="cls-5" x1="70.0342" y1="84.3724" x2="70.5142" y2="84.3724"/><polyline class="cls-5" points="68.355 82.692 68.355 82.932 68.594 83.412 68.834 83.652 69.074 84.132 69.554 84.132 70.034 84.373"/><text class="cls-14" transform="translate(41.5932 75.913)">12V</text><text class="cls-15" transform="translate(50.9965 75.913)"> </text><text class="cls-10" transform="translate(38.9531 26.4115)">GN</text><rect class="cls-1" x="38.9545" y="20.8907" width="13.2" height="6.961"/><rect x="-19.8455" y="32.1716" width="39.12" height="8.88"/><rect class="cls-13" x="-19.7255" y="32.2919" width="39.12" height="8.88"/><rect class="cls-16" x="-19.8455" y="54.4917" width="39.12" height="8.88"/><rect class="cls-17" x="-19.7255" y="54.6119" width="39.12" height="8.88"/><rect x="207.1517" y="32.1716" width="69.9815" height="8.88"/><rect class="cls-13" x="207.0753" y="32.2919" width="39.12" height="8.88"/><rect class="cls-16" x="207.1647" y="54.4917" width="72.0123" height="8.88"/><polyline class="cls-4" points="56.114 82.692 56.114 82.932 56.354 83.412 56.594 83.652 56.834 84.132 57.314 84.132 57.794 84.373"/><path d="M135.6792,105.9428h-44.89a5.4755,5.4755,0,0,0-5.474,5.477v10.947a5.4751,5.4751,0,0,0,5.474,5.475h44.89a5.4753,5.4753,0,0,0,5.475-5.475V111.42a5.4758,5.4758,0,0,0-5.475-5.477"/><polygon class="cls-18" points="117.208 112.457 117.649 112.457 119.061 115.013 120.472 112.457 120.914 112.457 119.302 115.365 118.819 115.365 117.208 112.457"/><rect class="cls-18" x="121.5905" y="112.4577" width="0.395" height="2.908"/><path class="cls-18" d="M122.7945,113.5131c0-.734.249-1.089,1.037-1.089h1.507c.715,0,.912.332.912.724v.249h-.345v-.133c0-.495-.306-.52-.667-.52h-1.367c-.378,0-.682.115-.682.622v1.091c0,.507.304.621.682.621h1.379c.529,0,.684-.114.684-.506v-.182h.369v.197c0,.528-.169.812-.986.812h-1.486c-.788,0-1.037-.355-1.037-1.089Z"/><polygon class="cls-18" points="128.317 112.779 126.845 112.779 126.845 112.458 130.181 112.458 130.181 112.779 128.711 112.779 128.711 115.366 128.317 115.366 128.317 112.779"/><path class="cls-18" d="M130.7481,113.5126c0-.734.248-1.088,1.036-1.088h1.675c.789,0,1.038.354,1.038,1.088v.797c0,.735-.249,1.089-1.038,1.089h-1.675c-.788,0-1.036-.354-1.036-1.089Zm3.355-.147c0-.507-.306-.621-.684-.621h-1.594c-.379,0-.684.114-.684.621v1.092c0,.507.305.621.684.621h1.594c.378,0,.684-.114.684-.621Z"/><path class="cls-18" d="M135.2962,112.4579h2.329c.838,0,.971.275.971.823v.236c0,.41-.233.524-.534.552v.008c.401.072.498.281.498.547v.742h-.371v-.638c0-.454-.22-.512-.578-.512H135.69v1.15h-.394Zm2.282,1.437c.439,0,.623-.116.623-.421v-.266c0-.326-.139-.429-.719-.429H135.69v1.116Z"/><path class="cls-18" d="M116.8389,119.7565c0-.538.22-.826.889-.923v-.016a.9563.9563,0,0,1-.862-1.047v-.283c0-1.117.482-1.192,2.448-1.192h1.517c1.276,0,1.855.241,1.855,1.185v.326c0,.537-.131.895-.834.984v.014a.9886.9886,0,0,1,.875,1.062v.399c0,.835-.531,1.132-1.462,1.132h-2.882c-1.076,0-1.544-.407-1.544-1.207Zm3.847.566c.517,0,.594-.152.594-.505,0-.385-.069-.496-.677-.496h-1.64c-.608,0-.676.111-.676.496,0,.353.076.505.593.505Zm-.034-2.036c.448,0,.586-.178.586-.461a.41.41,0,0,0-.469-.454h-1.986a.41.41,0,0,0-.469.454c0,.283.138.461.586.461Z"/><path class="cls-18" d="M124.9366,119.7565c0-.538.221-.826.89-.923v-.016a.9563.9563,0,0,1-.862-1.047v-.283c0-1.117.482-1.192,2.448-1.192h1.517c1.276,0,1.855.241,1.855,1.185v.326c0,.537-.131.895-.834.984v.014a.9893.9893,0,0,1,.875,1.062v.399c0,.835-.531,1.132-1.462,1.132h-2.882c-1.076,0-1.545-.407-1.545-1.207Zm3.847.566c.518,0,.594-.152.594-.505,0-.385-.068-.496-.677-.496h-1.639c-.609,0-.676.111-.676.496,0,.353.075.505.593.505Zm-.034-2.036c.448,0,.587-.178.587-.461a.41.41,0,0,0-.47-.454h-1.985a.41.41,0,0,0-.469.454c0,.283.137.461.585.461Z"/><path class="cls-18" d="M133.1582,119.7c0-.537.22-.827.89-.924v-.014a.957.957,0,0,1-.863-1.049v-.281c0-1.118.483-1.194,2.449-1.194h1.516c1.278,0,1.856.242,1.856,1.186v.324c0,.539-.131.897-.834.988v.013a.9922.9922,0,0,1,.877,1.062v.399c0,.835-.534,1.131-1.465,1.131h-2.882c-1.075,0-1.544-.407-1.544-1.207Zm3.847.564c.518,0,.592-.15.592-.502,0-.385-.066-.495-.675-.495h-1.639c-.609,0-.676.11-.676.495,0,.352.075.502.593.502Zm-.034-2.033c.447,0,.587-.18.587-.461a.4122.4122,0,0,0-.47-.457h-1.985a.4122.4122,0,0,0-.47.457c0,.281.138.461.586.461Z"/><path class="cls-18" d="M110.7486,112.3217a.0928.0928,0,0,0-.053.017s-2.095,1.456-2.196,1.527c-.102-.071-2.206-1.527-2.206-1.527a.0928.0928,0,0,0-.053-.017h-1.939a.0924.0924,0,0,0-.089.065.0975.0975,0,0,0-.005.028.0993.0993,0,0,0,.042.077s2.929,1.983,3.141,2.126c-.214.142-3.409,2.284-3.409,2.284a.098.098,0,0,0-.042.077.0808.0808,0,0,0,.005.027.0921.0921,0,0,0,.089.066h1.981a.0849.0849,0,0,0,.053-.018s2.329-1.612,2.432-1.682c.102.071,2.41,1.682,2.41,1.682a.087.087,0,0,0,.053.018h1.95a.093.093,0,0,0,.089-.066.1176.1176,0,0,0,.003-.027.0958.0958,0,0,0-.04-.077s-3.175-2.14-3.389-2.282c.213-.144,3.153-2.128,3.153-2.128a.0943.0943,0,0,0,.037-.105.0933.0933,0,0,0-.089-.065Z"/><path class="cls-18" d="M95.5064,112.3217a.093.093,0,0,0-.072.035s-2.767,3.383-2.905,3.553c-.136-.172-2.852-3.553-2.852-3.553a.093.093,0,0,0-.072-.035h-1.628a.0923.0923,0,0,0-.084.054.09.09,0,0,0,.012.097l3.759,4.565a.0952.0952,0,0,0,.072.034h1.585a.0916.0916,0,0,0,.071-.034l3.813-4.565a.0863.0863,0,0,0,.013-.097.0923.0923,0,0,0-.084-.054Z"/><path class="cls-19" d="M98.08,112.3217a2.7441,2.7441,0,0,1-.3-1.291c0-1.039.521-1.911,1.154-1.911h4.012c.214,0,.39.292.39.643,0,.355-.176.645-.39.645h-4.012c-.212,0-.376.291-.376.623,0,.334.151.657.376.657h4.012c.214,0,.39.284.39.634s-.176.634-.39.634h-4.012c-.225,0-.376.322-.376.656s.164.623.376.623h4.012c.214,0,.39.29.39.645,0,.353-.176.645-.39.645h-4.012c-.633,0-1.154-.874-1.154-1.913a2.73,2.73,0,0,1,.3-1.289Z"/><path class="cls-18" d="M113.4429,116.5032a.3238.3238,0,0,1,.155.041.2941.2941,0,0,1,.117.115.3343.3343,0,0,1,.042.159.317.317,0,0,1-.042.155.2855.2855,0,0,1-.116.115.3089.3089,0,0,1-.311,0,.2892.2892,0,0,1-.115-.115.3066.3066,0,0,1-.042-.155.3233.3233,0,0,1,.042-.159.2879.2879,0,0,1,.117-.115.3193.3193,0,0,1,.153-.041m0,.054a.27.27,0,0,0-.128.032.2385.2385,0,0,0-.097.097.2611.2611,0,0,0-.035.132.2576.2576,0,0,0,.034.127.2247.2247,0,0,0,.097.096.2436.2436,0,0,0,.129.035.248.248,0,0,0,.131-.035.242.242,0,0,0,.097-.096.2686.2686,0,0,0,.034-.127.2716.2716,0,0,0-.035-.132.247.247,0,0,0-.098-.097.2708.2708,0,0,0-.129-.032m-.137.432v-.335h.117a.3061.3061,0,0,1,.085.007.0752.0752,0,0,1,.042.035.0743.0743,0,0,1,.016.047.095.095,0,0,1-.026.065.105.105,0,0,1-.07.03.1822.1822,0,0,1,.029.019.5906.5906,0,0,1,.049.066l.041.066h-.066l-.03-.052a.2418.2418,0,0,0-.057-.078.0682.0682,0,0,0-.044-.011h-.031v.141Zm.055-.189h.066a.1184.1184,0,0,0,.064-.014.0456.0456,0,0,0,.017-.038.0462.0462,0,0,0-.007-.026.0916.0916,0,0,0-.024-.019.1812.1812,0,0,0-.054-.004h-.062Z"/><path class="cls-19" d="M87.8927,124.0483v-.105l.1.038-.1-.038v.105h-.154l2.108-5.529h4.515a2.0214,2.0214,0,0,1,1.177.272.8906.8906,0,0,1,.362.766,2.7108,2.7108,0,0,1-.21.928l-.174.455a2.4934,2.4934,0,0,1-2.246,1.772h-3.165l-.509,1.336Zm1.558-.211.51-1.336h3.31a2.2857,2.2857,0,0,0,2.049-1.638l.173-.454a2.4857,2.4857,0,0,0,.195-.852.67.67,0,0,0-.273-.591,1.7943,1.7943,0,0,0-1.053-.234h-4.37l-1.944,5.105Z"/><path class="cls-19" d="M90.43,121.2846a.1054.1054,0,0,1,.106-.106H93.07a.6809.6809,0,0,0,.645-.498l.078-.205a.646.646,0,0,0,.05-.217.1466.1466,0,0,0-.071-.141.6518.6518,0,0,0-.333-.064h-2.394a.106.106,0,1,1,0-.212h2.394a.84.84,0,0,1,.448.097.3644.3644,0,0,1,.168.32.8554.8554,0,0,1-.063.294l-.079.205a.8957.8957,0,0,1-.843.633h-2.534a.1048.1048,0,0,1-.106-.106"/><path class="cls-19" d="M100.7368,124.0483v-.105l.1.038-.1-.038v.105h-.153l.298-.782a1.2248,1.2248,0,0,0,.099-.399c-.003-.089-.019-.112-.067-.144a.6315.6315,0,0,0-.319-.055h-2.49l-.525,1.38h-1.859l2.107-5.529h4.994a1.6691,1.6691,0,0,1,.972.226.7693.7693,0,0,1,.31.66,2.4738,2.4738,0,0,1-.191.837l-.129.338a1.8792,1.8792,0,0,1-1.164,1.283,1.0264,1.0264,0,0,1,.129.085.6078.6078,0,0,1,.206.489,1.843,1.843,0,0,1-.144.639l-.37.972Zm-4.707-.211h1.403l.527-1.382h2.635a.8642.8642,0,0,1,.428.084.3607.3607,0,0,1,.171.328,1.415,1.415,0,0,1-.114.475l-.189.494h1.404l.318-.834a1.65,1.65,0,0,0,.13-.565.3985.3985,0,0,0-.13-.327.8378.8378,0,0,0-.362-.142l-.123-.024.07-.185.056-.012a1.6521,1.6521,0,0,0,1.332-1.242l.129-.338a2.2748,2.2748,0,0,0,.177-.762.5541.5541,0,0,0-.222-.488,1.48,1.48,0,0,0-.848-.185h-4.847Z"/><path class="cls-19" d="M98.43,121.2406a.1067.1067,0,0,1,.105-.107h2.696a.7635.7635,0,0,0,.457-.116.7733.7733,0,0,0,.259-.374l.067-.174a.76.76,0,0,0,.057-.242c-.006-.08-.016-.091-.088-.127a1.2206,1.2206,0,0,0-.407-.047h-2.548a.106.106,0,1,1,0-.212h2.548a1.3263,1.3263,0,0,1,.488.063.332.332,0,0,1,.22.323.9288.9288,0,0,1-.073.317l-.067.175a.9607.9607,0,0,1-.334.472.9851.9851,0,0,1-.579.155h-2.696a.1065.1065,0,0,1-.105-.106"/><path class="cls-19" d="M106.4285,124.1076a3.244,3.244,0,0,1-1.375-.217.926.926,0,0,1-.547-.899,2.7509,2.7509,0,0,1,.213-.953l.604-1.585a2.893,2.893,0,0,1,1.257-1.602,3.8742,3.8742,0,0,1,1.918-.391h2.614a3.2938,3.2938,0,0,1,1.376.217.9261.9261,0,0,1,.546.899,2.7368,2.7368,0,0,1-.213.952l-.604,1.587a2.8878,2.8878,0,0,1-1.257,1.6,3.8609,3.8609,0,0,1-1.918.392Zm-1.51-1.992a2.5291,2.5291,0,0,0-.199.876.7085.7085,0,0,0,.427.709,3.0758,3.0758,0,0,0,1.282.195h2.614a3.6552,3.6552,0,0,0,1.814-.364,2.6743,2.6743,0,0,0,1.163-1.493l.604-1.585a2.51,2.51,0,0,0,.198-.877.7069.7069,0,0,0-.426-.707,3.0463,3.0463,0,0,0-1.283-.196h-2.614a3.6634,3.6634,0,0,0-1.814.365,2.67,2.67,0,0,0-1.162,1.49Z"/><path class="cls-19" d="M109.2994,122.7426h-2.628a.1065.1065,0,0,1,0-.213h2.628a1.1179,1.1179,0,0,0,.779-.22,1.8152,1.8152,0,0,0,.459-.778l.218-.571a1.6759,1.6759,0,0,0,.138-.552.289.289,0,0,0-.123-.265.9988.9988,0,0,0-.531-.104h-2.451a.1067.1067,0,0,1-.105-.107.1056.1056,0,0,1,.105-.105h2.451a1.1681,1.1681,0,0,1,.65.142.4991.4991,0,0,1,.216.439,1.8738,1.8738,0,0,1-.151.627l-.218.574a2.04,2.04,0,0,1-.521.863,1.3341,1.3341,0,0,1-.912.27Z"/><rect class="cls-1" x="-21.9255" y="4.5317" width="270.32" height="129.68"/><line class="cls-20" x1="175.1528" y1="125.7964" x2="188.2828" y2="142.3194"/><polygon points="171.754 121.52 174.119 128.598 178.114 125.422 171.754 121.52"/></g></svg>