<svg id="Layer_1" data-name="Layer 1" xmlns="http://www.w3.org/2000/svg" viewBox="0 0 266.495 156.963"><defs><clipPath id="clip-path"><path class="cls-1" d="M0 0h266.495v156.963H0z"/></clipPath><style>.cls-1,.cls-12,.cls-13,.cls-4,.cls-5,.cls-6,.cls-7,.cls-9{fill:none}.cls-10,.cls-11{font-family:Verdana}.cls-12,.cls-4{stroke:gray}.cls-12,.cls-4,.cls-5,.cls-6,.cls-7{stroke-linejoin:round}.cls-4,.cls-5{stroke-width:1.2px}.cls-13,.cls-5,.cls-6,.cls-7{stroke:#000}.cls-12,.cls-6,.cls-7{stroke-linecap:round}.cls-12,.cls-6{stroke-width:.48px}.cls-13,.cls-7,.cls-9{stroke-width:.24px}.cls-8{fill:#fff}.cls-9{stroke:#fff}.cls-13,.cls-9{stroke-miterlimit:10}.cls-10{font-size:6px}.cls-11{font-size:9.84px}.cls-16{fill:red}.cls-18{fill:#8c9091}.cls-19{fill:#00953b}</style></defs><g clip-path="url(#clip-path)"><path class="cls-1" d="M-32963.086-32155.428h65536v65536h-65536z"/><path class="cls-1" d="M-32963.086-32155.428h65536v65536h-65536z"/><text transform="translate(188.674 146.77)" font-family="Verdana" font-size="10" fill="#231f20">LED Indicator</text><path class="cls-4" d="M56.114 82.692v-1.44M57.794 84.372h12.24"/><path class="cls-5" d="M56.114 14.532v-2.64M48.674 32.292a9.105 9.105 0 017.44-4.08 8.643 8.643 0 010 17.28 8.77 8.77 0 01-7.44-4.32"/><path class="cls-1" d="M-21.925 4.532h270.32v129.68h-270.32z"/><path class="cls-6" d="M46.634 45.852l.24-18.24M65.114 45.852v-18.24M46.634 45.852h18.48M46.634 27.612h18.48"/><path class="cls-7" d="M47.475 45.492v-17.28M64.515 45.492l.24-17.28M47.475 45.492h17.04M47.475 28.212h17.04"/><path class="cls-6" d="M46.634 45.852l.24-18.24M65.114 45.852v-18.24M46.634 45.852h18.48M46.634 27.612h18.48"/><path class="cls-8" d="M53.114 25.452h5.52v4.8h-5.52z"/><path class="cls-9" d="M53.234 25.572h5.52v4.8h-5.52z"/><path class="cls-8" d="M51.914 14.412h7.92v11.04h-7.92z"/><path class="cls-9" d="M52.035 14.532h7.92v11.04h-7.92z"/><path class="cls-7" d="M47.475 67.572v-17.04M64.515 67.572l.24-17.04M47.475 67.572l17.04.24M47.475 50.532h17.04M161.715 45.492l.239-17.28M178.994 45.492l.24-17.28M161.715 45.492h17.279M161.715 28.212h17.279M161.715 67.572l.239-17.04M178.994 67.572l.24-17.04M161.715 67.572l17.279.24M161.715 50.532h17.279"/><path class="cls-6" d="M161.114 68.172v-18.48M179.595 68.172v-18.48M161.114 68.172h18.48M161.114 49.692h18.48M161.114 68.172v-18.48M179.595 68.172v-18.48M161.114 68.172h18.48M161.114 49.692h18.48"/><path class="cls-8" d="M177.674 54.492h7.199v8.88h-7.199z"/><path class="cls-9" d="M177.794 54.612h7.199v8.88h-7.199z"/><path class="cls-6" d="M161.114 45.852v-18.24M179.595 45.852v-18.24M161.114 45.852h18.48M161.114 27.612h18.48M161.114 45.852v-18.24M179.595 45.852v-18.24M161.114 45.852h18.48M161.114 27.612h18.48"/><path class="cls-8" d="M177.674 32.172h7.199v8.88h-7.199z"/><path class="cls-9" d="M177.794 32.292h7.199v8.88h-7.199z"/><path class="cls-6" d="M46.634 68.172l.24-18.48M65.114 68.172v-18.48M46.634 68.172h18.48M46.634 49.692h18.48M46.634 68.172l.24-18.48M65.114 68.172v-18.48M46.634 68.172h18.48M46.634 49.692h18.48"/><path class="cls-8" d="M41.355 54.492h7.2v8.88h-7.2z"/><path class="cls-9" d="M41.474 54.612h7.2v8.88h-7.2z"/><path class="cls-8" d="M41.355 32.172h7.2v8.88h-7.2z"/><path class="cls-9" d="M41.474 32.292h7.2v8.88h-7.2z"/><path class="cls-6" d="M44.955 10.572l-1.92.24-1.68.72-1.44.96-.96 1.44-.72 1.68-.24 1.92M188.234 17.532l-.24-1.92-.72-1.68-.96-1.44-1.44-.96-1.68-.72-1.92-.24M44.955 10.572h136.32M185.355 17.532a4 4 0 01-4.08 3.84 3.79 3.79 0 01-3.84-3.84 4 4 0 013.84-4.08 4.206 4.206 0 014.08 4.08"/><path class="cls-1" d="M-21.925 4.532h270.32v129.68h-270.32z"/><path class="cls-6" d="M44.955 10.572l-1.92.24-1.68.72-1.44.96-.96 1.44-.72 1.68-.24 1.92M188.234 17.532l-.24-1.92-.72-1.68-.96-1.44-1.44-.96-1.68-.72-1.92-.24M44.955 10.572h136.32M37.995 126.012l.24 1.68.72 1.92.96 1.2 1.44 1.2 1.68.72 1.92.24M181.274 132.972l1.92-.24 1.68-.72 1.44-1.2.96-1.2.72-1.92.24-1.68M48.794 126.012a3.84 3.84 0 11-3.84-3.84 3.79 3.79 0 013.84 3.84"/><path class="cls-1" d="M-21.925 4.532h270.32v129.68h-270.32z"/><path class="cls-6" d="M44.955 132.972h136.32M37.995 126.012l.24 1.68.72 1.92.96 1.2 1.44 1.2 1.68.72 1.92.24M181.274 132.972l1.92-.24 1.68-.72 1.44-1.2.96-1.2.72-1.92.24-1.68M44.955 132.972h136.32M175.034 116.892a5.43 5.43 0 01-5.52 5.52 5.525 5.525 0 110-11.04 5.43 5.43 0 015.52 5.52"/><path class="cls-1" d="M-21.925 4.532h270.32v129.68h-270.32z"/><path class="cls-6" d="M52.634 33.132l1.92-.96M59.355 33.372l1.199 1.92M57.194 41.292l1.92-1.2M51.435 38.172l.96 1.68M52.395 39.852l1.68-.96M56.475 39.612l.72 1.68M54.074 39.132c.24-.24.48-.24.96-.24a2.074 2.074 0 011.44.72"/><path class="cls-1" d="M-21.925 4.532h270.32v129.68h-270.32z"/><path class="cls-6" d="M58.154 38.652l.96 1.44M58.875 36.252l1.68-.96M58.154 38.652c0-.24-.24-.72-.24-.96a1.973 1.973 0 01.96-1.44"/><path class="cls-1" d="M-21.925 4.532h270.32v129.68h-270.32z"/><path class="cls-6" d="M57.915 34.332l1.44-.96M54.555 32.172l.96 1.44M57.915 34.332a1.88 1.88 0 01-2.4-.48"/><path class="cls-1" d="M-21.925 4.532h270.32v129.68h-270.32z"/><path class="cls-6" d="M52.634 33.132l.96 1.68M51.435 38.172l1.44-.96M53.594 34.812c.24.24.24.48.24.96a1.71 1.71 0 01-.72 1.44"/><path class="cls-1" d="M-21.925 4.532h270.32v129.68h-270.32z"/><path class="cls-6" d="M52.634 55.452l1.92-.96M59.355 55.692l1.199 1.92M57.194 63.612l1.92-1.2M51.435 60.252l.96 1.92M52.395 62.172l1.68-.96M56.475 61.932l.72 1.68M54.074 61.212c.24 0 .48-.24.96-.24s.96.48 1.44.96"/><path class="cls-1" d="M-21.925 4.532h270.32v129.68h-270.32z"/><path class="cls-6" d="M58.154 60.972l.96 1.44M58.875 58.572l1.68-.96M58.154 60.732c0-.24-.24-.48-.24-.72a1.62 1.62 0 01.96-1.44"/><path class="cls-1" d="M-21.925 4.532h270.32v129.68h-270.32z"/><path class="cls-6" d="M57.915 56.652l1.44-.96M54.555 54.492l.96 1.44M57.915 56.652a1.814 1.814 0 01-.96.24 1.316 1.316 0 01-1.44-.96"/><path class="cls-1" d="M-21.925 4.532h270.32v129.68h-270.32z"/><path class="cls-6" d="M52.634 55.452l.96 1.68M51.435 60.252l1.44-.96M53.594 57.132a.882.882 0 01.24.72 2.179 2.179 0 01-.72 1.68"/><path class="cls-1" d="M-21.925 4.532h270.32v129.68h-270.32z"/><path class="cls-6" d="M167.114 55.452l1.92-.96M173.834 55.692l.961 1.92M171.675 63.612l1.92-1.2M165.914 60.252l.96 1.92M166.874 62.172l1.681-.96M170.715 61.932l.96 1.68M168.555 61.212c.24 0 .479-.24.72-.24a1.622 1.622 0 011.44.96"/><path class="cls-1" d="M-21.925 4.532h270.32v129.68h-270.32z"/><path class="cls-6" d="M172.635 60.972l.96 1.44M173.355 58.572l1.439-.96M172.635 60.972a1.814 1.814 0 01-.24-.96 1.316 1.316 0 01.96-1.44"/><path class="cls-1" d="M-21.925 4.532h270.32v129.68h-270.32z"/><path class="cls-6" d="M172.154 56.652l1.68-.96M169.034 54.492l.721 1.44M172.154 56.652a.88.88 0 01-.72.24 1.81 1.81 0 01-1.679-.96"/><path class="cls-1" d="M-21.925 4.532h270.32v129.68h-270.32z"/><path class="cls-6" d="M167.114 55.452l.96 1.68M165.914 60.252l1.44-.96M168.074 57.132c0 .24.24.48.24.72a2.43 2.43 0 01-.96 1.68"/><path class="cls-6" d="M177.194 59.052a6.96 6.96 0 11-6.96-6.96 6.965 6.965 0 016.96 6.96"/><path class="cls-1" d="M-21.925 4.532h270.32v129.68h-270.32z"/><path class="cls-6" d="M167.114 33.132l1.92-.96M173.834 33.372l.961 1.92M171.675 41.292l1.92-1.2M165.914 38.172l.96 1.68M166.874 39.852l1.681-.96M170.715 39.612l.96 1.68M168.555 39.132a.88.88 0 01.72-.24 1.452 1.452 0 011.44.72"/><path class="cls-1" d="M-21.925 4.532h270.32v129.68h-270.32z"/><path class="cls-6" d="M172.635 38.652l.96 1.44M173.355 36.252l1.439-.96M172.635 38.652c-.24-.24-.24-.48-.24-.96a1.492 1.492 0 01.96-1.44"/><path class="cls-1" d="M-21.925 4.532h270.32v129.68h-270.32z"/><path class="cls-6" d="M172.154 34.332l1.68-.96M169.034 32.172l.721 1.44M172.154 34.332a.88.88 0 01-.72.24 2.177 2.177 0 01-1.679-.72"/><path class="cls-1" d="M-21.925 4.532h270.32v129.68h-270.32z"/><path class="cls-6" d="M167.114 33.132l.96 1.68M165.914 38.172l1.44-.96M168.074 34.812c0 .24.24.48.24.96a1.974 1.974 0 01-.96 1.44"/><path class="cls-6" d="M177.194 36.732a6.96 6.96 0 11-6.96-6.96 6.965 6.965 0 016.96 6.96"/><path class="cls-1" d="M-21.925 4.532h270.32v129.68h-270.32z"/><text class="cls-10" transform="translate(57.193 120.251)">C</text><text class="cls-11" transform="translate(61.526 120.251)"></text><path class="cls-1" d="M57.194 114.733h4.32v6.719h-4.32z"/><text class="cls-10" transform="translate(51.673 120.251)">B</text><text class="cls-11" transform="translate(55.675 120.251)"></text><path class="cls-1" d="M51.673 114.733h4.081v6.719h-4.081z"/><text class="cls-10" transform="translate(165.674 74.65)">M</text><text class="cls-11" transform="translate(170.675 74.65)"></text><path class="cls-1" d="M165.675 69.131h5.04v6.96h-5.04z"/><text class="cls-10" transform="translate(165.674 25.69)">M</text><text class="cls-11" transform="translate(170.675 25.69)"></text><path class="cls-1" d="M165.675 20.171h5.04v6.96h-5.04z"/><path class="cls-7" d="M170.834 72.372h3.841M172.755 74.292v-3.84M172.755 74.292v-3.84M172.515 74.292v-3.84M170.834 72.372h3.841M170.834 72.612h3.841M170.834 23.412h3.841M170.834 23.412h3.841M170.834 23.652h3.841"/><path class="cls-6" d="M155.355 118.572a2.774 2.774 0 01-2.88 2.88 2.725 2.725 0 01-2.641-2.88 2.665 2.665 0 012.64-2.64 2.882 2.882 0 012.88 2.64"/><path class="cls-1" d="M-21.925 4.532h270.32v129.68h-270.32z"/><path class="cls-5" d="M41.475 32.292l7.2.24M41.475 41.172l7.2.24M19.395 30.612h22.08M19.395 42.852l22.08.24M19.395 42.852v-12.24M48.674 54.612a8.522 8.522 0 110 8.88"/><path class="cls-1" d="M-21.925 4.532h270.32v129.68h-270.32z"/><path class="cls-5" d="M41.475 54.612h7.2M41.475 63.492h7.2M41.475 65.172v-12.24M19.395 52.932h22.08M19.395 65.172h22.08M19.395 65.172v-12.24M177.795 41.172a8.624 8.624 0 11-7.44-12.96 9.107 9.107 0 017.44 4.08"/><path class="cls-1" d="M-21.925 4.532h270.32v129.68h-270.32z"/><path class="cls-5" d="M177.795 32.292l7.199.24M177.795 41.172l7.199.24M184.994 42.852v-12.24M184.994 30.612h22.08M184.994 42.852l22.08.24M207.074 42.852l.24-12.24M177.795 63.492a8.546 8.546 0 01-7.44 4.08 8.52 8.52 0 110-17.04 8.546 8.546 0 017.44 4.08"/><path class="cls-1" d="M-21.925 4.532h270.32v129.68h-270.32z"/><path class="cls-5" d="M177.795 54.612h7.199M177.795 63.492h7.199M184.994 65.172v-12.24M184.994 52.932h22.08M184.994 65.172h22.08M207.074 65.172l.24-12.24M41.475 42.852v-12.24"/><path class="cls-6" d="M37.995 52.812v-10.08M37.995 30.492v-12.96M188.234 126.012v-60.96M188.234 30.492v-12.96M188.234 52.812v-10.08"/><path class="cls-12" d="M42.794 69.852h26.16M76.154 14.652l-1.68.24-1.68.48-1.44 1.2-1.2 1.44-.72 1.68-.24 1.92M76.154 102.251h73.92M150.074 102.251l1.681-.239 1.679-.72 1.44-1.201 1.2-1.44.721-1.679.239-1.68M157.034 95.292V21.611M76.154 14.652h73.92M157.034 21.612l-.239-1.92-.721-1.68-1.2-1.44-1.44-1.2-1.679-.48-1.681-.24M75.674 20.892l1.44-.96M81.194 20.892l.72 1.68M79.515 27.372l1.44-.96M74.714 24.732l.72 1.44M75.435 26.172l1.44-.72M78.794 25.932l.72 1.44M76.875 25.452c.24 0 .48-.24.72-.24a2.04 2.04 0 011.2.72"/><path class="cls-1" d="M-21.925 4.532h270.32v129.68h-270.32z"/><path class="cls-12" d="M80.234 25.212l.72 1.2M80.714 23.292l1.2-.72M80.234 25.212a.881.881 0 01-.24-.72 1.32 1.32 0 01.72-1.2"/><path class="cls-1" d="M-21.925 4.532h270.32v129.68h-270.32z"/><path class="cls-12" d="M79.754 21.852l1.44-.96M77.114 19.932l.96 1.2M79.754 21.852h-.72a1.32 1.32 0 01-1.2-.72"/><path class="cls-1" d="M-21.925 4.532h270.32v129.68h-270.32z"/><path class="cls-12" d="M75.674 20.892l.72 1.2M74.714 24.732l1.2-.72M76.395 22.092a.882.882 0 01.24.72 1.32 1.32 0 01-.72 1.2"/><path class="cls-12" d="M83.835 23.532a5.525 5.525 0 11-11.04 0 5.52 5.52 0 0111.04 0"/><path class="cls-1" d="M-21.925 4.532h270.32v129.68h-270.32z"/><path class="cls-12" d="M145.274 20.892l1.44-.96M150.795 20.892l.72 1.68M149.114 27.372l1.44-.96M144.315 24.732l.72 1.44M145.034 26.172l1.44-.72M148.395 25.932l.72 1.44M146.475 25.452c.24 0 .479-.24.72-.24a2.04 2.04 0 011.2.72"/><path class="cls-1" d="M-21.925 4.532h270.32v129.68h-270.32z"/><path class="cls-12" d="M149.834 25.212l.721 1.2M150.315 23.292l1.199-.72M149.834 25.212a.884.884 0 01-.239-.72 1.319 1.319 0 01.719-1.2"/><path class="cls-1" d="M-21.925 4.532h270.32v129.68h-270.32z"/><path class="cls-12" d="M149.355 21.852l1.439-.96M146.715 19.932l.96 1.2M149.355 21.852h-.72a1.32 1.32 0 01-1.2-.72"/><path class="cls-1" d="M-21.925 4.532h270.32v129.68h-270.32z"/><path class="cls-12" d="M145.274 20.892l.72 1.2M144.315 24.732l1.199-.72M145.994 22.092a.882.882 0 01.24.72 1.32 1.32 0 01-.719 1.2"/><path class="cls-12" d="M153.435 23.532a5.525 5.525 0 11-11.04 0 5.52 5.52 0 1111.04 0"/><path class="cls-1" d="M-21.925 4.532h270.32v129.68h-270.32z"/><path class="cls-12" d="M145.274 90.492l1.44-.959M150.795 90.492l.72 1.68M149.114 96.972l1.44-.96M144.315 94.332l.72 1.44M145.034 95.772l1.44-.72M148.395 95.532l.72 1.44M146.475 95.052a.88.88 0 01.72-.24 1.32 1.32 0 011.2.72"/><path class="cls-1" d="M-21.925 4.532h270.32v129.68h-270.32z"/><path class="cls-12" d="M149.834 94.812l.721 1.2M150.315 92.892l1.199-.721M149.834 94.812a.885.885 0 01-.239-.721 1.319 1.319 0 01.719-1.2"/><path class="cls-1" d="M-21.925 4.532h270.32v129.68h-270.32z"/><path class="cls-12" d="M149.355 91.212l1.439-.721M146.715 89.532l.96 1.2M149.355 91.453h-.72a1.319 1.319 0 01-1.2-.721"/><path class="cls-1" d="M-21.925 4.532h270.32v129.68h-270.32z"/><path class="cls-12" d="M145.274 90.492l.72 1.2M144.315 94.332l1.199-.72M145.994 91.692a.88.88 0 01.24.72 1.32 1.32 0 01-.719 1.2"/><path class="cls-12" d="M153.435 93.132a5.525 5.525 0 11-11.04 0 5.52 5.52 0 1111.04 0"/><path class="cls-1" d="M-21.925 4.532h270.32v129.68h-270.32z"/><path class="cls-12" d="M75.674 90.492l1.44-.959M81.194 90.492l.72 1.68M79.515 96.972l1.44-.96M74.714 94.332l.72 1.44M75.435 95.772l1.44-.72M78.794 95.532l.72 1.44M76.875 95.052a.882.882 0 01.72-.24 1.32 1.32 0 011.2.72"/><path class="cls-1" d="M-21.925 4.532h270.32v129.68h-270.32z"/><path class="cls-12" d="M80.234 94.812l.72 1.2M80.714 92.892l1.2-.721M80.234 94.812a.882.882 0 01-.24-.721 1.32 1.32 0 01.72-1.2"/><path class="cls-1" d="M-21.925 4.532h270.32v129.68h-270.32z"/><path class="cls-12" d="M79.754 91.212l1.44-.721M77.114 89.532l.96 1.2M79.754 91.453h-.48a1.45 1.45 0 01-1.44-.721"/><path class="cls-1" d="M-21.925 4.532h270.32v129.68h-270.32z"/><path class="cls-12" d="M75.674 90.492l.72 1.2M74.714 94.332l1.2-.72M76.395 91.692a.88.88 0 01.24.72 1.319 1.319 0 01-.72 1.2"/><path class="cls-12" d="M83.835 93.132a5.525 5.525 0 11-11.04 0 5.52 5.52 0 1111.04 0"/><path class="cls-1" d="M-21.925 4.532h270.32v129.68h-270.32z"/><path class="cls-12" d="M69.194 69.852h-.24M70.634 106.091v-6.719M69.194 95.292V21.611M69.194 95.292l.24 1.68.72 1.679 1.2 1.44 1.44 1.201 1.68.72 1.68.239M154.874 58.332a41.76 41.76 0 11-41.76-41.76 41.788 41.788 0 0141.76 41.76"/><path class="cls-12" d="M138.074 58.332a24.96 24.96 0 11-24.96-24.96 24.995 24.995 0 0124.96 24.96"/><path class="cls-1" d="M-21.925 4.532h270.32v129.68h-270.32z"/><path class="cls-12" d="M100.634 96.732l4.8-14.641M120.795 34.572l4.8-14.4M100.634 20.172l4.8 14.4M120.795 82.091l4.8 14.641M80.475 34.812l12.24 8.88M133.515 73.212l12.24 8.879M72.794 58.332l15.36.24M138.074 58.332l15.36.24M80.475 82.091l12.48-8.879M133.515 43.692l12.24-8.88M80.475 34.812a40.274 40.274 0 0120.16-14.88"/><path class="cls-1" d="M-21.925 4.532h270.32v129.68h-270.32z"/><path class="cls-12" d="M72.795 58.332v2.64l.239 2.4.48 2.64.48 2.4.72 2.4.96 2.4.961 2.4 1.199 2.16 1.2 2.16 1.44 2.159M125.595 96.732a36.706 36.706 0 01-12.48 1.92 37.623 37.623 0 01-12.48-1.92"/><path class="cls-1" d="M-21.925 4.532h270.32v129.68h-270.32z"/><path class="cls-12" d="M145.755 82.091l1.439-2.159 1.201-2.16 1.2-2.16.96-2.4.96-2.4.719-2.4.481-2.4.479-2.64.241-2.4v-2.64M125.595 19.932a40.274 40.274 0 0120.16 14.88"/><path class="cls-1" d="M-21.925 4.532h270.32v129.68h-270.32z"/><path class="cls-12" d="M41.114 106.091v.48l.24.241.24.48.48.24.24.24h.48M48.074 114.492h18M48.074 114.492v-6.72M66.074 114.492v-6.72M42.794 107.772h25.921M68.955 107.772h.48l.48-.239.24-.24.24-.481.24-.24v-.481M42.795 69.852l-.481.24h-.239l-.481.24-.239.48-.241.48v.48M41.114 106.091V71.772M50.955 112.091v-.959M50.955 111.132v-1.2M50.955 111.132h.96M49.754 111.132h1.2M56.475 112.091v-.959M56.475 111.132v-1.2M56.475 111.132h1.2M55.275 111.132h1.199M61.995 112.091v-.959M61.995 111.132v-1.2M61.995 111.132h1.2M61.034 111.132h.96"/><path class="cls-6" d="M44.714 94.572l22.08.24M67.034 104.171v-9.6"/><text class="cls-10" transform="translate(48.313 93.371)">W</text><text class="cls-11" transform="translate(53.979 93.371)"></text><path class="cls-1" d="M48.315 87.851h5.521v6.961h-5.521z"/><text class="cls-10" transform="translate(60.073 93.371)">B</text><text class="cls-11" transform="translate(64.076 93.371)"></text><path class="cls-1" d="M60.075 87.851h4.08v6.961h-4.08z"/><text class="cls-10" transform="translate(54.793 93.371)">R</text><text class="cls-11" transform="translate(59.126 93.371)"></text><path class="cls-1" d="M54.794 87.851h4.32v6.961h-4.32z"/><path class="cls-6" d="M44.714 104.171v-9.6M44.714 104.171h22.08"/><path class="cls-7" d="M48.674 102.372l.24-5.761M65.475 102.372v-5.761M48.674 102.372h16.8M48.674 96.612l16.8.24"/><path class="cls-6" d="M188.234 17.532a6.96 6.96 0 11-6.96-6.96 6.965 6.965 0 016.96 6.96"/><path class="cls-6" d="M185.355 17.532a4 4 0 01-4.08 3.84 3.79 3.79 0 01-3.84-3.84 4 4 0 013.84-4.08 4.206 4.206 0 014.08 4.08M51.915 126.012a6.96 6.96 0 11-6.96-6.96 6.965 6.965 0 016.96 6.96"/><path class="cls-6" d="M48.794 126.012a3.84 3.84 0 11-3.84-3.84 3.79 3.79 0 013.84 3.84"/><path class="cls-1" d="M-21.925 4.532h270.32v129.68h-270.32z"/><path class="cls-6" d="M37.995 126.012v-60.96"/><path class="cls-12" d="M161.114 46.092h18.48M161.114 49.452h18.48M179.595 49.452h.239l.481-.24.48-.24.239-.24v-.48l.241-.48-.241-.48v-.24l-.239-.48-.48-.24h-.481l-.239-.24M161.114 46.092l-.479.24h-.241l-.48.24-.239.48-.241.24v.96l.241.48.239.24.48.24.241.24h.479M46.634 46.092h18.48M46.634 49.452h18.48M65.114 49.452h.48l.24-.24.48-.24.24-.24.24-.48v-.96l-.24-.24-.24-.48-.48-.24h-.24l-.48-.24M46.634 46.092l-.24.24h-.48l-.24.24-.48.48v.24l-.24.48.24.48v.48l.48.24.24.24.48.24h.24"/><path d="M54.315 108.251h11.04v5.521h-11.04z"/><path class="cls-13" d="M54.434 108.373h11.04v5.52h-11.04z"/><path class="cls-7" d="M53.234 30.372v-4.8M58.754 30.372l.24-4.8M52.035 25.572l7.92.24M52.035 25.572l.24-11.04M59.955 25.572v-11.04M52.035 14.532h7.92"/><path class="cls-6" d="M62.955 36.732a6.96 6.96 0 11-6.96-6.96 6.965 6.965 0 016.96 6.96"/><path class="cls-1" d="M-21.925 4.532h270.32v129.68h-270.32z"/><path class="cls-7" d="M46.754 47.892h18.48"/><path class="cls-8" d="M53.114 65.292h5.52v4.8h-5.52z"/><path class="cls-9" d="M53.234 65.412h5.52v4.8h-5.52z"/><path class="cls-8" d="M51.914 70.092h7.92v11.041h-7.92z"/><path class="cls-9" d="M52.035 70.212h7.92v11.04h-7.92z"/><path class="cls-7" d="M53.234 70.212v-4.8M58.754 70.212l.24-4.8M52.035 70.212h7.92M52.035 81.251l.24-11.04M59.955 81.251v-11.04M52.035 81.251l7.92.24"/><path class="cls-6" d="M62.955 59.052a6.96 6.96 0 11-6.96-6.96 6.965 6.965 0 016.96 6.96"/><path class="cls-1" d="M-21.925 4.532h270.32v129.68h-270.32z"/><path class="cls-5" d="M61.634 6.132l-1.44.24-1.44.48-1.2.96-.72 1.2-.72 1.2v1.68M68.355 11.892l-.241-1.68-.479-1.2-.961-1.2-1.2-.96-1.2-.48-1.44-.24M61.634 6.132h1.2M68.355 82.692v-70.8M70.034 84.372h.48M68.355 82.692v.24l.239.48.24.24.24.48h.48l.48.241"/><text transform="translate(41.593 75.913)" font-size="5.285" font-family="Verdana">12V</text><text transform="translate(50.996 75.913)" font-size="8.667" font-family="Verdana"></text><text class="cls-10" transform="translate(38.953 26.412)">GN</text><path class="cls-1" d="M38.955 20.891h13.2v6.961h-13.2z"/><path d="M-19.846 32.172h39.12v8.88h-39.12z"/><path class="cls-13" d="M-19.726 32.292h39.12v8.88h-39.12z"/><path class="cls-16" d="M-19.846 54.492h39.12v8.88h-39.12z"/><path stroke-miterlimit="10" stroke-width=".24" stroke="gray" fill="none" d="M-19.726 54.612h39.12v8.88h-39.12z"/><path d="M207.152 32.172h69.981v8.88h-69.981z"/><path class="cls-13" d="M207.075 32.292h39.12v8.88h-39.12z"/><path class="cls-16" d="M207.165 54.492h72.012v8.88h-72.012z"/><path class="cls-4" d="M56.114 82.692v.24l.24.48.24.24.24.48h.48l.48.241"/><path d="M135.68 105.943H90.79a5.476 5.476 0 00-5.475 5.477v10.947a5.475 5.475 0 005.474 5.475h44.89a5.475 5.475 0 005.475-5.475V111.42a5.476 5.476 0 00-5.475-5.477"/><path class="cls-18" d="M117.208 112.457h.441l1.412 2.556 1.411-2.556h.442l-1.612 2.908h-.483l-1.611-2.908zM121.591 112.458h.395v2.908h-.395zM122.794 113.513c0-.734.25-1.089 1.038-1.089h1.507c.715 0 .912.332.912.724v.25h-.345v-.134c0-.495-.306-.52-.667-.52h-1.367c-.378 0-.682.115-.682.622v1.091c0 .507.304.621.682.621h1.379c.529 0 .684-.114.684-.506v-.182h.369v.197c0 .528-.17.812-.986.812h-1.486c-.788 0-1.037-.355-1.037-1.089zM128.317 112.779h-1.472v-.321h3.336v.321h-1.47v2.587h-.394v-2.587zM130.748 113.513c0-.734.248-1.088 1.036-1.088h1.675c.79 0 1.038.354 1.038 1.088v.797c0 .735-.249 1.089-1.038 1.089h-1.675c-.788 0-1.036-.354-1.036-1.09zm3.355-.147c0-.507-.306-.621-.684-.621h-1.594c-.379 0-.684.114-.684.62v1.093c0 .507.305.62.684.62h1.594c.378 0 .684-.113.684-.62zM135.296 112.458h2.33c.837 0 .97.275.97.823v.236c0 .41-.233.524-.534.552v.008c.401.072.498.28.498.547v.742h-.37v-.638c0-.454-.22-.512-.579-.512h-1.921v1.15h-.394zm2.282 1.437c.44 0 .623-.116.623-.421v-.266c0-.326-.139-.43-.719-.43h-1.792v1.117zM116.839 119.757c0-.539.22-.827.889-.924v-.015a.956.956 0 01-.862-1.048v-.282c0-1.118.482-1.193 2.448-1.193h1.517c1.276 0 1.855.242 1.855 1.186v.326c0 .536-.131.894-.834.983v.014a.989.989 0 01.875 1.062v.4c0 .834-.531 1.131-1.462 1.131h-2.882c-1.076 0-1.544-.407-1.544-1.207zm3.847.565c.517 0 .594-.151.594-.504 0-.385-.07-.496-.677-.496h-1.64c-.608 0-.676.11-.676.496 0 .353.076.505.593.505zm-.034-2.035c.448 0 .586-.179.586-.462a.41.41 0 00-.47-.453h-1.985a.41.41 0 00-.47.454c0 .283.139.46.587.46zM124.937 119.757c0-.539.22-.827.89-.924v-.015a.956.956 0 01-.862-1.048v-.282c0-1.118.482-1.193 2.448-1.193h1.517c1.276 0 1.855.242 1.855 1.186v.326c0 .536-.131.894-.834.983v.014a.99.99 0 01.875 1.062v.4c0 .834-.531 1.131-1.462 1.131h-2.882c-1.076 0-1.545-.407-1.545-1.207zm3.847.565c.518 0 .594-.151.594-.504 0-.385-.068-.496-.677-.496h-1.64c-.608 0-.675.11-.675.496 0 .353.075.505.593.505zm-.034-2.035c.448 0 .587-.179.587-.462a.41.41 0 00-.47-.453h-1.985a.41.41 0 00-.47.454c0 .283.138.46.586.46zM133.158 119.7c0-.537.22-.827.89-.924v-.014a.957.957 0 01-.863-1.049v-.281c0-1.118.483-1.194 2.45-1.194h1.515c1.278 0 1.856.242 1.856 1.186v.324c0 .539-.13.897-.834.988v.013a.992.992 0 01.877 1.062v.399c0 .835-.534 1.131-1.465 1.131h-2.882c-1.075 0-1.544-.407-1.544-1.207zm3.847.564c.518 0 .592-.15.592-.502 0-.385-.066-.495-.675-.495h-1.639c-.609 0-.676.11-.676.495 0 .352.075.502.593.502zm-.034-2.033c.447 0 .587-.18.587-.461a.412.412 0 00-.47-.457h-1.985a.412.412 0 00-.47.457c0 .281.138.461.586.461zM110.749 112.322a.093.093 0 00-.053.017l-2.196 1.527-2.206-1.527a.093.093 0 00-.053-.017h-1.94a.092.092 0 00-.088.065.098.098 0 00-.005.028.1.1 0 00.042.077l3.14 2.126-3.408 2.284a.098.098 0 00-.042.077.08.08 0 00.005.027.092.092 0 00.089.066h1.98a.085.085 0 00.054-.018s2.329-1.612 2.432-1.682l2.41 1.682a.087.087 0 00.053.018h1.95a.093.093 0 00.089-.066.118.118 0 00.003-.027.096.096 0 00-.04-.077s-3.175-2.14-3.39-2.282l3.154-2.128a.094.094 0 00.037-.105.093.093 0 00-.09-.065zM95.506 112.322a.093.093 0 00-.072.035l-2.905 3.553c-.136-.172-2.852-3.553-2.852-3.553a.093.093 0 00-.072-.035h-1.628a.092.092 0 00-.084.054.09.09 0 00.012.097l3.76 4.565a.095.095 0 00.071.034h1.585a.092.092 0 00.071-.034l3.813-4.565a.086.086 0 00.013-.097.092.092 0 00-.084-.054z"/><path class="cls-19" d="M98.08 112.322a2.744 2.744 0 01-.3-1.291c0-1.04.521-1.911 1.154-1.911h4.012c.214 0 .39.292.39.643 0 .355-.176.645-.39.645h-4.012c-.212 0-.376.29-.376.623 0 .334.151.657.376.657h4.012c.214 0 .39.284.39.634s-.176.634-.39.634h-4.012c-.225 0-.376.322-.376.656s.164.623.376.623h4.012c.214 0 .39.29.39.645 0 .353-.176.645-.39.645h-4.012c-.633 0-1.154-.874-1.154-1.913a2.73 2.73 0 01.3-1.29z"/><path class="cls-18" d="M113.443 116.503a.324.324 0 01.155.041.294.294 0 01.117.115.334.334 0 01.042.16.317.317 0 01-.042.154.285.285 0 01-.116.115.309.309 0 01-.311 0 .29.29 0 01-.115-.115.307.307 0 01-.042-.155.323.323 0 01.042-.159.288.288 0 01.117-.115.32.32 0 01.153-.04m0 .053a.27.27 0 00-.128.032.238.238 0 00-.097.097.261.261 0 00-.035.132.258.258 0 00.034.127.225.225 0 00.097.096.244.244 0 00.129.035.248.248 0 00.13-.035.242.242 0 00.098-.096.269.269 0 00.034-.127.272.272 0 00-.035-.132.247.247 0 00-.098-.097.27.27 0 00-.13-.032m-.136.432v-.335h.117a.306.306 0 01.085.007.075.075 0 01.042.035.074.074 0 01.016.047.095.095 0 01-.026.065.105.105 0 01-.07.03.182.182 0 01.029.02.59.59 0 01.049.065l.04.066h-.065l-.03-.052a.242.242 0 00-.057-.078.068.068 0 00-.044-.01h-.031v.14zm.055-.189h.066a.118.118 0 00.064-.014.046.046 0 00.017-.038.046.046 0 00-.007-.026.092.092 0 00-.024-.019.181.181 0 00-.054-.004h-.062z"/><path class="cls-19" d="M87.893 124.048v-.105l.1.038-.1-.038v.105h-.154l2.108-5.529h4.515a2.021 2.021 0 011.177.272.89.89 0 01.362.766 2.71 2.71 0 01-.21.928l-.174.455a2.493 2.493 0 01-2.246 1.772h-3.165l-.51 1.336zm1.558-.21l.51-1.337h3.31a2.286 2.286 0 002.049-1.638l.173-.454a2.486 2.486 0 00.195-.852.67.67 0 00-.273-.59 1.794 1.794 0 00-1.053-.235h-4.37l-1.944 5.105z"/><path class="cls-19" d="M90.43 121.285a.105.105 0 01.106-.106h2.534a.68.68 0 00.645-.498l.078-.205a.646.646 0 00.05-.217.147.147 0 00-.071-.141.652.652 0 00-.333-.064h-2.394a.106.106 0 110-.212h2.394a.84.84 0 01.448.097.364.364 0 01.168.32.855.855 0 01-.063.294l-.079.205a.896.896 0 01-.843.633h-2.534a.105.105 0 01-.106-.106M100.737 124.048v-.105l.1.038-.1-.038v.105h-.153l.298-.782a1.225 1.225 0 00.099-.399c-.003-.089-.02-.112-.067-.144a.631.631 0 00-.32-.055h-2.49l-.524 1.38h-1.86l2.108-5.529h4.994a1.67 1.67 0 01.972.226.77.77 0 01.31.66 2.474 2.474 0 01-.191.837l-.13.338a1.88 1.88 0 01-1.163 1.283 1.026 1.026 0 01.129.085.608.608 0 01.206.49 1.843 1.843 0 01-.144.638l-.37.972zm-4.707-.21h1.403l.527-1.383h2.635a.864.864 0 01.428.084.36.36 0 01.17.328 1.415 1.415 0 01-.113.475l-.19.494h1.405l.318-.834a1.65 1.65 0 00.13-.565.399.399 0 00-.13-.327.838.838 0 00-.362-.142l-.123-.024.07-.185.056-.012a1.652 1.652 0 001.332-1.242l.129-.338a2.275 2.275 0 00.177-.762.554.554 0 00-.222-.488 1.48 1.48 0 00-.848-.185h-4.847z"/><path class="cls-19" d="M98.43 121.24a.107.107 0 01.105-.106h2.696a.763.763 0 00.457-.116.773.773 0 00.259-.374l.067-.174a.76.76 0 00.057-.242c-.006-.08-.016-.091-.088-.127a1.22 1.22 0 00-.407-.047h-2.548a.106.106 0 110-.212h2.548a1.326 1.326 0 01.488.063.332.332 0 01.22.323.929.929 0 01-.073.317l-.067.175a.96.96 0 01-.334.472.985.985 0 01-.579.155h-2.696a.106.106 0 01-.105-.106M106.428 124.108a3.244 3.244 0 01-1.374-.217.926.926 0 01-.548-.9 2.75 2.75 0 01.214-.952l.603-1.585a2.893 2.893 0 011.258-1.602 3.874 3.874 0 011.917-.391h2.615a3.294 3.294 0 011.376.217.926.926 0 01.546.899 2.737 2.737 0 01-.213.952l-.604 1.587a2.888 2.888 0 01-1.257 1.6 3.86 3.86 0 01-1.918.392zm-1.51-1.992a2.53 2.53 0 00-.199.876.709.709 0 00.428.709 3.076 3.076 0 001.281.195h2.615a3.655 3.655 0 001.813-.364 2.674 2.674 0 001.164-1.493l.604-1.585a2.51 2.51 0 00.198-.877.707.707 0 00-.427-.707 3.046 3.046 0 00-1.282-.196h-2.615a3.663 3.663 0 00-1.814.365 2.67 2.67 0 00-1.162 1.49z"/><path class="cls-19" d="M109.3 122.743h-2.629a.106.106 0 010-.213h2.628a1.118 1.118 0 00.78-.22 1.815 1.815 0 00.458-.778l.218-.571a1.676 1.676 0 00.138-.552.289.289 0 00-.123-.265.999.999 0 00-.53-.104h-2.452a.107.107 0 01-.105-.107.106.106 0 01.105-.105h2.451a1.168 1.168 0 01.65.142.5.5 0 01.216.439 1.874 1.874 0 01-.15.627l-.219.574a2.04 2.04 0 01-.52.863 1.334 1.334 0 01-.913.27z"/><path class="cls-1" d="M-21.925 4.532h270.32v129.68h-270.32z"/><path stroke="#000" fill="none" d="M175.153 125.796l13.13 16.523"/><path d="M171.754 121.52l2.365 7.078 3.995-3.176-6.36-3.902z"/></g></svg>