<svg id="Layer_1" data-name="Layer 1" xmlns="http://www.w3.org/2000/svg" xmlns:xlink="http://www.w3.org/1999/xlink" viewBox="0 0 192.8184 179.5113"><defs><style>.cls-1{fill:none;}.cls-2{fill:#323031;}.cls-20,.cls-3{fill:#819356;}.cls-10,.cls-21,.cls-4{fill:#fff;}.cls-5{fill:#bc2030;}.cls-11,.cls-15,.cls-19,.cls-6{fill:#221f1f;}.cls-7{fill:#5a5a5c;}.cls-8{fill:#f2f2f2;}.cls-9{fill:#079247;}.cls-10,.cls-11,.cls-20,.cls-21{font-size:8.8489px;}.cls-10,.cls-11,.cls-15,.cls-19,.cls-20,.cls-21{font-family:Verdana;}.cls-12,.cls-21{letter-spacing:0.001em;}.cls-13{letter-spacing:0.0001em;}.cls-14{letter-spacing:0.0009em;}.cls-15,.cls-19{font-size:7.8656px;}.cls-16,.cls-19{letter-spacing:0.0011em;}.cls-17{letter-spacing:0.001em;}.cls-18{letter-spacing:-0.0001em;}.cls-22{letter-spacing:-0.0001em;}.cls-23{letter-spacing:-0.013em;}.cls-24{clip-path:url(#clip-path);}.cls-25{opacity:0.33;}.cls-26{fill:#231f20;}.cls-27{fill:#00aeef;}</style><clipPath id="clip-path"><path class="cls-1" d="M179.824,3.9668H13.7069a8.8493,8.8493,0,0,0-8.849,8.849V165.2517a8.8493,8.8493,0,0,0,8.849,8.8491H179.824a8.8492,8.8492,0,0,0,8.849-8.8491V12.8158A8.8492,8.8492,0,0,0,179.824,3.9668ZM21.0718,163.7259A6.258,6.258,0,1,1,27.33,157.468,6.2583,6.2583,0,0,1,21.0718,163.7259Zm0-135.4209A6.258,6.258,0,1,1,27.33,22.0471,6.2583,6.2583,0,0,1,21.0718,28.305Zm150.08,138.4492a6.258,6.258,0,1,1,6.258-6.2579A6.2583,6.2583,0,0,1,171.1519,166.7542ZM172.56,26.2093a6.258,6.258,0,1,1,6.258-6.2579A6.2583,6.2583,0,0,1,172.56,26.2093Z"/></clipPath></defs><path class="cls-2" d="M179.8543,3.7627H13.7372a8.8492,8.8492,0,0,0-8.849,8.849V165.0476a8.8492,8.8492,0,0,0,8.849,8.8491H179.8543a8.8493,8.8493,0,0,0,8.849-8.8491V12.6117A8.8493,8.8493,0,0,0,179.8543,3.7627ZM21.1021,163.5218a6.258,6.258,0,1,1,6.258-6.2579A6.2583,6.2583,0,0,1,21.1021,163.5218Zm0-135.4209A6.258,6.258,0,1,1,27.36,21.843,6.2583,6.2583,0,0,1,21.1021,28.1009ZM171.1821,166.55a6.258,6.258,0,1,1,6.2581-6.258A6.2583,6.2583,0,0,1,171.1821,166.55ZM172.59,26.0052a6.258,6.258,0,1,1,6.2581-6.2579A6.2582,6.2582,0,0,1,172.59,26.0052Z"/><path class="cls-3" d="M86.9939,160.2913h-9.915a1.5358,1.5358,0,0,1-1.536-1.536v-37.187a1.5358,1.5358,0,0,1,1.536-1.536h9.915a1.5357,1.5357,0,0,1,1.5359,1.536v37.187a1.5357,1.5357,0,0,1-1.5359,1.536"/><path class="cls-3" d="M85.4412,149.9729c0,5.698-5.2311,10.318-11.687,10.318-6.4541,0-11.6861-4.62-11.6861-10.318s5.232-10.317,11.6861-10.317c6.4559,0,11.687,4.6189,11.687,10.317"/><polygon class="cls-4" points="132.392 89.731 132.392 42.514 138.223 39.296 186.077 39.296 186.077 89.731 132.392 89.731"/><polygon class="cls-3" points="132.392 89.731 132.392 136.945 138.223 140.163 186.077 140.163 186.077 89.731 132.392 89.731"/><path class="cls-3" d="M114.8465,73.5491h-35.99a1.77,1.77,0,0,1-1.77-1.77V10.06a1.7706,1.7706,0,0,1,1.77-1.77h35.99a1.77,1.77,0,0,1,1.77,1.77v61.719a1.77,1.77,0,0,1-1.77,1.77"/><rect class="cls-5" x="77.0864" y="7.8018" width="19.799" height="52.4771"/><rect class="cls-6" x="96.8185" y="7.8018" width="19.798" height="52.4771"/><polygon class="cls-4" points="61.4 89.73 61.4 42.513 55.568 39.295 7.704 39.295 7.704 89.73 61.4 89.73"/><polygon class="cls-3" points="61.4 89.73 61.4 136.944 55.568 140.162 7.704 140.162 7.704 89.73 61.4 89.73"/><rect class="cls-7" x="14.8445" y="41.8648" width="20.433" height="11.653"/><rect class="cls-8" x="19.4354" y="44.0498" width="13.11" height="6.9189"/><path class="cls-6" d="M25.5359,47.6917a4.5976,4.5976,0,1,1-4.598-4.598,4.5986,4.5986,0,0,1,4.598,4.598"/><rect class="cls-7" x="14.8445" y="53.4189" width="20.433" height="11.653"/><rect class="cls-8" x="19.4354" y="55.6038" width="13.11" height="6.9189"/><path class="cls-6" d="M25.5359,59.2454a4.5976,4.5976,0,1,1-4.598-4.598,4.5986,4.5986,0,0,1,4.598,4.598"/><rect class="cls-7" x="14.8445" y="65.0717" width="20.433" height="11.6541"/><rect class="cls-8" x="19.4354" y="67.2569" width="13.11" height="6.9189"/><path class="cls-6" d="M25.5359,70.8987a4.5976,4.5976,0,1,1-4.598-4.598,4.5985,4.5985,0,0,1,4.598,4.598"/><rect class="cls-7" x="14.8445" y="76.7259" width="20.433" height="11.653"/><rect class="cls-8" x="19.4356" y="78.9103" width="13.1101" height="6.9196"/><path class="cls-6" d="M25.5359,82.552a4.5976,4.5976,0,1,1-4.598-4.598,4.5985,4.5985,0,0,1,4.598,4.598"/><rect class="cls-7" x="14.8445" y="87.7049" width="20.433" height="11.653"/><rect class="cls-8" x="19.4354" y="89.8888" width="13.11" height="6.9189"/><path class="cls-6" d="M25.5359,93.5306a4.5976,4.5976,0,1,1-4.598-4.5981,4.5986,4.5986,0,0,1,4.598,4.5981"/><rect class="cls-7" x="14.8445" y="99.2588" width="20.433" height="11.653"/><rect class="cls-8" x="19.4354" y="101.4428" width="13.11" height="6.92"/><path class="cls-6" d="M25.5359,105.0843a4.5976,4.5976,0,1,1-4.598-4.5981,4.5979,4.5979,0,0,1,4.598,4.5981"/><rect class="cls-7" x="14.8445" y="110.9118" width="20.433" height="11.653"/><rect class="cls-8" x="19.4354" y="113.0968" width="13.11" height="6.9189"/><path class="cls-6" d="M25.5359,116.7386a4.5976,4.5976,0,1,1-4.598-4.5981,4.5986,4.5986,0,0,1,4.598,4.5981"/><rect class="cls-7" x="14.8445" y="122.5649" width="20.433" height="11.653"/><rect class="cls-8" x="19.4354" y="124.7498" width="13.11" height="6.9189"/><path class="cls-6" d="M25.5359,128.3919a4.5976,4.5976,0,1,1-4.598-4.598,4.5986,4.5986,0,0,1,4.598,4.598"/><rect class="cls-7" x="95.8015" y="14.6169" width="11.6541" height="20.433"/><rect class="cls-8" x="98.3515" y="19.2088" width="6.9189" height="13.11"/><path class="cls-6" d="M101.6287,25.3079a4.5976,4.5976,0,1,1,4.5979-4.598,4.5979,4.5979,0,0,1-4.5979,4.598"/><rect class="cls-7" x="84.2475" y="14.6169" width="11.653" height="20.433"/><rect class="cls-8" x="86.7975" y="19.2088" width="6.9189" height="13.11"/><path class="cls-6" d="M90.075,25.3079a4.5976,4.5976,0,1,1,4.5979-4.598,4.598,4.598,0,0,1-4.5979,4.598"/><path class="cls-9" d="M81.865,150.0911a8.5731,8.5731,0,1,1-8.5731-8.5731,8.5741,8.5741,0,0,1,8.5731,8.5731"/><rect class="cls-5" x="35.2775" y="41.9728" width="14.983" height="11.438"/><rect class="cls-6" x="35.2775" y="53.4108" width="14.983" height="11.653"/><rect class="cls-5" x="35.2775" y="65.0638" width="14.983" height="11.438"/><rect class="cls-6" x="35.2775" y="76.5028" width="14.983" height="11.653"/><rect class="cls-5" x="35.2775" y="88.1558" width="14.983" height="11.438"/><rect class="cls-6" x="35.2775" y="99.5949" width="14.983" height="11.653"/><rect class="cls-5" x="35.2775" y="111.2478" width="14.983" height="11.438"/><rect class="cls-6" x="35.2775" y="122.6857" width="14.983" height="11.6541"/><rect class="cls-5" x="7.7035" y="42.1958" width="7.141" height="11.438"/><rect class="cls-6" x="7.7035" y="53.6348" width="7.141" height="11.653"/><rect class="cls-5" x="7.7035" y="65.2878" width="7.141" height="11.438"/><rect class="cls-6" x="7.7035" y="76.7259" width="7.141" height="11.653"/><rect class="cls-5" x="7.7035" y="88.3798" width="7.141" height="11.438"/><rect class="cls-6" x="7.7035" y="99.8178" width="7.141" height="11.653"/><rect class="cls-5" x="7.7035" y="111.4718" width="7.141" height="11.438"/><rect class="cls-6" x="7.7035" y="122.9098" width="7.141" height="11.653"/><rect class="cls-7" x="158.5025" y="123.9508" width="20.434" height="11.653"/><rect class="cls-8" x="161.2342" y="126.4993" width="13.11" height="6.9194"/><path class="cls-6" d="M168.2449,129.7767a4.5975,4.5975,0,1,1,4.5979,4.5979,4.5985,4.5985,0,0,1-4.5979-4.5979"/><rect class="cls-7" x="158.5025" y="112.3968" width="20.434" height="11.653"/><rect class="cls-8" x="161.2345" y="114.9458" width="13.11" height="6.9189"/><path class="cls-6" d="M168.2449,118.2229a4.5975,4.5975,0,1,1,4.5979,4.5979,4.5985,4.5985,0,0,1-4.5979-4.5979"/><rect class="cls-7" x="158.5025" y="100.7428" width="20.434" height="11.6541"/><rect class="cls-8" x="161.2345" y="103.2918" width="13.11" height="6.9189"/><path class="cls-6" d="M168.2449,106.57a4.5975,4.5975,0,1,1,4.5979,4.5979,4.5985,4.5985,0,0,1-4.5979-4.5979"/><rect class="cls-7" x="158.5025" y="89.0888" width="20.434" height="11.653"/><rect class="cls-8" x="161.2345" y="91.6388" width="13.11" height="6.9189"/><path class="cls-6" d="M168.2449,94.9163a4.5975,4.5975,0,1,1,4.5979,4.5979,4.5984,4.5984,0,0,1-4.5979-4.5979"/><rect class="cls-7" x="158.5025" y="78.1108" width="20.434" height="11.653"/><rect class="cls-8" x="161.2345" y="80.6608" width="13.11" height="6.9189"/><path class="cls-6" d="M168.2449,83.9378a4.5975,4.5975,0,1,1,4.5979,4.5979,4.5984,4.5984,0,0,1-4.5979-4.5979"/><rect class="cls-7" x="158.5025" y="66.5568" width="20.434" height="11.653"/><rect class="cls-8" x="161.2345" y="69.1058" width="13.11" height="6.92"/><path class="cls-6" d="M168.2449,72.3841a4.5975,4.5975,0,1,1,4.5979,4.5979,4.5979,4.5979,0,0,1-4.5979-4.5979"/><rect class="cls-7" x="158.5025" y="54.9038" width="20.434" height="11.653"/><rect class="cls-8" x="161.2345" y="57.4528" width="13.11" height="6.92"/><path class="cls-6" d="M168.2449,60.73a4.5975,4.5975,0,1,1,4.5979,4.5979,4.5984,4.5984,0,0,1-4.5979-4.5979"/><rect class="cls-7" x="158.5025" y="43.2498" width="20.434" height="11.653"/><rect class="cls-8" x="161.2345" y="45.7987" width="13.11" height="6.9189"/><path class="cls-6" d="M168.2449,49.0765a4.5975,4.5975,0,1,1,4.5979,4.5979,4.5985,4.5985,0,0,1-4.5979-4.5979"/><rect class="cls-5" x="143.5204" y="124.0578" width="14.9821" height="11.438"/><rect class="cls-6" x="143.5204" y="112.4048" width="14.9821" height="11.653"/><rect class="cls-5" x="143.5204" y="100.9657" width="14.9821" height="11.438"/><rect class="cls-6" x="143.5204" y="89.3128" width="14.9821" height="11.653"/><rect class="cls-5" x="143.5204" y="77.8748" width="14.9821" height="11.438"/><rect class="cls-6" x="143.5204" y="66.2207" width="14.9821" height="11.653"/><rect class="cls-5" x="143.5204" y="54.7828" width="14.9821" height="11.438"/><rect class="cls-6" x="143.5204" y="43.1288" width="14.9821" height="11.653"/><rect class="cls-5" x="178.9354" y="123.8338" width="7.141" height="11.438"/><rect class="cls-6" x="178.9354" y="112.1808" width="7.141" height="11.653"/><rect class="cls-5" x="178.9354" y="100.7428" width="7.141" height="11.438"/><rect class="cls-6" x="178.9354" y="89.0888" width="7.141" height="11.653"/><rect class="cls-5" x="178.9354" y="77.6508" width="7.141" height="11.438"/><rect class="cls-6" x="178.9354" y="65.9978" width="7.141" height="11.653"/><rect class="cls-5" x="178.9354" y="54.5588" width="7.141" height="11.438"/><rect class="cls-6" x="178.9354" y="42.9058" width="7.141" height="11.653"/><text class="cls-10" transform="translate(84.2975 52.9506)">+</text><text class="cls-10" transform="translate(104.9597 52.9506)">-</text><text class="cls-11" transform="translate(109.5291 63.0037) rotate(180)"><tspan class="cls-12">12</tspan><tspan class="cls-13" x="11.2686" y="0">V</tspan><tspan class="cls-14" x="17.3184" y="0">i</tspan><tspan x="19.7549" y="0">n</tspan></text><text class="cls-15" transform="translate(53.7459 91.0556) rotate(90)"><tspan class="cls-16">12</tspan><tspan x="10.0166" y="0">V</tspan><tspan class="cls-16" x="15.3936" y="0">500m</tspan><tspan x="38.0771" y="0">A</tspan></text><text class="cls-15" transform="translate(53.4686 52.5165) rotate(90)"><tspan class="cls-17">12</tspan><tspan x="10.0166" y="0">V</tspan><tspan class="cls-17" x="15.3936" y="0" xml:space="preserve"> 2</tspan><tspan x="23.1748" y="0">A</tspan></text><text class="cls-15" transform="translate(141.1071 78.1981) rotate(-90)"><tspan class="cls-17">5</tspan><tspan class="cls-18" x="5.0088" y="0">V</tspan><tspan class="cls-17" x="10.3848" y="0" xml:space="preserve"> 2</tspan><tspan x="18.167" y="0">A</tspan></text><text class="cls-15" transform="translate(141.1071 132.8865) rotate(-90)"><tspan class="cls-16">5</tspan><tspan class="cls-18" x="5.0088" y="0">V</tspan><tspan class="cls-17" x="10.3848" y="0" xml:space="preserve"> 500m</tspan><tspan x="35.8418" y="0">A</tspan></text><text class="cls-15" transform="translate(79.3846 123.1615) rotate(90)"><tspan class="cls-16">12</tspan><tspan x="10.0166" y="0">V</tspan></text><path class="cls-3" d="M105.658,160.2923h9.9189a1.5358,1.5358,0,0,0,1.536-1.536v-37.187a1.5358,1.5358,0,0,0-1.536-1.5361H105.658a1.5364,1.5364,0,0,0-1.536,1.5361v37.187a1.5365,1.5365,0,0,0,1.536,1.536"/><path class="cls-3" d="M107.2117,149.9739c0,5.698,5.2329,10.318,11.689,10.318s11.69-4.62,11.69-10.318-5.2329-10.317-11.69-10.317-11.689,4.6189-11.689,10.317"/><path class="cls-9" d="M127.4744,149.9729a8.5731,8.5731,0,1,1-8.5731-8.5731,8.5734,8.5734,0,0,1,8.5731,8.5731"/><text class="cls-19" transform="translate(113.3767 134.5701) rotate(-90)">5<tspan class="cls-18" x="5.0088" y="0">V</tspan></text><text class="cls-20" transform="translate(76.5026 87.0639)">V</text><text class="cls-21" transform="translate(81.9538 87.0637)">o<tspan class="cls-22" x="5.3799" y="0">ltage</tspan></text><text class="cls-20" transform="translate(76.5026 97.2756)">R</text><text class="cls-10" transform="translate(81.9636 97.2753)"><tspan class="cls-12">e</tspan><tspan class="cls-22" x="5.2803" y="0">gula</tspan><tspan class="cls-23" x="24.1357" y="0">t</tspan><tspan class="cls-12" x="27.5078" y="0">o</tspan><tspan x="32.8877" y="0">r</tspan></text><text class="cls-20" transform="translate(76.5026 107.85)">M</text><text class="cls-21" transform="translate(84.237 107.85)">o<tspan class="cls-22" x="5.3799" y="0">dule</tspan></text><path class="cls-4" d="M21.1021,151.0059a6.258,6.258,0,1,0,6.258,6.258A6.2583,6.2583,0,0,0,21.1021,151.0059Z"/><path class="cls-4" d="M21.1021,15.585a6.258,6.258,0,1,0,6.258,6.258A6.2583,6.2583,0,0,0,21.1021,15.585Z"/><path class="cls-4" d="M171.1821,154.0342a6.258,6.258,0,1,0,6.2581,6.258A6.2583,6.2583,0,0,0,171.1821,154.0342Z"/><path class="cls-4" d="M0,0V179.5113H192.8184V0ZM188.7033,165.0476a8.8493,8.8493,0,0,1-8.849,8.8491H13.7372a8.8492,8.8492,0,0,1-8.849-8.8491V12.6117a8.8492,8.8492,0,0,1,8.849-8.849H179.8543a8.8493,8.8493,0,0,1,8.849,8.849Z"/><path class="cls-4" d="M172.59,13.4893a6.258,6.258,0,1,0,6.2581,6.258A6.2583,6.2583,0,0,0,172.59,13.4893Z"/><g class="cls-24"><g class="cls-25"><path class="cls-26" d="M10.7435,192.4266a25.0716,25.0716,0,0,1-25.043-25.043V12.1609A25.0715,25.0715,0,0,1,10.7435-12.882H175.7977a25.0715,25.0715,0,0,1,25.043,25.0429V167.3836a25.0716,25.0716,0,0,1-25.043,25.043Zm53.189-78.1573a5.7064,5.7064,0,0,0-5.7,5.7v39.2813a5.7064,5.7064,0,0,0,5.7,5.7h65.69a5.7061,5.7061,0,0,0,5.7-5.7V119.97a5.7061,5.7061,0,0,0-5.7-5.7Z"/></g><path class="cls-27" d="M175.7977-11.382a23.5436,23.5436,0,0,1,23.543,23.543V167.384a23.5428,23.5428,0,0,1-23.543,23.5429H10.7437a23.5428,23.5428,0,0,1-23.543-23.5429V12.161a23.5436,23.5436,0,0,1,23.543-23.543h165.054M63.9326,166.4513h65.69a7.2,7.2,0,0,0,7.2-7.2V119.97a7.2,7.2,0,0,0-7.2-7.2h-65.69a7.2,7.2,0,0,0-7.2,7.2v39.2816a7.2,7.2,0,0,0,7.2,7.2M175.7977-14.382H10.7437a26.573,26.573,0,0,0-26.543,26.543V167.384a26.573,26.573,0,0,0,26.543,26.5429h165.054a26.573,26.573,0,0,0,26.543-26.5429V12.161a26.573,26.573,0,0,0-26.543-26.543ZM63.9326,163.4513a4.2047,4.2047,0,0,1-4.2-4.2V119.97a4.2047,4.2047,0,0,1,4.2-4.2h65.69a4.2047,4.2047,0,0,1,4.2,4.2v39.2816a4.2047,4.2047,0,0,1-4.2,4.2Z"/></g></svg>