<svg id="Layer_1" data-name="Layer 1" xmlns="http://www.w3.org/2000/svg" viewBox="0 0 192.818 179.511"><defs><clipPath id="clip-path"><path d="M179.824 3.967H13.707a8.85 8.85 0 00-8.85 8.849v152.436a8.85 8.85 0 008.85 8.849h166.117a8.85 8.85 0 008.849-8.85V12.817a8.85 8.85 0 00-8.849-8.85zM21.072 163.726a6.258 6.258 0 116.258-6.258 6.258 6.258 0 01-6.258 6.258zm0-135.421a6.258 6.258 0 116.258-6.258 6.258 6.258 0 01-6.258 6.258zm150.08 138.45a6.258 6.258 0 116.258-6.259 6.258 6.258 0 01-6.258 6.258zm1.408-140.546a6.258 6.258 0 116.258-6.258 6.258 6.258 0 01-6.258 6.258z" fill="none"/></clipPath><style>.cls-20,.cls-3{fill:#819356}.cls-10,.cls-21,.cls-4{fill:#fff}.cls-5{fill:#bc2030}.cls-15,.cls-6{fill:#221f1f}.cls-7{fill:#5a5a5c}.cls-8{fill:#f2f2f2}.cls-9{fill:#079247}.cls-10,.cls-20,.cls-21{font-size:8.8489px}.cls-10,.cls-15,.cls-20,.cls-21{font-family:Verdana}.cls-12,.cls-21{letter-spacing:.001em}.cls-15{font-size:7.8656px}.cls-16{letter-spacing:.0011em}.cls-17{letter-spacing:.001em}.cls-18,.cls-22{letter-spacing:-.0001em}</style></defs><path d="M179.854 3.763H13.737a8.85 8.85 0 00-8.849 8.849v152.436a8.85 8.85 0 008.85 8.849h166.116a8.85 8.85 0 008.85-8.85V12.613a8.85 8.85 0 00-8.85-8.85zM21.102 163.522a6.258 6.258 0 116.258-6.258 6.258 6.258 0 01-6.258 6.258zm0-135.421a6.258 6.258 0 116.258-6.258 6.258 6.258 0 01-6.258 6.258zm150.08 138.449a6.258 6.258 0 116.258-6.258 6.258 6.258 0 01-6.258 6.258zm1.408-140.545a6.258 6.258 0 116.258-6.258 6.258 6.258 0 01-6.258 6.258z" fill="#323031"/><path class="cls-3" d="M86.994 160.291h-9.915a1.536 1.536 0 01-1.536-1.536v-37.187a1.536 1.536 0 011.536-1.536h9.915a1.536 1.536 0 011.536 1.536v37.187a1.536 1.536 0 01-1.536 1.536"/><path class="cls-3" d="M85.441 149.973c0 5.698-5.23 10.318-11.687 10.318-6.454 0-11.686-4.62-11.686-10.318s5.232-10.317 11.686-10.317c6.456 0 11.687 4.619 11.687 10.317"/><path class="cls-4" d="M132.392 89.731V42.514l5.831-3.218h47.854v50.435h-53.685z"/><path class="cls-3" d="M132.392 89.731v47.214l5.831 3.218h47.854V89.731h-53.685zM114.847 73.55h-35.99a1.77 1.77 0 01-1.77-1.77V10.06a1.77 1.77 0 011.77-1.77h35.99a1.77 1.77 0 011.77 1.77v61.719a1.77 1.77 0 01-1.77 1.77"/><path class="cls-5" d="M77.086 7.802h19.799v52.477H77.086z"/><path class="cls-6" d="M96.819 7.802h19.798v52.477H96.819z"/><path class="cls-4" d="M61.4 89.73V42.513l-5.832-3.218H7.704V89.73H61.4z"/><path class="cls-3" d="M61.4 89.73v47.214l-5.832 3.218H7.704V89.73H61.4z"/><path class="cls-7" d="M14.845 41.865h20.433v11.653H14.845z"/><path class="cls-8" d="M19.435 44.05h13.11v6.919h-13.11z"/><path class="cls-6" d="M25.536 47.692a4.598 4.598 0 11-4.598-4.598 4.599 4.599 0 014.598 4.598"/><path class="cls-7" d="M14.845 53.419h20.433v11.653H14.845z"/><path class="cls-8" d="M19.435 55.604h13.11v6.919h-13.11z"/><path class="cls-6" d="M25.536 59.245a4.598 4.598 0 11-4.598-4.598 4.599 4.599 0 014.598 4.598"/><path class="cls-7" d="M14.845 65.072h20.433v11.654H14.845z"/><path class="cls-8" d="M19.435 67.257h13.11v6.919h-13.11z"/><path class="cls-6" d="M25.536 70.899a4.598 4.598 0 11-4.598-4.598 4.598 4.598 0 014.598 4.598"/><path class="cls-7" d="M14.845 76.726h20.433v11.653H14.845z"/><path class="cls-8" d="M19.436 78.91h13.11v6.92h-13.11z"/><path class="cls-6" d="M25.536 82.552a4.598 4.598 0 11-4.598-4.598 4.598 4.598 0 014.598 4.598"/><path class="cls-7" d="M14.845 87.705h20.433v11.653H14.845z"/><path class="cls-8" d="M19.435 89.889h13.11v6.919h-13.11z"/><path class="cls-6" d="M25.536 93.53a4.598 4.598 0 11-4.598-4.597 4.599 4.599 0 014.598 4.598"/><path class="cls-7" d="M14.845 99.259h20.433v11.653H14.845z"/><path class="cls-8" d="M19.435 101.443h13.11v6.92h-13.11z"/><path class="cls-6" d="M25.536 105.084a4.598 4.598 0 11-4.598-4.598 4.598 4.598 0 014.598 4.598"/><path class="cls-7" d="M14.845 110.912h20.433v11.653H14.845z"/><path class="cls-8" d="M19.435 113.097h13.11v6.919h-13.11z"/><path class="cls-6" d="M25.536 116.739a4.598 4.598 0 11-4.598-4.598 4.599 4.599 0 014.598 4.598"/><path class="cls-7" d="M14.845 122.565h20.433v11.653H14.845z"/><path class="cls-8" d="M19.435 124.75h13.11v6.919h-13.11z"/><path class="cls-6" d="M25.536 128.392a4.598 4.598 0 11-4.598-4.598 4.599 4.599 0 014.598 4.598"/><path class="cls-7" d="M95.802 14.617h11.654V35.05H95.802z"/><path class="cls-8" d="M98.352 19.209h6.919v13.11h-6.919z"/><path class="cls-6" d="M101.629 25.308a4.598 4.598 0 114.598-4.598 4.598 4.598 0 01-4.598 4.598"/><path class="cls-7" d="M84.248 14.617h11.653V35.05H84.248z"/><path class="cls-8" d="M86.797 19.209h6.919v13.11h-6.919z"/><path class="cls-6" d="M90.075 25.308a4.598 4.598 0 114.598-4.598 4.598 4.598 0 01-4.598 4.598"/><path class="cls-9" d="M81.865 150.091a8.573 8.573 0 11-8.573-8.573 8.574 8.574 0 018.573 8.573"/><path class="cls-5" d="M35.278 41.973h14.983v11.438H35.278z"/><path class="cls-6" d="M35.278 53.411h14.983v11.653H35.278z"/><path class="cls-5" d="M35.278 65.064h14.983v11.438H35.278z"/><path class="cls-6" d="M35.278 76.503h14.983v11.653H35.278z"/><path class="cls-5" d="M35.278 88.156h14.983v11.438H35.278z"/><path class="cls-6" d="M35.278 99.595h14.983v11.653H35.278z"/><path class="cls-5" d="M35.278 111.248h14.983v11.438H35.278z"/><path class="cls-6" d="M35.278 122.686h14.983v11.654H35.278z"/><path class="cls-5" d="M7.704 42.196h7.141v11.438H7.704z"/><path class="cls-6" d="M7.704 53.635h7.141v11.653H7.704z"/><path class="cls-5" d="M7.704 65.288h7.141v11.438H7.704z"/><path class="cls-6" d="M7.704 76.726h7.141v11.653H7.704z"/><path class="cls-5" d="M7.704 88.38h7.141v11.438H7.704z"/><path class="cls-6" d="M7.704 99.818h7.141v11.653H7.704z"/><path class="cls-5" d="M7.704 111.472h7.141v11.438H7.704z"/><path class="cls-6" d="M7.704 122.91h7.141v11.653H7.704z"/><path class="cls-7" d="M158.502 123.951h20.434v11.653h-20.434z"/><path class="cls-8" d="M161.234 126.499h13.11v6.919h-13.11z"/><path class="cls-6" d="M168.245 129.777a4.598 4.598 0 114.598 4.598 4.598 4.598 0 01-4.598-4.598"/><path class="cls-7" d="M158.502 112.397h20.434v11.653h-20.434z"/><path class="cls-8" d="M161.234 114.946h13.11v6.919h-13.11z"/><path class="cls-6" d="M168.245 118.223a4.598 4.598 0 114.598 4.598 4.598 4.598 0 01-4.598-4.598"/><path class="cls-7" d="M158.502 100.743h20.434v11.654h-20.434z"/><path class="cls-8" d="M161.234 103.292h13.11v6.919h-13.11z"/><path class="cls-6" d="M168.245 106.57a4.598 4.598 0 114.598 4.598 4.598 4.598 0 01-4.598-4.598"/><path class="cls-7" d="M158.502 89.089h20.434v11.653h-20.434z"/><path class="cls-8" d="M161.234 91.639h13.11v6.919h-13.11z"/><path class="cls-6" d="M168.245 94.916a4.598 4.598 0 114.598 4.598 4.598 4.598 0 01-4.598-4.598"/><path class="cls-7" d="M158.502 78.111h20.434v11.653h-20.434z"/><path class="cls-8" d="M161.234 80.661h13.11v6.919h-13.11z"/><path class="cls-6" d="M168.245 83.938a4.598 4.598 0 114.598 4.598 4.598 4.598 0 01-4.598-4.598"/><path class="cls-7" d="M158.502 66.557h20.434V78.21h-20.434z"/><path class="cls-8" d="M161.234 69.106h13.11v6.92h-13.11z"/><path class="cls-6" d="M168.245 72.384a4.598 4.598 0 114.598 4.598 4.598 4.598 0 01-4.598-4.598"/><path class="cls-7" d="M158.502 54.904h20.434v11.653h-20.434z"/><path class="cls-8" d="M161.234 57.453h13.11v6.92h-13.11z"/><path class="cls-6" d="M168.245 60.73a4.598 4.598 0 114.598 4.598 4.598 4.598 0 01-4.598-4.598"/><path class="cls-7" d="M158.502 43.25h20.434v11.653h-20.434z"/><path class="cls-8" d="M161.234 45.799h13.11v6.919h-13.11z"/><path class="cls-6" d="M168.245 49.077a4.598 4.598 0 114.598 4.597 4.598 4.598 0 01-4.598-4.597"/><path class="cls-5" d="M143.52 124.058h14.982v11.438H143.52z"/><path class="cls-6" d="M143.52 112.405h14.982v11.653H143.52z"/><path class="cls-5" d="M143.52 100.966h14.982v11.438H143.52z"/><path class="cls-6" d="M143.52 89.313h14.982v11.653H143.52z"/><path class="cls-5" d="M143.52 77.875h14.982v11.438H143.52z"/><path class="cls-6" d="M143.52 66.221h14.982v11.653H143.52z"/><path class="cls-5" d="M143.52 54.783h14.982v11.438H143.52z"/><path class="cls-6" d="M143.52 43.129h14.982v11.653H143.52z"/><path class="cls-5" d="M178.935 123.834h7.141v11.438h-7.141z"/><path class="cls-6" d="M178.935 112.181h7.141v11.653h-7.141z"/><path class="cls-5" d="M178.935 100.743h7.141v11.438h-7.141z"/><path class="cls-6" d="M178.935 89.089h7.141v11.653h-7.141z"/><path class="cls-5" d="M178.935 77.651h7.141v11.438h-7.141z"/><path class="cls-6" d="M178.935 65.998h7.141v11.653h-7.141z"/><path class="cls-5" d="M178.935 54.559h7.141v11.438h-7.141z"/><path class="cls-6" d="M178.935 42.906h7.141v11.653h-7.141z"/><text class="cls-10" transform="translate(84.297 52.95)">+</text><text class="cls-10" transform="translate(104.96 52.95)">-</text><text transform="rotate(180 54.765 31.502)" font-family="Verdana" font-size="8.849" fill="#221f1f"><tspan class="cls-12">12</tspan><tspan x="11.269" y="0" letter-spacing="0em">V</tspan><tspan x="17.318" y="0" letter-spacing=".001em">i</tspan><tspan x="19.755" y="0">n</tspan></text><text class="cls-15" transform="rotate(90 -18.655 72.4)"><tspan class="cls-16">12</tspan><tspan x="10.017" y="0">V</tspan><tspan class="cls-16" x="15.394" y="0">500m</tspan><tspan x="38.077" y="0">A</tspan></text><text class="cls-15" transform="rotate(90 .476 52.993)"><tspan class="cls-17">12</tspan><tspan x="10.017" y="0">V</tspan><tspan class="cls-17" x="15.394" y="0"> 2</tspan><tspan x="23.175" y="0">A</tspan></text><text class="cls-15" transform="rotate(-90 109.653 -31.455)"><tspan class="cls-17">5</tspan><tspan class="cls-18" x="5.009" y="0">V</tspan><tspan class="cls-17" x="10.385" y="0"> 2</tspan><tspan x="18.167" y="0">A</tspan></text><text class="cls-15" transform="rotate(-90 136.997 -4.11)"><tspan class="cls-16">5</tspan><tspan class="cls-18" x="5.009" y="0">V</tspan><tspan class="cls-17" x="10.385" y="0"> 500m</tspan><tspan x="35.842" y="0">A</tspan></text><text class="cls-15" transform="rotate(90 -21.888 101.273)"><tspan class="cls-16">12</tspan><tspan x="10.017" y="0">V</tspan></text><path class="cls-3" d="M105.658 160.292h9.919a1.536 1.536 0 001.536-1.536V121.57a1.536 1.536 0 00-1.536-1.536h-9.919a1.536 1.536 0 00-1.536 1.536v37.187a1.536 1.536 0 001.536 1.536"/><path class="cls-3" d="M107.212 149.974c0 5.698 5.233 10.318 11.689 10.318s11.69-4.62 11.69-10.318-5.233-10.317-11.69-10.317-11.69 4.619-11.69 10.317"/><path class="cls-9" d="M127.474 149.973a8.573 8.573 0 11-8.573-8.573 8.573 8.573 0 018.573 8.573"/><text transform="rotate(-90 123.973 10.597)" letter-spacing=".001em" font-size="7.866" font-family="Verdana" fill="#221f1f">5<tspan class="cls-18" x="5.009" y="0">V</tspan></text><text class="cls-20" transform="translate(76.503 87.064)">V</text><text class="cls-21" transform="translate(81.954 87.064)">o<tspan class="cls-22" x="5.38" y="0">ltage</tspan></text><text class="cls-20" transform="translate(76.503 97.276)">R</text><text class="cls-10" transform="translate(81.964 97.275)"><tspan class="cls-12">e</tspan><tspan class="cls-22" x="5.28" y="0">gula</tspan><tspan x="24.136" y="0" letter-spacing="-.013em">t</tspan><tspan class="cls-12" x="27.508" y="0">o</tspan><tspan x="32.888" y="0">r</tspan></text><text class="cls-20" transform="translate(76.503 107.85)">M</text><text class="cls-21" transform="translate(84.237 107.85)">o<tspan class="cls-22" x="5.38" y="0">dule</tspan></text><path class="cls-4" d="M21.102 151.006a6.258 6.258 0 106.258 6.258 6.258 6.258 0 00-6.258-6.258zM21.102 15.585a6.258 6.258 0 106.258 6.258 6.258 6.258 0 00-6.258-6.258zM171.182 154.034a6.258 6.258 0 106.258 6.258 6.258 6.258 0 00-6.258-6.258z"/><path class="cls-4" d="M0 0v179.511h192.818V0zm188.703 165.048a8.85 8.85 0 01-8.849 8.849H13.737a8.85 8.85 0 01-8.849-8.85V12.613a8.85 8.85 0 018.85-8.85h166.116a8.85 8.85 0 018.85 8.85z"/><path class="cls-4" d="M172.59 13.49a6.258 6.258 0 106.258 6.257 6.258 6.258 0 00-6.258-6.258z"/><g clip-path="url(#clip-path)"><path d="M10.743 192.427A25.072 25.072 0 01-14.3 167.384V12.16a25.072 25.072 0 0125.044-25.043h165.054a25.072 25.072 0 0125.043 25.043v155.223a25.072 25.072 0 01-25.043 25.043zm53.19-78.158a5.706 5.706 0 00-5.7 5.7v39.282a5.706 5.706 0 005.7 5.7h65.69a5.706 5.706 0 005.7-5.7V119.97a5.706 5.706 0 00-5.7-5.7z" fill="#231f20" opacity=".33"/><path d="M175.798-11.382a23.544 23.544 0 0123.543 23.543v155.223a23.543 23.543 0 01-23.543 23.543H10.744A23.543 23.543 0 01-12.8 167.384V12.161a23.544 23.544 0 0123.543-23.543h165.054M63.933 166.451h65.69a7.2 7.2 0 007.2-7.2V119.97a7.2 7.2 0 00-7.2-7.2h-65.69a7.2 7.2 0 00-7.2 7.2v39.282a7.2 7.2 0 007.2 7.2M175.798-14.382H10.744A26.573 26.573 0 00-15.8 12.161v155.223a26.573 26.573 0 0026.543 26.543h165.054a26.573 26.573 0 0026.543-26.543V12.161a26.573 26.573 0 00-26.543-26.543zM63.933 163.451a4.205 4.205 0 01-4.2-4.2V119.97a4.205 4.205 0 014.2-4.2h65.69a4.205 4.205 0 014.2 4.2v39.282a4.205 4.205 0 01-4.2 4.2z" fill="#00aeef"/></g></svg>