<svg id="Layer_1" data-name="Layer 1" xmlns="http://www.w3.org/2000/svg" viewBox="0 0 766.977 614.43"><defs><style>.cls-1{fill:#b0242b;}.cls-2{fill:#d6c5b9;}.cls-10,.cls-15,.cls-18,.cls-23,.cls-24,.cls-25,.cls-27,.cls-3{fill:#fff;}.cls-4{fill:#967966;}.cls-5{fill:#b59a96;}.cls-19,.cls-22,.cls-26,.cls-30,.cls-31,.cls-32,.cls-6{fill:none;}.cls-6{stroke:#f7ecf2;stroke-width:5px;}.cls-25,.cls-30,.cls-31,.cls-32,.cls-6{stroke-linecap:round;}.cls-19,.cls-6{stroke-miterlimit:10;}.cls-7{fill:#f7ecf2;}.cls-8{fill:#d5c1ab;}.cls-9{fill:#a28868;}.cls-10{font-size:23.345px;}.cls-10,.cls-15,.cls-18,.cls-23,.cls-24,.cls-27,.cls-28{font-family:Verdana;}.cls-11{fill:#434343;}.cls-12{fill:#4f4e51;}.cls-13{fill:#323031;}.cls-14{fill:#6a5f27;}.cls-15{font-size:32.3181px;}.cls-16{letter-spacing:-0.031em;}.cls-17{letter-spacing:0em;}.cls-18{font-size:23.3516px;}.cls-19,.cls-25,.cls-26{stroke:#fff;}.cls-19{stroke-width:5.3864px;}.cls-20{fill:#5a5d65;}.cls-21{fill:#23446c;}.cls-22{stroke:#f1f2f2;}.cls-22,.cls-26{stroke-miterlimit:2;}.cls-22,.cls-25,.cls-26{stroke-width:1.3645px;}.cls-23{font-size:19.7064px;}.cls-24{font-size:19.1105px;}.cls-25,.cls-30,.cls-31,.cls-32{stroke-linejoin:round;}.cls-27{font-size:21.736px;}.cls-28{font-size:39.6519px;fill:#010101;letter-spacing:0.001em;}.cls-29{fill:#221f1f;}.cls-30{stroke:#221f1f;}.cls-30,.cls-31,.cls-32{stroke-width:10.832px;}.cls-31{stroke:#e9262a;}.cls-32{stroke:#babcbe;}</style></defs><rect class="cls-1" x="38.5784" y="364.8263" width="250.7113" height="177.8137" transform="translate(617.6671 289.7991) rotate(90)"/><circle class="cls-2" cx="190.1764" cy="352.1868" r="13.7763"/><circle class="cls-3" cx="190.4047" cy="352.212" r="9.378"/><circle class="cls-2" cx="145.2748" cy="351.9454" r="13.7763"/><circle class="cls-3" cx="145.5031" cy="351.9706" r="9.378"/><circle class="cls-2" cx="100.3731" cy="352.1868" r="13.7763"/><circle class="cls-3" cx="100.6015" cy="352.212" r="9.378"/><rect class="cls-2" x="221.1247" y="337.5147" width="27.498" height="27.498" transform="translate(586.1374 116.39) rotate(90)"/><circle class="cls-3" cx="234.8737" cy="351.2637" r="9.378"/><rect class="cls-4" x="129.0631" y="442.2998" width="83.8749" height="85.1156" transform="translate(655.8581 313.8571) rotate(90)"/><rect class="cls-5" x="184.6737" y="432.7361" width="4.6983" height="16.1267" transform="translate(627.8223 253.7765) rotate(90)"/><rect class="cls-5" x="164.3296" y="432.7361" width="4.6983" height="16.1267" transform="translate(607.4782 274.1206) rotate(90)"/><rect class="cls-5" x="143.9855" y="432.7361" width="4.6983" height="16.1267" transform="translate(587.1341 294.4648) rotate(90)"/><rect class="cls-5" x="184.6737" y="521.2308" width="4.6983" height="16.1267" transform="translate(716.3171 342.2713) rotate(90)"/><rect class="cls-5" x="164.3296" y="521.2308" width="4.6983" height="16.1267" transform="translate(695.9729 362.6154) rotate(90)"/><rect class="cls-5" x="143.9855" y="521.2308" width="4.6983" height="16.1267" transform="translate(675.6288 382.9595) rotate(90)"/><line class="cls-6" x1="119.1682" y1="553.6554" x2="156.6604" y2="553.6554"/><polygon class="cls-7" points="144.112 564.336 154.798 553.655 144.112 542.975 153.181 542.975 163.861 553.655 153.181 564.336 144.112 564.336"/><circle class="cls-8" cx="100.8975" cy="553.0818" r="7.1557"/><circle class="cls-8" cx="234.0708" cy="441.9989" r="7.1557"/><rect class="cls-8" x="183.8418" y="546.3431" width="13.5313" height="15.0348" transform="translate(744.468 363.253) rotate(90)"/><rect class="cls-9" x="173.9062" y="551.4423" width="13.5313" height="4.8364" transform="translate(734.5324 373.1886) rotate(90)"/><rect class="cls-9" x="193.6663" y="551.4423" width="13.5313" height="4.8364" transform="translate(754.2924 353.4286) rotate(90)"/><text class="cls-10" transform="translate(229.2159 376.355) rotate(90)">VDD</text><text class="cls-10" transform="translate(183.88 376.3553) rotate(90)">GND</text><text class="cls-10" transform="translate(139.5089 376.355) rotate(90)">ST</text><text class="cls-10" transform="translate(94.4952 376.355) rotate(90)">OUT</text><path class="cls-11" d="M698.5567,215.1642l-1390.7836,1.852a83.1737,83.1737,0,0,1-83.063-83.284V-1240.57a83.1738,83.1738,0,0,1,83.063-83.2841l1401.3772-1.852a83.1737,83.1737,0,0,1,83.0629,83.2841V121.2584c4.7726,55.4735-24.56,94.8529-77.54,93.9026"/><rect class="cls-12" x="-750.6365" y="-1294.7053" width="1518.5154" height="1487.6485" rx="58.5708"/><rect class="cls-13" x="20.1812" y="79.4967" width="315.2253" height="89.607"/><path class="cls-14" d="M56.1692,118.8837a5.4163,5.4163,0,1,1-5.4146,5.4143,5.4133,5.4133,0,0,1,5.4146-5.4143"/><path class="cls-14" d="M56.1692,143.1292a5.4183,5.4183,0,1,1-5.4146,5.4185,5.4142,5.4142,0,0,1,5.4146-5.4185"/><path class="cls-14" d="M56.1692,93.6554A5.4183,5.4183,0,1,1,50.7546,99.07a5.4133,5.4133,0,0,1,5.4146-5.4143"/><rect class="cls-13" x="100.6422" y="79.4967" width="71.9799" height="89.607"/><path class="cls-14" d="M136.6326,118.8837a5.4163,5.4163,0,1,1-5.4184,5.4143,5.4125,5.4125,0,0,1,5.4184-5.4143"/><path class="cls-14" d="M136.6326,143.1292a5.4183,5.4183,0,1,1-5.4184,5.4185,5.4134,5.4134,0,0,1,5.4184-5.4185"/><path class="cls-14" d="M136.6326,93.6554a5.4183,5.4183,0,1,1-5.4184,5.4143,5.4125,5.4125,0,0,1,5.4184-5.4143"/><rect class="cls-13" x="263.4266" y="79.4967" width="71.9799" height="89.607"/><path class="cls-14" d="M299.4165,118.8837a5.4163,5.4163,0,1,1-5.4184,5.4143,5.4125,5.4125,0,0,1,5.4184-5.4143"/><path class="cls-14" d="M299.4165,143.1292a5.4183,5.4183,0,1,1-5.4184,5.4185,5.4134,5.4134,0,0,1,5.4184-5.4185"/><path class="cls-14" d="M299.4165,93.6554a5.4183,5.4183,0,1,1-5.4184,5.4143,5.4125,5.4125,0,0,1,5.4184-5.4143"/><rect class="cls-13" x="182.0783" y="79.4967" width="71.9838" height="89.607"/><path class="cls-14" d="M218.0712,118.8837a5.4163,5.4163,0,1,1-5.4184,5.4143,5.4126,5.4126,0,0,1,5.4184-5.4143"/><path class="cls-14" d="M218.0712,143.1292a5.4183,5.4183,0,1,1-5.4184,5.4185,5.4135,5.4135,0,0,1,5.4184-5.4185"/><path class="cls-14" d="M218.0712,93.6554a5.4183,5.4183,0,1,1-5.4184,5.4143,5.4126,5.4126,0,0,1,5.4184-5.4143"/><text class="cls-15" transform="translate(89.2598 33.44)">ANA<tspan class="cls-16" x="68.3604" y="0">L</tspan><tspan class="cls-17" x="85.3477" y="0">OG IN</tspan></text><text class="cls-18" transform="translate(451.3761 55.5572)">RESET</text><text class="cls-18" transform="translate(563.1222 55.5533)">USER</text><polyline class="cls-19" points="54.587 41.246 54.587 24.817 82.493 24.817"/><polyline class="cls-19" points="279.071 22.634 306.782 22.634 306.782 43.567"/><rect class="cls-20" x="430.6165" y="73.5847" width="216.5056" height="101.431" rx="19.6017"/><rect class="cls-21" x="458.9935" y="97.1464" width="53.9447" height="54.3076" rx="26.9723"/><rect class="cls-21" x="564.8004" y="97.1464" width="53.9447" height="54.3076" rx="26.9723"/><rect class="cls-13" x="644.857" y="-789.1855" width="92.1508" height="821.8193"/><line class="cls-22" x1="385.7547" y1="179.0126" x2="395.8465" y2="179.0126"/><line class="cls-22" x1="381.7584" y1="174.7338" x2="399.8669" y2="174.7338"/><line class="cls-22" x1="377.3502" y1="170.463" x2="404.2668" y2="170.463"/><line class="cls-22" x1="382.041" y1="125.7445" x2="366.0798" y2="125.7445"/><line class="cls-22" x1="382.0329" y1="98.7631" x2="366.0716" y2="98.7631"/><polyline class="cls-22" points="390.808 170.463 390.808 153.509 366.08 153.509"/><text class="cls-23" transform="translate(383.7823 104.4634) scale(1 1.0605)">S</text><text class="cls-24" transform="translate(385.087 132.6548) scale(1 1.1297)">5V</text><rect class="cls-25" x="359.286" y="95.1291" width="6.3234" height="6.8784"/><rect class="cls-25" x="359.6999" y="122.0369" width="6.3234" height="6.8784"/><rect class="cls-25" x="359.6068" y="149.7726" width="6.3234" height="6.8784"/><line class="cls-26" x1="711.387" y1="84.2843" x2="721.4788" y2="84.2843"/><line class="cls-26" x1="707.3907" y1="80.0136" x2="725.4911" y2="80.0136"/><line class="cls-26" x1="702.9906" y1="75.7428" x2="729.9072" y2="75.7428"/><line class="cls-26" x1="661.9444" y1="53.9125" x2="661.9444" y2="69.6476"/><line class="cls-26" x1="689.184" y1="54.0335" x2="689.184" y2="90.1137"/><line class="cls-26" x1="716.4154" y1="53.9125" x2="716.4154" y2="76.4778"/><text class="cls-27" transform="translate(655.3604 88.2291) scale(1 1.0056)">S</text><text class="cls-27" transform="translate(676.88 110.1275) scale(1 1.0056)">6V</text><rect class="cls-25" x="658.5634" y="47.4077" width="6.3234" height="6.8784"/><rect class="cls-25" x="686.0085" y="47.4077" width="6.3234" height="6.8784"/><rect class="cls-25" x="713.1417" y="47.4077" width="6.3234" height="6.8784"/><text class="cls-28" transform="translate(289.81 362.6178)">SparkFun Single Axis <tspan x="0" y="47.582">Accelerometer </tspan><tspan x="0" y="95.165">ADXL193</tspan></text><rect class="cls-29" x="41.8587" y="90.7105" width="37.6055" height="90.1001"/><polyline class="cls-30" points="73.242 162.751 74.769 257.429 190.271 259.037 190.271 350.984"/><polyline class="cls-31" points="60.662 131.939 61.888 274.053 234.171 274.217 234.579 350.984"/><polyline class="cls-32" points="48.598 113.005 50.518 288.585 100.789 288.139 100.484 350.984"/></svg>