<svg id="Layer_1" data-name="Layer 1" xmlns="http://www.w3.org/2000/svg" viewBox="0 0 766.977 614.43"><defs><style>.cls-2{fill:#d6c5b9}.cls-10,.cls-18,.cls-25,.cls-27,.cls-3{fill:#fff}.cls-5{fill:#b59a96}.cls-19,.cls-22,.cls-26{fill:none}.cls-25{stroke-linecap:round}.cls-19{stroke-miterlimit:10}.cls-8{fill:#d5c1ab}.cls-9{fill:#a28868}.cls-10{font-size:23.345px}.cls-10,.cls-18,.cls-27{font-family:Verdana}.cls-13{fill:#323031}.cls-14{fill:#6a5f27}.cls-18{font-size:23.3516px}.cls-19,.cls-25,.cls-26{stroke:#fff}.cls-19{stroke-width:5.3864px}.cls-21{fill:#23446c}.cls-22{stroke:#f1f2f2}.cls-22,.cls-26{stroke-miterlimit:2}.cls-22,.cls-25,.cls-26{stroke-width:1.3645px}.cls-25{stroke-linejoin:round}.cls-27{font-size:21.736px}</style></defs><path transform="rotate(90 163.934 453.733)" fill="#b0242b" d="M38.578 364.826h250.711V542.64H38.578z"/><circle class="cls-2" cx="190.176" cy="352.187" r="13.776"/><circle class="cls-3" cx="190.405" cy="352.212" r="9.378"/><circle class="cls-2" cx="145.275" cy="351.945" r="13.776"/><circle class="cls-3" cx="145.503" cy="351.971" r="9.378"/><circle class="cls-2" cx="100.373" cy="352.187" r="13.776"/><circle class="cls-3" cx="100.602" cy="352.212" r="9.378"/><path class="cls-2" transform="rotate(90 234.874 351.264)" d="M221.125 337.515h27.498v27.498h-27.498z"/><circle class="cls-3" cx="234.874" cy="351.264" r="9.378"/><path transform="rotate(90 171 484.858)" fill="#967966" d="M129.063 442.3h83.875v85.116h-83.875z"/><path class="cls-5" transform="rotate(90 187.023 440.8)" d="M184.674 432.736h4.698v16.127h-4.698z"/><path class="cls-5" transform="rotate(90 166.679 440.8)" d="M164.33 432.736h4.698v16.127h-4.698z"/><path class="cls-5" transform="rotate(90 146.335 440.8)" d="M143.986 432.736h4.698v16.127h-4.698z"/><path class="cls-5" transform="rotate(90 187.023 529.294)" d="M184.674 521.231h4.698v16.127h-4.698z"/><path class="cls-5" transform="rotate(90 166.679 529.294)" d="M164.33 521.231h4.698v16.127h-4.698z"/><path class="cls-5" transform="rotate(90 146.335 529.294)" d="M143.986 521.231h4.698v16.127h-4.698z"/><path stroke-miterlimit="10" stroke-linecap="round" stroke="#f7ecf2" stroke-width="5" fill="none" d="M119.168 553.655h37.492"/><path fill="#f7ecf2" d="M144.112 564.336l10.686-10.681-10.686-10.68h9.069l10.68 10.68-10.68 10.681h-9.069z"/><circle class="cls-8" cx="100.897" cy="553.082" r="7.156"/><circle class="cls-8" cx="234.071" cy="441.999" r="7.156"/><path class="cls-8" transform="rotate(90 190.607 553.86)" d="M183.842 546.343h13.531v15.035h-13.531z"/><path class="cls-9" transform="rotate(90 180.672 553.86)" d="M173.906 551.442h13.531v4.836h-13.531z"/><path class="cls-9" transform="rotate(90 200.432 553.86)" d="M193.666 551.442h13.531v4.836h-13.531z"/><text class="cls-10" transform="rotate(90 -73.57 302.785)">VDD</text><text class="cls-10" transform="rotate(90 -96.238 280.118)">GND</text><text class="cls-10" transform="rotate(90 -118.423 257.932)">ST</text><text class="cls-10" transform="rotate(90 -140.93 235.425)">OUT</text><path d="M698.557 215.164l-1390.784 1.852a83.174 83.174 0 01-83.063-83.284V-1240.57a83.174 83.174 0 0183.063-83.284l1401.377-1.852a83.174 83.174 0 0183.063 83.284v1363.68c4.773 55.474-24.56 94.853-77.54 93.903" fill="#434343"/><rect x="-750.636" y="-1294.705" width="1518.515" height="1487.649" rx="58.571" fill="#4f4e51"/><path class="cls-13" d="M20.181 79.497h315.225v89.607H20.181z"/><path class="cls-14" d="M56.17 118.884a5.416 5.416 0 11-5.415 5.414 5.413 5.413 0 015.414-5.414M56.17 143.13a5.418 5.418 0 11-5.415 5.418 5.414 5.414 0 015.414-5.419M56.17 93.655a5.418 5.418 0 11-5.415 5.415 5.413 5.413 0 015.414-5.414"/><path class="cls-13" d="M100.642 79.497h71.98v89.607h-71.98z"/><path class="cls-14" d="M136.633 118.884a5.416 5.416 0 11-5.419 5.414 5.412 5.412 0 015.419-5.414M136.633 143.13a5.418 5.418 0 11-5.419 5.418 5.413 5.413 0 015.419-5.419M136.633 93.655a5.418 5.418 0 11-5.419 5.415 5.412 5.412 0 015.419-5.415"/><path class="cls-13" d="M263.427 79.497h71.98v89.607h-71.98z"/><path class="cls-14" d="M299.416 118.884a5.416 5.416 0 11-5.418 5.414 5.412 5.412 0 015.418-5.414M299.416 143.13a5.418 5.418 0 11-5.418 5.418 5.413 5.413 0 015.418-5.419M299.416 93.655a5.418 5.418 0 11-5.418 5.415 5.412 5.412 0 015.418-5.415"/><path class="cls-13" d="M182.078 79.497h71.984v89.607h-71.984z"/><path class="cls-14" d="M218.071 118.884a5.416 5.416 0 11-5.418 5.414 5.413 5.413 0 015.418-5.414M218.071 143.13a5.418 5.418 0 11-5.418 5.418 5.413 5.413 0 015.418-5.419M218.071 93.655a5.418 5.418 0 11-5.418 5.415 5.413 5.413 0 015.418-5.415"/><text transform="translate(89.26 33.44)" font-size="32.318" font-family="Verdana" fill="#fff">ANA<tspan x="68.36" y="0" letter-spacing="-.031em">L</tspan><tspan x="85.348" y="0" letter-spacing="0">OG IN</tspan></text><text class="cls-18" transform="translate(451.376 55.557)">RESET</text><text class="cls-18" transform="translate(563.122 55.553)">USER</text><path class="cls-19" d="M54.587 41.246V24.817h27.906M279.071 22.634h27.711v20.933"/><rect x="430.616" y="73.585" width="216.506" height="101.431" rx="19.602" fill="#5a5d65"/><rect class="cls-21" x="458.993" y="97.146" width="53.945" height="54.308" rx="26.972"/><rect class="cls-21" x="564.8" y="97.146" width="53.945" height="54.308" rx="26.972"/><path class="cls-13" d="M644.857-789.186h92.151V32.633h-92.151z"/><path class="cls-22" d="M385.755 179.013h10.091M381.758 174.734h18.109M377.35 170.463h26.917M382.041 125.745H366.08M382.033 98.763h-15.961M390.808 170.463v-16.954H366.08"/><text transform="matrix(1 0 0 1.0605 383.782 104.463)" font-size="19.706" font-family="Verdana" fill="#fff">S</text><text transform="matrix(1 0 0 1.1297 385.087 132.655)" font-size="19.11" font-family="Verdana" fill="#fff">5V</text><path class="cls-25" d="M359.286 95.129h6.323v6.878h-6.323zM359.7 122.037h6.323v6.878H359.7zM359.607 149.773h6.323v6.878h-6.323z"/><path class="cls-26" d="M711.387 84.284h10.092M707.391 80.014h18.1M702.991 75.743h26.916M661.944 53.913v15.735M689.184 54.033v36.081M716.415 53.913v22.565"/><text class="cls-27" transform="matrix(1 0 0 1.0056 655.36 88.23)">S</text><text class="cls-27" transform="matrix(1 0 0 1.0056 676.88 110.127)">6V</text><path class="cls-25" d="M658.563 47.408h6.323v6.878h-6.323zM686.009 47.408h6.323v6.878h-6.323zM713.142 47.408h6.323v6.878h-6.323z"/><text transform="translate(289.81 362.618)" font-size="39.652" fill="#010101" letter-spacing=".001em" font-family="Verdana">SparkFun Single Axis <tspan x="0" y="47.582">Accelerometer </tspan><tspan x="0" y="95.165">ADXL193</tspan></text><path fill="#221f1f" d="M41.859 90.71h37.605v90.1H41.859z"/><path stroke-width="10.832" stroke="#221f1f" stroke-linejoin="round" stroke-linecap="round" fill="none" d="M73.242 162.751l1.527 94.678 115.502 1.608v91.947"/><path stroke="#e9262a" stroke-width="10.832" stroke-linejoin="round" stroke-linecap="round" fill="none" d="M60.662 131.939l1.226 142.114 172.283.164.408 76.767"/><path stroke="#babcbe" stroke-width="10.832" stroke-linejoin="round" stroke-linecap="round" fill="none" d="M48.598 113.005l1.92 175.58 50.271-.446-.305 62.845"/></svg>