<svg xmlns="http://www.w3.org/2000/svg" viewBox="0 0 784.993 772.334"><defs><style>.cls-2{fill:#4f4e51}.cls-3{fill:#323031}.cls-5{fill:#6a5f27}.cls-6{fill:#5a5a5d}.cls-7{fill:#f2f2f2}.cls-8{fill:#221f1f}.cls-13,.cls-31,.cls-32,.cls-42,.cls-43,.cls-46,.cls-47,.cls-49,.cls-9{fill:none}.cls-9{stroke:#5a5a5d;stroke-width:5.416px}.cls-13,.cls-9{stroke-miterlimit:10}.cls-10{font-size:16.248px}.cls-10,.cls-11,.cls-12,.cls-18,.cls-30,.cls-33,.cls-35,.cls-37,.cls-38,.cls-40,.cls-41,.cls-44{fill:#fff}.cls-10,.cls-11,.cls-18,.cls-30,.cls-35,.cls-37,.cls-40,.cls-41,.cls-44{font-family:Verdana}.cls-11{font-size:10.832px}.cls-13,.cls-32,.cls-33,.cls-38,.cls-46,.cls-47,.cls-49{stroke:#fff}.cls-13{stroke-width:2.708px}.cls-18{font-size:11.7401px}.cls-19{fill:#9b9b9b}.cls-20{fill:#171717}.cls-26{fill:#51545a}.cls-27{fill:#3c3d42}.cls-29{fill:#23446c}.cls-30{font-size:11.1981px}.cls-31,.cls-42{stroke:#f1f2f2}.cls-31,.cls-32,.cls-33,.cls-42,.cls-43,.cls-46{stroke-miterlimit:2}.cls-32,.cls-33,.cls-38,.cls-42,.cls-43,.cls-49{stroke-width:.686px}.cls-33,.cls-38,.cls-47{stroke-linecap:round}.cls-35{font-size:11.699px}.cls-37{font-size:10.9278px}.cls-38,.cls-47,.cls-49{stroke-linejoin:round}.cls-40{font-size:9.9074px}.cls-41{font-size:9.6078px}.cls-43{stroke:#020202}.cls-44{font-size:11.4352px}.cls-46{stroke-width:.588px}.cls-47{stroke-width:.506px}.cls-50{fill:#803379}.cls-51{fill:#4a3056}.cls-52{fill:#59336a}.cls-54{fill:#9a9798}.cls-55{fill:#181818}.cls-56{fill:#cec8d4}.cls-58{fill:#999489}.cls-59{fill:#252024}.cls-60{fill:#9e8e92}</style></defs><g id="Layer_1" data-name="Layer 1"><path d="M739.316 773.04l-699.219.93a41.816 41.816 0 01-41.76-41.871V41.166a41.816 41.816 0 0141.76-41.87l704.545-.932a41.816 41.816 0 0141.76 41.871v685.593c2.4 27.89-12.348 47.687-38.983 47.21" fill="#434343"/><rect class="cls-2" x="10.732" y="13.95" width="763.436" height="747.917" rx="29.447"/><path class="cls-3" d="M17.132 275.161h46.329v413.171H17.132z"/><path d="M546.131 132.405H233.777a19.498 19.498 0 01-19.498-19.498V32.38a19.498 19.498 0 0119.498-19.498h312.354A19.498 19.498 0 01565.63 32.38v80.526a19.498 19.498 0 01-19.498 19.498" fill="#424242"/><path class="cls-3" d="M248.793 517.584h279.722v51.56H248.793z"/><path class="cls-5" d="M42.776 297.73a2.724 2.724 0 11-2.724-2.723 2.723 2.723 0 012.724 2.724M30.584 297.73a2.724 2.724 0 11-2.722-2.723 2.721 2.721 0 012.722 2.724M55.458 297.73a2.723 2.723 0 11-2.723-2.723 2.721 2.721 0 012.723 2.724M42.776 338.962a2.724 2.724 0 11-2.724-2.723 2.723 2.723 0 012.724 2.723M30.584 338.962a2.724 2.724 0 11-2.722-2.723 2.721 2.721 0 012.722 2.723M55.458 338.962a2.723 2.723 0 11-2.723-2.723 2.721 2.721 0 012.723 2.723M42.776 380.194a2.724 2.724 0 11-2.724-2.723 2.723 2.723 0 012.724 2.723M30.584 380.194a2.724 2.724 0 11-2.722-2.723 2.721 2.721 0 012.722 2.723M55.458 380.194a2.723 2.723 0 11-2.723-2.723 2.721 2.721 0 012.723 2.723M42.776 421.426a2.724 2.724 0 11-2.724-2.723 2.723 2.723 0 012.724 2.723M30.584 421.426a2.724 2.724 0 11-2.722-2.723 2.721 2.721 0 012.722 2.723M55.458 421.426a2.723 2.723 0 11-2.723-2.723 2.721 2.721 0 012.723 2.723M42.776 462.658a2.724 2.724 0 11-2.724-2.723 2.723 2.723 0 012.724 2.723M30.584 462.658a2.724 2.724 0 11-2.722-2.723 2.721 2.721 0 012.722 2.723M55.458 462.658a2.723 2.723 0 11-2.723-2.723 2.721 2.721 0 012.723 2.723M42.776 503.89a2.724 2.724 0 11-2.724-2.723 2.723 2.723 0 012.724 2.723M30.584 503.89a2.724 2.724 0 11-2.722-2.723 2.721 2.721 0 012.722 2.723M55.458 503.89a2.723 2.723 0 11-2.723-2.723 2.721 2.721 0 012.723 2.723M42.776 545.121a2.724 2.724 0 11-2.724-2.722 2.723 2.723 0 012.724 2.722M30.584 545.121a2.724 2.724 0 11-2.722-2.722 2.721 2.721 0 012.722 2.722M55.458 545.121a2.723 2.723 0 11-2.723-2.722 2.721 2.721 0 012.723 2.722M42.776 586.353a2.724 2.724 0 11-2.724-2.722 2.723 2.723 0 012.724 2.722M30.584 586.353a2.724 2.724 0 11-2.722-2.722 2.721 2.721 0 012.722 2.722M55.458 586.353a2.723 2.723 0 11-2.723-2.722 2.721 2.721 0 012.723 2.722M42.776 627.585a2.724 2.724 0 11-2.724-2.722 2.723 2.723 0 012.724 2.722M30.584 627.585a2.724 2.724 0 11-2.722-2.722 2.721 2.721 0 012.722 2.722M55.458 627.585a2.723 2.723 0 11-2.723-2.722 2.721 2.721 0 012.723 2.722M42.776 668.817a2.724 2.724 0 11-2.724-2.722 2.723 2.723 0 012.724 2.721M30.584 668.817a2.724 2.724 0 11-2.722-2.722 2.721 2.721 0 012.722 2.721M55.458 668.817a2.723 2.723 0 11-2.723-2.722 2.721 2.721 0 012.723 2.721"/><path class="cls-3" d="M18.507 220.168h45.05v36.188h-45.05z"/><path class="cls-5" d="M43.756 238.262a2.724 2.724 0 11-2.724-2.722 2.723 2.723 0 012.724 2.722M31.565 238.262a2.724 2.724 0 11-2.722-2.722 2.721 2.721 0 012.722 2.722M56.438 238.262a2.723 2.723 0 11-2.722-2.722 2.721 2.721 0 012.722 2.722"/><path class="cls-3" d="M18.507 156.762h60.652v39.05H18.507z"/><path class="cls-5" d="M45.028 176.285a2.724 2.724 0 11-2.724-2.721 2.725 2.725 0 012.724 2.721M32.837 176.285a2.724 2.724 0 11-2.723-2.721 2.723 2.723 0 012.722 2.721M57.71 176.285a2.723 2.723 0 11-2.722-2.721 2.723 2.723 0 012.722 2.721M70.276 176.285a2.724 2.724 0 11-2.722-2.721 2.723 2.723 0 012.722 2.721"/><path class="cls-3" d="M221.733 704.94h158.48v45.05h-158.48z"/><path class="cls-5" d="M239.829 724.742a2.723 2.723 0 11-2.724 2.722 2.721 2.721 0 012.724-2.722M239.829 736.931a2.724 2.724 0 11-2.724 2.725 2.722 2.722 0 012.724-2.725M239.829 712.058a2.724 2.724 0 11-2.724 2.722 2.721 2.721 0 012.724-2.722"/><path class="cls-3" d="M262.185 704.94h36.188v45.05h-36.188z"/><path class="cls-5" d="M280.28 724.742a2.723 2.723 0 11-2.722 2.722 2.723 2.723 0 012.722-2.722M280.28 736.931a2.724 2.724 0 11-2.722 2.725 2.723 2.723 0 012.722-2.725M280.28 712.058a2.724 2.724 0 11-2.722 2.722 2.723 2.723 0 012.722-2.722"/><path class="cls-3" d="M344.025 704.94h36.188v45.05h-36.188z"/><path class="cls-5" d="M362.12 724.742a2.723 2.723 0 11-2.722 2.722 2.723 2.723 0 012.722-2.722M362.12 736.931a2.724 2.724 0 11-2.722 2.725 2.723 2.723 0 012.722-2.725M362.12 712.058a2.724 2.724 0 11-2.722 2.722 2.723 2.723 0 012.722-2.722"/><path class="cls-3" d="M303.129 704.94h36.188v45.05h-36.188z"/><path class="cls-5" d="M321.223 724.742a2.723 2.723 0 11-2.722 2.722 2.721 2.721 0 012.722-2.722M321.223 736.931a2.724 2.724 0 11-2.722 2.725 2.722 2.722 0 012.722-2.725M321.223 712.058a2.724 2.724 0 11-2.722 2.722 2.721 2.721 0 012.722-2.722"/><path class="cls-3" d="M398.262 704.832h158.48v45.05h-158.48z"/><path class="cls-5" d="M416.354 724.634a2.723 2.723 0 11-2.722 2.722 2.722 2.722 0 012.722-2.722M416.354 736.823a2.724 2.724 0 11-2.722 2.725 2.722 2.722 0 012.722-2.725M416.354 711.95a2.724 2.724 0 11-2.722 2.722 2.722 2.722 0 012.722-2.722"/><path class="cls-3" d="M438.713 704.832h36.188v45.05h-36.188z"/><path class="cls-5" d="M456.808 724.634a2.723 2.723 0 11-2.725 2.722 2.721 2.721 0 012.725-2.722M456.808 736.823a2.724 2.724 0 11-2.725 2.725 2.722 2.722 0 012.725-2.725M456.808 711.95a2.724 2.724 0 11-2.725 2.722 2.721 2.721 0 012.725-2.722"/><path class="cls-3" d="M520.553 704.832h36.188v45.05h-36.188z"/><path class="cls-5" d="M538.648 724.634a2.723 2.723 0 11-2.725 2.722 2.721 2.721 0 012.725-2.722M538.648 736.823a2.724 2.724 0 11-2.725 2.725 2.722 2.722 0 012.725-2.725M538.648 711.95a2.724 2.724 0 11-2.725 2.722 2.721 2.721 0 012.725-2.722"/><path class="cls-3" d="M479.656 704.832h36.19v45.05h-36.19z"/><path class="cls-5" d="M497.751 724.634a2.723 2.723 0 11-2.724 2.722 2.721 2.721 0 012.724-2.722M497.751 736.823a2.724 2.724 0 11-2.724 2.725 2.722 2.722 0 012.724-2.725M497.751 711.95a2.724 2.724 0 11-2.724 2.722 2.721 2.721 0 012.724-2.722"/><path class="cls-6" d="M23.271 82.77h43.512v24.818H23.271z"/><path class="cls-7" d="M33.048 87.424h27.92v14.734h-27.92z"/><path class="cls-8" d="M46.038 95.18a9.791 9.791 0 11-9.793-9.792 9.79 9.79 0 019.793 9.792"/><path class="cls-6" d="M23.271 107.588h43.512v24.816H23.271z"/><path class="cls-7" d="M33.048 112.242h27.92v14.734h-27.92z"/><path class="cls-8" d="M46.038 119.996a9.791 9.791 0 11-9.793-9.792 9.792 9.792 0 019.793 9.792"/><path class="cls-3" d="M147.274 20.637v33.974h-7.386v40.18h7.386v25.206h35.45V94.791h15.508V53.133l-15.508-.738V20.637h-35.45z"/><path class="cls-8" d="M174.79 35.772a9.791 9.791 0 11-9.792-9.792 9.792 9.792 0 019.792 9.792M174.79 104.758a9.791 9.791 0 11-9.792-9.792 9.79 9.79 0 019.792 9.792M169.062 58.944h25.478v10.338h-25.478zM169.062 77.416h25.478v10.34h-25.478z"/><path class="cls-7" d="M359.998 615.73h-3.077a82.851 82.851 0 01-6.85-8.943h-.042v8.944h-3.622v-15.27h3.338c2.204 2.705 5.496 6.675 6.588 8.747h.042v-8.747h3.622v15.27M370.666 600.46l5.802 15.27h-4.886l-1.2-3.642h-4.734l-1.462 3.642h-3.598l6.216-15.27zm-1.026 9.206c-.502-1.81-.938-3.272-1.484-5.454h-.044c-.588 2.182-1.112 3.644-1.68 5.454h3.208M377.929 615.731v-12.412h-4.406v-2.858h13.416v2.858h-4.406v12.412h-4.604zM388.422 600.462h4.604v15.27h-4.604zM394.135 607.922a7.592 7.592 0 1115.182 0c0 4.558-2.902 8.07-7.592 8.07s-7.59-3.512-7.59-8.07m10.382 0c0-2.706-.828-4.538-2.793-4.538s-2.791 1.832-2.791 4.538c0 2.878.742 4.884 2.791 4.884s2.793-2.006 2.793-4.884M424.017 615.73h-3.074a82.351 82.351 0 01-6.85-8.943h-.044v8.944h-3.622v-15.27h3.338c2.204 2.705 5.496 6.675 6.588 8.747h.044v-8.747h3.62v15.27M434.467 600.46l5.802 15.27h-4.884l-1.202-3.642h-4.734l-1.462 3.642h-3.598l6.218-15.27zm-1.026 9.206c-.5-1.81-.938-3.272-1.482-5.454h-.044c-.59 2.182-1.112 3.644-1.682 5.454h3.208M441.296 600.461h4.602v12.412h5.584v2.858h-10.186v-15.27zM339.534 620.46h4.604v15.272h-4.604zM359.689 635.73h-3.074a82.669 82.669 0 01-6.852-8.945h-.042v8.946h-3.622v-15.272h3.338c2.204 2.706 5.498 6.676 6.588 8.748h.042v-8.748h3.622v15.272M369.398 623.623a4.343 4.343 0 00-2.248-.568c-.894 0-1.352.438-1.352.94 0 .848 1.288 1.548 2.772 2.92 1.96 1.834 2.442 2.99 2.442 4.584 0 1.35-1.112 4.494-5.694 4.494a7.735 7.735 0 01-4.798-1.398l1.396-2.53a4.322 4.322 0 002.616 1.068c.916 0 1.92-.458 1.92-1.592 0-1.22-1.484-2.116-2.682-3.162-1.593-1.396-2.532-2.206-2.532-4.08 0-2.444 2.464-4.102 5.345-4.102a8.125 8.125 0 013.993 1.026l-1.178 2.4M375.548 635.731v-12.414h-4.406v-2.858h13.414v2.858h-4.404v12.414h-4.604zM386.038 620.458h6.808c3.598 0 5.54 1.572 5.54 4.08a4.58 4.58 0 01-2.574 4.406l3.38 6.546-4.928.503-2.42-6.045h-1.202v5.783h-4.604zm4.604 6.612h1.308a1.841 1.841 0 001.832-1.876 1.685 1.685 0 00-1.918-1.878h-1.222v3.754M404.365 620.46v7.985c0 2.746.413 4.362 2.356 4.362 1.525 0 2.4-1.528 2.4-4.428v-7.92h3.97v9.228c0 4.56-3.098 6.306-6.588 6.306-3.904 0-6.742-1.637-6.742-6.196v-9.338h4.604M433.661 635.73h-4.601v-10.69h-.042c-1.18 3.992-2.4 7.353-3.624 10.69h-2.9c-1.244-3.337-2.488-6.697-3.688-10.69h-.042v10.69h-3.622V620.46h6.238c1.048 2.924 2.094 5.826 3.12 9.402h.044c.982-3.576 2.006-6.478 3.01-9.402h6.108v15.272M444.898 623.317h-4.668v3.012h4.56v2.858h-4.56v3.684h5.608v2.86h-10.21v-15.272h9.27v2.858zM460.255 635.73h-3.076a82.637 82.637 0 01-6.85-8.945h-.042v8.946h-3.622v-15.272h3.338c2.204 2.706 5.496 6.676 6.588 8.748h.042v-8.748h3.622v15.272M465.492 635.731v-12.414h-4.406v-2.858h13.415v2.858h-4.406v12.414h-4.603zM483.51 623.623a4.341 4.341 0 00-2.247-.568c-.896 0-1.354.438-1.354.94 0 .848 1.288 1.548 2.77 2.92 1.964 1.834 2.444 2.99 2.444 4.584 0 1.35-1.112 4.494-5.692 4.494a7.737 7.737 0 01-4.8-1.398l1.396-2.53a4.332 4.332 0 002.616 1.068c.916 0 1.92-.458 1.92-1.592 0-1.22-1.482-2.116-2.682-3.162-1.592-1.396-2.532-2.206-2.532-4.08 0-2.444 2.466-4.102 5.346-4.102a8.125 8.125 0 013.992 1.026l-1.178 2.4M485.952 623.088v-2.16h-.82v-.276h2.056v.276h-.816v2.16zm4.444 0h-.424v-1.796h-.012l-.964 1.796h-.2l-.896-1.796h-.008v1.796h-.344v-2.436h.488l.918 1.826.994-1.826h.448v2.436M322.84 606.225a5.821 5.821 0 014.207-4.886c5.154-1.464 7.912-1.194 17.154-1.27-5.54 4.958-9.964 12.77-8.974 20.414-1.99-1.63-3.334-3.96-5.062-5.822a19.25 19.25 0 001.668-3.888c.612-2.312 2.278-2.858 4.39-2.794.158.006-.124-1.78-.708-1.938-1.574-.426-2.906.08-4.734-.626a2.228 2.228 0 00-1.744.332c-1.5.766-2.45 2.404-4.138 2.922zM294.583 604.729a25.093 25.093 0 019.954-4.324c4.716-.862 9.826-.926 13.348 2.47 6.654 6.408 12.042 13.134 17.878 20.456.23.288.21 1.076.01 1.19a83.72 83.72 0 01-12.672 5.934 2.188 2.188 0 01-2.03-.448c-6.654-6.046-11.21-13.282-17.596-19.572a21.322 21.322 0 00-8.724-5.186c-.264-.082-.312-.42-.168-.52"/><path class="cls-7" d="M317.837 634.229a42.826 42.826 0 00-11.938 12.718 26.506 26.506 0 01.48-14.968c1.67-4.676 1.99-9.216 2.212-14.09 3.036 3.496 6.482 7.36 9.32 10.865z"/><path class="cls-3" d="M259.959 527.572h260.228v32.484H259.959z"/><path class="cls-5" d="M278.706 546.89a1.964 1.964 0 11-1.965 1.965 1.963 1.963 0 011.965-1.964M278.706 536.81a1.964 1.964 0 11-1.965 1.965 1.962 1.962 0 011.965-1.964M290.797 546.89a1.964 1.964 0 11-1.964 1.965 1.963 1.963 0 011.964-1.964M290.797 536.81a1.964 1.964 0 11-1.964 1.965 1.962 1.962 0 011.964-1.964M305.754 546.879a1.964 1.964 0 11-1.964 1.964 1.962 1.962 0 011.964-1.964M305.754 536.799a1.964 1.964 0 11-1.964 1.964 1.962 1.962 0 011.964-1.964M317.846 546.879a1.964 1.964 0 11-1.962 1.964 1.962 1.962 0 011.962-1.964M317.846 536.799a1.964 1.964 0 11-1.962 1.964 1.962 1.962 0 011.962-1.964M333.456 546.879a1.964 1.964 0 11-1.965 1.964 1.962 1.962 0 011.965-1.964M333.456 536.799a1.964 1.964 0 11-1.965 1.962 1.961 1.961 0 011.965-1.962M345.547 546.879a1.964 1.964 0 11-1.962 1.964 1.964 1.964 0 011.962-1.964M345.547 536.799a1.964 1.964 0 11-1.962 1.962 1.963 1.963 0 011.962-1.962M360.762 546.879a1.964 1.964 0 11-1.962 1.964 1.962 1.962 0 011.962-1.964M360.762 536.799a1.964 1.964 0 11-1.962 1.962 1.962 1.962 0 011.962-1.962M375.362 546.879a1.964 1.964 0 11-1.964 1.964 1.962 1.962 0 011.964-1.964M375.362 536.799a1.964 1.964 0 11-1.964 1.962 1.961 1.961 0 011.964-1.962M389.813 546.879a1.964 1.964 0 11-1.962 1.964 1.962 1.962 0 011.962-1.964M389.813 536.799a1.964 1.964 0 11-1.962 1.964 1.962 1.962 0 011.962-1.964M402.72 546.881a1.963 1.963 0 11-1.963 1.962 1.962 1.962 0 011.962-1.962M402.72 536.799a1.964 1.964 0 11-1.963 1.964 1.962 1.962 0 011.962-1.964M415.936 546.879a1.964 1.964 0 11-1.964 1.964 1.963 1.963 0 011.964-1.964M415.936 536.799a1.964 1.964 0 11-1.964 1.964 1.962 1.962 0 011.964-1.964M428.956 546.879a1.964 1.964 0 11-1.965 1.964 1.962 1.962 0 011.965-1.964M428.956 536.799a1.964 1.964 0 11-1.965 1.964 1.962 1.962 0 011.965-1.964M443.848 546.879a1.964 1.964 0 11-1.962 1.964 1.963 1.963 0 011.962-1.964M443.848 536.799a1.964 1.964 0 11-1.962 1.964 1.962 1.962 0 011.962-1.964M457.014 546.879a1.964 1.964 0 11-1.962 1.964 1.964 1.964 0 011.962-1.964M457.014 536.799a1.964 1.964 0 11-1.962 1.964 1.964 1.964 0 011.962-1.964M470.008 546.879a1.964 1.964 0 11-1.964 1.964 1.963 1.963 0 011.964-1.964M470.008 536.799a1.964 1.964 0 11-1.964 1.964 1.962 1.962 0 011.964-1.964M484.063 546.881a1.963 1.963 0 11-1.962 1.962 1.962 1.962 0 011.962-1.962M484.063 536.799a1.964 1.964 0 11-1.962 1.964 1.962 1.962 0 011.962-1.964M496.963 546.881a1.963 1.963 0 11-1.964 1.962 1.961 1.961 0 011.964-1.962M496.963 536.799a1.964 1.964 0 11-1.964 1.964 1.962 1.962 0 011.964-1.964"/><path class="cls-9" d="M373.77 524.139H256.366v39.328H520.56v-39.328H405.128"/><path class="cls-5" d="M265.042 177.528a9.381 9.381 0 11-9.38-9.38 9.38 9.38 0 019.38 9.38"/><path class="cls-8" d="M261.077 177.528a5.416 5.416 0 11-5.416-5.416 5.416 5.416 0 015.416 5.416"/><path class="cls-5" d="M531.924 169.602a9.381 9.381 0 11-13.268 0 9.383 9.383 0 0113.268 0"/><path class="cls-8" d="M530.708 176.235a5.416 5.416 0 11-5.416-5.416 5.417 5.417 0 015.416 5.416"/><path class="cls-3" d="M600.151 16.778h51.558v119.209h-51.558z"/><path class="cls-3" d="M610.125 23.044h32.486v104.862h-32.486z"/><path class="cls-5" d="M629.446 109.451c0-.438.878-.792 1.962-.792s1.964.354 1.964.792-.88.793-1.964.793-1.962-.354-1.962-.793M619.364 109.451c0-.438.878-.792 1.964-.792 1.084 0 1.964.354 1.964.792s-.88.793-1.964.793c-1.086 0-1.964-.354-1.964-.793M629.446 104.578c0-.438.878-.792 1.962-.792s1.964.354 1.964.792-.88.793-1.964.793-1.962-.354-1.962-.793M619.364 104.578c0-.438.878-.792 1.964-.792 1.084 0 1.964.354 1.964.792s-.88.793-1.964.793c-1.086 0-1.964-.354-1.964-.793M629.446 98.29c0-.439.878-.793 1.962-.793s1.964.354 1.964.792-.88.793-1.964.793-1.962-.354-1.962-.793M619.364 98.29c0-.439.878-.793 1.964-.793 1.084 0 1.964.354 1.964.792s-.88.793-1.964.793c-1.086 0-1.964-.354-1.964-.793M629.446 93.416c0-.438.878-.792 1.962-.792s1.964.354 1.964.792-.88.793-1.964.793-1.962-.355-1.962-.793M619.364 93.416c0-.438.878-.792 1.964-.792 1.084 0 1.964.354 1.964.792s-.88.793-1.964.793c-1.086 0-1.964-.355-1.964-.793M629.446 87.285c0-.438.878-.792 1.962-.792s1.964.354 1.964.792-.88.793-1.964.793-1.962-.354-1.962-.793M619.364 87.285c0-.438.878-.792 1.964-.792 1.084 0 1.964.354 1.964.792s-.88.793-1.964.793c-1.086 0-1.964-.354-1.964-.793M629.446 81.403c0-.438.878-.792 1.962-.792s1.964.354 1.964.792-.88.792-1.964.792-1.962-.354-1.962-.792M619.364 81.403c0-.438.878-.792 1.964-.792 1.084 0 1.964.354 1.964.792s-.88.792-1.964.792c-1.086 0-1.964-.354-1.964-.792M629.446 75.578c0-.435.878-.792 1.962-.792s1.964.357 1.964.792c0 .439-.88.793-1.964.793s-1.962-.354-1.962-.793M619.364 75.578c0-.435.878-.792 1.964-.792 1.084 0 1.964.357 1.964.792 0 .439-.88.793-1.964.793-1.086 0-1.964-.354-1.964-.793M629.446 70.38c0-.439.878-.793 1.962-.793 1.086 0 1.966.354 1.966.792 0 .436-.88.792-1.966.792-1.084 0-1.962-.356-1.962-.792M619.366 70.38c0-.439.878-.793 1.962-.793s1.964.354 1.964.792c0 .436-.88.792-1.964.792s-1.962-.356-1.962-.792M629.446 65.053c0-.438.878-.792 1.962-.792s1.966.354 1.966.792-.882.792-1.966.792-1.962-.354-1.962-.792M619.364 65.053c0-.438.88-.792 1.964-.792s1.964.354 1.964.792-.88.792-1.964.792-1.964-.354-1.964-.792M629.446 59.807c0-.438.878-.792 1.962-.792s1.964.354 1.964.792-.88.792-1.964.792-1.962-.354-1.962-.792M619.364 59.807c0-.438.878-.792 1.964-.792 1.084 0 1.964.354 1.964.792s-.88.792-1.964.792c-1.086 0-1.964-.354-1.964-.792M629.446 53.805c0-.436.878-.792 1.962-.792s1.966.356 1.966.792c0 .438-.882.792-1.966.792s-1.962-.354-1.962-.792M619.364 53.805c0-.436.88-.792 1.964-.792s1.964.356 1.964.792c0 .438-.88.792-1.964.792s-1.964-.354-1.964-.792M629.446 48.5c0-.438.878-.792 1.962-.792s1.964.354 1.964.792-.88.792-1.964.792-1.962-.354-1.962-.792M619.364 48.5c0-.438.878-.792 1.964-.792 1.084 0 1.964.354 1.964.792s-.88.792-1.964.792c-1.086 0-1.964-.354-1.964-.792M629.446 43.264c0-.438.878-.792 1.962-.792s1.966.354 1.966.792-.882.792-1.966.792-1.962-.354-1.962-.792M619.364 43.264c0-.436.88-.792 1.964-.792s1.964.356 1.964.792c0 .438-.88.792-1.964.792s-1.964-.354-1.964-.792"/><path class="cls-9" d="M606.706 82.043v47.308h39.326V22.895h-39.326v46.514"/><text class="cls-10" transform="translate(71.2 242.72)">RS-232</text><text class="cls-10" transform="translate(89.749 182.389)">I</text><text class="cls-10" transform="matrix(.583 0 0 .583 96.588 176.978)">2</text><text class="cls-10" transform="translate(102.61 182.389)">C</text><text class="cls-10" transform="translate(28.91 74.486)">CAN</text><text class="cls-11" transform="translate(74.496 97.764)">L (GRN)</text><text class="cls-11" transform="translate(74.496 122.583)">H (YEL)</text><path class="cls-12" d="M98.186 477.247a4.493 4.493 0 01-1.844 1.748 5.83 5.83 0 01-2.75.627H92.53a5.82 5.82 0 01-2.753-.627 4.481 4.481 0 01-1.84-1.76 5.161 5.161 0 01-.65-2.611v-3.159h11.55v3.231a5.002 5.002 0 01-.651 2.551zm-4.577 1.408a5.158 5.158 0 002.312-.492 3.635 3.635 0 001.54-1.389 3.931 3.931 0 00.543-2.078v-2.254H88.11v2.182a4.02 4.02 0 00.556 2.135 3.677 3.677 0 001.555 1.404 5.16 5.16 0 002.308.492zM87.285 482.327h11.552v.977H87.285zM89.638 494.423a4.413 4.413 0 01-1.857-6.295 4.301 4.301 0 011.86-1.588 6.56 6.56 0 012.801-.563h1.238a6.593 6.593 0 012.8.56 4.299 4.299 0 011.86 1.58 4.25 4.25 0 01.655 2.35 4.157 4.157 0 01-2.51 3.952 6.646 6.646 0 01-2.805.555h-1.238a6.674 6.674 0 01-2.804-.551zm6.422-.838a3.373 3.373 0 001.539-1.217 3.314 3.314 0 00.54-1.9 3.256 3.256 0 00-.54-1.873 3.412 3.412 0 00-1.543-1.217 6.024 6.024 0 00-2.36-.425h-1.253a6.008 6.008 0 00-2.368.43 3.451 3.451 0 00-1.548 1.224 3.257 3.257 0 00-.543 1.877 3.31 3.31 0 00.539 1.905 3.345 3.345 0 001.543 1.205 6.228 6.228 0 002.377.414h1.253a6.052 6.052 0 002.364-.423z"/><path class="cls-13" d="M81.936 295.006h11.208v165.572M93.145 505.861v156.477H81.937"/><text class="cls-10" transform="translate(277.166 680.169)">RE<tspan x="21.571" y="0" letter-spacing=".009em">L</tspan><tspan x="30.762" y="0" letter-spacing="-.058em">A</tspan><tspan x="40.927" y="0">Y</tspan></text><path class="cls-13" d="M239.124 685.668v-8.874h30.717M333.971 676.793h27.866v9.974"/><text transform="translate(433.52 681.885)" font-size="15.92" font-family="Verdana" fill="#fff">ANA<tspan x="33.675" y="0" letter-spacing="-.031em">L</tspan><tspan x="42.043" y="0">OG IN</tspan></text><text class="cls-18" transform="translate(615.046 692.797)">RESET</text><text class="cls-18" transform="translate(671.225 692.795)">USER</text><path class="cls-13" d="M415.559 685.602v-8.26h14.03M528.419 676.244h13.931v10.524"/><path class="cls-3" d="M95.342 704.94H135.3v45.05H95.342z"/><path class="cls-5" d="M115.32 724.74a2.724 2.724 0 11-2.722 2.724 2.725 2.725 0 012.722-2.724M115.32 736.931a2.724 2.724 0 11-2.722 2.722 2.723 2.723 0 012.722-2.722"/><text class="cls-10" transform="translate(101.066 692.886)">RSL</text><text class="cls-10" transform="rotate(-90 593.631 -100.655)">PWM</text><path class="cls-13" d="M698.698 662.246H687.49V501.23M687.489 446.086V289.653h11.208"/><path class="cls-5" d="M336.9 82.948a9.381 9.381 0 11-9.38-9.38 9.38 9.38 0 019.38 9.38"/><path class="cls-8" d="M332.936 82.948a5.416 5.416 0 11-5.416-5.416 5.417 5.417 0 015.416 5.416"/><path class="cls-5" d="M336.9 37.418a9.381 9.381 0 11-9.38-9.378 9.38 9.38 0 019.38 9.378"/><path class="cls-8" d="M332.936 37.418a5.416 5.416 0 11-5.416-5.414 5.416 5.416 0 015.416 5.414"/><path class="cls-19" d="M228.919 33.688h66.468v53.384h-66.468z"/><path class="cls-20" d="M246.46 39.147h31.203l7.57 7.756v34.71h-46.158V47.087l7.385-7.94z"/><path class="cls-5" d="M256.108 65.045a1.964 1.964 0 11-1.964 1.962 1.962 1.962 0 011.964-1.962M256.108 54.965a1.964 1.964 0 11-1.964 1.962 1.962 1.962 0 011.964-1.962M268.2 65.045a1.964 1.964 0 11-1.962 1.962 1.962 1.962 0 011.962-1.962M268.2 54.965a1.964 1.964 0 11-1.962 1.962 1.962 1.962 0 011.962-1.962"/><path class="cls-19" d="M463.988 22.814h87.148v94.458h-87.148z"/><path class="cls-20" d="M474.79 59.678h65.546v38.174H474.79zM489.374 97.852h36.004v8.862h-36.004zM495.836 106.714H519.1v7.386h-23.264z"/><path fill="#f3ea07" d="M465.926 97.852h23.448v13.292h-23.448z"/><path fill="#7cc244" d="M525.378 97.852h23.45v13.292h-23.45z"/><path class="cls-19" d="M361.729 68.974h75.392v33.31h-75.392z"/><path class="cls-20" d="M363.727 70.316h71.456V100.4h-71.456z"/><path class="cls-19" d="M361.762 22.494h75.392v33.31h-75.392z"/><path class="cls-20" d="M363.759 23.836h71.454V53.92h-71.454z"/><text transform="translate(300.25 243.245)" font-size="32.496" font-family="Verdana" fill="#fff">NI <tspan x="49.41" y="0" letter-spacing="-.013em">r</tspan><tspan x="62.856" y="0" letter-spacing="0">oboRIO</tspan></text><path class="cls-6" d="M366.743 73.566h65.362v11.792h-65.362zM366.743 27.088h65.362V38.88h-65.362z"/><text class="cls-10" transform="translate(695.588 88.933)">POWER</text><path class="cls-26" d="M760.485 75.621h16.034v15.185h-16.034z"/><path class="cls-27" d="M775.649 75.74h10.603v15.185h-10.603z"/><text class="cls-10" transform="translate(690.65 114.892)">STATUS</text><path class="cls-26" d="M760.485 101.581h16.034v15.185h-16.034z"/><path class="cls-27" d="M775.649 101.7h10.603v15.185h-10.603z"/><text class="cls-10" transform="translate(701.336 154.545)">RADIO</text><path class="cls-26" d="M760.485 141.494h16.034v15.185h-16.034z"/><path class="cls-27" d="M775.649 141.613h10.603v15.185h-10.603z"/><text class="cls-10" transform="translate(704.367 181.414)">COMM</text><path class="cls-26" d="M760.485 168.103h16.034v15.185h-16.034z"/><path class="cls-27" d="M775.649 168.222h10.603v15.185h-10.603z"/><text class="cls-10" transform="translate(706.612 209.326)">MODE</text><path class="cls-26" d="M760.485 194.712h16.034v15.185h-16.034z"/><path class="cls-27" d="M775.649 194.831h10.603v15.185h-10.603z"/><text class="cls-10" transform="translate(724.417 249.873)">RSL</text><path class="cls-26" d="M760.485 235.257h16.034v15.185h-16.034z"/><path class="cls-27" d="M775.649 235.377h10.603v15.185h-10.603z"/><rect x="604.608" y="701.86" width="108.849" height="50.995" rx="9.855" fill="#5a5d65"/><rect class="cls-29" x="618.875" y="713.705" width="27.121" height="27.303" rx="13.56"/><rect class="cls-29" x="672.07" y="713.705" width="27.121" height="27.303" rx="13.56"/><path class="cls-3" d="M712.318 268.101h46.329v413.171h-46.329z"/><path class="cls-5" d="M737.962 290.67a2.724 2.724 0 11-2.725-2.723 2.723 2.723 0 012.725 2.724M725.77 290.67a2.724 2.724 0 11-2.722-2.723 2.721 2.721 0 012.722 2.724M750.643 290.67a2.723 2.723 0 11-2.722-2.723 2.721 2.721 0 012.722 2.724M737.962 331.902a2.724 2.724 0 11-2.725-2.723 2.723 2.723 0 012.725 2.723M725.77 331.902a2.724 2.724 0 11-2.722-2.723 2.721 2.721 0 012.722 2.723M750.643 331.902a2.723 2.723 0 11-2.722-2.723 2.721 2.721 0 012.722 2.723M737.962 373.134a2.724 2.724 0 11-2.725-2.723 2.723 2.723 0 012.725 2.723M725.77 373.134a2.724 2.724 0 11-2.722-2.723 2.721 2.721 0 012.722 2.723M750.643 373.134a2.723 2.723 0 11-2.722-2.723 2.721 2.721 0 012.722 2.723M737.962 414.366a2.724 2.724 0 11-2.725-2.723 2.723 2.723 0 012.725 2.723M725.77 414.366a2.724 2.724 0 11-2.722-2.723 2.721 2.721 0 012.722 2.723M750.643 414.366a2.723 2.723 0 11-2.722-2.723 2.721 2.721 0 012.722 2.723M737.962 455.598a2.724 2.724 0 11-2.725-2.723 2.723 2.723 0 012.725 2.723M725.77 455.598a2.724 2.724 0 11-2.722-2.723 2.721 2.721 0 012.722 2.723M750.643 455.598a2.723 2.723 0 11-2.722-2.723 2.721 2.721 0 012.722 2.723M737.962 496.83a2.724 2.724 0 11-2.725-2.723 2.723 2.723 0 012.725 2.722M725.77 496.83a2.724 2.724 0 11-2.722-2.723 2.721 2.721 0 012.722 2.722M750.643 496.83a2.723 2.723 0 11-2.722-2.723 2.721 2.721 0 012.722 2.722M737.962 538.061a2.724 2.724 0 11-2.725-2.722 2.723 2.723 0 012.725 2.722M725.77 538.061a2.724 2.724 0 11-2.722-2.722 2.721 2.721 0 012.722 2.722M750.643 538.061a2.723 2.723 0 11-2.722-2.722 2.721 2.721 0 012.722 2.722M737.962 579.293a2.724 2.724 0 11-2.725-2.722 2.723 2.723 0 012.725 2.722M725.77 579.293a2.724 2.724 0 11-2.722-2.722 2.721 2.721 0 012.722 2.722M750.643 579.293a2.723 2.723 0 11-2.722-2.722 2.721 2.721 0 012.722 2.722M737.962 620.525a2.724 2.724 0 11-2.725-2.723 2.723 2.723 0 012.725 2.723M725.77 620.525a2.724 2.724 0 11-2.722-2.723 2.721 2.721 0 012.722 2.723M750.643 620.525a2.723 2.723 0 11-2.722-2.723 2.721 2.721 0 012.722 2.723M737.962 661.756a2.724 2.724 0 11-2.725-2.721 2.723 2.723 0 012.725 2.721M725.77 661.756a2.724 2.724 0 11-2.722-2.721 2.721 2.721 0 012.722 2.721M750.643 661.756a2.723 2.723 0 11-2.722-2.721 2.721 2.721 0 012.722 2.721"/><text class="cls-10" transform="translate(74.496 34.668)">INPUT</text><text class="cls-30" transform="translate(74.496 48.242)">7-16V</text><path class="cls-31" d="M111.616 46.864h3.381M116.856 46.864h3.377M122.1 46.864h3.381M111.616 43.471h13.865"/><text class="cls-30" transform="translate(74.496 61.267)">45 W MAX</text><path class="cls-32" d="M132.649 176.671v24.451M146.348 151.274v22.992M160.038 174.827v23.011M173.729 151.035v22.99M128.099 203.265h9.104M125.883 201.118h13.533"/><path class="cls-33" d="M130.94 172.892h3.423v3.425h-3.423z"/><path class="cls-12" d="M144.631 172.892h3.427v3.425h-3.427zM158.326 172.889h3.425v3.425h-3.425zM172.024 172.892h3.421v3.425h-3.421z"/><path class="cls-32" d="M126.248 157.484v34.233l53.874-.008v-34.225h-53.874z"/><text transform="matrix(1 0 0 1.0622 150.184 206.748)" font-size="10.922" font-family="Verdana" fill="#fff">SCL</text><text class="cls-35" transform="matrix(1 0 0 1.0115 134.744 147.105)">3.3V S<tspan x="39.238" y="0" letter-spacing="-.019em">D</tspan><tspan x="48.03" y="0">A</tspan></text><path class="cls-32" d="M130.113 205.416h5.073M145.654 238.09v24.334M159.348 238.464v31.586M173.039 238.464V258.9M143.117 266.722h5.073M141.104 264.571h9.104M138.887 262.423h13.533"/><path class="cls-33" d="M171.331 234.666h3.425v3.425h-3.425zM143.944 234.666h3.423v3.425h-3.423zM157.64 234.666h3.421v3.425h-3.421z"/><path class="cls-32" d="M138.81 218.856h41.08v34.232h-41.08z"/><text class="cls-35" transform="matrix(1 0 0 1.0115 162.554 269.464)">TXD</text><text class="cls-35" transform="matrix(1 0 0 1.0115 147.799 280.44)">RXD</text><path class="cls-32" d="M26.87 696.628v10.898M40.572 696.555l.317 18.411M54.263 696.628v7.846M24.333 711.828h5.073M22.32 709.673h9.104M20.103 707.53h13.533"/><text class="cls-37" transform="matrix(1 0 0 1.0056 34.452 725.12)">5V</text><text class="cls-37" transform="matrix(1 0 0 1.0056 50.836 713.805)">S</text><path class="cls-38" d="M52.714 693.092h3.179v3.458h-3.179zM39.141 693.348h3.179v3.458h-3.179zM25.384 693.303h3.179v3.458h-3.179z"/><path class="cls-32" d="M71.472 754.714h5.073M69.459 752.554h9.104M67.246 750.411h13.533M74.013 742.03h12.538M86.486 728.282h-8.004M74.009 741.684v8.727M74.013 749.035v-6.656"/><text class="cls-37" transform="matrix(1 0 0 1.0056 70.336 732.042)">S</text><path class="cls-38" d="M86.555 726.478h3.179v3.458h-3.179zM86.374 740.339h3.179v3.458h-3.179z"/><path class="cls-32" d="M194.303 754.71h5.073"/><path stroke-width=".686" stroke-miterlimit="2" stroke="#fff" fill="#fff" d="M192.289 752.554h9.104"/><path class="cls-32" d="M190.077 750.407h13.532M209.422 728.282h-8.11M209.422 714.559h-8.11M196.843 750.407v-8.576h12.579"/><text class="cls-40" transform="matrix(1 0 0 1.0605 176.683 717.04)">FWD</text><text class="cls-41" transform="matrix(1 0 0 1.1297 180.758 730.973)">REV</text><path class="cls-38" d="M209.536 712.736h3.179v3.458h-3.179zM209.214 726.45h3.179v3.458h-3.179zM209.185 740.196h3.179v3.458h-3.179z"/><path class="cls-42" d="M582.054 754.864h5.074M580.045 752.713h9.104M577.829 750.566h13.532M580.187 728.083h-8.024M580.183 714.518h-8.025M584.595 750.565v-8.523h-12.433"/><text class="cls-40" transform="matrix(1 0 0 1.0605 581.063 717.386)">S</text><text class="cls-41" transform="matrix(1 0 0 1.1297 581.719 731.56)">5V</text><path class="cls-38" d="M568.747 712.691h3.179v3.458h-3.179zM568.955 726.219h3.179v3.458h-3.179zM568.908 740.163h3.179v3.458h-3.179z"/><path class="cls-32" d="M745.766 707.239h5.074M743.757 705.092h9.1M741.545 702.945h13.532M720.909 691.97v7.91M734.604 692.03v18.14M748.294 691.97v11.344"/><text class="cls-37" transform="matrix(1 0 0 1.0056 717.598 709.223)">S</text><text class="cls-37" transform="matrix(1 0 0 1.0056 728.417 720.231)">6V</text><path class="cls-38" d="M719.209 688.699h3.179v3.458h-3.179zM733.007 688.699h3.179v3.458h-3.179zM746.648 688.699h3.179v3.458h-3.179z"/><path class="cls-43" d="M602.791 644.332a6.848 6.848 0 006.856-6.84M602.791 630.641a6.853 6.853 0 00-6.84 6.851"/><text class="cls-44" transform="matrix(1 0 0 1.0349 552.557 657.536)"><tspan letter-spacing="-.02em">A</tspan><tspan x="7.588" y="0">CCELEROMETER</tspan></text><text class="cls-44" transform="matrix(1 0 0 1.0349 598.472 604.369)">Y</text><text class="cls-44" transform="matrix(1 0 0 1.0349 585.924 631.964)">Z</text><text class="cls-44" transform="matrix(1 0 0 1.0349 631.269 641.447)">X</text><path class="cls-46" d="M626.808 637.833h-24.013M602.791 637.833v-27.105"/><path class="cls-32" d="M602.791 644.332a6.845 6.845 0 10-6.84-6.84 6.848 6.848 0 006.84 6.84z"/><path class="cls-12" d="M630.432 637.833l-4.724-1.822 1.12 1.822-1.12 1.819"/><path class="cls-47" d="M630.432 637.833l-4.724-1.822 1.12 1.822-1.12 1.819"/><path class="cls-12" d="M602.791 607.225l-1.798 4.733 1.798-1.469 1.81 1.469-1.81-4.733"/><path class="cls-47" d="M602.791 607.225l-1.798 4.733 1.798-1.469 1.81 1.469-1.81-4.733"/><path fill="#231f20" d="M625.708 639.652l4.724-1.819"/><path class="cls-47" d="M625.708 639.652l4.724-1.819"/><path class="cls-12" d="M602.795 639.039a1.546 1.546 0 10-1.542-1.547 1.552 1.552 0 001.542 1.547"/><path class="cls-32" d="M602.795 639.039a1.546 1.546 0 10-1.542-1.547 1.552 1.552 0 001.542 1.547z"/><path class="cls-43" d="M607.501 265.882h41.08"/><path class="cls-32" d="M598.771 241.91h23.687M598.771 228.215h23.687M598.771 214.525h23.688M607.505 163.179v102.703M598.771 200.834h23.687M598.771 187.147h23.687M648.586 265.894V163.191"/><path class="cls-43" d="M648.586 163.175h-41.081"/><path class="cls-49" d="M633.178 241.918h23.692M598.771 241.91h23.687M598.767 228.219h23.687M633.174 228.219h23.692M598.767 214.529h23.687M633.174 214.529h23.692M587.872 178.307v8.905M598.767 200.834h23.687M633.174 200.834h23.692M585.332 191.514h5.077M583.327 189.363h9.1M581.11 187.216h13.529M598.767 187.139h23.687M633.174 187.139h23.692M607.505 163.179h41.08v102.703h-41.08z"/><text class="cls-35" transform="matrix(1 0 0 1.0115 658.978 190.07)">CS0</text><text class="cls-35" transform="matrix(1 0 0 1.0115 658.972 203.747)">CS1</text><text class="cls-35" transform="matrix(1 0 0 1.0115 658.964 217.69)">5V</text><text class="cls-35" transform="matrix(1 0 0 1.0115 658.956 231.444)">CS2</text><text class="cls-35" transform="matrix(1 0 0 1.0115 659.149 245.149)">CS3</text><text class="cls-35" transform="matrix(1 0 0 1.0115 566.983 204.672)">SCLK</text><text class="cls-35" transform="matrix(1 0 0 1.0115 565.69 218.369)">MOSI</text><text class="cls-35" transform="matrix(1 0 0 1.0115 565.681 232.123)">MISO</text><text class="cls-35" transform="matrix(1 0 0 1.0115 572.81 246.314)">3.3V</text><path class="cls-38" d="M620.83 185.123h3.179v3.458h-3.179zM620.83 198.809h3.179v3.458h-3.179zM620.83 212.5h3.179v3.458h-3.179zM620.83 226.191h3.179v3.458h-3.179zM620.83 239.886h3.179v3.458h-3.179zM631.549 239.894h3.179v3.458h-3.179zM631.545 226.195h3.179v3.458h-3.179zM631.545 212.504h3.179v3.458h-3.179zM631.545 198.809h3.179v3.458h-3.179zM631.545 185.115h3.179v3.458h-3.179z"/><text class="cls-10" transform="translate(614.39 152.83)">SPI</text><path class="cls-12" d="M272.263 267.044v1.588l-3.987.204v.17c2.576 2.35 4.506 4.755 4.506 8.04 0 4.94-2.72 7.313-8.35 7.313H251.5v-1.884h12.678c4.64 0 6.878-1.697 6.878-5.729 0-2.892-1.538-4.886-4.676-7.818h-14.88v-1.884zM256.664 291.911c4.65 0 6.848 4.575 7.839 15.623 3.42-.034 6.599-1.391 6.599-6.06a14.047 14.047 0 00-2.824-7.705l1.414-.875a16.294 16.294 0 013.09 8.804c0 5.456-3.573 7.72-8.018 7.72h-13.265v-1.598l3.106-.204v-.097c-1.91-2.34-3.625-5.496-3.625-8.504 0-3.644 1.796-7.104 5.684-7.104zm-.272 15.623h6.646c-.944-10.368-2.938-13.689-6.272-13.689-2.977 0-4.117 2.74-4.117 5.485 0 2.612 1.282 5.334 3.743 8.204zM272.263 316.09v1.968l-12.994 5.615c-2.087.9-4.1 1.755-5.975 2.538v.17c1.875.783 3.888 1.554 5.975 2.464l12.994 5.616v1.849l-20.764-9.063v-1.999zM266.253 350.535l13.74-7.854v2.122l-8.387 4.644c-1.297.751-2.307 1.357-3.9 2.279v.17c1.593.825 2.603 1.346 3.9 2.086l8.387 4.62v2.016l-13.85-7.856-14.644 8.438v-2.134l8.745-4.898c1.395-.764 2.79-1.59 4.52-2.584v-.17c-1.73-.899-3.125-1.65-4.52-2.403l-8.745-4.898v-2.015zM288.025 365.396v.727l-1.27.095v.04a2.448 2.448 0 011.503 2.191 1.813 1.813 0 01-1.659 1.89c1.066.682 1.659 1.26 1.659 2.321 0 1.315-.93 2.06-2.799 2.06h-6.754v-.87h6.666c1.398 0 2.116-.445 2.116-1.357 0-.859-.584-1.386-1.752-2.015h-7.03v-.839h6.666c1.398 0 2.116-.434 2.116-1.347 0-.858-.584-1.408-1.752-2.025h-7.03v-.871zM283.54 382.221l4.485-3.486v1.005l-2.368 1.824c-.51.378-1.059.773-1.563 1.197v.08c.504.411 1.087.864 1.596 1.243l2.335 1.767v.96l-4.522-3.525-4.797 3.83v-1.01l2.527-2.004c.524-.429 1.179-.893 1.722-1.35v-.08a70.536 70.536 0 00-1.742-1.329l-2.507-1.953v-.96zM288.025 391.846v.738l-1.345.095v.045a5.49 5.49 0 011.578 3.548c0 2.673-1.869 4.011-4.757 4.011-3.16 0-5.029-2.068-5.029-4.435a5.274 5.274 0 011.322-3.137v-.039l-1.899.05h-3.41v-.876zm-4.524 7.521c2.289 0 3.992-.92 3.992-3.237a5.143 5.143 0 00-1.709-3.408h-5.177a5.004 5.004 0 00-1.37 3.08c0 2.071 1.737 3.565 4.264 3.565z"/><path class="cls-50" d="M512.5 304.135a6.483 6.483 0 01-5.88-6.442 6.483 6.483 0 01-5.88 6.442 6.483 6.483 0 015.88 6.443 6.483 6.483 0 015.88-6.442zM515.424 399.139a6.506 6.506 0 016.506 6.505 6.505 6.505 0 016.505-6.505 6.505 6.505 0 01-6.505-6.506 6.506 6.506 0 01-6.506 6.506zM513.124 372.07a6.506 6.506 0 01-6.505-6.506 6.505 6.505 0 01-6.506 6.505 6.505 6.505 0 016.506 6.506 6.506 6.506 0 016.505-6.506z"/><circle class="cls-50" cx="275.168" cy="485.914" r="7.021"/><path class="cls-50" d="M513.124 385.604a6.506 6.506 0 01-6.505-6.506 6.505 6.505 0 01-6.506 6.506 6.506 6.506 0 016.506 6.506 6.506 6.506 0 016.505-6.506zM506.619 392.633a6.505 6.505 0 01-6.506 6.506 6.505 6.505 0 016.506 6.505 6.506 6.506 0 016.505-6.505 6.506 6.506 0 01-6.505-6.506zM515.424 372.07a6.506 6.506 0 016.506 6.505 6.505 6.505 0 016.505-6.506 6.505 6.505 0 01-6.505-6.505 6.506 6.506 0 01-6.506 6.505zM515.424 331.142a6.506 6.506 0 016.506 6.506 6.505 6.505 0 016.505-6.506 6.505 6.505 0 01-6.505-6.505 6.506 6.506 0 01-6.506 6.505zM515.424 344.677a6.506 6.506 0 016.506 6.505 6.505 6.505 0 016.505-6.505 6.505 6.505 0 01-6.505-6.505 6.506 6.506 0 01-6.506 6.505zM515.424 317.607a6.506 6.506 0 016.506 6.506 6.505 6.505 0 016.505-6.506 6.505 6.505 0 01-6.505-6.505 6.506 6.506 0 01-6.506 6.505z"/><circle class="cls-50" cx="275.168" cy="471.308" r="7.021"/><path class="cls-50" d="M513.124 317.607a6.506 6.506 0 01-6.505-6.505 6.505 6.505 0 01-6.506 6.505 6.505 6.505 0 016.506 6.506 6.506 6.506 0 016.505-6.506zM513.124 331.142a6.506 6.506 0 01-6.505-6.505 6.505 6.505 0 01-6.506 6.505 6.505 6.505 0 016.506 6.506 6.506 6.506 0 016.505-6.506zM515.424 385.604a6.506 6.506 0 016.506 6.506 6.506 6.506 0 016.505-6.506 6.505 6.505 0 01-6.505-6.505 6.506 6.506 0 01-6.506 6.505z"/><circle class="cls-50" cx="259.381" cy="456.7" r="7.021"/><path class="cls-50" d="M516.05 304.135a6.483 6.483 0 015.88 6.443 6.483 6.483 0 015.88-6.442 6.483 6.483 0 01-5.88-6.443 6.483 6.483 0 01-5.88 6.442z"/><circle class="cls-50" cx="275.168" cy="456.7" r="7.021"/><circle class="cls-50" cx="259.381" cy="471.308" r="7.021"/><circle class="cls-50" cx="259.381" cy="485.914" r="7.021"/><path class="cls-50" d="M515.424 433.883a6.506 6.506 0 016.506 6.505 6.505 6.505 0 016.505-6.505 6.505 6.505 0 01-6.505-6.506 6.506 6.506 0 01-6.506 6.506zM536.423 553.322c0 .014-.004.028-.004.042 0 5.485 3.912 9.932 8.738 9.932v-.083c-4.813 0-8.714-4.425-8.734-9.89zM515.424 460.952a6.506 6.506 0 016.506 6.506 6.505 6.505 0 016.505-6.506 6.505 6.505 0 01-6.505-6.505 6.506 6.506 0 01-6.506 6.505zM515.424 447.418a6.506 6.506 0 016.506 6.505 6.506 6.506 0 016.505-6.505 6.505 6.505 0 01-6.505-6.506 6.506 6.506 0 01-6.506 6.506zM513.124 447.418a6.506 6.506 0 01-6.505-6.506 6.505 6.505 0 01-6.506 6.506 6.506 6.506 0 016.506 6.505 6.506 6.506 0 016.505-6.505zM513.124 433.883a6.506 6.506 0 01-6.505-6.506 6.505 6.505 0 01-6.506 6.506 6.505 6.505 0 016.506 6.505 6.506 6.506 0 016.505-6.505zM506.619 454.447a6.505 6.505 0 01-6.506 6.505 6.505 6.505 0 016.506 6.506 6.506 6.506 0 016.505-6.506 6.506 6.506 0 01-6.505-6.505zM506.619 338.171a6.505 6.505 0 01-6.506 6.506 6.505 6.505 0 016.506 6.505 6.506 6.506 0 016.505-6.505 6.506 6.506 0 01-6.505-6.506z"/><path class="cls-50" d="M494.146 162.793v-2.625H289.4v1.827a45.37 45.37 0 01-45.37 45.37h-6.503v363.07h.556v-7.139c4.826 0 8.738-4.447 8.738-9.932 0-.015-.003-.028-.003-.042-.02 5.466-3.921 9.891-8.735 9.891v-28.148a14.124 14.124 0 011.778-.115c8.776 0 15.89 8.087 15.89 18.062 0 8.326-4.957 15.332-11.698 17.423h295.135c-6.74-2.091-11.698-9.097-11.698-17.423 0-9.975 7.114-18.062 15.89-18.062a14.126 14.126 0 011.778.115V208.163h-5.641a45.37 45.37 0 01-45.37-45.37zm30.328 49.541h14.197v8.869h-14.197zm-29.77 0H508.9v8.869h-14.197zm-32.818 283.567v5.735h-6.198V495.9zm-1.407-267.608h-18.155v-5.599h18.155zm-1.246 8.557v16.798h-6.052V236.85zm-9.511 0v16.798h-6.052V236.85zm-7.568-30.115h18.156v5.6h-18.156zm0 8.11h18.156v5.6h-18.156zm-24.321 234.416v-24.635H438.2v24.635zm18.776 46.64v5.734h-15.44v-5.734zm-62.454-217.297h51.634v53.47h-51.634zm-18.895 82.548v-16.797h6.052v16.797zm6.052 1.19v16.797h-6.052V362.34zm-2.402-66.94v-16.798h6.052v16.798zm4.985 60.151v-11.198h6.052v16.797h-6.052zm-4.03-126.71v-11.199h6.052v16.798h-6.052zm-7.63 0v-11.199h6.05v16.798h-6.05zm-30.153 44.163h18.155l-.155 3.856h-12.026l-5.01-.51zm-1.24 51.102h13.61v4.639h-13.61zm16.369 18.794v15.934h-15.716v-15.934zm-18.155 30.638h18.155v5.6h-18.155zm-10.317-40.436v-11.199h6.052v16.797h-6.052zm0 22.45v-11.199h6.052v16.797h-6.052zm-25.677 199.045a2.885 2.885 0 01-2.885 2.885h-1.02a2.885 2.885 0 01-2.886-2.885v-.233a2.885 2.885 0 012.886-2.885h1.02a2.885 2.885 0 012.885 2.885zm0-13.39a2.885 2.885 0 01-2.885 2.886h-1.02a2.885 2.885 0 01-2.886-2.886v-.232a2.885 2.885 0 012.886-2.886h1.02a2.885 2.885 0 012.885 2.886zm.873-40.687h-1.746a7.02 7.02 0 01-7.02-7.02 7.02 7.02 0 01-7.021 7.02h-1.746a7.02 7.02 0 01-7.021-7.02 7.02 7.02 0 01-7.021 7.02h-1.746a7.02 7.02 0 01-7.02-7.02v-.566a7.02 7.02 0 017.02-7.021 7.02 7.02 0 01-7.02-7.02v-.566a7.02 7.02 0 017.02-7.021 7.02 7.02 0 01-7.02-7.021v-.565a7.02 7.02 0 017.02-7.021 7.02 7.02 0 01-7.02-7.021v-.565a7.02 7.02 0 017.02-7.021h1.746a7.02 7.02 0 017.02 7.02 7.02 7.02 0 017.022-7.02 7.02 7.02 0 01-7.021-7.021v-.565a6.997 6.997 0 016.277-6.946 6.997 6.997 0 01-6.277-6.946v-.566a7.02 7.02 0 017.02-7.02h1.747a7.02 7.02 0 017.02 7.02v.565a6.997 6.997 0 01-6.277 6.946 6.997 6.997 0 016.277 6.946v.565a7.02 7.02 0 01-7.02 7.021 7.02 7.02 0 017.02 7.021 7.02 7.02 0 017.021-7.02h1.746a7.021 7.021 0 017.021 7.02v.565a7.02 7.02 0 01-7.02 7.021 7.02 7.02 0 017.02 7.021v.565a7.02 7.02 0 01-7.02 7.021 7.02 7.02 0 017.02 7.021v.565a7.021 7.021 0 01-7.02 7.021 7.02 7.02 0 017.02 7.021v.565a7.02 7.02 0 01-7.02 7.022zm13.004 54.077a2.885 2.885 0 01-2.886 2.885h-1.02a2.885 2.885 0 01-2.885-2.885v-.233a2.885 2.885 0 012.885-2.885h1.02a2.885 2.885 0 012.886 2.885zm0-13.39a2.885 2.885 0 01-2.886 2.886h-1.02a2.885 2.885 0 01-2.885-2.886v-.232a2.885 2.885 0 012.885-2.886h1.02a2.885 2.885 0 012.886 2.886zm13.876 13.39a2.885 2.885 0 01-2.885 2.885h-1.02a2.885 2.885 0 01-2.886-2.885v-.233a2.885 2.885 0 012.886-2.886h1.02a2.885 2.885 0 012.885 2.885zm0-13.39a2.885 2.885 0 01-2.885 2.886h-1.02a2.885 2.885 0 01-2.886-2.886v-.232a2.885 2.885 0 012.886-2.886h1.02a2.885 2.885 0 012.885 2.886zm5.215-126.354v11.199h-6.052v-16.798h6.052zm1.787 25.534v-11.198h6.051v16.797h-6.051zm6.875 114.21a2.885 2.885 0 01-2.886 2.885h-1.02a2.885 2.885 0 01-2.885-2.886v-.232a2.885 2.885 0 012.885-2.886h1.02a2.885 2.885 0 012.886 2.886zm0-13.39a2.885 2.885 0 01-2.886 2.885h-1.02a2.885 2.885 0 01-2.885-2.885v-.232a2.885 2.885 0 012.885-2.886h1.02a2.885 2.885 0 012.886 2.885zm2.202-153.412v11.198h-6.052v-16.798h6.052zm3.326 5.599v-11.199h6.052v16.798h-6.052zm8.348 161.202a2.885 2.885 0 01-2.885 2.886h-1.02a2.885 2.885 0 01-2.886-2.886v-.232a2.885 2.885 0 012.886-2.886h1.02a2.885 2.885 0 012.885 2.886zm0-13.39a2.885 2.885 0 01-2.885 2.886h-1.02a2.885 2.885 0 01-2.886-2.885v-.232a2.885 2.885 0 012.886-2.886h1.02a2.885 2.885 0 012.885 2.885zm2.566-107.339v11.199h-6.052V428.27h6.052zm2.022-162.607h18.156v5.6h-18.155zm9.289 283.336a2.885 2.885 0 01-2.886 2.886h-1.02a2.885 2.885 0 01-2.885-2.886v-.232a2.885 2.885 0 012.886-2.886h1.02a2.885 2.885 0 012.885 2.885zm0-13.39a2.885 2.885 0 01-2.886 2.886h-1.02a2.885 2.885 0 01-2.885-2.885v-.233a2.885 2.885 0 012.885-2.885h1.02a2.885 2.885 0 012.886 2.885zm-1.95-18.63h-6.052v-5.598h18.155v5.6h-12.103zm15.827 32.02a2.885 2.885 0 01-2.886 2.886h-1.02a2.885 2.885 0 01-2.885-2.886v-.232a2.885 2.885 0 012.885-2.886h1.02a2.885 2.885 0 012.886 2.886zm0-13.39a2.885 2.885 0 01-2.886 2.886h-1.02a2.885 2.885 0 01-2.885-2.885v-.232a2.885 2.885 0 012.885-2.886h1.02a2.885 2.885 0 012.886 2.886zm1.041-39.64h-18.155v-5.599h18.155zm12.835 53.03a2.885 2.885 0 01-2.885 2.886h-1.02a2.885 2.885 0 01-2.886-2.886v-.232a2.885 2.885 0 012.886-2.886h1.02a2.885 2.885 0 012.885 2.886zm0-13.39a2.885 2.885 0 01-2.885 2.886h-1.02a2.885 2.885 0 01-2.886-2.885v-.233a2.885 2.885 0 012.886-2.885h1.02a2.885 2.885 0 012.885 2.885zm6.394-39.708h-18.155v-5.6h18.155zm7.483 53.098a2.885 2.885 0 01-2.885 2.885h-1.02a2.885 2.885 0 01-2.886-2.885v-.232a2.885 2.885 0 012.886-2.886h1.02a2.885 2.885 0 012.885 2.886zm0-13.39a2.885 2.885 0 01-2.885 2.886h-1.02a2.885 2.885 0 01-2.886-2.886v-.232a2.885 2.885 0 012.886-2.885h1.02a2.885 2.885 0 012.885 2.885zm3.39-173.424h20.368v33.906h-20.368zm10.487 186.814a2.885 2.885 0 01-2.886 2.885h-1.02a2.885 2.885 0 01-2.885-2.885v-.232a2.885 2.885 0 012.885-2.886h1.02a2.885 2.885 0 012.886 2.886zm0-13.39a2.885 2.885 0 01-2.886 2.886h-1.02a2.885 2.885 0 01-2.885-2.886v-.232a2.885 2.885 0 012.885-2.885h1.02a2.885 2.885 0 012.886 2.885zm13.876 13.39a2.885 2.885 0 01-2.885 2.885h-1.02a2.885 2.885 0 01-2.885-2.885v-.232a2.885 2.885 0 012.885-2.886h1.02a2.885 2.885 0 012.885 2.886zm0-13.39a2.885 2.885 0 01-2.885 2.886h-1.02a2.885 2.885 0 01-2.885-2.886v-.232a2.885 2.885 0 012.885-2.885h1.02a2.885 2.885 0 012.885 2.885zm13.877 13.39a2.885 2.885 0 01-2.885 2.885h-1.02a2.885 2.885 0 01-2.886-2.885v-.232a2.885 2.885 0 012.886-2.886h1.02a2.885 2.885 0 012.885 2.886zm0-13.39a2.885 2.885 0 01-2.885 2.886h-1.02a2.885 2.885 0 01-2.886-2.886v-.232a2.885 2.885 0 012.886-2.885h1.02a2.885 2.885 0 012.885 2.885zm3.62-19.108h-18.156v-5.599h18.155zm2.83-226.511h18.155v5.599h-18.156zm7.426 259.009a2.885 2.885 0 01-2.885 2.885h-1.02a2.885 2.885 0 01-2.885-2.885v-.232a2.885 2.885 0 012.885-2.886h1.02a2.885 2.885 0 012.885 2.886zm0-13.39a2.885 2.885 0 01-2.885 2.886h-1.02a2.885 2.885 0 01-2.885-2.886v-.232a2.885 2.885 0 012.885-2.885h1.02a2.885 2.885 0 012.885 2.885zm13.877 13.39a2.885 2.885 0 01-2.885 2.885h-1.02a2.885 2.885 0 01-2.886-2.885v-.232a2.885 2.885 0 012.886-2.886h1.02a2.885 2.885 0 012.885 2.886zm0-13.39a2.885 2.885 0 01-2.885 2.886h-1.02a2.885 2.885 0 01-2.886-2.886v-.232a2.885 2.885 0 012.886-2.885h1.02a2.885 2.885 0 012.885 2.885zm5.046-21.907h-15.44v-5.735h15.44zm.948-46.523V461.58h6.052v16.798h-6.052zm7.883 81.82a2.885 2.885 0 01-2.886 2.885h-1.02a2.885 2.885 0 01-2.885-2.885v-.232a2.885 2.885 0 012.885-2.886h1.02a2.885 2.885 0 012.886 2.885zm0-13.39a2.885 2.885 0 01-2.886 2.886h-1.02a2.885 2.885 0 01-2.885-2.886v-.232a2.885 2.885 0 012.885-2.885h1.02a2.885 2.885 0 012.886 2.885zm1.195-301.222h6.051v10.525h-6.051zm12.681 314.612a2.885 2.885 0 01-2.885 2.885h-1.02a2.885 2.885 0 01-2.886-2.885v-.232a2.885 2.885 0 012.886-2.886h1.02a2.885 2.885 0 012.885 2.885zm0-13.39a2.885 2.885 0 01-2.885 2.886h-1.02a2.885 2.885 0 01-2.886-2.886v-.232a2.885 2.885 0 012.886-2.885h1.02a2.885 2.885 0 012.885 2.885zm13.877 13.39a2.885 2.885 0 01-2.886 2.885h-1.02a2.885 2.885 0 01-2.885-2.885v-.232a2.885 2.885 0 012.885-2.886h1.02a2.885 2.885 0 012.886 2.885zm0-13.39a2.885 2.885 0 01-2.886 2.886h-1.02a2.885 2.885 0 01-2.885-2.886v-.232a2.885 2.885 0 012.885-2.885h1.02a2.885 2.885 0 012.886 2.885zm32.153-39.31a6.505 6.505 0 01-6.506 6.505h-2.3a6.505 6.505 0 01-6.505-6.506 6.506 6.506 0 01-6.506 6.506h-2.3a6.506 6.506 0 01-6.505-6.506 6.505 6.505 0 01-6.506 6.506h-2.3a6.505 6.505 0 01-6.505-6.506v-.524a6.505 6.505 0 016.505-6.505h2.3a6.505 6.505 0 016.506 6.505 6.506 6.506 0 016.505-6.505h2.3a6.506 6.506 0 016.506 6.505 6.505 6.505 0 016.505-6.505h2.3a6.505 6.505 0 016.506 6.505zm0-13.768a6.506 6.506 0 01-6.506 6.506h-2.3a6.506 6.506 0 01-6.505-6.506 6.506 6.506 0 01-6.506 6.506h-2.3a6.506 6.506 0 01-6.505-6.506 6.506 6.506 0 01-6.506 6.506h-2.3a6.506 6.506 0 01-6.505-6.506v-.524a6.505 6.505 0 016.505-6.505h2.3a6.505 6.505 0 016.506 6.505 6.506 6.506 0 016.505-6.505h2.3a6.506 6.506 0 016.506 6.505 6.505 6.505 0 016.505-6.505h2.3a6.505 6.505 0 016.506 6.505zm0-60.753a6.505 6.505 0 01-6.506 6.505 6.505 6.505 0 016.506 6.506v.524a6.505 6.505 0 01-6.506 6.505 6.506 6.506 0 016.506 6.506v.524a6.505 6.505 0 01-6.506 6.505 6.505 6.505 0 016.506 6.506v.523a6.505 6.505 0 01-6.506 6.506h-2.3a6.505 6.505 0 01-6.505-6.506 6.506 6.506 0 01-6.506 6.506h-2.3a6.506 6.506 0 01-6.505-6.506 6.505 6.505 0 01-6.506 6.506h-2.3a6.505 6.505 0 01-6.505-6.506v-.523a6.505 6.505 0 016.505-6.506 6.505 6.505 0 01-6.505-6.505v-.524a6.506 6.506 0 016.505-6.506 6.505 6.505 0 01-6.505-6.505v-.524a6.505 6.505 0 016.505-6.506 6.505 6.505 0 01-6.505-6.505v-.524a6.506 6.506 0 016.505-6.506h2.3a6.506 6.506 0 016.506 6.506 6.506 6.506 0 016.505-6.506h2.3a6.506 6.506 0 016.506 6.506 6.506 6.506 0 016.505-6.506h2.3a6.506 6.506 0 016.506 6.506zm0-61.814a6.505 6.505 0 01-6.506 6.506 6.505 6.505 0 016.506 6.505v.524a6.505 6.505 0 01-6.506 6.505 6.506 6.506 0 016.506 6.506v.524a6.505 6.505 0 01-6.506 6.505 6.505 6.505 0 016.506 6.506v.524a6.505 6.505 0 01-6.506 6.505h-2.3a6.505 6.505 0 01-6.505-6.505 6.506 6.506 0 01-6.506 6.505h-2.3a6.506 6.506 0 01-6.505-6.505 6.505 6.505 0 01-6.506 6.505h-2.3a6.505 6.505 0 01-6.505-6.505v-.524a6.505 6.505 0 016.505-6.506 6.505 6.505 0 01-6.505-6.505v-.523a6.506 6.506 0 016.505-6.506 6.505 6.505 0 01-6.505-6.505v-.524a6.505 6.505 0 016.505-6.505 6.505 6.505 0 01-6.505-6.506v-.524a6.506 6.506 0 016.505-6.506h2.3a6.506 6.506 0 016.506 6.506 6.506 6.506 0 016.505-6.506h2.3a6.506 6.506 0 016.506 6.506 6.506 6.506 0 016.505-6.506h2.3a6.506 6.506 0 016.506 6.506zm0-67.87a6.483 6.483 0 01-5.88 6.443 6.483 6.483 0 015.88 6.442v.524a6.505 6.505 0 01-6.506 6.505 6.505 6.505 0 016.506 6.506v.524a6.505 6.505 0 01-6.506 6.505 6.505 6.505 0 016.506 6.506v.524a6.505 6.505 0 01-6.506 6.505 6.505 6.505 0 016.506 6.506v.523a6.505 6.505 0 01-6.506 6.506h-2.3a6.505 6.505 0 01-6.505-6.506 6.506 6.506 0 01-6.506 6.506h-2.3a6.506 6.506 0 01-6.505-6.506 6.505 6.505 0 01-6.506 6.506h-2.3a6.505 6.505 0 01-6.505-6.506v-.523a6.505 6.505 0 016.505-6.506 6.505 6.505 0 01-6.505-6.505v-.524a6.505 6.505 0 016.505-6.506 6.505 6.505 0 01-6.505-6.505v-.524a6.505 6.505 0 016.505-6.506 6.505 6.505 0 01-6.505-6.505v-.524a6.483 6.483 0 015.88-6.442 6.483 6.483 0 01-5.88-6.443v-.524a6.505 6.505 0 016.505-6.505h2.3a6.505 6.505 0 016.506 6.505 6.506 6.506 0 016.505-6.505h2.3a6.506 6.506 0 016.506 6.505 6.505 6.505 0 016.505-6.505h2.3a6.505 6.505 0 016.506 6.505zm0-13.763a6.505 6.505 0 01-6.506 6.505h-2.3a6.505 6.505 0 01-6.505-6.506 6.506 6.506 0 01-6.506 6.506h-2.3a6.506 6.506 0 01-6.505-6.506 6.505 6.505 0 01-6.506 6.506h-2.3a6.505 6.505 0 01-6.505-6.506v-.523a6.505 6.505 0 016.505-6.506h2.3a6.505 6.505 0 016.506 6.506 6.506 6.506 0 016.505-6.506h2.3a6.506 6.506 0 016.506 6.506 6.505 6.505 0 016.505-6.506h2.3a6.505 6.505 0 016.506 6.506zm4.868-21.846h-3.438v8.869h-14.197v-8.869H508.9v8.869h-14.197v-8.869h-2.702V221.25h50.108z"/><path class="cls-51" d="M255.75 553.012c0-9.975-7.339-18.062-16.391-18.062a15.022 15.022 0 00-1.834.115v8.283c4.978 0 9.014 4.447 9.014 9.933 0 .014-.004.027-.004.041s.004.028.004.042c0 5.485-4.036 9.932-9.014 9.932v7.139h6.158c6.954-2.091 12.067-9.097 12.067-17.423z"/><path class="cls-2" d="M237.525 543.348v19.865c5.12 0 9.27-4.425 9.291-9.89 0-.015.004-.028.004-.042 0-5.486-4.161-9.933-9.294-9.933z"/><path class="cls-52" d="M237.525 160.168v47.197h6.504a45.37 45.37 0 0045.37-45.37v-1.827zm18.714 27.58c-5.382 0-9.744-4.036-9.744-9.015s4.362-9.015 9.744-9.015 9.743 4.036 9.743 9.015-4.362 9.015-9.743 9.015z"/><path fill="#706d6f" d="M492.001 262.084H542.109V221.25h-50.108v40.834z"/><path class="cls-54" d="M494.703 262.084H508.9v8.868h-14.197zM494.703 212.334H508.9v8.868h-14.197zM524.474 262.084h14.197v8.868h-14.197zM524.474 212.334h14.197v8.868h-14.197z"/><path class="cls-55" d="M374.155 278.604h51.633v53.471h-51.633zM397.465 367.785h20.368v33.906h-20.368zM478.529 239.987h6.052v10.525h-6.052zM448.206 206.735h6.052v5.599h-6.052z"/><path class="cls-56" d="M454.258 206.735h6.052v5.599h-6.052zM442.154 206.735h6.052v5.599h-6.052z"/><path class="cls-55" d="M448.206 214.845h6.052v5.599h-6.052z"/><path class="cls-56" d="M454.258 214.845h6.052v5.599h-6.052zM442.154 214.845h6.052v5.599h-6.052z"/><path fill="#877368" d="M448.375 222.694h6.052v5.599h-6.052z"/><path class="cls-56" d="M454.427 222.694h6.052v5.599h-6.052zM442.324 222.694h6.052v5.599h-6.052z"/><path class="cls-58" d="M359.865 223.244h6.052v5.599h-6.052z"/><path class="cls-56" d="M359.865 228.843h6.052v5.599h-6.052zM359.865 217.644h6.052v5.599h-6.052z"/><path class="cls-58" d="M349.208 271.262h6.052v5.599h-6.052z"/><path class="cls-56" d="M343.157 271.262h6.052v5.599h-6.052zM355.26 271.262h6.052v5.599h-6.052z"/><path class="cls-58" d="M328.134 271.262h6.052v5.599h-6.052z"/><path class="cls-56" d="M322.082 271.262h6.052v5.599h-6.052zM334.185 271.262h6.052v5.599h-6.052z"/><path class="cls-58" d="M308.739 327.504h6.052v5.599h-6.052z"/><path class="cls-56" d="M308.739 321.905h6.052v5.599h-6.052zM308.739 333.103h6.052v5.599h-6.052z"/><path class="cls-58" d="M308.739 349.954h6.052v5.599h-6.052z"/><path class="cls-56" d="M308.739 344.355h6.052v5.599h-6.052zM308.739 355.553h6.052v5.599h-6.052z"/><path class="cls-58" d="M363.896 349.954h6.052v5.599h-6.052z"/><path class="cls-56" d="M363.896 344.355h6.052v5.599h-6.052zM363.896 355.553h6.052v5.599h-6.052z"/><path class="cls-58" d="M355.26 349.954h6.052v5.599h-6.052z"/><path class="cls-56" d="M355.26 344.355h6.052v5.599h-6.052zM355.26 355.553h6.052v5.599h-6.052z"/><path class="cls-58" d="M325.108 373.54h6.052v5.599h-6.052z"/><path class="cls-56" d="M331.159 373.54h6.052v5.599h-6.052zM319.056 373.54h6.052v5.599h-6.052z"/><path class="cls-58" d="M309.978 414.855h6.052v5.599h-6.052z"/><path class="cls-56" d="M309.978 420.454h6.052v5.599h-6.052zM309.978 409.256h6.052v5.599h-6.052z"/><path class="cls-58" d="M358.91 284.204h6.052v5.599h-6.052z"/><path class="cls-56" d="M358.91 289.803h6.052v5.599h-6.052zM358.91 278.604h6.052v5.599h-6.052z"/><path class="cls-55" d="M448.206 295.589h6.052v5.599h-6.052z"/><path class="cls-56" d="M454.258 295.589h6.052v5.599h-6.052zM442.154 295.589h6.052v5.599h-6.052z"/><path class="cls-55" d="M453.181 242.45h6.052v5.599h-6.052z"/><path class="cls-56" d="M453.181 248.049h6.052v5.599h-6.052zM453.181 236.85h6.052v5.599h-6.052z"/><path class="cls-55" d="M355.26 367.94h6.052v5.599h-6.052z"/><path class="cls-56" d="M355.26 373.54h6.052v5.599h-6.052zM355.26 362.341h6.052v5.599h-6.052z"/><path class="cls-55" d="M330.22 387.796h6.052v5.599h-6.052z"/><path class="cls-56" d="M330.22 393.396h6.052v5.599h-6.052zM330.22 382.197h6.052v5.599h-6.052z"/><path class="cls-55" d="M355.26 495.969h6.052v5.599h-6.052z"/><path class="cls-56" d="M349.208 495.969h6.052v5.599h-6.052zM361.312 495.969h6.052v5.599h-6.052z"/><path class="cls-55" d="M374.488 495.901h6.052v5.599h-6.052z"/><path class="cls-56" d="M368.437 495.901h6.052v5.599h-6.052zM380.54 495.901h6.052v5.599h-6.052z"/><path class="cls-55" d="M469.452 467.179h6.052v5.599h-6.052z"/><path class="cls-56" d="M469.452 461.58h6.052v5.599h-6.052zM469.452 472.778h6.052v5.599h-6.052z"/><path class="cls-55" d="M350.495 516.98h6.052v5.599h-6.052z"/><path class="cls-56" d="M344.443 516.98h6.052v5.599h-6.052zM356.546 516.98h6.052v5.599h-6.052z"/><path class="cls-55" d="M427.221 516.501h6.052v5.599h-6.052z"/><path class="cls-56" d="M421.169 516.501h6.052v5.599h-6.052zM433.272 516.501h6.052v5.599h-6.052z"/><path class="cls-55" d="M335.082 433.869h6.052v5.599h-6.052z"/><path class="cls-56" d="M335.082 439.469h6.052v5.599h-6.052zM335.082 428.27h6.052v5.599h-6.052z"/><path class="cls-55" d="M317.817 434.79h6.052v5.599h-6.052z"/><path class="cls-56" d="M317.817 440.389h6.052v5.599h-6.052zM317.817 429.191h6.052v5.599h-6.052z"/><path class="cls-55" d="M320.843 387.796h6.052v5.599h-6.052z"/><path class="cls-56" d="M320.843 393.396h6.052v5.599h-6.052zM320.843 382.197h6.052v5.599h-6.052z"/><path class="cls-55" d="M443.67 242.45h6.052v5.599h-6.052z"/><path class="cls-56" d="M443.67 248.049h6.052v5.599h-6.052zM443.67 236.85h6.052v5.599h-6.052z"/><path class="cls-55" d="M352.234 223.244h6.052v5.599h-6.052z"/><path class="cls-56" d="M352.234 228.843h6.052v5.599h-6.052zM352.234 217.644h6.052v5.599h-6.052z"/><path class="cls-55" d="M321.495 342.902h15.716v15.934h-15.716zM320.843 324.108h13.609v4.638h-13.609zM417.833 424.626h20.368v24.635h-20.368zM455.688 495.901h6.198v5.734h-6.198zM421.169 495.901h15.44v5.734h-15.44zM453.063 513.567h15.44v5.734h-15.44z"/><path class="cls-59" d="M268.148 427.486a6.89 6.89 0 01.743.075 6.997 6.997 0 006.278-6.945v-.566a7.02 7.02 0 00-7.021-7.02h-1.746a7.02 7.02 0 00-7.021 7.02v.565a6.997 6.997 0 006.277 6.946 6.888 6.888 0 01.744-.075zm-2.781-7.085v-.137a1.697 1.697 0 011.697-1.696h.422a1.697 1.697 0 011.697 1.696v.137a1.697 1.697 0 01-1.697 1.697h-.422a1.697 1.697 0 01-1.697-1.697z"/><rect class="cls-60" x="265.367" y="418.568" width="3.816" height="3.53" rx="1.697"/><path class="cls-59" d="M275.168 435.073v-.566a6.997 6.997 0 00-6.277-6.946 6.89 6.89 0 00-.743-.075h-1.746a6.888 6.888 0 00-.744.075 6.997 6.997 0 00-6.277 6.946v.566a7.02 7.02 0 007.02 7.02h1.747a7.02 7.02 0 007.02-7.02zm-8.104 1.482a1.697 1.697 0 01-1.697-1.697v-.137a1.697 1.697 0 011.697-1.696h.422a1.697 1.697 0 011.696 1.696v.137a1.697 1.697 0 01-1.696 1.697z"/><rect class="cls-60" x="265.367" y="433.025" width="3.816" height="3.53" rx="1.697"/><path class="cls-59" d="M266.402 456.7h1.746a7.02 7.02 0 007.02-7.02v-.566a7.02 7.02 0 00-7.02-7.021h-1.746a7.02 7.02 0 00-7.021 7.02v.566a7.02 7.02 0 007.02 7.021zm-1.035-7.372a1.697 1.697 0 011.697-1.697h.422a1.697 1.697 0 011.697 1.697v.137a1.697 1.697 0 01-1.697 1.697h-.422a1.697 1.697 0 01-1.697-1.697z"/><rect class="cls-60" x="265.367" y="447.632" width="3.816" height="3.53" rx="1.697"/><path class="cls-59" d="M266.402 471.308h1.746a7.02 7.02 0 007.02-7.021v-.566a7.02 7.02 0 00-7.02-7.02h-1.746a7.02 7.02 0 00-7.021 7.02v.566a7.02 7.02 0 007.02 7.02zm-1.035-7.372a1.697 1.697 0 011.697-1.697h.422a1.697 1.697 0 011.697 1.697v.136a1.697 1.697 0 01-1.697 1.697h-.422a1.697 1.697 0 01-1.697-1.697z"/><rect class="cls-60" x="265.367" y="462.239" width="3.816" height="3.53" rx="1.697"/><path class="cls-59" d="M275.168 478.894v-.566a7.02 7.02 0 00-7.02-7.02h-1.746a7.02 7.02 0 00-7.021 7.02v.566a7.02 7.02 0 007.02 7.02h1.747a7.02 7.02 0 007.02-7.02zm-5.986-.215a1.697 1.697 0 01-1.696 1.697h-.422a1.697 1.697 0 01-1.697-1.697v-.136a1.697 1.697 0 011.697-1.697h.422a1.697 1.697 0 011.696 1.697z"/><rect class="cls-60" x="265.367" y="476.846" width="3.816" height="3.53" rx="1.697"/><path class="cls-59" d="M268.148 485.914h-1.746a7.02 7.02 0 00-7.021 7.021v.566a7.02 7.02 0 007.02 7.02h1.747a7.02 7.02 0 007.02-7.02v-.566a7.02 7.02 0 00-7.02-7.02zm1.034 7.372a1.697 1.697 0 01-1.696 1.697h-.422a1.697 1.697 0 01-1.697-1.697v-.136a1.697 1.697 0 011.697-1.697h.422a1.697 1.697 0 011.696 1.697z"/><rect class="cls-60" x="265.367" y="491.453" width="3.816" height="3.53" rx="1.697"/><path class="cls-59" d="M282.19 456.7h1.745a7.02 7.02 0 007.021-7.02v-.566a7.021 7.021 0 00-7.02-7.021h-1.747a7.02 7.02 0 00-7.02 7.02v.566a7.02 7.02 0 007.02 7.021zm-1.036-7.372a1.697 1.697 0 011.697-1.697h.422a1.697 1.697 0 011.697 1.697v.137a1.697 1.697 0 01-1.697 1.697h-.422a1.697 1.697 0 01-1.697-1.697z"/><path class="cls-60" d="M282.851 447.632h.422a1.697 1.697 0 011.697 1.697v.136a1.697 1.697 0 01-1.697 1.697h-.422a1.697 1.697 0 01-1.697-1.697v-.136a1.697 1.697 0 011.697-1.697z"/><path class="cls-59" d="M275.168 463.721v.566a7.02 7.02 0 007.021 7.02h1.746a7.02 7.02 0 007.021-7.02v-.566a7.02 7.02 0 00-7.02-7.02h-1.747a7.02 7.02 0 00-7.02 7.02zm8.105-1.482a1.697 1.697 0 011.697 1.697v.136a1.697 1.697 0 01-1.697 1.697h-.422a1.697 1.697 0 01-1.697-1.697v-.136a1.697 1.697 0 011.697-1.697z"/><path class="cls-60" d="M282.851 462.239h.422a1.697 1.697 0 011.697 1.697v.136a1.697 1.697 0 01-1.697 1.697h-.422a1.697 1.697 0 01-1.697-1.697v-.136a1.697 1.697 0 011.697-1.697z"/><path class="cls-59" d="M275.168 478.328v.566a7.02 7.02 0 007.021 7.02h1.746a7.021 7.021 0 007.021-7.02v-.566a7.02 7.02 0 00-7.02-7.02h-1.747a7.02 7.02 0 00-7.02 7.02zm8.105-1.482a1.697 1.697 0 011.697 1.697v.136a1.697 1.697 0 01-1.697 1.697h-.422a1.697 1.697 0 01-1.697-1.697v-.136a1.697 1.697 0 011.697-1.697z"/><path class="cls-60" d="M282.851 476.846h.422a1.697 1.697 0 011.697 1.697v.136a1.697 1.697 0 01-1.697 1.697h-.422a1.697 1.697 0 01-1.697-1.697v-.136a1.697 1.697 0 011.697-1.697z"/><path class="cls-59" d="M290.956 492.935a7.02 7.02 0 00-7.02-7.02h-1.747a7.02 7.02 0 00-7.02 7.02v.566a7.02 7.02 0 007.02 7.02h1.746a7.02 7.02 0 007.021-7.02zm-5.986.351a1.697 1.697 0 01-1.697 1.697h-.422a1.697 1.697 0 01-1.697-1.697v-.136a1.697 1.697 0 011.697-1.697h.422a1.697 1.697 0 011.697 1.697z"/><path class="cls-60" d="M282.851 491.453h.422a1.697 1.697 0 011.697 1.697v.137a1.697 1.697 0 01-1.697 1.697h-.422a1.697 1.697 0 01-1.697-1.697v-.137a1.697 1.697 0 011.697-1.697z"/><path class="cls-59" d="M259.38 449.68v-.565a7.02 7.02 0 00-7.02-7.021h-1.746a7.02 7.02 0 00-7.02 7.02v.566a7.02 7.02 0 007.02 7.02h1.746a7.02 7.02 0 007.02-7.02zm-8.104 1.483a1.697 1.697 0 01-1.697-1.697v-.137a1.697 1.697 0 011.697-1.697h.422a1.697 1.697 0 011.697 1.697v.137a1.697 1.697 0 01-1.697 1.697z"/><rect class="cls-60" x="249.579" y="447.632" width="3.816" height="3.53" rx="1.697"/><path class="cls-59" d="M259.38 464.287v-.566a7.02 7.02 0 00-7.02-7.021h-1.746a7.02 7.02 0 00-7.02 7.02v.566a7.02 7.02 0 007.02 7.021h1.746a7.02 7.02 0 007.02-7.02zm-8.104 1.482a1.697 1.697 0 01-1.697-1.697v-.136a1.697 1.697 0 011.697-1.697h.422a1.697 1.697 0 011.697 1.697v.136a1.697 1.697 0 01-1.697 1.697z"/><rect class="cls-60" x="249.579" y="462.239" width="3.816" height="3.53" rx="1.697"/><path class="cls-59" d="M259.38 478.894v-.566a7.02 7.02 0 00-7.02-7.02h-1.746a7.02 7.02 0 00-7.02 7.02v.566a7.02 7.02 0 007.02 7.02h1.746a7.02 7.02 0 007.02-7.02zm-8.104 1.482a1.697 1.697 0 01-1.697-1.697v-.136a1.697 1.697 0 011.697-1.697h.422a1.697 1.697 0 011.697 1.697v.136a1.697 1.697 0 01-1.697 1.697z"/><rect class="cls-60" x="249.579" y="476.846" width="3.816" height="3.53" rx="1.697"/><path class="cls-59" d="M252.36 485.914h-1.746a7.02 7.02 0 00-7.02 7.021v.566a7.02 7.02 0 007.02 7.02h1.746a7.02 7.02 0 007.02-7.02v-.566a7.02 7.02 0 00-7.02-7.02zm1.035 7.372a1.697 1.697 0 01-1.697 1.697h-.422a1.697 1.697 0 01-1.697-1.697v-.136a1.697 1.697 0 011.697-1.697h.422a1.697 1.697 0 011.697 1.697z"/><path class="cls-60" d="M251.276 491.453h.422a1.697 1.697 0 011.697 1.697v.136a1.697 1.697 0 01-1.697 1.697h-.422a1.697 1.697 0 01-1.697-1.697v-.136a1.697 1.697 0 011.697-1.697z"/><path class="cls-59" d="M515.424 276.9h-2.3a6.506 6.506 0 00-6.505 6.505v.524a6.506 6.506 0 006.505 6.506h2.3a6.506 6.506 0 006.506-6.506v-.524a6.506 6.506 0 00-6.506-6.505zm.7 6.83a1.572 1.572 0 01-1.572 1.573h-.556a1.572 1.572 0 01-1.572-1.572v-.127a1.572 1.572 0 011.572-1.572h.556a1.572 1.572 0 011.572 1.572z"/><path class="cls-60" d="M513.996 282.032h.556a1.572 1.572 0 011.573 1.572v.127a1.572 1.572 0 01-1.573 1.572h-.556a1.572 1.572 0 01-1.572-1.572v-.127a1.572 1.572 0 011.572-1.572z"/><path class="cls-59" d="M530.735 276.9h-2.3a6.505 6.505 0 00-6.505 6.505v.524a6.505 6.505 0 006.505 6.506h2.3a6.505 6.505 0 006.506-6.506v-.524a6.505 6.505 0 00-6.506-6.505zm.7 6.83a1.572 1.572 0 01-1.572 1.573h-.556a1.572 1.572 0 01-1.572-1.572v-.127a1.572 1.572 0 011.572-1.572h.556a1.572 1.572 0 011.572 1.572z"/><path class="cls-60" d="M529.307 282.032h.556a1.572 1.572 0 011.573 1.572v.127a1.572 1.572 0 01-1.573 1.572h-.556a1.572 1.572 0 01-1.572-1.572v-.127a1.572 1.572 0 011.572-1.572z"/><path class="cls-59" d="M500.113 276.9h-2.3a6.505 6.505 0 00-6.505 6.505v.524a6.505 6.505 0 006.505 6.506h2.3a6.505 6.505 0 006.506-6.506v-.524a6.505 6.505 0 00-6.506-6.505zm.7 6.83a1.572 1.572 0 01-1.572 1.573h-.556a1.572 1.572 0 01-1.572-1.572v-.127a1.572 1.572 0 011.572-1.572h.556a1.572 1.572 0 011.572 1.572z"/><path class="cls-60" d="M498.685 282.032h.556a1.572 1.572 0 011.573 1.572v.127a1.572 1.572 0 01-1.573 1.572h-.556a1.572 1.572 0 01-1.572-1.572v-.127a1.572 1.572 0 011.572-1.572z"/><path class="cls-59" d="M512.5 304.135c.208-.02.41-.063.624-.063h2.3c.215 0 .417.043.626.063a6.483 6.483 0 005.88-6.442v-.524a6.506 6.506 0 00-6.506-6.505h-2.3a6.506 6.506 0 00-6.506 6.505v.524a6.483 6.483 0 005.881 6.442zm-.076-6.767a1.572 1.572 0 011.572-1.573h.556a1.572 1.572 0 011.572 1.573v.126a1.572 1.572 0 01-1.572 1.573h-.556a1.572 1.572 0 01-1.572-1.573z"/><rect class="cls-60" x="512.424" y="295.796" width="3.7" height="3.271" rx="1.572"/><path class="cls-59" d="M530.735 290.664h-2.3a6.505 6.505 0 00-6.505 6.505v.524a6.483 6.483 0 005.88 6.442c.209-.02.41-.063.625-.063h2.3c.214 0 .416.043.625.063a6.483 6.483 0 005.88-6.442v-.524a6.505 6.505 0 00-6.505-6.505zm.7 6.83a1.572 1.572 0 01-1.572 1.573h-.556a1.572 1.572 0 01-1.572-1.573v-.126a1.572 1.572 0 011.572-1.573h.556a1.572 1.572 0 011.572 1.573z"/><path class="cls-60" d="M529.307 295.796h.556a1.572 1.572 0 011.573 1.572v.126a1.572 1.572 0 01-1.573 1.573h-.556a1.572 1.572 0 01-1.572-1.573v-.126a1.572 1.572 0 011.572-1.572z"/><path class="cls-59" d="M500.113 304.072c.214 0 .417.043.625.063a6.483 6.483 0 005.88-6.442v-.524a6.505 6.505 0 00-6.505-6.505h-2.3a6.505 6.505 0 00-6.505 6.505v.524a6.483 6.483 0 005.88 6.442c.208-.02.41-.063.625-.063zm-3-6.578v-.126a1.572 1.572 0 011.573-1.572h.556a1.572 1.572 0 011.572 1.572v.127a1.572 1.572 0 01-1.572 1.572h-.556a1.572 1.572 0 01-1.573-1.572z"/><path class="cls-60" d="M498.685 295.796h.556a1.572 1.572 0 011.573 1.572v.126a1.572 1.572 0 01-1.573 1.573h-.556a1.572 1.572 0 01-1.572-1.573v-.126a1.572 1.572 0 011.572-1.573z"/><path class="cls-59" d="M516.05 304.135c-.21-.02-.412-.063-.626-.063h-2.3c-.214 0-.416.043-.625.063a6.483 6.483 0 00-5.88 6.443v.524a6.506 6.506 0 006.506 6.505h2.3a6.506 6.506 0 006.505-6.505v-.524a6.483 6.483 0 00-5.88-6.442zm.075 6.768a1.572 1.572 0 01-1.573 1.573h-.556a1.572 1.572 0 01-1.572-1.573v-.126a1.572 1.572 0 011.572-1.573h.556a1.572 1.572 0 011.572 1.573z"/><path class="cls-60" d="M513.996 309.204h.556a1.572 1.572 0 011.573 1.573v.126a1.572 1.572 0 01-1.573 1.573h-.556a1.572 1.572 0 01-1.572-1.573v-.126a1.572 1.572 0 011.572-1.573z"/><path class="cls-59" d="M528.435 304.072c-.214 0-.416.043-.625.063a6.483 6.483 0 00-5.88 6.443v.524a6.505 6.505 0 006.506 6.505h2.3a6.505 6.505 0 006.505-6.505v-.524a6.483 6.483 0 00-5.88-6.442c-.209-.02-.41-.064-.625-.064zm3 6.831a1.572 1.572 0 01-1.572 1.573h-.556a1.572 1.572 0 01-1.572-1.573v-.126a1.572 1.572 0 011.572-1.573h.556a1.572 1.572 0 011.572 1.573z"/><path class="cls-60" d="M529.307 309.204h.556a1.572 1.572 0 011.573 1.573v.126a1.572 1.572 0 01-1.573 1.573h-.556a1.572 1.572 0 01-1.572-1.573v-.126a1.572 1.572 0 011.572-1.573z"/><path class="cls-59" d="M506.619 311.102v-.524a6.483 6.483 0 00-5.88-6.442c-.209-.02-.411-.063-.625-.063h-2.3c-.215 0-.417.042-.626.063a6.483 6.483 0 00-5.88 6.442v.524a6.505 6.505 0 006.506 6.505h2.3a6.505 6.505 0 006.505-6.505zm-7.934 1.374a1.572 1.572 0 01-1.572-1.573v-.126a1.572 1.572 0 011.572-1.573h.556a1.572 1.572 0 011.573 1.573v.126a1.572 1.572 0 01-1.573 1.573z"/><path class="cls-60" d="M498.685 309.204h.556a1.572 1.572 0 011.573 1.573v.126a1.572 1.572 0 01-1.573 1.573h-.556a1.572 1.572 0 01-1.572-1.573v-.126a1.572 1.572 0 011.572-1.573z"/><path class="cls-59" d="M515.424 317.607h-2.3a6.506 6.506 0 00-6.505 6.506v.524a6.506 6.506 0 006.505 6.505h2.3a6.506 6.506 0 006.506-6.505v-.524a6.506 6.506 0 00-6.506-6.506zm.7 6.831a1.572 1.572 0 01-1.572 1.572h-.556a1.572 1.572 0 01-1.572-1.572v-.127a1.572 1.572 0 011.572-1.572h.556a1.572 1.572 0 011.572 1.572z"/><rect class="cls-60" x="512.424" y="322.739" width="3.7" height="3.271" rx="1.572"/><path class="cls-59" d="M521.93 324.113v.524a6.505 6.505 0 006.505 6.505h2.3a6.505 6.505 0 006.506-6.505v-.524a6.505 6.505 0 00-6.506-6.506h-2.3a6.505 6.505 0 00-6.505 6.506zm7.933-1.374a1.572 1.572 0 011.573 1.572v.127a1.572 1.572 0 01-1.573 1.572h-.556a1.572 1.572 0 01-1.572-1.572v-.127a1.572 1.572 0 011.572-1.572z"/><path class="cls-60" d="M529.307 322.74h.556a1.572 1.572 0 011.573 1.571v.127a1.572 1.572 0 01-1.573 1.572h-.556a1.572 1.572 0 01-1.572-1.572v-.127a1.572 1.572 0 011.572-1.572z"/><path class="cls-59" d="M506.619 324.637v-.524a6.505 6.505 0 00-6.506-6.506h-2.3a6.505 6.505 0 00-6.505 6.506v.524a6.505 6.505 0 006.505 6.505h2.3a6.505 6.505 0 006.506-6.505zm-7.934 1.373a1.572 1.572 0 01-1.572-1.572v-.127a1.572 1.572 0 011.572-1.572h.556a1.572 1.572 0 011.573 1.572v.127a1.572 1.572 0 01-1.573 1.572z"/><path class="cls-60" d="M498.685 322.74h.556a1.572 1.572 0 011.573 1.571v.127a1.572 1.572 0 01-1.573 1.572h-.556a1.572 1.572 0 01-1.572-1.572v-.127a1.572 1.572 0 011.572-1.572z"/><path class="cls-59" d="M515.424 331.142h-2.3a6.506 6.506 0 00-6.505 6.506v.523a6.506 6.506 0 006.505 6.506h2.3a6.506 6.506 0 006.506-6.506v-.523a6.506 6.506 0 00-6.506-6.506zm.7 6.83a1.572 1.572 0 01-1.572 1.573h-.556a1.572 1.572 0 01-1.572-1.572v-.127a1.572 1.572 0 011.572-1.572h.556a1.572 1.572 0 011.572 1.572z"/><path class="cls-60" d="M513.996 336.274h.556a1.572 1.572 0 011.573 1.572v.127a1.572 1.572 0 01-1.573 1.572h-.556a1.572 1.572 0 01-1.572-1.572v-.127a1.572 1.572 0 011.572-1.572z"/><path class="cls-59" d="M521.93 337.648v.523a6.505 6.505 0 006.505 6.506h2.3a6.505 6.505 0 006.506-6.506v-.523a6.505 6.505 0 00-6.506-6.506h-2.3a6.505 6.505 0 00-6.505 6.506zm7.933-1.374a1.572 1.572 0 011.573 1.572v.127a1.572 1.572 0 01-1.573 1.572h-.556a1.572 1.572 0 01-1.572-1.572v-.127a1.572 1.572 0 011.572-1.572z"/><path class="cls-60" d="M529.307 336.274h.556a1.572 1.572 0 011.573 1.572v.127a1.572 1.572 0 01-1.573 1.572h-.556a1.572 1.572 0 01-1.572-1.572v-.127a1.572 1.572 0 011.572-1.572z"/><path class="cls-59" d="M506.619 338.171v-.523a6.505 6.505 0 00-6.506-6.506h-2.3a6.505 6.505 0 00-6.505 6.506v.523a6.505 6.505 0 006.505 6.506h2.3a6.505 6.505 0 006.506-6.506zm-7.934 1.374a1.572 1.572 0 01-1.572-1.572v-.127a1.572 1.572 0 011.572-1.572h.556a1.572 1.572 0 011.573 1.572v.127a1.572 1.572 0 01-1.573 1.572z"/><path class="cls-60" d="M498.685 336.274h.556a1.572 1.572 0 011.573 1.572v.127a1.572 1.572 0 01-1.573 1.572h-.556a1.572 1.572 0 01-1.572-1.572v-.127a1.572 1.572 0 011.572-1.572z"/><path class="cls-59" d="M515.424 344.677h-2.3a6.506 6.506 0 00-6.505 6.505v.524a6.506 6.506 0 006.505 6.506h2.3a6.506 6.506 0 006.506-6.506v-.523a6.506 6.506 0 00-6.506-6.506zm.7 6.83a1.572 1.572 0 01-1.572 1.573h-.556a1.572 1.572 0 01-1.572-1.572v-.127a1.572 1.572 0 011.572-1.572h.556a1.572 1.572 0 011.572 1.572z"/><rect class="cls-60" x="512.424" y="349.809" width="3.7" height="3.271" rx="1.572"/><path class="cls-59" d="M521.93 351.183v.523a6.505 6.505 0 006.505 6.506h2.3a6.505 6.505 0 006.506-6.506v-.523a6.505 6.505 0 00-6.506-6.506h-2.3a6.505 6.505 0 00-6.505 6.505zm7.933-1.374a1.572 1.572 0 011.573 1.572v.127a1.572 1.572 0 01-1.573 1.572h-.556a1.572 1.572 0 01-1.572-1.572v-.127a1.572 1.572 0 011.572-1.572z"/><path class="cls-60" d="M529.307 349.809h.556a1.572 1.572 0 011.573 1.572v.127a1.572 1.572 0 01-1.573 1.572h-.556a1.572 1.572 0 01-1.572-1.572v-.127a1.572 1.572 0 011.572-1.572z"/><path class="cls-59" d="M500.113 344.677h-2.3a6.505 6.505 0 00-6.505 6.505v.524a6.505 6.505 0 006.505 6.506h2.3a6.505 6.505 0 006.506-6.506v-.523a6.505 6.505 0 00-6.506-6.506zm.7 6.83a1.572 1.572 0 01-1.572 1.573h-.556a1.572 1.572 0 01-1.572-1.572v-.127a1.572 1.572 0 011.572-1.572h.556a1.572 1.572 0 011.572 1.572z"/><path class="cls-60" d="M498.685 349.809h.556a1.572 1.572 0 011.573 1.572v.127a1.572 1.572 0 01-1.573 1.572h-.556a1.572 1.572 0 01-1.572-1.572v-.127a1.572 1.572 0 011.572-1.572z"/><path class="cls-59" d="M513.124 372.07h2.3a6.506 6.506 0 006.506-6.506v-.524a6.506 6.506 0 00-6.506-6.506h-2.3a6.506 6.506 0 00-6.505 6.506v.524a6.506 6.506 0 006.505 6.505zm-.7-6.832a1.572 1.572 0 011.573-1.572h.555a1.572 1.572 0 011.573 1.572v.127a1.572 1.572 0 01-1.573 1.572h-.555a1.572 1.572 0 01-1.573-1.572z"/><path class="cls-60" d="M513.996 363.666h.556a1.572 1.572 0 011.572 1.572v.127a1.572 1.572 0 01-1.572 1.572h-.556a1.572 1.572 0 01-1.572-1.572v-.127a1.572 1.572 0 011.572-1.572z"/><path class="cls-59" d="M530.735 358.534h-2.3a6.506 6.506 0 00-6.505 6.506v.524a6.505 6.505 0 006.505 6.505h2.3a6.505 6.505 0 006.506-6.505v-.524a6.506 6.506 0 00-6.506-6.506zm.7 6.831a1.572 1.572 0 01-1.572 1.572h-.556a1.572 1.572 0 01-1.572-1.572v-.127a1.572 1.572 0 011.572-1.572h.556a1.572 1.572 0 011.572 1.572z"/><path class="cls-60" d="M529.307 363.666h.556a1.572 1.572 0 011.573 1.572v.127a1.572 1.572 0 01-1.573 1.572h-.556a1.572 1.572 0 01-1.572-1.572v-.127a1.572 1.572 0 011.572-1.572z"/><path class="cls-59" d="M506.619 365.564v-.524a6.506 6.506 0 00-6.506-6.506h-2.3a6.506 6.506 0 00-6.505 6.506v.524a6.505 6.505 0 006.505 6.505h2.3a6.505 6.505 0 006.506-6.505zm-7.934 1.373a1.572 1.572 0 01-1.572-1.572v-.127a1.572 1.572 0 011.572-1.572h.556a1.572 1.572 0 011.573 1.572v.127a1.572 1.572 0 01-1.573 1.572z"/><path class="cls-60" d="M498.685 363.666h.556a1.572 1.572 0 011.573 1.572v.127a1.572 1.572 0 01-1.573 1.572h-.556a1.572 1.572 0 01-1.572-1.572v-.127a1.572 1.572 0 011.572-1.572z"/><path class="cls-59" d="M515.424 372.07h-2.3a6.506 6.506 0 00-6.505 6.505v.523a6.506 6.506 0 006.505 6.506h2.3a6.506 6.506 0 006.506-6.506v-.523a6.506 6.506 0 00-6.506-6.506zm.7 6.83a1.572 1.572 0 01-1.572 1.572h-.556a1.572 1.572 0 01-1.572-1.572v-.127a1.572 1.572 0 011.572-1.572h.556a1.572 1.572 0 011.572 1.572z"/><path class="cls-60" d="M513.996 377.2h.556a1.572 1.572 0 011.572 1.573v.127a1.572 1.572 0 01-1.572 1.572h-.556a1.572 1.572 0 01-1.572-1.572v-.127a1.572 1.572 0 011.572-1.572z"/><path class="cls-59" d="M521.93 378.575v.523a6.505 6.505 0 006.505 6.506h2.3a6.505 6.505 0 006.506-6.506v-.523a6.505 6.505 0 00-6.506-6.506h-2.3a6.505 6.505 0 00-6.505 6.506zm7.933-1.374a1.572 1.572 0 011.573 1.572v.127a1.572 1.572 0 01-1.573 1.572h-.556a1.572 1.572 0 01-1.572-1.572v-.127a1.572 1.572 0 011.572-1.572z"/><path class="cls-60" d="M529.307 377.2h.556a1.572 1.572 0 011.573 1.573v.127a1.572 1.572 0 01-1.573 1.572h-.556a1.572 1.572 0 01-1.572-1.572v-.127a1.572 1.572 0 011.572-1.572z"/><path class="cls-59" d="M506.619 379.098v-.523a6.505 6.505 0 00-6.506-6.506h-2.3a6.505 6.505 0 00-6.505 6.506v.523a6.505 6.505 0 006.505 6.506h2.3a6.505 6.505 0 006.506-6.506zm-7.934 1.374a1.572 1.572 0 01-1.572-1.572v-.127a1.572 1.572 0 011.572-1.572h.556a1.572 1.572 0 011.573 1.572v.127a1.572 1.572 0 01-1.573 1.572z"/><path class="cls-60" d="M498.685 377.2h.556a1.572 1.572 0 011.573 1.573v.127a1.572 1.572 0 01-1.573 1.572h-.556a1.572 1.572 0 01-1.572-1.572v-.127a1.572 1.572 0 011.572-1.572z"/><path class="cls-59" d="M515.424 385.604h-2.3a6.506 6.506 0 00-6.505 6.506v.523a6.506 6.506 0 006.505 6.506h2.3a6.506 6.506 0 006.506-6.506v-.523a6.506 6.506 0 00-6.506-6.506zm.7 6.83a1.572 1.572 0 01-1.572 1.573h-.556a1.572 1.572 0 01-1.572-1.572v-.127a1.572 1.572 0 011.572-1.572h.556a1.572 1.572 0 011.572 1.572z"/><path class="cls-60" d="M513.996 390.736h.556a1.572 1.572 0 011.573 1.572v.127a1.572 1.572 0 01-1.573 1.572h-.556a1.572 1.572 0 01-1.572-1.572v-.127a1.572 1.572 0 011.572-1.572z"/><path class="cls-59" d="M521.93 392.11v.524a6.505 6.505 0 006.505 6.505h2.3a6.505 6.505 0 006.506-6.505v-.524a6.506 6.506 0 00-6.506-6.506h-2.3a6.506 6.506 0 00-6.505 6.506zm7.933-1.374a1.572 1.572 0 011.573 1.573v.126a1.572 1.572 0 01-1.573 1.572h-.556a1.572 1.572 0 01-1.572-1.572v-.126a1.572 1.572 0 011.572-1.573z"/><path class="cls-60" d="M529.307 390.736h.556a1.572 1.572 0 011.573 1.572v.127a1.572 1.572 0 01-1.573 1.572h-.556a1.572 1.572 0 01-1.572-1.572v-.127a1.572 1.572 0 011.572-1.572z"/><path class="cls-59" d="M506.619 392.633v-.523a6.506 6.506 0 00-6.506-6.506h-2.3a6.506 6.506 0 00-6.505 6.506v.524a6.505 6.505 0 006.505 6.505h2.3a6.505 6.505 0 006.506-6.506zm-7.934 1.374a1.572 1.572 0 01-1.572-1.572v-.127a1.572 1.572 0 011.572-1.572h.556a1.572 1.572 0 011.573 1.572v.127a1.572 1.572 0 01-1.573 1.572z"/><path class="cls-60" d="M498.685 390.736h.556a1.572 1.572 0 011.573 1.572v.127a1.572 1.572 0 01-1.573 1.572h-.556a1.572 1.572 0 01-1.572-1.572v-.127a1.572 1.572 0 011.572-1.572z"/><path class="cls-59" d="M515.424 399.139h-2.3a6.506 6.506 0 00-6.505 6.505v.524a6.506 6.506 0 006.505 6.506h2.3a6.506 6.506 0 006.506-6.506v-.524a6.506 6.506 0 00-6.506-6.505zm.7 6.83a1.572 1.572 0 01-1.572 1.573h-.556a1.572 1.572 0 01-1.572-1.573v-.126a1.572 1.572 0 011.572-1.572h.556a1.572 1.572 0 011.572 1.572z"/><path class="cls-60" d="M513.996 404.27h.556a1.572 1.572 0 011.572 1.573v.126a1.572 1.572 0 01-1.572 1.573h-.556a1.572 1.572 0 01-1.572-1.572v-.127a1.572 1.572 0 011.572-1.572z"/><path class="cls-59" d="M521.93 405.644v.524a6.505 6.505 0 006.505 6.506h2.3a6.505 6.505 0 006.506-6.506v-.524a6.505 6.505 0 00-6.506-6.505h-2.3a6.505 6.505 0 00-6.505 6.505zm7.933-1.373a1.572 1.572 0 011.573 1.572v.126a1.572 1.572 0 01-1.573 1.573h-.556a1.572 1.572 0 01-1.572-1.573v-.126a1.572 1.572 0 011.572-1.572z"/><path class="cls-60" d="M529.307 404.27h.556a1.572 1.572 0 011.573 1.573v.126a1.572 1.572 0 01-1.573 1.573h-.556a1.572 1.572 0 01-1.572-1.572v-.127a1.572 1.572 0 011.572-1.572z"/><path class="cls-59" d="M500.113 399.139h-2.3a6.505 6.505 0 00-6.505 6.505v.524a6.505 6.505 0 006.505 6.506h2.3a6.505 6.505 0 006.506-6.506v-.524a6.505 6.505 0 00-6.506-6.505zm.7 6.83a1.572 1.572 0 01-1.572 1.573h-.556a1.572 1.572 0 01-1.572-1.573v-.126a1.572 1.572 0 011.572-1.572h.556a1.572 1.572 0 011.572 1.572z"/><path class="cls-60" d="M498.685 404.27h.556a1.572 1.572 0 011.573 1.573v.126a1.572 1.572 0 01-1.573 1.573h-.556a1.572 1.572 0 01-1.572-1.572v-.127a1.572 1.572 0 011.572-1.572z"/><path class="cls-59" d="M513.124 433.883h2.3a6.506 6.506 0 006.506-6.506v-.524a6.506 6.506 0 00-6.506-6.505h-2.3a6.506 6.506 0 00-6.505 6.505v.524a6.506 6.506 0 006.505 6.506zm-.7-6.83a1.572 1.572 0 011.573-1.573h.555a1.572 1.572 0 011.573 1.572v.127a1.572 1.572 0 01-1.573 1.572h-.555a1.572 1.572 0 01-1.573-1.572z"/><path class="cls-60" d="M513.996 425.48h.556a1.572 1.572 0 011.572 1.572v.127a1.572 1.572 0 01-1.572 1.572h-.556a1.572 1.572 0 01-1.572-1.572v-.127a1.572 1.572 0 011.572-1.572z"/><path class="cls-59" d="M530.735 420.348h-2.3a6.506 6.506 0 00-6.505 6.505v.524a6.505 6.505 0 006.505 6.506h2.3a6.505 6.505 0 006.506-6.506v-.524a6.506 6.506 0 00-6.506-6.505zm.7 6.83a1.572 1.572 0 01-1.572 1.573h-.556a1.572 1.572 0 01-1.572-1.572v-.127a1.572 1.572 0 011.572-1.572h.556a1.572 1.572 0 011.572 1.572z"/><path class="cls-60" d="M529.307 425.48h.556a1.572 1.572 0 011.573 1.572v.127a1.572 1.572 0 01-1.573 1.572h-.556a1.572 1.572 0 01-1.572-1.572v-.127a1.572 1.572 0 011.572-1.572z"/><path class="cls-59" d="M506.619 427.377v-.524a6.506 6.506 0 00-6.506-6.505h-2.3a6.506 6.506 0 00-6.505 6.505v.524a6.505 6.505 0 006.505 6.506h2.3a6.505 6.505 0 006.506-6.506zm-7.934 1.374a1.572 1.572 0 01-1.572-1.572v-.127a1.572 1.572 0 011.572-1.572h.556a1.572 1.572 0 011.573 1.572v.127a1.572 1.572 0 01-1.573 1.572z"/><path class="cls-60" d="M498.685 425.48h.556a1.572 1.572 0 011.573 1.572v.127a1.572 1.572 0 01-1.573 1.572h-.556a1.572 1.572 0 01-1.572-1.572v-.127a1.572 1.572 0 011.572-1.572z"/><path class="cls-59" d="M515.424 433.883h-2.3a6.506 6.506 0 00-6.505 6.505v.524a6.506 6.506 0 006.505 6.506h2.3a6.506 6.506 0 006.506-6.506v-.524a6.506 6.506 0 00-6.506-6.505zm.7 6.83a1.572 1.572 0 01-1.572 1.573h-.556a1.572 1.572 0 01-1.572-1.573v-.126a1.572 1.572 0 011.572-1.572h.556a1.572 1.572 0 011.572 1.572z"/><path class="cls-60" d="M513.996 439.015h.556a1.572 1.572 0 011.572 1.572v.126a1.572 1.572 0 01-1.572 1.573h-.556a1.572 1.572 0 01-1.572-1.572v-.127a1.572 1.572 0 011.572-1.572z"/><path class="cls-59" d="M521.93 440.388v.524a6.505 6.505 0 006.505 6.506h2.3a6.505 6.505 0 006.506-6.506v-.524a6.505 6.505 0 00-6.506-6.505h-2.3a6.505 6.505 0 00-6.505 6.505zm7.933-1.373a1.572 1.572 0 011.573 1.572v.127a1.572 1.572 0 01-1.573 1.572h-.556a1.572 1.572 0 01-1.572-1.572v-.127a1.572 1.572 0 011.572-1.572z"/><path class="cls-60" d="M529.307 439.015h.556a1.572 1.572 0 011.573 1.572v.126a1.572 1.572 0 01-1.573 1.573h-.556a1.572 1.572 0 01-1.572-1.573v-.126a1.572 1.572 0 011.572-1.572z"/><path class="cls-59" d="M506.619 440.912v-.524a6.505 6.505 0 00-6.506-6.505h-2.3a6.505 6.505 0 00-6.505 6.505v.524a6.505 6.505 0 006.505 6.506h2.3a6.505 6.505 0 006.506-6.506zm-7.934 1.374a1.572 1.572 0 01-1.572-1.572v-.127a1.572 1.572 0 011.572-1.572h.556a1.572 1.572 0 011.573 1.572v.127a1.572 1.572 0 01-1.573 1.572z"/><path class="cls-60" d="M498.685 439.015h.556a1.572 1.572 0 011.573 1.572v.126a1.572 1.572 0 01-1.573 1.573h-.556a1.572 1.572 0 01-1.572-1.573v-.126a1.572 1.572 0 011.572-1.572z"/><path class="cls-59" d="M515.424 447.418h-2.3a6.506 6.506 0 00-6.505 6.505v.524a6.506 6.506 0 006.505 6.505h2.3a6.506 6.506 0 006.506-6.505v-.524a6.506 6.506 0 00-6.506-6.505zm.7 6.83a1.572 1.572 0 01-1.572 1.573h-.556a1.572 1.572 0 01-1.572-1.573v-.126a1.572 1.572 0 011.572-1.573h.556a1.572 1.572 0 011.572 1.573z"/><rect class="cls-60" x="512.424" y="452.549" width="3.7" height="3.271" rx="1.572"/><path class="cls-59" d="M521.93 453.923v.524a6.505 6.505 0 006.505 6.505h2.3a6.505 6.505 0 006.506-6.505v-.524a6.506 6.506 0 00-6.506-6.505h-2.3a6.506 6.506 0 00-6.505 6.505zm7.933-1.374a1.572 1.572 0 011.573 1.573v.126a1.572 1.572 0 01-1.573 1.573h-.556a1.572 1.572 0 01-1.572-1.573v-.126a1.572 1.572 0 011.572-1.573z"/><path class="cls-60" d="M529.307 452.55h.556a1.572 1.572 0 011.573 1.572v.126a1.572 1.572 0 01-1.573 1.573h-.556a1.572 1.572 0 01-1.572-1.573v-.126a1.572 1.572 0 011.572-1.573z"/><path class="cls-59" d="M506.619 454.447v-.524a6.506 6.506 0 00-6.506-6.505h-2.3a6.506 6.506 0 00-6.505 6.505v.524a6.505 6.505 0 006.505 6.505h2.3a6.505 6.505 0 006.506-6.505zm-7.934 1.374a1.572 1.572 0 01-1.572-1.573v-.126a1.572 1.572 0 011.572-1.573h.556a1.572 1.572 0 011.573 1.573v.126a1.572 1.572 0 01-1.573 1.573z"/><path class="cls-60" d="M498.685 452.55h.556a1.572 1.572 0 011.573 1.572v.126a1.572 1.572 0 01-1.573 1.573h-.556a1.572 1.572 0 01-1.572-1.573v-.126a1.572 1.572 0 011.572-1.573z"/><path class="cls-59" d="M515.424 460.952h-2.3a6.506 6.506 0 00-6.505 6.506v.524a6.506 6.506 0 006.505 6.505h2.3a6.506 6.506 0 006.506-6.505v-.524a6.506 6.506 0 00-6.506-6.506zm.7 6.831a1.572 1.572 0 01-1.572 1.573h-.556a1.572 1.572 0 01-1.572-1.573v-.126a1.572 1.572 0 011.572-1.573h.556a1.572 1.572 0 011.572 1.573z"/><path class="cls-60" d="M513.996 466.084h.556a1.572 1.572 0 011.573 1.573v.126a1.572 1.572 0 01-1.573 1.573h-.556a1.572 1.572 0 01-1.572-1.573v-.126a1.572 1.572 0 011.572-1.573z"/><path class="cls-59" d="M521.93 467.458v.524a6.505 6.505 0 006.505 6.505h2.3a6.505 6.505 0 006.506-6.505v-.524a6.505 6.505 0 00-6.506-6.505h-2.3a6.505 6.505 0 00-6.505 6.505zm7.933-1.374a1.572 1.572 0 011.573 1.573v.126a1.572 1.572 0 01-1.573 1.573h-.556a1.572 1.572 0 01-1.572-1.573v-.126a1.572 1.572 0 011.572-1.573z"/><path class="cls-60" d="M529.307 466.084h.556a1.572 1.572 0 011.573 1.573v.126a1.572 1.572 0 01-1.573 1.573h-.556a1.572 1.572 0 01-1.572-1.573v-.126a1.572 1.572 0 011.572-1.573z"/><path class="cls-59" d="M500.113 460.952h-2.3a6.505 6.505 0 00-6.505 6.506v.524a6.505 6.505 0 006.505 6.505h2.3a6.505 6.505 0 006.506-6.505v-.524a6.505 6.505 0 00-6.506-6.506zm.7 6.831a1.572 1.572 0 01-1.572 1.573h-.556a1.572 1.572 0 01-1.572-1.573v-.126a1.572 1.572 0 011.572-1.573h.556a1.572 1.572 0 011.572 1.573z"/><path class="cls-60" d="M498.685 466.084h.556a1.572 1.572 0 011.573 1.573v.126a1.572 1.572 0 01-1.573 1.573h-.556a1.572 1.572 0 01-1.572-1.573v-.126a1.572 1.572 0 011.572-1.573z"/><path class="cls-59" d="M515.424 481.101h-2.3a6.506 6.506 0 00-6.505 6.506v.523a6.506 6.506 0 006.505 6.506h2.3a6.506 6.506 0 006.506-6.506v-.523a6.506 6.506 0 00-6.506-6.506zm.7 6.83a1.572 1.572 0 01-1.572 1.573h-.556a1.572 1.572 0 01-1.572-1.572v-.127a1.572 1.572 0 011.572-1.572h.556a1.572 1.572 0 011.572 1.572z"/><path class="cls-60" d="M513.996 486.233h.556a1.572 1.572 0 011.572 1.572v.127a1.572 1.572 0 01-1.572 1.572h-.556a1.572 1.572 0 01-1.572-1.572v-.127a1.572 1.572 0 011.572-1.572z"/><path class="cls-59" d="M530.735 481.101h-2.3a6.505 6.505 0 00-6.505 6.506v.523a6.506 6.506 0 006.505 6.506h2.3a6.506 6.506 0 006.506-6.506v-.523a6.505 6.505 0 00-6.506-6.506zm.7 6.83a1.572 1.572 0 01-1.572 1.573h-.556a1.572 1.572 0 01-1.572-1.572v-.127a1.572 1.572 0 011.572-1.572h.556a1.572 1.572 0 011.572 1.572z"/><path class="cls-60" d="M529.307 486.233h.556a1.572 1.572 0 011.573 1.572v.127a1.572 1.572 0 01-1.573 1.572h-.556a1.572 1.572 0 01-1.572-1.572v-.127a1.572 1.572 0 011.572-1.572z"/><path class="cls-59" d="M500.113 481.101h-2.3a6.505 6.505 0 00-6.505 6.506v.523a6.506 6.506 0 006.505 6.506h2.3a6.506 6.506 0 006.506-6.506v-.523a6.505 6.505 0 00-6.506-6.506zm.7 6.83a1.572 1.572 0 01-1.572 1.573h-.556a1.572 1.572 0 01-1.572-1.572v-.127a1.572 1.572 0 011.572-1.572h.556a1.572 1.572 0 011.572 1.572z"/><path class="cls-60" d="M498.685 486.233h.556a1.572 1.572 0 011.573 1.572v.127a1.572 1.572 0 01-1.573 1.572h-.556a1.572 1.572 0 01-1.572-1.572v-.127a1.572 1.572 0 011.572-1.572z"/><path class="cls-59" d="M515.424 494.868h-2.3a6.506 6.506 0 00-6.505 6.506v.524a6.506 6.506 0 006.505 6.505h2.3a6.506 6.506 0 006.506-6.505v-.524a6.506 6.506 0 00-6.506-6.506zm.7 6.831a1.572 1.572 0 01-1.572 1.572h-.556a1.572 1.572 0 01-1.572-1.572v-.127a1.572 1.572 0 011.572-1.572h.556a1.572 1.572 0 011.572 1.572z"/><path class="cls-60" d="M513.996 500h.556a1.572 1.572 0 011.573 1.572v.127a1.572 1.572 0 01-1.573 1.572h-.556a1.572 1.572 0 01-1.572-1.572v-.127a1.572 1.572 0 011.572-1.572z"/><path class="cls-59" d="M530.735 494.868h-2.3a6.505 6.505 0 00-6.505 6.506v.524a6.505 6.505 0 006.505 6.505h2.3a6.505 6.505 0 006.506-6.505v-.524a6.505 6.505 0 00-6.506-6.506zm.7 6.831a1.572 1.572 0 01-1.572 1.572h-.556a1.572 1.572 0 01-1.572-1.572v-.127a1.572 1.572 0 011.572-1.572h.556a1.572 1.572 0 011.572 1.572z"/><path class="cls-60" d="M529.307 500h.556a1.572 1.572 0 011.573 1.572v.127a1.572 1.572 0 01-1.573 1.572h-.556a1.572 1.572 0 01-1.572-1.572v-.127a1.572 1.572 0 011.572-1.572z"/><path class="cls-59" d="M500.113 494.868h-2.3a6.505 6.505 0 00-6.505 6.506v.524a6.505 6.505 0 006.505 6.505h2.3a6.505 6.505 0 006.506-6.505v-.524a6.505 6.505 0 00-6.506-6.506zm.7 6.831a1.572 1.572 0 01-1.572 1.572h-.556a1.572 1.572 0 01-1.572-1.572v-.127a1.572 1.572 0 011.572-1.572h.556a1.572 1.572 0 011.573 1.572z"/><path class="cls-60" d="M498.685 500h.556a1.572 1.572 0 011.573 1.572v.127a1.572 1.572 0 01-1.573 1.572h-.556a1.572 1.572 0 01-1.572-1.572v-.127a1.572 1.572 0 011.572-1.572z"/><rect class="cls-60" x="498.296" y="538.091" width="6.791" height="6.003" rx="2.885"/><rect class="cls-60" x="498.296" y="551.48" width="6.791" height="6.003" rx="2.885"/><rect class="cls-60" x="484.42" y="538.091" width="6.791" height="6.003" rx="2.885"/><rect class="cls-60" x="484.42" y="551.48" width="6.791" height="6.003" rx="2.885"/><rect class="cls-60" x="470.543" y="538.091" width="6.791" height="6.003" rx="2.885"/><rect class="cls-60" x="470.543" y="551.48" width="6.791" height="6.003" rx="2.885"/><rect class="cls-60" x="456.667" y="538.091" width="6.791" height="6.003" rx="2.885"/><rect class="cls-60" x="456.667" y="551.48" width="6.791" height="6.003" rx="2.885"/><rect class="cls-60" x="442.79" y="538.091" width="6.791" height="6.003" rx="2.885"/><rect class="cls-60" x="442.79" y="551.48" width="6.791" height="6.003" rx="2.885"/><rect class="cls-60" x="428.914" y="538.091" width="6.791" height="6.003" rx="2.885"/><rect class="cls-60" x="428.914" y="551.48" width="6.791" height="6.003" rx="2.885"/><rect class="cls-60" x="415.037" y="538.091" width="6.791" height="6.003" rx="2.885"/><rect class="cls-60" x="415.037" y="551.48" width="6.791" height="6.003" rx="2.885"/><rect class="cls-60" x="401.16" y="538.091" width="6.791" height="6.003" rx="2.885"/><rect class="cls-60" x="401.16" y="551.48" width="6.791" height="6.003" rx="2.885"/><rect class="cls-60" x="387.284" y="538.091" width="6.791" height="6.003" rx="2.885"/><rect class="cls-60" x="387.284" y="551.48" width="6.791" height="6.003" rx="2.885"/><rect class="cls-60" x="373.407" y="538.091" width="6.791" height="6.003" rx="2.885"/><rect class="cls-60" x="373.407" y="551.48" width="6.791" height="6.003" rx="2.885"/><rect class="cls-60" x="359.531" y="538.091" width="6.791" height="6.003" rx="2.885"/><rect class="cls-60" x="359.531" y="551.48" width="6.791" height="6.003" rx="2.885"/><rect class="cls-60" x="345.654" y="538.091" width="6.791" height="6.003" rx="2.885"/><rect class="cls-60" x="345.654" y="551.48" width="6.791" height="6.003" rx="2.885"/><rect class="cls-60" x="331.777" y="538.091" width="6.791" height="6.003" rx="2.885"/><rect class="cls-60" x="331.777" y="551.48" width="6.791" height="6.003" rx="2.885"/><rect class="cls-60" x="317.901" y="538.091" width="6.791" height="6.003" rx="2.885"/><rect class="cls-60" x="317.901" y="551.48" width="6.791" height="6.003" rx="2.885"/><rect class="cls-60" x="304.024" y="538.091" width="6.791" height="6.003" rx="2.885"/><rect class="cls-60" x="304.024" y="551.48" width="6.791" height="6.003" rx="2.885"/><rect class="cls-60" x="290.148" y="538.091" width="6.791" height="6.003" rx="2.885"/><rect class="cls-60" x="290.148" y="551.48" width="6.791" height="6.003" rx="2.885"/><rect class="cls-60" x="276.271" y="538.091" width="6.791" height="6.003" rx="2.885"/><rect class="cls-60" x="276.271" y="551.48" width="6.791" height="6.003" rx="2.885"/><path class="cls-51" d="M527.49 553.012c0 8.326 4.956 15.332 11.697 17.423h5.97v-7.139c-4.826 0-8.738-4.447-8.738-9.932 0-.014.004-.028.004-.042s-.004-.027-.004-.041c0-5.486 3.912-9.933 8.738-9.933v-8.283a14.126 14.126 0 00-1.778-.115c-8.775 0-15.89 8.087-15.89 18.062z"/><path class="cls-2" d="M536.42 553.28c0 .015.003.028.003.042.02 5.466 3.92 9.891 8.734 9.891v-19.865c-4.826 0-8.738 4.447-8.738 9.933z"/><path class="cls-52" d="M494.146 160.168v2.625a45.37 45.37 0 0045.37 45.37h5.641v-47.995zm30.946 26.33c-5.381 0-9.744-4.037-9.744-9.016s4.363-9.015 9.744-9.015 9.744 4.036 9.744 9.015-4.363 9.015-9.744 9.015z"/><path class="cls-12" d="M272.541 255.948v1.588l-3.986.205v.168c2.575 2.35 4.505 4.756 4.505 8.042 0 4.94-2.72 7.312-8.35 7.312h-12.933v-1.884h12.679c4.64 0 6.877-1.697 6.877-5.728 0-2.893-1.538-4.887-4.676-7.819h-14.88v-1.883zM256.942 280.816c4.651 0 6.848 4.574 7.84 15.623 3.42-.034 6.598-1.392 6.598-6.06a14.047 14.047 0 00-2.823-7.705l1.414-.875a16.295 16.295 0 013.09 8.804c0 5.456-3.574 7.72-8.019 7.72h-13.265v-1.599l3.106-.204v-.097c-1.91-2.34-3.625-5.496-3.625-8.503 0-3.644 1.796-7.104 5.684-7.104zm-.271 15.623h6.645c-.943-10.368-2.937-13.69-6.272-13.69-2.976 0-4.116 2.74-4.116 5.486 0 2.611 1.281 5.334 3.743 8.204zM272.541 304.993v1.97l-12.994 5.614c-2.087.9-4.1 1.755-5.975 2.539v.17c1.875.783 3.888 1.553 5.975 2.463l12.994 5.617v1.848l-20.764-9.062v-2zM266.531 339.44l13.74-7.854v2.122l-8.387 4.643c-1.297.752-2.307 1.358-3.899 2.28v.17c1.592.825 2.602 1.345 3.9 2.085l8.386 4.621v2.015l-13.85-7.855-14.644 8.437v-2.134l8.745-4.898c1.395-.764 2.79-1.59 4.52-2.584v-.17c-1.73-.899-3.125-1.65-4.52-2.403l-8.745-4.898v-2.015zM288.303 354.3v.728l-1.27.094v.04a2.448 2.448 0 011.503 2.192 1.813 1.813 0 01-1.659 1.888c1.066.683 1.66 1.26 1.66 2.322 0 1.315-.93 2.061-2.8 2.061h-6.754v-.871h6.666c1.398 0 2.117-.445 2.117-1.357 0-.859-.584-1.386-1.753-2.015h-7.03v-.839h6.666c1.398 0 2.116-.434 2.116-1.347 0-.858-.584-1.408-1.752-2.025h-7.03v-.871zM283.818 371.125l4.485-3.486v1.006l-2.368 1.823c-.51.378-1.06.773-1.563 1.197v.08c.504.411 1.087.865 1.596 1.244l2.335 1.766v.961l-4.522-3.525-4.798 3.83v-1.011l2.528-2.004c.524-.429 1.178-.892 1.722-1.35v-.079a70.916 70.916 0 00-1.742-1.33l-2.508-1.952v-.961zM288.303 380.75v.738l-1.344.095v.045a5.491 5.491 0 011.577 3.548c0 2.673-1.869 4.011-4.757 4.011-3.16 0-5.029-2.068-5.029-4.435a5.274 5.274 0 011.322-3.137v-.039l-1.899.05h-3.409v-.876zm-4.524 7.521c2.289 0 3.992-.92 3.992-3.237a5.144 5.144 0 00-1.709-3.408h-5.177a5.005 5.005 0 00-1.37 3.079c0 2.073 1.737 3.567 4.264 3.567z"/></g></svg>