<svg id="Layer_1" data-name="Layer 1" xmlns="http://www.w3.org/2000/svg" viewBox="0 0 856.5543 711.1907"><defs><style>.cls-1{fill:#434343;}.cls-2{fill:#4f4e51;}.cls-3{fill:#323031;}.cls-4{fill:#6a5f27;}.cls-5{font-size:32.1518px;}.cls-11,.cls-15,.cls-16,.cls-17,.cls-18,.cls-23,.cls-5{fill:#fff;}.cls-11,.cls-15,.cls-16,.cls-18,.cls-33,.cls-35,.cls-5{font-family:Heebo-Light, Heebo;font-weight:300;}.cls-6{letter-spacing:0.009em;}.cls-7{letter-spacing:-0.058em;}.cls-14,.cls-30,.cls-31,.cls-32,.cls-8{fill:none;}.cls-17,.cls-8{stroke:#fff;}.cls-8{stroke-miterlimit:10;stroke-width:5.3586px;}.cls-9{letter-spacing:-0.031em;}.cls-10{letter-spacing:0em;}.cls-11{font-size:23.2314px;}.cls-12{fill:#5a5d65;}.cls-13{fill:#23446c;}.cls-14{stroke:#f1f2f2;stroke-miterlimit:2;}.cls-14,.cls-17{stroke-width:1.3575px;}.cls-15{font-size:19.6049px;}.cls-16{font-size:19.0121px;}.cls-17,.cls-30,.cls-31,.cls-32{stroke-linecap:round;stroke-linejoin:round;}.cls-18{font-size:22.628px;letter-spacing:-0.02em;}.cls-19{letter-spacing:0em;}.cls-20{fill:#1d57a6;}.cls-21{fill:#f3f3ee;}.cls-22{fill:#9496b4;}.cls-24{font-size:32px;fill:#eef1f2;font-family:Heebo-Regular, Heebo;letter-spacing:0.001em;}.cls-25{fill:#282630;}.cls-26{fill:#8d725e;}.cls-27{fill:#b5c0db;}.cls-28{fill:#a0aac2;}.cls-29{fill:#221f1f;}.cls-30{stroke:#221f1f;}.cls-30,.cls-31,.cls-32{stroke-width:10.832px;}.cls-31{stroke:#e9262a;}.cls-32{stroke:#babcbe;}.cls-33,.cls-35{font-size:43.328px;fill:#010101;}.cls-34{letter-spacing:0.001em;}.cls-35{letter-spacing:0.001em;}</style></defs><path class="cls-1" d="M1017.6538,221.671l-1383.623,1.8424a82.7455,82.7455,0,0,1-82.6353-82.8552V-1226.5687a82.7455,82.7455,0,0,1,82.6353-82.8552l1394.1621-1.8425a82.7455,82.7455,0,0,1,82.6352,82.8553v1356.66c4.7481,55.1878-24.4331,94.3645-77.14,93.4191"/><rect class="cls-2" x="-424.078" y="-1280.4249" width="1510.6971" height="1479.9891" rx="58.2693"/><rect class="cls-3" x="-6.5464" y="86.9157" width="313.6023" height="89.1456"/><path class="cls-4" d="M29.2621,126.1a5.3884,5.3884,0,1,1-5.39,5.3864,5.3846,5.3846,0,0,1,5.39-5.3864"/><path class="cls-4" d="M29.2621,150.2206a5.39,5.39,0,1,1-5.39,5.3905,5.3855,5.3855,0,0,1,5.39-5.3905"/><path class="cls-4" d="M29.2621,101.0014a5.39,5.39,0,1,1-5.39,5.3865,5.3847,5.3847,0,0,1,5.39-5.3865"/><rect class="cls-3" x="73.5004" y="86.9157" width="71.6093" height="89.1456"/><path class="cls-4" d="M109.3074,126.1a5.3884,5.3884,0,1,1-5.3866,5.3864,5.3879,5.3879,0,0,1,5.3866-5.3864"/><path class="cls-4" d="M109.3074,150.2206a5.39,5.39,0,1,1-5.3866,5.3905,5.3888,5.3888,0,0,1,5.3866-5.3905"/><path class="cls-4" d="M109.3074,101.0014a5.39,5.39,0,1,1-5.3866,5.3865,5.388,5.388,0,0,1,5.3866-5.3865"/><rect class="cls-3" x="235.4467" y="86.9157" width="71.6093" height="89.1456"/><path class="cls-4" d="M271.2532,126.1a5.3884,5.3884,0,1,1-5.3866,5.3864,5.3879,5.3879,0,0,1,5.3866-5.3864"/><path class="cls-4" d="M271.2532,150.2206a5.39,5.39,0,1,1-5.3866,5.3905,5.3888,5.3888,0,0,1,5.3866-5.3905"/><path class="cls-4" d="M271.2532,101.0014a5.39,5.39,0,1,1-5.3866,5.3865,5.388,5.388,0,0,1,5.3866-5.3865"/><rect class="cls-3" x="154.5211" y="86.9157" width="71.6093" height="89.1456"/><path class="cls-4" d="M190.3267,126.1a5.3884,5.3884,0,1,1-5.3866,5.3864,5.3846,5.3846,0,0,1,5.3866-5.3864"/><path class="cls-4" d="M190.3267,150.2206a5.39,5.39,0,1,1-5.3866,5.3905,5.3855,5.3855,0,0,1,5.3866-5.3905"/><path class="cls-4" d="M190.3267,101.0014a5.39,5.39,0,1,1-5.3866,5.3865,5.3847,5.3847,0,0,1,5.3866-5.3865"/><rect class="cls-3" x="342.771" y="86.702" width="313.6023" height="89.1456"/><path class="cls-4" d="M378.5737,125.8862a5.3884,5.3884,0,1,1-5.3867,5.3864,5.3854,5.3854,0,0,1,5.3867-5.3864"/><path class="cls-4" d="M378.5737,150.0068a5.39,5.39,0,1,1-5.3867,5.3906,5.3864,5.3864,0,0,1,5.3867-5.3906"/><path class="cls-4" d="M378.5737,100.7877a5.39,5.39,0,1,1-5.3867,5.3864,5.3855,5.3855,0,0,1,5.3867-5.3864"/><rect class="cls-3" x="422.8178" y="86.702" width="71.6093" height="89.1456"/><path class="cls-4" d="M458.6229,125.8862a5.3884,5.3884,0,1,1-5.3906,5.3864,5.3847,5.3847,0,0,1,5.3906-5.3864"/><path class="cls-4" d="M458.6229,150.0068a5.39,5.39,0,1,1-5.3906,5.3906,5.3856,5.3856,0,0,1,5.3906-5.3906"/><path class="cls-4" d="M458.6229,100.7877a5.39,5.39,0,1,1-5.3906,5.3864,5.3847,5.3847,0,0,1,5.3906-5.3864"/><rect class="cls-3" x="584.764" y="86.702" width="71.6093" height="89.1456"/><path class="cls-4" d="M620.5687,125.8862a5.3884,5.3884,0,1,1-5.3906,5.3864,5.3847,5.3847,0,0,1,5.3906-5.3864"/><path class="cls-4" d="M620.5687,150.0068a5.39,5.39,0,1,1-5.3906,5.3906,5.3856,5.3856,0,0,1,5.3906-5.3906"/><path class="cls-4" d="M620.5687,100.7877a5.39,5.39,0,1,1-5.3906,5.3864,5.3847,5.3847,0,0,1,5.3906-5.3864"/><rect class="cls-3" x="503.8346" y="86.702" width="71.6131" height="89.1456"/><path class="cls-4" d="M539.6422,125.8862a5.3884,5.3884,0,1,1-5.3906,5.3864,5.3846,5.3846,0,0,1,5.3906-5.3864"/><path class="cls-4" d="M539.6422,150.0068a5.39,5.39,0,1,1-5.3906,5.3906,5.3855,5.3855,0,0,1,5.3906-5.3906"/><path class="cls-4" d="M539.6422,100.7877a5.39,5.39,0,1,1-5.3906,5.3864,5.3846,5.3846,0,0,1,5.3906-5.3864"/><text class="cls-5" transform="translate(109.0874 37.8994)">RE<tspan class="cls-6" x="38.7139" y="0">L</tspan><tspan class="cls-7" x="55.9585" y="0">A</tspan><tspan x="74.1885" y="0">Y</tspan></text><polyline class="cls-8" points="27.867 48.78 27.867 31.221 88.651 31.221"/><polyline class="cls-8" points="215.553 31.218 270.694 31.218 270.694 50.955"/><text class="cls-5" transform="translate(422.439 37.8994)">ANA<tspan class="cls-9" x="63.0317" y="0">L</tspan><tspan class="cls-10" x="78.9897" y="0">OG IN</tspan></text><text class="cls-11" transform="translate(771.7529 62.8915)">RESET</text><polyline class="cls-8" points="377 48.648 377 32.304 404.762 32.304"/><polyline class="cls-8" points="600.327 30.132 627.896 30.132 627.896 50.957"/><rect class="cls-12" x="751.0931" y="80.8204" width="215.3909" height="100.9088" rx="19.5008"/><rect class="cls-13" x="779.3241" y="104.2608" width="53.667" height="54.028" rx="26.8335"/><line class="cls-14" x1="706.4623" y1="185.7055" x2="716.5021" y2="185.7055"/><line class="cls-14" x1="702.4866" y1="181.4486" x2="720.5019" y2="181.4486"/><line class="cls-14" x1="698.1011" y1="177.1999" x2="724.8791" y2="177.1999"/><line class="cls-14" x1="702.7678" y1="132.7116" x2="686.8887" y2="132.7116"/><line class="cls-14" x1="702.7597" y1="105.8692" x2="686.8806" y2="105.8692"/><polyline class="cls-14" points="711.49 177.2 711.49 160.333 686.888 160.333"/><text class="cls-15" transform="translate(704.5068 111.5478) scale(1 1.0605)">S</text><text class="cls-16" transform="translate(705.8037 139.5947) scale(1 1.1297)">5V</text><rect class="cls-17" x="680.1299" y="102.2538" width="6.2908" height="6.843"/><rect class="cls-17" x="680.5417" y="129.0231" width="6.2908" height="6.843"/><rect class="cls-17" x="680.449" y="156.616" width="6.2908" height="6.843"/><text class="cls-18" transform="translate(669.4482 -6.8858) scale(1 1.0349)">A<tspan class="cls-19" x="13.6904" y="0">CCELEROMETER</tspan></text><path class="cls-20" d="M433.83,866.616H756.585a48.1411,48.1411,0,0,0,48-48V508.9919a48.0471,48.0471,0,0,0-21.3806-39.8767L766.73,485.781a1.5908,1.5908,0,0,1-1.1316.4727h-8.2441a1.5925,1.5925,0,0,1-1.1675-.51L739.2191,467.426a1.5912,1.5912,0,0,1-.0748-2.0762l3.0123-3.7612a1.5912,1.5912,0,0,1,1.2421-.5967H433.83a48.1409,48.1409,0,0,0-48,48V818.616A48.1411,48.1411,0,0,0,433.83,866.616Z"/><path class="cls-21" d="M739.1443,465.35a1.5912,1.5912,0,0,0,.0748,2.0762l16.9677,18.3179a1.5925,1.5925,0,0,0,1.1675.51h8.2441a1.5908,1.5908,0,0,0,1.1316-.4727l16.4744-16.6658.24-.2424a1.55,1.55,0,0,0,.42-.96,47.817,47.817,0,0,0-14.957-6.9207H743.3987a1.5912,1.5912,0,0,0-1.2421.5967Z"/><circle class="cls-22" cx="761.3494" cy="508.6125" r="18.6409"/><circle class="cls-23" cx="761.3494" cy="508.6125" r="11.5122"/><circle class="cls-22" cx="706.1681" cy="508.6125" r="18.6409"/><circle class="cls-23" cx="706.1681" cy="508.6125" r="11.5122"/><circle class="cls-22" cx="651.6039" cy="508.6125" r="18.6409"/><circle class="cls-23" cx="651.6039" cy="508.6125" r="11.5122"/><circle class="cls-22" cx="595.2075" cy="508.6125" r="18.6409"/><circle class="cls-23" cx="595.2075" cy="508.6125" r="11.5122"/><circle class="cls-22" cx="539.0577" cy="508.6125" r="18.6409"/><circle class="cls-23" cx="539.0577" cy="508.6125" r="11.5122"/><circle class="cls-22" cx="481.8675" cy="508.6125" r="18.6409"/><circle class="cls-23" cx="481.8675" cy="508.6125" r="11.5122"/><circle class="cls-22" cx="426.4722" cy="508.6125" r="18.6409"/><circle class="cls-23" cx="426.4722" cy="508.6125" r="11.5122"/><text class="cls-24" transform="translate(747.9717 530.5986) rotate(90)">VIN</text><text class="cls-24" transform="translate(692.1006 536.5908) rotate(90)">3vo</text><rect class="cls-25" x="550.7646" y="663.8039" width="88.8858" height="88.8857" transform="translate(1190.415 1416.4936) rotate(180)"/><rect class="cls-26" x="720.589" y="644.8426" width="21.7015" height="27.077" transform="translate(1462.8795 1316.7622) rotate(180)"/><rect class="cls-27" x="700.0283" y="644.8426" width="21.7015" height="27.077" transform="translate(1421.7581 1316.7622) rotate(180)"/><rect class="cls-27" x="742.2905" y="644.8426" width="21.7015" height="27.077" transform="translate(1506.2825 1316.7622) rotate(180)"/><rect class="cls-26" x="629.9023" y="612.0362" width="21.7015" height="27.077" transform="translate(1281.5062 1251.1493) rotate(180)"/><rect class="cls-27" x="609.3417" y="612.0362" width="21.7015" height="27.077" transform="translate(1240.3848 1251.1493) rotate(180)"/><rect class="cls-27" x="651.6039" y="612.0362" width="21.7015" height="27.077" transform="translate(1324.9093 1251.1493) rotate(180)"/><rect class="cls-26" x="535.9971" y="612.0362" width="21.7015" height="27.077" transform="translate(1093.6958 1251.1493) rotate(180)"/><rect class="cls-27" x="515.4364" y="612.0362" width="21.7015" height="27.077" transform="translate(1052.5744 1251.1493) rotate(180)"/><rect class="cls-27" x="557.6986" y="612.0362" width="21.7015" height="27.077" transform="translate(1137.0988 1251.1493) rotate(180)"/><rect class="cls-26" x="437.894" y="660.9062" width="21.7015" height="27.077" transform="translate(897.4896 1348.8894) rotate(180)"/><rect class="cls-27" x="417.3334" y="660.9062" width="21.7015" height="27.077" transform="translate(856.3682 1348.8894) rotate(180)"/><rect class="cls-27" x="459.5956" y="660.9062" width="21.7015" height="27.077" transform="translate(940.8927 1348.8894) rotate(180)"/><rect class="cls-26" x="438.4645" y="612.0362" width="21.7015" height="27.077" transform="translate(898.6305 1251.1493) rotate(180)"/><rect class="cls-27" x="417.9038" y="612.0362" width="21.7015" height="27.077" transform="translate(857.5091 1251.1493) rotate(180)"/><rect class="cls-27" x="460.166" y="612.0362" width="21.7015" height="27.077" transform="translate(942.0335 1251.1493) rotate(180)"/><path class="cls-28" d="M639.6532,706.5211c.9853.4615,3.3435-1.153,3.3435-3.5355,0-2.8976-2.0371-4.0128-3.3435-3.5972C639.6871,703.7348,639.6386,698.55,639.6532,706.5211Z"/><path class="cls-28" d="M639.6532,692.201c.9853.4615,3.3435-1.1529,3.3435-3.5355,0-2.8976-2.0371-4.0128-3.3435-3.5972C639.6871,689.4147,639.6386,684.23,639.6532,692.201Z"/><path class="cls-28" d="M550.7618,684.4143c-.9854-.4615-3.3435,1.1529-3.3435,3.5355,0,2.8976,2.0371,4.0128,3.3435,3.5972C550.7279,687.2006,550.7763,692.3852,550.7618,684.4143Z"/><path class="cls-28" d="M550.7618,697.9533c-.9854-.4616-3.3435,1.1529-3.3435,3.5355,0,2.8976,2.0371,4.0128,3.3435,3.5972C550.7279,700.74,550.7763,705.9242,550.7618,697.9533Z"/><path class="cls-28" d="M618.5834,663.8011c.4615-.9853-1.153-3.3434-3.5355-3.3434-2.8976,0-4.0128,2.037-3.5972,3.3434C615.7971,663.7672,610.6125,663.8157,618.5834,663.8011Z"/><path class="cls-28" d="M605.0444,663.8011c.4615-.9853-1.1529-3.3434-3.5355-3.3434-2.8976,0-4.0128,2.037-3.5972,3.3434C602.2581,663.7672,597.0735,663.8157,605.0444,663.8011Z"/><path class="cls-28" d="M589.9433,663.8011c.4615-.9853-1.153-3.3434-3.5356-3.3434-2.8976,0-4.0128,2.037-3.5972,3.3434C587.157,663.7672,581.9723,663.8157,589.9433,663.8011Z"/><path class="cls-28" d="M575.6232,663.8011c.4615-.9853-1.153-3.3434-3.5356-3.3434-2.8976,0-4.0128,2.037-3.5972,3.3434C572.8369,663.7672,567.6523,663.8157,575.6232,663.8011Z"/><text class="cls-24" transform="translate(635.5029 536.5908) rotate(90)">GND</text><text class="cls-24" transform="translate(575.7021 536.5908) rotate(90)">Zout</text><text class="cls-24" transform="translate(526.2881 536.5908) rotate(90)">Yout</text><text class="cls-24" transform="translate(471.0185 536.5908) rotate(90)">Xout</text><text class="cls-24" transform="translate(414.2329 536.5908) rotate(90)">test</text><path class="cls-21" d="M725.3608,485.6571l3.0124-3.7613a1.5915,1.5915,0,0,0-.0747-2.0763l-16.968-18.3176a1.5909,1.5909,0,0,0-1.1674-.51h-8.244a1.5914,1.5914,0,0,0-1.1318.4727l-16.7139,16.9082a1.5916,1.5916,0,0,0-.3146,1.7825l2.3727,5.1707a1.5915,1.5915,0,0,0,1.4464.9277h36.5408A1.5914,1.5914,0,0,0,725.3608,485.6571Z"/><path class="cls-21" d="M632.4111,461.5885l-3.0123,3.7613a1.5914,1.5914,0,0,0,.0747,2.0763l16.9679,18.3176a1.5913,1.5913,0,0,0,1.1675.51h8.2439a1.5911,1.5911,0,0,0,1.1318-.4727l16.7139-16.9082a1.5915,1.5915,0,0,0,.3147-1.7825L671.64,461.92a1.5914,1.5914,0,0,0-1.4464-.9277H633.6533A1.5916,1.5916,0,0,0,632.4111,461.5885Z"/><path class="cls-21" d="M614.4,485.6571l3.0124-3.7613a1.5915,1.5915,0,0,0-.0747-2.0763L600.37,461.5019a1.5913,1.5913,0,0,0-1.1675-.51h-8.244a1.5914,1.5914,0,0,0-1.1318.4727l-16.7139,16.9082a1.5916,1.5916,0,0,0-.3146,1.7825l2.3727,5.1707a1.5915,1.5915,0,0,0,1.4464.9277h36.5408A1.5914,1.5914,0,0,0,614.4,485.6571Z"/><path class="cls-21" d="M558.2505,485.6571l3.0123-3.7613a1.5914,1.5914,0,0,0-.0747-2.0763L544.22,461.5019a1.5913,1.5913,0,0,0-1.1675-.51h-8.2439a1.5911,1.5911,0,0,0-1.1318.4727l-16.7139,16.9082a1.5913,1.5913,0,0,0-.3146,1.7825l2.3727,5.1707a1.5914,1.5914,0,0,0,1.4464.9277h36.5407A1.5914,1.5914,0,0,0,558.2505,485.6571Z"/><path class="cls-21" d="M501.06,485.6571l3.0123-3.7613a1.5914,1.5914,0,0,0-.0747-2.0763L487.03,461.5019a1.5913,1.5913,0,0,0-1.1675-.51h-8.2439a1.5911,1.5911,0,0,0-1.1318.4727l-16.7139,16.9082a1.5913,1.5913,0,0,0-.3146,1.7825l2.3727,5.1707a1.5914,1.5914,0,0,0,1.4464.9277h36.5407A1.5914,1.5914,0,0,0,501.06,485.6571Z"/><rect class="cls-29" x="444.0006" y="101.5097" width="37.6055" height="90.1001"/><polyline class="cls-30" points="450.223 171.92 449.163 346.411 508.079 346.914 508.079 421.471"/><polyline class="cls-31" points="462.803 141.108 461.743 330.895 523.72 331.398 523.72 421.471"/><polyline class="cls-32" points="474.867 122.174 473.807 315.393 538.42 316.208 539.48 507.508"/><text class="cls-33" transform="translate(21.4687 284.1738)"><tspan class="cls-34">26 A</tspan><tspan x="85.8774" y="0">WG</tspan><tspan x="0" y="51.9932">minumum</tspan></text><rect class="cls-29" x="363.9502" y="101.5097" width="37.6055" height="90.1001"/><polyline class="cls-30" points="370.172 173.55 368.646 396.229 450.406 397.836 450.406 422.576"/><polyline class="cls-31" points="382.752 142.738 381.226 380.712 466.047 382.32 465.969 422.576"/><polyline class="cls-32" points="394.817 123.804 393.29 365.211 481.681 366.814 482.004 508.613"/><text class="cls-35" transform="translate(21.4687 563.1523)">ADXL335<tspan x="0" y="51.9932">Analog triple-axis </tspan><tspan x="0" y="103.9873">accelerometer</tspan></text><rect class="cls-29" x="516.2555" y="101.5097" width="37.6055" height="90.1001"/><polyline class="cls-30" points="522.478 171.92 521.229 297.802 651.646 298.823 651.646 507.508"/><polyline class="cls-31" points="535.058 141.108 533.809 282.286 764.034 281.992 761.392 507.508"/><polyline class="cls-32" points="547.122 122.174 545.873 266.784 597.87 266.586 595.25 507.508"/></svg>