<svg id="Layer_1" data-name="Layer 1" xmlns="http://www.w3.org/2000/svg" viewBox="0 0 856.554 711.191"><defs><style>.cls-3{fill:#323031}.cls-4{fill:#6a5f27}.cls-5{font-size:32.1518px}.cls-16,.cls-22,.cls-5{fill:#fff}.cls-23,.cls-5{font-family:Verdana}.cls-13,.cls-29,.cls-30,.cls-31,.cls-8{fill:none}.cls-16,.cls-8{stroke:#fff}.cls-8{stroke-miterlimit:10;stroke-width:5.3586px}.cls-13{stroke:#f1f2f2;stroke-miterlimit:2}.cls-13,.cls-16{stroke-width:1.3575px}.cls-16,.cls-29,.cls-30,.cls-31{stroke-linecap:round;stroke-linejoin:round}.cls-20{fill:#f3f3ee}.cls-21{fill:#9496b4}.cls-23{font-size:28px;fill:#eef1f2;letter-spacing:.001em}.cls-25{fill:#8d725e}.cls-26{fill:#b5c0db}.cls-27{fill:#a0aac2}.cls-28{fill:#221f1f}.cls-29{stroke:#221f1f}.cls-29,.cls-30,.cls-31{stroke-width:10.832px}.cls-30{stroke:#e9262a}.cls-31{stroke:#babcbe}</style></defs><path d="M1017.654 221.671l-1383.623 1.842a82.746 82.746 0 01-82.636-82.855v-1367.227a82.746 82.746 0 0182.636-82.855l1394.162-1.842a82.746 82.746 0 0182.635 82.855v1356.66c4.748 55.188-24.433 94.364-77.14 93.419" fill="#434343"/><rect x="-424.078" y="-1280.425" width="1510.697" height="1479.989" rx="58.269" fill="#4f4e51"/><path class="cls-3" d="M-6.546 86.916h313.602v89.146H-6.546z"/><path class="cls-4" d="M29.262 126.1a5.388 5.388 0 11-5.39 5.386 5.385 5.385 0 015.39-5.386M29.262 150.22a5.39 5.39 0 11-5.39 5.391 5.386 5.386 0 015.39-5.39M29.262 101.001a5.39 5.39 0 11-5.39 5.387 5.385 5.385 0 015.39-5.387"/><path class="cls-3" d="M73.5 86.916h71.609v89.146H73.5z"/><path class="cls-4" d="M109.307 126.1a5.388 5.388 0 11-5.386 5.386 5.388 5.388 0 015.386-5.386M109.307 150.22a5.39 5.39 0 11-5.386 5.391 5.389 5.389 0 015.386-5.39M109.307 101.001a5.39 5.39 0 11-5.386 5.387 5.388 5.388 0 015.386-5.387"/><path class="cls-3" d="M235.447 86.916h71.609v89.146h-71.609z"/><path class="cls-4" d="M271.253 126.1a5.388 5.388 0 11-5.386 5.386 5.388 5.388 0 015.386-5.386M271.253 150.22a5.39 5.39 0 11-5.386 5.391 5.389 5.389 0 015.386-5.39M271.253 101.001a5.39 5.39 0 11-5.386 5.387 5.388 5.388 0 015.386-5.387"/><path class="cls-3" d="M154.521 86.916h71.609v89.146h-71.609z"/><path class="cls-4" d="M190.327 126.1a5.388 5.388 0 11-5.387 5.386 5.385 5.385 0 015.387-5.386M190.327 150.22a5.39 5.39 0 11-5.387 5.391 5.386 5.386 0 015.387-5.39M190.327 101.001a5.39 5.39 0 11-5.387 5.387 5.385 5.385 0 015.387-5.387"/><path class="cls-3" d="M342.771 86.702h313.602v89.146H342.771z"/><path class="cls-4" d="M378.574 125.886a5.388 5.388 0 11-5.387 5.387 5.385 5.385 0 015.387-5.387M378.574 150.007a5.39 5.39 0 11-5.387 5.39 5.386 5.386 0 015.387-5.39M378.574 100.788a5.39 5.39 0 11-5.387 5.386 5.386 5.386 0 015.387-5.386"/><path class="cls-3" d="M422.818 86.702h71.609v89.146h-71.609z"/><path class="cls-4" d="M458.623 125.886a5.388 5.388 0 11-5.39 5.387 5.385 5.385 0 015.39-5.387M458.623 150.007a5.39 5.39 0 11-5.39 5.39 5.386 5.386 0 015.39-5.39M458.623 100.788a5.39 5.39 0 11-5.39 5.386 5.385 5.385 0 015.39-5.386"/><path class="cls-3" d="M584.764 86.702h71.609v89.146h-71.609z"/><path class="cls-4" d="M620.569 125.886a5.388 5.388 0 11-5.39 5.387 5.385 5.385 0 015.39-5.387M620.569 150.007a5.39 5.39 0 11-5.39 5.39 5.386 5.386 0 015.39-5.39M620.569 100.788a5.39 5.39 0 11-5.39 5.386 5.385 5.385 0 015.39-5.386"/><path class="cls-3" d="M503.835 86.702h71.613v89.146h-71.613z"/><path class="cls-4" d="M539.642 125.886a5.388 5.388 0 11-5.39 5.387 5.385 5.385 0 015.39-5.387M539.642 150.007a5.39 5.39 0 11-5.39 5.39 5.386 5.386 0 015.39-5.39M539.642 100.788a5.39 5.39 0 11-5.39 5.386 5.385 5.385 0 015.39-5.386"/><text class="cls-5" transform="translate(109.087 37.9)">RE<tspan x="42.686" y="0" letter-spacing=".009em">L</tspan><tspan x="60.872" y="0" letter-spacing="-.058em">A</tspan><tspan x="80.986" y="0">Y</tspan></text><path class="cls-8" d="M27.867 48.78V31.221h60.784M215.553 31.218h55.141v19.737"/><text class="cls-5" transform="translate(422.439 37.9)">ANA<tspan x="68.008" y="0" letter-spacing="-.031em">L</tspan><tspan x="84.909" y="0">OG IN</tspan></text><text transform="translate(771.753 62.892)" font-size="23.231" font-family="Verdana" fill="#fff">RESET</text><path class="cls-8" d="M377 48.648V32.304h27.762M600.327 30.132h27.569v20.825"/><rect x="751.093" y="80.82" width="215.391" height="100.909" rx="19.501" fill="#5a5d65"/><rect x="779.324" y="104.261" width="53.667" height="54.028" rx="26.834" fill="#23446c"/><path class="cls-13" d="M706.462 185.706h10.04M702.487 181.449h18.015M698.101 177.2h26.778M702.768 132.712h-15.879M702.76 105.869h-15.879M711.49 177.2v-16.867h-24.602"/><text transform="matrix(1 0 0 1.0605 704.507 111.548)" font-size="19.605" font-family="Verdana" fill="#fff">S</text><text transform="matrix(1 0 0 1.1297 705.804 139.595)" font-size="19.012" font-family="Verdana" fill="#fff">5V</text><path class="cls-16" d="M680.13 102.254h6.291v6.843h-6.291zM680.542 129.023h6.291v6.843h-6.291zM680.449 156.616h6.291v6.843h-6.291z"/><text transform="matrix(1 0 0 1.0349 669.448 -6.886)" font-size="22.628" font-family="Verdana" fill="#fff"><tspan letter-spacing="-.02em">A</tspan><tspan x="15.016" y="0">CCELEROMETER</tspan></text><path d="M466.83 866.616h322.755a48.141 48.141 0 0048-48V508.992a48.047 48.047 0 00-21.38-39.877l-16.475 16.666a1.59 1.59 0 01-1.132.473h-8.244a1.593 1.593 0 01-1.167-.51l-16.968-18.318a1.591 1.591 0 01-.075-2.076l3.013-3.761a1.591 1.591 0 011.242-.597H466.83a48.14 48.14 0 00-48 48v309.624a48.141 48.141 0 0048 48z" fill="#1d57a6"/><path class="cls-20" d="M772.144 465.35a1.591 1.591 0 00.075 2.076l16.968 18.318a1.593 1.593 0 001.167.51h8.244a1.59 1.59 0 001.132-.473l16.474-16.665.24-.243a1.55 1.55 0 00.42-.96 47.817 47.817 0 00-14.957-6.92H776.4a1.591 1.591 0 00-1.242.596z"/><circle class="cls-21" cx="794.349" cy="508.613" r="18.641"/><circle class="cls-22" cx="794.349" cy="508.613" r="11.512"/><circle class="cls-21" cx="739.168" cy="508.613" r="18.641"/><circle class="cls-22" cx="739.168" cy="508.613" r="11.512"/><circle class="cls-21" cx="684.604" cy="508.613" r="18.641"/><circle class="cls-22" cx="684.604" cy="508.613" r="11.512"/><circle class="cls-21" cx="628.207" cy="508.613" r="18.641"/><circle class="cls-22" cx="628.207" cy="508.613" r="11.512"/><circle class="cls-21" cx="572.058" cy="508.613" r="18.641"/><circle class="cls-22" cx="572.058" cy="508.613" r="11.512"/><circle class="cls-21" cx="514.867" cy="508.613" r="18.641"/><circle class="cls-22" cx="514.867" cy="508.613" r="11.512"/><circle class="cls-21" cx="459.472" cy="508.613" r="18.641"/><circle class="cls-22" cx="459.472" cy="508.613" r="11.512"/><text class="cls-23" transform="rotate(90 124.15 661.748)">VIN</text><text class="cls-23" transform="rotate(90 96.379 632.97)">3vo</text><path transform="rotate(180 628.207 708.247)" fill="#282630" d="M583.765 663.804h88.886v88.886h-88.886z"/><path class="cls-25" transform="rotate(180 764.44 658.381)" d="M753.589 644.843h21.701v27.077h-21.701z"/><path class="cls-26" transform="rotate(180 743.88 658.381)" d="M733.028 644.843h21.701v27.077h-21.701z"/><path class="cls-26" transform="rotate(180 786.141 658.381)" d="M775.29 644.843h21.701v27.077H775.29z"/><path class="cls-25" transform="rotate(180 673.753 625.575)" d="M662.902 612.036h21.701v27.077h-21.701z"/><path class="cls-26" transform="rotate(180 653.192 625.575)" d="M642.342 612.036h21.701v27.077h-21.701z"/><path class="cls-26" transform="rotate(180 695.455 625.575)" d="M684.604 612.036h21.701v27.077h-21.701z"/><path class="cls-25" transform="rotate(180 579.848 625.575)" d="M568.997 612.036h21.701v27.077h-21.701z"/><path class="cls-26" transform="rotate(180 559.287 625.575)" d="M548.436 612.036h21.701v27.077h-21.701z"/><path class="cls-26" transform="rotate(180 601.55 625.575)" d="M590.699 612.036H612.4v27.077h-21.701z"/><path class="cls-25" transform="rotate(180 481.745 674.445)" d="M470.894 660.906h21.701v27.077h-21.701z"/><path class="cls-26" transform="rotate(180 461.184 674.445)" d="M450.333 660.906h21.701v27.077h-21.701z"/><path class="cls-26" transform="rotate(180 503.446 674.445)" d="M492.596 660.906h21.701v27.077h-21.701z"/><path class="cls-25" transform="rotate(180 482.315 625.575)" d="M471.464 612.036h21.701v27.077h-21.701z"/><path class="cls-26" transform="rotate(180 461.755 625.575)" d="M450.904 612.036h21.701v27.077h-21.701z"/><path class="cls-26" transform="rotate(180 504.017 625.575)" d="M493.166 612.036h21.701v27.077h-21.701z"/><path class="cls-27" d="M672.653 706.521c.985.462 3.344-1.153 3.344-3.535 0-2.898-2.037-4.013-3.344-3.598.034 4.347-.014-.838 0 7.133zM672.653 692.201c.985.462 3.344-1.153 3.344-3.535 0-2.898-2.037-4.013-3.344-3.598.034 4.347-.014-.838 0 7.133zM583.762 684.414c-.986-.461-3.344 1.153-3.344 3.536 0 2.897 2.037 4.013 3.344 3.597-.034-4.346.014.838 0-7.133zM583.762 697.953c-.986-.461-3.344 1.153-3.344 3.536 0 2.897 2.037 4.013 3.344 3.597-.034-4.346.014.838 0-7.133zM651.583 663.801c.462-.985-1.153-3.343-3.535-3.343-2.898 0-4.013 2.037-3.597 3.343 4.346-.034-.839.015 7.132 0zM638.044 663.801c.462-.985-1.152-3.343-3.535-3.343-2.898 0-4.013 2.037-3.597 3.343 4.346-.034-.839.015 7.132 0zM622.943 663.801c.462-.985-1.153-3.343-3.535-3.343-2.898 0-4.013 2.037-3.598 3.343 4.347-.034-.838.015 7.133 0zM608.623 663.801c.462-.985-1.153-3.343-3.535-3.343-2.898 0-4.013 2.037-3.598 3.343 4.347-.034-.838.015 7.133 0z"/><text class="cls-23" transform="rotate(90 68.962 605.553)">GND</text><text class="cls-23" transform="rotate(90 42.72 578.31)">Zout</text><text class="cls-23" transform="rotate(90 12.667 549.258)">Yout</text><text class="cls-23" transform="rotate(90 -15.053 521.538)">Xout</text><text class="cls-23" transform="rotate(90 -43.3 493.292)">test</text><path class="cls-20" d="M758.36 485.657l3.013-3.761a1.591 1.591 0 00-.075-2.077l-16.968-18.317a1.59 1.59 0 00-1.167-.51h-8.244a1.591 1.591 0 00-1.132.473l-16.714 16.908a1.592 1.592 0 00-.314 1.782l2.372 5.171a1.591 1.591 0 001.447.928h36.54a1.591 1.591 0 001.243-.597zM665.411 461.589l-3.012 3.76a1.591 1.591 0 00.075 2.077l16.967 18.318a1.591 1.591 0 001.168.51h8.244a1.591 1.591 0 001.132-.473l16.714-16.908a1.591 1.591 0 00.314-1.783l-2.373-5.17a1.591 1.591 0 00-1.446-.928h-36.54a1.592 1.592 0 00-1.243.596zM647.4 485.657l3.012-3.761a1.591 1.591 0 00-.074-2.077l-16.968-18.317a1.591 1.591 0 00-1.167-.51h-8.244a1.591 1.591 0 00-1.132.473l-16.714 16.908a1.592 1.592 0 00-.315 1.782l2.373 5.171a1.591 1.591 0 001.446.928h36.541a1.591 1.591 0 001.242-.597zM591.25 485.657l3.013-3.761a1.591 1.591 0 00-.075-2.077l-16.968-18.317a1.591 1.591 0 00-1.167-.51h-8.244a1.591 1.591 0 00-1.132.473l-16.714 16.908a1.591 1.591 0 00-.315 1.782l2.373 5.171a1.591 1.591 0 001.446.928h36.541a1.591 1.591 0 001.242-.597zM534.06 485.657l3.012-3.761a1.591 1.591 0 00-.074-2.077l-16.968-18.317a1.591 1.591 0 00-1.167-.51h-8.244a1.591 1.591 0 00-1.132.473l-16.714 16.908a1.591 1.591 0 00-.315 1.782l2.373 5.171a1.591 1.591 0 001.446.928h36.541a1.591 1.591 0 001.242-.597z"/><path class="cls-28" d="M444.001 101.51h37.605v90.1h-37.605z"/><path class="cls-29" d="M450.223 171.92l-1.06 174.491 91.916.503v74.557"/><path class="cls-30" d="M462.803 141.108l-1.06 189.787 94.977.503v90.073"/><path class="cls-31" d="M474.867 122.174l-1.06 193.219 97.613.815 1.06 191.3"/><path class="cls-28" d="M363.95 101.51h37.605v90.1H363.95z"/><path class="cls-29" d="M370.172 173.55l-1.526 222.679 114.76 1.607v24.74"/><path class="cls-30" d="M382.752 142.738l-1.526 237.974 117.821 1.608-.078 40.256"/><path class="cls-31" d="M394.817 123.804l-1.527 241.407 121.391 1.603.323 141.799"/><text transform="translate(16.469 563.152)" font-size="43.328" fill="#010101" letter-spacing=".001em" font-family="Verdana">ADXL335<tspan x="0" y="51.993">Analog triple-axis </tspan><tspan x="0" y="103.987">accelerometer</tspan></text><path class="cls-28" d="M516.255 101.51h37.605v90.1h-37.605z"/><path class="cls-29" d="M522.478 171.92l-1.249 125.882 163.417 1.021v208.685"/><path class="cls-30" d="M535.058 141.108l-1.249 141.178 263.225-.294-2.642 225.516"/><path class="cls-31" d="M547.122 122.174l-1.249 144.61 84.997-.198-2.62 240.922"/></svg>