<svg xmlns="http://www.w3.org/2000/svg" viewBox="0 0 800 785"><defs><style>.cls-1{fill:#434343;}.cls-2{fill:#4f4e51;}.cls-3{fill:#323031;}.cls-4{fill:#424242;}.cls-5{fill:#6a5f27;}.cls-6{fill:#5a5a5d;}.cls-7{fill:#f2f2f2;}.cls-8{fill:#221f1f;}.cls-13,.cls-30,.cls-31,.cls-41,.cls-42,.cls-46,.cls-47,.cls-49,.cls-9{fill:none;}.cls-9{stroke:#5a5a5d;stroke-width:5.416px;}.cls-13,.cls-9{stroke-miterlimit:10;}.cls-10{font-size:16.248px;}.cls-10,.cls-11,.cls-12,.cls-18,.cls-23,.cls-29,.cls-32,.cls-33,.cls-34,.cls-36,.cls-37,.cls-38,.cls-39,.cls-40,.cls-43,.cls-45{fill:#fff;}.cls-10,.cls-11,.cls-18,.cls-23,.cls-29,.cls-33,.cls-34,.cls-36,.cls-39,.cls-40,.cls-43,.cls-45{font-family:Heebo-Light, Heebo;font-weight:300;}.cls-11{font-size:10.832px;}.cls-13,.cls-31,.cls-32,.cls-37,.cls-38,.cls-46,.cls-47,.cls-49{stroke:#fff;}.cls-13{stroke-width:2.708px;}.cls-14{letter-spacing:0.009em;}.cls-15{letter-spacing:-0.058em;}.cls-16{letter-spacing:0em;}.cls-17{letter-spacing:-0.031em;}.cls-18{font-size:11.7401px;}.cls-19{fill:#9b9b9b;}.cls-20{fill:#171717;}.cls-21{fill:#f3ea07;}.cls-22{fill:#7cc244;}.cls-23{font-size:32.496px;}.cls-24{letter-spacing:-0.013em;}.cls-25{fill:#51545a;}.cls-26{fill:#3c3d42;}.cls-27{fill:#5a5d65;}.cls-28{fill:#23446c;}.cls-29{font-size:11.1981px;}.cls-30,.cls-41{stroke:#f1f2f2;}.cls-30,.cls-31,.cls-32,.cls-38,.cls-41,.cls-42,.cls-46{stroke-miterlimit:2;}.cls-31,.cls-32,.cls-37,.cls-38,.cls-41,.cls-42,.cls-49{stroke-width:0.686px;}.cls-32,.cls-37,.cls-47{stroke-linecap:round;}.cls-33{font-size:10.9221px;}.cls-34{font-size:11.699px;}.cls-35{letter-spacing:-0.019em;}.cls-36{font-size:10.9278px;}.cls-37,.cls-47,.cls-49{stroke-linejoin:round;}.cls-39{font-size:9.9074px;}.cls-40{font-size:9.6078px;}.cls-42{stroke:#020202;}.cls-43,.cls-45{font-size:11.4352px;}.cls-43{letter-spacing:-0.02em;}.cls-44{letter-spacing:0em;}.cls-46{stroke-width:0.588px;}.cls-47{stroke-width:0.506px;}.cls-48{fill:#231f20;}.cls-50{opacity:0.33;}.cls-51{fill:#00aeef;}</style></defs><g id="roboRIO"><path class="cls-1" d="M748.294,776.7136l-699.2185.9311a41.8157,41.8157,0,0,1-41.76-41.8712V44.8409A41.8157,41.8157,0,0,1,49.0755,2.97L753.62,2.0386A41.8157,41.8157,0,0,1,795.38,43.91V729.5023c2.3995,27.8894-12.3473,47.6875-38.9831,47.21"/><rect class="cls-2" x="19.71" y="17.6245" width="763.4358" height="747.9174" rx="29.4466"/><rect class="cls-3" x="26.1106" y="278.8355" width="46.329" height="413.1708"/><path class="cls-4" d="M555.11,136.0791H242.7556a19.4986,19.4986,0,0,1-19.4981-19.4978V36.0552a19.4986,19.4986,0,0,1,19.4981-19.4981H555.11a19.4986,19.4986,0,0,1,19.4978,19.4981v80.5261A19.4985,19.4985,0,0,1,555.11,136.0791"/><rect class="cls-3" x="257.7717" y="521.2583" width="279.7219" height="51.5601"/><path class="cls-5" d="M51.7541,301.4053a2.7242,2.7242,0,1,1-2.7242-2.7239,2.7231,2.7231,0,0,1,2.7242,2.7239"/><path class="cls-5" d="M39.5627,301.4053a2.7242,2.7242,0,1,1-2.7222-2.7239,2.7213,2.7213,0,0,1,2.7222,2.7239"/><path class="cls-5" d="M64.4357,301.4053a2.723,2.723,0,1,1-2.7222-2.7239,2.7212,2.7212,0,0,1,2.7222,2.7239"/><path class="cls-5" d="M51.7541,342.637a2.7242,2.7242,0,1,1-2.7242-2.7236,2.7231,2.7231,0,0,1,2.7242,2.7236"/><path class="cls-5" d="M39.5627,342.637a2.7242,2.7242,0,1,1-2.7222-2.7236,2.7213,2.7213,0,0,1,2.7222,2.7236"/><path class="cls-5" d="M64.4357,342.637a2.723,2.723,0,1,1-2.7222-2.7236,2.7212,2.7212,0,0,1,2.7222,2.7236"/><path class="cls-5" d="M51.7541,383.8688a2.7242,2.7242,0,1,1-2.7242-2.7235,2.7231,2.7231,0,0,1,2.7242,2.7235"/><path class="cls-5" d="M39.5627,383.8688a2.7242,2.7242,0,1,1-2.7222-2.7235,2.7213,2.7213,0,0,1,2.7222,2.7235"/><path class="cls-5" d="M64.4357,383.8688a2.723,2.723,0,1,1-2.7222-2.7235,2.7212,2.7212,0,0,1,2.7222,2.7235"/><path class="cls-5" d="M51.7541,425.1005a2.7242,2.7242,0,1,1-2.7242-2.7232,2.7232,2.7232,0,0,1,2.7242,2.7232"/><path class="cls-5" d="M39.5627,425.1005a2.7242,2.7242,0,1,1-2.7222-2.7232,2.7213,2.7213,0,0,1,2.7222,2.7232"/><path class="cls-5" d="M64.4357,425.1005a2.723,2.723,0,1,1-2.7222-2.7232,2.7213,2.7213,0,0,1,2.7222,2.7232"/><path class="cls-5" d="M51.7541,466.3323a2.7242,2.7242,0,1,1-2.7242-2.723,2.7231,2.7231,0,0,1,2.7242,2.723"/><path class="cls-5" d="M39.5627,466.3323a2.7242,2.7242,0,1,1-2.7222-2.723,2.7213,2.7213,0,0,1,2.7222,2.723"/><path class="cls-5" d="M64.4357,466.3323a2.723,2.723,0,1,1-2.7222-2.723,2.7212,2.7212,0,0,1,2.7222,2.723"/><path class="cls-5" d="M51.7541,507.564a2.7242,2.7242,0,1,1-2.7242-2.7228,2.7231,2.7231,0,0,1,2.7242,2.7228"/><path class="cls-5" d="M39.5627,507.564a2.7242,2.7242,0,1,1-2.7222-2.7228,2.7213,2.7213,0,0,1,2.7222,2.7228"/><path class="cls-5" d="M64.4357,507.564a2.723,2.723,0,1,1-2.7222-2.7228,2.7212,2.7212,0,0,1,2.7222,2.7228"/><path class="cls-5" d="M51.7541,548.7958a2.7242,2.7242,0,1,1-2.7242-2.7226,2.7231,2.7231,0,0,1,2.7242,2.7226"/><path class="cls-5" d="M39.5627,548.7958a2.7242,2.7242,0,1,1-2.7222-2.7226,2.7213,2.7213,0,0,1,2.7222,2.7226"/><path class="cls-5" d="M64.4357,548.7958a2.723,2.723,0,1,1-2.7222-2.7226,2.7212,2.7212,0,0,1,2.7222,2.7226"/><path class="cls-5" d="M51.7541,590.0276a2.7242,2.7242,0,1,1-2.7242-2.7224,2.7231,2.7231,0,0,1,2.7242,2.7224"/><path class="cls-5" d="M39.5627,590.0276a2.7242,2.7242,0,1,1-2.7222-2.7224,2.7212,2.7212,0,0,1,2.7222,2.7224"/><path class="cls-5" d="M64.4357,590.0276a2.723,2.723,0,1,1-2.7222-2.7224,2.7212,2.7212,0,0,1,2.7222,2.7224"/><path class="cls-5" d="M51.7541,631.2593a2.7242,2.7242,0,1,1-2.7242-2.7221,2.7231,2.7231,0,0,1,2.7242,2.7221"/><path class="cls-5" d="M39.5627,631.2593a2.7242,2.7242,0,1,1-2.7222-2.7221,2.7213,2.7213,0,0,1,2.7222,2.7221"/><path class="cls-5" d="M64.4357,631.2593a2.723,2.723,0,1,1-2.7222-2.7221,2.7212,2.7212,0,0,1,2.7222,2.7221"/><path class="cls-5" d="M51.7541,672.4911a2.7242,2.7242,0,1,1-2.7242-2.722,2.7231,2.7231,0,0,1,2.7242,2.722"/><path class="cls-5" d="M39.5627,672.4911a2.7242,2.7242,0,1,1-2.7222-2.722,2.7212,2.7212,0,0,1,2.7222,2.722"/><path class="cls-5" d="M64.4357,672.4911a2.723,2.723,0,1,1-2.7222-2.722,2.7212,2.7212,0,0,1,2.7222,2.722"/><rect class="cls-3" x="27.4856" y="223.8423" width="45.05" height="36.188"/><path class="cls-5" d="M52.7346,241.9365a2.7241,2.7241,0,1,1-2.7241-2.7219,2.723,2.723,0,0,1,2.7241,2.7219"/><path class="cls-5" d="M40.5432,241.9365a2.7241,2.7241,0,1,1-2.7222-2.7219,2.7212,2.7212,0,0,1,2.7222,2.7219"/><path class="cls-5" d="M65.4162,241.9365a2.723,2.723,0,1,1-2.7221-2.7219,2.7212,2.7212,0,0,1,2.7221,2.7219"/><rect class="cls-3" x="27.4856" y="160.4363" width="60.6521" height="39.05"/><path class="cls-5" d="M54.0061,179.96a2.7242,2.7242,0,1,1-2.7241-2.7219,2.7247,2.7247,0,0,1,2.7241,2.7219"/><path class="cls-5" d="M41.8147,179.96a2.7242,2.7242,0,1,1-2.7222-2.7219,2.7229,2.7229,0,0,1,2.7222,2.7219"/><path class="cls-5" d="M66.6877,179.96a2.723,2.723,0,1,1-2.7221-2.7219,2.7229,2.7229,0,0,1,2.7221,2.7219"/><path class="cls-5" d="M79.2541,179.96a2.7241,2.7241,0,1,1-2.7221-2.7219,2.7229,2.7229,0,0,1,2.7221,2.7219"/><rect class="cls-3" x="230.711" y="708.6146" width="158.48" height="45.05"/><path class="cls-5" d="M248.807,728.4165a2.723,2.723,0,1,1-2.7242,2.722,2.7211,2.7211,0,0,1,2.7242-2.722"/><path class="cls-5" d="M248.807,740.6059a2.7241,2.7241,0,1,1-2.7242,2.7241,2.7216,2.7216,0,0,1,2.7242-2.7241"/><path class="cls-5" d="M248.807,715.7329a2.7241,2.7241,0,1,1-2.7242,2.722,2.7211,2.7211,0,0,1,2.7242-2.722"/><rect class="cls-3" x="271.1629" y="708.6146" width="36.188" height="45.05"/><path class="cls-5" d="M289.2581,728.4165a2.723,2.723,0,1,1-2.7221,2.722,2.7228,2.7228,0,0,1,2.7221-2.722"/><path class="cls-5" d="M289.2581,740.6059a2.7241,2.7241,0,1,1-2.7221,2.7241,2.7233,2.7233,0,0,1,2.7221-2.7241"/><path class="cls-5" d="M289.2581,715.7329a2.7241,2.7241,0,1,1-2.7221,2.722,2.7228,2.7228,0,0,1,2.7221-2.722"/><rect class="cls-3" x="353.003" y="708.6146" width="36.188" height="45.05"/><path class="cls-5" d="M371.098,728.4165a2.723,2.723,0,1,1-2.7222,2.722,2.7227,2.7227,0,0,1,2.7222-2.722"/><path class="cls-5" d="M371.098,740.6059a2.7241,2.7241,0,1,1-2.7222,2.7241,2.7232,2.7232,0,0,1,2.7222-2.7241"/><path class="cls-5" d="M371.098,715.7329a2.7241,2.7241,0,1,1-2.7222,2.722,2.7227,2.7227,0,0,1,2.7222-2.722"/><rect class="cls-3" x="312.107" y="708.6146" width="36.188" height="45.05"/><path class="cls-5" d="M330.2015,728.4165a2.723,2.723,0,1,1-2.7222,2.722,2.7211,2.7211,0,0,1,2.7222-2.722"/><path class="cls-5" d="M330.2015,740.6059a2.7241,2.7241,0,1,1-2.7222,2.7241,2.7216,2.7216,0,0,1,2.7222-2.7241"/><path class="cls-5" d="M330.2015,715.7329a2.7241,2.7241,0,1,1-2.7222,2.722,2.7211,2.7211,0,0,1,2.7222-2.722"/><rect class="cls-3" x="407.2397" y="708.5066" width="158.48" height="45.05"/><path class="cls-5" d="M425.3327,728.3085a2.723,2.723,0,1,1-2.7222,2.722,2.7215,2.7215,0,0,1,2.7222-2.722"/><path class="cls-5" d="M425.3327,740.4979a2.7241,2.7241,0,1,1-2.7222,2.7241,2.722,2.722,0,0,1,2.7222-2.7241"/><path class="cls-5" d="M425.3327,715.6249a2.7241,2.7241,0,1,1-2.7222,2.722,2.7215,2.7215,0,0,1,2.7222-2.722"/><rect class="cls-3" x="447.6916" y="708.5066" width="36.188" height="45.05"/><path class="cls-5" d="M465.7858,728.3085a2.723,2.723,0,1,1-2.7241,2.722,2.7212,2.7212,0,0,1,2.7241-2.722"/><path class="cls-5" d="M465.7858,740.4979a2.7241,2.7241,0,1,1-2.7241,2.7241,2.7216,2.7216,0,0,1,2.7241-2.7241"/><path class="cls-5" d="M465.7858,715.6249a2.7241,2.7241,0,1,1-2.7241,2.722,2.7212,2.7212,0,0,1,2.7241-2.722"/><rect class="cls-3" x="529.5317" y="708.5066" width="36.188" height="45.05"/><path class="cls-5" d="M547.6257,728.3085a2.723,2.723,0,1,1-2.7241,2.722,2.7211,2.7211,0,0,1,2.7241-2.722"/><path class="cls-5" d="M547.6257,740.4979a2.7241,2.7241,0,1,1-2.7241,2.7241,2.7216,2.7216,0,0,1,2.7241-2.7241"/><path class="cls-5" d="M547.6257,715.6249a2.7241,2.7241,0,1,1-2.7241,2.722,2.7211,2.7211,0,0,1,2.7241-2.722"/><rect class="cls-3" x="488.6337" y="708.5066" width="36.1899" height="45.05"/><path class="cls-5" d="M506.7292,728.3085a2.723,2.723,0,1,1-2.7241,2.722,2.7211,2.7211,0,0,1,2.7241-2.722"/><path class="cls-5" d="M506.7292,740.4979a2.7241,2.7241,0,1,1-2.7241,2.7241,2.7216,2.7216,0,0,1,2.7241-2.7241"/><path class="cls-5" d="M506.7292,715.6249a2.7241,2.7241,0,1,1-2.7241,2.722,2.7211,2.7211,0,0,1,2.7241-2.722"/><rect class="cls-6" x="32.2497" y="86.4443" width="43.512" height="24.8181"/><rect class="cls-7" x="42.0259" y="91.0984" width="27.9199" height="14.7339"/><path class="cls-8" d="M55.0159,98.8545a9.7911,9.7911,0,1,1-9.7923-9.792,9.79,9.79,0,0,1,9.7923,9.792"/><rect class="cls-6" x="32.2497" y="111.2624" width="43.512" height="24.8159"/><rect class="cls-7" x="42.0259" y="115.9165" width="27.9199" height="14.7339"/><path class="cls-8" d="M55.0159,123.6709a9.7911,9.7911,0,1,1-9.7923-9.792,9.7923,9.7923,0,0,1,9.7923,9.792"/><polygon class="cls-3" points="146.252 24.312 146.252 58.286 138.866 58.286 138.866 98.466 146.252 98.466 146.252 123.672 181.702 123.672 181.702 98.466 197.21 98.466 197.21 56.808 183.918 56.07 183.18 24.312 146.252 24.312"/><path class="cls-8" d="M173.7678,39.4463a9.791,9.791,0,1,1-9.7922-9.792,9.7922,9.7922,0,0,1,9.7922,9.792"/><path class="cls-8" d="M173.7678,108.4326a9.791,9.791,0,1,1-9.7922-9.792,9.7908,9.7908,0,0,1,9.7922,9.792"/><rect class="cls-8" x="168.0398" y="62.6184" width="25.478" height="10.3379"/><rect class="cls-8" x="168.0398" y="81.0903" width="25.478" height="10.3401"/><path class="cls-7" d="M363.3049,619.4051h-3.0762a82.8715,82.8715,0,0,1-6.85-8.9439h-.042v8.9439h-3.6221v-15.27h3.3379c2.2041,2.706,5.4961,6.6759,6.5882,8.748h.0419v-8.748h3.6221v15.27"/><path class="cls-7" d="M373.9734,604.1348l5.802,15.27h-4.886l-1.2-3.642h-4.7341l-1.4619,3.642h-3.5979l6.2158-15.27Zm-1.0259,9.2059c-.5022-1.81-.9382-3.272-1.4841-5.454h-.044c-.5881,2.182-1.112,3.644-1.68,5.454h3.208"/><polygon class="cls-7" points="381.237 619.405 381.237 606.993 376.831 606.993 376.831 604.135 390.246 604.135 390.246 606.993 385.84 606.993 385.84 619.405 381.237 619.405"/><rect class="cls-7" x="391.7297" y="604.1363" width="4.604" height="15.27"/><path class="cls-7" d="M397.4424,611.5965a7.592,7.592,0,1,1,15.1818,0c0,4.5581-2.9018,8.07-7.592,8.07s-7.59-3.512-7.59-8.07m10.382,0c0-2.7059-.8281-4.5379-2.7922-4.5379s-2.792,1.832-2.792,4.5379c0,2.8781.7422,4.8841,2.792,4.8841s2.7922-2.006,2.7922-4.8841"/><path class="cls-7" d="M427.3244,619.4051H424.25a82.3587,82.3587,0,0,1-6.85-8.9439h-.044v8.9439h-3.622v-15.27h3.3378c2.2041,2.706,5.4961,6.6759,6.5882,8.748h.0439v-8.748h3.62v15.27"/><path class="cls-7" d="M437.7742,604.1348l5.802,15.27h-4.8841l-1.2019-3.642h-4.7341l-1.4619,3.642h-3.5979l6.2177-15.27Zm-1.0259,9.2059c-.5-1.81-.9383-3.272-1.4822-5.454h-.044c-.59,2.182-1.112,3.644-1.6818,5.454h3.208"/><polygon class="cls-7" points="444.604 604.135 449.206 604.135 449.206 616.548 454.79 616.548 454.79 619.406 444.604 619.406 444.604 604.135"/><rect class="cls-7" x="342.8418" y="624.1344" width="4.604" height="15.272"/><path class="cls-7" d="M362.9963,639.4051h-3.0742a82.6592,82.6592,0,0,1-6.8518-8.9459h-.042v8.9459h-3.6221V624.1332h3.3379c2.2041,2.706,5.4981,6.676,6.5882,8.748h.0419v-8.748h3.6221v15.2719"/><path class="cls-7" d="M372.7053,627.2977a4.344,4.344,0,0,0-2.248-.568c-.8941,0-1.3521.4381-1.3521.94,0,.848,1.2881,1.548,2.772,2.92,1.96,1.834,2.4419,2.99,2.4419,4.584,0,1.35-1.1118,4.494-5.6939,4.494a7.7351,7.7351,0,0,1-4.7981-1.398l1.396-2.53a4.3224,4.3224,0,0,0,2.616,1.068c.916,0,1.92-.458,1.92-1.5919,0-1.22-1.4842-2.1161-2.6822-3.162-1.592-1.396-2.532-2.206-2.532-4.08,0-2.4439,2.4642-4.1019,5.346-4.1019a8.1258,8.1258,0,0,1,3.9922,1.026l-1.178,2.4"/><polygon class="cls-7" points="378.856 639.405 378.856 626.991 374.45 626.991 374.45 624.133 387.864 624.133 387.864 626.991 383.459 626.991 383.459 639.405 378.856 639.405"/><path class="cls-7" d="M389.3454,624.133h6.8079c3.5979,0,5.54,1.5721,5.54,4.08a4.58,4.58,0,0,1-2.5739,4.406l3.38,6.546-4.9279.5021-2.42-6.0441h-1.2019v5.782h-4.604Zm4.604,6.612h1.3079a1.8411,1.8411,0,0,0,1.832-1.876,1.6848,1.6848,0,0,0-1.9179-1.8779h-1.222v3.7539"/><path class="cls-7" d="M407.6721,624.1338V632.12c0,2.7459.4138,4.3619,2.356,4.3619,1.5258,0,2.4-1.528,2.4-4.428v-7.92h3.97v9.228c0,4.56-3.0979,6.306-6.5879,6.306-3.904,0-6.7419-1.6379-6.7419-6.196v-9.338h4.604"/><path class="cls-7" d="M436.969,639.4051h-4.6021v-10.69h-.042c-1.18,3.9919-2.4,7.352-3.624,10.69h-2.9c-1.2439-3.3379-2.4878-6.698-3.688-10.69h-.042v10.69H418.449V624.1332h6.2377c1.0481,2.924,2.094,5.826,3.12,9.4019h.0439c.9819-3.5759,2.0061-6.4779,3.01-9.4019h6.1082v15.2719"/><polygon class="cls-7" points="448.205 626.991 443.537 626.991 443.537 630.003 448.097 630.003 448.097 632.861 443.537 632.861 443.537 636.545 449.145 636.545 449.145 639.405 438.935 639.405 438.935 624.133 448.205 624.133 448.205 626.991"/><path class="cls-7" d="M463.5627,639.4051h-3.0761a82.6273,82.6273,0,0,1-6.85-8.9459h-.042v8.9459h-3.6221V624.1332h3.3379c2.2041,2.706,5.4961,6.676,6.5882,8.748h.042v-8.748h3.622v15.2719"/><polygon class="cls-7" points="468.799 639.405 468.799 626.991 464.393 626.991 464.393 624.133 477.809 624.133 477.809 626.991 473.403 626.991 473.403 639.405 468.799 639.405"/><path class="cls-7" d="M486.8166,627.2977a4.3416,4.3416,0,0,0-2.2461-.568c-.896,0-1.354.4381-1.354.94,0,.848,1.2881,1.548,2.77,2.92,1.9638,1.834,2.4438,2.99,2.4438,4.584,0,1.35-1.1118,4.494-5.6919,4.494a7.7367,7.7367,0,0,1-4.8-1.398l1.396-2.53a4.3321,4.3321,0,0,0,2.6159,1.068c.916,0,1.92-.458,1.92-1.5919,0-1.22-1.4822-2.1161-2.6821-3.162-1.5921-1.396-2.532-2.206-2.532-4.08,0-2.4439,2.466-4.1019,5.3459-4.1019a8.1258,8.1258,0,0,1,3.9922,1.026l-1.178,2.4"/><path class="cls-7" d="M489.2593,626.7626v-2.16h-.82v-.276h2.0561v.276h-.8161v2.16Zm4.4441,0h-.4241v-1.7959h-.012l-.9641,1.7959h-.2l-.896-1.7959h-.0081v1.7959h-.344v-2.436h.488l.918,1.826.9939-1.826h.4483v2.436"/><path class="cls-7" d="M326.1467,609.8993a5.8213,5.8213,0,0,1,4.2078-4.886c5.154-1.464,7.9121-1.194,17.154-1.27-5.54,4.9579-9.9638,12.77-8.9739,20.4139-1.99-1.63-3.3339-3.96-5.062-5.822a19.2523,19.2523,0,0,0,1.668-3.8879c.6121-2.312,2.2781-2.8581,4.39-2.7941.1582.006-.124-1.78-.708-1.938-1.574-.426-2.906.08-4.7339-.626a2.228,2.228,0,0,0-1.7439.3321c-1.5.766-2.45,2.4039-4.1382,2.922Z"/><path class="cls-7" d="M297.8909,608.4032a25.0914,25.0914,0,0,1,9.9538-4.324c4.7161-.8619,9.8259-.926,13.3479,2.47,6.6541,6.408,12.0422,13.1339,17.8782,20.4559.23.288.21,1.0761.01,1.19a83.7339,83.7339,0,0,1-12.6721,5.934,2.1882,2.1882,0,0,1-2.03-.448c-6.6538-6.0461-11.21-13.282-17.5959-19.5721a21.3219,21.3219,0,0,0-8.7239-5.186c-.2641-.0819-.312-.42-.1679-.52"/><path class="cls-7" d="M321.1448,637.9032a42.8288,42.8288,0,0,0-11.9383,12.718,26.5063,26.5063,0,0,1,.48-14.968c1.67-4.6759,1.99-9.216,2.212-14.09,3.0359,3.496,6.4819,7.36,9.32,10.866Z"/><rect class="cls-3" x="268.9377" y="531.2463" width="260.228" height="32.484"/><path class="cls-5" d="M287.6838,550.5653a1.9641,1.9641,0,1,1-1.9641,1.9641,1.9631,1.9631,0,0,1,1.9641-1.9641"/><path class="cls-5" d="M287.6838,540.4851a1.9641,1.9641,0,1,1-1.9641,1.9641,1.9618,1.9618,0,0,1,1.9641-1.9641"/><path class="cls-5" d="M299.7756,550.5653a1.9641,1.9641,0,1,1-1.9641,1.9641,1.9631,1.9631,0,0,1,1.9641-1.9641"/><path class="cls-5" d="M299.7756,540.4851a1.9641,1.9641,0,1,1-1.9641,1.9641,1.9618,1.9618,0,0,1,1.9641-1.9641"/><path class="cls-5" d="M314.7326,550.5536a1.9641,1.9641,0,1,1-1.9641,1.9641,1.9619,1.9619,0,0,1,1.9641-1.9641"/><path class="cls-5" d="M314.7326,540.4735a1.9641,1.9641,0,1,1-1.9641,1.9641,1.9619,1.9619,0,0,1,1.9641-1.9641"/><path class="cls-5" d="M326.8244,550.5536a1.9641,1.9641,0,1,1-1.9621,1.9641,1.9619,1.9619,0,0,1,1.9621-1.9641"/><path class="cls-5" d="M326.8244,540.4735a1.9641,1.9641,0,1,1-1.9621,1.9641,1.9619,1.9619,0,0,1,1.9621-1.9641"/><path class="cls-5" d="M342.4338,550.5536a1.9641,1.9641,0,1,1-1.9641,1.9641,1.9618,1.9618,0,0,1,1.9641-1.9641"/><path class="cls-5" d="M342.4338,540.4735a1.9641,1.9641,0,1,1-1.9641,1.962,1.9614,1.9614,0,0,1,1.9641-1.962"/><path class="cls-5" d="M354.5256,550.5536a1.9641,1.9641,0,1,1-1.9621,1.9641,1.9635,1.9635,0,0,1,1.9621-1.9641"/><path class="cls-5" d="M354.5256,540.4735a1.9641,1.9641,0,1,1-1.9621,1.962,1.9631,1.9631,0,0,1,1.9621-1.962"/><path class="cls-5" d="M369.7405,550.5536a1.9641,1.9641,0,1,1-1.9622,1.9641,1.9622,1.9622,0,0,1,1.9622-1.9641"/><path class="cls-5" d="M369.7405,540.4735a1.9641,1.9641,0,1,1-1.9622,1.962,1.9618,1.9618,0,0,1,1.9622-1.962"/><path class="cls-5" d="M384.34,550.5536a1.9641,1.9641,0,1,1-1.9641,1.9641,1.9618,1.9618,0,0,1,1.9641-1.9641"/><path class="cls-5" d="M384.34,540.4735a1.9641,1.9641,0,1,1-1.9641,1.962,1.9614,1.9614,0,0,1,1.9641-1.962"/><path class="cls-5" d="M398.7912,550.5536a1.9641,1.9641,0,1,1-1.9621,1.9641,1.9623,1.9623,0,0,1,1.9621-1.9641"/><path class="cls-5" d="M398.7912,540.4735a1.9641,1.9641,0,1,1-1.9621,1.9641,1.9623,1.9623,0,0,1,1.9621-1.9641"/><path class="cls-5" d="M411.6975,550.5555a1.9631,1.9631,0,1,1-1.9622,1.9621,1.962,1.962,0,0,1,1.9622-1.9621"/><path class="cls-5" d="M411.6975,540.4735a1.9641,1.9641,0,1,1-1.9622,1.9641,1.9623,1.9623,0,0,1,1.9622-1.9641"/><path class="cls-5" d="M424.9143,550.5536a1.9641,1.9641,0,1,1-1.9641,1.9641,1.9631,1.9631,0,0,1,1.9641-1.9641"/><path class="cls-5" d="M424.9143,540.4735a1.9641,1.9641,0,1,1-1.9641,1.9641,1.9618,1.9618,0,0,1,1.9641-1.9641"/><path class="cls-5" d="M437.9338,550.5536a1.9641,1.9641,0,1,1-1.9641,1.9641,1.9618,1.9618,0,0,1,1.9641-1.9641"/><path class="cls-5" d="M437.9338,540.4735a1.9641,1.9641,0,1,1-1.9641,1.9641,1.9618,1.9618,0,0,1,1.9641-1.9641"/><path class="cls-5" d="M452.8264,550.5536a1.9641,1.9641,0,1,1-1.9622,1.9641,1.9631,1.9631,0,0,1,1.9622-1.9641"/><path class="cls-5" d="M452.8264,540.4735a1.9641,1.9641,0,1,1-1.9622,1.9641,1.9618,1.9618,0,0,1,1.9622-1.9641"/><path class="cls-5" d="M465.9924,550.5536a1.9641,1.9641,0,1,1-1.9621,1.9641,1.9635,1.9635,0,0,1,1.9621-1.9641"/><path class="cls-5" d="M465.9924,540.4735a1.9641,1.9641,0,1,1-1.9621,1.9641,1.9635,1.9635,0,0,1,1.9621-1.9641"/><path class="cls-5" d="M478.9866,550.5536a1.9641,1.9641,0,1,1-1.9642,1.9641,1.9632,1.9632,0,0,1,1.9642-1.9641"/><path class="cls-5" d="M478.9866,540.4735a1.9641,1.9641,0,1,1-1.9642,1.9641,1.9619,1.9619,0,0,1,1.9642-1.9641"/><path class="cls-5" d="M493.0412,550.5555a1.9631,1.9631,0,1,1-1.9621,1.9621,1.9619,1.9619,0,0,1,1.9621-1.9621"/><path class="cls-5" d="M493.0412,540.4735a1.9641,1.9641,0,1,1-1.9621,1.9641,1.9623,1.9623,0,0,1,1.9621-1.9641"/><path class="cls-5" d="M505.9416,550.5555a1.9631,1.9631,0,1,1-1.9641,1.9621,1.9615,1.9615,0,0,1,1.9641-1.9621"/><path class="cls-5" d="M505.9416,540.4735a1.9641,1.9641,0,1,1-1.9641,1.9641,1.9618,1.9618,0,0,1,1.9641-1.9641"/><polyline class="cls-9" points="382.748 527.813 265.344 527.813 265.344 567.141 529.538 567.141 529.538 527.813 414.106 527.813"/><path class="cls-5" d="M274.02,181.2021a9.3812,9.3812,0,1,1-9.38-9.38,9.3808,9.3808,0,0,1,9.38,9.38"/><path class="cls-8" d="M270.0549,181.2021a5.416,5.416,0,1,1-5.416-5.4157,5.4161,5.4161,0,0,1,5.416,5.4157"/><path class="cls-5" d="M540.9026,173.2764a9.3813,9.3813,0,1,1-13.2681,0,9.3833,9.3833,0,0,1,13.2681,0"/><path class="cls-8" d="M539.6858,179.9092a5.4161,5.4161,0,1,1-5.416-5.4158,5.4174,5.4174,0,0,1,5.416,5.4158"/><rect class="cls-3" x="609.1296" y="23.3623" width="51.5581" height="112.7161"/><rect class="cls-3" x="619.1037" y="26.7182" width="32.4861" height="104.8621"/><path class="cls-5" d="M638.4241,113.126c0-.438.8779-.792,1.9619-.792s1.9638.354,1.9638.792-.88.7922-1.9638.7922-1.9619-.354-1.9619-.7922"/><path class="cls-5" d="M628.342,113.126c0-.438.878-.792,1.9639-.792,1.084,0,1.9641.354,1.9641.792s-.88.7922-1.9641.7922c-1.0859,0-1.9639-.354-1.9639-.7922"/><path class="cls-5" d="M638.4241,108.2529c0-.438.8779-.792,1.9619-.792s1.9638.354,1.9638.792-.88.7923-1.9638.7923-1.9619-.3541-1.9619-.7923"/><path class="cls-5" d="M628.342,108.2529c0-.438.878-.792,1.9639-.792,1.084,0,1.9641.354,1.9641.792s-.88.7923-1.9641.7923c-1.0859,0-1.9639-.3541-1.9639-.7923"/><path class="cls-5" d="M638.4241,101.9639c0-.438.8779-.792,1.9619-.792s1.9638.354,1.9638.792-.88.7922-1.9638.7922-1.9619-.354-1.9619-.7922"/><path class="cls-5" d="M628.342,101.9639c0-.438.878-.792,1.9639-.792,1.084,0,1.9641.354,1.9641.792s-.88.7922-1.9641.7922c-1.0859,0-1.9639-.354-1.9639-.7922"/><path class="cls-5" d="M638.4241,97.0908c0-.438.8779-.792,1.9619-.792s1.9638.354,1.9638.792-.88.7922-1.9638.7922-1.9619-.354-1.9619-.7922"/><path class="cls-5" d="M628.342,97.0908c0-.438.878-.792,1.9639-.792,1.084,0,1.9641.354,1.9641.792s-.88.7922-1.9641.7922c-1.0859,0-1.9639-.354-1.9639-.7922"/><path class="cls-5" d="M638.4241,90.96c0-.4379.8779-.7919,1.9619-.7919s1.9638.354,1.9638.7919-.88.7923-1.9638.7923-1.9619-.354-1.9619-.7923"/><path class="cls-5" d="M628.342,90.96c0-.4379.878-.7919,1.9639-.7919,1.084,0,1.9641.354,1.9641.7919s-.88.7923-1.9641.7923c-1.0859,0-1.9639-.354-1.9639-.7923"/><path class="cls-5" d="M638.4241,85.0771c0-.438.8779-.792,1.9619-.792s1.9638.354,1.9638.792-.88.7923-1.9638.7923-1.9619-.354-1.9619-.7923"/><path class="cls-5" d="M628.342,85.0771c0-.438.878-.792,1.9639-.792,1.084,0,1.9641.354,1.9641.792s-.88.7923-1.9641.7923c-1.0859,0-1.9639-.354-1.9639-.7923"/><path class="cls-5" d="M638.4241,79.2529c0-.4358.8779-.792,1.9619-.792s1.9638.3562,1.9638.792c0,.4382-.88.7923-1.9638.7923s-1.9619-.3541-1.9619-.7923"/><path class="cls-5" d="M628.342,79.2529c0-.4358.878-.792,1.9639-.792,1.084,0,1.9641.3562,1.9641.792,0,.4382-.88.7923-1.9641.7923-1.0859,0-1.9639-.3541-1.9639-.7923"/><path class="cls-5" d="M638.4241,74.0537c0-.438.8779-.792,1.9619-.792,1.0859,0,1.966.354,1.966.792,0,.436-.88.7922-1.966.7922-1.084,0-1.9619-.3562-1.9619-.7922"/><path class="cls-5" d="M628.344,74.0537c0-.438.8779-.792,1.9619-.792s1.9639.354,1.9639.792c0,.436-.88.7922-1.9639.7922s-1.9619-.3562-1.9619-.7922"/><path class="cls-5" d="M638.4241,68.7275c0-.438.8779-.792,1.9619-.792s1.966.354,1.966.792-.882.7923-1.966.7923-1.9619-.354-1.9619-.7923"/><path class="cls-5" d="M628.342,68.7275c0-.438.88-.792,1.9639-.792s1.9641.354,1.9641.792-.88.7923-1.9641.7923-1.9639-.354-1.9639-.7923"/><path class="cls-5" d="M638.4241,63.4814c0-.438.8779-.792,1.9619-.792s1.9638.354,1.9638.792-.88.7923-1.9638.7923-1.9619-.354-1.9619-.7923"/><path class="cls-5" d="M628.342,63.4814c0-.438.878-.792,1.9639-.792,1.084,0,1.9641.354,1.9641.792s-.88.7923-1.9641.7923c-1.0859,0-1.9639-.354-1.9639-.7923"/><path class="cls-5" d="M638.4241,57.48c0-.4358.8779-.792,1.9619-.792s1.966.3562,1.966.792c0,.4382-.882.7922-1.966.7922s-1.9619-.354-1.9619-.7922"/><path class="cls-5" d="M628.342,57.48c0-.4358.88-.792,1.9639-.792s1.9641.3562,1.9641.792c0,.4382-.88.7922-1.9641.7922s-1.9639-.354-1.9639-.7922"/><path class="cls-5" d="M638.4241,52.1748c0-.438.8779-.792,1.9619-.792s1.9638.354,1.9638.792-.88.7922-1.9638.7922-1.9619-.354-1.9619-.7922"/><path class="cls-5" d="M628.342,52.1748c0-.438.878-.792,1.9639-.792,1.084,0,1.9641.354,1.9641.792s-.88.7922-1.9641.7922c-1.0859,0-1.9639-.354-1.9639-.7922"/><path class="cls-5" d="M638.4241,46.9385c0-.438.8779-.792,1.9619-.792s1.966.354,1.966.792-.882.7922-1.966.7922-1.9619-.354-1.9619-.7922"/><path class="cls-5" d="M628.342,46.9385c0-.4358.88-.792,1.9639-.792s1.9641.3562,1.9641.792c0,.4382-.88.7922-1.9641.7922s-1.9639-.354-1.9639-.7922"/><polyline class="cls-9" points="615.684 85.718 615.684 133.026 655.01 133.026 655.01 26.57 615.684 26.57 615.684 73.084"/><text class="cls-10" transform="translate(82.1787 246.3945)">RS-232</text><text class="cls-10" transform="translate(99.7271 186.0635)">I</text><text class="cls-10" transform="translate(104.0586 180.6528) scale(0.583)">2</text><text class="cls-10" transform="translate(109.313 186.0635)">C</text><text class="cls-10" transform="translate(37.8882 78.1602)">CAN</text><text class="cls-11" transform="translate(85.9707 101.4385)">L (GRN)</text><text class="cls-11" transform="translate(86.8066 126.2568)">H (YEL)</text><path class="cls-12" d="M107.1639,480.9216A4.493,4.493,0,0,1,105.32,482.67a5.8318,5.8318,0,0,1-2.7491.6269h-1.0634a5.82,5.82,0,0,1-2.753-.6269,4.4813,4.4813,0,0,1-1.8408-1.76,5.1609,5.1609,0,0,1-.65-2.6113V475.14h11.5518v3.23A5.0017,5.0017,0,0,1,107.1639,480.9216Zm-4.5771,1.4082a5.1563,5.1563,0,0,0,2.3125-.4922,3.6356,3.6356,0,0,0,1.539-1.3886,3.9316,3.9316,0,0,0,.544-2.0782v-2.2539H97.0887v2.1817a4.02,4.02,0,0,0,.5557,2.1347,3.6762,3.6762,0,0,0,1.5547,1.4043,5.1594,5.1594,0,0,0,2.3086.4922Z"/><path class="cls-12" d="M96.2635,486.0017h11.5518v.9766H96.2635Z"/><path class="cls-12" d="M98.6161,498.0974a4.4132,4.4132,0,0,1-1.8565-6.2949,4.3013,4.3013,0,0,1,1.86-1.5879,6.5593,6.5593,0,0,1,2.8007-.5625h1.2374a6.5912,6.5912,0,0,1,2.8007.5586,4.2981,4.2981,0,0,1,1.86,1.58,4.2492,4.2492,0,0,1,.6543,2.3515,4.1574,4.1574,0,0,1-2.5108,3.9512,6.6455,6.6455,0,0,1-2.8046.5547h-1.2374A6.672,6.672,0,0,1,98.6161,498.0974Zm6.4218-.8379a3.3727,3.3727,0,0,0,1.5391-1.2168,3.3134,3.3134,0,0,0,.54-1.9,3.2555,3.2555,0,0,0-.54-1.873,3.412,3.412,0,0,0-1.543-1.2168,6.024,6.024,0,0,0-2.36-.4258h-1.253a6.0062,6.0062,0,0,0-2.3681.43,3.4506,3.4506,0,0,0-1.5479,1.2246,3.2568,3.2568,0,0,0-.5429,1.8769,3.309,3.309,0,0,0,.539,1.9043,3.3454,3.3454,0,0,0,1.543,1.2051,6.2284,6.2284,0,0,0,2.3769.4141h1.253A6.05,6.05,0,0,0,105.0379,497.26Z"/><polyline class="cls-13" points="90.914 298.681 102.122 298.681 102.122 464.253"/><polyline class="cls-13" points="102.123 509.536 102.123 666.012 90.915 666.012"/><text class="cls-10" transform="translate(289.1445 683.8428)">RE<tspan class="cls-14" x="19.5645" y="0">L</tspan><tspan class="cls-15" x="28.2788" y="0">A</tspan><tspan class="cls-16" x="37.4912" y="0">Y</tspan></text><polyline class="cls-13" points="248.102 689.343 248.102 680.469 278.82 680.469"/><polyline class="cls-13" points="342.949 680.468 370.815 680.468 370.815 690.442"/><text class="cls-10" transform="translate(447.499 683.8428)">ANA<tspan class="cls-17" x="31.8535" y="0">L</tspan><tspan x="39.918" y="0">OG IN</tspan></text><text class="cls-18" transform="translate(624.0239 696.4707)">RESET</text><text class="cls-18" transform="translate(680.2031 696.4707)">USER</text><polyline class="cls-13" points="424.537 689.276 424.537 681.016 438.567 681.016"/><polyline class="cls-13" points="537.397 679.919 551.329 679.919 551.329 690.443"/><rect class="cls-3" x="104.3205" y="708.6146" width="39.958" height="45.05"/><path class="cls-5" d="M124.2986,728.4144a2.7241,2.7241,0,1,1-2.7221,2.7241,2.7246,2.7246,0,0,1,2.7221-2.7241"/><path class="cls-5" d="M124.2986,740.6059a2.7241,2.7241,0,1,1-2.7221,2.7221,2.7228,2.7228,0,0,1,2.7221-2.7221"/><text class="cls-10" transform="translate(110.0444 696.5586)">RSL</text><text class="cls-10" transform="translate(703.2646 496.6465) rotate(-90)">PWM</text><polyline class="cls-13" points="707.676 665.921 696.468 665.921 696.468 504.904"/><polyline class="cls-13" points="696.467 449.761 696.467 293.327 707.675 293.327"/><path class="cls-5" d="M345.8791,86.6221a9.3811,9.3811,0,1,1-9.38-9.38,9.3807,9.3807,0,0,1,9.38,9.38"/><path class="cls-8" d="M341.9143,86.6221a5.416,5.416,0,1,1-5.416-5.4158,5.4174,5.4174,0,0,1,5.416,5.4158"/><path class="cls-5" d="M345.8791,41.0928a9.3811,9.3811,0,1,1-9.38-9.378,9.3794,9.3794,0,0,1,9.38,9.378"/><path class="cls-8" d="M341.9143,41.0928a5.416,5.416,0,1,1-5.416-5.4139,5.4162,5.4162,0,0,1,5.416,5.4139"/><rect class="cls-19" x="237.8977" y="37.3623" width="66.468" height="53.384"/><polygon class="cls-20" points="255.438 42.821 286.642 42.821 294.212 50.577 294.212 85.287 248.054 85.287 248.054 50.761 255.438 42.821"/><path class="cls-5" d="M265.0862,68.72a1.9641,1.9641,0,1,1-1.9641,1.9622,1.9616,1.9616,0,0,1,1.9641-1.9622"/><path class="cls-5" d="M265.0862,58.64a1.9642,1.9642,0,1,1-1.9641,1.9622,1.9616,1.9616,0,0,1,1.9641-1.9622"/><path class="cls-5" d="M277.178,68.72a1.9641,1.9641,0,1,1-1.9622,1.9622A1.962,1.962,0,0,1,277.178,68.72"/><path class="cls-5" d="M277.178,58.64a1.9642,1.9642,0,1,1-1.9622,1.9622A1.962,1.962,0,0,1,277.178,58.64"/><rect class="cls-19" x="472.9658" y="26.4883" width="87.1479" height="92.3181"/><rect class="cls-20" x="483.7678" y="63.3523" width="65.5459" height="38.1741"/><rect class="cls-20" x="498.3518" y="101.5264" width="36.0039" height="8.8621"/><rect class="cls-20" x="504.8137" y="110.3884" width="23.2639" height="7.386"/><rect class="cls-21" x="474.9038" y="101.5264" width="23.448" height="13.292"/><rect class="cls-22" x="534.3557" y="101.5264" width="23.45" height="13.292"/><rect class="cls-19" x="370.7075" y="72.6482" width="75.3921" height="33.3101"/><rect class="cls-20" x="372.7055" y="73.9905" width="71.4561" height="30.084"/><rect class="cls-19" x="370.7397" y="26.1682" width="75.3921" height="33.3101"/><rect class="cls-20" x="372.7375" y="27.5102" width="71.4541" height="30.084"/><text class="cls-10" transform="translate(84.1177 38.2119)">INPUT</text><text class="cls-23" transform="translate(321.0771 246.9199)">NI <tspan class="cls-24" x="39.668" y="0">r</tspan><tspan x="50.1938" y="0">oboRIO</tspan></text><rect class="cls-6" x="375.7217" y="77.2402" width="65.3621" height="11.792"/><rect class="cls-6" x="375.7217" y="30.7624" width="65.3621" height="11.792"/><text class="cls-10" transform="translate(707.6504 92.6074)">POWER</text><rect class="cls-25" x="769.4633" y="79.2955" width="16.0342" height="15.1855"/><rect class="cls-26" x="784.627" y="79.4149" width="10.6027" height="15.1855"/><text class="cls-10" transform="translate(703.2959 118.5664)">STATUS</text><rect class="cls-25" x="769.4633" y="105.2554" width="16.0342" height="15.1855"/><rect class="cls-26" x="784.627" y="105.3747" width="10.6027" height="15.1855"/><text class="cls-10" transform="translate(716.3301 158.2197)">RADIO</text><rect class="cls-25" x="769.4633" y="145.1686" width="16.0342" height="15.1855"/><rect class="cls-26" x="784.627" y="145.2879" width="10.6027" height="15.1855"/><text class="cls-10" transform="translate(713.1177 185.0879)">COMM</text><rect class="cls-25" x="769.4633" y="171.7773" width="16.0342" height="15.1855"/><rect class="cls-26" x="784.627" y="171.8967" width="10.6027" height="15.1855"/><text class="cls-10" transform="translate(717.8379 213.002)">MODE</text><rect class="cls-25" x="769.4633" y="198.3861" width="16.0342" height="15.1855"/><rect class="cls-26" x="784.627" y="198.5054" width="10.6027" height="15.1855"/><text class="cls-10" transform="translate(734.2754 253.5479)">RSL</text><rect class="cls-25" x="769.4633" y="238.9319" width="16.0342" height="15.1855"/><rect class="cls-26" x="784.627" y="239.0512" width="10.6027" height="15.1855"/><rect class="cls-27" x="613.5866" y="705.5343" width="108.8485" height="50.9946" rx="9.8548"/><rect class="cls-28" x="627.8532" y="717.38" width="27.1208" height="27.3032" rx="13.5604"/><rect class="cls-28" x="681.0478" y="717.38" width="27.1208" height="27.3032" rx="13.5604"/><rect class="cls-3" x="721.2964" y="271.7753" width="46.329" height="413.1708"/><path class="cls-5" d="M746.94,294.3451a2.7241,2.7241,0,1,1-2.7241-2.7238,2.723,2.723,0,0,1,2.7241,2.7238"/><path class="cls-5" d="M734.7484,294.3451a2.7241,2.7241,0,1,1-2.7221-2.7238,2.7212,2.7212,0,0,1,2.7221,2.7238"/><path class="cls-5" d="M759.6215,294.3451a2.7231,2.7231,0,1,1-2.7222-2.7238,2.7212,2.7212,0,0,1,2.7222,2.7238"/><path class="cls-5" d="M746.94,335.5769a2.7241,2.7241,0,1,1-2.7241-2.7237,2.723,2.723,0,0,1,2.7241,2.7237"/><path class="cls-5" d="M734.7484,335.5769a2.7241,2.7241,0,1,1-2.7221-2.7237,2.7212,2.7212,0,0,1,2.7221,2.7237"/><path class="cls-5" d="M759.6215,335.5769a2.7231,2.7231,0,1,1-2.7222-2.7237,2.7212,2.7212,0,0,1,2.7222,2.7237"/><path class="cls-5" d="M746.94,376.8086a2.7241,2.7241,0,1,1-2.7241-2.7234,2.723,2.723,0,0,1,2.7241,2.7234"/><path class="cls-5" d="M734.7484,376.8086a2.7241,2.7241,0,1,1-2.7221-2.7234,2.7212,2.7212,0,0,1,2.7221,2.7234"/><path class="cls-5" d="M759.6215,376.8086a2.7231,2.7231,0,1,1-2.7222-2.7234,2.7212,2.7212,0,0,1,2.7222,2.7234"/><path class="cls-5" d="M746.94,418.04a2.7241,2.7241,0,1,1-2.7241-2.7232A2.723,2.723,0,0,1,746.94,418.04"/><path class="cls-5" d="M734.7484,418.04a2.7241,2.7241,0,1,1-2.7221-2.7232,2.7212,2.7212,0,0,1,2.7221,2.7232"/><path class="cls-5" d="M759.6215,418.04a2.7231,2.7231,0,1,1-2.7222-2.7232,2.7212,2.7212,0,0,1,2.7222,2.7232"/><path class="cls-5" d="M746.94,459.2722a2.7241,2.7241,0,1,1-2.7241-2.7231,2.723,2.723,0,0,1,2.7241,2.7231"/><path class="cls-5" d="M734.7484,459.2722a2.7241,2.7241,0,1,1-2.7221-2.7231,2.7212,2.7212,0,0,1,2.7221,2.7231"/><path class="cls-5" d="M759.6215,459.2722a2.7231,2.7231,0,1,1-2.7222-2.7231,2.7212,2.7212,0,0,1,2.7222,2.7231"/><path class="cls-5" d="M746.94,500.5039a2.7241,2.7241,0,1,1-2.7241-2.7228,2.723,2.723,0,0,1,2.7241,2.7228"/><path class="cls-5" d="M734.7484,500.5039a2.7241,2.7241,0,1,1-2.7221-2.7228,2.7212,2.7212,0,0,1,2.7221,2.7228"/><path class="cls-5" d="M759.6215,500.5039a2.7231,2.7231,0,1,1-2.7222-2.7228,2.7212,2.7212,0,0,1,2.7222,2.7228"/><path class="cls-5" d="M746.94,541.7357a2.7241,2.7241,0,1,1-2.7241-2.7226,2.7231,2.7231,0,0,1,2.7241,2.7226"/><path class="cls-5" d="M734.7484,541.7357a2.7241,2.7241,0,1,1-2.7221-2.7226,2.7212,2.7212,0,0,1,2.7221,2.7226"/><path class="cls-5" d="M759.6215,541.7357a2.7231,2.7231,0,1,1-2.7222-2.7226,2.7213,2.7213,0,0,1,2.7222,2.7226"/><path class="cls-5" d="M746.94,582.9674a2.7241,2.7241,0,1,1-2.7241-2.7223,2.723,2.723,0,0,1,2.7241,2.7223"/><path class="cls-5" d="M734.7484,582.9674a2.7241,2.7241,0,1,1-2.7221-2.7223,2.7212,2.7212,0,0,1,2.7221,2.7223"/><path class="cls-5" d="M759.6215,582.9674a2.7231,2.7231,0,1,1-2.7222-2.7223,2.7212,2.7212,0,0,1,2.7222,2.7223"/><path class="cls-5" d="M746.94,624.1992a2.7241,2.7241,0,1,1-2.7241-2.7222,2.723,2.723,0,0,1,2.7241,2.7222"/><path class="cls-5" d="M734.7484,624.1992a2.7241,2.7241,0,1,1-2.7221-2.7222,2.7212,2.7212,0,0,1,2.7221,2.7222"/><path class="cls-5" d="M759.6215,624.1992a2.7231,2.7231,0,1,1-2.7222-2.7222,2.7212,2.7212,0,0,1,2.7222,2.7222"/><path class="cls-5" d="M746.94,665.4309a2.7241,2.7241,0,1,1-2.7241-2.7219,2.723,2.723,0,0,1,2.7241,2.7219"/><path class="cls-5" d="M734.7484,665.4309a2.7241,2.7241,0,1,1-2.7221-2.7219,2.7212,2.7212,0,0,1,2.7221,2.7219"/><path class="cls-5" d="M759.6215,665.4309a2.7231,2.7231,0,1,1-2.7222-2.7219,2.7212,2.7212,0,0,1,2.7222,2.7219"/><text class="cls-29" transform="translate(84.7598 51.7852)">7-16V </text><line class="cls-30" x1="115.8786" y1="50.4084" x2="119.2597" y2="50.4084"/><line class="cls-30" x1="121.1187" y1="50.4084" x2="124.4957" y2="50.4084"/><line class="cls-30" x1="126.3628" y1="50.4084" x2="129.7439" y2="50.4084"/><line class="cls-30" x1="115.8787" y1="47.0152" x2="129.7439" y2="47.0152"/><text class="cls-29" transform="translate(81.5195 63.8105)">45 W MAX</text><line class="cls-31" x1="141.6271" y1="180.3455" x2="141.6271" y2="204.7964"/><line class="cls-31" x1="155.3259" y1="154.9488" x2="155.3259" y2="177.9405"/><line class="cls-31" x1="169.0166" y1="178.502" x2="169.0166" y2="201.5127"/><line class="cls-31" x1="182.7073" y1="154.7094" x2="182.7073" y2="177.6999"/><line class="cls-31" x1="137.0774" y1="206.9395" x2="146.1816" y2="206.9395"/><line class="cls-31" x1="134.8613" y1="204.7923" x2="148.3937" y2="204.7923"/><rect class="cls-32" x="139.9183" y="176.5667" width="3.423" height="3.4251"/><rect class="cls-12" x="153.609" y="176.5667" width="3.4266" height="3.4251"/><rect class="cls-12" x="167.3044" y="176.5633" width="3.4251" height="3.425"/><rect class="cls-12" x="181.0026" y="176.5667" width="3.421" height="3.4251"/><polygon class="cls-31" points="135.226 161.159 135.226 195.392 189.1 195.384 189.1 161.159 135.226 161.159"/><text class="cls-33" transform="translate(159.1631 210.4229) scale(1 1.0622)">SCL</text><text class="cls-34" transform="translate(143.7227 150.7793) scale(1 1.0115)">3.3V S<tspan class="cls-35" x="32.772" y="0">D</tspan><tspan x="40.2158" y="0">A</tspan></text><line class="cls-31" x1="139.0907" y1="209.0907" x2="144.1643" y2="209.0907"/><line class="cls-31" x1="154.6318" y1="241.7649" x2="154.6318" y2="266.0981"/><line class="cls-31" x1="168.3266" y1="242.1382" x2="168.3266" y2="273.7247"/><line class="cls-31" x1="182.0173" y1="242.1383" x2="182.0173" y2="262.5749"/><line class="cls-31" x1="152.095" y1="270.3963" x2="157.1687" y2="270.3963"/><line class="cls-31" x1="150.0818" y1="268.2451" x2="159.1859" y2="268.2451"/><line class="cls-31" x1="147.8656" y1="266.098" x2="161.398" y2="266.098"/><rect class="cls-32" x="180.3091" y="238.3403" width="3.4251" height="3.4246"/><rect class="cls-32" x="152.9222" y="238.3403" width="3.4226" height="3.4246"/><rect class="cls-32" x="166.6185" y="238.3403" width="3.421" height="3.4246"/><rect class="cls-31" x="147.7886" y="222.5301" width="41.0802" height="34.2324"/><text class="cls-34" transform="translate(171.5317 273.1387) scale(1 1.0115)">TXD</text><text class="cls-34" transform="translate(156.7773 284.1152) scale(1 1.0115)">RXD</text><line class="cls-31" x1="35.8478" y1="700.3024" x2="35.8478" y2="711.2007"/><line class="cls-31" x1="49.5507" y1="700.2293" x2="49.8672" y2="718.6406"/><line class="cls-31" x1="63.2414" y1="700.3024" x2="63.2414" y2="708.1483"/><line class="cls-31" x1="33.311" y1="715.503" x2="38.3846" y2="715.503"/><line class="cls-31" x1="31.2978" y1="713.3477" x2="40.4019" y2="713.3477"/><line class="cls-31" x1="29.0816" y1="711.2045" x2="42.614" y2="711.2045"/><text class="cls-36" transform="translate(43.4302 728.7949) scale(1 1.0056)">5V</text><text class="cls-36" transform="translate(59.8145 717.4785) scale(1 1.0056)">S</text><rect class="cls-37" x="61.6926" y="696.7668" width="3.1791" height="3.4581"/><rect class="cls-37" x="48.1194" y="697.0229" width="3.1791" height="3.4581"/><rect class="cls-37" x="34.3621" y="696.9779" width="3.1791" height="3.4581"/><line class="cls-31" x1="80.45" y1="758.3882" x2="85.5236" y2="758.3882"/><line class="cls-31" x1="78.4368" y1="756.2288" x2="87.5409" y2="756.2288"/><line class="cls-31" x1="76.2246" y1="754.0858" x2="89.757" y2="754.0858"/><line class="cls-31" x1="82.9908" y1="745.7041" x2="95.5288" y2="745.7041"/><line class="cls-31" x1="95.4639" y1="731.9566" x2="87.4598" y2="731.9566"/><line class="cls-31" x1="82.9868" y1="745.3585" x2="82.9868" y2="754.0858"/><line class="cls-31" x1="82.9909" y1="752.7099" x2="82.9909" y2="746.0533"/><text class="cls-36" transform="translate(79.3145 735.7178) scale(1 1.0056)">S</text><rect class="cls-37" x="95.5333" y="730.1524" width="3.1791" height="3.4581"/><rect class="cls-37" x="95.3517" y="744.014" width="3.1791" height="3.4581"/><line class="cls-31" x1="203.2807" y1="758.3841" x2="208.3543" y2="758.3841"/><line class="cls-38" x1="201.2675" y1="756.2288" x2="210.3715" y2="756.2288"/><line class="cls-31" x1="199.0553" y1="754.0817" x2="212.5876" y2="754.0817"/><line class="cls-31" x1="218.4001" y1="731.9566" x2="210.2904" y2="731.9566"/><line class="cls-31" x1="218.4001" y1="718.2334" x2="210.2904" y2="718.2334"/><polyline class="cls-31" points="205.822 754.082 205.822 745.505 218.4 745.505"/><text class="cls-39" transform="translate(185.6616 720.7168) scale(1 1.0605)">FWD</text><text class="cls-40" transform="translate(189.7363 734.6494) scale(1 1.1297)">REV</text><rect class="cls-37" x="218.5141" y="716.4106" width="3.1791" height="3.4581"/><rect class="cls-37" x="218.1921" y="730.1241" width="3.1791" height="3.4581"/><rect class="cls-37" x="218.1633" y="743.8709" width="3.1791" height="3.4581"/><line class="cls-41" x1="591.0323" y1="758.5383" x2="596.106" y2="758.5383"/><line class="cls-41" x1="589.0232" y1="756.3871" x2="598.1272" y2="756.3871"/><line class="cls-41" x1="586.8069" y1="754.24" x2="600.3393" y2="754.24"/><line class="cls-41" x1="589.1653" y1="731.7577" x2="581.1407" y2="731.7577"/><line class="cls-41" x1="589.1612" y1="718.1928" x2="581.1366" y2="718.1928"/><polyline class="cls-41" points="593.573 754.24 593.573 745.716 581.141 745.716"/><text class="cls-39" transform="translate(590.041 721.0615) scale(1 1.0605)">S</text><text class="cls-40" transform="translate(590.6973 735.2354) scale(1 1.1297)">5V</text><rect class="cls-37" x="577.7251" y="716.3658" width="3.1791" height="3.4581"/><rect class="cls-37" x="577.9332" y="729.8937" width="3.1791" height="3.4581"/><rect class="cls-37" x="577.8864" y="743.8379" width="3.1791" height="3.4581"/><line class="cls-31" x1="754.7444" y1="710.9135" x2="759.8181" y2="710.9135"/><line class="cls-31" x1="752.7353" y1="708.7664" x2="761.8353" y2="708.7664"/><line class="cls-31" x1="750.5231" y1="706.6193" x2="764.0555" y2="706.6193"/><line class="cls-31" x1="729.8871" y1="695.6441" x2="729.8871" y2="703.5549"/><line class="cls-31" x1="743.5818" y1="695.7049" x2="743.5818" y2="713.8443"/><line class="cls-31" x1="757.2725" y1="695.6441" x2="757.2725" y2="706.9888"/><text class="cls-36" transform="translate(726.5771 712.8965) scale(1 1.0056)">S</text><text class="cls-36" transform="translate(737.396 723.9043) scale(1 1.0056)">6V</text><rect class="cls-37" x="728.1873" y="692.3738" width="3.1791" height="3.4581"/><rect class="cls-37" x="741.9853" y="692.3738" width="3.1791" height="3.4581"/><rect class="cls-37" x="755.6266" y="692.3738" width="3.1791" height="3.4581"/><path class="cls-42" d="M611.7693,648.0062a6.8485,6.8485,0,0,0,6.8555-6.8393"/><path class="cls-42" d="M611.7693,634.3155a6.8529,6.8529,0,0,0-6.8394,6.8515"/><text class="cls-43" transform="translate(572.3257 661.2119) scale(1 1.0349)">A<tspan class="cls-44" x="6.9185" y="0">CCELEROMETER</tspan></text><text class="cls-45" transform="translate(607.4507 608.0449) scale(1 1.0349)">Y</text><text class="cls-45" transform="translate(594.9023 635.6396) scale(1 1.0349)">Z</text><text class="cls-45" transform="translate(640.2476 645.123) scale(1 1.0349)">X</text><line class="cls-46" x1="635.7859" y1="641.5078" x2="611.7733" y2="641.5078"/><line class="cls-46" x1="611.7693" y1="641.5078" x2="611.7693" y2="614.4025"/><path class="cls-31" d="M611.7693,648.0062a6.8454,6.8454,0,1,0-6.8394-6.8393A6.8485,6.8485,0,0,0,611.7693,648.0062Z"/><polyline class="cls-12" points="639.41 641.508 634.686 639.685 635.806 641.508 634.686 643.326"/><polyline class="cls-47" points="639.41 641.508 634.686 639.685 635.806 641.508 634.686 643.326"/><polyline class="cls-12" points="611.769 610.9 609.971 615.632 611.769 614.163 613.58 615.632 611.769 610.9"/><polyline class="cls-47" points="611.769 610.9 609.971 615.632 611.769 614.163 613.58 615.632 611.769 610.9"/><line class="cls-48" x1="634.6859" y1="643.3262" x2="639.4104" y2="641.5078"/><line class="cls-47" x1="634.6859" y1="643.3262" x2="639.4104" y2="641.5078"/><path class="cls-12" d="M611.7733,642.7133a1.5465,1.5465,0,1,0-1.5424-1.5464,1.552,1.552,0,0,0,1.5424,1.5464"/><path class="cls-31" d="M611.7733,642.7133a1.5465,1.5465,0,1,0-1.5424-1.5464A1.552,1.552,0,0,0,611.7733,642.7133Z"/><line class="cls-42" x1="616.4795" y1="269.5564" x2="657.5596" y2="269.5564"/><line class="cls-31" x1="607.7489" y1="245.5845" x2="631.4367" y2="245.5845"/><line class="cls-31" x1="607.7489" y1="231.8898" x2="631.4367" y2="231.8898"/><line class="cls-31" x1="607.7491" y1="218.1991" x2="631.4369" y2="218.1991"/><line class="cls-31" x1="616.4836" y1="166.8538" x2="616.4836" y2="269.5564"/><line class="cls-31" x1="607.7489" y1="204.5084" x2="631.4367" y2="204.5084"/><line class="cls-31" x1="607.7489" y1="190.8218" x2="631.4367" y2="190.8218"/><line class="cls-31" x1="657.5639" y1="269.5681" x2="657.5639" y2="166.8656"/><line class="cls-42" x1="657.5638" y1="166.8497" x2="616.4836" y2="166.8497"/><line class="cls-49" x1="642.1562" y1="245.5927" x2="665.848" y2="245.5927"/><line class="cls-49" x1="607.7489" y1="245.5845" x2="631.4367" y2="245.5845"/><line class="cls-49" x1="607.7448" y1="231.8939" x2="631.4326" y2="231.8939"/><line class="cls-49" x1="642.1521" y1="231.8939" x2="665.8439" y2="231.8939"/><line class="cls-49" x1="607.7448" y1="218.2031" x2="631.4326" y2="218.2031"/><line class="cls-49" x1="642.1521" y1="218.2031" x2="665.8439" y2="218.2031"/><line class="cls-49" x1="596.8507" y1="181.9813" x2="596.8507" y2="190.8866"/><line class="cls-49" x1="607.7448" y1="204.5084" x2="631.4326" y2="204.5084"/><line class="cls-49" x1="642.1521" y1="204.5084" x2="665.8439" y2="204.5084"/><line class="cls-49" x1="594.3098" y1="195.189" x2="599.3874" y2="195.189"/><line class="cls-49" x1="592.3048" y1="193.0378" x2="601.4047" y2="193.0378"/><line class="cls-49" x1="590.0885" y1="190.8907" x2="603.6168" y2="190.8907"/><line class="cls-49" x1="607.7448" y1="190.8136" x2="631.4326" y2="190.8136"/><line class="cls-49" x1="642.1521" y1="190.8136" x2="665.8439" y2="190.8136"/><rect class="cls-49" x="616.4836" y="166.854" width="41.0802" height="102.7025"/><text class="cls-34" transform="translate(667.957 193.7441) scale(1 1.0115)">CS0</text><text class="cls-34" transform="translate(667.9507 207.4209) scale(1 1.0115)">CS1</text><text class="cls-34" transform="translate(667.9429 221.3633) scale(1 1.0115)">5V</text><text class="cls-34" transform="translate(667.9351 235.1182) scale(1 1.0115)">CS2</text><text class="cls-34" transform="translate(668.127 248.8223) scale(1 1.0115)">CS3</text><text class="cls-34" transform="translate(575.9614 208.3457) scale(1 1.0115)">SCLK</text><text class="cls-34" transform="translate(574.668 222.043) scale(1 1.0115)">MOSI</text><text class="cls-34" transform="translate(574.6602 235.7979) scale(1 1.0115)">MISO</text><text class="cls-34" transform="translate(581.7881 249.9883) scale(1 1.0115)">3.3V</text><rect class="cls-37" x="629.8082" y="188.7974" width="3.1791" height="3.4581"/><rect class="cls-37" x="629.8082" y="202.484" width="3.1791" height="3.4581"/><rect class="cls-37" x="629.8084" y="216.1747" width="3.1791" height="3.4581"/><rect class="cls-37" x="629.8082" y="229.8654" width="3.1791" height="3.4581"/><rect class="cls-37" x="629.8082" y="243.5601" width="3.1791" height="3.4581"/><rect class="cls-37" x="640.5277" y="243.5683" width="3.1791" height="3.4581"/><rect class="cls-37" x="640.5236" y="229.8695" width="3.1791" height="3.4581"/><rect class="cls-37" x="640.5236" y="216.1787" width="3.1791" height="3.4581"/><rect class="cls-37" x="640.5236" y="202.484" width="3.1791" height="3.4581"/><rect class="cls-37" x="640.5236" y="188.7893" width="3.1791" height="3.4581"/><text class="cls-10" transform="translate(623.3691 156.5039)">SPI</text></g><g id="Shader"><g class="cls-50"><path class="cls-48" d="M58.7144,781.6182a50.1425,50.1425,0,0,1-50.086-50.086V53.0859A50.1425,50.1425,0,0,1,58.7144,3H748.8228a50.1424,50.1424,0,0,1,50.0859,50.0859V731.5322a50.1425,50.1425,0,0,1-50.0859,50.086ZM88.2168,678.9448c-9.6255,0-17.4565,6.33-17.4565,14.11v60.0429c0,7.78,7.831,14.11,17.4565,14.11h58.9966c9.6255,0,17.4565-6.33,17.4565-14.11V693.0552c0-7.78-7.831-14.11-17.4565-14.11Z"/></g><path class="cls-51" d="M748.8226,6a47.0871,47.0871,0,0,1,47.086,47.0859V731.532a47.0858,47.0858,0,0,1-47.086,47.086H58.7145a47.0858,47.0858,0,0,1-47.0859-47.086V53.0859A47.0871,47.0871,0,0,1,58.7145,6H748.8226M88.2169,770.2082h58.9963c11.298,0,20.4567-7.6605,20.4567-17.11V693.0551c0-9.45-9.1587-17.11-20.4567-17.11H88.2169c-11.298,0-20.4567,7.6605-20.4567,17.11v60.0431c0,9.4495,9.1587,17.11,20.4567,17.11M748.8226,0H58.7145A53.146,53.146,0,0,0,5.6286,53.0859V731.532a53.1461,53.1461,0,0,0,53.0859,53.086H748.8226a53.1462,53.1462,0,0,0,53.086-53.086V53.0859A53.1461,53.1461,0,0,0,748.8226,0ZM88.2169,764.2082c-7.9714,0-14.4567-4.9839-14.4567-11.11V693.0551c0-6.1261,6.4853-11.11,14.4567-11.11h58.9963c7.9714,0,14.4567,4.9841,14.4567,11.11v60.0431c0,6.1261-6.4853,11.11-14.4567,11.11Z"/></g><g id="Edge_Fix_TOP_" data-name="Edge Fix (TOP)"><path class="cls-12" d="M4.8906-.99V786.73H802.9084V-.99ZM754.6373,777.8273l-698.0228.5137c-25.7844-2.0646-41.7151-20.1636-44.8769-45.14l.764-685.6649c2.03-21.1,20.1644-39.3677,40.9884-41.6014L753.66,6.08c21.0428,2.4863,38.8976,20.007,41.9895,40.9877l.0758,684.1015C795.7508,756.4034,779.5652,773.5706,754.6373,777.8273Z"/></g></svg>