<svg xmlns="http://www.w3.org/2000/svg" viewBox="0 0 800 785"><defs><style>.cls-1{fill:#434343;}.cls-2{fill:#4f4e51;}.cls-3{fill:#323031;}.cls-4{fill:#424242;}.cls-5{fill:#6a5f27;}.cls-6{fill:#5a5a5d;}.cls-7{fill:#f2f2f2;}.cls-8{fill:#221f1f;}.cls-13,.cls-30,.cls-31,.cls-41,.cls-42,.cls-46,.cls-47,.cls-49,.cls-9{fill:none;}.cls-9{stroke:#5a5a5d;stroke-width:5.416px;}.cls-13,.cls-9{stroke-miterlimit:10;}.cls-10{font-size:16.248px;}.cls-10,.cls-11,.cls-12,.cls-18,.cls-23,.cls-29,.cls-32,.cls-33,.cls-34,.cls-36,.cls-37,.cls-38,.cls-39,.cls-40,.cls-43,.cls-45{fill:#fff;}.cls-10,.cls-11,.cls-18,.cls-23,.cls-29,.cls-33,.cls-34,.cls-36,.cls-39,.cls-40,.cls-43,.cls-45{font-family:Heebo-Light, Heebo;font-weight:300;}.cls-11{font-size:10.832px;}.cls-13,.cls-31,.cls-32,.cls-37,.cls-38,.cls-46,.cls-47,.cls-49{stroke:#fff;}.cls-13{stroke-width:2.708px;}.cls-14{letter-spacing:0.009em;}.cls-15{letter-spacing:-0.058em;}.cls-16{letter-spacing:0em;}.cls-17{letter-spacing:-0.031em;}.cls-18{font-size:11.7401px;}.cls-19{fill:#9b9b9b;}.cls-20{fill:#171717;}.cls-21{fill:#f3ea07;}.cls-22{fill:#7cc244;}.cls-23{font-size:32.496px;}.cls-24{letter-spacing:-0.013em;}.cls-25{fill:#51545a;}.cls-26{fill:#3c3d42;}.cls-27{fill:#5a5d65;}.cls-28{fill:#23446c;}.cls-29{font-size:11.1981px;}.cls-30,.cls-41{stroke:#f1f2f2;}.cls-30,.cls-31,.cls-32,.cls-38,.cls-41,.cls-42,.cls-46{stroke-miterlimit:2;}.cls-31,.cls-32,.cls-37,.cls-38,.cls-41,.cls-42,.cls-49{stroke-width:0.686px;}.cls-32,.cls-37,.cls-47{stroke-linecap:round;}.cls-33{font-size:10.9221px;}.cls-34{font-size:11.699px;}.cls-35{letter-spacing:-0.019em;}.cls-36{font-size:10.9278px;}.cls-37,.cls-47,.cls-49{stroke-linejoin:round;}.cls-39{font-size:9.9074px;}.cls-40{font-size:9.6078px;}.cls-42{stroke:#020202;}.cls-43,.cls-45{font-size:11.4352px;}.cls-43{letter-spacing:-0.02em;}.cls-44{letter-spacing:0em;}.cls-46{stroke-width:0.588px;}.cls-47{stroke-width:0.506px;}.cls-48{fill:#231f20;}.cls-50{opacity:0.33;}.cls-51{fill:#00aeef;}</style></defs><g id="roboRIO"><path class="cls-1" d="M742.7953,776.7132l-699.2185.9311a41.8157,41.8157,0,0,1-41.76-41.8712V44.8405a41.8156,41.8156,0,0,1,41.76-41.8711l704.5444-.9311a41.8156,41.8156,0,0,1,41.76,41.8711V729.502c2.3995,27.8893-12.3473,47.6874-38.9831,47.21"/><rect class="cls-2" x="14.2113" y="17.6241" width="763.4358" height="747.9174" rx="29.4466"/><rect class="cls-3" x="20.6119" y="278.8351" width="46.329" height="413.1708"/><path class="cls-4" d="M549.6109,136.0787H237.2569a19.4986,19.4986,0,0,1-19.4981-19.4978V36.0548a19.4986,19.4986,0,0,1,19.4981-19.4981h312.354a19.4986,19.4986,0,0,1,19.4978,19.4981v80.5261a19.4985,19.4985,0,0,1-19.4978,19.4978"/><rect class="cls-3" x="252.273" y="521.2579" width="279.7219" height="51.5601"/><path class="cls-5" d="M46.2553,301.4049a2.7241,2.7241,0,1,1-2.7241-2.7239,2.723,2.723,0,0,1,2.7241,2.7239"/><path class="cls-5" d="M34.0639,301.4049a2.7241,2.7241,0,1,1-2.7221-2.7239,2.7212,2.7212,0,0,1,2.7221,2.7239"/><path class="cls-5" d="M58.937,301.4049a2.7231,2.7231,0,1,1-2.7222-2.7239,2.7212,2.7212,0,0,1,2.7222,2.7239"/><path class="cls-5" d="M46.2553,342.6366a2.7241,2.7241,0,1,1-2.7241-2.7236,2.723,2.723,0,0,1,2.7241,2.7236"/><path class="cls-5" d="M34.0639,342.6366a2.7241,2.7241,0,1,1-2.7221-2.7236,2.7212,2.7212,0,0,1,2.7221,2.7236"/><path class="cls-5" d="M58.937,342.6366a2.7231,2.7231,0,1,1-2.7222-2.7236,2.7212,2.7212,0,0,1,2.7222,2.7236"/><path class="cls-5" d="M46.2553,383.8684a2.7241,2.7241,0,1,1-2.7241-2.7234,2.723,2.723,0,0,1,2.7241,2.7234"/><path class="cls-5" d="M34.0639,383.8684a2.7241,2.7241,0,1,1-2.7221-2.7234,2.7212,2.7212,0,0,1,2.7221,2.7234"/><path class="cls-5" d="M58.937,383.8684a2.7231,2.7231,0,1,1-2.7222-2.7234,2.7212,2.7212,0,0,1,2.7222,2.7234"/><path class="cls-5" d="M46.2553,425.1a2.7241,2.7241,0,1,1-2.7241-2.7232A2.723,2.723,0,0,1,46.2553,425.1"/><path class="cls-5" d="M34.0639,425.1a2.7241,2.7241,0,1,1-2.7221-2.7232A2.7212,2.7212,0,0,1,34.0639,425.1"/><path class="cls-5" d="M58.937,425.1a2.7231,2.7231,0,1,1-2.7222-2.7232A2.7212,2.7212,0,0,1,58.937,425.1"/><path class="cls-5" d="M46.2553,466.3319a2.7241,2.7241,0,1,1-2.7241-2.723,2.723,2.723,0,0,1,2.7241,2.723"/><path class="cls-5" d="M34.0639,466.3319a2.7241,2.7241,0,1,1-2.7221-2.723,2.7212,2.7212,0,0,1,2.7221,2.723"/><path class="cls-5" d="M58.937,466.3319a2.7231,2.7231,0,1,1-2.7222-2.723,2.7212,2.7212,0,0,1,2.7222,2.723"/><path class="cls-5" d="M46.2553,507.5637a2.7241,2.7241,0,1,1-2.7241-2.7228,2.7231,2.7231,0,0,1,2.7241,2.7228"/><path class="cls-5" d="M34.0639,507.5637a2.7241,2.7241,0,1,1-2.7221-2.7228,2.7212,2.7212,0,0,1,2.7221,2.7228"/><path class="cls-5" d="M58.937,507.5637a2.7231,2.7231,0,1,1-2.7222-2.7228,2.7213,2.7213,0,0,1,2.7222,2.7228"/><path class="cls-5" d="M46.2553,548.7954a2.7241,2.7241,0,1,1-2.7241-2.7226,2.723,2.723,0,0,1,2.7241,2.7226"/><path class="cls-5" d="M34.0639,548.7954a2.7241,2.7241,0,1,1-2.7221-2.7226,2.7212,2.7212,0,0,1,2.7221,2.7226"/><path class="cls-5" d="M58.937,548.7954a2.7231,2.7231,0,1,1-2.7222-2.7226,2.7212,2.7212,0,0,1,2.7222,2.7226"/><path class="cls-5" d="M46.2553,590.0272a2.7241,2.7241,0,1,1-2.7241-2.7224,2.723,2.723,0,0,1,2.7241,2.7224"/><path class="cls-5" d="M34.0639,590.0272a2.7241,2.7241,0,1,1-2.7221-2.7224,2.7212,2.7212,0,0,1,2.7221,2.7224"/><path class="cls-5" d="M58.937,590.0272a2.7231,2.7231,0,1,1-2.7222-2.7224,2.7212,2.7212,0,0,1,2.7222,2.7224"/><path class="cls-5" d="M46.2553,631.2589a2.7241,2.7241,0,1,1-2.7241-2.7221,2.723,2.723,0,0,1,2.7241,2.7221"/><path class="cls-5" d="M34.0639,631.2589a2.7241,2.7241,0,1,1-2.7221-2.7221,2.7212,2.7212,0,0,1,2.7221,2.7221"/><path class="cls-5" d="M58.937,631.2589a2.7231,2.7231,0,1,1-2.7222-2.7221,2.7212,2.7212,0,0,1,2.7222,2.7221"/><path class="cls-5" d="M46.2553,672.4907a2.7241,2.7241,0,1,1-2.7241-2.7219,2.723,2.723,0,0,1,2.7241,2.7219"/><path class="cls-5" d="M34.0639,672.4907a2.7241,2.7241,0,1,1-2.7221-2.7219,2.7212,2.7212,0,0,1,2.7221,2.7219"/><path class="cls-5" d="M58.937,672.4907a2.7231,2.7231,0,1,1-2.7222-2.7219,2.7212,2.7212,0,0,1,2.7222,2.7219"/><rect class="cls-3" x="21.9869" y="223.8419" width="45.05" height="36.188"/><path class="cls-5" d="M47.2359,241.9361a2.7242,2.7242,0,1,1-2.7241-2.7219,2.723,2.723,0,0,1,2.7241,2.7219"/><path class="cls-5" d="M35.0445,241.9361a2.7242,2.7242,0,1,1-2.7222-2.7219,2.7212,2.7212,0,0,1,2.7222,2.7219"/><path class="cls-5" d="M59.9175,241.9361a2.723,2.723,0,1,1-2.7221-2.7219,2.7212,2.7212,0,0,1,2.7221,2.7219"/><rect class="cls-3" x="21.9869" y="160.4359" width="60.6521" height="39.05"/><path class="cls-5" d="M48.5074,179.96a2.7242,2.7242,0,1,1-2.7241-2.722,2.7247,2.7247,0,0,1,2.7241,2.722"/><path class="cls-5" d="M36.316,179.96a2.7242,2.7242,0,1,1-2.7222-2.722,2.7229,2.7229,0,0,1,2.7222,2.722"/><path class="cls-5" d="M61.189,179.96a2.723,2.723,0,1,1-2.7222-2.722,2.7229,2.7229,0,0,1,2.7222,2.722"/><path class="cls-5" d="M73.7554,179.96a2.7241,2.7241,0,1,1-2.7221-2.722,2.7229,2.7229,0,0,1,2.7221,2.722"/><rect class="cls-3" x="225.2123" y="708.6142" width="158.48" height="45.05"/><path class="cls-5" d="M243.3082,728.4161a2.723,2.723,0,1,1-2.7241,2.722,2.7211,2.7211,0,0,1,2.7241-2.722"/><path class="cls-5" d="M243.3082,740.6055a2.7241,2.7241,0,1,1-2.7241,2.7242,2.7216,2.7216,0,0,1,2.7241-2.7242"/><path class="cls-5" d="M243.3082,715.7325a2.7241,2.7241,0,1,1-2.7241,2.722,2.7211,2.7211,0,0,1,2.7241-2.722"/><rect class="cls-3" x="265.6642" y="708.6142" width="36.188" height="45.05"/><path class="cls-5" d="M283.7594,728.4161a2.723,2.723,0,1,1-2.7222,2.722,2.7228,2.7228,0,0,1,2.7222-2.722"/><path class="cls-5" d="M283.7594,740.6055a2.7241,2.7241,0,1,1-2.7222,2.7242,2.7233,2.7233,0,0,1,2.7222-2.7242"/><path class="cls-5" d="M283.7594,715.7325a2.7241,2.7241,0,1,1-2.7222,2.722,2.7228,2.7228,0,0,1,2.7222-2.722"/><rect class="cls-3" x="347.5043" y="708.6142" width="36.188" height="45.05"/><path class="cls-5" d="M365.5993,728.4161a2.723,2.723,0,1,1-2.7222,2.722,2.7227,2.7227,0,0,1,2.7222-2.722"/><path class="cls-5" d="M365.5993,740.6055a2.7241,2.7241,0,1,1-2.7222,2.7242,2.7232,2.7232,0,0,1,2.7222-2.7242"/><path class="cls-5" d="M365.5993,715.7325a2.7241,2.7241,0,1,1-2.7222,2.722,2.7227,2.7227,0,0,1,2.7222-2.722"/><rect class="cls-3" x="306.6083" y="708.6142" width="36.188" height="45.05"/><path class="cls-5" d="M324.7028,728.4161a2.723,2.723,0,1,1-2.7222,2.722,2.7211,2.7211,0,0,1,2.7222-2.722"/><path class="cls-5" d="M324.7028,740.6055a2.7241,2.7241,0,1,1-2.7222,2.7242,2.7216,2.7216,0,0,1,2.7222-2.7242"/><path class="cls-5" d="M324.7028,715.7325a2.7241,2.7241,0,1,1-2.7222,2.722,2.7211,2.7211,0,0,1,2.7222-2.722"/><rect class="cls-3" x="401.741" y="708.5062" width="158.48" height="45.05"/><path class="cls-5" d="M419.834,728.3081a2.723,2.723,0,1,1-2.7222,2.722,2.7215,2.7215,0,0,1,2.7222-2.722"/><path class="cls-5" d="M419.834,740.4975a2.7241,2.7241,0,1,1-2.7222,2.7242,2.722,2.722,0,0,1,2.7222-2.7242"/><path class="cls-5" d="M419.834,715.6245a2.7241,2.7241,0,1,1-2.7222,2.722,2.7215,2.7215,0,0,1,2.7222-2.722"/><rect class="cls-3" x="442.1929" y="708.5062" width="36.188" height="45.05"/><path class="cls-5" d="M460.2871,728.3081a2.723,2.723,0,1,1-2.7241,2.722,2.7211,2.7211,0,0,1,2.7241-2.722"/><path class="cls-5" d="M460.2871,740.4975a2.7241,2.7241,0,1,1-2.7241,2.7242,2.7216,2.7216,0,0,1,2.7241-2.7242"/><path class="cls-5" d="M460.2871,715.6245a2.7241,2.7241,0,1,1-2.7241,2.722,2.7211,2.7211,0,0,1,2.7241-2.722"/><rect class="cls-3" x="524.033" y="708.5062" width="36.188" height="45.05"/><path class="cls-5" d="M542.127,728.3081a2.723,2.723,0,1,1-2.7242,2.722,2.7211,2.7211,0,0,1,2.7242-2.722"/><path class="cls-5" d="M542.127,740.4975a2.7241,2.7241,0,1,1-2.7242,2.7242,2.7216,2.7216,0,0,1,2.7242-2.7242"/><path class="cls-5" d="M542.127,715.6245a2.7241,2.7241,0,1,1-2.7242,2.722,2.7211,2.7211,0,0,1,2.7242-2.722"/><rect class="cls-3" x="483.135" y="708.5062" width="36.1899" height="45.05"/><path class="cls-5" d="M501.2305,728.3081a2.723,2.723,0,1,1-2.7241,2.722,2.7211,2.7211,0,0,1,2.7241-2.722"/><path class="cls-5" d="M501.2305,740.4975a2.7241,2.7241,0,1,1-2.7241,2.7242,2.7216,2.7216,0,0,1,2.7241-2.7242"/><path class="cls-5" d="M501.2305,715.6245a2.7241,2.7241,0,1,1-2.7241,2.722,2.7211,2.7211,0,0,1,2.7241-2.722"/><rect class="cls-6" x="26.751" y="86.4439" width="43.512" height="24.8181"/><rect class="cls-7" x="36.5272" y="91.098" width="27.9199" height="14.7339"/><path class="cls-8" d="M49.5171,98.8541a9.791,9.791,0,1,1-9.7922-9.792,9.79,9.79,0,0,1,9.7922,9.792"/><rect class="cls-6" x="26.751" y="111.2621" width="43.512" height="24.8159"/><rect class="cls-7" x="36.5272" y="115.9161" width="27.9199" height="14.7339"/><path class="cls-8" d="M49.5171,123.6705a9.791,9.791,0,1,1-9.7922-9.792,9.7922,9.7922,0,0,1,9.7922,9.792"/><polygon class="cls-3" points="140.753 24.311 140.753 58.285 133.367 58.285 133.367 98.465 140.753 98.465 140.753 123.671 176.203 123.671 176.203 98.465 191.711 98.465 191.711 56.807 178.419 56.069 177.681 24.311 140.753 24.311"/><path class="cls-8" d="M168.2691,39.4459a9.791,9.791,0,1,1-9.7922-9.792,9.7922,9.7922,0,0,1,9.7922,9.792"/><path class="cls-8" d="M168.2691,108.4322a9.791,9.791,0,1,1-9.7922-9.792,9.7909,9.7909,0,0,1,9.7922,9.792"/><rect class="cls-8" x="162.5411" y="62.618" width="25.478" height="10.3379"/><rect class="cls-8" x="162.5411" y="81.0899" width="25.478" height="10.3401"/><path class="cls-7" d="M357.8062,619.4048H354.73a82.8592,82.8592,0,0,1-6.85-8.944h-.042v8.944h-3.6221v-15.27h3.3379c2.2041,2.7059,5.4961,6.6759,6.5881,8.7479h.042v-8.7479h3.6221v15.27"/><path class="cls-7" d="M368.4747,604.1344l5.802,15.27h-4.886l-1.2-3.642h-4.7341l-1.4619,3.642h-3.5979l6.2158-15.27Zm-1.0259,9.2059c-.5022-1.81-.9383-3.272-1.4841-5.454h-.044c-.5881,2.182-1.1121,3.6441-1.68,5.454h3.208"/><polygon class="cls-7" points="375.738 619.405 375.738 606.993 371.332 606.993 371.332 604.135 384.748 604.135 384.748 606.993 380.342 606.993 380.342 619.405 375.738 619.405"/><rect class="cls-7" x="386.231" y="604.136" width="4.604" height="15.27"/><path class="cls-7" d="M391.9437,611.5962a7.592,7.592,0,1,1,15.1818,0c0,4.5581-2.9018,8.07-7.592,8.07s-7.59-3.5119-7.59-8.07m10.382,0c0-2.706-.8281-4.538-2.7922-4.538s-2.792,1.832-2.792,4.538c0,2.878.7422,4.884,2.792,4.884s2.7922-2.006,2.7922-4.884"/><path class="cls-7" d="M421.8257,619.4048h-3.0742a82.3592,82.3592,0,0,1-6.85-8.944h-.044v8.944h-3.6221v-15.27h3.3379c2.2041,2.7059,5.4961,6.6759,6.5882,8.7479h.0439v-8.7479h3.62v15.27"/><path class="cls-7" d="M432.2754,604.1344l5.802,15.27h-4.884l-1.2019-3.642h-4.7341l-1.4619,3.642h-3.5979l6.2177-15.27ZM431.25,613.34c-.5-1.81-.9383-3.272-1.4822-5.454h-.044c-.59,2.182-1.112,3.6441-1.6818,5.454h3.208"/><polygon class="cls-7" points="439.105 604.135 443.707 604.135 443.707 616.547 449.291 616.547 449.291 619.405 439.105 619.405 439.105 604.135"/><rect class="cls-7" x="337.3431" y="624.134" width="4.604" height="15.272"/><path class="cls-7" d="M357.4976,639.4048h-3.0742a82.67,82.67,0,0,1-6.8518-8.946h-.042v8.946h-3.6221v-15.272h3.3379c2.2041,2.706,5.4981,6.676,6.5881,8.748h.042v-8.748h3.6221v15.272"/><path class="cls-7" d="M367.2066,627.2973a4.3441,4.3441,0,0,0-2.2481-.568c-.894,0-1.352.4382-1.352.94,0,.848,1.2881,1.548,2.772,2.92,1.96,1.8339,2.4419,2.99,2.4419,4.5839,0,1.35-1.1119,4.4941-5.6939,4.4941a7.7352,7.7352,0,0,1-4.7981-1.3981l1.396-2.53a4.323,4.323,0,0,0,2.616,1.0679c.916,0,1.92-.458,1.92-1.5919,0-1.22-1.4841-2.1161-2.6821-3.162-1.592-1.396-2.532-2.206-2.532-4.08,0-2.444,2.4641-4.102,5.346-4.102a8.1258,8.1258,0,0,1,3.9922,1.026l-1.178,2.4"/><polygon class="cls-7" points="373.357 639.405 373.357 626.991 368.951 626.991 368.951 624.133 382.365 624.133 382.365 626.991 377.961 626.991 377.961 639.405 373.357 639.405"/><path class="cls-7" d="M383.8467,624.1327h6.8079c3.5979,0,5.54,1.572,5.54,4.08a4.58,4.58,0,0,1-2.5739,4.406l3.38,6.546-4.9279.5021-2.42-6.044h-1.2019v5.7819h-4.604Zm4.604,6.6119h1.3079a1.8411,1.8411,0,0,0,1.832-1.876,1.6848,1.6848,0,0,0-1.9179-1.8779h-1.222v3.7539"/><path class="cls-7" d="M402.1734,624.1334V632.12c0,2.746.4138,4.3619,2.3559,4.3619,1.5259,0,2.4-1.5279,2.4-4.428v-7.92h3.97v9.228c0,4.56-3.0979,6.3061-6.5879,6.3061-3.904,0-6.7419-1.638-6.7419-6.1961v-9.338h4.604"/><path class="cls-7" d="M431.47,639.4048h-4.6021v-10.69h-.042c-1.18,3.992-2.4,7.3521-3.624,10.69h-2.9c-1.2439-3.3379-2.4878-6.698-3.688-10.69h-.042v10.69H412.95v-15.272h6.2378c1.0481,2.9241,2.094,5.826,3.12,9.402h.0439c.9819-3.576,2.0061-6.4779,3.01-9.402H431.47v15.272"/><polygon class="cls-7" points="442.707 626.991 438.038 626.991 438.038 630.003 442.598 630.003 442.598 632.861 438.038 632.861 438.038 636.545 443.647 636.545 443.647 639.405 433.437 639.405 433.437 624.133 442.707 624.133 442.707 626.991"/><path class="cls-7" d="M458.064,639.4048h-3.0762a82.6487,82.6487,0,0,1-6.85-8.946h-.042v8.946h-3.6221v-15.272h3.3379c2.2041,2.706,5.4961,6.676,6.5882,8.748h.0419v-8.748h3.6221v15.272"/><polygon class="cls-7" points="463.3 639.405 463.3 626.991 458.894 626.991 458.894 624.133 472.31 624.133 472.31 626.991 467.904 626.991 467.904 639.405 463.3 639.405"/><path class="cls-7" d="M481.3179,627.2973a4.3416,4.3416,0,0,0-2.2461-.568c-.896,0-1.354.4382-1.354.94,0,.848,1.2881,1.548,2.77,2.92,1.9639,1.8339,2.4439,2.99,2.4439,4.5839,0,1.35-1.1118,4.4941-5.6919,4.4941a7.7373,7.7373,0,0,1-4.8-1.3981l1.396-2.53a4.3332,4.3332,0,0,0,2.616,1.0679c.916,0,1.92-.458,1.92-1.5919,0-1.22-1.4822-2.1161-2.6822-3.162-1.592-1.396-2.5319-2.206-2.5319-4.08,0-2.444,2.466-4.102,5.3459-4.102a8.1258,8.1258,0,0,1,3.9922,1.026l-1.178,2.4"/><path class="cls-7" d="M483.7605,626.7622v-2.16h-.82v-.276h2.0561v.276h-.8161v2.16Zm4.4441,0h-.424v-1.7959h-.012l-.9641,1.7959h-.2l-.896-1.7959h-.008v1.7959h-.344v-2.4359h.488l.918,1.8259.9939-1.8259h.4482v2.4359"/><path class="cls-7" d="M320.648,609.8989a5.8213,5.8213,0,0,1,4.2078-4.886c5.154-1.464,7.9121-1.194,17.154-1.27-5.54,4.9579-9.9639,12.77-8.9739,20.414-1.99-1.63-3.3339-3.96-5.062-5.8221a19.2523,19.2523,0,0,0,1.668-3.8879c.6121-2.312,2.2781-2.858,4.39-2.7941.1582.006-.124-1.78-.708-1.938-1.574-.426-2.906.08-4.7339-.6259a2.2275,2.2275,0,0,0-1.7439.332c-1.5.766-2.45,2.4039-4.1382,2.922Z"/><path class="cls-7" d="M292.3921,608.4028a25.0925,25.0925,0,0,1,9.9539-4.324c4.7161-.8619,9.8259-.926,13.3479,2.47,6.6541,6.408,12.0422,13.1339,17.8782,20.456.23.2879.21,1.076.01,1.19a83.7242,83.7242,0,0,1-12.6721,5.934,2.1882,2.1882,0,0,1-2.03-.448c-6.6538-6.046-11.21-13.282-17.5959-19.572a21.321,21.321,0,0,0-8.7239-5.1861c-.2642-.0819-.312-.42-.168-.52"/><path class="cls-7" d="M315.646,637.9028a42.83,42.83,0,0,0-11.9382,12.718,26.5063,26.5063,0,0,1,.48-14.968c1.67-4.6759,1.99-9.2159,2.212-14.09,3.0358,3.496,6.4819,7.36,9.32,10.866Z"/><rect class="cls-3" x="263.439" y="531.2459" width="260.228" height="32.484"/><path class="cls-5" d="M282.1851,550.5649a1.9641,1.9641,0,1,1-1.9641,1.9641,1.9631,1.9631,0,0,1,1.9641-1.9641"/><path class="cls-5" d="M282.1851,540.4847a1.9641,1.9641,0,1,1-1.9641,1.9641,1.9619,1.9619,0,0,1,1.9641-1.9641"/><path class="cls-5" d="M294.2769,550.5649a1.9641,1.9641,0,1,1-1.9641,1.9641,1.9631,1.9631,0,0,1,1.9641-1.9641"/><path class="cls-5" d="M294.2769,540.4847a1.9641,1.9641,0,1,1-1.9641,1.9641,1.9619,1.9619,0,0,1,1.9641-1.9641"/><path class="cls-5" d="M309.2339,550.5532a1.9641,1.9641,0,1,1-1.9641,1.9641,1.9619,1.9619,0,0,1,1.9641-1.9641"/><path class="cls-5" d="M309.2339,540.4731a1.9641,1.9641,0,1,1-1.9641,1.9641,1.962,1.962,0,0,1,1.9641-1.9641"/><path class="cls-5" d="M321.3257,550.5532a1.9641,1.9641,0,1,1-1.9621,1.9641,1.9618,1.9618,0,0,1,1.9621-1.9641"/><path class="cls-5" d="M321.3257,540.4731a1.9641,1.9641,0,1,1-1.9621,1.9641,1.9619,1.9619,0,0,1,1.9621-1.9641"/><path class="cls-5" d="M336.9351,550.5532a1.9641,1.9641,0,1,1-1.9641,1.9641,1.9618,1.9618,0,0,1,1.9641-1.9641"/><path class="cls-5" d="M336.9351,540.4731a1.9641,1.9641,0,1,1-1.9641,1.9621,1.9615,1.9615,0,0,1,1.9641-1.9621"/><path class="cls-5" d="M349.0269,550.5532a1.9641,1.9641,0,1,1-1.9622,1.9641,1.9635,1.9635,0,0,1,1.9622-1.9641"/><path class="cls-5" d="M349.0269,540.4731a1.9641,1.9641,0,1,1-1.9622,1.9621,1.9632,1.9632,0,0,1,1.9622-1.9621"/><path class="cls-5" d="M364.2417,550.5532a1.9641,1.9641,0,1,1-1.9621,1.9641,1.9623,1.9623,0,0,1,1.9621-1.9641"/><path class="cls-5" d="M364.2417,540.4731a1.9641,1.9641,0,1,1-1.9621,1.9621,1.9619,1.9619,0,0,1,1.9621-1.9621"/><path class="cls-5" d="M378.8414,550.5532a1.9641,1.9641,0,1,1-1.9642,1.9641,1.9619,1.9619,0,0,1,1.9642-1.9641"/><path class="cls-5" d="M378.8414,540.4731a1.9641,1.9641,0,1,1-1.9642,1.9621,1.9615,1.9615,0,0,1,1.9642-1.9621"/><path class="cls-5" d="M393.2925,550.5532a1.9641,1.9641,0,1,1-1.9621,1.9641,1.9623,1.9623,0,0,1,1.9621-1.9641"/><path class="cls-5" d="M393.2925,540.4731a1.9641,1.9641,0,1,1-1.9621,1.9641,1.9623,1.9623,0,0,1,1.9621-1.9641"/><path class="cls-5" d="M406.1988,550.5551a1.9631,1.9631,0,1,1-1.9622,1.9621,1.9619,1.9619,0,0,1,1.9622-1.9621"/><path class="cls-5" d="M406.1988,540.4731a1.9641,1.9641,0,1,1-1.9622,1.9641,1.9623,1.9623,0,0,1,1.9622-1.9641"/><path class="cls-5" d="M419.4156,550.5532a1.9641,1.9641,0,1,1-1.9641,1.9641,1.9631,1.9631,0,0,1,1.9641-1.9641"/><path class="cls-5" d="M419.4156,540.4731a1.9641,1.9641,0,1,1-1.9641,1.9641,1.9619,1.9619,0,0,1,1.9641-1.9641"/><path class="cls-5" d="M432.4351,550.5532a1.9641,1.9641,0,1,1-1.9641,1.9641,1.9618,1.9618,0,0,1,1.9641-1.9641"/><path class="cls-5" d="M432.4351,540.4731a1.9641,1.9641,0,1,1-1.9641,1.9641,1.9619,1.9619,0,0,1,1.9641-1.9641"/><path class="cls-5" d="M447.3277,550.5532a1.9641,1.9641,0,1,1-1.9622,1.9641,1.9631,1.9631,0,0,1,1.9622-1.9641"/><path class="cls-5" d="M447.3277,540.4731a1.9641,1.9641,0,1,1-1.9622,1.9641,1.9619,1.9619,0,0,1,1.9622-1.9641"/><path class="cls-5" d="M460.4937,550.5532a1.9641,1.9641,0,1,1-1.9622,1.9641,1.9635,1.9635,0,0,1,1.9622-1.9641"/><path class="cls-5" d="M460.4937,540.4731a1.9641,1.9641,0,1,1-1.9622,1.9641,1.9636,1.9636,0,0,1,1.9622-1.9641"/><path class="cls-5" d="M473.4878,550.5532a1.9641,1.9641,0,1,1-1.9641,1.9641,1.9632,1.9632,0,0,1,1.9641-1.9641"/><path class="cls-5" d="M473.4878,540.4731a1.9641,1.9641,0,1,1-1.9641,1.9641,1.962,1.962,0,0,1,1.9641-1.9641"/><path class="cls-5" d="M487.5425,550.5551a1.9631,1.9631,0,1,1-1.9621,1.9621,1.9619,1.9619,0,0,1,1.9621-1.9621"/><path class="cls-5" d="M487.5425,540.4731a1.9641,1.9641,0,1,1-1.9621,1.9641,1.9623,1.9623,0,0,1,1.9621-1.9641"/><path class="cls-5" d="M500.4429,550.5551a1.9631,1.9631,0,1,1-1.9641,1.9621,1.9615,1.9615,0,0,1,1.9641-1.9621"/><path class="cls-5" d="M500.4429,540.4731a1.9641,1.9641,0,1,1-1.9641,1.9641,1.9619,1.9619,0,0,1,1.9641-1.9641"/><polyline class="cls-9" points="377.25 527.813 259.846 527.813 259.846 567.141 524.039 567.141 524.039 527.813 408.607 527.813"/><path class="cls-5" d="M268.521,181.2018a9.3811,9.3811,0,1,1-9.38-9.38,9.3807,9.3807,0,0,1,9.38,9.38"/><path class="cls-8" d="M264.5562,181.2018a5.416,5.416,0,1,1-5.416-5.4158,5.4162,5.4162,0,0,1,5.416,5.4158"/><path class="cls-5" d="M535.4039,173.276a9.3813,9.3813,0,1,1-13.2681,0,9.3833,9.3833,0,0,1,13.2681,0"/><path class="cls-8" d="M534.1871,179.9088a5.4161,5.4161,0,1,1-5.4161-5.4158,5.4175,5.4175,0,0,1,5.4161,5.4158"/><rect class="cls-3" x="603.6309" y="23.3619" width="51.5581" height="112.7161"/><rect class="cls-3" x="613.605" y="26.7179" width="32.4861" height="104.8621"/><path class="cls-5" d="M632.9253,113.1256c0-.438.878-.792,1.962-.792s1.9638.354,1.9638.792-.88.7922-1.9638.7922-1.962-.354-1.962-.7922"/><path class="cls-5" d="M622.8433,113.1256c0-.438.8779-.792,1.9639-.792,1.084,0,1.9641.354,1.9641.792s-.88.7922-1.9641.7922c-1.086,0-1.9639-.354-1.9639-.7922"/><path class="cls-5" d="M632.9253,108.2525c0-.438.878-.792,1.962-.792s1.9638.354,1.9638.792-.88.7923-1.9638.7923-1.962-.354-1.962-.7923"/><path class="cls-5" d="M622.8433,108.2525c0-.438.8779-.792,1.9639-.792,1.084,0,1.9641.354,1.9641.792s-.88.7923-1.9641.7923c-1.086,0-1.9639-.354-1.9639-.7923"/><path class="cls-5" d="M632.9253,101.9635c0-.438.878-.792,1.962-.792s1.9638.354,1.9638.792-.88.7922-1.9638.7922-1.962-.354-1.962-.7922"/><path class="cls-5" d="M622.8433,101.9635c0-.438.8779-.792,1.9639-.792,1.084,0,1.9641.354,1.9641.792s-.88.7922-1.9641.7922c-1.086,0-1.9639-.354-1.9639-.7922"/><path class="cls-5" d="M632.9253,97.09c0-.438.878-.792,1.962-.792s1.9638.354,1.9638.792-.88.7923-1.9638.7923-1.962-.354-1.962-.7923"/><path class="cls-5" d="M622.8433,97.09c0-.438.8779-.792,1.9639-.792,1.084,0,1.9641.354,1.9641.792s-.88.7923-1.9641.7923c-1.086,0-1.9639-.354-1.9639-.7923"/><path class="cls-5" d="M632.9253,90.96c0-.438.878-.792,1.962-.792s1.9638.354,1.9638.792-.88.7922-1.9638.7922-1.962-.354-1.962-.7922"/><path class="cls-5" d="M622.8433,90.96c0-.438.8779-.792,1.9639-.792,1.084,0,1.9641.354,1.9641.792s-.88.7922-1.9641.7922c-1.086,0-1.9639-.354-1.9639-.7922"/><path class="cls-5" d="M632.9253,85.0768c0-.438.878-.792,1.962-.792s1.9638.354,1.9638.792-.88.7922-1.9638.7922-1.962-.354-1.962-.7922"/><path class="cls-5" d="M622.8433,85.0768c0-.438.8779-.792,1.9639-.792,1.084,0,1.9641.354,1.9641.792s-.88.7922-1.9641.7922c-1.086,0-1.9639-.354-1.9639-.7922"/><path class="cls-5" d="M632.9253,79.2525c0-.4358.878-.792,1.962-.792s1.9638.3562,1.9638.792c0,.4383-.88.7923-1.9638.7923s-1.962-.354-1.962-.7923"/><path class="cls-5" d="M622.8433,79.2525c0-.4358.8779-.792,1.9639-.792,1.084,0,1.9641.3562,1.9641.792,0,.4383-.88.7923-1.9641.7923-1.086,0-1.9639-.354-1.9639-.7923"/><path class="cls-5" d="M632.9253,74.0533c0-.438.878-.792,1.962-.792,1.0859,0,1.966.354,1.966.792,0,.4361-.88.7923-1.966.7923-1.084,0-1.962-.3562-1.962-.7923"/><path class="cls-5" d="M622.8453,74.0533c0-.438.8779-.792,1.9619-.792s1.9638.354,1.9638.792c0,.4361-.88.7923-1.9638.7923s-1.9619-.3562-1.9619-.7923"/><path class="cls-5" d="M632.9253,68.7271c0-.4379.878-.7919,1.962-.7919s1.966.354,1.966.7919-.8821.7923-1.966.7923-1.962-.354-1.962-.7923"/><path class="cls-5" d="M622.8433,68.7271c0-.4379.88-.7919,1.9639-.7919s1.9641.354,1.9641.7919-.88.7923-1.9641.7923-1.9639-.354-1.9639-.7923"/><path class="cls-5" d="M632.9253,63.4811c0-.438.878-.792,1.962-.792s1.9638.354,1.9638.792-.88.7922-1.9638.7922-1.962-.354-1.962-.7922"/><path class="cls-5" d="M622.8433,63.4811c0-.438.8779-.792,1.9639-.792,1.084,0,1.9641.354,1.9641.792s-.88.7922-1.9641.7922c-1.086,0-1.9639-.354-1.9639-.7922"/><path class="cls-5" d="M632.9253,57.4791c0-.4358.878-.792,1.962-.792s1.966.3562,1.966.792c0,.4382-.8821.7922-1.966.7922s-1.962-.354-1.962-.7922"/><path class="cls-5" d="M622.8433,57.4791c0-.4358.88-.792,1.9639-.792s1.9641.3562,1.9641.792c0,.4382-.88.7922-1.9641.7922s-1.9639-.354-1.9639-.7922"/><path class="cls-5" d="M632.9253,52.1744c0-.438.878-.792,1.962-.792s1.9638.354,1.9638.792-.88.7922-1.9638.7922-1.962-.354-1.962-.7922"/><path class="cls-5" d="M622.8433,52.1744c0-.438.8779-.792,1.9639-.792,1.084,0,1.9641.354,1.9641.792s-.88.7922-1.9641.7922c-1.086,0-1.9639-.354-1.9639-.7922"/><path class="cls-5" d="M632.9253,46.9381c0-.438.878-.792,1.962-.792s1.966.354,1.966.792-.8821.7922-1.966.7922-1.962-.354-1.962-.7922"/><path class="cls-5" d="M622.8433,46.9381c0-.4358.88-.792,1.9639-.792s1.9641.3562,1.9641.792c0,.4382-.88.7922-1.9641.7922s-1.9639-.354-1.9639-.7922"/><polyline class="cls-9" points="610.185 85.717 610.185 133.025 649.511 133.025 649.511 26.569 610.185 26.569 610.185 73.084"/><text class="cls-10" transform="translate(76.6797 246.395)">RS-232</text><text class="cls-10" transform="translate(94.228 186.063)">I</text><text class="cls-10" transform="translate(98.5596 180.6523) scale(0.583)">2</text><text class="cls-10" transform="translate(103.814 186.063)">C</text><text class="cls-10" transform="translate(32.3887 78.1602)">CAN</text><text class="cls-11" transform="translate(80.4717 101.438)">L (GRN)</text><text class="cls-11" transform="translate(81.3076 126.2568)">H (YEL)</text><path class="cls-12" d="M101.6652,480.9212a4.4936,4.4936,0,0,1-1.8437,1.7481,5.8306,5.8306,0,0,1-2.7491.6269H96.009a5.8192,5.8192,0,0,1-2.753-.6269,4.4813,4.4813,0,0,1-1.8408-1.76,5.1607,5.1607,0,0,1-.65-2.6113V475.14h11.5518v3.2305A5.0016,5.0016,0,0,1,101.6652,480.9212Zm-4.5771,1.4082a5.1577,5.1577,0,0,0,2.3125-.4921,3.6365,3.6365,0,0,0,1.539-1.3887,3.9312,3.9312,0,0,0,.544-2.0781v-2.2539H91.59v2.1816a4.021,4.021,0,0,0,.5557,2.1348A3.6774,3.6774,0,0,0,93.7,481.8373a5.1607,5.1607,0,0,0,2.3086.4921Z"/><path class="cls-12" d="M90.7648,486.0013h11.5518v.9766H90.7648Z"/><path class="cls-12" d="M93.1173,498.097a4.3161,4.3161,0,0,1,.004-7.8828,6.5593,6.5593,0,0,1,2.8007-.5625h1.2373a6.5929,6.5929,0,0,1,2.8008.5586,4.2981,4.2981,0,0,1,1.86,1.58,4.2494,4.2494,0,0,1,.6543,2.3515,4.1574,4.1574,0,0,1-2.5108,3.9512,6.6441,6.6441,0,0,1-2.8047.5547H95.922A6.6728,6.6728,0,0,1,93.1173,498.097Zm6.4219-.8379a3.3727,3.3727,0,0,0,1.5391-1.2168,3.3134,3.3134,0,0,0,.54-1.9,3.2555,3.2555,0,0,0-.54-1.873,3.412,3.412,0,0,0-1.543-1.2168,6.024,6.024,0,0,0-2.36-.4258H95.922a6.0062,6.0062,0,0,0-2.3681.43,3.4519,3.4519,0,0,0-1.5479,1.2246,3.2569,3.2569,0,0,0-.5429,1.877,3.3085,3.3085,0,0,0,.539,1.9043,3.3446,3.3446,0,0,0,1.543,1.205,6.2284,6.2284,0,0,0,2.3769.4141h1.253A6.05,6.05,0,0,0,99.5392,497.2591Z"/><polyline class="cls-13" points="85.416 298.68 96.623 298.68 96.623 464.252"/><polyline class="cls-13" points="96.625 509.535 96.625 666.012 85.417 666.012"/><text class="cls-10" transform="translate(283.6455 683.8428)">RE<tspan class="cls-14" x="19.5645" y="0">L</tspan><tspan class="cls-15" x="28.2788" y="0">A</tspan><tspan class="cls-16" x="37.4912" y="0">Y</tspan></text><polyline class="cls-13" points="242.603 689.342 242.603 680.468 273.321 680.468"/><polyline class="cls-13" points="337.451 680.467 365.317 680.467 365.317 690.442"/><text class="cls-10" transform="translate(442 683.8428)">ANA<tspan class="cls-17" x="31.8535" y="0">L</tspan><tspan x="39.918" y="0">OG IN</tspan></text><text class="cls-18" transform="translate(618.5254 696.4707)">RESET</text><text class="cls-18" transform="translate(674.7051 696.4707)">USER</text><polyline class="cls-13" points="419.039 689.276 419.039 681.016 433.068 681.016"/><polyline class="cls-13" points="531.898 679.918 545.83 679.918 545.83 690.442"/><rect class="cls-3" x="98.8218" y="708.6142" width="39.958" height="45.05"/><path class="cls-5" d="M118.8,728.414a2.7241,2.7241,0,1,1-2.7221,2.7241A2.7246,2.7246,0,0,1,118.8,728.414"/><path class="cls-5" d="M118.8,740.6055a2.7241,2.7241,0,1,1-2.7221,2.7221,2.7228,2.7228,0,0,1,2.7221-2.7221"/><text class="cls-10" transform="translate(104.5449 696.5586)">RSL</text><text class="cls-10" transform="translate(697.7656 496.6475) rotate(-90)">PWM</text><polyline class="cls-13" points="702.177 665.92 690.969 665.92 690.969 504.904"/><polyline class="cls-13" points="690.968 449.76 690.968 293.327 702.176 293.327"/><path class="cls-5" d="M340.38,86.6217a9.3811,9.3811,0,1,1-9.38-9.38,9.3807,9.3807,0,0,1,9.38,9.38"/><path class="cls-8" d="M336.4156,86.6217A5.4161,5.4161,0,1,1,331,81.2059a5.4174,5.4174,0,0,1,5.416,5.4158"/><path class="cls-5" d="M340.38,41.0924A9.3811,9.3811,0,1,1,331,31.7145a9.3794,9.3794,0,0,1,9.38,9.3779"/><path class="cls-8" d="M336.4156,41.0924A5.4161,5.4161,0,1,1,331,35.6786a5.4161,5.4161,0,0,1,5.416,5.4138"/><rect class="cls-19" x="232.399" y="37.3619" width="66.468" height="53.384"/><polygon class="cls-20" points="249.939 42.821 281.143 42.821 288.713 50.577 288.713 85.287 242.555 85.287 242.555 50.761 249.939 42.821"/><path class="cls-5" d="M259.5875,68.7193a1.9642,1.9642,0,1,1-1.9642,1.9622,1.9616,1.9616,0,0,1,1.9642-1.9622"/><path class="cls-5" d="M259.5875,58.6393a1.9641,1.9641,0,1,1-1.9642,1.9621,1.9615,1.9615,0,0,1,1.9642-1.9621"/><path class="cls-5" d="M271.6792,68.7193a1.9642,1.9642,0,1,1-1.9621,1.9622,1.962,1.962,0,0,1,1.9621-1.9622"/><path class="cls-5" d="M271.6792,58.6393a1.9641,1.9641,0,1,1-1.9621,1.9621,1.9619,1.9619,0,0,1,1.9621-1.9621"/><rect class="cls-19" x="467.4671" y="26.4879" width="87.1479" height="92.3181"/><rect class="cls-20" x="478.2691" y="63.3519" width="65.5459" height="38.1741"/><rect class="cls-20" x="492.8531" y="101.526" width="36.0039" height="8.8621"/><rect class="cls-20" x="499.315" y="110.388" width="23.2639" height="7.386"/><rect class="cls-21" x="469.4051" y="101.526" width="23.448" height="13.292"/><rect class="cls-22" x="528.857" y="101.526" width="23.45" height="13.292"/><rect class="cls-19" x="365.2088" y="72.6478" width="75.3921" height="33.3101"/><rect class="cls-20" x="367.2068" y="73.9901" width="71.4561" height="30.084"/><rect class="cls-19" x="365.241" y="26.1678" width="75.3921" height="33.3101"/><rect class="cls-20" x="367.2388" y="27.5099" width="71.4541" height="30.084"/><text class="cls-10" transform="translate(78.6187 38.2109)">INPUT</text><text class="cls-23" transform="translate(315.5781 246.9199)">NI <tspan class="cls-24" x="39.668" y="0">r</tspan><tspan x="50.1938" y="0">oboRIO</tspan></text><rect class="cls-6" x="370.223" y="77.2398" width="65.3621" height="11.792"/><rect class="cls-6" x="370.223" y="30.7621" width="65.3621" height="11.792"/><text class="cls-10" transform="translate(702.1533 92.6069)">POWER</text><rect class="cls-25" x="763.9646" y="79.2952" width="16.0342" height="15.1855"/><rect class="cls-26" x="779.1283" y="79.4145" width="10.6027" height="15.1855"/><text class="cls-10" transform="translate(697.7969 118.5669)">STATUS</text><rect class="cls-25" x="763.9646" y="105.255" width="16.0342" height="15.1855"/><rect class="cls-26" x="779.1283" y="105.3744" width="10.6027" height="15.1855"/><text class="cls-10" transform="translate(710.8311 158.2188)">RADIO</text><rect class="cls-25" x="763.9646" y="145.1682" width="16.0342" height="15.1855"/><rect class="cls-26" x="779.1283" y="145.2875" width="10.6027" height="15.1855"/><text class="cls-10" transform="translate(707.6191 185.0889)">COMM</text><rect class="cls-25" x="763.9646" y="171.7769" width="16.0342" height="15.1855"/><rect class="cls-26" x="779.1283" y="171.8963" width="10.6027" height="15.1855"/><text class="cls-10" transform="translate(712.3379 213.002)">MODE</text><rect class="cls-25" x="763.9646" y="198.3857" width="16.0342" height="15.1855"/><rect class="cls-26" x="779.1283" y="198.505" width="10.6027" height="15.1855"/><text class="cls-10" transform="translate(728.7764 253.5474)">RSL</text><rect class="cls-25" x="763.9646" y="238.9315" width="16.0342" height="15.1855"/><rect class="cls-26" x="779.1283" y="239.0508" width="10.6027" height="15.1855"/><rect class="cls-27" x="608.0879" y="705.5339" width="108.8485" height="50.9946" rx="9.8548"/><rect class="cls-28" x="622.3545" y="717.3796" width="27.1208" height="27.3032" rx="13.5604"/><rect class="cls-28" x="675.5491" y="717.3796" width="27.1208" height="27.3032" rx="13.5604"/><rect class="cls-3" x="715.7977" y="271.7749" width="46.329" height="413.1708"/><path class="cls-5" d="M741.4411,294.3448a2.7241,2.7241,0,1,1-2.7241-2.7239,2.723,2.723,0,0,1,2.7241,2.7239"/><path class="cls-5" d="M729.25,294.3448a2.7241,2.7241,0,1,1-2.7221-2.7239,2.7212,2.7212,0,0,1,2.7221,2.7239"/><path class="cls-5" d="M754.1228,294.3448a2.7231,2.7231,0,1,1-2.7222-2.7239,2.7212,2.7212,0,0,1,2.7222,2.7239"/><path class="cls-5" d="M741.4411,335.5765a2.7241,2.7241,0,1,1-2.7241-2.7237,2.7231,2.7231,0,0,1,2.7241,2.7237"/><path class="cls-5" d="M729.25,335.5765a2.7241,2.7241,0,1,1-2.7221-2.7237,2.7213,2.7213,0,0,1,2.7221,2.7237"/><path class="cls-5" d="M754.1228,335.5765a2.7231,2.7231,0,1,1-2.7222-2.7237,2.7213,2.7213,0,0,1,2.7222,2.7237"/><path class="cls-5" d="M741.4411,376.8083a2.7241,2.7241,0,1,1-2.7241-2.7235,2.723,2.723,0,0,1,2.7241,2.7235"/><path class="cls-5" d="M729.25,376.8083a2.7241,2.7241,0,1,1-2.7221-2.7235,2.7212,2.7212,0,0,1,2.7221,2.7235"/><path class="cls-5" d="M754.1228,376.8083a2.7231,2.7231,0,1,1-2.7222-2.7235,2.7212,2.7212,0,0,1,2.7222,2.7235"/><path class="cls-5" d="M741.4411,418.04a2.7241,2.7241,0,1,1-2.7241-2.7232,2.723,2.723,0,0,1,2.7241,2.7232"/><path class="cls-5" d="M729.25,418.04a2.7241,2.7241,0,1,1-2.7221-2.7232A2.7212,2.7212,0,0,1,729.25,418.04"/><path class="cls-5" d="M754.1228,418.04a2.7231,2.7231,0,1,1-2.7222-2.7232,2.7212,2.7212,0,0,1,2.7222,2.7232"/><path class="cls-5" d="M741.4411,459.2718a2.7241,2.7241,0,1,1-2.7241-2.723,2.723,2.723,0,0,1,2.7241,2.723"/><path class="cls-5" d="M729.25,459.2718a2.7241,2.7241,0,1,1-2.7221-2.723,2.7212,2.7212,0,0,1,2.7221,2.723"/><path class="cls-5" d="M754.1228,459.2718a2.7231,2.7231,0,1,1-2.7222-2.723,2.7212,2.7212,0,0,1,2.7222,2.723"/><path class="cls-5" d="M741.4411,500.5035a2.7241,2.7241,0,1,1-2.7241-2.7228,2.723,2.723,0,0,1,2.7241,2.7228"/><path class="cls-5" d="M729.25,500.5035a2.7241,2.7241,0,1,1-2.7221-2.7228,2.7212,2.7212,0,0,1,2.7221,2.7228"/><path class="cls-5" d="M754.1228,500.5035a2.7231,2.7231,0,1,1-2.7222-2.7228,2.7212,2.7212,0,0,1,2.7222,2.7228"/><path class="cls-5" d="M741.4411,541.7353a2.7241,2.7241,0,1,1-2.7241-2.7226,2.723,2.723,0,0,1,2.7241,2.7226"/><path class="cls-5" d="M729.25,541.7353a2.7241,2.7241,0,1,1-2.7221-2.7226,2.7212,2.7212,0,0,1,2.7221,2.7226"/><path class="cls-5" d="M754.1228,541.7353a2.7231,2.7231,0,1,1-2.7222-2.7226,2.7212,2.7212,0,0,1,2.7222,2.7226"/><path class="cls-5" d="M741.4411,582.967a2.7241,2.7241,0,1,1-2.7241-2.7223,2.723,2.723,0,0,1,2.7241,2.7223"/><path class="cls-5" d="M729.25,582.967a2.7241,2.7241,0,1,1-2.7221-2.7223,2.7212,2.7212,0,0,1,2.7221,2.7223"/><path class="cls-5" d="M754.1228,582.967a2.7231,2.7231,0,1,1-2.7222-2.7223,2.7212,2.7212,0,0,1,2.7222,2.7223"/><path class="cls-5" d="M741.4411,624.1988a2.7241,2.7241,0,1,1-2.7241-2.7221,2.7231,2.7231,0,0,1,2.7241,2.7221"/><path class="cls-5" d="M729.25,624.1988a2.7241,2.7241,0,1,1-2.7221-2.7221,2.7212,2.7212,0,0,1,2.7221,2.7221"/><path class="cls-5" d="M754.1228,624.1988a2.7231,2.7231,0,1,1-2.7222-2.7221,2.7213,2.7213,0,0,1,2.7222,2.7221"/><path class="cls-5" d="M741.4411,665.4306a2.7241,2.7241,0,1,1-2.7241-2.722,2.723,2.723,0,0,1,2.7241,2.722"/><path class="cls-5" d="M729.25,665.4306a2.7241,2.7241,0,1,1-2.7221-2.722,2.7212,2.7212,0,0,1,2.7221,2.722"/><path class="cls-5" d="M754.1228,665.4306a2.7231,2.7231,0,1,1-2.7222-2.722,2.7212,2.7212,0,0,1,2.7222,2.722"/><text class="cls-29" transform="translate(79.2607 51.7852)">7-16V </text><line class="cls-30" x1="110.3799" y1="50.4081" x2="113.761" y2="50.4081"/><line class="cls-30" x1="115.62" y1="50.4081" x2="118.9969" y2="50.4081"/><line class="cls-30" x1="120.8641" y1="50.4081" x2="124.2452" y2="50.4081"/><line class="cls-30" x1="110.38" y1="47.0148" x2="124.2452" y2="47.0148"/><text class="cls-29" transform="translate(76.0215 63.8101)">45 W MAX</text><line class="cls-31" x1="136.1284" y1="180.3451" x2="136.1284" y2="204.7961"/><line class="cls-31" x1="149.8272" y1="154.9485" x2="149.8272" y2="177.9401"/><line class="cls-31" x1="163.5179" y1="178.5017" x2="163.5179" y2="201.5123"/><line class="cls-31" x1="177.2086" y1="154.709" x2="177.2086" y2="177.6995"/><line class="cls-31" x1="131.5787" y1="206.9391" x2="140.6829" y2="206.9391"/><line class="cls-31" x1="129.3626" y1="204.792" x2="142.895" y2="204.792"/><rect class="cls-32" x="134.4196" y="176.5663" width="3.423" height="3.4251"/><rect class="cls-12" x="148.1103" y="176.5663" width="3.4266" height="3.4251"/><rect class="cls-12" x="161.8057" y="176.5629" width="3.4251" height="3.425"/><rect class="cls-12" x="175.5039" y="176.5663" width="3.421" height="3.4251"/><polygon class="cls-31" points="129.727 161.159 129.727 195.391 183.601 195.383 183.601 161.159 129.727 161.159"/><text class="cls-33" transform="translate(153.6641 210.4224) scale(1 1.0622)">SCL</text><text class="cls-34" transform="translate(138.2236 150.7788) scale(1 1.0115)">3.3V S<tspan class="cls-35" x="32.772" y="0">D</tspan><tspan x="40.2158" y="0">A</tspan></text><line class="cls-31" x1="133.592" y1="209.0903" x2="138.6656" y2="209.0903"/><line class="cls-31" x1="149.1331" y1="241.7645" x2="149.1331" y2="266.0977"/><line class="cls-31" x1="162.8279" y1="242.1378" x2="162.8279" y2="273.7243"/><line class="cls-31" x1="176.5186" y1="242.1379" x2="176.5186" y2="262.5746"/><line class="cls-31" x1="146.5963" y1="270.396" x2="151.67" y2="270.396"/><line class="cls-31" x1="144.5831" y1="268.2448" x2="153.6872" y2="268.2448"/><line class="cls-31" x1="142.3669" y1="266.0976" x2="155.8993" y2="266.0976"/><rect class="cls-32" x="174.8104" y="238.3399" width="3.4251" height="3.4246"/><rect class="cls-32" x="147.4234" y="238.3399" width="3.4226" height="3.4246"/><rect class="cls-32" x="161.1198" y="238.3399" width="3.421" height="3.4246"/><rect class="cls-31" x="142.2899" y="222.5298" width="41.0802" height="34.2324"/><text class="cls-34" transform="translate(166.0327 273.1382) scale(1 1.0115)">TXD</text><text class="cls-34" transform="translate(151.2783 284.1147) scale(1 1.0115)">RXD</text><line class="cls-31" x1="30.3491" y1="700.302" x2="30.3491" y2="711.2003"/><line class="cls-31" x1="44.052" y1="700.2289" x2="44.3685" y2="718.6402"/><line class="cls-31" x1="57.7427" y1="700.302" x2="57.7427" y2="708.1479"/><line class="cls-31" x1="27.8123" y1="715.5026" x2="32.8859" y2="715.5026"/><line class="cls-31" x1="25.7991" y1="713.3473" x2="34.9032" y2="713.3473"/><line class="cls-31" x1="23.5829" y1="711.2041" x2="37.1153" y2="711.2041"/><text class="cls-36" transform="translate(37.9312 728.7949) scale(1 1.0056)">5V</text><text class="cls-36" transform="translate(54.3154 717.4785) scale(1 1.0056)">S</text><rect class="cls-37" x="56.1939" y="696.7665" width="3.1791" height="3.4581"/><rect class="cls-37" x="42.6207" y="697.0225" width="3.1791" height="3.4581"/><rect class="cls-37" x="28.8634" y="696.9775" width="3.1791" height="3.4581"/><line class="cls-31" x1="74.9513" y1="758.3878" x2="80.0249" y2="758.3878"/><line class="cls-31" x1="72.9381" y1="756.2284" x2="82.0422" y2="756.2284"/><line class="cls-31" x1="70.7259" y1="754.0854" x2="84.2583" y2="754.0854"/><line class="cls-31" x1="77.4921" y1="745.7037" x2="90.0301" y2="745.7037"/><line class="cls-31" x1="89.9652" y1="731.9563" x2="81.9611" y2="731.9563"/><line class="cls-31" x1="77.4881" y1="745.3581" x2="77.4881" y2="754.0854"/><line class="cls-31" x1="77.4922" y1="752.7095" x2="77.4922" y2="746.0529"/><text class="cls-36" transform="translate(73.8154 735.7168) scale(1 1.0056)">S</text><rect class="cls-37" x="90.0346" y="730.152" width="3.1791" height="3.4581"/><rect class="cls-37" x="89.853" y="744.0136" width="3.1791" height="3.4581"/><line class="cls-31" x1="197.782" y1="758.3838" x2="202.8556" y2="758.3838"/><line class="cls-38" x1="195.7687" y1="756.2284" x2="204.8728" y2="756.2284"/><line class="cls-31" x1="193.5566" y1="754.0813" x2="207.0889" y2="754.0813"/><line class="cls-31" x1="212.9014" y1="731.9563" x2="204.7917" y2="731.9563"/><line class="cls-31" x1="212.9014" y1="718.233" x2="204.7917" y2="718.233"/><polyline class="cls-31" points="200.323 754.081 200.323 745.505 212.901 745.505"/><text class="cls-39" transform="translate(180.1621 720.7148) scale(1 1.0605)">FWD</text><text class="cls-40" transform="translate(184.2373 734.6484) scale(1 1.1297)">REV</text><rect class="cls-37" x="213.0154" y="716.4102" width="3.1791" height="3.4581"/><rect class="cls-37" x="212.6934" y="730.1237" width="3.1791" height="3.4581"/><rect class="cls-37" x="212.6646" y="743.8705" width="3.1791" height="3.4581"/><line class="cls-41" x1="585.5336" y1="758.538" x2="590.6073" y2="758.538"/><line class="cls-41" x1="583.5245" y1="756.3868" x2="592.6285" y2="756.3868"/><line class="cls-41" x1="581.3082" y1="754.2396" x2="594.8406" y2="754.2396"/><line class="cls-41" x1="583.6666" y1="731.7573" x2="575.642" y2="731.7573"/><line class="cls-41" x1="583.6625" y1="718.1924" x2="575.6379" y2="718.1924"/><polyline class="cls-41" points="588.074 754.239 588.074 745.716 575.642 745.716"/><text class="cls-39" transform="translate(584.542 721.0605) scale(1 1.0605)">S</text><text class="cls-40" transform="translate(585.1982 735.2344) scale(1 1.1297)">5V</text><rect class="cls-37" x="572.2264" y="716.3654" width="3.1791" height="3.4581"/><rect class="cls-37" x="572.4345" y="729.8933" width="3.1791" height="3.4581"/><rect class="cls-37" x="572.3877" y="743.8375" width="3.1791" height="3.4581"/><line class="cls-31" x1="749.2457" y1="710.9132" x2="754.3194" y2="710.9132"/><line class="cls-31" x1="747.2366" y1="708.766" x2="756.3366" y2="708.766"/><line class="cls-31" x1="745.0244" y1="706.6189" x2="758.5568" y2="706.6189"/><line class="cls-31" x1="724.3884" y1="695.6437" x2="724.3884" y2="703.5545"/><line class="cls-31" x1="738.0831" y1="695.7045" x2="738.0831" y2="713.8439"/><line class="cls-31" x1="751.7738" y1="695.6437" x2="751.7738" y2="706.9884"/><text class="cls-36" transform="translate(721.0781 712.8965) scale(1 1.0056)">S</text><text class="cls-36" transform="translate(731.8965 723.9043) scale(1 1.0056)">6V</text><rect class="cls-37" x="722.6886" y="692.3734" width="3.1791" height="3.4581"/><rect class="cls-37" x="736.4866" y="692.3734" width="3.1791" height="3.4581"/><rect class="cls-37" x="750.1279" y="692.3734" width="3.1791" height="3.4581"/><path class="cls-42" d="M606.2706,648.0058a6.8485,6.8485,0,0,0,6.8555-6.8393"/><path class="cls-42" d="M606.2706,634.3151a6.853,6.853,0,0,0-6.8394,6.8516"/><text class="cls-43" transform="translate(566.8262 661.2109) scale(1 1.0349)">A<tspan class="cls-44" x="6.9185" y="0">CCELEROMETER</tspan></text><text class="cls-45" transform="translate(601.9512 608.043) scale(1 1.0349)">Y</text><text class="cls-45" transform="translate(589.4033 635.6387) scale(1 1.0349)">Z</text><text class="cls-45" transform="translate(634.748 645.1211) scale(1 1.0349)">X</text><line class="cls-46" x1="630.2871" y1="641.5074" x2="606.2746" y2="641.5074"/><line class="cls-46" x1="606.2706" y1="641.5074" x2="606.2706" y2="614.4021"/><path class="cls-31" d="M606.2706,648.0058a6.8454,6.8454,0,1,0-6.8394-6.8393A6.8485,6.8485,0,0,0,606.2706,648.0058Z"/><polyline class="cls-12" points="633.912 641.507 629.187 639.685 630.307 641.507 629.187 643.326"/><polyline class="cls-47" points="633.912 641.507 629.187 639.685 630.307 641.507 629.187 643.326"/><polyline class="cls-12" points="606.271 610.899 604.472 615.632 606.271 614.163 608.081 615.632 606.271 610.899"/><polyline class="cls-47" points="606.271 610.899 604.472 615.632 606.271 614.163 608.081 615.632 606.271 610.899"/><line class="cls-48" x1="629.1872" y1="643.3258" x2="633.9117" y2="641.5074"/><line class="cls-47" x1="629.1872" y1="643.3258" x2="633.9117" y2="641.5074"/><path class="cls-12" d="M606.2746,642.7129a1.5465,1.5465,0,1,0-1.5424-1.5464,1.552,1.552,0,0,0,1.5424,1.5464"/><path class="cls-31" d="M606.2746,642.7129a1.5465,1.5465,0,1,0-1.5424-1.5464A1.552,1.552,0,0,0,606.2746,642.7129Z"/><line class="cls-42" x1="610.9808" y1="269.5561" x2="652.0609" y2="269.5561"/><line class="cls-31" x1="602.2502" y1="245.5841" x2="625.938" y2="245.5841"/><line class="cls-31" x1="602.2502" y1="231.8894" x2="625.938" y2="231.8894"/><line class="cls-31" x1="602.2504" y1="218.1988" x2="625.9382" y2="218.1988"/><line class="cls-31" x1="610.9849" y1="166.8535" x2="610.9849" y2="269.5561"/><line class="cls-31" x1="602.2502" y1="204.508" x2="625.938" y2="204.508"/><line class="cls-31" x1="602.2502" y1="190.8214" x2="625.938" y2="190.8214"/><line class="cls-31" x1="652.0652" y1="269.5677" x2="652.0652" y2="166.8652"/><line class="cls-42" x1="652.0651" y1="166.8494" x2="610.9849" y2="166.8494"/><line class="cls-49" x1="636.6575" y1="245.5923" x2="660.3493" y2="245.5923"/><line class="cls-49" x1="602.2502" y1="245.5841" x2="625.938" y2="245.5841"/><line class="cls-49" x1="602.2461" y1="231.8935" x2="625.9339" y2="231.8935"/><line class="cls-49" x1="636.6534" y1="231.8935" x2="660.3452" y2="231.8935"/><line class="cls-49" x1="602.2461" y1="218.2027" x2="625.9339" y2="218.2027"/><line class="cls-49" x1="636.6534" y1="218.2027" x2="660.3452" y2="218.2027"/><line class="cls-49" x1="591.352" y1="181.981" x2="591.352" y2="190.8862"/><line class="cls-49" x1="602.2461" y1="204.508" x2="625.9339" y2="204.508"/><line class="cls-49" x1="636.6534" y1="204.508" x2="660.3452" y2="204.508"/><line class="cls-49" x1="588.8111" y1="195.1887" x2="593.8887" y2="195.1887"/><line class="cls-49" x1="586.8061" y1="193.0374" x2="595.906" y2="193.0374"/><line class="cls-49" x1="584.5898" y1="190.8903" x2="598.1181" y2="190.8903"/><line class="cls-49" x1="602.2461" y1="190.8133" x2="625.9339" y2="190.8133"/><line class="cls-49" x1="636.6534" y1="190.8133" x2="660.3452" y2="190.8133"/><rect class="cls-49" x="610.9849" y="166.8536" width="41.0802" height="102.7025"/><text class="cls-34" transform="translate(662.458 193.7441) scale(1 1.0115)">CS0</text><text class="cls-34" transform="translate(662.4512 207.4209) scale(1 1.0115)">CS1</text><text class="cls-34" transform="translate(662.4434 221.3633) scale(1 1.0115)">5V</text><text class="cls-34" transform="translate(662.4355 235.1177) scale(1 1.0115)">CS2</text><text class="cls-34" transform="translate(662.6279 248.8223) scale(1 1.0115)">CS3</text><text class="cls-34" transform="translate(570.4624 208.3457) scale(1 1.0115)">SCLK</text><text class="cls-34" transform="translate(569.1689 222.043) scale(1 1.0115)">MOSI</text><text class="cls-34" transform="translate(569.1611 235.7974) scale(1 1.0115)">MISO</text><text class="cls-34" transform="translate(576.2891 249.9883) scale(1 1.0115)">3.3V</text><rect class="cls-37" x="624.3095" y="188.797" width="3.1791" height="3.4581"/><rect class="cls-37" x="624.3095" y="202.4836" width="3.1791" height="3.4581"/><rect class="cls-37" x="624.3097" y="216.1744" width="3.1791" height="3.4581"/><rect class="cls-37" x="624.3095" y="229.865" width="3.1791" height="3.4581"/><rect class="cls-37" x="624.3095" y="243.5597" width="3.1791" height="3.4581"/><rect class="cls-37" x="635.029" y="243.5679" width="3.1791" height="3.4581"/><rect class="cls-37" x="635.0249" y="229.8691" width="3.1791" height="3.4581"/><rect class="cls-37" x="635.0249" y="216.1783" width="3.1791" height="3.4581"/><rect class="cls-37" x="635.0249" y="202.4836" width="3.1791" height="3.4581"/><rect class="cls-37" x="635.0249" y="188.7889" width="3.1791" height="3.4581"/><text class="cls-10" transform="translate(617.8691 156.5029)">SPI</text></g><g id="Shader"><g class="cls-50"><path class="cls-48" d="M53.0859,781.6182A50.1428,50.1428,0,0,1,3,731.5322V53.0859A50.1424,50.1424,0,0,1,53.0859,3H743.1943A50.1425,50.1425,0,0,1,793.28,53.0859V731.5322a50.1428,50.1428,0,0,1-50.086,50.086ZM691.3145,264.4219a11.4128,11.4128,0,0,0-11.4,11.4v399.146a11.4133,11.4133,0,0,0,11.4,11.4H771.45a11.413,11.413,0,0,0,11.4-11.4V275.8218a11.4125,11.4125,0,0,0-11.4-11.4Z"/></g><path class="cls-51" d="M743.1941,6A47.0872,47.0872,0,0,1,790.28,53.086V731.532a47.0858,47.0858,0,0,1-47.0859,47.086H53.0859A47.0858,47.0858,0,0,1,6,731.532V53.086A47.0872,47.0872,0,0,1,53.0859,6H743.1941m-51.88,683.3679H771.45a14.4,14.4,0,0,0,14.4-14.4V275.822a14.4,14.4,0,0,0-14.4-14.4H691.3145a14.4,14.4,0,0,0-14.4,14.4V674.9679a14.4,14.4,0,0,0,14.4,14.4M743.1941,0H53.0859A53.1461,53.1461,0,0,0,0,53.086V731.532a53.1461,53.1461,0,0,0,53.0859,53.086H743.1941A53.1461,53.1461,0,0,0,796.28,731.532V53.086A53.1461,53.1461,0,0,0,743.1941,0Zm-51.88,683.3679a8.41,8.41,0,0,1-8.4-8.4V275.822a8.41,8.41,0,0,1,8.4-8.4H771.45a8.41,8.41,0,0,1,8.4,8.4V674.9679a8.41,8.41,0,0,1-8.4,8.4Z"/></g><g id="Edge_Fix_TOP_" data-name="Edge Fix (TOP)"><path class="cls-12" d="M-1.3862-1.5517v787.72H796.6317V-1.5517ZM748.3606,777.2654l-698.0228.5137c-25.7844-2.0646-41.7151-20.1636-44.8769-45.14l.764-685.6649c2.03-21.1,20.1643-39.3677,40.9884-41.6014l700.17.1456c21.0428,2.4863,38.8976,20.007,41.9894,40.9877l.0759,684.1015C789.4741,755.8415,773.2885,773.0087,748.3606,777.2654Z"/></g></svg>