<svg xmlns="http://www.w3.org/2000/svg" viewBox="0 0 800 785"><defs><style>.cls-1{fill:#434343;}.cls-2{fill:#4f4e51;}.cls-3{fill:#323031;}.cls-4{fill:#424242;}.cls-5{fill:#6a5f27;}.cls-6{fill:#5a5a5d;}.cls-7{fill:#f2f2f2;}.cls-8{fill:#221f1f;}.cls-13,.cls-30,.cls-31,.cls-41,.cls-42,.cls-46,.cls-47,.cls-49,.cls-9{fill:none;}.cls-9{stroke:#5a5a5d;stroke-width:5.416px;}.cls-13,.cls-9{stroke-miterlimit:10;}.cls-10{font-size:16.248px;}.cls-10,.cls-11,.cls-12,.cls-17,.cls-22,.cls-29,.cls-32,.cls-33,.cls-34,.cls-36,.cls-37,.cls-38,.cls-39,.cls-40,.cls-43,.cls-45{fill:#fff;}.cls-10,.cls-11,.cls-17,.cls-22,.cls-29,.cls-33,.cls-34,.cls-36,.cls-39,.cls-40,.cls-43,.cls-45{font-family:Heebo-Light, Heebo;font-weight:300;}.cls-11{font-size:10.832px;}.cls-13,.cls-31,.cls-32,.cls-37,.cls-38,.cls-46,.cls-47,.cls-49{stroke:#fff;}.cls-13{stroke-width:2.708px;}.cls-14{letter-spacing:0.009em;}.cls-15{letter-spacing:-0.058em;}.cls-16{letter-spacing:-0.031em;}.cls-17{font-size:11.7401px;}.cls-18{fill:#9b9b9b;}.cls-19{fill:#171717;}.cls-20{fill:#f3ea07;}.cls-21{fill:#7cc244;}.cls-22{font-size:32.496px;}.cls-23{letter-spacing:-0.013em;}.cls-24{letter-spacing:0em;}.cls-25{fill:#51545a;}.cls-26{fill:#3c3d42;}.cls-27{fill:#5a5d65;}.cls-28{fill:#23446c;}.cls-29{font-size:11.1981px;}.cls-30,.cls-41{stroke:#f1f2f2;}.cls-30,.cls-31,.cls-32,.cls-38,.cls-41,.cls-42,.cls-46{stroke-miterlimit:2;}.cls-31,.cls-32,.cls-37,.cls-38,.cls-41,.cls-42,.cls-49{stroke-width:0.686px;}.cls-32,.cls-37,.cls-47{stroke-linecap:round;}.cls-33{font-size:10.9221px;}.cls-34{font-size:11.699px;}.cls-35{letter-spacing:-0.019em;}.cls-36{font-size:10.9278px;}.cls-37,.cls-47,.cls-49{stroke-linejoin:round;}.cls-39{font-size:9.9074px;}.cls-40{font-size:9.6078px;}.cls-42{stroke:#020202;}.cls-43,.cls-45{font-size:11.4352px;}.cls-43{letter-spacing:-0.02em;}.cls-44{letter-spacing:0.0001em;}.cls-46{stroke-width:0.588px;}.cls-47{stroke-width:0.506px;}.cls-48{fill:#231f20;}.cls-50{opacity:0.33;}.cls-51{fill:#00aeef;}</style></defs><g id="roboRIO"><path class="cls-1" d="M742.9688,776.7131,43.75,777.6442A41.8157,41.8157,0,0,1,1.99,735.773V44.84A41.8156,41.8156,0,0,1,43.75,2.9693l704.5445-.9311a41.8156,41.8156,0,0,1,41.76,41.8711V729.5018c2.3995,27.8894-12.3474,47.6875-38.9832,47.21"/><rect class="cls-2" x="14.3849" y="17.624" width="763.4358" height="747.9174" rx="29.4466"/><rect class="cls-3" x="20.7854" y="278.835" width="46.329" height="413.1708"/><path class="cls-4" d="M549.7845,136.0786H237.4305a19.4986,19.4986,0,0,1-19.4981-19.4978V36.0547a19.4986,19.4986,0,0,1,19.4981-19.4981h312.354a19.4986,19.4986,0,0,1,19.4978,19.4981v80.5261a19.4985,19.4985,0,0,1-19.4978,19.4978"/><rect class="cls-3" x="252.4466" y="521.2578" width="279.7219" height="51.5601"/><path class="cls-5" d="M46.4289,301.4048a2.7241,2.7241,0,1,1-2.7241-2.7239,2.723,2.723,0,0,1,2.7241,2.7239"/><path class="cls-5" d="M34.2375,301.4048a2.7241,2.7241,0,1,1-2.7222-2.7239,2.7212,2.7212,0,0,1,2.7222,2.7239"/><path class="cls-5" d="M59.1106,301.4048a2.7231,2.7231,0,1,1-2.7222-2.7239,2.7213,2.7213,0,0,1,2.7222,2.7239"/><path class="cls-5" d="M46.4289,342.6365a2.7241,2.7241,0,1,1-2.7241-2.7236,2.723,2.723,0,0,1,2.7241,2.7236"/><path class="cls-5" d="M34.2375,342.6365a2.7241,2.7241,0,1,1-2.7222-2.7236,2.7212,2.7212,0,0,1,2.7222,2.7236"/><path class="cls-5" d="M59.1106,342.6365a2.7231,2.7231,0,1,1-2.7222-2.7236,2.7213,2.7213,0,0,1,2.7222,2.7236"/><path class="cls-5" d="M46.4289,383.8683a2.7241,2.7241,0,1,1-2.7241-2.7235,2.723,2.723,0,0,1,2.7241,2.7235"/><path class="cls-5" d="M34.2375,383.8683a2.7241,2.7241,0,1,1-2.7222-2.7235,2.7212,2.7212,0,0,1,2.7222,2.7235"/><path class="cls-5" d="M59.1106,383.8683a2.7231,2.7231,0,1,1-2.7222-2.7235,2.7213,2.7213,0,0,1,2.7222,2.7235"/><path class="cls-5" d="M46.4289,425.1a2.7241,2.7241,0,1,1-2.7241-2.7232A2.7231,2.7231,0,0,1,46.4289,425.1"/><path class="cls-5" d="M34.2375,425.1a2.7241,2.7241,0,1,1-2.7222-2.7232A2.7213,2.7213,0,0,1,34.2375,425.1"/><path class="cls-5" d="M59.1106,425.1a2.7231,2.7231,0,1,1-2.7222-2.7232A2.7213,2.7213,0,0,1,59.1106,425.1"/><path class="cls-5" d="M46.4289,466.3318a2.7241,2.7241,0,1,1-2.7241-2.723,2.723,2.723,0,0,1,2.7241,2.723"/><path class="cls-5" d="M34.2375,466.3318a2.7241,2.7241,0,1,1-2.7222-2.723,2.7212,2.7212,0,0,1,2.7222,2.723"/><path class="cls-5" d="M59.1106,466.3318a2.7231,2.7231,0,1,1-2.7222-2.723,2.7213,2.7213,0,0,1,2.7222,2.723"/><path class="cls-5" d="M46.4289,507.5636a2.7241,2.7241,0,1,1-2.7241-2.7228,2.7231,2.7231,0,0,1,2.7241,2.7228"/><path class="cls-5" d="M34.2375,507.5636a2.7241,2.7241,0,1,1-2.7222-2.7228,2.7213,2.7213,0,0,1,2.7222,2.7228"/><path class="cls-5" d="M59.1106,507.5636a2.7231,2.7231,0,1,1-2.7222-2.7228,2.7213,2.7213,0,0,1,2.7222,2.7228"/><path class="cls-5" d="M46.4289,548.7953a2.7241,2.7241,0,1,1-2.7241-2.7226,2.723,2.723,0,0,1,2.7241,2.7226"/><path class="cls-5" d="M34.2375,548.7953a2.7241,2.7241,0,1,1-2.7222-2.7226,2.7212,2.7212,0,0,1,2.7222,2.7226"/><path class="cls-5" d="M59.1106,548.7953a2.7231,2.7231,0,1,1-2.7222-2.7226,2.7213,2.7213,0,0,1,2.7222,2.7226"/><path class="cls-5" d="M46.4289,590.0271a2.7241,2.7241,0,1,1-2.7241-2.7224,2.723,2.723,0,0,1,2.7241,2.7224"/><path class="cls-5" d="M34.2375,590.0271a2.7241,2.7241,0,1,1-2.7222-2.7224,2.7212,2.7212,0,0,1,2.7222,2.7224"/><path class="cls-5" d="M59.1106,590.0271a2.7231,2.7231,0,1,1-2.7222-2.7224,2.7212,2.7212,0,0,1,2.7222,2.7224"/><path class="cls-5" d="M46.4289,631.2588a2.7241,2.7241,0,1,1-2.7241-2.7221,2.723,2.723,0,0,1,2.7241,2.7221"/><path class="cls-5" d="M34.2375,631.2588a2.7241,2.7241,0,1,1-2.7222-2.7221,2.7212,2.7212,0,0,1,2.7222,2.7221"/><path class="cls-5" d="M59.1106,631.2588a2.7231,2.7231,0,1,1-2.7222-2.7221,2.7213,2.7213,0,0,1,2.7222,2.7221"/><path class="cls-5" d="M46.4289,672.4906a2.7241,2.7241,0,1,1-2.7241-2.7219,2.723,2.723,0,0,1,2.7241,2.7219"/><path class="cls-5" d="M34.2375,672.4906a2.7241,2.7241,0,1,1-2.7222-2.7219,2.7212,2.7212,0,0,1,2.7222,2.7219"/><path class="cls-5" d="M59.1106,672.4906a2.7231,2.7231,0,1,1-2.7222-2.7219,2.7212,2.7212,0,0,1,2.7222,2.7219"/><rect class="cls-3" x="22.1604" y="223.8418" width="45.05" height="36.188"/><path class="cls-5" d="M47.41,241.936a2.7242,2.7242,0,1,1-2.7242-2.7219A2.7231,2.7231,0,0,1,47.41,241.936"/><path class="cls-5" d="M35.218,241.936a2.7241,2.7241,0,1,1-2.7221-2.7219,2.7212,2.7212,0,0,1,2.7221,2.7219"/><path class="cls-5" d="M60.0911,241.936a2.723,2.723,0,1,1-2.7222-2.7219,2.7212,2.7212,0,0,1,2.7222,2.7219"/><rect class="cls-3" x="22.1604" y="160.4358" width="60.6521" height="39.05"/><path class="cls-5" d="M48.6809,179.96a2.7241,2.7241,0,1,1-2.7241-2.722,2.7247,2.7247,0,0,1,2.7241,2.722"/><path class="cls-5" d="M36.49,179.96a2.7241,2.7241,0,1,1-2.7221-2.722A2.7229,2.7229,0,0,1,36.49,179.96"/><path class="cls-5" d="M61.3626,179.96a2.7231,2.7231,0,1,1-2.7222-2.722,2.7229,2.7229,0,0,1,2.7222,2.722"/><path class="cls-5" d="M73.929,179.96a2.7242,2.7242,0,1,1-2.7222-2.722,2.7229,2.7229,0,0,1,2.7222,2.722"/><rect class="cls-3" x="225.3859" y="708.6141" width="158.48" height="45.05"/><path class="cls-5" d="M243.4818,728.416a2.723,2.723,0,1,1-2.7241,2.722,2.7211,2.7211,0,0,1,2.7241-2.722"/><path class="cls-5" d="M243.4818,740.6054a2.7241,2.7241,0,1,1-2.7241,2.7241,2.7216,2.7216,0,0,1,2.7241-2.7241"/><path class="cls-5" d="M243.4818,715.7324a2.7241,2.7241,0,1,1-2.7241,2.722,2.7211,2.7211,0,0,1,2.7241-2.722"/><rect class="cls-3" x="265.8378" y="708.6141" width="36.188" height="45.05"/><path class="cls-5" d="M283.933,728.416a2.723,2.723,0,1,1-2.7222,2.722,2.7228,2.7228,0,0,1,2.7222-2.722"/><path class="cls-5" d="M283.933,740.6054a2.7241,2.7241,0,1,1-2.7222,2.7241,2.7233,2.7233,0,0,1,2.7222-2.7241"/><path class="cls-5" d="M283.933,715.7324a2.7241,2.7241,0,1,1-2.7222,2.722,2.7228,2.7228,0,0,1,2.7222-2.722"/><rect class="cls-3" x="347.6779" y="708.6141" width="36.188" height="45.05"/><path class="cls-5" d="M365.7728,728.416a2.723,2.723,0,1,1-2.7221,2.722,2.7228,2.7228,0,0,1,2.7221-2.722"/><path class="cls-5" d="M365.7728,740.6054a2.7241,2.7241,0,1,1-2.7221,2.7241,2.7233,2.7233,0,0,1,2.7221-2.7241"/><path class="cls-5" d="M365.7728,715.7324a2.7241,2.7241,0,1,1-2.7221,2.722,2.7228,2.7228,0,0,1,2.7221-2.722"/><rect class="cls-3" x="306.7819" y="708.6141" width="36.188" height="45.05"/><path class="cls-5" d="M324.8763,728.416a2.723,2.723,0,1,1-2.7221,2.722,2.7212,2.7212,0,0,1,2.7221-2.722"/><path class="cls-5" d="M324.8763,740.6054a2.7241,2.7241,0,1,1-2.7221,2.7241,2.7216,2.7216,0,0,1,2.7221-2.7241"/><path class="cls-5" d="M324.8763,715.7324a2.7241,2.7241,0,1,1-2.7221,2.722,2.7212,2.7212,0,0,1,2.7221-2.722"/><rect class="cls-3" x="401.9145" y="708.5061" width="158.48" height="45.05"/><path class="cls-5" d="M420.0076,728.308a2.723,2.723,0,1,1-2.7222,2.722,2.7215,2.7215,0,0,1,2.7222-2.722"/><path class="cls-5" d="M420.0076,740.4974a2.7241,2.7241,0,1,1-2.7222,2.7241,2.722,2.722,0,0,1,2.7222-2.7241"/><path class="cls-5" d="M420.0076,715.6244a2.7241,2.7241,0,1,1-2.7222,2.722,2.7215,2.7215,0,0,1,2.7222-2.722"/><rect class="cls-3" x="442.3664" y="708.5061" width="36.188" height="45.05"/><path class="cls-5" d="M460.4607,728.308a2.723,2.723,0,1,1-2.7241,2.722,2.7211,2.7211,0,0,1,2.7241-2.722"/><path class="cls-5" d="M460.4607,740.4974a2.7241,2.7241,0,1,1-2.7241,2.7241,2.7216,2.7216,0,0,1,2.7241-2.7241"/><path class="cls-5" d="M460.4607,715.6244a2.7241,2.7241,0,1,1-2.7241,2.722,2.7211,2.7211,0,0,1,2.7241-2.722"/><rect class="cls-3" x="524.2065" y="708.5061" width="36.188" height="45.05"/><path class="cls-5" d="M542.3005,728.308a2.723,2.723,0,1,1-2.7241,2.722,2.7212,2.7212,0,0,1,2.7241-2.722"/><path class="cls-5" d="M542.3005,740.4974a2.7241,2.7241,0,1,1-2.7241,2.7241,2.7216,2.7216,0,0,1,2.7241-2.7241"/><path class="cls-5" d="M542.3005,715.6244a2.7241,2.7241,0,1,1-2.7241,2.722,2.7212,2.7212,0,0,1,2.7241-2.722"/><rect class="cls-3" x="483.3086" y="708.5061" width="36.1899" height="45.05"/><path class="cls-5" d="M501.404,728.308a2.723,2.723,0,1,1-2.7241,2.722,2.7211,2.7211,0,0,1,2.7241-2.722"/><path class="cls-5" d="M501.404,740.4974a2.7241,2.7241,0,1,1-2.7241,2.7241,2.7216,2.7216,0,0,1,2.7241-2.7241"/><path class="cls-5" d="M501.404,715.6244a2.7241,2.7241,0,1,1-2.7241,2.722,2.7211,2.7211,0,0,1,2.7241-2.722"/><rect class="cls-6" x="26.9246" y="86.4438" width="43.512" height="24.8181"/><rect class="cls-7" x="36.7007" y="91.0979" width="27.9199" height="14.7339"/><path class="cls-8" d="M49.6907,98.854a9.791,9.791,0,1,1-9.7922-9.792,9.79,9.79,0,0,1,9.7922,9.792"/><rect class="cls-6" x="26.9246" y="111.2619" width="43.512" height="24.8159"/><rect class="cls-7" x="36.7007" y="115.916" width="27.9199" height="14.7339"/><path class="cls-8" d="M49.6907,123.67a9.791,9.791,0,1,1-9.7922-9.792,9.7922,9.7922,0,0,1,9.7922,9.792"/><polygon class="cls-3" points="140.927 24.311 140.927 58.285 133.541 58.285 133.541 98.465 140.927 98.465 140.927 123.671 176.377 123.671 176.377 98.465 191.885 98.465 191.885 56.807 178.593 56.069 177.855 24.311 140.927 24.311"/><path class="cls-8" d="M168.4427,39.4458a9.7911,9.7911,0,1,1-9.7923-9.792,9.7923,9.7923,0,0,1,9.7923,9.792"/><path class="cls-8" d="M168.4427,108.4321A9.7911,9.7911,0,1,1,158.65,98.64a9.7909,9.7909,0,0,1,9.7923,9.792"/><rect class="cls-8" x="162.7146" y="62.6179" width="25.478" height="10.3379"/><rect class="cls-8" x="162.7146" y="81.0898" width="25.478" height="10.3401"/><path class="cls-7" d="M357.98,619.4046h-3.0762a82.8634,82.8634,0,0,1-6.85-8.9439h-.042v8.9439H344.39v-15.27h3.3379c2.2041,2.7059,5.4961,6.6759,6.5881,8.7479h.042v-8.7479H357.98v15.27"/><path class="cls-7" d="M368.6482,604.1343l5.802,15.27h-4.886l-1.2-3.642H363.63l-1.462,3.642H358.57l6.2159-15.27Zm-1.0259,9.2059c-.5022-1.81-.9382-3.272-1.4841-5.454h-.0439c-.5882,2.182-1.1121,3.6441-1.68,5.454h3.208"/><polygon class="cls-7" points="375.911 619.405 375.911 606.993 371.505 606.993 371.505 604.135 384.921 604.135 384.921 606.993 380.515 606.993 380.515 619.405 375.911 619.405"/><rect class="cls-7" x="386.4046" y="604.1358" width="4.604" height="15.27"/><path class="cls-7" d="M392.1172,611.5961a7.5921,7.5921,0,1,1,15.1819,0c0,4.5581-2.9019,8.07-7.592,8.07s-7.59-3.5119-7.59-8.07m10.3821,0c0-2.706-.8281-4.538-2.7922-4.538s-2.792,1.832-2.792,4.538c0,2.878.7422,4.884,2.792,4.884s2.7922-2.006,2.7922-4.884"/><path class="cls-7" d="M421.9993,619.4046h-3.0742a82.3506,82.3506,0,0,1-6.85-8.9439h-.0439v8.9439h-3.6221v-15.27h3.3379c2.2041,2.7059,5.4961,6.6759,6.5881,8.7479h.044v-8.7479h3.62v15.27"/><path class="cls-7" d="M432.449,604.1343l5.802,15.27h-4.884l-1.2019-3.642h-4.7342l-1.4619,3.642h-3.5979l6.2178-15.27Zm-1.0259,9.2059c-.5-1.81-.9382-3.272-1.4822-5.454h-.0439c-.59,2.182-1.1121,3.6441-1.6819,5.454h3.208"/><polygon class="cls-7" points="439.279 604.135 443.88 604.135 443.88 616.547 449.464 616.547 449.464 619.405 439.279 619.405 439.279 604.135"/><rect class="cls-7" x="337.5166" y="624.1339" width="4.604" height="15.272"/><path class="cls-7" d="M357.6712,639.4046H354.597a82.6608,82.6608,0,0,1-6.8519-8.9459h-.0419v8.9459h-3.6221V624.1327h3.3379c2.2041,2.706,5.498,6.676,6.5881,8.748h.042v-8.748h3.6221v15.2719"/><path class="cls-7" d="M367.38,627.2972a4.3444,4.3444,0,0,0-2.2481-.568c-.894,0-1.352.4381-1.352.94,0,.848,1.288,1.548,2.7719,2.92,1.96,1.834,2.4419,2.99,2.4419,4.584,0,1.35-1.1118,4.494-5.6938,4.494a7.7349,7.7349,0,0,1-4.7981-1.398l1.396-2.53a4.3224,4.3224,0,0,0,2.6159,1.068c.9161,0,1.92-.458,1.92-1.5919,0-1.22-1.4841-2.1161-2.6821-3.162-1.5921-1.396-2.532-2.206-2.532-4.08,0-2.444,2.4641-4.102,5.3459-4.102a8.1254,8.1254,0,0,1,3.9922,1.026l-1.1779,2.4"/><polygon class="cls-7" points="373.531 639.405 373.531 626.991 369.125 626.991 369.125 624.133 382.538 624.133 382.538 626.991 378.134 626.991 378.134 639.405 373.531 639.405"/><path class="cls-7" d="M384.02,624.1326h6.8079c3.5979,0,5.54,1.572,5.54,4.08a4.58,4.58,0,0,1-2.574,4.406l3.38,6.546-4.928.5021-2.42-6.0441h-1.2019v5.782H384.02Zm4.604,6.6119h1.3079a1.8411,1.8411,0,0,0,1.832-1.876,1.6848,1.6848,0,0,0-1.918-1.8779h-1.2219v3.7539"/><path class="cls-7" d="M402.347,624.1333v7.9861c0,2.7459.4138,4.3619,2.3559,4.3619,1.5259,0,2.4-1.5279,2.4-4.428v-7.92h3.97v9.228c0,4.56-3.0979,6.306-6.5879,6.306-3.9041,0-6.7419-1.6379-6.7419-6.196v-9.338h4.604"/><path class="cls-7" d="M431.6438,639.4046h-4.602v-10.69H427c-1.18,3.9919-2.4,7.3521-3.624,10.69h-2.9c-1.2439-3.3378-2.4878-6.698-3.688-10.69h-.042v10.69h-3.6218V624.1327h6.2378c1.0481,2.924,2.094,5.826,3.12,9.402h.044c.9819-3.576,2.0061-6.478,3.01-9.402h6.1081v15.2719"/><polygon class="cls-7" points="442.88 626.991 438.212 626.991 438.212 630.003 442.772 630.003 442.772 632.861 438.212 632.861 438.212 636.545 443.82 636.545 443.82 639.405 433.61 639.405 433.61 624.133 442.88 624.133 442.88 626.991"/><path class="cls-7" d="M458.2376,639.4046h-3.0762a82.6128,82.6128,0,0,1-6.85-8.9459h-.042v8.9459h-3.6221V624.1327h3.3379c2.2041,2.706,5.4961,6.676,6.5881,8.748h.042v-8.748h3.6221v15.2719"/><polygon class="cls-7" points="463.474 639.405 463.474 626.991 459.068 626.991 459.068 624.133 472.484 624.133 472.484 626.991 468.078 626.991 468.078 639.405 463.474 639.405"/><path class="cls-7" d="M481.4915,627.2972a4.3421,4.3421,0,0,0-2.2461-.568c-.896,0-1.354.4381-1.354.94,0,.848,1.2881,1.548,2.77,2.92,1.9639,1.834,2.4439,2.99,2.4439,4.584,0,1.35-1.1119,4.494-5.6919,4.494a7.7372,7.7372,0,0,1-4.8-1.398l1.396-2.53a4.3324,4.3324,0,0,0,2.616,1.068c.916,0,1.92-.458,1.92-1.5919,0-1.22-1.4821-2.1161-2.6821-3.162-1.592-1.396-2.532-2.206-2.532-4.08,0-2.444,2.4661-4.102,5.346-4.102a8.1258,8.1258,0,0,1,3.9922,1.026l-1.178,2.4"/><path class="cls-7" d="M483.9341,626.7621v-2.16h-.82v-.276H485.17v.276h-.8162v2.16Zm4.4441,0h-.4241v-1.7959h-.0119l-.9641,1.7959h-.2l-.896-1.7959h-.008v1.7959h-.344v-2.4359h.488l.918,1.8259.9939-1.8259h.4482v2.4359"/><path class="cls-7" d="M320.8216,609.8988a5.8213,5.8213,0,0,1,4.2077-4.886c5.1541-1.464,7.9121-1.194,17.1541-1.27-5.54,4.9579-9.9639,12.77-8.9739,20.4139-1.99-1.63-3.334-3.96-5.062-5.822a19.2523,19.2523,0,0,0,1.668-3.8879c.612-2.312,2.278-2.858,4.39-2.7941.1582.006-.1241-1.78-.7081-1.938-1.5739-.426-2.906.08-4.7338-.6259a2.2275,2.2275,0,0,0-1.7439.332c-1.5.766-2.45,2.4039-4.1382,2.922Z"/><path class="cls-7" d="M292.5657,608.4027a25.0925,25.0925,0,0,1,9.9539-4.324c4.716-.8619,9.8259-.926,13.3479,2.47,6.654,6.408,12.0422,13.1339,17.8781,20.4559.23.288.21,1.0761.01,1.19a83.7248,83.7248,0,0,1-12.6721,5.934,2.1881,2.1881,0,0,1-2.03-.448c-6.6538-6.046-11.21-13.282-17.5959-19.5721a21.3232,21.3232,0,0,0-8.7239-5.186c-.2642-.0819-.312-.42-.168-.52"/><path class="cls-7" d="M315.82,637.9027a42.8284,42.8284,0,0,0-11.9382,12.718,26.5054,26.5054,0,0,1,.48-14.968c1.67-4.6759,1.99-9.2159,2.2119-14.09,3.0359,3.496,6.482,7.36,9.32,10.866Z"/><rect class="cls-3" x="263.6126" y="531.2458" width="260.228" height="32.484"/><path class="cls-5" d="M282.3587,550.5648a1.9641,1.9641,0,1,1-1.9641,1.9641,1.9631,1.9631,0,0,1,1.9641-1.9641"/><path class="cls-5" d="M282.3587,540.4846a1.9641,1.9641,0,1,1-1.9641,1.9641,1.9619,1.9619,0,0,1,1.9641-1.9641"/><path class="cls-5" d="M294.4505,550.5648a1.9641,1.9641,0,1,1-1.9641,1.9641,1.9631,1.9631,0,0,1,1.9641-1.9641"/><path class="cls-5" d="M294.4505,540.4846a1.9641,1.9641,0,1,1-1.9641,1.9641,1.9619,1.9619,0,0,1,1.9641-1.9641"/><path class="cls-5" d="M309.4075,550.5531a1.9641,1.9641,0,1,1-1.9641,1.9641,1.9618,1.9618,0,0,1,1.9641-1.9641"/><path class="cls-5" d="M309.4075,540.473a1.9641,1.9641,0,1,1-1.9641,1.9641,1.9619,1.9619,0,0,1,1.9641-1.9641"/><path class="cls-5" d="M321.4993,550.5531a1.9641,1.9641,0,1,1-1.9622,1.9641,1.9618,1.9618,0,0,1,1.9622-1.9641"/><path class="cls-5" d="M321.4993,540.473a1.9641,1.9641,0,1,1-1.9622,1.9641,1.9619,1.9619,0,0,1,1.9622-1.9641"/><path class="cls-5" d="M337.1087,550.5531a1.9641,1.9641,0,1,1-1.9641,1.9641,1.9618,1.9618,0,0,1,1.9641-1.9641"/><path class="cls-5" d="M337.1087,540.473a1.9641,1.9641,0,1,1-1.9641,1.962,1.9614,1.9614,0,0,1,1.9641-1.962"/><path class="cls-5" d="M349.2005,550.5531a1.9641,1.9641,0,1,1-1.9622,1.9641,1.9635,1.9635,0,0,1,1.9622-1.9641"/><path class="cls-5" d="M349.2005,540.473a1.9641,1.9641,0,1,1-1.9622,1.962,1.9631,1.9631,0,0,1,1.9622-1.962"/><path class="cls-5" d="M364.4153,550.5531a1.9641,1.9641,0,1,1-1.9621,1.9641,1.9623,1.9623,0,0,1,1.9621-1.9641"/><path class="cls-5" d="M364.4153,540.473a1.9641,1.9641,0,1,1-1.9621,1.962,1.9619,1.9619,0,0,1,1.9621-1.962"/><path class="cls-5" d="M379.0149,550.5531a1.9641,1.9641,0,1,1-1.9641,1.9641,1.9618,1.9618,0,0,1,1.9641-1.9641"/><path class="cls-5" d="M379.0149,540.473a1.9641,1.9641,0,1,1-1.9641,1.962,1.9614,1.9614,0,0,1,1.9641-1.962"/><path class="cls-5" d="M393.4661,550.5531a1.9641,1.9641,0,1,1-1.9622,1.9641,1.9623,1.9623,0,0,1,1.9622-1.9641"/><path class="cls-5" d="M393.4661,540.473a1.9641,1.9641,0,1,1-1.9622,1.9641,1.9624,1.9624,0,0,1,1.9622-1.9641"/><path class="cls-5" d="M406.3723,550.555a1.9631,1.9631,0,1,1-1.9621,1.9621,1.9619,1.9619,0,0,1,1.9621-1.9621"/><path class="cls-5" d="M406.3723,540.473a1.9641,1.9641,0,1,1-1.9621,1.9641,1.9623,1.9623,0,0,1,1.9621-1.9641"/><path class="cls-5" d="M419.5891,550.5531a1.9641,1.9641,0,1,1-1.9641,1.9641,1.9632,1.9632,0,0,1,1.9641-1.9641"/><path class="cls-5" d="M419.5891,540.473a1.9641,1.9641,0,1,1-1.9641,1.9641,1.962,1.962,0,0,1,1.9641-1.9641"/><path class="cls-5" d="M432.6087,550.5531a1.9641,1.9641,0,1,1-1.9641,1.9641,1.9618,1.9618,0,0,1,1.9641-1.9641"/><path class="cls-5" d="M432.6087,540.473a1.9641,1.9641,0,1,1-1.9641,1.9641,1.9619,1.9619,0,0,1,1.9641-1.9641"/><path class="cls-5" d="M447.5013,550.5531a1.9641,1.9641,0,1,1-1.9622,1.9641,1.9632,1.9632,0,0,1,1.9622-1.9641"/><path class="cls-5" d="M447.5013,540.473a1.9641,1.9641,0,1,1-1.9622,1.9641,1.962,1.962,0,0,1,1.9622-1.9641"/><path class="cls-5" d="M460.6673,550.5531a1.9641,1.9641,0,1,1-1.9622,1.9641,1.9635,1.9635,0,0,1,1.9622-1.9641"/><path class="cls-5" d="M460.6673,540.473a1.9641,1.9641,0,1,1-1.9622,1.9641,1.9635,1.9635,0,0,1,1.9622-1.9641"/><path class="cls-5" d="M473.6614,550.5531a1.9641,1.9641,0,1,1-1.9641,1.9641,1.9631,1.9631,0,0,1,1.9641-1.9641"/><path class="cls-5" d="M473.6614,540.473a1.9641,1.9641,0,1,1-1.9641,1.9641,1.9619,1.9619,0,0,1,1.9641-1.9641"/><path class="cls-5" d="M487.7161,550.555a1.9631,1.9631,0,1,1-1.9622,1.9621,1.962,1.962,0,0,1,1.9622-1.9621"/><path class="cls-5" d="M487.7161,540.473a1.9641,1.9641,0,1,1-1.9622,1.9641,1.9624,1.9624,0,0,1,1.9622-1.9641"/><path class="cls-5" d="M500.6165,550.555a1.9631,1.9631,0,1,1-1.9641,1.9621,1.9615,1.9615,0,0,1,1.9641-1.9621"/><path class="cls-5" d="M500.6165,540.473a1.9641,1.9641,0,1,1-1.9641,1.9641,1.9619,1.9619,0,0,1,1.9641-1.9641"/><polyline class="cls-9" points="377.423 527.813 260.019 527.813 260.019 567.141 524.213 567.141 524.213 527.813 408.781 527.813"/><path class="cls-5" d="M268.6946,181.2016a9.3811,9.3811,0,1,1-9.38-9.38,9.3807,9.3807,0,0,1,9.38,9.38"/><path class="cls-8" d="M264.73,181.2016a5.4161,5.4161,0,1,1-5.416-5.4157,5.4162,5.4162,0,0,1,5.416,5.4157"/><path class="cls-5" d="M535.5774,173.2759a9.3812,9.3812,0,1,1-13.268,0,9.3831,9.3831,0,0,1,13.268,0"/><path class="cls-8" d="M534.3606,179.9087a5.416,5.416,0,1,1-5.416-5.4158,5.4174,5.4174,0,0,1,5.416,5.4158"/><rect class="cls-3" x="603.8045" y="23.3618" width="51.5581" height="112.7161"/><rect class="cls-3" x="613.7786" y="26.7178" width="32.4861" height="104.8621"/><path class="cls-5" d="M633.0989,113.1255c0-.438.8779-.792,1.9619-.792s1.9639.354,1.9639.792-.88.7922-1.9639.7922-1.9619-.354-1.9619-.7922"/><path class="cls-5" d="M623.0169,113.1255c0-.438.8779-.792,1.9638-.792,1.084,0,1.9642.354,1.9642.792s-.88.7922-1.9642.7922c-1.0859,0-1.9638-.354-1.9638-.7922"/><path class="cls-5" d="M633.0989,108.2524c0-.438.8779-.792,1.9619-.792s1.9639.354,1.9639.792-.88.7923-1.9639.7923-1.9619-.354-1.9619-.7923"/><path class="cls-5" d="M623.0169,108.2524c0-.438.8779-.792,1.9638-.792,1.084,0,1.9642.354,1.9642.792s-.88.7923-1.9642.7923c-1.0859,0-1.9638-.354-1.9638-.7923"/><path class="cls-5" d="M633.0989,101.9634c0-.438.8779-.792,1.9619-.792s1.9639.354,1.9639.792-.88.7922-1.9639.7922-1.9619-.354-1.9619-.7922"/><path class="cls-5" d="M623.0169,101.9634c0-.438.8779-.792,1.9638-.792,1.084,0,1.9642.354,1.9642.792s-.88.7922-1.9642.7922c-1.0859,0-1.9638-.354-1.9638-.7922"/><path class="cls-5" d="M633.0989,97.09c0-.438.8779-.792,1.9619-.792s1.9639.354,1.9639.792-.88.7923-1.9639.7923-1.9619-.3541-1.9619-.7923"/><path class="cls-5" d="M623.0169,97.09c0-.438.8779-.792,1.9638-.792,1.084,0,1.9642.354,1.9642.792s-.88.7923-1.9642.7923c-1.0859,0-1.9638-.3541-1.9638-.7923"/><path class="cls-5" d="M633.0989,90.96c0-.438.8779-.792,1.9619-.792s1.9639.354,1.9639.792-.88.7922-1.9639.7922-1.9619-.354-1.9619-.7922"/><path class="cls-5" d="M623.0169,90.96c0-.438.8779-.792,1.9638-.792,1.084,0,1.9642.354,1.9642.792s-.88.7922-1.9642.7922c-1.0859,0-1.9638-.354-1.9638-.7922"/><path class="cls-5" d="M633.0989,85.0766c0-.4379.8779-.7919,1.9619-.7919s1.9639.354,1.9639.7919-.88.7923-1.9639.7923-1.9619-.354-1.9619-.7923"/><path class="cls-5" d="M623.0169,85.0766c0-.4379.8779-.7919,1.9638-.7919,1.084,0,1.9642.354,1.9642.7919s-.88.7923-1.9642.7923c-1.0859,0-1.9638-.354-1.9638-.7923"/><path class="cls-5" d="M633.0989,79.2524c0-.4358.8779-.792,1.9619-.792s1.9639.3562,1.9639.792c0,.4383-.88.7923-1.9639.7923s-1.9619-.354-1.9619-.7923"/><path class="cls-5" d="M623.0169,79.2524c0-.4358.8779-.792,1.9638-.792,1.084,0,1.9642.3562,1.9642.792,0,.4383-.88.7923-1.9642.7923-1.0859,0-1.9638-.354-1.9638-.7923"/><path class="cls-5" d="M633.0989,74.0532c0-.438.8779-.792,1.9619-.792,1.086,0,1.9661.354,1.9661.792,0,.436-.88.7922-1.9661.7922-1.084,0-1.9619-.3562-1.9619-.7922"/><path class="cls-5" d="M623.0188,74.0532c0-.438.878-.792,1.9619-.792s1.9639.354,1.9639.792c0,.436-.88.7922-1.9639.7922s-1.9619-.3562-1.9619-.7922"/><path class="cls-5" d="M633.0989,68.727c0-.438.8779-.792,1.9619-.792s1.9661.354,1.9661.792-.8821.7923-1.9661.7923-1.9619-.354-1.9619-.7923"/><path class="cls-5" d="M623.0169,68.727c0-.438.88-.792,1.9638-.792s1.9642.354,1.9642.792-.88.7923-1.9642.7923-1.9638-.354-1.9638-.7923"/><path class="cls-5" d="M633.0989,63.4809c0-.4379.8779-.792,1.9619-.792s1.9639.3541,1.9639.792-.88.7923-1.9639.7923-1.9619-.354-1.9619-.7923"/><path class="cls-5" d="M623.0169,63.4809c0-.4379.8779-.792,1.9638-.792,1.084,0,1.9642.3541,1.9642.792s-.88.7923-1.9642.7923c-1.0859,0-1.9638-.354-1.9638-.7923"/><path class="cls-5" d="M633.0989,57.479c0-.4358.8779-.792,1.9619-.792s1.9661.3562,1.9661.792c0,.4382-.8821.7922-1.9661.7922s-1.9619-.354-1.9619-.7922"/><path class="cls-5" d="M623.0169,57.479c0-.4358.88-.792,1.9638-.792s1.9642.3562,1.9642.792c0,.4382-.88.7922-1.9642.7922s-1.9638-.354-1.9638-.7922"/><path class="cls-5" d="M633.0989,52.1743c0-.438.8779-.792,1.9619-.792s1.9639.354,1.9639.792-.88.7922-1.9639.7922-1.9619-.354-1.9619-.7922"/><path class="cls-5" d="M623.0169,52.1743c0-.438.8779-.792,1.9638-.792,1.084,0,1.9642.354,1.9642.792s-.88.7922-1.9642.7922c-1.0859,0-1.9638-.354-1.9638-.7922"/><path class="cls-5" d="M633.0989,46.938c0-.438.8779-.792,1.9619-.792s1.9661.354,1.9661.792-.8821.7922-1.9661.7922-1.9619-.354-1.9619-.7922"/><path class="cls-5" d="M623.0169,46.938c0-.4358.88-.792,1.9638-.792s1.9642.3562,1.9642.792c0,.4382-.88.7922-1.9642.7922s-1.9638-.354-1.9638-.7922"/><polyline class="cls-9" points="610.359 85.717 610.359 133.025 649.685 133.025 649.685 26.569 610.359 26.569 610.359 73.083"/><text class="cls-10" transform="translate(76.8525 246.3945)">RS-232</text><text class="cls-10" transform="translate(94.4014 186.0625)">I</text><text class="cls-10" transform="translate(98.7334 180.6519) scale(0.583)">2</text><text class="cls-10" transform="translate(103.9873 186.0625)">C</text><text class="cls-10" transform="translate(32.5625 78.1602)">CAN</text><text class="cls-11" transform="translate(80.6445 101.4375)">L (GRN)</text><text class="cls-11" transform="translate(81.4805 126.2568)">H (YEL)</text><path class="cls-12" d="M101.8388,480.9211a4.4932,4.4932,0,0,1-1.8438,1.7481,5.8317,5.8317,0,0,1-2.749.6269H96.1825a5.82,5.82,0,0,1-2.7529-.6269,4.4807,4.4807,0,0,1-1.8408-1.76,5.1607,5.1607,0,0,1-.65-2.6113V475.14H102.49v3.23A5.0017,5.0017,0,0,1,101.8388,480.9211Zm-4.5772,1.4082a5.156,5.156,0,0,0,2.3125-.4922,3.6353,3.6353,0,0,0,1.5391-1.3886,3.9313,3.9313,0,0,0,.5439-2.0782v-2.2539H91.7636v2.1817a4.02,4.02,0,0,0,.5556,2.1347,3.6767,3.6767,0,0,0,1.5547,1.4043,5.16,5.16,0,0,0,2.3086.4922Z"/><path class="cls-12" d="M90.9384,486.0012H102.49v.9766H90.9384Z"/><path class="cls-12" d="M93.2909,498.0969a4.4132,4.4132,0,0,1-1.8564-6.2949,4.3011,4.3011,0,0,1,1.86-1.5879,6.56,6.56,0,0,1,2.8008-.5625h1.2373a6.5913,6.5913,0,0,1,2.8008.5586,4.2978,4.2978,0,0,1,1.86,1.58,4.2486,4.2486,0,0,1,.6543,2.3515,4.1575,4.1575,0,0,1-2.5107,3.9512,6.646,6.646,0,0,1-2.8047.5547H96.0956A6.6725,6.6725,0,0,1,93.2909,498.0969Zm6.4219-.8379a3.3727,3.3727,0,0,0,1.5391-1.2168,3.3142,3.3142,0,0,0,.54-1.9,3.2562,3.2562,0,0,0-.54-1.873,3.4125,3.4125,0,0,0-1.543-1.2168,6.0249,6.0249,0,0,0-2.36-.4258H96.0956a6.0068,6.0068,0,0,0-2.3682.43,3.4509,3.4509,0,0,0-1.5478,1.2246,3.257,3.257,0,0,0-.543,1.877,3.3085,3.3085,0,0,0,.5391,1.9043,3.3456,3.3456,0,0,0,1.5429,1.205,6.2293,6.2293,0,0,0,2.377.4141h1.2529A6.0506,6.0506,0,0,0,99.7128,497.259Z"/><polyline class="cls-13" points="85.589 298.68 96.797 298.68 96.797 464.252"/><polyline class="cls-13" points="96.798 509.535 96.798 666.012 85.59 666.012"/><text class="cls-10" transform="translate(283.8184 683.8428)">RE<tspan class="cls-14" x="19.5645" y="0">L</tspan><tspan class="cls-15" x="28.2783" y="0">A</tspan><tspan x="37.4912" y="0">Y</tspan></text><polyline class="cls-13" points="242.777 689.342 242.777 680.468 273.494 680.468"/><polyline class="cls-13" points="337.624 680.467 365.49 680.467 365.49 690.441"/><text class="cls-10" transform="translate(442.1729 683.8428)">ANA<tspan class="cls-16" x="31.8535" y="0">L</tspan><tspan x="39.918" y="0">OG IN</tspan></text><text class="cls-17" transform="translate(618.6982 696.4707)">RESET</text><text class="cls-17" transform="translate(674.877 696.4707)">USER</text><polyline class="cls-13" points="419.212 689.276 419.212 681.016 433.242 681.016"/><polyline class="cls-13" points="532.072 679.918 546.003 679.918 546.003 690.442"/><rect class="cls-3" x="98.9953" y="708.6141" width="39.958" height="45.05"/><path class="cls-5" d="M118.9735,728.4139a2.7241,2.7241,0,1,1-2.7222,2.7241,2.7246,2.7246,0,0,1,2.7222-2.7241"/><path class="cls-5" d="M118.9735,740.6054a2.7241,2.7241,0,1,1-2.7222,2.7221,2.7228,2.7228,0,0,1,2.7222-2.7221"/><text class="cls-10" transform="translate(104.7178 696.5586)">RSL</text><text class="cls-10" transform="translate(697.9395 496.6455) rotate(-90)">PWM</text><polyline class="cls-13" points="702.351 665.92 691.143 665.92 691.143 504.904"/><polyline class="cls-13" points="691.142 449.76 691.142 293.327 702.35 293.327"/><path class="cls-5" d="M340.554,86.6216a9.3811,9.3811,0,1,1-9.38-9.38,9.3807,9.3807,0,0,1,9.38,9.38"/><path class="cls-8" d="M336.5891,86.6216a5.416,5.416,0,1,1-5.416-5.4158,5.4174,5.4174,0,0,1,5.416,5.4158"/><path class="cls-5" d="M340.554,41.0923a9.3811,9.3811,0,1,1-9.38-9.378,9.3794,9.3794,0,0,1,9.38,9.378"/><path class="cls-8" d="M336.5891,41.0923a5.416,5.416,0,1,1-5.416-5.4138,5.4161,5.4161,0,0,1,5.416,5.4138"/><rect class="cls-18" x="232.5725" y="37.3618" width="66.468" height="53.384"/><polygon class="cls-19" points="250.113 42.821 281.316 42.821 288.887 50.577 288.887 85.287 242.729 85.287 242.729 50.761 250.113 42.821"/><path class="cls-5" d="M259.761,68.7192a1.9641,1.9641,0,1,1-1.9641,1.9622,1.9616,1.9616,0,0,1,1.9641-1.9622"/><path class="cls-5" d="M259.761,58.6391a1.9642,1.9642,0,1,1-1.9641,1.9622,1.9616,1.9616,0,0,1,1.9641-1.9622"/><path class="cls-5" d="M271.8528,68.7192a1.9641,1.9641,0,1,1-1.9621,1.9622,1.962,1.962,0,0,1,1.9621-1.9622"/><path class="cls-5" d="M271.8528,58.6391a1.9642,1.9642,0,1,1-1.9621,1.9622,1.962,1.962,0,0,1,1.9621-1.9622"/><rect class="cls-18" x="467.6407" y="26.4878" width="87.1479" height="92.3181"/><rect class="cls-19" x="478.4427" y="63.3518" width="65.5459" height="38.1741"/><rect class="cls-19" x="493.0266" y="101.5259" width="36.0039" height="8.8621"/><rect class="cls-19" x="499.4886" y="110.3879" width="23.2639" height="7.386"/><rect class="cls-20" x="469.5786" y="101.5259" width="23.448" height="13.292"/><rect class="cls-21" x="529.0305" y="101.5259" width="23.45" height="13.292"/><rect class="cls-18" x="365.3824" y="72.6477" width="75.3921" height="33.3101"/><rect class="cls-19" x="367.3804" y="73.99" width="71.4561" height="30.084"/><rect class="cls-18" x="365.4146" y="26.1677" width="75.3921" height="33.3101"/><rect class="cls-19" x="367.4124" y="27.5098" width="71.4541" height="30.084"/><text class="cls-10" transform="translate(78.792 38.2109)">INPUT</text><text class="cls-22" transform="translate(315.751 246.9189)">NI <tspan class="cls-23" x="39.668" y="0">r</tspan><tspan class="cls-24" x="50.1943" y="0">oboRIO</tspan></text><rect class="cls-6" x="370.3965" y="77.2397" width="65.3621" height="11.792"/><rect class="cls-6" x="370.3965" y="30.7619" width="65.3621" height="11.792"/><text class="cls-10" transform="translate(702.3252 92.6064)">POWER</text><rect class="cls-25" x="764.1382" y="79.2951" width="16.0342" height="15.1855"/><rect class="cls-26" x="779.3018" y="79.4144" width="10.6027" height="15.1855"/><text class="cls-10" transform="translate(697.9707 118.5664)">STATUS</text><rect class="cls-25" x="764.1382" y="105.2549" width="16.0342" height="15.1855"/><rect class="cls-26" x="779.3018" y="105.3742" width="10.6027" height="15.1855"/><text class="cls-10" transform="translate(711.0049 158.2188)">RADIO</text><rect class="cls-25" x="764.1382" y="145.1681" width="16.0342" height="15.1855"/><rect class="cls-26" x="779.3018" y="145.2874" width="10.6027" height="15.1855"/><text class="cls-10" transform="translate(707.792 185.0879)">COMM</text><rect class="cls-25" x="764.1382" y="171.7768" width="16.0342" height="15.1855"/><rect class="cls-26" x="779.3018" y="171.8962" width="10.6027" height="15.1855"/><text class="cls-10" transform="translate(712.5117 213.002)">MODE</text><rect class="cls-25" x="764.1382" y="198.3856" width="16.0342" height="15.1855"/><rect class="cls-26" x="779.3018" y="198.5049" width="10.6027" height="15.1855"/><text class="cls-10" transform="translate(728.9502 253.5469)">RSL</text><rect class="cls-25" x="764.1382" y="238.9314" width="16.0342" height="15.1855"/><rect class="cls-26" x="779.3018" y="239.0507" width="10.6027" height="15.1855"/><rect class="cls-27" x="608.2615" y="705.5338" width="108.8485" height="50.9946" rx="9.8548"/><rect class="cls-28" x="622.5281" y="717.3795" width="27.1208" height="27.3032" rx="13.5604"/><rect class="cls-28" x="675.7226" y="717.3795" width="27.1208" height="27.3032" rx="13.5604"/><rect class="cls-3" x="715.9712" y="271.7748" width="46.329" height="413.1708"/><path class="cls-5" d="M741.6147,294.3446a2.7241,2.7241,0,1,1-2.7241-2.7238,2.723,2.723,0,0,1,2.7241,2.7238"/><path class="cls-5" d="M729.4233,294.3446a2.7241,2.7241,0,1,1-2.7222-2.7238,2.7212,2.7212,0,0,1,2.7222,2.7238"/><path class="cls-5" d="M754.2963,294.3446a2.723,2.723,0,1,1-2.7221-2.7238,2.7212,2.7212,0,0,1,2.7221,2.7238"/><path class="cls-5" d="M741.6147,335.5764a2.7241,2.7241,0,1,1-2.7241-2.7237,2.7231,2.7231,0,0,1,2.7241,2.7237"/><path class="cls-5" d="M729.4233,335.5764a2.7241,2.7241,0,1,1-2.7222-2.7237,2.7213,2.7213,0,0,1,2.7222,2.7237"/><path class="cls-5" d="M754.2963,335.5764a2.723,2.723,0,1,1-2.7221-2.7237,2.7213,2.7213,0,0,1,2.7221,2.7237"/><path class="cls-5" d="M741.6147,376.8082a2.7241,2.7241,0,1,1-2.7241-2.7235,2.723,2.723,0,0,1,2.7241,2.7235"/><path class="cls-5" d="M729.4233,376.8082a2.7241,2.7241,0,1,1-2.7222-2.7235,2.7212,2.7212,0,0,1,2.7222,2.7235"/><path class="cls-5" d="M754.2963,376.8082a2.723,2.723,0,1,1-2.7221-2.7235,2.7212,2.7212,0,0,1,2.7221,2.7235"/><path class="cls-5" d="M741.6147,418.04a2.7241,2.7241,0,1,1-2.7241-2.7232,2.723,2.723,0,0,1,2.7241,2.7232"/><path class="cls-5" d="M729.4233,418.04a2.7241,2.7241,0,1,1-2.7222-2.7232,2.7212,2.7212,0,0,1,2.7222,2.7232"/><path class="cls-5" d="M754.2963,418.04a2.723,2.723,0,1,1-2.7221-2.7232,2.7212,2.7212,0,0,1,2.7221,2.7232"/><path class="cls-5" d="M741.6147,459.2717a2.7241,2.7241,0,1,1-2.7241-2.723,2.723,2.723,0,0,1,2.7241,2.723"/><path class="cls-5" d="M729.4233,459.2717a2.7241,2.7241,0,1,1-2.7222-2.723,2.7212,2.7212,0,0,1,2.7222,2.723"/><path class="cls-5" d="M754.2963,459.2717a2.723,2.723,0,1,1-2.7221-2.723,2.7212,2.7212,0,0,1,2.7221,2.723"/><path class="cls-5" d="M741.6147,500.5034a2.7241,2.7241,0,1,1-2.7241-2.7228,2.723,2.723,0,0,1,2.7241,2.7228"/><path class="cls-5" d="M729.4233,500.5034a2.7241,2.7241,0,1,1-2.7222-2.7228,2.7212,2.7212,0,0,1,2.7222,2.7228"/><path class="cls-5" d="M754.2963,500.5034a2.723,2.723,0,1,1-2.7221-2.7228,2.7212,2.7212,0,0,1,2.7221,2.7228"/><path class="cls-5" d="M741.6147,541.7352a2.7241,2.7241,0,1,1-2.7241-2.7226,2.7231,2.7231,0,0,1,2.7241,2.7226"/><path class="cls-5" d="M729.4233,541.7352a2.7241,2.7241,0,1,1-2.7222-2.7226,2.7213,2.7213,0,0,1,2.7222,2.7226"/><path class="cls-5" d="M754.2963,541.7352a2.723,2.723,0,1,1-2.7221-2.7226,2.7212,2.7212,0,0,1,2.7221,2.7226"/><path class="cls-5" d="M741.6147,582.9669a2.7241,2.7241,0,1,1-2.7241-2.7223,2.723,2.723,0,0,1,2.7241,2.7223"/><path class="cls-5" d="M729.4233,582.9669a2.7241,2.7241,0,1,1-2.7222-2.7223,2.7212,2.7212,0,0,1,2.7222,2.7223"/><path class="cls-5" d="M754.2963,582.9669a2.723,2.723,0,1,1-2.7221-2.7223,2.7212,2.7212,0,0,1,2.7221,2.7223"/><path class="cls-5" d="M741.6147,624.1987a2.7241,2.7241,0,1,1-2.7241-2.7221,2.7231,2.7231,0,0,1,2.7241,2.7221"/><path class="cls-5" d="M729.4233,624.1987a2.7241,2.7241,0,1,1-2.7222-2.7221,2.7213,2.7213,0,0,1,2.7222,2.7221"/><path class="cls-5" d="M754.2963,624.1987a2.723,2.723,0,1,1-2.7221-2.7221,2.7212,2.7212,0,0,1,2.7221,2.7221"/><path class="cls-5" d="M741.6147,665.43a2.7241,2.7241,0,1,1-2.7241-2.7219,2.723,2.723,0,0,1,2.7241,2.7219"/><path class="cls-5" d="M729.4233,665.43a2.7241,2.7241,0,1,1-2.7222-2.7219,2.7212,2.7212,0,0,1,2.7222,2.7219"/><path class="cls-5" d="M754.2963,665.43a2.723,2.723,0,1,1-2.7221-2.7219,2.7212,2.7212,0,0,1,2.7221,2.7219"/><text class="cls-29" transform="translate(79.4346 51.7852)">7-16V </text><line class="cls-30" x1="110.5535" y1="50.4079" x2="113.9345" y2="50.4079"/><line class="cls-30" x1="115.7936" y1="50.4079" x2="119.1705" y2="50.4079"/><line class="cls-30" x1="121.0377" y1="50.4079" x2="124.4187" y2="50.4079"/><line class="cls-30" x1="110.5536" y1="47.0147" x2="124.4187" y2="47.0147"/><text class="cls-29" transform="translate(76.1953 63.8096)">45 W MAX</text><line class="cls-31" x1="136.302" y1="180.345" x2="136.302" y2="204.7959"/><line class="cls-31" x1="150.0008" y1="154.9483" x2="150.0008" y2="177.94"/><line class="cls-31" x1="163.6915" y1="178.5016" x2="163.6915" y2="201.5122"/><line class="cls-31" x1="177.3822" y1="154.7089" x2="177.3822" y2="177.6994"/><line class="cls-31" x1="131.7523" y1="206.939" x2="140.8564" y2="206.939"/><line class="cls-31" x1="129.5361" y1="204.7919" x2="143.0685" y2="204.7919"/><rect class="cls-32" x="134.5932" y="176.5662" width="3.423" height="3.4251"/><rect class="cls-12" x="148.2839" y="176.5662" width="3.4266" height="3.4251"/><rect class="cls-12" x="161.9793" y="176.5628" width="3.4251" height="3.425"/><rect class="cls-12" x="175.6775" y="176.5662" width="3.421" height="3.4251"/><polygon class="cls-31" points="129.901 161.158 129.901 195.391 183.775 195.383 183.775 161.158 129.901 161.158"/><text class="cls-33" transform="translate(153.8369 210.4219) scale(1 1.0622)">SCL</text><text class="cls-34" transform="translate(138.3955 150.7783) scale(1 1.0115)">3.3V S<tspan class="cls-35" x="32.7725" y="0">D</tspan><tspan x="40.2158" y="0">A</tspan></text><line class="cls-31" x1="133.7655" y1="209.0902" x2="138.8392" y2="209.0902"/><line class="cls-31" x1="149.3067" y1="241.7644" x2="149.3067" y2="266.0976"/><line class="cls-31" x1="163.0015" y1="242.1377" x2="163.0015" y2="273.7242"/><line class="cls-31" x1="176.6922" y1="242.1378" x2="176.6922" y2="262.5745"/><line class="cls-31" x1="146.7699" y1="270.3959" x2="151.8435" y2="270.3959"/><line class="cls-31" x1="144.7567" y1="268.2446" x2="153.8608" y2="268.2446"/><line class="cls-31" x1="142.5405" y1="266.0975" x2="156.0729" y2="266.0975"/><rect class="cls-32" x="174.984" y="238.3398" width="3.4251" height="3.4246"/><rect class="cls-32" x="147.597" y="238.3398" width="3.4226" height="3.4246"/><rect class="cls-32" x="161.2933" y="238.3398" width="3.421" height="3.4246"/><rect class="cls-31" x="142.4635" y="222.5296" width="41.0802" height="34.2324"/><text class="cls-34" transform="translate(166.2051 273.1377) scale(1 1.0115)">TXD</text><text class="cls-34" transform="translate(151.4502 284.1143) scale(1 1.0115)">RXD</text><line class="cls-31" x1="30.5227" y1="700.3019" x2="30.5227" y2="711.2002"/><line class="cls-31" x1="44.2255" y1="700.2288" x2="44.5421" y2="718.6401"/><line class="cls-31" x1="57.9162" y1="700.3019" x2="57.9162" y2="708.1478"/><line class="cls-31" x1="27.9859" y1="715.5025" x2="33.0595" y2="715.5025"/><line class="cls-31" x1="25.9726" y1="713.3472" x2="35.0767" y2="713.3472"/><line class="cls-31" x1="23.7564" y1="711.204" x2="37.2888" y2="711.204"/><text class="cls-36" transform="translate(38.1045 728.7939) scale(1 1.0056)">5V</text><text class="cls-36" transform="translate(54.4893 717.4785) scale(1 1.0056)">S</text><rect class="cls-37" x="56.3675" y="696.7664" width="3.1791" height="3.4581"/><rect class="cls-37" x="42.7943" y="697.0224" width="3.1791" height="3.4581"/><rect class="cls-37" x="29.0369" y="696.9774" width="3.1791" height="3.4581"/><line class="cls-31" x1="75.1249" y1="758.3877" x2="80.1985" y2="758.3877"/><line class="cls-31" x1="73.1116" y1="756.2283" x2="82.2158" y2="756.2283"/><line class="cls-31" x1="70.8995" y1="754.0853" x2="84.4319" y2="754.0853"/><line class="cls-31" x1="77.6657" y1="745.7036" x2="90.2036" y2="745.7036"/><line class="cls-31" x1="90.1388" y1="731.9561" x2="82.1346" y2="731.9561"/><line class="cls-31" x1="77.6617" y1="745.358" x2="77.6617" y2="754.0853"/><line class="cls-31" x1="77.6658" y1="752.7094" x2="77.6658" y2="746.0528"/><text class="cls-36" transform="translate(73.9893 735.7178) scale(1 1.0056)">S</text><rect class="cls-37" x="90.2082" y="730.1519" width="3.1791" height="3.4581"/><rect class="cls-37" x="90.0266" y="744.0135" width="3.1791" height="3.4581"/><line class="cls-31" x1="197.9555" y1="758.3836" x2="203.0292" y2="758.3836"/><line class="cls-38" x1="195.9423" y1="756.2283" x2="205.0464" y2="756.2283"/><line class="cls-31" x1="193.7301" y1="754.0812" x2="207.2625" y2="754.0812"/><line class="cls-31" x1="213.075" y1="731.9561" x2="204.9652" y2="731.9561"/><line class="cls-31" x1="213.075" y1="718.2329" x2="204.9652" y2="718.2329"/><polyline class="cls-31" points="200.496 754.081 200.496 745.505 213.075 745.505"/><text class="cls-39" transform="translate(180.3359 720.7158) scale(1 1.0605)">FWD</text><text class="cls-40" transform="translate(184.4111 734.6484) scale(1 1.1297)">REV</text><rect class="cls-37" x="213.189" y="716.4101" width="3.1791" height="3.4581"/><rect class="cls-37" x="212.867" y="730.1236" width="3.1791" height="3.4581"/><rect class="cls-37" x="212.8382" y="743.8704" width="3.1791" height="3.4581"/><line class="cls-41" x1="585.7072" y1="758.5379" x2="590.7808" y2="758.5379"/><line class="cls-41" x1="583.698" y1="756.3866" x2="592.8021" y2="756.3866"/><line class="cls-41" x1="581.4818" y1="754.2395" x2="595.0141" y2="754.2395"/><line class="cls-41" x1="583.8401" y1="731.7572" x2="575.8156" y2="731.7572"/><line class="cls-41" x1="583.836" y1="718.1923" x2="575.8115" y2="718.1923"/><polyline class="cls-41" points="588.248 754.239 588.248 745.716 575.815 745.716"/><text class="cls-39" transform="translate(584.7158 721.0615) scale(1 1.0605)">S</text><text class="cls-40" transform="translate(585.3721 735.2344) scale(1 1.1297)">5V</text><rect class="cls-37" x="572.4" y="716.3653" width="3.1791" height="3.4581"/><rect class="cls-37" x="572.6081" y="729.8932" width="3.1791" height="3.4581"/><rect class="cls-37" x="572.5613" y="743.8374" width="3.1791" height="3.4581"/><line class="cls-31" x1="749.4193" y1="710.9131" x2="754.4929" y2="710.9131"/><line class="cls-31" x1="747.4102" y1="708.7659" x2="756.5101" y2="708.7659"/><line class="cls-31" x1="745.198" y1="706.6188" x2="758.7303" y2="706.6188"/><line class="cls-31" x1="724.5619" y1="695.6436" x2="724.5619" y2="703.5544"/><line class="cls-31" x1="738.2567" y1="695.7044" x2="738.2567" y2="713.8438"/><line class="cls-31" x1="751.9473" y1="695.6436" x2="751.9473" y2="706.9883"/><text class="cls-36" transform="translate(721.252 712.8955) scale(1 1.0056)">S</text><text class="cls-36" transform="translate(732.0713 723.9033) scale(1 1.0056)">6V</text><rect class="cls-37" x="722.8621" y="692.3733" width="3.1791" height="3.4581"/><rect class="cls-37" x="736.6602" y="692.3733" width="3.1791" height="3.4581"/><rect class="cls-37" x="750.3014" y="692.3733" width="3.1791" height="3.4581"/><path class="cls-42" d="M606.4442,648.0057a6.8485,6.8485,0,0,0,6.8555-6.8393"/><path class="cls-42" d="M606.4442,634.315a6.8529,6.8529,0,0,0-6.8394,6.8515"/><text class="cls-43" transform="translate(567 661.2109) scale(1 1.0349)">A<tspan class="cls-44" x="6.918" y="0">CCELEROMETER</tspan></text><text class="cls-45" transform="translate(602.125 608.0439) scale(1 1.0349)">Y</text><text class="cls-45" transform="translate(589.5762 635.6396) scale(1 1.0349)">Z</text><text class="cls-45" transform="translate(634.9219 645.1221) scale(1 1.0349)">X</text><line class="cls-46" x1="630.4607" y1="641.5073" x2="606.4481" y2="641.5073"/><line class="cls-46" x1="606.4442" y1="641.5073" x2="606.4442" y2="614.402"/><path class="cls-31" d="M606.4442,648.0057a6.8454,6.8454,0,1,0-6.8394-6.8393A6.8485,6.8485,0,0,0,606.4442,648.0057Z"/><polyline class="cls-12" points="634.085 641.507 629.361 639.685 630.481 641.507 629.361 643.326"/><polyline class="cls-47" points="634.085 641.507 629.361 639.685 630.481 641.507 629.361 643.326"/><polyline class="cls-12" points="606.444 610.899 604.646 615.632 606.444 614.163 608.254 615.632 606.444 610.899"/><polyline class="cls-47" points="606.444 610.899 604.646 615.632 606.444 614.163 608.254 615.632 606.444 610.899"/><line class="cls-48" x1="629.3608" y1="643.3257" x2="634.0852" y2="641.5073"/><line class="cls-47" x1="629.3608" y1="643.3257" x2="634.0852" y2="641.5073"/><path class="cls-12" d="M606.4481,642.7128a1.5465,1.5465,0,1,0-1.5424-1.5464,1.552,1.552,0,0,0,1.5424,1.5464"/><path class="cls-31" d="M606.4481,642.7128a1.5465,1.5465,0,1,0-1.5424-1.5464A1.552,1.552,0,0,0,606.4481,642.7128Z"/><line class="cls-42" x1="611.1543" y1="269.556" x2="652.2344" y2="269.556"/><line class="cls-31" x1="602.4237" y1="245.584" x2="626.1115" y2="245.584"/><line class="cls-31" x1="602.4237" y1="231.8893" x2="626.1115" y2="231.8893"/><line class="cls-31" x1="602.424" y1="218.1986" x2="626.1118" y2="218.1986"/><line class="cls-31" x1="611.1584" y1="166.8533" x2="611.1584" y2="269.556"/><line class="cls-31" x1="602.4237" y1="204.5079" x2="626.1115" y2="204.5079"/><line class="cls-31" x1="602.4237" y1="190.8213" x2="626.1115" y2="190.8213"/><line class="cls-31" x1="652.2388" y1="269.5676" x2="652.2388" y2="166.8651"/><line class="cls-42" x1="652.2386" y1="166.8493" x2="611.1584" y2="166.8493"/><line class="cls-49" x1="636.8311" y1="245.5922" x2="660.5228" y2="245.5922"/><line class="cls-49" x1="602.4237" y1="245.584" x2="626.1115" y2="245.584"/><line class="cls-49" x1="602.4197" y1="231.8934" x2="626.1074" y2="231.8934"/><line class="cls-49" x1="636.827" y1="231.8934" x2="660.5187" y2="231.8934"/><line class="cls-49" x1="602.4197" y1="218.2026" x2="626.1074" y2="218.2026"/><line class="cls-49" x1="636.827" y1="218.2026" x2="660.5187" y2="218.2026"/><line class="cls-49" x1="591.5256" y1="181.9809" x2="591.5256" y2="190.8861"/><line class="cls-49" x1="602.4197" y1="204.5079" x2="626.1074" y2="204.5079"/><line class="cls-49" x1="636.827" y1="204.5079" x2="660.5187" y2="204.5079"/><line class="cls-49" x1="588.9847" y1="195.1885" x2="594.0623" y2="195.1885"/><line class="cls-49" x1="586.9796" y1="193.0373" x2="596.0796" y2="193.0373"/><line class="cls-49" x1="584.7634" y1="190.8902" x2="598.2916" y2="190.8902"/><line class="cls-49" x1="602.4197" y1="190.8131" x2="626.1074" y2="190.8131"/><line class="cls-49" x1="636.827" y1="190.8131" x2="660.5187" y2="190.8131"/><rect class="cls-49" x="611.1584" y="166.8535" width="41.0802" height="102.7025"/><text class="cls-34" transform="translate(662.6309 193.7441) scale(1 1.0115)">CS0</text><text class="cls-34" transform="translate(662.625 207.4209) scale(1 1.0115)">CS1</text><text class="cls-34" transform="translate(662.6172 221.3633) scale(1 1.0115)">5V</text><text class="cls-34" transform="translate(662.6094 235.1172) scale(1 1.0115)">CS2</text><text class="cls-34" transform="translate(662.8018 248.8223) scale(1 1.0115)">CS3</text><text class="cls-34" transform="translate(570.6357 208.3457) scale(1 1.0115)">SCLK</text><text class="cls-34" transform="translate(569.3418 222.043) scale(1 1.0115)">MOSI</text><text class="cls-34" transform="translate(569.334 235.7969) scale(1 1.0115)">MISO</text><text class="cls-34" transform="translate(576.4619 249.9883) scale(1 1.0115)">3.3V</text><rect class="cls-37" x="624.483" y="188.7969" width="3.1791" height="3.4581"/><rect class="cls-37" x="624.483" y="202.4835" width="3.1791" height="3.4581"/><rect class="cls-37" x="624.4833" y="216.1743" width="3.1791" height="3.4581"/><rect class="cls-37" x="624.483" y="229.8649" width="3.1791" height="3.4581"/><rect class="cls-37" x="624.483" y="243.5596" width="3.1791" height="3.4581"/><rect class="cls-37" x="635.2026" y="243.5678" width="3.1791" height="3.4581"/><rect class="cls-37" x="635.1985" y="229.869" width="3.1791" height="3.4581"/><rect class="cls-37" x="635.1985" y="216.1782" width="3.1791" height="3.4581"/><rect class="cls-37" x="635.1985" y="202.4835" width="3.1791" height="3.4581"/><rect class="cls-37" x="635.1985" y="188.7888" width="3.1791" height="3.4581"/><text class="cls-10" transform="translate(618.043 156.5039)">SPI</text></g><g id="Shader"><g class="cls-50"><path class="cls-48" d="M53.0859,781.6177A50.1428,50.1428,0,0,1,3,731.5317V53.0859A50.1428,50.1428,0,0,1,53.0859,3H743.1943A50.1428,50.1428,0,0,1,793.28,53.0859V731.5317a50.1428,50.1428,0,0,1-50.086,50.086ZM406.3574,658.0723a11.413,11.413,0,0,0-11.4,11.4v84.15a11.4133,11.4133,0,0,0,11.4,11.4H567.9531a11.4133,11.4133,0,0,0,11.4-11.4v-84.15a11.4129,11.4129,0,0,0-11.4-11.4Z"/></g><path class="cls-51" d="M743.1941,6A47.0871,47.0871,0,0,1,790.28,53.0859V731.532a47.0857,47.0857,0,0,1-47.0859,47.0859H53.0858A47.0857,47.0857,0,0,1,6,731.532V53.0859A47.0871,47.0871,0,0,1,53.0858,6H743.1941M406.3572,768.0221H567.9531a14.4,14.4,0,0,0,14.4-14.4v-84.15a14.4,14.4,0,0,0-14.4-14.4H406.3572a14.4,14.4,0,0,0-14.4,14.4v84.15a14.4,14.4,0,0,0,14.4,14.4M743.1941,0H53.0858A53.146,53.146,0,0,0,0,53.0859V731.532a53.146,53.146,0,0,0,53.0859,53.0859H743.1941A53.146,53.146,0,0,0,796.28,731.532V53.0859A53.146,53.146,0,0,0,743.1941,0ZM406.3572,762.0221a8.41,8.41,0,0,1-8.4-8.4v-84.15a8.4094,8.4094,0,0,1,8.4-8.4H567.9531a8.41,8.41,0,0,1,8.4,8.4v84.15a8.41,8.41,0,0,1-8.4,8.4Z"/></g><g id="Edge_Fix_TOP_" data-name="Edge Fix (TOP)"><path class="cls-12" d="M-.4346-.99V786.73H797.5832V-.99ZM749.3122,777.8268l-698.0228.5137C25.505,776.276,9.5742,758.1769,6.4125,733.2L7.1764,47.5355c2.03-21.1,20.1644-39.3677,40.9884-41.6014l700.17.1456c21.0427,2.4863,38.8976,20.007,41.9894,40.9878L790.4,731.1689C790.4256,756.4029,774.24,773.57,749.3122,777.8268Z"/></g></svg>