<svg xmlns="http://www.w3.org/2000/svg" viewBox="0 0 800 785"><defs><style>.cls-1{fill:#434343;}.cls-2{fill:#4f4e51;}.cls-3{fill:#323031;}.cls-4{fill:#424242;}.cls-5{fill:#6a5f27;}.cls-6{fill:#5a5a5d;}.cls-7{fill:#f2f2f2;}.cls-8{fill:#221f1f;}.cls-13,.cls-30,.cls-31,.cls-41,.cls-42,.cls-46,.cls-47,.cls-49,.cls-9{fill:none;}.cls-9{stroke:#5a5a5d;stroke-width:5.416px;}.cls-13,.cls-9{stroke-miterlimit:10;}.cls-10{font-size:16.248px;}.cls-10,.cls-11,.cls-12,.cls-18,.cls-23,.cls-29,.cls-32,.cls-33,.cls-34,.cls-36,.cls-37,.cls-38,.cls-39,.cls-40,.cls-43,.cls-45{fill:#fff;}.cls-10,.cls-11,.cls-18,.cls-23,.cls-29,.cls-33,.cls-34,.cls-36,.cls-39,.cls-40,.cls-43,.cls-45{font-family:Heebo-Light, Heebo;font-weight:300;}.cls-11{font-size:10.832px;}.cls-13,.cls-31,.cls-32,.cls-37,.cls-38,.cls-46,.cls-47,.cls-49{stroke:#fff;}.cls-13{stroke-width:2.708px;}.cls-14{letter-spacing:0.009em;}.cls-15{letter-spacing:-0.058em;}.cls-16{letter-spacing:0em;}.cls-17{letter-spacing:-0.031em;}.cls-18{font-size:11.7401px;}.cls-19{fill:#9b9b9b;}.cls-20{fill:#171717;}.cls-21{fill:#f3ea07;}.cls-22{fill:#7cc244;}.cls-23{font-size:32.496px;}.cls-24{letter-spacing:-0.013em;}.cls-25{fill:#51545a;}.cls-26{fill:#3c3d42;}.cls-27{fill:#5a5d65;}.cls-28{fill:#23446c;}.cls-29{font-size:11.1981px;}.cls-30,.cls-41{stroke:#f1f2f2;}.cls-30,.cls-31,.cls-32,.cls-38,.cls-41,.cls-42,.cls-46{stroke-miterlimit:2;}.cls-31,.cls-32,.cls-37,.cls-38,.cls-41,.cls-42,.cls-49{stroke-width:0.686px;}.cls-32,.cls-37,.cls-47{stroke-linecap:round;}.cls-33{font-size:10.9221px;}.cls-34{font-size:11.699px;}.cls-35{letter-spacing:-0.019em;}.cls-36{font-size:10.9278px;}.cls-37,.cls-47,.cls-49{stroke-linejoin:round;}.cls-39{font-size:9.9074px;}.cls-40{font-size:9.6078px;}.cls-42{stroke:#020202;}.cls-43,.cls-45{font-size:11.4352px;}.cls-43{letter-spacing:-0.02em;}.cls-44{letter-spacing:0em;}.cls-46{stroke-width:0.588px;}.cls-47{stroke-width:0.506px;}.cls-48{fill:#231f20;}.cls-50{opacity:0.33;}.cls-51{fill:#00aeef;}</style></defs><g id="roboRIO"><path class="cls-1" d="M742.6654,776.7136l-699.2185.9311a41.8157,41.8157,0,0,1-41.76-41.8712V44.8409A41.8157,41.8157,0,0,1,43.4469,2.97l704.5445-.9311a41.8157,41.8157,0,0,1,41.76,41.8712V729.5023c2.3995,27.8894-12.3474,47.6874-38.9832,47.21"/><rect class="cls-2" x="14.0815" y="17.6245" width="763.4358" height="747.9174" rx="29.4466"/><rect class="cls-3" x="20.482" y="278.8354" width="46.329" height="413.1708"/><path class="cls-4" d="M549.481,136.0791H237.127a19.4985,19.4985,0,0,1-19.498-19.4978V36.0551a19.4986,19.4986,0,0,1,19.498-19.498H549.481a19.4985,19.4985,0,0,1,19.4978,19.498v80.5262a19.4984,19.4984,0,0,1-19.4978,19.4978"/><rect class="cls-3" x="252.1432" y="521.2583" width="279.7219" height="51.5601"/><path class="cls-5" d="M46.1255,301.4052a2.7241,2.7241,0,1,1-2.7241-2.7238,2.723,2.723,0,0,1,2.7241,2.7238"/><path class="cls-5" d="M33.9341,301.4052a2.7241,2.7241,0,1,1-2.7222-2.7238,2.7212,2.7212,0,0,1,2.7222,2.7238"/><path class="cls-5" d="M58.8071,301.4052a2.723,2.723,0,1,1-2.7221-2.7238,2.7212,2.7212,0,0,1,2.7221,2.7238"/><path class="cls-5" d="M46.1255,342.637a2.7241,2.7241,0,1,1-2.7241-2.7237,2.7231,2.7231,0,0,1,2.7241,2.7237"/><path class="cls-5" d="M33.9341,342.637a2.7241,2.7241,0,1,1-2.7222-2.7237,2.7213,2.7213,0,0,1,2.7222,2.7237"/><path class="cls-5" d="M58.8071,342.637a2.723,2.723,0,1,1-2.7221-2.7237,2.7213,2.7213,0,0,1,2.7221,2.7237"/><path class="cls-5" d="M46.1255,383.8688a2.7241,2.7241,0,1,1-2.7241-2.7235,2.723,2.723,0,0,1,2.7241,2.7235"/><path class="cls-5" d="M33.9341,383.8688a2.7241,2.7241,0,1,1-2.7222-2.7235,2.7212,2.7212,0,0,1,2.7222,2.7235"/><path class="cls-5" d="M58.8071,383.8688a2.723,2.723,0,1,1-2.7221-2.7235,2.7212,2.7212,0,0,1,2.7221,2.7235"/><path class="cls-5" d="M46.1255,425.1005a2.7241,2.7241,0,1,1-2.7241-2.7232,2.723,2.723,0,0,1,2.7241,2.7232"/><path class="cls-5" d="M33.9341,425.1005a2.7241,2.7241,0,1,1-2.7222-2.7232,2.7212,2.7212,0,0,1,2.7222,2.7232"/><path class="cls-5" d="M58.8071,425.1005a2.723,2.723,0,1,1-2.7221-2.7232,2.7212,2.7212,0,0,1,2.7221,2.7232"/><path class="cls-5" d="M46.1255,466.3323a2.7241,2.7241,0,1,1-2.7241-2.723,2.723,2.723,0,0,1,2.7241,2.723"/><path class="cls-5" d="M33.9341,466.3323a2.7241,2.7241,0,1,1-2.7222-2.723,2.7212,2.7212,0,0,1,2.7222,2.723"/><path class="cls-5" d="M58.8071,466.3323a2.723,2.723,0,1,1-2.7221-2.723,2.7212,2.7212,0,0,1,2.7221,2.723"/><path class="cls-5" d="M46.1255,507.564a2.7241,2.7241,0,1,1-2.7241-2.7228,2.723,2.723,0,0,1,2.7241,2.7228"/><path class="cls-5" d="M33.9341,507.564a2.7241,2.7241,0,1,1-2.7222-2.7228,2.7212,2.7212,0,0,1,2.7222,2.7228"/><path class="cls-5" d="M58.8071,507.564a2.723,2.723,0,1,1-2.7221-2.7228,2.7212,2.7212,0,0,1,2.7221,2.7228"/><path class="cls-5" d="M46.1255,548.7958a2.7241,2.7241,0,1,1-2.7241-2.7226,2.723,2.723,0,0,1,2.7241,2.7226"/><path class="cls-5" d="M33.9341,548.7958a2.7241,2.7241,0,1,1-2.7222-2.7226,2.7212,2.7212,0,0,1,2.7222,2.7226"/><path class="cls-5" d="M58.8071,548.7958a2.723,2.723,0,1,1-2.7221-2.7226,2.7212,2.7212,0,0,1,2.7221,2.7226"/><path class="cls-5" d="M46.1255,590.0275a2.7241,2.7241,0,1,1-2.7241-2.7223,2.723,2.723,0,0,1,2.7241,2.7223"/><path class="cls-5" d="M33.9341,590.0275a2.7241,2.7241,0,1,1-2.7222-2.7223,2.7212,2.7212,0,0,1,2.7222,2.7223"/><path class="cls-5" d="M58.8071,590.0275a2.723,2.723,0,1,1-2.7221-2.7223,2.7212,2.7212,0,0,1,2.7221,2.7223"/><path class="cls-5" d="M46.1255,631.2593a2.7241,2.7241,0,1,1-2.7241-2.7221,2.7231,2.7231,0,0,1,2.7241,2.7221"/><path class="cls-5" d="M33.9341,631.2593a2.7241,2.7241,0,1,1-2.7222-2.7221,2.7213,2.7213,0,0,1,2.7222,2.7221"/><path class="cls-5" d="M58.8071,631.2593a2.723,2.723,0,1,1-2.7221-2.7221,2.7212,2.7212,0,0,1,2.7221,2.7221"/><path class="cls-5" d="M46.1255,672.4911a2.7241,2.7241,0,1,1-2.7241-2.722,2.723,2.723,0,0,1,2.7241,2.722"/><path class="cls-5" d="M33.9341,672.4911a2.7241,2.7241,0,1,1-2.7222-2.722,2.7212,2.7212,0,0,1,2.7222,2.722"/><path class="cls-5" d="M58.8071,672.4911a2.723,2.723,0,1,1-2.7221-2.722,2.7212,2.7212,0,0,1,2.7221,2.722"/><rect class="cls-3" x="21.857" y="223.8423" width="45.05" height="36.188"/><path class="cls-5" d="M47.106,241.9365a2.7241,2.7241,0,1,1-2.7241-2.7219,2.7231,2.7231,0,0,1,2.7241,2.7219"/><path class="cls-5" d="M34.9146,241.9365a2.7241,2.7241,0,1,1-2.7221-2.7219,2.7213,2.7213,0,0,1,2.7221,2.7219"/><path class="cls-5" d="M59.7877,241.9365a2.7231,2.7231,0,1,1-2.7222-2.7219,2.7213,2.7213,0,0,1,2.7222,2.7219"/><rect class="cls-3" x="21.857" y="160.4363" width="60.6521" height="39.05"/><path class="cls-5" d="M48.3775,179.96a2.7241,2.7241,0,1,1-2.7241-2.7219,2.7247,2.7247,0,0,1,2.7241,2.7219"/><path class="cls-5" d="M36.1861,179.96a2.7241,2.7241,0,1,1-2.7221-2.7219,2.7229,2.7229,0,0,1,2.7221,2.7219"/><path class="cls-5" d="M61.0592,179.96a2.7231,2.7231,0,1,1-2.7222-2.7219,2.723,2.723,0,0,1,2.7222,2.7219"/><path class="cls-5" d="M73.6256,179.96a2.7242,2.7242,0,1,1-2.7222-2.7219,2.7229,2.7229,0,0,1,2.7222,2.7219"/><rect class="cls-3" x="225.0824" y="708.6146" width="158.48" height="45.05"/><path class="cls-5" d="M243.1784,728.4164a2.7231,2.7231,0,1,1-2.7241,2.7221,2.7212,2.7212,0,0,1,2.7241-2.7221"/><path class="cls-5" d="M243.1784,740.6059a2.7241,2.7241,0,1,1-2.7241,2.7241,2.7216,2.7216,0,0,1,2.7241-2.7241"/><path class="cls-5" d="M243.1784,715.7329a2.7241,2.7241,0,1,1-2.7241,2.722,2.7211,2.7211,0,0,1,2.7241-2.722"/><rect class="cls-3" x="265.5344" y="708.6146" width="36.188" height="45.05"/><path class="cls-5" d="M283.63,728.4164a2.7231,2.7231,0,1,1-2.7222,2.7221,2.7228,2.7228,0,0,1,2.7222-2.7221"/><path class="cls-5" d="M283.63,740.6059a2.7241,2.7241,0,1,1-2.7222,2.7241,2.7232,2.7232,0,0,1,2.7222-2.7241"/><path class="cls-5" d="M283.63,715.7329a2.7241,2.7241,0,1,1-2.7222,2.722,2.7227,2.7227,0,0,1,2.7222-2.722"/><rect class="cls-3" x="347.3744" y="708.6146" width="36.188" height="45.05"/><path class="cls-5" d="M365.4694,728.4164a2.7231,2.7231,0,1,1-2.7222,2.7221,2.7229,2.7229,0,0,1,2.7222-2.7221"/><path class="cls-5" d="M365.4694,740.6059a2.7241,2.7241,0,1,1-2.7222,2.7241,2.7233,2.7233,0,0,1,2.7222-2.7241"/><path class="cls-5" d="M365.4694,715.7329a2.7241,2.7241,0,1,1-2.7222,2.722,2.7228,2.7228,0,0,1,2.7222-2.722"/><rect class="cls-3" x="306.4784" y="708.6146" width="36.188" height="45.05"/><path class="cls-5" d="M324.5729,728.4164a2.7231,2.7231,0,1,1-2.7221,2.7221,2.7213,2.7213,0,0,1,2.7221-2.7221"/><path class="cls-5" d="M324.5729,740.6059a2.7241,2.7241,0,1,1-2.7221,2.7241,2.7216,2.7216,0,0,1,2.7221-2.7241"/><path class="cls-5" d="M324.5729,715.7329a2.7241,2.7241,0,1,1-2.7221,2.722,2.7212,2.7212,0,0,1,2.7221-2.722"/><rect class="cls-3" x="401.6111" y="708.5066" width="158.48" height="45.05"/><path class="cls-5" d="M419.7041,728.3084a2.7231,2.7231,0,1,1-2.7221,2.7221,2.7216,2.7216,0,0,1,2.7221-2.7221"/><path class="cls-5" d="M419.7041,740.4979a2.7241,2.7241,0,1,1-2.7221,2.7241,2.722,2.722,0,0,1,2.7221-2.7241"/><path class="cls-5" d="M419.7041,715.6249a2.7241,2.7241,0,1,1-2.7221,2.722,2.7215,2.7215,0,0,1,2.7221-2.722"/><rect class="cls-3" x="442.063" y="708.5066" width="36.188" height="45.05"/><path class="cls-5" d="M460.1573,728.3084a2.7231,2.7231,0,1,1-2.7241,2.7221,2.7212,2.7212,0,0,1,2.7241-2.7221"/><path class="cls-5" d="M460.1573,740.4979a2.7241,2.7241,0,1,1-2.7241,2.7241,2.7216,2.7216,0,0,1,2.7241-2.7241"/><path class="cls-5" d="M460.1573,715.6249a2.7241,2.7241,0,1,1-2.7241,2.722,2.7211,2.7211,0,0,1,2.7241-2.722"/><rect class="cls-3" x="523.9031" y="708.5066" width="36.188" height="45.05"/><path class="cls-5" d="M541.9971,728.3084a2.7231,2.7231,0,1,1-2.7241,2.7221,2.7212,2.7212,0,0,1,2.7241-2.7221"/><path class="cls-5" d="M541.9971,740.4979a2.7241,2.7241,0,1,1-2.7241,2.7241,2.7216,2.7216,0,0,1,2.7241-2.7241"/><path class="cls-5" d="M541.9971,715.6249a2.7241,2.7241,0,1,1-2.7241,2.722,2.7211,2.7211,0,0,1,2.7241-2.722"/><rect class="cls-3" x="483.0052" y="708.5066" width="36.1899" height="45.05"/><path class="cls-5" d="M501.1006,728.3084a2.7231,2.7231,0,1,1-2.7241,2.7221,2.7213,2.7213,0,0,1,2.7241-2.7221"/><path class="cls-5" d="M501.1006,740.4979a2.7241,2.7241,0,1,1-2.7241,2.7241,2.7216,2.7216,0,0,1,2.7241-2.7241"/><path class="cls-5" d="M501.1006,715.6249a2.7241,2.7241,0,1,1-2.7241,2.722,2.7212,2.7212,0,0,1,2.7241-2.722"/><rect class="cls-6" x="26.6212" y="86.4443" width="43.512" height="24.8181"/><rect class="cls-7" x="36.3973" y="91.0984" width="27.9199" height="14.7339"/><path class="cls-8" d="M49.3873,98.8545a9.791,9.791,0,1,1-9.7922-9.792,9.79,9.79,0,0,1,9.7922,9.792"/><rect class="cls-6" x="26.6212" y="111.2624" width="43.512" height="24.8159"/><rect class="cls-7" x="36.3973" y="115.9165" width="27.9199" height="14.7339"/><path class="cls-8" d="M49.3873,123.6709a9.791,9.791,0,1,1-9.7922-9.792,9.7922,9.7922,0,0,1,9.7922,9.792"/><polygon class="cls-3" points="140.624 24.311 140.624 58.286 133.237 58.286 133.237 98.466 140.624 98.466 140.624 123.672 176.074 123.672 176.074 98.466 191.581 98.466 191.581 56.808 178.289 56.07 177.552 24.311 140.624 24.311"/><path class="cls-8" d="M168.1392,39.4463a9.791,9.791,0,1,1-9.7922-9.792,9.7922,9.7922,0,0,1,9.7922,9.792"/><path class="cls-8" d="M168.1392,108.4326a9.791,9.791,0,1,1-9.7922-9.792,9.7908,9.7908,0,0,1,9.7922,9.792"/><rect class="cls-8" x="162.4112" y="62.6184" width="25.478" height="10.3379"/><rect class="cls-8" x="162.4112" y="81.0903" width="25.478" height="10.3401"/><path class="cls-7" d="M357.6764,619.4051H354.6a82.86,82.86,0,0,1-6.85-8.9439h-.042v8.9439h-3.622v-15.27h3.3379c2.2041,2.706,5.4961,6.6759,6.5881,8.748h.042v-8.748h3.6221v15.27"/><path class="cls-7" d="M368.3448,604.1347l5.802,15.27h-4.886l-1.2-3.642h-4.7342l-1.4619,3.642h-3.5979l6.2159-15.27Zm-1.0259,9.206c-.5022-1.81-.9382-3.272-1.4841-5.454h-.0439c-.5882,2.182-1.1121,3.644-1.68,5.454h3.208"/><polygon class="cls-7" points="375.608 619.405 375.608 606.993 371.202 606.993 371.202 604.135 384.618 604.135 384.618 606.993 380.212 606.993 380.212 619.405 375.608 619.405"/><rect class="cls-7" x="386.1012" y="604.1363" width="4.604" height="15.27"/><path class="cls-7" d="M391.8138,611.5965a7.5921,7.5921,0,1,1,15.1819,0c0,4.5581-2.9019,8.07-7.5921,8.07s-7.59-3.512-7.59-8.07m10.3821,0c0-2.7059-.8281-4.5379-2.7923-4.5379s-2.7919,1.832-2.7919,4.5379c0,2.8781.7421,4.8841,2.7919,4.8841s2.7923-2.006,2.7923-4.8841"/><path class="cls-7" d="M421.6959,619.4051h-3.0742a82.36,82.36,0,0,1-6.85-8.9439h-.0439v8.9439h-3.6221v-15.27h3.3379c2.2041,2.706,5.4961,6.6759,6.5881,8.748h.044v-8.748h3.62v15.27"/><path class="cls-7" d="M432.1456,604.1347l5.802,15.27h-4.884l-1.2019-3.642h-4.7342l-1.4619,3.642h-3.5979l6.2178-15.27Zm-1.0259,9.206c-.5-1.81-.9382-3.272-1.4822-5.454h-.0439c-.59,2.182-1.1121,3.644-1.6819,5.454h3.208"/><polygon class="cls-7" points="438.975 604.135 443.577 604.135 443.577 616.548 449.161 616.548 449.161 619.405 438.975 619.405 438.975 604.135"/><rect class="cls-7" x="337.2132" y="624.1344" width="4.604" height="15.272"/><path class="cls-7" d="M357.3678,639.4051h-3.0743a82.6592,82.6592,0,0,1-6.8518-8.9459H347.4v8.9459h-3.622V624.1332h3.3379c2.2041,2.706,5.498,6.676,6.5881,8.748h.042v-8.748h3.6221v15.2719"/><path class="cls-7" d="M367.0767,627.2977a4.3438,4.3438,0,0,0-2.248-.568c-.894,0-1.3521.4381-1.3521.94,0,.848,1.2881,1.5479,2.772,2.92,1.96,1.834,2.4419,2.99,2.4419,4.584,0,1.35-1.1118,4.494-5.6938,4.494a7.7342,7.7342,0,0,1-4.7981-1.3981l1.396-2.53a4.3221,4.3221,0,0,0,2.6159,1.068c.916,0,1.92-.458,1.92-1.5919,0-1.22-1.4841-2.1161-2.6821-3.162-1.5921-1.396-2.532-2.206-2.532-4.08,0-2.4439,2.4641-4.1019,5.3459-4.1019a8.1254,8.1254,0,0,1,3.9922,1.026l-1.178,2.4"/><polygon class="cls-7" points="373.227 639.405 373.227 626.991 368.821 626.991 368.821 624.133 382.235 624.133 382.235 626.991 377.831 626.991 377.831 639.405 373.227 639.405"/><path class="cls-7" d="M383.7169,624.133h6.8078c3.5979,0,5.54,1.5721,5.54,4.08a4.58,4.58,0,0,1-2.574,4.406l3.38,6.546-4.928.5021-2.42-6.0441h-1.2019v5.782h-4.604Zm4.604,6.612h1.3078a1.8411,1.8411,0,0,0,1.8321-1.876,1.6849,1.6849,0,0,0-1.918-1.8779h-1.2219v3.7539"/><path class="cls-7" d="M402.0435,624.1338v7.986c0,2.746.4139,4.362,2.356,4.362,1.5259,0,2.4-1.528,2.4-4.428v-7.92h3.97v9.228c0,4.56-3.0979,6.306-6.5879,6.306-3.9041,0-6.742-1.6379-6.742-6.196v-9.338h4.604"/><path class="cls-7" d="M431.34,639.4051h-4.602v-10.69h-.042c-1.18,3.9919-2.4,7.352-3.624,10.69h-2.9c-1.2439-3.3379-2.4878-6.698-3.688-10.69h-.042v10.69H412.82V624.1332h6.2378c1.0481,2.924,2.094,5.826,3.12,9.4019h.044c.9819-3.5759,2.0061-6.4779,3.01-9.4019H431.34v15.2719"/><polygon class="cls-7" points="442.577 626.991 437.909 626.991 437.909 630.003 442.469 630.003 442.469 632.861 437.909 632.861 437.909 636.545 443.517 636.545 443.517 639.405 433.307 639.405 433.307 624.133 442.577 624.133 442.577 626.991"/><path class="cls-7" d="M457.9342,639.4051H454.858a82.6273,82.6273,0,0,1-6.85-8.9459h-.042v8.9459h-3.622V624.1332h3.3379c2.2041,2.706,5.4961,6.676,6.5881,8.748h.042v-8.748h3.6221v15.2719"/><polygon class="cls-7" points="463.17 639.405 463.17 626.991 458.764 626.991 458.764 624.133 472.18 624.133 472.18 626.991 467.774 626.991 467.774 639.405 463.17 639.405"/><path class="cls-7" d="M481.1881,627.2977a4.3421,4.3421,0,0,0-2.2461-.568c-.896,0-1.354.4381-1.354.94,0,.848,1.2881,1.5479,2.77,2.92,1.9639,1.834,2.4438,2.99,2.4438,4.584,0,1.35-1.1118,4.494-5.6919,4.494a7.7366,7.7366,0,0,1-4.8-1.3981l1.396-2.53a4.3322,4.3322,0,0,0,2.616,1.068c.916,0,1.92-.458,1.92-1.5919,0-1.22-1.4821-2.1161-2.6821-3.162-1.592-1.396-2.532-2.206-2.532-4.08,0-2.4439,2.4661-4.1019,5.346-4.1019a8.1261,8.1261,0,0,1,3.9922,1.026l-1.178,2.4"/><path class="cls-7" d="M483.6307,626.7625v-2.16h-.82v-.276h2.0562v.276h-.8162v2.16Zm4.4441,0h-.4241v-1.7959h-.0119l-.9642,1.7959h-.2l-.896-1.7959h-.0081v1.7959h-.344v-2.4359h.4881l.918,1.826.9938-1.826h.4483v2.4359"/><path class="cls-7" d="M320.5182,609.8993a5.8211,5.8211,0,0,1,4.2077-4.886c5.1541-1.464,7.9121-1.194,17.1541-1.27-5.54,4.9579-9.9639,12.77-8.9739,20.4139-1.99-1.63-3.334-3.96-5.062-5.822a19.2487,19.2487,0,0,0,1.6679-3.8879c.6121-2.3121,2.2781-2.8581,4.39-2.7941.1582.006-.124-1.78-.708-1.938-1.5739-.426-2.906.08-4.7339-.626a2.2277,2.2277,0,0,0-1.7439.3321c-1.5.766-2.45,2.4039-4.1381,2.922Z"/><path class="cls-7" d="M292.2623,608.4032a25.0913,25.0913,0,0,1,9.9538-4.324c4.7161-.8619,9.826-.926,13.3479,2.47,6.6541,6.4079,12.0423,13.1339,17.8782,20.4559.23.288.21,1.0761.01,1.19a83.7191,83.7191,0,0,1-12.6721,5.9339,2.1875,2.1875,0,0,1-2.03-.448c-6.6538-6.046-11.21-13.2819-17.596-19.572a21.3222,21.3222,0,0,0-8.7238-5.186c-.2642-.0819-.3121-.42-.168-.52"/><path class="cls-7" d="M315.5162,637.9032a42.8272,42.8272,0,0,0-11.9382,12.718,26.5054,26.5054,0,0,1,.48-14.968c1.67-4.6759,1.99-9.216,2.2119-14.09,3.0359,3.496,6.4819,7.36,9.32,10.866Z"/><rect class="cls-3" x="263.3092" y="531.2463" width="260.228" height="32.484"/><path class="cls-5" d="M282.0553,550.5653a1.9641,1.9641,0,1,1-1.9642,1.9641,1.9632,1.9632,0,0,1,1.9642-1.9641"/><path class="cls-5" d="M282.0553,540.4851a1.9641,1.9641,0,1,1-1.9642,1.9641,1.9619,1.9619,0,0,1,1.9642-1.9641"/><path class="cls-5" d="M294.1471,550.5653a1.9641,1.9641,0,1,1-1.9642,1.9641,1.9632,1.9632,0,0,1,1.9642-1.9641"/><path class="cls-5" d="M294.1471,540.4851a1.9641,1.9641,0,1,1-1.9642,1.9641,1.9619,1.9619,0,0,1,1.9642-1.9641"/><path class="cls-5" d="M309.1041,550.5536a1.9641,1.9641,0,1,1-1.9641,1.9641,1.9618,1.9618,0,0,1,1.9641-1.9641"/><path class="cls-5" d="M309.1041,540.4735a1.9641,1.9641,0,1,1-1.9641,1.9641,1.9618,1.9618,0,0,1,1.9641-1.9641"/><path class="cls-5" d="M321.1959,550.5536a1.9641,1.9641,0,1,1-1.9622,1.9641,1.9618,1.9618,0,0,1,1.9622-1.9641"/><path class="cls-5" d="M321.1959,540.4735a1.9641,1.9641,0,1,1-1.9622,1.9641,1.9618,1.9618,0,0,1,1.9622-1.9641"/><path class="cls-5" d="M336.8053,550.5536a1.9641,1.9641,0,1,1-1.9642,1.9641,1.9619,1.9619,0,0,1,1.9642-1.9641"/><path class="cls-5" d="M336.8053,540.4735a1.9641,1.9641,0,1,1-1.9642,1.962,1.9614,1.9614,0,0,1,1.9642-1.962"/><path class="cls-5" d="M348.8971,550.5536a1.9641,1.9641,0,1,1-1.9622,1.9641,1.9635,1.9635,0,0,1,1.9622-1.9641"/><path class="cls-5" d="M348.8971,540.4735a1.9641,1.9641,0,1,1-1.9622,1.962,1.9631,1.9631,0,0,1,1.9622-1.962"/><path class="cls-5" d="M364.1119,550.5536a1.9641,1.9641,0,1,1-1.9622,1.9641,1.9623,1.9623,0,0,1,1.9622-1.9641"/><path class="cls-5" d="M364.1119,540.4735a1.9641,1.9641,0,1,1-1.9622,1.962,1.9619,1.9619,0,0,1,1.9622-1.962"/><path class="cls-5" d="M378.7115,550.5536a1.9641,1.9641,0,1,1-1.9641,1.9641,1.9618,1.9618,0,0,1,1.9641-1.9641"/><path class="cls-5" d="M378.7115,540.4735a1.9641,1.9641,0,1,1-1.9641,1.962,1.9614,1.9614,0,0,1,1.9641-1.962"/><path class="cls-5" d="M393.1627,550.5536a1.9641,1.9641,0,1,1-1.9622,1.9641,1.9622,1.9622,0,0,1,1.9622-1.9641"/><path class="cls-5" d="M393.1627,540.4735a1.9641,1.9641,0,1,1-1.9622,1.9641,1.9622,1.9622,0,0,1,1.9622-1.9641"/><path class="cls-5" d="M406.0689,550.5555a1.963,1.963,0,1,1-1.9621,1.9621,1.9619,1.9619,0,0,1,1.9621-1.9621"/><path class="cls-5" d="M406.0689,540.4735a1.9641,1.9641,0,1,1-1.9621,1.9641,1.9623,1.9623,0,0,1,1.9621-1.9641"/><path class="cls-5" d="M419.2857,550.5536a1.9641,1.9641,0,1,1-1.9641,1.9641,1.9631,1.9631,0,0,1,1.9641-1.9641"/><path class="cls-5" d="M419.2857,540.4735a1.9641,1.9641,0,1,1-1.9641,1.9641,1.9618,1.9618,0,0,1,1.9641-1.9641"/><path class="cls-5" d="M432.3053,550.5536a1.9641,1.9641,0,1,1-1.9642,1.9641,1.9619,1.9619,0,0,1,1.9642-1.9641"/><path class="cls-5" d="M432.3053,540.4735a1.9641,1.9641,0,1,1-1.9642,1.9641,1.9619,1.9619,0,0,1,1.9642-1.9641"/><path class="cls-5" d="M447.1978,550.5536a1.9641,1.9641,0,1,1-1.9621,1.9641,1.9632,1.9632,0,0,1,1.9621-1.9641"/><path class="cls-5" d="M447.1978,540.4735a1.9641,1.9641,0,1,1-1.9621,1.9641,1.9619,1.9619,0,0,1,1.9621-1.9641"/><path class="cls-5" d="M460.3639,550.5536a1.9641,1.9641,0,1,1-1.9622,1.9641,1.9635,1.9635,0,0,1,1.9622-1.9641"/><path class="cls-5" d="M460.3639,540.4735a1.9641,1.9641,0,1,1-1.9622,1.9641,1.9635,1.9635,0,0,1,1.9622-1.9641"/><path class="cls-5" d="M473.358,550.5536a1.9641,1.9641,0,1,1-1.9641,1.9641,1.9631,1.9631,0,0,1,1.9641-1.9641"/><path class="cls-5" d="M473.358,540.4735a1.9641,1.9641,0,1,1-1.9641,1.9641,1.9618,1.9618,0,0,1,1.9641-1.9641"/><path class="cls-5" d="M487.4127,550.5555a1.963,1.963,0,1,1-1.9622,1.9621,1.9619,1.9619,0,0,1,1.9622-1.9621"/><path class="cls-5" d="M487.4127,540.4735a1.9641,1.9641,0,1,1-1.9622,1.9641,1.9622,1.9622,0,0,1,1.9622-1.9641"/><path class="cls-5" d="M500.3131,550.5555a1.963,1.963,0,1,1-1.9641,1.9621,1.9615,1.9615,0,0,1,1.9641-1.9621"/><path class="cls-5" d="M500.3131,540.4735a1.9641,1.9641,0,1,1-1.9641,1.9641,1.9618,1.9618,0,0,1,1.9641-1.9641"/><polyline class="cls-9" points="377.12 527.813 259.716 527.813 259.716 567.141 523.91 567.141 523.91 527.813 408.478 527.813"/><path class="cls-5" d="M268.3912,181.2021a9.3811,9.3811,0,1,1-9.38-9.38,9.3807,9.3807,0,0,1,9.38,9.38"/><path class="cls-8" d="M264.4264,181.2021a5.4161,5.4161,0,1,1-5.4161-5.4158,5.4161,5.4161,0,0,1,5.4161,5.4158"/><path class="cls-5" d="M535.274,173.2763a9.3813,9.3813,0,1,1-13.2681,0,9.3833,9.3833,0,0,1,13.2681,0"/><path class="cls-8" d="M534.0572,179.9092a5.416,5.416,0,1,1-5.416-5.4158,5.4174,5.4174,0,0,1,5.416,5.4158"/><rect class="cls-3" x="603.5011" y="23.3623" width="51.5581" height="112.7161"/><rect class="cls-3" x="613.4752" y="26.7182" width="32.4861" height="104.8621"/><path class="cls-5" d="M632.7955,113.1259c0-.4379.8779-.7919,1.9619-.7919s1.9639.354,1.9639.7919-.88.7923-1.9639.7923-1.9619-.354-1.9619-.7923"/><path class="cls-5" d="M622.7135,113.1259c0-.4379.8779-.7919,1.9638-.7919,1.084,0,1.9641.354,1.9641.7919s-.88.7923-1.9641.7923c-1.0859,0-1.9638-.354-1.9638-.7923"/><path class="cls-5" d="M632.7955,108.2529c0-.438.8779-.792,1.9619-.792s1.9639.354,1.9639.792-.88.7922-1.9639.7922-1.9619-.354-1.9619-.7922"/><path class="cls-5" d="M622.7135,108.2529c0-.438.8779-.792,1.9638-.792,1.084,0,1.9641.354,1.9641.792s-.88.7922-1.9641.7922c-1.0859,0-1.9638-.354-1.9638-.7922"/><path class="cls-5" d="M632.7955,101.9638c0-.4379.8779-.792,1.9619-.792s1.9639.3541,1.9639.792-.88.7923-1.9639.7923-1.9619-.354-1.9619-.7923"/><path class="cls-5" d="M622.7135,101.9638c0-.4379.8779-.792,1.9638-.792,1.084,0,1.9641.3541,1.9641.792s-.88.7923-1.9641.7923c-1.0859,0-1.9638-.354-1.9638-.7923"/><path class="cls-5" d="M632.7955,97.0908c0-.438.8779-.792,1.9619-.792s1.9639.354,1.9639.792-.88.7922-1.9639.7922-1.9619-.354-1.9619-.7922"/><path class="cls-5" d="M622.7135,97.0908c0-.438.8779-.792,1.9638-.792,1.084,0,1.9641.354,1.9641.792s-.88.7922-1.9641.7922c-1.0859,0-1.9638-.354-1.9638-.7922"/><path class="cls-5" d="M632.7955,90.96c0-.438.8779-.792,1.9619-.792s1.9639.354,1.9639.792-.88.7923-1.9639.7923-1.9619-.354-1.9619-.7923"/><path class="cls-5" d="M622.7135,90.96c0-.438.8779-.792,1.9638-.792,1.084,0,1.9641.354,1.9641.792s-.88.7923-1.9641.7923c-1.0859,0-1.9638-.354-1.9638-.7923"/><path class="cls-5" d="M632.7955,85.0771c0-.438.8779-.792,1.9619-.792s1.9639.354,1.9639.792-.88.7923-1.9639.7923-1.9619-.354-1.9619-.7923"/><path class="cls-5" d="M622.7135,85.0771c0-.438.8779-.792,1.9638-.792,1.084,0,1.9641.354,1.9641.792s-.88.7923-1.9641.7923c-1.0859,0-1.9638-.354-1.9638-.7923"/><path class="cls-5" d="M632.7955,79.2529c0-.4358.8779-.792,1.9619-.792s1.9639.3562,1.9639.792c0,.4382-.88.7922-1.9639.7922s-1.9619-.354-1.9619-.7922"/><path class="cls-5" d="M622.7135,79.2529c0-.4358.8779-.792,1.9638-.792,1.084,0,1.9641.3562,1.9641.792,0,.4382-.88.7922-1.9641.7922-1.0859,0-1.9638-.354-1.9638-.7922"/><path class="cls-5" d="M632.7955,74.0537c0-.438.8779-.792,1.9619-.792,1.0859,0,1.9661.354,1.9661.792,0,.436-.88.7922-1.9661.7922-1.084,0-1.9619-.3562-1.9619-.7922"/><path class="cls-5" d="M622.7154,74.0537c0-.438.8779-.792,1.9619-.792s1.9639.354,1.9639.792c0,.436-.88.7922-1.9639.7922s-1.9619-.3562-1.9619-.7922"/><path class="cls-5" d="M632.7955,68.7275c0-.438.8779-.792,1.9619-.792s1.9661.354,1.9661.792-.8821.7922-1.9661.7922-1.9619-.354-1.9619-.7922"/><path class="cls-5" d="M622.7135,68.7275c0-.438.88-.792,1.9638-.792s1.9641.354,1.9641.792-.88.7922-1.9641.7922-1.9638-.354-1.9638-.7922"/><path class="cls-5" d="M632.7955,63.4814c0-.438.8779-.792,1.9619-.792s1.9639.354,1.9639.792-.88.7923-1.9639.7923-1.9619-.354-1.9619-.7923"/><path class="cls-5" d="M622.7135,63.4814c0-.438.8779-.792,1.9638-.792,1.084,0,1.9641.354,1.9641.792s-.88.7923-1.9641.7923c-1.0859,0-1.9638-.354-1.9638-.7923"/><path class="cls-5" d="M632.7955,57.48c0-.4358.8779-.792,1.9619-.792s1.9661.3562,1.9661.792c0,.4382-.8821.7922-1.9661.7922s-1.9619-.354-1.9619-.7922"/><path class="cls-5" d="M622.7135,57.48c0-.4358.88-.792,1.9638-.792s1.9641.3562,1.9641.792c0,.4382-.88.7922-1.9641.7922s-1.9638-.354-1.9638-.7922"/><path class="cls-5" d="M632.7955,52.1748c0-.438.8779-.792,1.9619-.792s1.9639.354,1.9639.792-.88.7922-1.9639.7922-1.9619-.354-1.9619-.7922"/><path class="cls-5" d="M622.7135,52.1748c0-.438.8779-.792,1.9638-.792,1.084,0,1.9641.354,1.9641.792s-.88.7922-1.9641.7922c-1.0859,0-1.9638-.354-1.9638-.7922"/><path class="cls-5" d="M632.7955,46.9384c0-.4379.8779-.7919,1.9619-.7919s1.9661.354,1.9661.7919-.8821.7923-1.9661.7923-1.9619-.354-1.9619-.7923"/><path class="cls-5" d="M622.7135,46.9384c0-.4357.88-.7919,1.9638-.7919s1.9641.3562,1.9641.7919c0,.4383-.88.7923-1.9641.7923s-1.9638-.354-1.9638-.7923"/><polyline class="cls-9" points="610.055 85.718 610.055 133.026 649.381 133.026 649.381 26.57 610.055 26.57 610.055 73.084"/><text class="cls-10" transform="translate(76.5498 246.3955)">RS-232</text><text class="cls-10" transform="translate(94.0986 186.0635)">I</text><text class="cls-10" transform="translate(98.4302 180.6528) scale(0.583)">2</text><text class="cls-10" transform="translate(103.6846 186.0635)">C</text><text class="cls-10" transform="translate(32.2598 78.1606)">CAN</text><text class="cls-11" transform="translate(80.3408 101.4385)">L (GRN)</text><text class="cls-11" transform="translate(81.1768 126.2563)">H (YEL)</text><path class="cls-12" d="M101.5354,480.9216a4.4932,4.4932,0,0,1-1.8438,1.7481,5.8317,5.8317,0,0,1-2.749.6269H95.8791a5.82,5.82,0,0,1-2.7529-.6269,4.4807,4.4807,0,0,1-1.8408-1.76,5.1609,5.1609,0,0,1-.65-2.6113V475.14h11.5517v3.23A5.0027,5.0027,0,0,1,101.5354,480.9216ZM96.9582,482.33a5.1577,5.1577,0,0,0,2.3125-.4922,3.6349,3.6349,0,0,0,1.5391-1.3887,3.9309,3.9309,0,0,0,.5439-2.0781v-2.2539H91.46v2.1817a4.0206,4.0206,0,0,0,.5556,2.1347,3.6768,3.6768,0,0,0,1.5547,1.4043,5.161,5.161,0,0,0,2.3086.4922Z"/><path class="cls-12" d="M90.635,486.0017h11.5517v.9765H90.635Z"/><path class="cls-12" d="M92.9875,498.0974a4.4132,4.4132,0,0,1-1.8564-6.2949,4.3011,4.3011,0,0,1,1.86-1.5879,6.56,6.56,0,0,1,2.8008-.5625H97.03a6.5913,6.5913,0,0,1,2.8008.5586,4.2983,4.2983,0,0,1,1.86,1.58,4.25,4.25,0,0,1,.6543,2.3516,4.1575,4.1575,0,0,1-2.5107,3.9512,6.646,6.646,0,0,1-2.8047.5547H95.7922A6.6725,6.6725,0,0,1,92.9875,498.0974Zm6.4219-.8379a3.3726,3.3726,0,0,0,1.539-1.2168,3.3137,3.3137,0,0,0,.54-1.9,3.2555,3.2555,0,0,0-.54-1.873,3.4117,3.4117,0,0,0-1.5429-1.2168,6.0249,6.0249,0,0,0-2.36-.4258H95.7922a6.0068,6.0068,0,0,0-2.3682.43,3.45,3.45,0,0,0-1.5478,1.2246,3.2569,3.2569,0,0,0-.543,1.8769,3.3083,3.3083,0,0,0,.5391,1.9043,3.3451,3.3451,0,0,0,1.5429,1.2051,6.2289,6.2289,0,0,0,2.377.4141h1.2529A6.0524,6.0524,0,0,0,99.4094,497.26Z"/><polyline class="cls-13" points="85.286 298.681 96.493 298.681 96.493 464.253"/><polyline class="cls-13" points="96.495 509.536 96.495 666.012 85.287 666.012"/><text class="cls-10" transform="translate(283.5156 683.8428)">RE<tspan class="cls-14" x="19.5645" y="0">L</tspan><tspan class="cls-15" x="28.2788" y="0">A</tspan><tspan class="cls-16" x="37.4912" y="0">Y</tspan></text><polyline class="cls-13" points="242.473 689.343 242.473 680.469 273.191 680.469"/><polyline class="cls-13" points="337.321 680.468 365.187 680.468 365.187 690.442"/><text class="cls-10" transform="translate(441.8701 683.8428)">ANA<tspan class="cls-17" x="31.8535" y="0">L</tspan><tspan x="39.918" y="0">OG IN</tspan></text><text class="cls-18" transform="translate(618.3955 696.4707)">RESET</text><text class="cls-18" transform="translate(674.5742 696.4707)">USER</text><polyline class="cls-13" points="418.909 689.276 418.909 681.016 432.939 681.016"/><polyline class="cls-13" points="531.768 679.919 545.7 679.919 545.7 690.443"/><rect class="cls-3" x="98.6919" y="708.6146" width="39.958" height="45.05"/><path class="cls-5" d="M118.67,728.4144a2.7241,2.7241,0,1,1-2.7222,2.7241,2.7246,2.7246,0,0,1,2.7222-2.7241"/><path class="cls-5" d="M118.67,740.6059a2.7241,2.7241,0,1,1-2.7222,2.722,2.7228,2.7228,0,0,1,2.7222-2.722"/><text class="cls-10" transform="translate(104.4141 696.5586)">RSL</text><text class="cls-10" transform="translate(697.6357 496.6475) rotate(-90)">PWM</text><polyline class="cls-13" points="702.047 665.921 690.839 665.921 690.839 504.904"/><polyline class="cls-13" points="690.838 449.761 690.838 293.327 702.046 293.327"/><path class="cls-5" d="M340.2506,86.622a9.3811,9.3811,0,1,1-9.38-9.38,9.3808,9.3808,0,0,1,9.38,9.38"/><path class="cls-8" d="M336.2857,86.622a5.416,5.416,0,1,1-5.416-5.4157,5.4174,5.4174,0,0,1,5.416,5.4157"/><path class="cls-5" d="M340.2506,41.0927a9.3811,9.3811,0,1,1-9.38-9.3779,9.3795,9.3795,0,0,1,9.38,9.3779"/><path class="cls-8" d="M336.2857,41.0927a5.416,5.416,0,1,1-5.416-5.4138,5.4162,5.4162,0,0,1,5.416,5.4138"/><rect class="cls-19" x="232.2691" y="37.3623" width="66.468" height="53.384"/><polygon class="cls-20" points="249.809 42.821 281.013 42.821 288.583 50.577 288.583 85.287 242.425 85.287 242.425 50.761 249.809 42.821"/><path class="cls-5" d="M259.4576,68.72a1.9641,1.9641,0,1,1-1.9641,1.9622,1.9616,1.9616,0,0,1,1.9641-1.9622"/><path class="cls-5" d="M259.4576,58.64a1.9641,1.9641,0,1,1-1.9641,1.9622,1.9616,1.9616,0,0,1,1.9641-1.9622"/><path class="cls-5" d="M271.5494,68.72a1.9641,1.9641,0,1,1-1.9622,1.9622,1.962,1.962,0,0,1,1.9622-1.9622"/><path class="cls-5" d="M271.5494,58.64a1.9641,1.9641,0,1,1-1.9622,1.9622,1.962,1.962,0,0,1,1.9622-1.9622"/><rect class="cls-19" x="467.3372" y="26.4883" width="87.1479" height="92.3181"/><rect class="cls-20" x="478.1392" y="63.3523" width="65.5459" height="38.1741"/><rect class="cls-20" x="492.7232" y="101.5263" width="36.0039" height="8.8621"/><rect class="cls-20" x="499.1851" y="110.3884" width="23.2639" height="7.386"/><rect class="cls-21" x="469.2752" y="101.5263" width="23.448" height="13.292"/><rect class="cls-22" x="528.7271" y="101.5263" width="23.45" height="13.292"/><rect class="cls-19" x="365.0789" y="72.6482" width="75.3921" height="33.3101"/><rect class="cls-20" x="367.077" y="73.9905" width="71.4561" height="30.084"/><rect class="cls-19" x="365.1112" y="26.1682" width="75.3921" height="33.3101"/><rect class="cls-20" x="367.109" y="27.5102" width="71.4541" height="30.084"/><text class="cls-10" transform="translate(78.4893 38.2114)">INPUT</text><text class="cls-23" transform="translate(315.4482 246.9204)">NI <tspan class="cls-24" x="39.668" y="0">r</tspan><tspan x="50.1938" y="0">oboRIO</tspan></text><rect class="cls-6" x="370.0931" y="77.2402" width="65.3621" height="11.792"/><rect class="cls-6" x="370.0931" y="30.7624" width="65.3621" height="11.792"/><text class="cls-10" transform="translate(702.0215 92.6074)">POWER</text><rect class="cls-25" x="763.8348" y="79.2955" width="16.0342" height="15.1855"/><rect class="cls-26" x="778.9984" y="79.4149" width="10.6027" height="15.1855"/><text class="cls-10" transform="translate(697.667 118.5674)">STATUS</text><rect class="cls-25" x="763.8348" y="105.2554" width="16.0342" height="15.1855"/><rect class="cls-26" x="778.9984" y="105.3747" width="10.6027" height="15.1855"/><text class="cls-10" transform="translate(710.7012 158.2197)">RADIO</text><rect class="cls-25" x="763.8348" y="145.1685" width="16.0342" height="15.1855"/><rect class="cls-26" x="778.9984" y="145.2879" width="10.6027" height="15.1855"/><text class="cls-10" transform="translate(707.4893 185.0894)">COMM</text><rect class="cls-25" x="763.8348" y="171.7773" width="16.0342" height="15.1855"/><rect class="cls-26" x="778.9984" y="171.8966" width="10.6027" height="15.1855"/><text class="cls-10" transform="translate(712.209 213.0024)">MODE</text><rect class="cls-25" x="763.8348" y="198.3861" width="16.0342" height="15.1855"/><rect class="cls-26" x="778.9984" y="198.5054" width="10.6027" height="15.1855"/><text class="cls-10" transform="translate(728.6465 253.5479)">RSL</text><rect class="cls-25" x="763.8348" y="238.9319" width="16.0342" height="15.1855"/><rect class="cls-26" x="778.9984" y="239.0512" width="10.6027" height="15.1855"/><rect class="cls-27" x="607.9581" y="705.5343" width="108.8485" height="50.9946" rx="9.8548"/><rect class="cls-28" x="622.2247" y="717.38" width="27.1208" height="27.3032" rx="13.5604"/><rect class="cls-28" x="675.4192" y="717.38" width="27.1208" height="27.3032" rx="13.5604"/><rect class="cls-3" x="715.6678" y="271.7753" width="46.329" height="413.1708"/><path class="cls-5" d="M741.3113,294.3451a2.7242,2.7242,0,1,1-2.7241-2.7239,2.723,2.723,0,0,1,2.7241,2.7239"/><path class="cls-5" d="M729.12,294.3451a2.7242,2.7242,0,1,1-2.7222-2.7239,2.7212,2.7212,0,0,1,2.7222,2.7239"/><path class="cls-5" d="M753.9929,294.3451a2.723,2.723,0,1,1-2.7221-2.7239,2.7212,2.7212,0,0,1,2.7221,2.7239"/><path class="cls-5" d="M741.3113,335.5769a2.7242,2.7242,0,1,1-2.7241-2.7237,2.723,2.723,0,0,1,2.7241,2.7237"/><path class="cls-5" d="M729.12,335.5769a2.7242,2.7242,0,1,1-2.7222-2.7237,2.7212,2.7212,0,0,1,2.7222,2.7237"/><path class="cls-5" d="M753.9929,335.5769a2.723,2.723,0,1,1-2.7221-2.7237,2.7212,2.7212,0,0,1,2.7221,2.7237"/><path class="cls-5" d="M741.3113,376.8086a2.7242,2.7242,0,1,1-2.7241-2.7234,2.723,2.723,0,0,1,2.7241,2.7234"/><path class="cls-5" d="M729.12,376.8086a2.7242,2.7242,0,1,1-2.7222-2.7234,2.7212,2.7212,0,0,1,2.7222,2.7234"/><path class="cls-5" d="M753.9929,376.8086a2.723,2.723,0,1,1-2.7221-2.7234,2.7212,2.7212,0,0,1,2.7221,2.7234"/><path class="cls-5" d="M741.3113,418.04a2.7242,2.7242,0,1,1-2.7241-2.7232,2.723,2.723,0,0,1,2.7241,2.7232"/><path class="cls-5" d="M729.12,418.04a2.7242,2.7242,0,1,1-2.7222-2.7232A2.7212,2.7212,0,0,1,729.12,418.04"/><path class="cls-5" d="M753.9929,418.04a2.723,2.723,0,1,1-2.7221-2.7232,2.7212,2.7212,0,0,1,2.7221,2.7232"/><path class="cls-5" d="M741.3113,459.2721a2.7242,2.7242,0,1,1-2.7241-2.723,2.7231,2.7231,0,0,1,2.7241,2.723"/><path class="cls-5" d="M729.12,459.2721a2.7242,2.7242,0,1,1-2.7222-2.723,2.7213,2.7213,0,0,1,2.7222,2.723"/><path class="cls-5" d="M753.9929,459.2721a2.723,2.723,0,1,1-2.7221-2.723,2.7213,2.7213,0,0,1,2.7221,2.723"/><path class="cls-5" d="M741.3113,500.5039a2.7242,2.7242,0,1,1-2.7241-2.7228,2.723,2.723,0,0,1,2.7241,2.7228"/><path class="cls-5" d="M729.12,500.5039a2.7242,2.7242,0,1,1-2.7222-2.7228,2.7212,2.7212,0,0,1,2.7222,2.7228"/><path class="cls-5" d="M753.9929,500.5039a2.723,2.723,0,1,1-2.7221-2.7228,2.7212,2.7212,0,0,1,2.7221,2.7228"/><path class="cls-5" d="M741.3113,541.7357a2.7242,2.7242,0,1,1-2.7241-2.7226,2.723,2.723,0,0,1,2.7241,2.7226"/><path class="cls-5" d="M729.12,541.7357a2.7242,2.7242,0,1,1-2.7222-2.7226,2.7212,2.7212,0,0,1,2.7222,2.7226"/><path class="cls-5" d="M753.9929,541.7357a2.723,2.723,0,1,1-2.7221-2.7226,2.7212,2.7212,0,0,1,2.7221,2.7226"/><path class="cls-5" d="M741.3113,582.9674a2.7242,2.7242,0,1,1-2.7241-2.7223,2.723,2.723,0,0,1,2.7241,2.7223"/><path class="cls-5" d="M729.12,582.9674a2.7242,2.7242,0,1,1-2.7222-2.7223,2.7212,2.7212,0,0,1,2.7222,2.7223"/><path class="cls-5" d="M753.9929,582.9674a2.723,2.723,0,1,1-2.7221-2.7223,2.7212,2.7212,0,0,1,2.7221,2.7223"/><path class="cls-5" d="M741.3113,624.1992a2.7242,2.7242,0,1,1-2.7241-2.7222,2.723,2.723,0,0,1,2.7241,2.7222"/><path class="cls-5" d="M729.12,624.1992a2.7242,2.7242,0,1,1-2.7222-2.7222,2.7212,2.7212,0,0,1,2.7222,2.7222"/><path class="cls-5" d="M753.9929,624.1992a2.723,2.723,0,1,1-2.7221-2.7222,2.7212,2.7212,0,0,1,2.7221,2.7222"/><path class="cls-5" d="M741.3113,665.4309a2.7242,2.7242,0,1,1-2.7241-2.7219,2.723,2.723,0,0,1,2.7241,2.7219"/><path class="cls-5" d="M729.12,665.4309a2.7242,2.7242,0,1,1-2.7222-2.7219,2.7212,2.7212,0,0,1,2.7222,2.7219"/><path class="cls-5" d="M753.9929,665.4309a2.723,2.723,0,1,1-2.7221-2.7219,2.7212,2.7212,0,0,1,2.7221,2.7219"/><text class="cls-29" transform="translate(79.1309 51.7856)">7-16V </text><line class="cls-30" x1="110.2501" y1="50.4084" x2="113.6311" y2="50.4084"/><line class="cls-30" x1="115.4901" y1="50.4084" x2="118.8671" y2="50.4084"/><line class="cls-30" x1="120.7343" y1="50.4084" x2="124.1153" y2="50.4084"/><line class="cls-30" x1="110.2501" y1="47.0152" x2="124.1153" y2="47.0152"/><text class="cls-29" transform="translate(75.8926 63.8105)">45 W MAX</text><line class="cls-31" x1="135.9986" y1="180.3455" x2="135.9986" y2="204.7964"/><line class="cls-31" x1="149.6974" y1="154.9488" x2="149.6974" y2="177.9405"/><line class="cls-31" x1="163.3881" y1="178.502" x2="163.3881" y2="201.5127"/><line class="cls-31" x1="177.0788" y1="154.7094" x2="177.0788" y2="177.6998"/><line class="cls-31" x1="131.4489" y1="206.9395" x2="140.553" y2="206.9395"/><line class="cls-31" x1="129.2327" y1="204.7923" x2="142.7651" y2="204.7923"/><rect class="cls-32" x="134.2897" y="176.5666" width="3.423" height="3.4251"/><rect class="cls-12" x="147.9804" y="176.5666" width="3.4266" height="3.4251"/><rect class="cls-12" x="161.6759" y="176.5633" width="3.4251" height="3.425"/><rect class="cls-12" x="175.3741" y="176.5666" width="3.421" height="3.4251"/><polygon class="cls-31" points="129.598 161.159 129.598 195.392 183.471 195.384 183.471 161.159 129.598 161.159"/><text class="cls-33" transform="translate(153.5342 210.4229) scale(1 1.0622)">SCL</text><text class="cls-34" transform="translate(138.0938 150.7793) scale(1 1.0115)">3.3V S<tspan class="cls-35" x="32.772" y="0">D</tspan><tspan x="40.2158" y="0">A</tspan></text><line class="cls-31" x1="133.4621" y1="209.0907" x2="138.5358" y2="209.0907"/><line class="cls-31" x1="149.0033" y1="241.7648" x2="149.0033" y2="266.0981"/><line class="cls-31" x1="162.6981" y1="242.1382" x2="162.6981" y2="273.7247"/><line class="cls-31" x1="176.3888" y1="242.1383" x2="176.3888" y2="262.5749"/><line class="cls-31" x1="146.4665" y1="270.3963" x2="151.5401" y2="270.3963"/><line class="cls-31" x1="144.4532" y1="268.2451" x2="153.5574" y2="268.2451"/><line class="cls-31" x1="142.2371" y1="266.098" x2="155.7695" y2="266.098"/><rect class="cls-32" x="174.6806" y="238.3403" width="3.4251" height="3.4246"/><rect class="cls-32" x="147.2936" y="238.3403" width="3.4226" height="3.4246"/><rect class="cls-32" x="160.9899" y="238.3403" width="3.421" height="3.4246"/><rect class="cls-31" x="142.1601" y="222.5301" width="41.0802" height="34.2324"/><text class="cls-34" transform="translate(165.9033 273.1387) scale(1 1.0115)">TXD</text><text class="cls-34" transform="translate(151.1484 284.1152) scale(1 1.0115)">RXD</text><line class="cls-31" x1="30.2193" y1="700.3024" x2="30.2193" y2="711.2007"/><line class="cls-31" x1="43.9221" y1="700.2293" x2="44.2387" y2="718.6405"/><line class="cls-31" x1="57.6128" y1="700.3024" x2="57.6128" y2="708.1483"/><line class="cls-31" x1="27.6824" y1="715.503" x2="32.7561" y2="715.503"/><line class="cls-31" x1="25.6692" y1="713.3477" x2="34.7733" y2="713.3477"/><line class="cls-31" x1="23.453" y1="711.2045" x2="36.9854" y2="711.2045"/><text class="cls-36" transform="translate(37.8018 728.7949) scale(1 1.0056)">5V</text><text class="cls-36" transform="translate(54.1855 717.4785) scale(1 1.0056)">S</text><rect class="cls-37" x="56.0641" y="696.7668" width="3.1791" height="3.4581"/><rect class="cls-37" x="42.4908" y="697.0229" width="3.1791" height="3.4581"/><rect class="cls-37" x="28.7335" y="696.9779" width="3.1791" height="3.4581"/><line class="cls-31" x1="74.8214" y1="758.3882" x2="79.8951" y2="758.3882"/><line class="cls-31" x1="72.8082" y1="756.2288" x2="81.9123" y2="756.2288"/><line class="cls-31" x1="70.5961" y1="754.0858" x2="84.1285" y2="754.0858"/><line class="cls-31" x1="77.3623" y1="745.7041" x2="89.9002" y2="745.7041"/><line class="cls-31" x1="89.8354" y1="731.9566" x2="81.8312" y2="731.9566"/><line class="cls-31" x1="77.3583" y1="745.3585" x2="77.3583" y2="754.0858"/><line class="cls-31" x1="77.3624" y1="752.7098" x2="77.3624" y2="746.0533"/><text class="cls-36" transform="translate(73.6855 735.7168) scale(1 1.0056)">S</text><rect class="cls-37" x="89.9048" y="730.1524" width="3.1791" height="3.4581"/><rect class="cls-37" x="89.7232" y="744.014" width="3.1791" height="3.4581"/><line class="cls-31" x1="197.6521" y1="758.3841" x2="202.7258" y2="758.3841"/><line class="cls-38" x1="195.6389" y1="756.2288" x2="204.7429" y2="756.2288"/><line class="cls-31" x1="193.4267" y1="754.0817" x2="206.9591" y2="754.0817"/><line class="cls-31" x1="212.7716" y1="731.9566" x2="204.6618" y2="731.9566"/><line class="cls-31" x1="212.7716" y1="718.2334" x2="204.6618" y2="718.2334"/><polyline class="cls-31" points="200.193 754.082 200.193 745.505 212.772 745.505"/><text class="cls-39" transform="translate(180.0332 720.7158) scale(1 1.0605)">FWD</text><text class="cls-40" transform="translate(184.1074 734.6484) scale(1 1.1297)">REV</text><rect class="cls-37" x="212.8856" y="716.4106" width="3.1791" height="3.4581"/><rect class="cls-37" x="212.5635" y="730.1241" width="3.1791" height="3.4581"/><rect class="cls-37" x="212.5348" y="743.8709" width="3.1791" height="3.4581"/><line class="cls-41" x1="585.4038" y1="758.5383" x2="590.4774" y2="758.5383"/><line class="cls-41" x1="583.3946" y1="756.3871" x2="592.4987" y2="756.3871"/><line class="cls-41" x1="581.1784" y1="754.24" x2="594.7107" y2="754.24"/><line class="cls-41" x1="583.5367" y1="731.7577" x2="575.5122" y2="731.7577"/><line class="cls-41" x1="583.5326" y1="718.1928" x2="575.5081" y2="718.1928"/><polyline class="cls-41" points="587.945 754.24 587.945 745.716 575.512 745.716"/><text class="cls-39" transform="translate(584.4121 721.0605) scale(1 1.0605)">S</text><text class="cls-40" transform="translate(585.0684 735.2344) scale(1 1.1297)">5V</text><rect class="cls-37" x="572.0966" y="716.3658" width="3.1791" height="3.4581"/><rect class="cls-37" x="572.3047" y="729.8937" width="3.1791" height="3.4581"/><rect class="cls-37" x="572.2579" y="743.8379" width="3.1791" height="3.4581"/><line class="cls-31" x1="749.1159" y1="710.9135" x2="754.1895" y2="710.9135"/><line class="cls-31" x1="747.1067" y1="708.7664" x2="756.2067" y2="708.7664"/><line class="cls-31" x1="744.8946" y1="706.6193" x2="758.4269" y2="706.6193"/><line class="cls-31" x1="724.2585" y1="695.6441" x2="724.2585" y2="703.5549"/><line class="cls-31" x1="737.9533" y1="695.7049" x2="737.9533" y2="713.8443"/><line class="cls-31" x1="751.6439" y1="695.6441" x2="751.6439" y2="706.9888"/><text class="cls-36" transform="translate(720.9482 712.8965) scale(1 1.0056)">S</text><text class="cls-36" transform="translate(731.7676 723.9043) scale(1 1.0056)">6V</text><rect class="cls-37" x="722.5587" y="692.3738" width="3.1791" height="3.4581"/><rect class="cls-37" x="736.3568" y="692.3738" width="3.1791" height="3.4581"/><rect class="cls-37" x="749.998" y="692.3738" width="3.1791" height="3.4581"/><path class="cls-42" d="M606.1408,648.0061a6.8484,6.8484,0,0,0,6.8554-6.8392"/><path class="cls-42" d="M606.1408,634.3155a6.8529,6.8529,0,0,0-6.8394,6.8515"/><text class="cls-43" transform="translate(566.6973 661.2109) scale(1 1.0349)">A<tspan class="cls-44" x="6.9185" y="0">CCELEROMETER</tspan></text><text class="cls-45" transform="translate(601.8223 608.0439) scale(1 1.0349)">Y</text><text class="cls-45" transform="translate(589.2734 635.6387) scale(1 1.0349)">Z</text><text class="cls-45" transform="translate(634.6191 645.1221) scale(1 1.0349)">X</text><line class="cls-46" x1="630.1573" y1="641.5078" x2="606.1447" y2="641.5078"/><line class="cls-46" x1="606.1408" y1="641.5078" x2="606.1408" y2="614.4025"/><path class="cls-31" d="M606.1408,648.0061a6.8453,6.8453,0,1,0-6.8394-6.8392A6.8484,6.8484,0,0,0,606.1408,648.0061Z"/><polyline class="cls-12" points="633.782 641.508 629.057 639.685 630.178 641.508 629.057 643.326"/><polyline class="cls-47" points="633.782 641.508 629.057 639.685 630.178 641.508 629.057 643.326"/><polyline class="cls-12" points="606.141 610.9 604.343 615.632 606.141 614.163 607.951 615.632 606.141 610.9"/><polyline class="cls-47" points="606.141 610.9 604.343 615.632 606.141 614.163 607.951 615.632 606.141 610.9"/><line class="cls-48" x1="629.0573" y1="643.3262" x2="633.7818" y2="641.5078"/><line class="cls-47" x1="629.0573" y1="643.3262" x2="633.7818" y2="641.5078"/><path class="cls-12" d="M606.1447,642.7133a1.5465,1.5465,0,1,0-1.5424-1.5464,1.5521,1.5521,0,0,0,1.5424,1.5464"/><path class="cls-31" d="M606.1447,642.7133a1.5465,1.5465,0,1,0-1.5424-1.5464A1.5521,1.5521,0,0,0,606.1447,642.7133Z"/><line class="cls-42" x1="610.8509" y1="269.5564" x2="651.931" y2="269.5564"/><line class="cls-31" x1="602.1203" y1="245.5845" x2="625.8081" y2="245.5845"/><line class="cls-31" x1="602.1203" y1="231.8898" x2="625.8081" y2="231.8898"/><line class="cls-31" x1="602.1206" y1="218.1991" x2="625.8084" y2="218.1991"/><line class="cls-31" x1="610.855" y1="166.8538" x2="610.855" y2="269.5564"/><line class="cls-31" x1="602.1203" y1="204.5084" x2="625.8081" y2="204.5084"/><line class="cls-31" x1="602.1203" y1="190.8218" x2="625.8081" y2="190.8218"/><line class="cls-31" x1="651.9354" y1="269.5681" x2="651.9354" y2="166.8656"/><line class="cls-42" x1="651.9352" y1="166.8497" x2="610.855" y2="166.8497"/><line class="cls-49" x1="636.5277" y1="245.5927" x2="660.2194" y2="245.5927"/><line class="cls-49" x1="602.1203" y1="245.5845" x2="625.8081" y2="245.5845"/><line class="cls-49" x1="602.1162" y1="231.8939" x2="625.804" y2="231.8939"/><line class="cls-49" x1="636.5236" y1="231.8939" x2="660.2153" y2="231.8939"/><line class="cls-49" x1="602.1162" y1="218.2031" x2="625.804" y2="218.2031"/><line class="cls-49" x1="636.5236" y1="218.2031" x2="660.2153" y2="218.2031"/><line class="cls-49" x1="591.2222" y1="181.9813" x2="591.2222" y2="190.8866"/><line class="cls-49" x1="602.1162" y1="204.5084" x2="625.804" y2="204.5084"/><line class="cls-49" x1="636.5236" y1="204.5084" x2="660.2153" y2="204.5084"/><line class="cls-49" x1="588.6813" y1="195.189" x2="593.7589" y2="195.189"/><line class="cls-49" x1="586.6762" y1="193.0378" x2="595.7762" y2="193.0378"/><line class="cls-49" x1="584.46" y1="190.8907" x2="597.9882" y2="190.8907"/><line class="cls-49" x1="602.1162" y1="190.8136" x2="625.804" y2="190.8136"/><line class="cls-49" x1="636.5236" y1="190.8136" x2="660.2153" y2="190.8136"/><rect class="cls-49" x="610.855" y="166.8539" width="41.0802" height="102.7025"/><text class="cls-34" transform="translate(662.3281 193.7446) scale(1 1.0115)">CS0</text><text class="cls-34" transform="translate(662.3223 207.4214) scale(1 1.0115)">CS1</text><text class="cls-34" transform="translate(662.3145 221.3638) scale(1 1.0115)">5V</text><text class="cls-34" transform="translate(662.3066 235.1182) scale(1 1.0115)">CS2</text><text class="cls-34" transform="translate(662.498 248.8228) scale(1 1.0115)">CS3</text><text class="cls-34" transform="translate(570.333 208.3462) scale(1 1.0115)">SCLK</text><text class="cls-34" transform="translate(569.0391 222.0435) scale(1 1.0115)">MOSI</text><text class="cls-34" transform="translate(569.0313 235.7979) scale(1 1.0115)">MISO</text><text class="cls-34" transform="translate(576.1592 249.9888) scale(1 1.0115)">3.3V</text><rect class="cls-37" x="624.1796" y="188.7974" width="3.1791" height="3.4581"/><rect class="cls-37" x="624.1796" y="202.484" width="3.1791" height="3.4581"/><rect class="cls-37" x="624.1799" y="216.1747" width="3.1791" height="3.4581"/><rect class="cls-37" x="624.1796" y="229.8654" width="3.1791" height="3.4581"/><rect class="cls-37" x="624.1796" y="243.5601" width="3.1791" height="3.4581"/><rect class="cls-37" x="634.8992" y="243.5683" width="3.1791" height="3.4581"/><rect class="cls-37" x="634.8951" y="229.8695" width="3.1791" height="3.4581"/><rect class="cls-37" x="634.8951" y="216.1787" width="3.1791" height="3.4581"/><rect class="cls-37" x="634.8951" y="202.484" width="3.1791" height="3.4581"/><rect class="cls-37" x="634.8951" y="188.7892" width="3.1791" height="3.4581"/><text class="cls-10" transform="translate(617.7402 156.5034)">SPI</text></g><g id="Shader"><g class="cls-50"><path class="cls-48" d="M53.0859,781.6182A50.1428,50.1428,0,0,1,3,731.5322V53.0859A50.1424,50.1424,0,0,1,53.0859,3H743.1943A50.1425,50.1425,0,0,1,793.28,53.0859V731.5322a50.1428,50.1428,0,0,1-50.086,50.086ZM587.9707,15.41c-12.7881,0-23.1919,9.8247-23.1919,21.9V261.6743c0,12.0762,10.4038,21.9,23.1919,21.9h82.9629c12.7876,0,23.1914-9.8242,23.1914-21.9V37.3105c0-12.0756-10.4038-21.9-23.1914-21.9Z"/></g><path class="cls-51" d="M743.1941,6A47.0871,47.0871,0,0,1,790.28,53.086V731.532a47.0858,47.0858,0,0,1-47.0859,47.086H53.0859A47.0858,47.0858,0,0,1,6,731.532V53.086A47.0871,47.0871,0,0,1,53.0859,6H743.1941M587.9705,286.5746h82.963c14.4652,0,26.1914-11.1482,26.1914-24.9V37.3106c0-13.752-11.7262-24.9-26.1914-24.9h-82.963c-14.4652,0-26.1915,11.1482-26.1915,24.9V261.6744c0,13.752,11.7263,24.9,26.1915,24.9M743.1941,0H53.0859A53.146,53.146,0,0,0,0,53.086V731.532a53.1461,53.1461,0,0,0,53.0859,53.086H743.1941A53.1461,53.1461,0,0,0,796.28,731.532V53.086A53.146,53.146,0,0,0,743.1941,0ZM587.9705,280.5746c-11.1336,0-20.1915-8.4785-20.1915-18.9V37.3106c0-10.4216,9.0579-18.9,20.1915-18.9h82.963c11.1335,0,20.1914,8.4786,20.1914,18.9V261.6744c0,10.4217-9.0579,18.9-20.1914,18.9Z"/></g><g id="Edge_Fix_TOP_" data-name="Edge Fix (TOP)"><path class="cls-12" d="M-.738-.99V786.73H797.28V-.99ZM749.0088,777.8273,50.986,778.341c-25.7844-2.0646-41.7152-20.1636-44.8769-45.14L6.873,47.536c2.03-21.1,20.1644-39.3677,40.9884-41.6014l700.17.1456c21.0428,2.4862,38.8976,20.007,41.9895,40.9877l.0759,684.1015C790.1222,756.4034,773.9367,773.5706,749.0088,777.8273Z"/></g></svg>