<svg xmlns="http://www.w3.org/2000/svg" viewBox="0 0 800 785"><defs><style>.cls-1{fill:#434343;}.cls-2{fill:#4f4e51;}.cls-3{fill:#323031;}.cls-4{fill:#424242;}.cls-5{fill:#6a5f27;}.cls-6{fill:#5a5a5d;}.cls-7{fill:#f2f2f2;}.cls-8{fill:#221f1f;}.cls-13,.cls-30,.cls-31,.cls-41,.cls-42,.cls-46,.cls-47,.cls-49,.cls-9{fill:none;}.cls-9{stroke:#5a5a5d;stroke-width:5.416px;}.cls-13,.cls-9{stroke-miterlimit:10;}.cls-10{font-size:16.248px;}.cls-10,.cls-11,.cls-12,.cls-17,.cls-22,.cls-29,.cls-32,.cls-33,.cls-34,.cls-36,.cls-37,.cls-38,.cls-39,.cls-40,.cls-43,.cls-45{fill:#fff;}.cls-10,.cls-11,.cls-17,.cls-22,.cls-29,.cls-33,.cls-34,.cls-36,.cls-39,.cls-40,.cls-43,.cls-45{font-family:Heebo-Light, Heebo;font-weight:300;}.cls-11{font-size:10.832px;}.cls-13,.cls-31,.cls-32,.cls-37,.cls-38,.cls-46,.cls-47,.cls-49{stroke:#fff;}.cls-13{stroke-width:2.708px;}.cls-14{letter-spacing:0.009em;}.cls-15{letter-spacing:-0.058em;}.cls-16{letter-spacing:-0.031em;}.cls-17{font-size:11.7401px;}.cls-18{fill:#9b9b9b;}.cls-19{fill:#171717;}.cls-20{fill:#f3ea07;}.cls-21{fill:#7cc244;}.cls-22{font-size:32.496px;}.cls-23{letter-spacing:-0.013em;}.cls-24{letter-spacing:0em;}.cls-25{fill:#51545a;}.cls-26{fill:#3c3d42;}.cls-27{fill:#5a5d65;}.cls-28{fill:#23446c;}.cls-29{font-size:11.1981px;}.cls-30,.cls-41{stroke:#f1f2f2;}.cls-30,.cls-31,.cls-32,.cls-38,.cls-41,.cls-42,.cls-46{stroke-miterlimit:2;}.cls-31,.cls-32,.cls-37,.cls-38,.cls-41,.cls-42,.cls-49{stroke-width:0.686px;}.cls-32,.cls-37,.cls-47{stroke-linecap:round;}.cls-33{font-size:10.9221px;}.cls-34{font-size:11.699px;}.cls-35{letter-spacing:-0.019em;}.cls-36{font-size:10.9278px;}.cls-37,.cls-47,.cls-49{stroke-linejoin:round;}.cls-39{font-size:9.9074px;}.cls-40{font-size:9.6078px;}.cls-42{stroke:#020202;}.cls-43,.cls-45{font-size:11.4352px;}.cls-43{letter-spacing:-0.02em;}.cls-44{letter-spacing:0.0001em;}.cls-46{stroke-width:0.588px;}.cls-47{stroke-width:0.506px;}.cls-48{fill:#231f20;}.cls-50{opacity:0.33;}.cls-51{fill:#00aeef;}</style></defs><g id="roboRIO"><path class="cls-1" d="M742.6656,776.7133l-699.2185.9311a41.8157,41.8157,0,0,1-41.76-41.8712V44.8406a41.8157,41.8157,0,0,1,41.76-41.8712l704.5444-.9311a41.8157,41.8157,0,0,1,41.76,41.8712V729.502c2.3995,27.8894-12.3473,47.6874-38.9831,47.21"/><rect class="cls-2" x="14.0816" y="17.6242" width="763.4358" height="747.9174" rx="29.4466"/><rect class="cls-3" x="20.4822" y="278.8351" width="46.329" height="413.1708"/><path class="cls-4" d="M549.4812,136.0788H237.1272a19.4986,19.4986,0,0,1-19.4981-19.4978V36.0549a19.4986,19.4986,0,0,1,19.4981-19.4981h312.354A19.4986,19.4986,0,0,1,568.979,36.0549V116.581a19.4985,19.4985,0,0,1-19.4978,19.4978"/><rect class="cls-3" x="252.1433" y="521.258" width="279.7219" height="51.5601"/><path class="cls-5" d="M46.1257,301.4049a2.7242,2.7242,0,1,1-2.7242-2.7238,2.7231,2.7231,0,0,1,2.7242,2.7238"/><path class="cls-5" d="M33.9342,301.4049a2.7241,2.7241,0,1,1-2.7221-2.7238,2.7212,2.7212,0,0,1,2.7221,2.7238"/><path class="cls-5" d="M58.8073,301.4049a2.723,2.723,0,1,1-2.7222-2.7238,2.7212,2.7212,0,0,1,2.7222,2.7238"/><path class="cls-5" d="M46.1257,342.6367a2.7242,2.7242,0,1,1-2.7242-2.7237,2.7232,2.7232,0,0,1,2.7242,2.7237"/><path class="cls-5" d="M33.9342,342.6367a2.7241,2.7241,0,1,1-2.7221-2.7237,2.7213,2.7213,0,0,1,2.7221,2.7237"/><path class="cls-5" d="M58.8073,342.6367a2.723,2.723,0,1,1-2.7222-2.7237,2.7213,2.7213,0,0,1,2.7222,2.7237"/><path class="cls-5" d="M46.1257,383.8685a2.7242,2.7242,0,1,1-2.7242-2.7235,2.7231,2.7231,0,0,1,2.7242,2.7235"/><path class="cls-5" d="M33.9342,383.8685a2.7241,2.7241,0,1,1-2.7221-2.7235,2.7212,2.7212,0,0,1,2.7221,2.7235"/><path class="cls-5" d="M58.8073,383.8685a2.723,2.723,0,1,1-2.7222-2.7235,2.7212,2.7212,0,0,1,2.7222,2.7235"/><path class="cls-5" d="M46.1257,425.1a2.7242,2.7242,0,1,1-2.7242-2.7232A2.7231,2.7231,0,0,1,46.1257,425.1"/><path class="cls-5" d="M33.9342,425.1a2.7241,2.7241,0,1,1-2.7221-2.7232A2.7212,2.7212,0,0,1,33.9342,425.1"/><path class="cls-5" d="M58.8073,425.1a2.723,2.723,0,1,1-2.7222-2.7232A2.7212,2.7212,0,0,1,58.8073,425.1"/><path class="cls-5" d="M46.1257,466.332a2.7242,2.7242,0,1,1-2.7242-2.723,2.7231,2.7231,0,0,1,2.7242,2.723"/><path class="cls-5" d="M33.9342,466.332a2.7241,2.7241,0,1,1-2.7221-2.723,2.7212,2.7212,0,0,1,2.7221,2.723"/><path class="cls-5" d="M58.8073,466.332a2.723,2.723,0,1,1-2.7222-2.723,2.7212,2.7212,0,0,1,2.7222,2.723"/><path class="cls-5" d="M46.1257,507.5637a2.7242,2.7242,0,1,1-2.7242-2.7228,2.7231,2.7231,0,0,1,2.7242,2.7228"/><path class="cls-5" d="M33.9342,507.5637a2.7241,2.7241,0,1,1-2.7221-2.7228,2.7212,2.7212,0,0,1,2.7221,2.7228"/><path class="cls-5" d="M58.8073,507.5637a2.723,2.723,0,1,1-2.7222-2.7228,2.7212,2.7212,0,0,1,2.7222,2.7228"/><path class="cls-5" d="M46.1257,548.7955a2.7242,2.7242,0,1,1-2.7242-2.7226,2.7231,2.7231,0,0,1,2.7242,2.7226"/><path class="cls-5" d="M33.9342,548.7955a2.7241,2.7241,0,1,1-2.7221-2.7226,2.7212,2.7212,0,0,1,2.7221,2.7226"/><path class="cls-5" d="M58.8073,548.7955a2.723,2.723,0,1,1-2.7222-2.7226,2.7212,2.7212,0,0,1,2.7222,2.7226"/><path class="cls-5" d="M46.1257,590.0272a2.7242,2.7242,0,1,1-2.7242-2.7223,2.7231,2.7231,0,0,1,2.7242,2.7223"/><path class="cls-5" d="M33.9342,590.0272a2.7241,2.7241,0,1,1-2.7221-2.7223,2.7212,2.7212,0,0,1,2.7221,2.7223"/><path class="cls-5" d="M58.8073,590.0272a2.723,2.723,0,1,1-2.7222-2.7223,2.7212,2.7212,0,0,1,2.7222,2.7223"/><path class="cls-5" d="M46.1257,631.259a2.7242,2.7242,0,1,1-2.7242-2.7221,2.7232,2.7232,0,0,1,2.7242,2.7221"/><path class="cls-5" d="M33.9342,631.259a2.7241,2.7241,0,1,1-2.7221-2.7221,2.7212,2.7212,0,0,1,2.7221,2.7221"/><path class="cls-5" d="M58.8073,631.259a2.723,2.723,0,1,1-2.7222-2.7221,2.7213,2.7213,0,0,1,2.7222,2.7221"/><path class="cls-5" d="M46.1257,672.4908a2.7242,2.7242,0,1,1-2.7242-2.722,2.7231,2.7231,0,0,1,2.7242,2.722"/><path class="cls-5" d="M33.9342,672.4908a2.7241,2.7241,0,1,1-2.7221-2.722,2.7212,2.7212,0,0,1,2.7221,2.722"/><path class="cls-5" d="M58.8073,672.4908a2.723,2.723,0,1,1-2.7222-2.722,2.7212,2.7212,0,0,1,2.7222,2.722"/><rect class="cls-3" x="21.8572" y="223.842" width="45.05" height="36.188"/><path class="cls-5" d="M47.1062,241.9362a2.7241,2.7241,0,1,1-2.7241-2.7219,2.7231,2.7231,0,0,1,2.7241,2.7219"/><path class="cls-5" d="M34.9148,241.9362a2.7242,2.7242,0,1,1-2.7222-2.7219,2.7213,2.7213,0,0,1,2.7222,2.7219"/><path class="cls-5" d="M59.7878,241.9362a2.723,2.723,0,1,1-2.7221-2.7219,2.7213,2.7213,0,0,1,2.7221,2.7219"/><rect class="cls-3" x="21.8572" y="160.436" width="60.6521" height="39.05"/><path class="cls-5" d="M48.3777,179.96a2.7242,2.7242,0,1,1-2.7241-2.7219,2.7247,2.7247,0,0,1,2.7241,2.7219"/><path class="cls-5" d="M36.1863,179.96a2.7242,2.7242,0,1,1-2.7222-2.7219,2.7229,2.7229,0,0,1,2.7222,2.7219"/><path class="cls-5" d="M61.0593,179.96a2.723,2.723,0,1,1-2.7221-2.7219,2.7229,2.7229,0,0,1,2.7221,2.7219"/><path class="cls-5" d="M73.6257,179.96a2.7241,2.7241,0,1,1-2.7221-2.7219,2.7229,2.7229,0,0,1,2.7221,2.7219"/><rect class="cls-3" x="225.0826" y="708.6143" width="158.48" height="45.05"/><path class="cls-5" d="M243.1786,728.4161a2.7231,2.7231,0,1,1-2.7242,2.7221,2.7212,2.7212,0,0,1,2.7242-2.7221"/><path class="cls-5" d="M243.1786,740.6056a2.7241,2.7241,0,1,1-2.7242,2.7241,2.7216,2.7216,0,0,1,2.7242-2.7241"/><path class="cls-5" d="M243.1786,715.7326a2.7241,2.7241,0,1,1-2.7242,2.722,2.7211,2.7211,0,0,1,2.7242-2.722"/><rect class="cls-3" x="265.5345" y="708.6143" width="36.188" height="45.05"/><path class="cls-5" d="M283.63,728.4161a2.7231,2.7231,0,1,1-2.7221,2.7221,2.7229,2.7229,0,0,1,2.7221-2.7221"/><path class="cls-5" d="M283.63,740.6056a2.7241,2.7241,0,1,1-2.7221,2.7241,2.7233,2.7233,0,0,1,2.7221-2.7241"/><path class="cls-5" d="M283.63,715.7326a2.7241,2.7241,0,1,1-2.7221,2.722,2.7228,2.7228,0,0,1,2.7221-2.722"/><rect class="cls-3" x="347.3746" y="708.6143" width="36.188" height="45.05"/><path class="cls-5" d="M365.47,728.4161a2.7231,2.7231,0,1,1-2.7222,2.7221,2.7228,2.7228,0,0,1,2.7222-2.7221"/><path class="cls-5" d="M365.47,740.6056a2.7241,2.7241,0,1,1-2.7222,2.7241,2.7232,2.7232,0,0,1,2.7222-2.7241"/><path class="cls-5" d="M365.47,715.7326a2.7241,2.7241,0,1,1-2.7222,2.722,2.7227,2.7227,0,0,1,2.7222-2.722"/><rect class="cls-3" x="306.4786" y="708.6143" width="36.188" height="45.05"/><path class="cls-5" d="M324.5731,728.4161a2.7231,2.7231,0,1,1-2.7222,2.7221,2.7212,2.7212,0,0,1,2.7222-2.7221"/><path class="cls-5" d="M324.5731,740.6056a2.7241,2.7241,0,1,1-2.7222,2.7241,2.7216,2.7216,0,0,1,2.7222-2.7241"/><path class="cls-5" d="M324.5731,715.7326a2.7241,2.7241,0,1,1-2.7222,2.722,2.7211,2.7211,0,0,1,2.7222-2.722"/><rect class="cls-3" x="401.6113" y="708.5063" width="158.48" height="45.05"/><path class="cls-5" d="M419.7043,728.3081a2.7231,2.7231,0,1,1-2.7222,2.7221,2.7216,2.7216,0,0,1,2.7222-2.7221"/><path class="cls-5" d="M419.7043,740.4976a2.7241,2.7241,0,1,1-2.7222,2.7241,2.722,2.722,0,0,1,2.7222-2.7241"/><path class="cls-5" d="M419.7043,715.6246a2.7241,2.7241,0,1,1-2.7222,2.722,2.7215,2.7215,0,0,1,2.7222-2.722"/><rect class="cls-3" x="442.0632" y="708.5063" width="36.188" height="45.05"/><path class="cls-5" d="M460.1574,728.3081a2.7231,2.7231,0,1,1-2.7241,2.7221,2.7213,2.7213,0,0,1,2.7241-2.7221"/><path class="cls-5" d="M460.1574,740.4976a2.7241,2.7241,0,1,1-2.7241,2.7241,2.7216,2.7216,0,0,1,2.7241-2.7241"/><path class="cls-5" d="M460.1574,715.6246a2.7241,2.7241,0,1,1-2.7241,2.722,2.7212,2.7212,0,0,1,2.7241-2.722"/><rect class="cls-3" x="523.9033" y="708.5063" width="36.188" height="45.05"/><path class="cls-5" d="M541.9973,728.3081a2.7231,2.7231,0,1,1-2.7241,2.7221,2.7212,2.7212,0,0,1,2.7241-2.7221"/><path class="cls-5" d="M541.9973,740.4976a2.7241,2.7241,0,1,1-2.7241,2.7241,2.7216,2.7216,0,0,1,2.7241-2.7241"/><path class="cls-5" d="M541.9973,715.6246a2.7241,2.7241,0,1,1-2.7241,2.722,2.7211,2.7211,0,0,1,2.7241-2.722"/><rect class="cls-3" x="483.0053" y="708.5063" width="36.1899" height="45.05"/><path class="cls-5" d="M501.1008,728.3081a2.7231,2.7231,0,1,1-2.7241,2.7221,2.7212,2.7212,0,0,1,2.7241-2.7221"/><path class="cls-5" d="M501.1008,740.4976a2.7241,2.7241,0,1,1-2.7241,2.7241,2.7216,2.7216,0,0,1,2.7241-2.7241"/><path class="cls-5" d="M501.1008,715.6246a2.7241,2.7241,0,1,1-2.7241,2.722,2.7211,2.7211,0,0,1,2.7241-2.722"/><rect class="cls-6" x="26.6213" y="86.444" width="43.512" height="24.8181"/><rect class="cls-7" x="36.3975" y="91.0981" width="27.9199" height="14.7339"/><path class="cls-8" d="M49.3874,98.8542a9.791,9.791,0,1,1-9.7922-9.792,9.79,9.79,0,0,1,9.7922,9.792"/><rect class="cls-6" x="26.6213" y="111.2621" width="43.512" height="24.8159"/><rect class="cls-7" x="36.3975" y="115.9162" width="27.9199" height="14.7339"/><path class="cls-8" d="M49.3874,123.6706a9.791,9.791,0,1,1-9.7922-9.792,9.7922,9.7922,0,0,1,9.7922,9.792"/><polygon class="cls-3" points="140.624 24.311 140.624 58.285 133.238 58.285 133.238 98.465 140.624 98.465 140.624 123.671 176.074 123.671 176.074 98.465 191.582 98.465 191.582 56.807 178.29 56.069 177.552 24.311 140.624 24.311"/><path class="cls-8" d="M168.1394,39.446a9.791,9.791,0,1,1-9.7922-9.792,9.7922,9.7922,0,0,1,9.7922,9.792"/><path class="cls-8" d="M168.1394,108.4323a9.791,9.791,0,1,1-9.7922-9.792,9.7908,9.7908,0,0,1,9.7922,9.792"/><rect class="cls-8" x="162.4114" y="62.6181" width="25.478" height="10.3379"/><rect class="cls-8" x="162.4114" y="81.09" width="25.478" height="10.3401"/><path class="cls-7" d="M357.6765,619.4048H354.6a82.8715,82.8715,0,0,1-6.85-8.9439h-.042v8.9439h-3.6221v-15.27h3.3379c2.2041,2.706,5.4961,6.6759,6.5881,8.748h.042v-8.748h3.6221v15.27"/><path class="cls-7" d="M368.345,604.1344l5.802,15.27h-4.886l-1.2-3.642h-4.7341l-1.4619,3.642h-3.5979l6.2158-15.27Zm-1.0259,9.206c-.5022-1.81-.9382-3.272-1.4841-5.454h-.044c-.5881,2.182-1.112,3.644-1.68,5.454h3.208"/><polygon class="cls-7" points="375.608 619.405 375.608 606.993 371.202 606.993 371.202 604.135 384.618 604.135 384.618 606.993 380.212 606.993 380.212 619.405 375.608 619.405"/><rect class="cls-7" x="386.1013" y="604.136" width="4.604" height="15.27"/><path class="cls-7" d="M391.814,611.5962a7.592,7.592,0,1,1,15.1818,0c0,4.5581-2.9018,8.07-7.592,8.07s-7.59-3.512-7.59-8.07m10.382,0c0-2.7059-.8281-4.5379-2.7922-4.5379s-2.792,1.832-2.792,4.5379c0,2.8781.7422,4.8841,2.792,4.8841s2.7922-2.006,2.7922-4.8841"/><path class="cls-7" d="M421.696,619.4048h-3.0742a82.3587,82.3587,0,0,1-6.85-8.9439h-.044v8.9439h-3.622v-15.27h3.3378c2.2041,2.706,5.4961,6.6759,6.5882,8.748h.0439v-8.748h3.62v15.27"/><path class="cls-7" d="M432.1457,604.1344l5.8021,15.27h-4.8841l-1.2019-3.642h-4.7341l-1.4619,3.642h-3.5979l6.2177-15.27ZM431.12,613.34c-.5-1.81-.9383-3.272-1.4822-5.454h-.044c-.59,2.182-1.112,3.644-1.6818,5.454h3.208"/><polygon class="cls-7" points="438.975 604.135 443.577 604.135 443.577 616.547 449.161 616.547 449.161 619.405 438.975 619.405 438.975 604.135"/><rect class="cls-7" x="337.2134" y="624.1341" width="4.604" height="15.272"/><path class="cls-7" d="M357.3679,639.4048h-3.0742a82.6592,82.6592,0,0,1-6.8518-8.9459H347.4v8.9459h-3.6221V624.1329h3.3379c2.2041,2.706,5.4981,6.676,6.5882,8.748h.0419v-8.748h3.6221v15.2719"/><path class="cls-7" d="M367.0769,627.2974a4.344,4.344,0,0,0-2.248-.568c-.8941,0-1.3521.4381-1.3521.94,0,.848,1.2881,1.5479,2.772,2.92,1.96,1.834,2.4419,2.99,2.4419,4.584,0,1.35-1.1118,4.494-5.6939,4.494a7.7351,7.7351,0,0,1-4.7981-1.398l1.396-2.53a4.3224,4.3224,0,0,0,2.616,1.068c.916,0,1.92-.458,1.92-1.5919,0-1.22-1.4842-2.1161-2.6822-3.162-1.592-1.396-2.532-2.206-2.532-4.08,0-2.4439,2.4642-4.1019,5.346-4.1019a8.1258,8.1258,0,0,1,3.9922,1.026l-1.178,2.4"/><polygon class="cls-7" points="373.227 639.405 373.227 626.991 368.821 626.991 368.821 624.133 382.235 624.133 382.235 626.991 377.831 626.991 377.831 639.405 373.227 639.405"/><path class="cls-7" d="M383.717,624.1327h6.8079c3.5979,0,5.54,1.5721,5.54,4.08a4.58,4.58,0,0,1-2.5739,4.406l3.38,6.546-4.9279.5021-2.42-6.0441H388.321v5.782h-4.604Zm4.604,6.612h1.3079a1.8411,1.8411,0,0,0,1.832-1.876,1.6848,1.6848,0,0,0-1.9179-1.8779h-1.222v3.7539"/><path class="cls-7" d="M402.0437,624.1335v7.986c0,2.746.4138,4.362,2.356,4.362,1.5258,0,2.4-1.528,2.4-4.428v-7.92h3.97v9.228c0,4.56-3.0979,6.306-6.5879,6.306-3.904,0-6.7419-1.6379-6.7419-6.196v-9.338h4.604"/><path class="cls-7" d="M431.3406,639.4048h-4.6021v-10.69h-.042c-1.18,3.9919-2.4,7.352-3.624,10.69h-2.9c-1.2439-3.3379-2.4878-6.698-3.688-10.69h-.042v10.69h-3.6218V624.1329h6.2377c1.0481,2.924,2.094,5.826,3.12,9.4019h.0439c.9819-3.5759,2.0061-6.4779,3.01-9.4019h6.1082v15.2719"/><polygon class="cls-7" points="442.577 626.991 437.909 626.991 437.909 630.003 442.469 630.003 442.469 632.861 437.909 632.861 437.909 636.545 443.517 636.545 443.517 639.405 433.307 639.405 433.307 624.133 442.577 624.133 442.577 626.991"/><path class="cls-7" d="M457.9343,639.4048h-3.0761a82.6273,82.6273,0,0,1-6.85-8.9459h-.042v8.9459h-3.6221V624.1329h3.3379c2.2041,2.706,5.4961,6.676,6.5882,8.748h.042v-8.748h3.622v15.2719"/><polygon class="cls-7" points="463.171 639.405 463.171 626.991 458.765 626.991 458.765 624.133 472.18 624.133 472.18 626.991 467.774 626.991 467.774 639.405 463.171 639.405"/><path class="cls-7" d="M481.1882,627.2974a4.3416,4.3416,0,0,0-2.2461-.568c-.896,0-1.354.4381-1.354.94,0,.848,1.2881,1.5479,2.77,2.92,1.9638,1.834,2.4438,2.99,2.4438,4.584,0,1.35-1.1118,4.494-5.6919,4.494a7.7367,7.7367,0,0,1-4.8-1.398l1.396-2.53a4.3321,4.3321,0,0,0,2.6159,1.068c.916,0,1.92-.458,1.92-1.5919,0-1.22-1.4822-2.1161-2.6821-3.162-1.5921-1.396-2.532-2.206-2.532-4.08,0-2.4439,2.466-4.1019,5.3459-4.1019a8.1258,8.1258,0,0,1,3.9922,1.026l-1.178,2.4"/><path class="cls-7" d="M483.6309,626.7622v-2.16h-.82v-.276h2.0561v.276h-.8161v2.16Zm4.444,0h-.424v-1.7958h-.012l-.9641,1.7958h-.2l-.896-1.7958h-.0081v1.7958h-.344v-2.4359h.488l.918,1.826.9939-1.826h.4482v2.4359"/><path class="cls-7" d="M320.5183,609.899a5.8213,5.8213,0,0,1,4.2078-4.886c5.154-1.464,7.9121-1.194,17.154-1.27-5.54,4.9579-9.9638,12.77-8.9739,20.4139-1.99-1.63-3.3339-3.96-5.062-5.822a19.2523,19.2523,0,0,0,1.668-3.8879c.6121-2.312,2.2781-2.8581,4.39-2.7941.1582.006-.124-1.78-.708-1.938-1.574-.426-2.906.08-4.7339-.626a2.228,2.228,0,0,0-1.7439.3321c-1.5.766-2.45,2.4039-4.1382,2.922Z"/><path class="cls-7" d="M292.2624,608.4029a25.0911,25.0911,0,0,1,9.9539-4.324c4.7161-.8619,9.8259-.926,13.3479,2.47,6.6541,6.408,12.0422,13.1339,17.8782,20.4559.23.288.21,1.0761.01,1.19a83.7237,83.7237,0,0,1-12.6721,5.9339,2.1879,2.1879,0,0,1-2.03-.4479c-6.6538-6.0461-11.21-13.282-17.5959-19.5721a21.3219,21.3219,0,0,0-8.7239-5.186c-.2641-.0819-.312-.42-.168-.52"/><path class="cls-7" d="M315.5164,637.9029a42.8288,42.8288,0,0,0-11.9383,12.718,26.5063,26.5063,0,0,1,.48-14.968c1.67-4.6759,1.99-9.216,2.212-14.09,3.0358,3.496,6.4819,7.36,9.32,10.866Z"/><rect class="cls-3" x="263.3093" y="531.246" width="260.228" height="32.484"/><path class="cls-5" d="M282.0554,550.565a1.9641,1.9641,0,1,1-1.9641,1.9641,1.9631,1.9631,0,0,1,1.9641-1.9641"/><path class="cls-5" d="M282.0554,540.4848a1.9641,1.9641,0,1,1-1.9641,1.9641,1.9618,1.9618,0,0,1,1.9641-1.9641"/><path class="cls-5" d="M294.1472,550.565a1.9641,1.9641,0,1,1-1.9641,1.9641,1.9631,1.9631,0,0,1,1.9641-1.9641"/><path class="cls-5" d="M294.1472,540.4848a1.9641,1.9641,0,1,1-1.9641,1.9641,1.9618,1.9618,0,0,1,1.9641-1.9641"/><path class="cls-5" d="M309.1042,550.5533a1.9641,1.9641,0,1,1-1.9641,1.9641,1.9619,1.9619,0,0,1,1.9641-1.9641"/><path class="cls-5" d="M309.1042,540.4732a1.9641,1.9641,0,1,1-1.9641,1.9641,1.9619,1.9619,0,0,1,1.9641-1.9641"/><path class="cls-5" d="M321.196,550.5533a1.9641,1.9641,0,1,1-1.9621,1.9641,1.9619,1.9619,0,0,1,1.9621-1.9641"/><path class="cls-5" d="M321.196,540.4732a1.9641,1.9641,0,1,1-1.9621,1.9641,1.9619,1.9619,0,0,1,1.9621-1.9641"/><path class="cls-5" d="M336.8054,550.5533a1.9641,1.9641,0,1,1-1.9641,1.9641,1.9618,1.9618,0,0,1,1.9641-1.9641"/><path class="cls-5" d="M336.8054,540.4732a1.9641,1.9641,0,1,1-1.9641,1.962,1.9614,1.9614,0,0,1,1.9641-1.962"/><path class="cls-5" d="M348.8972,550.5533a1.9641,1.9641,0,1,1-1.9621,1.9641,1.9635,1.9635,0,0,1,1.9621-1.9641"/><path class="cls-5" d="M348.8972,540.4732a1.9641,1.9641,0,1,1-1.9621,1.962,1.9631,1.9631,0,0,1,1.9621-1.962"/><path class="cls-5" d="M364.1121,550.5533a1.9641,1.9641,0,1,1-1.9622,1.9641,1.9622,1.9622,0,0,1,1.9622-1.9641"/><path class="cls-5" d="M364.1121,540.4732a1.9641,1.9641,0,1,1-1.9622,1.962,1.9618,1.9618,0,0,1,1.9622-1.962"/><path class="cls-5" d="M378.7117,550.5533a1.9641,1.9641,0,1,1-1.9641,1.9641,1.9618,1.9618,0,0,1,1.9641-1.9641"/><path class="cls-5" d="M378.7117,540.4732a1.9641,1.9641,0,1,1-1.9641,1.962,1.9614,1.9614,0,0,1,1.9641-1.962"/><path class="cls-5" d="M393.1628,550.5533a1.9641,1.9641,0,1,1-1.9621,1.9641,1.9623,1.9623,0,0,1,1.9621-1.9641"/><path class="cls-5" d="M393.1628,540.4732a1.9641,1.9641,0,1,1-1.9621,1.9641,1.9623,1.9623,0,0,1,1.9621-1.9641"/><path class="cls-5" d="M406.0691,550.5552a1.963,1.963,0,1,1-1.9622,1.9621,1.962,1.962,0,0,1,1.9622-1.9621"/><path class="cls-5" d="M406.0691,540.4732a1.9641,1.9641,0,1,1-1.9622,1.9641,1.9623,1.9623,0,0,1,1.9622-1.9641"/><path class="cls-5" d="M419.2859,550.5533a1.9641,1.9641,0,1,1-1.9641,1.9641,1.9631,1.9631,0,0,1,1.9641-1.9641"/><path class="cls-5" d="M419.2859,540.4732a1.9641,1.9641,0,1,1-1.9641,1.9641,1.9618,1.9618,0,0,1,1.9641-1.9641"/><path class="cls-5" d="M432.3054,550.5533a1.9641,1.9641,0,1,1-1.9641,1.9641,1.9618,1.9618,0,0,1,1.9641-1.9641"/><path class="cls-5" d="M432.3054,540.4732a1.9641,1.9641,0,1,1-1.9641,1.9641,1.9618,1.9618,0,0,1,1.9641-1.9641"/><path class="cls-5" d="M447.198,550.5533a1.9641,1.9641,0,1,1-1.9622,1.9641,1.9631,1.9631,0,0,1,1.9622-1.9641"/><path class="cls-5" d="M447.198,540.4732a1.9641,1.9641,0,1,1-1.9622,1.9641,1.9618,1.9618,0,0,1,1.9622-1.9641"/><path class="cls-5" d="M460.364,550.5533a1.9641,1.9641,0,1,1-1.9621,1.9641,1.9635,1.9635,0,0,1,1.9621-1.9641"/><path class="cls-5" d="M460.364,540.4732a1.9641,1.9641,0,1,1-1.9621,1.9641,1.9635,1.9635,0,0,1,1.9621-1.9641"/><path class="cls-5" d="M473.3582,550.5533a1.9641,1.9641,0,1,1-1.9642,1.9641,1.9632,1.9632,0,0,1,1.9642-1.9641"/><path class="cls-5" d="M473.3582,540.4732a1.9641,1.9641,0,1,1-1.9642,1.9641,1.9619,1.9619,0,0,1,1.9642-1.9641"/><path class="cls-5" d="M487.4128,550.5552a1.963,1.963,0,1,1-1.9621,1.9621,1.9619,1.9619,0,0,1,1.9621-1.9621"/><path class="cls-5" d="M487.4128,540.4732a1.9641,1.9641,0,1,1-1.9621,1.9641,1.9623,1.9623,0,0,1,1.9621-1.9641"/><path class="cls-5" d="M500.3132,550.5552a1.963,1.963,0,1,1-1.9641,1.9621,1.9615,1.9615,0,0,1,1.9641-1.9621"/><path class="cls-5" d="M500.3132,540.4732a1.9641,1.9641,0,1,1-1.9641,1.9641,1.9618,1.9618,0,0,1,1.9641-1.9641"/><polyline class="cls-9" points="377.12 527.813 259.716 527.813 259.716 567.141 523.91 567.141 523.91 527.813 408.478 527.813"/><path class="cls-5" d="M268.3914,181.2018a9.3812,9.3812,0,1,1-9.38-9.38,9.3808,9.3808,0,0,1,9.38,9.38"/><path class="cls-8" d="M264.4265,181.2018a5.416,5.416,0,1,1-5.416-5.4157,5.4161,5.4161,0,0,1,5.416,5.4157"/><path class="cls-5" d="M535.2742,173.276a9.3813,9.3813,0,1,1-13.2681,0,9.3834,9.3834,0,0,1,13.2681,0"/><path class="cls-8" d="M534.0574,179.9089a5.4161,5.4161,0,1,1-5.416-5.4158,5.4174,5.4174,0,0,1,5.416,5.4158"/><rect class="cls-3" x="603.5012" y="23.362" width="51.5581" height="112.7161"/><rect class="cls-3" x="613.4753" y="26.7179" width="32.4861" height="104.8621"/><path class="cls-5" d="M632.7957,113.1257c0-.438.8779-.792,1.9619-.792s1.9638.354,1.9638.792-.88.7922-1.9638.7922-1.9619-.354-1.9619-.7922"/><path class="cls-5" d="M622.7136,113.1257c0-.438.8779-.792,1.9639-.792,1.084,0,1.9641.354,1.9641.792s-.88.7922-1.9641.7922c-1.086,0-1.9639-.354-1.9639-.7922"/><path class="cls-5" d="M632.7957,108.2526c0-.438.8779-.792,1.9619-.792s1.9638.354,1.9638.792-.88.7922-1.9638.7922-1.9619-.354-1.9619-.7922"/><path class="cls-5" d="M622.7136,108.2526c0-.438.8779-.792,1.9639-.792,1.084,0,1.9641.354,1.9641.792s-.88.7922-1.9641.7922c-1.086,0-1.9639-.354-1.9639-.7922"/><path class="cls-5" d="M632.7957,101.9635c0-.4379.8779-.7919,1.9619-.7919s1.9638.354,1.9638.7919-.88.7923-1.9638.7923-1.9619-.354-1.9619-.7923"/><path class="cls-5" d="M622.7136,101.9635c0-.4379.8779-.7919,1.9639-.7919,1.084,0,1.9641.354,1.9641.7919s-.88.7923-1.9641.7923c-1.086,0-1.9639-.354-1.9639-.7923"/><path class="cls-5" d="M632.7957,97.0905c0-.438.8779-.792,1.9619-.792s1.9638.354,1.9638.792-.88.7922-1.9638.7922-1.9619-.354-1.9619-.7922"/><path class="cls-5" d="M622.7136,97.0905c0-.438.8779-.792,1.9639-.792,1.084,0,1.9641.354,1.9641.792s-.88.7922-1.9641.7922c-1.086,0-1.9639-.354-1.9639-.7922"/><path class="cls-5" d="M632.7957,90.96c0-.438.8779-.792,1.9619-.792s1.9638.354,1.9638.792-.88.7923-1.9638.7923-1.9619-.354-1.9619-.7923"/><path class="cls-5" d="M622.7136,90.96c0-.438.8779-.792,1.9639-.792,1.084,0,1.9641.354,1.9641.792s-.88.7923-1.9641.7923c-1.086,0-1.9639-.354-1.9639-.7923"/><path class="cls-5" d="M632.7957,85.0768c0-.438.8779-.792,1.9619-.792s1.9638.354,1.9638.792-.88.7923-1.9638.7923-1.9619-.354-1.9619-.7923"/><path class="cls-5" d="M622.7136,85.0768c0-.438.8779-.792,1.9639-.792,1.084,0,1.9641.354,1.9641.792s-.88.7923-1.9641.7923c-1.086,0-1.9639-.354-1.9639-.7923"/><path class="cls-5" d="M632.7957,79.2526c0-.4358.8779-.792,1.9619-.792s1.9638.3562,1.9638.792c0,.4382-.88.7922-1.9638.7922s-1.9619-.354-1.9619-.7922"/><path class="cls-5" d="M622.7136,79.2526c0-.4358.8779-.792,1.9639-.792,1.084,0,1.9641.3562,1.9641.792,0,.4382-.88.7922-1.9641.7922-1.086,0-1.9639-.354-1.9639-.7922"/><path class="cls-5" d="M632.7957,74.0534c0-.438.8779-.792,1.9619-.792,1.0859,0,1.966.354,1.966.792,0,.436-.88.7922-1.966.7922-1.084,0-1.9619-.3562-1.9619-.7922"/><path class="cls-5" d="M622.7156,74.0534c0-.438.8779-.792,1.9619-.792s1.9639.354,1.9639.792c0,.436-.88.7922-1.9639.7922s-1.9619-.3562-1.9619-.7922"/><path class="cls-5" d="M632.7957,68.7272c0-.438.8779-.792,1.9619-.792s1.966.354,1.966.792-.8821.7923-1.966.7923-1.9619-.3541-1.9619-.7923"/><path class="cls-5" d="M622.7136,68.7272c0-.438.88-.792,1.9639-.792s1.9641.354,1.9641.792-.88.7923-1.9641.7923-1.9639-.3541-1.9639-.7923"/><path class="cls-5" d="M632.7957,63.4811c0-.438.8779-.792,1.9619-.792s1.9638.354,1.9638.792-.88.7923-1.9638.7923-1.9619-.354-1.9619-.7923"/><path class="cls-5" d="M622.7136,63.4811c0-.438.8779-.792,1.9639-.792,1.084,0,1.9641.354,1.9641.792s-.88.7923-1.9641.7923c-1.086,0-1.9639-.354-1.9639-.7923"/><path class="cls-5" d="M632.7957,57.4792c0-.4358.8779-.792,1.9619-.792s1.966.3562,1.966.792c0,.4382-.8821.7922-1.966.7922s-1.9619-.354-1.9619-.7922"/><path class="cls-5" d="M622.7136,57.4792c0-.4358.88-.792,1.9639-.792s1.9641.3562,1.9641.792c0,.4382-.88.7922-1.9641.7922s-1.9639-.354-1.9639-.7922"/><path class="cls-5" d="M632.7957,52.1745c0-.438.8779-.792,1.9619-.792s1.9638.354,1.9638.792-.88.7922-1.9638.7922-1.9619-.354-1.9619-.7922"/><path class="cls-5" d="M622.7136,52.1745c0-.438.8779-.792,1.9639-.792,1.084,0,1.9641.354,1.9641.792s-.88.7922-1.9641.7922c-1.086,0-1.9639-.354-1.9639-.7922"/><path class="cls-5" d="M632.7957,46.9382c0-.438.8779-.792,1.9619-.792s1.966.354,1.966.792-.8821.7922-1.966.7922-1.9619-.354-1.9619-.7922"/><path class="cls-5" d="M622.7136,46.9382c0-.4358.88-.792,1.9639-.792s1.9641.3562,1.9641.792c0,.4382-.88.7922-1.9641.7922s-1.9639-.354-1.9639-.7922"/><polyline class="cls-9" points="610.055 85.717 610.055 133.026 649.381 133.026 649.381 26.57 610.055 26.57 610.055 73.084"/><text class="cls-10" transform="translate(76.5498 246.3945)">RS-232</text><text class="cls-10" transform="translate(94.0986 186.0635)">I</text><text class="cls-10" transform="translate(98.4307 180.6528) scale(0.583)">2</text><text class="cls-10" transform="translate(103.6846 186.0635)">C</text><text class="cls-10" transform="translate(32.2598 78.1602)">CAN</text><text class="cls-11" transform="translate(80.3418 101.4385)">L (GRN)</text><text class="cls-11" transform="translate(81.1777 126.2568)">H (YEL)</text><path class="cls-12" d="M101.5355,480.9213a4.493,4.493,0,0,1-1.8437,1.7481,5.8318,5.8318,0,0,1-2.7491.6269H95.8793a5.82,5.82,0,0,1-2.753-.6269,4.4819,4.4819,0,0,1-1.8408-1.76,5.1609,5.1609,0,0,1-.65-2.6113V475.14h11.5518v3.23A5.0017,5.0017,0,0,1,101.5355,480.9213ZM96.9584,482.33a5.1577,5.1577,0,0,0,2.3125-.4922,3.6356,3.6356,0,0,0,1.539-1.3886,3.9316,3.9316,0,0,0,.544-2.0782v-2.2539H91.46v2.1817a4.02,4.02,0,0,0,.5557,2.1347,3.6768,3.6768,0,0,0,1.5547,1.4043,5.1607,5.1607,0,0,0,2.3086.4922Z"/><path class="cls-12" d="M90.6351,486.0014h11.5518v.9765H90.6351Z"/><path class="cls-12" d="M92.9877,498.0971a4.4132,4.4132,0,0,1-1.8565-6.2949,4.3013,4.3013,0,0,1,1.86-1.5879,6.5593,6.5593,0,0,1,2.8007-.5625H97.03a6.5913,6.5913,0,0,1,2.8008.5586,4.2985,4.2985,0,0,1,1.86,1.58,4.25,4.25,0,0,1,.6543,2.3516,4.1574,4.1574,0,0,1-2.5108,3.9512,6.6457,6.6457,0,0,1-2.8047.5547H95.7923A6.672,6.672,0,0,1,92.9877,498.0971Zm6.4218-.8379a3.3727,3.3727,0,0,0,1.5391-1.2168,3.3134,3.3134,0,0,0,.54-1.9,3.2555,3.2555,0,0,0-.54-1.873,3.412,3.412,0,0,0-1.543-1.2168,6.024,6.024,0,0,0-2.36-.4258h-1.253a6.0062,6.0062,0,0,0-2.3681.43,3.4506,3.4506,0,0,0-1.5479,1.2246,3.2568,3.2568,0,0,0-.5429,1.8769,3.3082,3.3082,0,0,0,.539,1.9043,3.3454,3.3454,0,0,0,1.543,1.2051,6.2284,6.2284,0,0,0,2.3769.4141h1.253A6.0522,6.0522,0,0,0,99.41,497.2592Z"/><polyline class="cls-13" points="85.286 298.68 96.494 298.68 96.494 464.252"/><polyline class="cls-13" points="96.495 509.536 96.495 666.012 85.287 666.012"/><text class="cls-10" transform="translate(283.5156 683.8428)">RE<tspan class="cls-14" x="19.5645" y="0">L</tspan><tspan class="cls-15" x="28.2783" y="0">A</tspan><tspan x="37.4912" y="0">Y</tspan></text><polyline class="cls-13" points="242.473 689.342 242.473 680.469 273.191 680.469"/><polyline class="cls-13" points="337.321 680.467 365.187 680.467 365.187 690.442"/><text class="cls-10" transform="translate(441.8701 683.8428)">ANA<tspan class="cls-16" x="31.8535" y="0">L</tspan><tspan x="39.918" y="0">OG IN</tspan></text><text class="cls-17" transform="translate(618.3955 696.4707)">RESET</text><text class="cls-17" transform="translate(674.5752 696.4697)">USER</text><polyline class="cls-13" points="418.909 689.276 418.909 681.016 432.939 681.016"/><polyline class="cls-13" points="531.768 679.918 545.7 679.918 545.7 690.442"/><rect class="cls-3" x="98.6921" y="708.6143" width="39.958" height="45.05"/><path class="cls-5" d="M118.67,728.4141a2.7241,2.7241,0,1,1-2.7221,2.7241,2.7246,2.7246,0,0,1,2.7221-2.7241"/><path class="cls-5" d="M118.67,740.6056a2.7241,2.7241,0,1,1-2.7221,2.722,2.7228,2.7228,0,0,1,2.7221-2.722"/><text class="cls-10" transform="translate(104.416 696.5601)">RSL</text><text class="cls-10" transform="translate(697.6357 496.6504) rotate(-90)">PWM</text><polyline class="cls-13" points="702.048 665.92 690.84 665.92 690.84 504.904"/><polyline class="cls-13" points="690.839 449.76 690.839 293.327 702.046 293.327"/><path class="cls-5" d="M340.2507,86.6217a9.3811,9.3811,0,1,1-9.38-9.38,9.3807,9.3807,0,0,1,9.38,9.38"/><path class="cls-8" d="M336.2859,86.6217a5.416,5.416,0,1,1-5.416-5.4157,5.4174,5.4174,0,0,1,5.416,5.4157"/><path class="cls-5" d="M340.2507,41.0924a9.3811,9.3811,0,1,1-9.38-9.3779,9.3795,9.3795,0,0,1,9.38,9.3779"/><path class="cls-8" d="M336.2859,41.0924a5.416,5.416,0,1,1-5.416-5.4138,5.4162,5.4162,0,0,1,5.416,5.4138"/><rect class="cls-18" x="232.2693" y="37.362" width="66.468" height="53.384"/><polygon class="cls-19" points="249.809 42.821 281.013 42.821 288.583 50.577 288.583 85.287 242.425 85.287 242.425 50.761 249.809 42.821"/><path class="cls-5" d="M259.4578,68.7194a1.9641,1.9641,0,1,1-1.9642,1.9622,1.9616,1.9616,0,0,1,1.9642-1.9622"/><path class="cls-5" d="M259.4578,58.6393a1.9641,1.9641,0,1,1-1.9642,1.9622,1.9616,1.9616,0,0,1,1.9642-1.9622"/><path class="cls-5" d="M271.55,68.7194a1.9641,1.9641,0,1,1-1.9622,1.9622,1.962,1.962,0,0,1,1.9622-1.9622"/><path class="cls-5" d="M271.55,58.6393a1.9641,1.9641,0,1,1-1.9622,1.9622,1.962,1.962,0,0,1,1.9622-1.9622"/><rect class="cls-18" x="467.3374" y="26.488" width="87.1479" height="92.3181"/><rect class="cls-19" x="478.1394" y="63.352" width="65.5459" height="38.1741"/><rect class="cls-19" x="492.7234" y="101.526" width="36.0039" height="8.8621"/><rect class="cls-19" x="499.1853" y="110.3881" width="23.2639" height="7.386"/><rect class="cls-20" x="469.2754" y="101.526" width="23.448" height="13.292"/><rect class="cls-21" x="528.7273" y="101.526" width="23.45" height="13.292"/><rect class="cls-18" x="365.0791" y="72.6479" width="75.3921" height="33.3101"/><rect class="cls-19" x="367.0771" y="73.9902" width="71.4561" height="30.084"/><rect class="cls-18" x="365.1113" y="26.1679" width="75.3921" height="33.3101"/><rect class="cls-19" x="367.1091" y="27.5099" width="71.4541" height="30.084"/><text class="cls-10" transform="translate(78.4893 38.2119)">INPUT</text><text class="cls-22" transform="translate(315.4482 246.9194)">NI <tspan class="cls-23" x="39.668" y="0">r</tspan><tspan class="cls-24" x="50.1943" y="0">oboRIO</tspan></text><rect class="cls-6" x="370.0933" y="77.2399" width="65.3621" height="11.792"/><rect class="cls-6" x="370.0933" y="30.7621" width="65.3621" height="11.792"/><text class="cls-10" transform="translate(702.0215 92.6069)">POWER</text><rect class="cls-25" x="763.8349" y="79.2952" width="16.0342" height="15.1855"/><rect class="cls-26" x="778.9986" y="79.4146" width="10.6027" height="15.1855"/><text class="cls-10" transform="translate(697.667 118.5664)">STATUS</text><rect class="cls-25" x="763.8349" y="105.2551" width="16.0342" height="15.1855"/><rect class="cls-26" x="778.9986" y="105.3744" width="10.6027" height="15.1855"/><text class="cls-10" transform="translate(710.7012 158.2197)">RADIO</text><rect class="cls-25" x="763.8349" y="145.1682" width="16.0342" height="15.1855"/><rect class="cls-26" x="778.9986" y="145.2876" width="10.6027" height="15.1855"/><text class="cls-10" transform="translate(707.4893 185.0879)">COMM</text><rect class="cls-25" x="763.8349" y="171.777" width="16.0342" height="15.1855"/><rect class="cls-26" x="778.9986" y="171.8963" width="10.6027" height="15.1855"/><text class="cls-10" transform="translate(712.209 213.001)">MODE</text><rect class="cls-25" x="763.8349" y="198.3858" width="16.0342" height="15.1855"/><rect class="cls-26" x="778.9986" y="198.5051" width="10.6027" height="15.1855"/><text class="cls-10" transform="translate(728.6465 253.5479)">RSL</text><rect class="cls-25" x="763.8349" y="238.9316" width="16.0342" height="15.1855"/><rect class="cls-26" x="778.9986" y="239.0509" width="10.6027" height="15.1855"/><rect class="cls-27" x="607.9582" y="705.534" width="108.8485" height="50.9946" rx="9.8548"/><rect class="cls-28" x="622.2248" y="717.3797" width="27.1208" height="27.3032" rx="13.5604"/><rect class="cls-28" x="675.4194" y="717.3797" width="27.1208" height="27.3032" rx="13.5604"/><rect class="cls-3" x="715.668" y="271.775" width="46.329" height="413.1708"/><path class="cls-5" d="M741.3114,294.3448a2.7241,2.7241,0,1,1-2.7241-2.7239,2.723,2.723,0,0,1,2.7241,2.7239"/><path class="cls-5" d="M729.12,294.3448a2.7241,2.7241,0,1,1-2.7221-2.7239,2.7212,2.7212,0,0,1,2.7221,2.7239"/><path class="cls-5" d="M753.9931,294.3448a2.7231,2.7231,0,1,1-2.7222-2.7239,2.7212,2.7212,0,0,1,2.7222,2.7239"/><path class="cls-5" d="M741.3114,335.5766a2.7241,2.7241,0,1,1-2.7241-2.7237,2.723,2.723,0,0,1,2.7241,2.7237"/><path class="cls-5" d="M729.12,335.5766a2.7241,2.7241,0,1,1-2.7221-2.7237,2.7212,2.7212,0,0,1,2.7221,2.7237"/><path class="cls-5" d="M753.9931,335.5766a2.7231,2.7231,0,1,1-2.7222-2.7237,2.7212,2.7212,0,0,1,2.7222,2.7237"/><path class="cls-5" d="M741.3114,376.8083a2.7241,2.7241,0,1,1-2.7241-2.7234,2.723,2.723,0,0,1,2.7241,2.7234"/><path class="cls-5" d="M729.12,376.8083a2.7241,2.7241,0,1,1-2.7221-2.7234,2.7212,2.7212,0,0,1,2.7221,2.7234"/><path class="cls-5" d="M753.9931,376.8083a2.7231,2.7231,0,1,1-2.7222-2.7234,2.7212,2.7212,0,0,1,2.7222,2.7234"/><path class="cls-5" d="M741.3114,418.04a2.7241,2.7241,0,1,1-2.7241-2.7232,2.723,2.723,0,0,1,2.7241,2.7232"/><path class="cls-5" d="M729.12,418.04a2.7241,2.7241,0,1,1-2.7221-2.7232A2.7212,2.7212,0,0,1,729.12,418.04"/><path class="cls-5" d="M753.9931,418.04a2.7231,2.7231,0,1,1-2.7222-2.7232,2.7212,2.7212,0,0,1,2.7222,2.7232"/><path class="cls-5" d="M741.3114,459.2718a2.7241,2.7241,0,1,1-2.7241-2.723,2.7231,2.7231,0,0,1,2.7241,2.723"/><path class="cls-5" d="M729.12,459.2718a2.7241,2.7241,0,1,1-2.7221-2.723,2.7213,2.7213,0,0,1,2.7221,2.723"/><path class="cls-5" d="M753.9931,459.2718a2.7231,2.7231,0,1,1-2.7222-2.723,2.7213,2.7213,0,0,1,2.7222,2.723"/><path class="cls-5" d="M741.3114,500.5036a2.7241,2.7241,0,1,1-2.7241-2.7228,2.723,2.723,0,0,1,2.7241,2.7228"/><path class="cls-5" d="M729.12,500.5036a2.7241,2.7241,0,1,1-2.7221-2.7228,2.7212,2.7212,0,0,1,2.7221,2.7228"/><path class="cls-5" d="M753.9931,500.5036a2.7231,2.7231,0,1,1-2.7222-2.7228,2.7212,2.7212,0,0,1,2.7222,2.7228"/><path class="cls-5" d="M741.3114,541.7354a2.7241,2.7241,0,1,1-2.7241-2.7226,2.723,2.723,0,0,1,2.7241,2.7226"/><path class="cls-5" d="M729.12,541.7354a2.7241,2.7241,0,1,1-2.7221-2.7226,2.7212,2.7212,0,0,1,2.7221,2.7226"/><path class="cls-5" d="M753.9931,541.7354a2.7231,2.7231,0,1,1-2.7222-2.7226,2.7212,2.7212,0,0,1,2.7222,2.7226"/><path class="cls-5" d="M741.3114,582.9671a2.7241,2.7241,0,1,1-2.7241-2.7223,2.723,2.723,0,0,1,2.7241,2.7223"/><path class="cls-5" d="M729.12,582.9671a2.7241,2.7241,0,1,1-2.7221-2.7223,2.7212,2.7212,0,0,1,2.7221,2.7223"/><path class="cls-5" d="M753.9931,582.9671a2.7231,2.7231,0,1,1-2.7222-2.7223,2.7212,2.7212,0,0,1,2.7222,2.7223"/><path class="cls-5" d="M741.3114,624.1989a2.7241,2.7241,0,1,1-2.7241-2.7222,2.723,2.723,0,0,1,2.7241,2.7222"/><path class="cls-5" d="M729.12,624.1989a2.7241,2.7241,0,1,1-2.7221-2.7222,2.7212,2.7212,0,0,1,2.7221,2.7222"/><path class="cls-5" d="M753.9931,624.1989a2.7231,2.7231,0,1,1-2.7222-2.7222,2.7212,2.7212,0,0,1,2.7222,2.7222"/><path class="cls-5" d="M741.3114,665.4306a2.7241,2.7241,0,1,1-2.7241-2.7219,2.723,2.723,0,0,1,2.7241,2.7219"/><path class="cls-5" d="M729.12,665.4306a2.7241,2.7241,0,1,1-2.7221-2.7219,2.7212,2.7212,0,0,1,2.7221,2.7219"/><path class="cls-5" d="M753.9931,665.4306a2.7231,2.7231,0,1,1-2.7222-2.7219,2.7212,2.7212,0,0,1,2.7222,2.7219"/><text class="cls-29" transform="translate(79.1309 51.7852)">7-16V </text><line class="cls-30" x1="110.2502" y1="50.4081" x2="113.6313" y2="50.4081"/><line class="cls-30" x1="115.4903" y1="50.4081" x2="118.8672" y2="50.4081"/><line class="cls-30" x1="120.7344" y1="50.4081" x2="124.1155" y2="50.4081"/><line class="cls-30" x1="110.2503" y1="47.0149" x2="124.1155" y2="47.0149"/><text class="cls-29" transform="translate(75.8926 63.8101)">45 W MAX</text><line class="cls-31" x1="135.9987" y1="180.3452" x2="135.9987" y2="204.7961"/><line class="cls-31" x1="149.6975" y1="154.9485" x2="149.6975" y2="177.9402"/><line class="cls-31" x1="163.3882" y1="178.5017" x2="163.3882" y2="201.5124"/><line class="cls-31" x1="177.0789" y1="154.7091" x2="177.0789" y2="177.6995"/><line class="cls-31" x1="131.449" y1="206.9392" x2="140.5532" y2="206.9392"/><line class="cls-31" x1="129.2329" y1="204.792" x2="142.7653" y2="204.792"/><rect class="cls-32" x="134.2899" y="176.5663" width="3.423" height="3.4251"/><rect class="cls-12" x="147.9806" y="176.5663" width="3.4266" height="3.4251"/><rect class="cls-12" x="161.676" y="176.563" width="3.4251" height="3.425"/><rect class="cls-12" x="175.3742" y="176.5663" width="3.421" height="3.4251"/><polygon class="cls-31" points="129.598 161.159 129.598 195.392 183.472 195.383 183.472 161.159 129.598 161.159"/><text class="cls-33" transform="translate(153.5342 210.4229) scale(1 1.0622)">SCL</text><text class="cls-34" transform="translate(138.0938 150.7788) scale(1 1.0115)">3.3V S<tspan class="cls-35" x="32.7725" y="0">D</tspan><tspan x="40.2158" y="0">A</tspan></text><line class="cls-31" x1="133.4623" y1="209.0904" x2="138.5359" y2="209.0904"/><line class="cls-31" x1="149.0034" y1="241.7646" x2="149.0034" y2="266.0978"/><line class="cls-31" x1="162.6982" y1="242.1379" x2="162.6982" y2="273.7244"/><line class="cls-31" x1="176.3889" y1="242.138" x2="176.3889" y2="262.5746"/><line class="cls-31" x1="146.4666" y1="270.396" x2="151.5403" y2="270.396"/><line class="cls-31" x1="144.4534" y1="268.2448" x2="153.5575" y2="268.2448"/><line class="cls-31" x1="142.2372" y1="266.0977" x2="155.7696" y2="266.0977"/><rect class="cls-32" x="174.6807" y="238.34" width="3.4251" height="3.4246"/><rect class="cls-32" x="147.2938" y="238.34" width="3.4226" height="3.4246"/><rect class="cls-32" x="160.9901" y="238.34" width="3.421" height="3.4246"/><rect class="cls-31" x="142.1602" y="222.5298" width="41.0802" height="34.2324"/><text class="cls-34" transform="translate(165.9033 273.1382) scale(1 1.0115)">TXD</text><text class="cls-34" transform="translate(151.1484 284.1147) scale(1 1.0115)">RXD</text><line class="cls-31" x1="30.2194" y1="700.3021" x2="30.2194" y2="711.2004"/><line class="cls-31" x1="43.9223" y1="700.229" x2="44.2388" y2="718.6402"/><line class="cls-31" x1="57.613" y1="700.3021" x2="57.613" y2="708.148"/><line class="cls-31" x1="27.6826" y1="715.5027" x2="32.7562" y2="715.5027"/><line class="cls-31" x1="25.6694" y1="713.3474" x2="34.7735" y2="713.3474"/><line class="cls-31" x1="23.4532" y1="711.2042" x2="36.9856" y2="711.2042"/><text class="cls-36" transform="translate(37.8018 728.7944) scale(1 1.0056)">5V</text><text class="cls-36" transform="translate(54.1855 717.4785) scale(1 1.0056)">S</text><rect class="cls-37" x="56.0642" y="696.7665" width="3.1791" height="3.4581"/><rect class="cls-37" x="42.491" y="697.0226" width="3.1791" height="3.4581"/><rect class="cls-37" x="28.7337" y="696.9776" width="3.1791" height="3.4581"/><line class="cls-31" x1="74.8216" y1="758.3879" x2="79.8952" y2="758.3879"/><line class="cls-31" x1="72.8084" y1="756.2285" x2="81.9125" y2="756.2285"/><line class="cls-31" x1="70.5962" y1="754.0855" x2="84.1286" y2="754.0855"/><line class="cls-31" x1="77.3624" y1="745.7038" x2="89.9004" y2="745.7038"/><line class="cls-31" x1="89.8355" y1="731.9563" x2="81.8314" y2="731.9563"/><line class="cls-31" x1="77.3584" y1="745.3582" x2="77.3584" y2="754.0855"/><line class="cls-31" x1="77.3625" y1="752.7095" x2="77.3625" y2="746.053"/><text class="cls-36" transform="translate(73.6855 735.7163) scale(1 1.0056)">S</text><rect class="cls-37" x="89.9049" y="730.1521" width="3.1791" height="3.4581"/><rect class="cls-37" x="89.7233" y="744.0137" width="3.1791" height="3.4581"/><line class="cls-31" x1="197.6523" y1="758.3838" x2="202.7259" y2="758.3838"/><line class="cls-38" x1="195.639" y1="756.2285" x2="204.7431" y2="756.2285"/><line class="cls-31" x1="193.4269" y1="754.0814" x2="206.9592" y2="754.0814"/><line class="cls-31" x1="212.7717" y1="731.9563" x2="204.662" y2="731.9563"/><line class="cls-31" x1="212.7717" y1="718.2331" x2="204.662" y2="718.2331"/><polyline class="cls-31" points="200.193 754.081 200.193 745.505 212.772 745.505"/><text class="cls-39" transform="translate(180.0332 720.7148) scale(1 1.0605)">FWD</text><text class="cls-40" transform="translate(184.1074 734.6475) scale(1 1.1297)">REV</text><rect class="cls-37" x="212.8857" y="716.4103" width="3.1791" height="3.4581"/><rect class="cls-37" x="212.5637" y="730.1238" width="3.1791" height="3.4581"/><rect class="cls-37" x="212.5349" y="743.8706" width="3.1791" height="3.4581"/><line class="cls-41" x1="585.4039" y1="758.538" x2="590.4776" y2="758.538"/><line class="cls-41" x1="583.3948" y1="756.3868" x2="592.4988" y2="756.3868"/><line class="cls-41" x1="581.1785" y1="754.2397" x2="594.7109" y2="754.2397"/><line class="cls-41" x1="583.5369" y1="731.7574" x2="575.5123" y2="731.7574"/><line class="cls-41" x1="583.5328" y1="718.1925" x2="575.5082" y2="718.1925"/><polyline class="cls-41" points="587.945 754.24 587.945 745.716 575.512 745.716"/><text class="cls-39" transform="translate(584.4121 721.0601) scale(1 1.0605)">S</text><text class="cls-40" transform="translate(585.0684 735.2334) scale(1 1.1297)">5V</text><rect class="cls-37" x="572.0967" y="716.3655" width="3.1791" height="3.4581"/><rect class="cls-37" x="572.3048" y="729.8934" width="3.1791" height="3.4581"/><rect class="cls-37" x="572.258" y="743.8376" width="3.1791" height="3.4581"/><line class="cls-31" x1="749.116" y1="710.9132" x2="754.1897" y2="710.9132"/><line class="cls-31" x1="747.1069" y1="708.7661" x2="756.2069" y2="708.7661"/><line class="cls-31" x1="744.8947" y1="706.619" x2="758.4271" y2="706.619"/><line class="cls-31" x1="724.2587" y1="695.6438" x2="724.2587" y2="703.5546"/><line class="cls-31" x1="737.9534" y1="695.7046" x2="737.9534" y2="713.844"/><line class="cls-31" x1="751.6441" y1="695.6438" x2="751.6441" y2="706.9885"/><text class="cls-36" transform="translate(720.9482 712.8975) scale(1 1.0056)">S</text><text class="cls-36" transform="translate(731.7676 723.9053) scale(1 1.0056)">6V</text><rect class="cls-37" x="722.5589" y="692.3735" width="3.1791" height="3.4581"/><rect class="cls-37" x="736.3569" y="692.3735" width="3.1791" height="3.4581"/><rect class="cls-37" x="749.9982" y="692.3735" width="3.1791" height="3.4581"/><path class="cls-42" d="M606.1409,648.0059a6.8486,6.8486,0,0,0,6.8555-6.8393"/><path class="cls-42" d="M606.1409,634.3152a6.8529,6.8529,0,0,0-6.8394,6.8515"/><text class="cls-43" transform="translate(566.6973 661.21) scale(1 1.0349)">A<tspan class="cls-44" x="6.918" y="0">CCELEROMETER</tspan></text><text class="cls-45" transform="translate(601.8223 608.043) scale(1 1.0349)">Y</text><text class="cls-45" transform="translate(589.2734 635.6382) scale(1 1.0349)">Z</text><text class="cls-45" transform="translate(634.6191 645.1211) scale(1 1.0349)">X</text><line class="cls-46" x1="630.1575" y1="641.5075" x2="606.1449" y2="641.5075"/><line class="cls-46" x1="606.1409" y1="641.5075" x2="606.1409" y2="614.4022"/><path class="cls-31" d="M606.1409,648.0059a6.8454,6.8454,0,1,0-6.8394-6.8393A6.8486,6.8486,0,0,0,606.1409,648.0059Z"/><polyline class="cls-12" points="633.782 641.507 629.058 639.685 630.178 641.507 629.058 643.326"/><polyline class="cls-47" points="633.782 641.507 629.058 639.685 630.178 641.507 629.058 643.326"/><polyline class="cls-12" points="606.141 610.899 604.343 615.632 606.141 614.163 607.951 615.632 606.141 610.899"/><polyline class="cls-47" points="606.141 610.899 604.343 615.632 606.141 614.163 607.951 615.632 606.141 610.899"/><line class="cls-48" x1="629.0575" y1="643.3259" x2="633.782" y2="641.5075"/><line class="cls-47" x1="629.0575" y1="643.3259" x2="633.782" y2="641.5075"/><path class="cls-12" d="M606.1449,642.713a1.5465,1.5465,0,1,0-1.5424-1.5464,1.5521,1.5521,0,0,0,1.5424,1.5464"/><path class="cls-31" d="M606.1449,642.713a1.5465,1.5465,0,1,0-1.5424-1.5464A1.5521,1.5521,0,0,0,606.1449,642.713Z"/><line class="cls-42" x1="610.8511" y1="269.5561" x2="651.9312" y2="269.5561"/><line class="cls-31" x1="602.1205" y1="245.5842" x2="625.8083" y2="245.5842"/><line class="cls-31" x1="602.1205" y1="231.8895" x2="625.8083" y2="231.8895"/><line class="cls-31" x1="602.1207" y1="218.1988" x2="625.8085" y2="218.1988"/><line class="cls-31" x1="610.8552" y1="166.8535" x2="610.8552" y2="269.5561"/><line class="cls-31" x1="602.1205" y1="204.5081" x2="625.8083" y2="204.5081"/><line class="cls-31" x1="602.1205" y1="190.8215" x2="625.8083" y2="190.8215"/><line class="cls-31" x1="651.9355" y1="269.5678" x2="651.9355" y2="166.8653"/><line class="cls-42" x1="651.9354" y1="166.8494" x2="610.8552" y2="166.8494"/><line class="cls-49" x1="636.5278" y1="245.5924" x2="660.2196" y2="245.5924"/><line class="cls-49" x1="602.1205" y1="245.5842" x2="625.8083" y2="245.5842"/><line class="cls-49" x1="602.1164" y1="231.8936" x2="625.8042" y2="231.8936"/><line class="cls-49" x1="636.5237" y1="231.8936" x2="660.2155" y2="231.8936"/><line class="cls-49" x1="602.1164" y1="218.2028" x2="625.8042" y2="218.2028"/><line class="cls-49" x1="636.5237" y1="218.2028" x2="660.2155" y2="218.2028"/><line class="cls-49" x1="591.2223" y1="181.981" x2="591.2223" y2="190.8863"/><line class="cls-49" x1="602.1164" y1="204.5081" x2="625.8042" y2="204.5081"/><line class="cls-49" x1="636.5237" y1="204.5081" x2="660.2155" y2="204.5081"/><line class="cls-49" x1="588.6814" y1="195.1887" x2="593.759" y2="195.1887"/><line class="cls-49" x1="586.6764" y1="193.0375" x2="595.7763" y2="193.0375"/><line class="cls-49" x1="584.4601" y1="190.8904" x2="597.9884" y2="190.8904"/><line class="cls-49" x1="602.1164" y1="190.8133" x2="625.8042" y2="190.8133"/><line class="cls-49" x1="636.5237" y1="190.8133" x2="660.2155" y2="190.8133"/><rect class="cls-49" x="610.8552" y="166.8537" width="41.0802" height="102.7025"/><text class="cls-34" transform="translate(662.3281 193.7441) scale(1 1.0115)">CS0</text><text class="cls-34" transform="translate(662.3223 207.4209) scale(1 1.0115)">CS1</text><text class="cls-34" transform="translate(662.3145 221.3633) scale(1 1.0115)">5V</text><text class="cls-34" transform="translate(662.3066 235.1182) scale(1 1.0115)">CS2</text><text class="cls-34" transform="translate(662.498 248.8223) scale(1 1.0115)">CS3</text><text class="cls-34" transform="translate(570.333 208.3457) scale(1 1.0115)">SCLK</text><text class="cls-34" transform="translate(569.0391 222.043) scale(1 1.0115)">MOSI</text><text class="cls-34" transform="translate(569.0313 235.7979) scale(1 1.0115)">MISO</text><text class="cls-34" transform="translate(576.1592 249.9883) scale(1 1.0115)">3.3V</text><rect class="cls-37" x="624.1798" y="188.7971" width="3.1791" height="3.4581"/><rect class="cls-37" x="624.1798" y="202.4837" width="3.1791" height="3.4581"/><rect class="cls-37" x="624.18" y="216.1744" width="3.1791" height="3.4581"/><rect class="cls-37" x="624.1798" y="229.8651" width="3.1791" height="3.4581"/><rect class="cls-37" x="624.1798" y="243.5598" width="3.1791" height="3.4581"/><rect class="cls-37" x="634.8993" y="243.568" width="3.1791" height="3.4581"/><rect class="cls-37" x="634.8952" y="229.8692" width="3.1791" height="3.4581"/><rect class="cls-37" x="634.8952" y="216.1784" width="3.1791" height="3.4581"/><rect class="cls-37" x="634.8952" y="202.4837" width="3.1791" height="3.4581"/><rect class="cls-37" x="634.8952" y="188.7889" width="3.1791" height="3.4581"/><text class="cls-10" transform="translate(617.7393 156.5039)">SPI</text></g><g id="Shader"><g class="cls-50"><path class="cls-48" d="M53.0859,781.6182A50.1428,50.1428,0,0,1,3,731.5322V53.0859A50.1428,50.1428,0,0,1,53.0859,3H743.1943A50.1428,50.1428,0,0,1,793.28,53.0859V731.5322a50.1428,50.1428,0,0,1-50.086,50.086ZM30.6865,136.0342c-7.6679,0-13.9072,7.0054-13.9072,15.6167v52.312c0,8.6108,6.2393,15.6167,13.9072,15.6167H180.24c7.669,0,13.9073-7.0059,13.9073-15.6167v-52.312c0-8.6113-6.2383-15.6167-13.9073-15.6167Z"/></g><path class="cls-51" d="M743.1941,6A47.0871,47.0871,0,0,1,790.28,53.0859V731.532a47.0857,47.0857,0,0,1-47.0859,47.0859H53.0859A47.0857,47.0857,0,0,1,6,731.532V53.0859A47.0871,47.0871,0,0,1,53.0859,6H743.1941M30.6866,222.5793H180.24c9.3378,0,16.9073-8.3347,16.9073-18.6164V151.6506c0-10.2815-7.57-18.6164-16.9073-18.6164H30.6866c-9.3377,0-16.9072,8.3349-16.9072,18.6164v52.3123c0,10.2817,7.57,18.6164,16.9072,18.6164M743.1941,0H53.0859A53.146,53.146,0,0,0,0,53.0859V731.532a53.146,53.146,0,0,0,53.0859,53.0859H743.1941A53.146,53.146,0,0,0,796.28,731.532V53.0859A53.146,53.146,0,0,0,743.1941,0ZM30.6866,216.5793c-6.0143,0-10.9072-5.66-10.9072-12.6164V151.6506c0-6.9568,4.8929-12.6164,10.9072-12.6164H180.24c6.0143,0,10.9073,5.66,10.9073,12.6164v52.3123c0,6.9568-4.893,12.6164-10.9073,12.6164Z"/></g><g id="Edge_Fix_TOP_" data-name="Edge Fix (TOP)"><path class="cls-12" d="M-.7378-.99V786.73H797.28V-.99ZM749.0089,777.827l-698.0228.5137c-25.7844-2.0646-41.7151-20.1636-44.8769-45.14l.764-685.6649C8.9027,26.4352,27.0376,8.168,47.8616,5.9343l700.17.1456c21.0428,2.4862,38.8976,20.007,41.99,40.9877l.0758,684.1015C790.1224,756.4031,773.9368,773.57,749.0089,777.827Z"/></g></svg>