<svg xmlns="http://www.w3.org/2000/svg" viewBox="0 0 800 785"><defs><style>.cls-1{fill:#434343;}.cls-2{fill:#4f4e51;}.cls-3{fill:#323031;}.cls-4{fill:#424242;}.cls-5{fill:#6a5f27;}.cls-6{fill:#5a5a5d;}.cls-7{fill:#f2f2f2;}.cls-8{fill:#221f1f;}.cls-13,.cls-30,.cls-31,.cls-41,.cls-42,.cls-46,.cls-47,.cls-49,.cls-9{fill:none;}.cls-9{stroke:#5a5a5d;stroke-width:5.416px;}.cls-13,.cls-9{stroke-miterlimit:10;}.cls-10{font-size:16.248px;}.cls-10,.cls-11,.cls-12,.cls-17,.cls-22,.cls-29,.cls-32,.cls-33,.cls-34,.cls-36,.cls-37,.cls-38,.cls-39,.cls-40,.cls-43,.cls-45{fill:#fff;}.cls-10,.cls-11,.cls-17,.cls-22,.cls-29,.cls-33,.cls-34,.cls-36,.cls-39,.cls-40,.cls-43,.cls-45{font-family:Heebo-Light, Heebo;font-weight:300;}.cls-11{font-size:10.832px;}.cls-13,.cls-31,.cls-32,.cls-37,.cls-38,.cls-46,.cls-47,.cls-49{stroke:#fff;}.cls-13{stroke-width:2.708px;}.cls-14{letter-spacing:0.009em;}.cls-15{letter-spacing:-0.058em;}.cls-16{letter-spacing:-0.031em;}.cls-17{font-size:11.7401px;}.cls-18{fill:#9b9b9b;}.cls-19{fill:#171717;}.cls-20{fill:#f3ea07;}.cls-21{fill:#7cc244;}.cls-22{font-size:32.496px;}.cls-23{letter-spacing:-0.013em;}.cls-24{letter-spacing:0em;}.cls-25{fill:#51545a;}.cls-26{fill:#3c3d42;}.cls-27{fill:#5a5d65;}.cls-28{fill:#23446c;}.cls-29{font-size:11.1981px;}.cls-30,.cls-41{stroke:#f1f2f2;}.cls-30,.cls-31,.cls-32,.cls-38,.cls-41,.cls-42,.cls-46{stroke-miterlimit:2;}.cls-31,.cls-32,.cls-37,.cls-38,.cls-41,.cls-42,.cls-49{stroke-width:0.686px;}.cls-32,.cls-37,.cls-47{stroke-linecap:round;}.cls-33{font-size:10.9221px;}.cls-34{font-size:11.699px;}.cls-35{letter-spacing:-0.019em;}.cls-36{font-size:10.9278px;}.cls-37,.cls-47,.cls-49{stroke-linejoin:round;}.cls-39{font-size:9.9074px;}.cls-40{font-size:9.6078px;}.cls-42{stroke:#020202;}.cls-43,.cls-45{font-size:11.4352px;}.cls-43{letter-spacing:-0.02em;}.cls-44{letter-spacing:0.0001em;}.cls-46{stroke-width:0.588px;}.cls-47{stroke-width:0.506px;}.cls-48{fill:#231f20;}.cls-50{opacity:0.33;}.cls-51{fill:#00aeef;}</style></defs><g id="roboRIO"><path class="cls-1" d="M742.9688,776.9279l-699.2185.931A41.8156,41.8156,0,0,1,1.99,735.9878V45.0552A41.8157,41.8157,0,0,1,43.75,3.184l704.5444-.9311a41.8157,41.8157,0,0,1,41.76,41.8712V729.7166c2.3994,27.8893-12.3474,47.6874-38.9832,47.21"/><rect class="cls-2" x="14.3848" y="17.8388" width="763.4358" height="747.9174" rx="29.4466"/><rect class="cls-3" x="20.7854" y="279.0497" width="46.329" height="413.1708"/><path class="cls-4" d="M549.7844,136.2933H237.43a19.4985,19.4985,0,0,1-19.498-19.4978V36.2694a19.4985,19.4985,0,0,1,19.498-19.498h312.354a19.4985,19.4985,0,0,1,19.4978,19.498v80.5261a19.4985,19.4985,0,0,1-19.4978,19.4978"/><rect class="cls-3" x="252.4465" y="521.4725" width="279.7219" height="51.5601"/><path class="cls-5" d="M46.4289,301.62a2.7242,2.7242,0,1,1-2.7241-2.7239,2.7231,2.7231,0,0,1,2.7241,2.7239"/><path class="cls-5" d="M34.2375,301.62a2.7242,2.7242,0,1,1-2.7222-2.7239,2.7213,2.7213,0,0,1,2.7222,2.7239"/><path class="cls-5" d="M59.1105,301.62a2.723,2.723,0,1,1-2.7221-2.7239,2.7213,2.7213,0,0,1,2.7221,2.7239"/><path class="cls-5" d="M46.4289,342.8513a2.7242,2.7242,0,1,1-2.7241-2.7237,2.723,2.723,0,0,1,2.7241,2.7237"/><path class="cls-5" d="M34.2375,342.8513a2.7242,2.7242,0,1,1-2.7222-2.7237,2.7212,2.7212,0,0,1,2.7222,2.7237"/><path class="cls-5" d="M59.1105,342.8513a2.723,2.723,0,1,1-2.7221-2.7237,2.7212,2.7212,0,0,1,2.7221,2.7237"/><path class="cls-5" d="M46.4289,384.083a2.7242,2.7242,0,1,1-2.7241-2.7234,2.7231,2.7231,0,0,1,2.7241,2.7234"/><path class="cls-5" d="M34.2375,384.083a2.7242,2.7242,0,1,1-2.7222-2.7234,2.7213,2.7213,0,0,1,2.7222,2.7234"/><path class="cls-5" d="M59.1105,384.083a2.723,2.723,0,1,1-2.7221-2.7234,2.7213,2.7213,0,0,1,2.7221,2.7234"/><path class="cls-5" d="M46.4289,425.3148a2.7242,2.7242,0,1,1-2.7241-2.7233,2.723,2.723,0,0,1,2.7241,2.7233"/><path class="cls-5" d="M34.2375,425.3148a2.7242,2.7242,0,1,1-2.7222-2.7233,2.7212,2.7212,0,0,1,2.7222,2.7233"/><path class="cls-5" d="M59.1105,425.3148a2.723,2.723,0,1,1-2.7221-2.7233,2.7212,2.7212,0,0,1,2.7221,2.7233"/><path class="cls-5" d="M46.4289,466.5465a2.7242,2.7242,0,1,1-2.7241-2.723,2.723,2.723,0,0,1,2.7241,2.723"/><path class="cls-5" d="M34.2375,466.5465a2.7242,2.7242,0,1,1-2.7222-2.723,2.7212,2.7212,0,0,1,2.7222,2.723"/><path class="cls-5" d="M59.1105,466.5465a2.723,2.723,0,1,1-2.7221-2.723,2.7212,2.7212,0,0,1,2.7221,2.723"/><path class="cls-5" d="M46.4289,507.7783a2.7242,2.7242,0,1,1-2.7241-2.7228,2.723,2.723,0,0,1,2.7241,2.7228"/><path class="cls-5" d="M34.2375,507.7783a2.7242,2.7242,0,1,1-2.7222-2.7228,2.7212,2.7212,0,0,1,2.7222,2.7228"/><path class="cls-5" d="M59.1105,507.7783a2.723,2.723,0,1,1-2.7221-2.7228,2.7212,2.7212,0,0,1,2.7221,2.7228"/><path class="cls-5" d="M46.4289,549.01a2.7242,2.7242,0,1,1-2.7241-2.7225,2.723,2.723,0,0,1,2.7241,2.7225"/><path class="cls-5" d="M34.2375,549.01a2.7242,2.7242,0,1,1-2.7222-2.7225,2.7212,2.7212,0,0,1,2.7222,2.7225"/><path class="cls-5" d="M59.1105,549.01a2.723,2.723,0,1,1-2.7221-2.7225,2.7212,2.7212,0,0,1,2.7221,2.7225"/><path class="cls-5" d="M46.4289,590.2418a2.7242,2.7242,0,1,1-2.7241-2.7224,2.7231,2.7231,0,0,1,2.7241,2.7224"/><path class="cls-5" d="M34.2375,590.2418a2.7242,2.7242,0,1,1-2.7222-2.7224,2.7213,2.7213,0,0,1,2.7222,2.7224"/><path class="cls-5" d="M59.1105,590.2418a2.723,2.723,0,1,1-2.7221-2.7224,2.7212,2.7212,0,0,1,2.7221,2.7224"/><path class="cls-5" d="M46.4289,631.4735a2.7242,2.7242,0,1,1-2.7241-2.7221,2.723,2.723,0,0,1,2.7241,2.7221"/><path class="cls-5" d="M34.2375,631.4735a2.7242,2.7242,0,1,1-2.7222-2.7221,2.7212,2.7212,0,0,1,2.7222,2.7221"/><path class="cls-5" d="M59.1105,631.4735a2.723,2.723,0,1,1-2.7221-2.7221,2.7212,2.7212,0,0,1,2.7221,2.7221"/><path class="cls-5" d="M46.4289,672.7053a2.7242,2.7242,0,1,1-2.7241-2.7219,2.7231,2.7231,0,0,1,2.7241,2.7219"/><path class="cls-5" d="M34.2375,672.7053a2.7242,2.7242,0,1,1-2.7222-2.7219,2.7213,2.7213,0,0,1,2.7222,2.7219"/><path class="cls-5" d="M59.1105,672.7053a2.723,2.723,0,1,1-2.7221-2.7219,2.7212,2.7212,0,0,1,2.7221,2.7219"/><rect class="cls-3" x="22.1604" y="224.0565" width="45.05" height="36.188"/><path class="cls-5" d="M47.4094,242.1507a2.7241,2.7241,0,1,1-2.7241-2.7219,2.723,2.723,0,0,1,2.7241,2.7219"/><path class="cls-5" d="M35.218,242.1507a2.7241,2.7241,0,1,1-2.7222-2.7219,2.7212,2.7212,0,0,1,2.7222,2.7219"/><path class="cls-5" d="M60.0911,242.1507a2.7231,2.7231,0,1,1-2.7222-2.7219,2.7213,2.7213,0,0,1,2.7222,2.7219"/><rect class="cls-3" x="22.1604" y="160.6505" width="60.6521" height="39.05"/><path class="cls-5" d="M48.6809,180.1742a2.7241,2.7241,0,1,1-2.7241-2.7219,2.7247,2.7247,0,0,1,2.7241,2.7219"/><path class="cls-5" d="M36.49,180.1742a2.7241,2.7241,0,1,1-2.7222-2.7219,2.7229,2.7229,0,0,1,2.7222,2.7219"/><path class="cls-5" d="M61.3625,180.1742a2.723,2.723,0,1,1-2.7221-2.7219,2.7229,2.7229,0,0,1,2.7221,2.7219"/><path class="cls-5" d="M73.929,180.1742a2.7242,2.7242,0,1,1-2.7222-2.7219,2.723,2.723,0,0,1,2.7222,2.7219"/><rect class="cls-3" x="225.3858" y="708.8288" width="158.48" height="45.05"/><path class="cls-5" d="M243.4818,728.6307a2.723,2.723,0,1,1-2.7241,2.722,2.7211,2.7211,0,0,1,2.7241-2.722"/><path class="cls-5" d="M243.4818,740.82a2.7241,2.7241,0,1,1-2.7241,2.7242,2.7216,2.7216,0,0,1,2.7241-2.7242"/><path class="cls-5" d="M243.4818,715.9471a2.7241,2.7241,0,1,1-2.7241,2.722,2.7211,2.7211,0,0,1,2.7241-2.722"/><rect class="cls-3" x="265.8377" y="708.8288" width="36.188" height="45.05"/><path class="cls-5" d="M283.9329,728.6307a2.723,2.723,0,1,1-2.7221,2.722,2.7228,2.7228,0,0,1,2.7221-2.722"/><path class="cls-5" d="M283.9329,740.82a2.7241,2.7241,0,1,1-2.7221,2.7242,2.7233,2.7233,0,0,1,2.7221-2.7242"/><path class="cls-5" d="M283.9329,715.9471a2.7241,2.7241,0,1,1-2.7221,2.722,2.7228,2.7228,0,0,1,2.7221-2.722"/><rect class="cls-3" x="347.6778" y="708.8288" width="36.188" height="45.05"/><path class="cls-5" d="M365.7728,728.6307a2.723,2.723,0,1,1-2.7222,2.722,2.7228,2.7228,0,0,1,2.7222-2.722"/><path class="cls-5" d="M365.7728,740.82a2.7241,2.7241,0,1,1-2.7222,2.7242,2.7233,2.7233,0,0,1,2.7222-2.7242"/><path class="cls-5" d="M365.7728,715.9471a2.7241,2.7241,0,1,1-2.7222,2.722,2.7228,2.7228,0,0,1,2.7222-2.722"/><rect class="cls-3" x="306.7818" y="708.8288" width="36.188" height="45.05"/><path class="cls-5" d="M324.8763,728.6307a2.723,2.723,0,1,1-2.7222,2.722,2.7211,2.7211,0,0,1,2.7222-2.722"/><path class="cls-5" d="M324.8763,740.82a2.7241,2.7241,0,1,1-2.7222,2.7242,2.7216,2.7216,0,0,1,2.7222-2.7242"/><path class="cls-5" d="M324.8763,715.9471a2.7241,2.7241,0,1,1-2.7222,2.722,2.7211,2.7211,0,0,1,2.7222-2.722"/><rect class="cls-3" x="401.9145" y="708.7208" width="158.48" height="45.05"/><path class="cls-5" d="M420.0075,728.5227a2.723,2.723,0,1,1-2.7221,2.722,2.7215,2.7215,0,0,1,2.7221-2.722"/><path class="cls-5" d="M420.0075,740.7122a2.7241,2.7241,0,1,1-2.7221,2.7241,2.722,2.722,0,0,1,2.7221-2.7241"/><path class="cls-5" d="M420.0075,715.8391a2.7241,2.7241,0,1,1-2.7221,2.722,2.7215,2.7215,0,0,1,2.7221-2.722"/><rect class="cls-3" x="442.3664" y="708.7208" width="36.188" height="45.05"/><path class="cls-5" d="M460.4607,728.5227a2.723,2.723,0,1,1-2.7242,2.722,2.7211,2.7211,0,0,1,2.7242-2.722"/><path class="cls-5" d="M460.4607,740.7122a2.7241,2.7241,0,1,1-2.7242,2.7241,2.7216,2.7216,0,0,1,2.7242-2.7241"/><path class="cls-5" d="M460.4607,715.8391a2.7241,2.7241,0,1,1-2.7242,2.722,2.7211,2.7211,0,0,1,2.7242-2.722"/><rect class="cls-3" x="524.2065" y="708.7208" width="36.188" height="45.05"/><path class="cls-5" d="M542.3005,728.5227a2.723,2.723,0,1,1-2.7241,2.722,2.7211,2.7211,0,0,1,2.7241-2.722"/><path class="cls-5" d="M542.3005,740.7122a2.7241,2.7241,0,1,1-2.7241,2.7241,2.7216,2.7216,0,0,1,2.7241-2.7241"/><path class="cls-5" d="M542.3005,715.8391a2.7241,2.7241,0,1,1-2.7241,2.722,2.7211,2.7211,0,0,1,2.7241-2.722"/><rect class="cls-3" x="483.3086" y="708.7208" width="36.1899" height="45.05"/><path class="cls-5" d="M501.404,728.5227a2.723,2.723,0,1,1-2.7241,2.722,2.7211,2.7211,0,0,1,2.7241-2.722"/><path class="cls-5" d="M501.404,740.7122a2.7241,2.7241,0,1,1-2.7241,2.7241,2.7216,2.7216,0,0,1,2.7241-2.7241"/><path class="cls-5" d="M501.404,715.8391a2.7241,2.7241,0,1,1-2.7241,2.722,2.7211,2.7211,0,0,1,2.7241-2.722"/><rect class="cls-6" x="26.9246" y="86.6586" width="43.512" height="24.8181"/><rect class="cls-7" x="36.7007" y="91.3126" width="27.9199" height="14.7339"/><path class="cls-8" d="M49.6907,99.0687a9.7911,9.7911,0,1,1-9.7923-9.792,9.79,9.79,0,0,1,9.7923,9.792"/><rect class="cls-6" x="26.9246" y="111.4767" width="43.512" height="24.8159"/><rect class="cls-7" x="36.7007" y="116.1307" width="27.9199" height="14.7339"/><path class="cls-8" d="M49.6907,123.8851a9.7911,9.7911,0,1,1-9.7923-9.792,9.7923,9.7923,0,0,1,9.7923,9.792"/><polygon class="cls-3" points="140.927 24.526 140.927 58.5 133.541 58.5 133.541 98.68 140.927 98.68 140.927 123.886 176.377 123.886 176.377 98.68 191.885 98.68 191.885 57.022 178.593 56.284 177.855 24.526 140.927 24.526"/><path class="cls-8" d="M168.4426,39.6605a9.791,9.791,0,1,1-9.7922-9.792,9.7923,9.7923,0,0,1,9.7922,9.792"/><path class="cls-8" d="M168.4426,108.6468a9.791,9.791,0,1,1-9.7922-9.792,9.7909,9.7909,0,0,1,9.7922,9.792"/><rect class="cls-8" x="162.7146" y="62.8326" width="25.478" height="10.3379"/><rect class="cls-8" x="162.7146" y="81.3046" width="25.478" height="10.3401"/><path class="cls-7" d="M357.98,619.6194h-3.0761a82.8609,82.8609,0,0,1-6.85-8.944h-.042v8.944H344.39V604.35h3.3379c2.2041,2.7059,5.4961,6.6759,6.5882,8.7479h.042V604.35h3.622v15.27"/><path class="cls-7" d="M368.6482,604.349l5.802,15.27h-4.886l-1.2-3.642H363.63l-1.4619,3.642H358.57l6.2158-15.27Zm-1.0259,9.2059c-.5022-1.81-.9382-3.2719-1.4841-5.454h-.044c-.5881,2.1821-1.112,3.6441-1.68,5.454h3.208"/><polygon class="cls-7" points="375.911 619.619 375.911 607.207 371.505 607.207 371.505 604.349 384.921 604.349 384.921 607.207 380.515 607.207 380.515 619.619 375.911 619.619"/><rect class="cls-7" x="386.4045" y="604.3506" width="4.604" height="15.27"/><path class="cls-7" d="M392.1172,611.8108a7.5921,7.5921,0,1,1,15.1819,0c0,4.5581-2.9019,8.07-7.5921,8.07s-7.59-3.512-7.59-8.07m10.3821,0c0-2.706-.8282-4.538-2.7923-4.538s-2.792,1.832-2.792,4.538c0,2.878.7422,4.884,2.792,4.884s2.7923-2.006,2.7923-4.884"/><path class="cls-7" d="M421.9993,619.6194H418.925a82.372,82.372,0,0,1-6.85-8.944h-.044v8.944h-3.622V604.35h3.3379c2.2041,2.7059,5.4961,6.6759,6.5881,8.7479h.0439V604.35h3.62v15.27"/><path class="cls-7" d="M432.449,604.349l5.802,15.27h-4.8841l-1.2019-3.642h-4.7341l-1.4619,3.642h-3.5979l6.2178-15.27Zm-1.0259,9.2059c-.5-1.81-.9382-3.2719-1.4822-5.454h-.0439c-.59,2.1821-1.1121,3.6441-1.6819,5.454h3.208"/><polygon class="cls-7" points="439.279 604.35 443.88 604.35 443.88 616.762 449.464 616.762 449.464 619.62 439.279 619.62 439.279 604.35"/><rect class="cls-7" x="337.5166" y="624.3486" width="4.604" height="15.272"/><path class="cls-7" d="M357.6711,639.6194h-3.0742a82.6787,82.6787,0,0,1-6.8518-8.9459h-.042v8.9459h-3.622v-15.272h3.3378c2.2041,2.7061,5.4981,6.676,6.5882,8.7481h.042v-8.7481h3.622v15.272"/><path class="cls-7" d="M367.38,627.512a4.3428,4.3428,0,0,0-2.248-.568c-.8941,0-1.3521.4381-1.3521.94,0,.848,1.2881,1.548,2.772,2.92,1.96,1.834,2.4419,2.99,2.4419,4.584,0,1.35-1.1118,4.494-5.6939,4.494a7.7352,7.7352,0,0,1-4.7981-1.3981l1.396-2.53a4.323,4.323,0,0,0,2.616,1.068c.916,0,1.92-.458,1.92-1.592,0-1.22-1.4842-2.116-2.6822-3.1619-1.592-1.396-2.5319-2.2061-2.5319-4.08,0-2.444,2.4641-4.1019,5.3459-4.1019a8.1247,8.1247,0,0,1,3.9922,1.026l-1.178,2.4"/><polygon class="cls-7" points="373.531 639.619 373.531 627.205 369.125 627.205 369.125 624.347 382.538 624.347 382.538 627.205 378.134 627.205 378.134 639.619 373.531 639.619"/><path class="cls-7" d="M384.02,624.3473h6.8078c3.5979,0,5.54,1.572,5.54,4.08a4.58,4.58,0,0,1-2.574,4.406l3.38,6.5461-4.928.502-2.42-6.044h-1.2019v5.782H384.02Zm4.604,6.6119h1.3078a1.8412,1.8412,0,0,0,1.8321-1.876,1.6849,1.6849,0,0,0-1.918-1.8779h-1.2219v3.7539"/><path class="cls-7" d="M402.3469,624.348v7.9861c0,2.746.4138,4.3619,2.356,4.3619,1.5259,0,2.4-1.5279,2.4-4.4279v-7.92h3.97v9.228c0,4.56-3.0979,6.3061-6.5879,6.3061-3.9041,0-6.742-1.638-6.742-6.1961v-9.338h4.604"/><path class="cls-7" d="M431.6438,639.6194h-4.6021v-10.69H427c-1.18,3.992-2.4,7.3521-3.6241,10.69h-2.9c-1.2439-3.3379-2.4878-6.698-3.688-10.69h-.042v10.69h-3.6218v-15.272h6.2378c1.0481,2.9241,2.094,5.8261,3.12,9.402h.0439c.982-3.5759,2.0061-6.4779,3.01-9.402h6.1082v15.272"/><polygon class="cls-7" points="442.88 627.205 438.212 627.205 438.212 630.217 442.772 630.217 442.772 633.075 438.212 633.075 438.212 636.759 443.82 636.759 443.82 639.619 433.61 639.619 433.61 624.347 442.88 624.347 442.88 627.205"/><path class="cls-7" d="M458.2375,639.6194h-3.0761a82.6468,82.6468,0,0,1-6.85-8.9459h-.042v8.9459h-3.622v-15.272h3.3378c2.2041,2.7061,5.4961,6.676,6.5882,8.7481h.042v-8.7481h3.622v15.272"/><polygon class="cls-7" points="463.474 639.619 463.474 627.205 459.068 627.205 459.068 624.347 472.484 624.347 472.484 627.205 468.078 627.205 468.078 639.619 463.474 639.619"/><path class="cls-7" d="M481.4915,627.512a4.3411,4.3411,0,0,0-2.2461-.568c-.896,0-1.354.4381-1.354.94,0,.848,1.288,1.548,2.77,2.92,1.9638,1.834,2.4438,2.99,2.4438,4.584,0,1.35-1.1118,4.494-5.6919,4.494a7.7368,7.7368,0,0,1-4.8-1.3981l1.396-2.53a4.3327,4.3327,0,0,0,2.6159,1.068c.9161,0,1.92-.458,1.92-1.592,0-1.22-1.4822-2.116-2.6821-3.1619-1.5921-1.396-2.532-2.2061-2.532-4.08,0-2.444,2.4661-4.1019,5.3459-4.1019a8.1243,8.1243,0,0,1,3.9922,1.026l-1.1779,2.4"/><path class="cls-7" d="M483.9341,626.9768v-2.16h-.82v-.276H485.17v.276h-.8162v2.16Zm4.4441,0h-.4241v-1.7959h-.012l-.9641,1.7959h-.2l-.896-1.7959h-.0081v1.7959h-.344v-2.4359h.4881l.9179,1.8259.9939-1.8259h.4483v2.4359"/><path class="cls-7" d="M320.8215,610.1135a5.8214,5.8214,0,0,1,4.2078-4.886c5.154-1.464,7.9121-1.1939,17.154-1.27-5.54,4.9579-9.9638,12.77-8.9738,20.414-1.99-1.63-3.334-3.96-5.062-5.822a19.25,19.25,0,0,0,1.6679-3.888c.6121-2.312,2.2781-2.858,4.39-2.7941.1582.006-.124-1.78-.708-1.9379-1.574-.4261-2.906.08-4.7339-.626a2.2276,2.2276,0,0,0-1.7439.332c-1.5.766-2.45,2.4039-4.1382,2.922Z"/><path class="cls-7" d="M292.5657,608.6174a25.0914,25.0914,0,0,1,9.9538-4.324c4.7161-.8619,9.826-.926,13.3479,2.47,6.6541,6.408,12.0423,13.134,17.8782,20.456.23.2879.21,1.076.01,1.19a83.72,83.72,0,0,1-12.6721,5.934,2.1879,2.1879,0,0,1-2.03-.448c-6.6538-6.046-11.21-13.282-17.596-19.572a21.3221,21.3221,0,0,0-8.7239-5.1861c-.2641-.0819-.312-.42-.1679-.52"/><path class="cls-7" d="M315.82,638.1174a42.8288,42.8288,0,0,0-11.9383,12.718,26.5054,26.5054,0,0,1,.48-14.968c1.67-4.6759,1.99-9.2159,2.2119-14.09,3.0359,3.4959,6.4819,7.36,9.32,10.8659Z"/><rect class="cls-3" x="263.6125" y="531.4606" width="260.228" height="32.484"/><path class="cls-5" d="M282.3586,550.78a1.9641,1.9641,0,1,1-1.9641,1.9641,1.9632,1.9632,0,0,1,1.9641-1.9641"/><path class="cls-5" d="M282.3586,540.6993a1.9641,1.9641,0,1,1-1.9641,1.9641,1.962,1.962,0,0,1,1.9641-1.9641"/><path class="cls-5" d="M294.45,550.78a1.9641,1.9641,0,1,1-1.9641,1.9641A1.9632,1.9632,0,0,1,294.45,550.78"/><path class="cls-5" d="M294.45,540.6993a1.9641,1.9641,0,1,1-1.9641,1.9641,1.962,1.962,0,0,1,1.9641-1.9641"/><path class="cls-5" d="M309.4075,550.7678a1.9641,1.9641,0,1,1-1.9641,1.9641,1.9619,1.9619,0,0,1,1.9641-1.9641"/><path class="cls-5" d="M309.4075,540.6877a1.9641,1.9641,0,1,1-1.9641,1.9641,1.9619,1.9619,0,0,1,1.9641-1.9641"/><path class="cls-5" d="M321.4993,550.7678a1.9641,1.9641,0,1,1-1.9622,1.9641,1.962,1.962,0,0,1,1.9622-1.9641"/><path class="cls-5" d="M321.4993,540.6877a1.9641,1.9641,0,1,1-1.9622,1.9641,1.962,1.962,0,0,1,1.9622-1.9641"/><path class="cls-5" d="M337.1086,550.7678a1.9641,1.9641,0,1,1-1.9641,1.9641,1.962,1.962,0,0,1,1.9641-1.9641"/><path class="cls-5" d="M337.1086,540.6877a1.9641,1.9641,0,1,1-1.9641,1.9621,1.9616,1.9616,0,0,1,1.9641-1.9621"/><path class="cls-5" d="M349.2,550.7678a1.9641,1.9641,0,1,1-1.9621,1.9641,1.9636,1.9636,0,0,1,1.9621-1.9641"/><path class="cls-5" d="M349.2,540.6877a1.9641,1.9641,0,1,1-1.9621,1.9621,1.9632,1.9632,0,0,1,1.9621-1.9621"/><path class="cls-5" d="M364.4153,550.7678a1.9641,1.9641,0,1,1-1.9622,1.9641,1.9623,1.9623,0,0,1,1.9622-1.9641"/><path class="cls-5" d="M364.4153,540.6877a1.9641,1.9641,0,1,1-1.9622,1.9621,1.9619,1.9619,0,0,1,1.9622-1.9621"/><path class="cls-5" d="M379.0149,550.7678a1.9641,1.9641,0,1,1-1.9641,1.9641,1.9619,1.9619,0,0,1,1.9641-1.9641"/><path class="cls-5" d="M379.0149,540.6877a1.9641,1.9641,0,1,1-1.9641,1.9621,1.9615,1.9615,0,0,1,1.9641-1.9621"/><path class="cls-5" d="M393.4661,550.7678a1.9641,1.9641,0,1,1-1.9622,1.9641,1.9623,1.9623,0,0,1,1.9622-1.9641"/><path class="cls-5" d="M393.4661,540.6877a1.9641,1.9641,0,1,1-1.9622,1.9641,1.9623,1.9623,0,0,1,1.9622-1.9641"/><path class="cls-5" d="M406.3723,550.77a1.963,1.963,0,1,1-1.9621,1.962,1.9619,1.9619,0,0,1,1.9621-1.962"/><path class="cls-5" d="M406.3723,540.6877a1.9641,1.9641,0,1,1-1.9621,1.9641,1.9624,1.9624,0,0,1,1.9621-1.9641"/><path class="cls-5" d="M419.5891,550.7678a1.9641,1.9641,0,1,1-1.9641,1.9641,1.9631,1.9631,0,0,1,1.9641-1.9641"/><path class="cls-5" d="M419.5891,540.6877a1.9641,1.9641,0,1,1-1.9641,1.9641,1.9619,1.9619,0,0,1,1.9641-1.9641"/><path class="cls-5" d="M432.6086,550.7678a1.9641,1.9641,0,1,1-1.9641,1.9641,1.962,1.962,0,0,1,1.9641-1.9641"/><path class="cls-5" d="M432.6086,540.6877a1.9641,1.9641,0,1,1-1.9641,1.9641,1.962,1.962,0,0,1,1.9641-1.9641"/><path class="cls-5" d="M447.5012,550.7678a1.9641,1.9641,0,1,1-1.9621,1.9641,1.9631,1.9631,0,0,1,1.9621-1.9641"/><path class="cls-5" d="M447.5012,540.6877a1.9641,1.9641,0,1,1-1.9621,1.9641,1.9619,1.9619,0,0,1,1.9621-1.9641"/><path class="cls-5" d="M460.6672,550.7678a1.9641,1.9641,0,1,1-1.9621,1.9641,1.9636,1.9636,0,0,1,1.9621-1.9641"/><path class="cls-5" d="M460.6672,540.6877a1.9641,1.9641,0,1,1-1.9621,1.9641,1.9636,1.9636,0,0,1,1.9621-1.9641"/><path class="cls-5" d="M473.6614,550.7678a1.9641,1.9641,0,1,1-1.9641,1.9641,1.9631,1.9631,0,0,1,1.9641-1.9641"/><path class="cls-5" d="M473.6614,540.6877a1.9641,1.9641,0,1,1-1.9641,1.9641,1.9619,1.9619,0,0,1,1.9641-1.9641"/><path class="cls-5" d="M487.7161,550.77a1.963,1.963,0,1,1-1.9622,1.962,1.9618,1.9618,0,0,1,1.9622-1.962"/><path class="cls-5" d="M487.7161,540.6877a1.9641,1.9641,0,1,1-1.9622,1.9641,1.9623,1.9623,0,0,1,1.9622-1.9641"/><path class="cls-5" d="M500.6165,550.77a1.963,1.963,0,1,1-1.9642,1.962,1.9614,1.9614,0,0,1,1.9642-1.962"/><path class="cls-5" d="M500.6165,540.6877a1.9641,1.9641,0,1,1-1.9642,1.9641,1.962,1.962,0,0,1,1.9642-1.9641"/><polyline class="cls-9" points="377.423 528.028 260.019 528.028 260.019 567.356 524.213 567.356 524.213 528.028 408.781 528.028"/><path class="cls-5" d="M268.6946,181.4164a9.3811,9.3811,0,1,1-9.38-9.38,9.3807,9.3807,0,0,1,9.38,9.38"/><path class="cls-8" d="M264.73,181.4164a5.416,5.416,0,1,1-5.416-5.4158,5.4161,5.4161,0,0,1,5.416,5.4158"/><path class="cls-5" d="M535.5774,173.4906a9.3813,9.3813,0,1,1-13.2681,0,9.3831,9.3831,0,0,1,13.2681,0"/><path class="cls-8" d="M534.3606,180.1234a5.416,5.416,0,1,1-5.416-5.4158,5.4174,5.4174,0,0,1,5.416,5.4158"/><rect class="cls-3" x="603.8044" y="23.5765" width="51.5581" height="112.7161"/><rect class="cls-3" x="613.7786" y="26.9325" width="32.4861" height="104.8621"/><path class="cls-5" d="M633.0989,113.34c0-.438.8779-.792,1.9619-.792s1.9639.354,1.9639.792-.88.7922-1.9639.7922-1.9619-.354-1.9619-.7922"/><path class="cls-5" d="M623.0168,113.34c0-.438.878-.792,1.9639-.792,1.084,0,1.9641.354,1.9641.792s-.88.7922-1.9641.7922c-1.0859,0-1.9639-.354-1.9639-.7922"/><path class="cls-5" d="M633.0989,108.4672c0-.438.8779-.792,1.9619-.792s1.9639.354,1.9639.792-.88.7922-1.9639.7922-1.9619-.354-1.9619-.7922"/><path class="cls-5" d="M623.0168,108.4672c0-.438.878-.792,1.9639-.792,1.084,0,1.9641.354,1.9641.792s-.88.7922-1.9641.7922c-1.0859,0-1.9639-.354-1.9639-.7922"/><path class="cls-5" d="M633.0989,102.1781c0-.438.8779-.792,1.9619-.792s1.9639.354,1.9639.792-.88.7922-1.9639.7922-1.9619-.354-1.9619-.7922"/><path class="cls-5" d="M623.0168,102.1781c0-.438.878-.792,1.9639-.792,1.084,0,1.9641.354,1.9641.792s-.88.7922-1.9641.7922c-1.0859,0-1.9639-.354-1.9639-.7922"/><path class="cls-5" d="M633.0989,97.305c0-.4379.8779-.7919,1.9619-.7919s1.9639.354,1.9639.7919-.88.7923-1.9639.7923-1.9619-.354-1.9619-.7923"/><path class="cls-5" d="M623.0168,97.305c0-.4379.878-.7919,1.9639-.7919,1.084,0,1.9641.354,1.9641.7919s-.88.7923-1.9641.7923c-1.0859,0-1.9639-.354-1.9639-.7923"/><path class="cls-5" d="M633.0989,91.1742c0-.438.8779-.792,1.9619-.792s1.9639.354,1.9639.792-.88.7922-1.9639.7922-1.9619-.354-1.9619-.7922"/><path class="cls-5" d="M623.0168,91.1742c0-.438.878-.792,1.9639-.792,1.084,0,1.9641.354,1.9641.792s-.88.7922-1.9641.7922c-1.0859,0-1.9639-.354-1.9639-.7922"/><path class="cls-5" d="M633.0989,85.2914c0-.438.8779-.792,1.9619-.792s1.9639.354,1.9639.792-.88.7922-1.9639.7922-1.9619-.354-1.9619-.7922"/><path class="cls-5" d="M623.0168,85.2914c0-.438.878-.792,1.9639-.792,1.084,0,1.9641.354,1.9641.792s-.88.7922-1.9641.7922c-1.0859,0-1.9639-.354-1.9639-.7922"/><path class="cls-5" d="M633.0989,79.4672c0-.4358.8779-.792,1.9619-.792s1.9639.3562,1.9639.792c0,.4382-.88.7922-1.9639.7922s-1.9619-.354-1.9619-.7922"/><path class="cls-5" d="M623.0168,79.4672c0-.4358.878-.792,1.9639-.792,1.084,0,1.9641.3562,1.9641.792,0,.4382-.88.7922-1.9641.7922-1.0859,0-1.9639-.354-1.9639-.7922"/><path class="cls-5" d="M633.0989,74.2679c0-.438.8779-.792,1.9619-.792,1.0859,0,1.9661.354,1.9661.792,0,.4361-.88.7923-1.9661.7923-1.084,0-1.9619-.3562-1.9619-.7923"/><path class="cls-5" d="M623.0188,74.2679c0-.438.8779-.792,1.9619-.792s1.9639.354,1.9639.792c0,.4361-.88.7923-1.9639.7923s-1.9619-.3562-1.9619-.7923"/><path class="cls-5" d="M633.0989,68.9418c0-.438.8779-.792,1.9619-.792s1.9661.354,1.9661.792-.8821.7922-1.9661.7922-1.9619-.354-1.9619-.7922"/><path class="cls-5" d="M623.0168,68.9418c0-.438.88-.792,1.9639-.792s1.9641.354,1.9641.792-.88.7922-1.9641.7922-1.9639-.354-1.9639-.7922"/><path class="cls-5" d="M633.0989,63.6957c0-.438.8779-.792,1.9619-.792s1.9639.354,1.9639.792-.88.7922-1.9639.7922-1.9619-.354-1.9619-.7922"/><path class="cls-5" d="M623.0168,63.6957c0-.438.878-.792,1.9639-.792,1.084,0,1.9641.354,1.9641.792s-.88.7922-1.9641.7922c-1.0859,0-1.9639-.354-1.9639-.7922"/><path class="cls-5" d="M633.0989,57.6937c0-.4358.8779-.792,1.9619-.792s1.9661.3562,1.9661.792c0,.4382-.8821.7923-1.9661.7923s-1.9619-.3541-1.9619-.7923"/><path class="cls-5" d="M623.0168,57.6937c0-.4358.88-.792,1.9639-.792s1.9641.3562,1.9641.792c0,.4382-.88.7923-1.9641.7923s-1.9639-.3541-1.9639-.7923"/><path class="cls-5" d="M633.0989,52.389c0-.438.8779-.792,1.9619-.792s1.9639.354,1.9639.792-.88.7923-1.9639.7923-1.9619-.354-1.9619-.7923"/><path class="cls-5" d="M623.0168,52.389c0-.438.878-.792,1.9639-.792,1.084,0,1.9641.354,1.9641.792s-.88.7923-1.9641.7923c-1.0859,0-1.9639-.354-1.9639-.7923"/><path class="cls-5" d="M633.0989,47.1527c0-.438.8779-.792,1.9619-.792s1.9661.354,1.9661.792-.8821.7922-1.9661.7922-1.9619-.354-1.9619-.7922"/><path class="cls-5" d="M623.0168,47.1527c0-.4358.88-.792,1.9639-.792s1.9641.3562,1.9641.792c0,.4382-.88.7922-1.9641.7922s-1.9639-.354-1.9639-.7922"/><polyline class="cls-9" points="610.359 85.932 610.359 133.24 649.685 133.24 649.685 26.784 610.359 26.784 610.359 73.298"/><text class="cls-10" transform="translate(76.8535 246.6094)">RS-232</text><text class="cls-10" transform="translate(94.4014 186.2773)">I</text><text class="cls-10" transform="translate(98.7334 180.8672) scale(0.583)">2</text><text class="cls-10" transform="translate(103.9873 186.2773)">C</text><text class="cls-10" transform="translate(32.5625 78.374)">CAN</text><text class="cls-11" transform="translate(80.6455 101.6523)">L (GRN)</text><text class="cls-11" transform="translate(81.4814 126.4707)">H (YEL)</text><path class="cls-12" d="M101.8387,481.1359a4.4934,4.4934,0,0,1-1.8437,1.748,5.8305,5.8305,0,0,1-2.749.627H96.1825a5.8185,5.8185,0,0,1-2.7529-.627,4.481,4.481,0,0,1-1.8409-1.76,5.1607,5.1607,0,0,1-.65-2.6113v-3.1582H102.49v3.2305A5.002,5.002,0,0,1,101.8387,481.1359Zm-4.5771,1.4082a5.1577,5.1577,0,0,0,2.3125-.4922,3.6358,3.6358,0,0,0,1.539-1.3887,3.93,3.93,0,0,0,.544-2.0781v-2.2539H91.7635v2.1816a4.0207,4.0207,0,0,0,.5557,2.1348,3.6774,3.6774,0,0,0,1.5547,1.4043,5.1607,5.1607,0,0,0,2.3086.4922Z"/><path class="cls-12" d="M90.9383,486.2159H102.49v.9766H90.9383Z"/><path class="cls-12" d="M93.2909,498.3116a4.4132,4.4132,0,0,1-1.8565-6.2949,4.3019,4.3019,0,0,1,1.86-1.5879,6.56,6.56,0,0,1,2.8008-.5625h1.2373a6.5932,6.5932,0,0,1,2.8008.5586,4.2985,4.2985,0,0,1,1.86,1.58,4.25,4.25,0,0,1,.6543,2.3516,4.1572,4.1572,0,0,1-2.5107,3.9511,6.6448,6.6448,0,0,1-2.8047.5547H96.0956A6.6725,6.6725,0,0,1,93.2909,498.3116Zm6.4219-.8379a3.373,3.373,0,0,0,1.539-1.2168,3.3134,3.3134,0,0,0,.54-1.9,3.2556,3.2556,0,0,0-.54-1.8731,3.412,3.412,0,0,0-1.543-1.2168,6.024,6.024,0,0,0-2.36-.4258H96.0956a6.0082,6.0082,0,0,0-2.3682.43,3.4516,3.4516,0,0,0-1.5478,1.2246,3.2563,3.2563,0,0,0-.543,1.877,3.3092,3.3092,0,0,0,.539,1.9043,3.3459,3.3459,0,0,0,1.543,1.2051,6.2305,6.2305,0,0,0,2.377.414h1.2529A6.0509,6.0509,0,0,0,99.7128,497.4737Z"/><polyline class="cls-13" points="85.589 298.895 96.797 298.895 96.797 464.467"/><polyline class="cls-13" points="96.798 509.75 96.798 666.226 85.59 666.226"/><text class="cls-10" transform="translate(283.8184 684.0576)">RE<tspan class="cls-14" x="19.5645" y="0">L</tspan><tspan class="cls-15" x="28.2783" y="0">A</tspan><tspan x="37.4912" y="0">Y</tspan></text><polyline class="cls-13" points="242.777 689.557 242.777 680.683 273.494 680.683"/><polyline class="cls-13" points="337.624 680.682 365.49 680.682 365.49 690.656"/><text class="cls-10" transform="translate(442.1738 684.0576)">ANA<tspan class="cls-16" x="31.8535" y="0">L</tspan><tspan x="39.918" y="0">OG IN</tspan></text><text class="cls-17" transform="translate(618.6982 696.6846)">RESET</text><text class="cls-17" transform="translate(674.877 696.6846)">USER</text><polyline class="cls-13" points="419.212 689.49 419.212 681.23 433.242 681.23"/><polyline class="cls-13" points="532.072 680.133 546.003 680.133 546.003 690.657"/><rect class="cls-3" x="98.9953" y="708.8288" width="39.958" height="45.05"/><path class="cls-5" d="M118.9735,728.6286a2.7241,2.7241,0,1,1-2.7222,2.7241,2.7245,2.7245,0,0,1,2.7222-2.7241"/><path class="cls-5" d="M118.9735,740.82a2.7241,2.7241,0,1,1-2.7222,2.7221,2.7228,2.7228,0,0,1,2.7222-2.7221"/><text class="cls-10" transform="translate(104.7188 696.7725)">RSL</text><text class="cls-10" transform="translate(697.9395 496.8623) rotate(-90)">PWM</text><polyline class="cls-13" points="702.351 666.135 691.143 666.135 691.143 505.118"/><polyline class="cls-13" points="691.142 449.975 691.142 293.542 702.35 293.542"/><path class="cls-5" d="M340.554,86.8363a9.3812,9.3812,0,1,1-9.38-9.38,9.3807,9.3807,0,0,1,9.38,9.38"/><path class="cls-8" d="M336.5891,86.8363a5.416,5.416,0,1,1-5.416-5.4158,5.4174,5.4174,0,0,1,5.416,5.4158"/><path class="cls-5" d="M340.554,41.307a9.3812,9.3812,0,1,1-9.38-9.3779,9.3795,9.3795,0,0,1,9.38,9.3779"/><path class="cls-8" d="M336.5891,41.307a5.416,5.416,0,1,1-5.416-5.4138,5.4161,5.4161,0,0,1,5.416,5.4138"/><rect class="cls-18" x="232.5725" y="37.5765" width="66.468" height="53.384"/><polygon class="cls-19" points="250.113 43.036 281.316 43.036 288.886 50.792 288.886 85.502 242.729 85.502 242.729 50.976 250.113 43.036"/><path class="cls-5" d="M259.761,68.934a1.9641,1.9641,0,1,1-1.9641,1.9621,1.9615,1.9615,0,0,1,1.9641-1.9621"/><path class="cls-5" d="M259.761,58.8539a1.9641,1.9641,0,1,1-1.9641,1.9621,1.9615,1.9615,0,0,1,1.9641-1.9621"/><path class="cls-5" d="M271.8528,68.934a1.9641,1.9641,0,1,1-1.9622,1.9621,1.9619,1.9619,0,0,1,1.9622-1.9621"/><path class="cls-5" d="M271.8528,58.8539a1.9641,1.9641,0,1,1-1.9622,1.9621,1.9619,1.9619,0,0,1,1.9622-1.9621"/><rect class="cls-18" x="467.6406" y="26.7025" width="87.1479" height="92.3181"/><rect class="cls-19" x="478.4426" y="63.5665" width="65.5459" height="38.1741"/><rect class="cls-19" x="493.0266" y="101.7406" width="36.0039" height="8.8621"/><rect class="cls-19" x="499.4885" y="110.6027" width="23.2639" height="7.386"/><rect class="cls-20" x="469.5786" y="101.7406" width="23.448" height="13.292"/><rect class="cls-21" x="529.0305" y="101.7406" width="23.45" height="13.292"/><rect class="cls-18" x="365.3823" y="72.8624" width="75.3921" height="33.3101"/><rect class="cls-19" x="367.3804" y="74.2047" width="71.4561" height="30.084"/><rect class="cls-18" x="365.4145" y="26.3824" width="75.3921" height="33.3101"/><rect class="cls-19" x="367.4124" y="27.7245" width="71.4541" height="30.084"/><text class="cls-10" transform="translate(78.792 38.4248)">INPUT</text><text class="cls-22" transform="translate(315.752 247.1348)">NI <tspan class="cls-23" x="39.668" y="0">r</tspan><tspan class="cls-24" x="50.1943" y="0">oboRIO</tspan></text><rect class="cls-6" x="370.3965" y="77.4545" width="65.3621" height="11.792"/><rect class="cls-6" x="370.3965" y="30.9767" width="65.3621" height="11.792"/><text class="cls-10" transform="translate(702.3262 92.8213)">POWER</text><rect class="cls-25" x="764.1382" y="79.5098" width="16.0342" height="15.1855"/><rect class="cls-26" x="779.3018" y="79.6291" width="10.6027" height="15.1855"/><text class="cls-10" transform="translate(697.9707 118.7813)">STATUS</text><rect class="cls-25" x="764.1382" y="105.4696" width="16.0342" height="15.1855"/><rect class="cls-26" x="779.3018" y="105.589" width="10.6027" height="15.1855"/><text class="cls-10" transform="translate(711.0049 158.4336)">RADIO</text><rect class="cls-25" x="764.1382" y="145.3828" width="16.0342" height="15.1855"/><rect class="cls-26" x="779.3018" y="145.5021" width="10.6027" height="15.1855"/><text class="cls-10" transform="translate(707.792 185.3037)">COMM</text><rect class="cls-25" x="764.1382" y="171.9916" width="16.0342" height="15.1855"/><rect class="cls-26" x="779.3018" y="172.1109" width="10.6027" height="15.1855"/><text class="cls-10" transform="translate(712.5127 213.2158)">MODE</text><rect class="cls-25" x="764.1382" y="198.6003" width="16.0342" height="15.1855"/><rect class="cls-26" x="779.3018" y="198.7197" width="10.6027" height="15.1855"/><text class="cls-10" transform="translate(728.9502 253.7617)">RSL</text><rect class="cls-25" x="764.1382" y="239.1461" width="16.0342" height="15.1855"/><rect class="cls-26" x="779.3018" y="239.2655" width="10.6027" height="15.1855"/><rect class="cls-27" x="608.2615" y="705.7485" width="108.8485" height="50.9946" rx="9.8548"/><rect class="cls-28" x="622.5281" y="717.5942" width="27.1208" height="27.3032" rx="13.5604"/><rect class="cls-28" x="675.7226" y="717.5942" width="27.1208" height="27.3032" rx="13.5604"/><rect class="cls-3" x="715.9712" y="271.9896" width="46.329" height="413.1708"/><path class="cls-5" d="M741.6147,294.5594a2.7242,2.7242,0,1,1-2.7242-2.7239,2.7231,2.7231,0,0,1,2.7242,2.7239"/><path class="cls-5" d="M729.4233,294.5594a2.7242,2.7242,0,1,1-2.7222-2.7239,2.7213,2.7213,0,0,1,2.7222,2.7239"/><path class="cls-5" d="M754.2963,294.5594a2.723,2.723,0,1,1-2.7222-2.7239,2.7212,2.7212,0,0,1,2.7222,2.7239"/><path class="cls-5" d="M741.6147,335.7911a2.7242,2.7242,0,1,1-2.7242-2.7236,2.7231,2.7231,0,0,1,2.7242,2.7236"/><path class="cls-5" d="M729.4233,335.7911a2.7242,2.7242,0,1,1-2.7222-2.7236,2.7213,2.7213,0,0,1,2.7222,2.7236"/><path class="cls-5" d="M754.2963,335.7911a2.723,2.723,0,1,1-2.7222-2.7236,2.7212,2.7212,0,0,1,2.7222,2.7236"/><path class="cls-5" d="M741.6147,377.0229a2.7242,2.7242,0,1,1-2.7242-2.7235,2.7231,2.7231,0,0,1,2.7242,2.7235"/><path class="cls-5" d="M729.4233,377.0229a2.7242,2.7242,0,1,1-2.7222-2.7235,2.7213,2.7213,0,0,1,2.7222,2.7235"/><path class="cls-5" d="M754.2963,377.0229a2.723,2.723,0,1,1-2.7222-2.7235,2.7212,2.7212,0,0,1,2.7222,2.7235"/><path class="cls-5" d="M741.6147,418.2546a2.7242,2.7242,0,1,1-2.7242-2.7232,2.7232,2.7232,0,0,1,2.7242,2.7232"/><path class="cls-5" d="M729.4233,418.2546a2.7242,2.7242,0,1,1-2.7222-2.7232,2.7213,2.7213,0,0,1,2.7222,2.7232"/><path class="cls-5" d="M754.2963,418.2546a2.723,2.723,0,1,1-2.7222-2.7232,2.7213,2.7213,0,0,1,2.7222,2.7232"/><path class="cls-5" d="M741.6147,459.4864a2.7242,2.7242,0,1,1-2.7242-2.723,2.7231,2.7231,0,0,1,2.7242,2.723"/><path class="cls-5" d="M729.4233,459.4864a2.7242,2.7242,0,1,1-2.7222-2.723,2.7213,2.7213,0,0,1,2.7222,2.723"/><path class="cls-5" d="M754.2963,459.4864a2.723,2.723,0,1,1-2.7222-2.723,2.7212,2.7212,0,0,1,2.7222,2.723"/><path class="cls-5" d="M741.6147,500.7182a2.7242,2.7242,0,1,1-2.7242-2.7228,2.7232,2.7232,0,0,1,2.7242,2.7228"/><path class="cls-5" d="M729.4233,500.7182a2.7242,2.7242,0,1,1-2.7222-2.7228,2.7213,2.7213,0,0,1,2.7222,2.7228"/><path class="cls-5" d="M754.2963,500.7182a2.723,2.723,0,1,1-2.7222-2.7228,2.7213,2.7213,0,0,1,2.7222,2.7228"/><path class="cls-5" d="M741.6147,541.95a2.7242,2.7242,0,1,1-2.7242-2.7226,2.7231,2.7231,0,0,1,2.7242,2.7226"/><path class="cls-5" d="M729.4233,541.95a2.7242,2.7242,0,1,1-2.7222-2.7226,2.7213,2.7213,0,0,1,2.7222,2.7226"/><path class="cls-5" d="M754.2963,541.95a2.723,2.723,0,1,1-2.7222-2.7226,2.7212,2.7212,0,0,1,2.7222,2.7226"/><path class="cls-5" d="M741.6147,583.1817a2.7242,2.7242,0,1,1-2.7242-2.7224,2.7231,2.7231,0,0,1,2.7242,2.7224"/><path class="cls-5" d="M729.4233,583.1817a2.7242,2.7242,0,1,1-2.7222-2.7224,2.7212,2.7212,0,0,1,2.7222,2.7224"/><path class="cls-5" d="M754.2963,583.1817a2.723,2.723,0,1,1-2.7222-2.7224,2.7212,2.7212,0,0,1,2.7222,2.7224"/><path class="cls-5" d="M741.6147,624.4134a2.7242,2.7242,0,1,1-2.7242-2.7221,2.7231,2.7231,0,0,1,2.7242,2.7221"/><path class="cls-5" d="M729.4233,624.4134a2.7242,2.7242,0,1,1-2.7222-2.7221,2.7213,2.7213,0,0,1,2.7222,2.7221"/><path class="cls-5" d="M754.2963,624.4134a2.723,2.723,0,1,1-2.7222-2.7221,2.7212,2.7212,0,0,1,2.7222,2.7221"/><path class="cls-5" d="M741.6147,665.6452a2.7242,2.7242,0,1,1-2.7242-2.7219,2.7231,2.7231,0,0,1,2.7242,2.7219"/><path class="cls-5" d="M729.4233,665.6452a2.7242,2.7242,0,1,1-2.7222-2.7219,2.7212,2.7212,0,0,1,2.7222,2.7219"/><path class="cls-5" d="M754.2963,665.6452a2.723,2.723,0,1,1-2.7222-2.7219,2.7212,2.7212,0,0,1,2.7222,2.7219"/><text class="cls-29" transform="translate(79.4346 51.999)">7-16V </text><line class="cls-30" x1="110.5535" y1="50.6227" x2="113.9345" y2="50.6227"/><line class="cls-30" x1="115.7935" y1="50.6227" x2="119.1705" y2="50.6227"/><line class="cls-30" x1="121.0377" y1="50.6227" x2="124.4187" y2="50.6227"/><line class="cls-30" x1="110.5535" y1="47.2294" x2="124.4187" y2="47.2294"/><text class="cls-29" transform="translate(76.1953 64.0244)">45 W MAX</text><line class="cls-31" x1="136.3019" y1="180.5597" x2="136.3019" y2="205.0107"/><line class="cls-31" x1="150.0008" y1="155.1631" x2="150.0008" y2="178.1547"/><line class="cls-31" x1="163.6915" y1="178.7163" x2="163.6915" y2="201.7269"/><line class="cls-31" x1="177.3822" y1="154.9236" x2="177.3822" y2="177.9141"/><line class="cls-31" x1="131.7523" y1="207.1537" x2="140.8564" y2="207.1537"/><line class="cls-31" x1="129.5361" y1="205.0066" x2="143.0685" y2="205.0066"/><rect class="cls-32" x="134.5931" y="176.7809" width="3.423" height="3.4251"/><rect class="cls-12" x="148.2838" y="176.7809" width="3.4266" height="3.4251"/><rect class="cls-12" x="161.9792" y="176.7776" width="3.4251" height="3.425"/><rect class="cls-12" x="175.6774" y="176.7809" width="3.421" height="3.4251"/><polygon class="cls-31" points="129.901 161.373 129.901 195.606 183.775 195.598 183.775 161.373 129.901 161.373"/><text class="cls-33" transform="translate(153.8379 210.6367) scale(1 1.0622)">SCL</text><text class="cls-34" transform="translate(138.3965 150.9932) scale(1 1.0115)">3.3V S<tspan class="cls-35" x="32.7725" y="0">D</tspan><tspan x="40.2158" y="0">A</tspan></text><line class="cls-31" x1="133.7655" y1="209.3049" x2="138.8391" y2="209.3049"/><line class="cls-31" x1="149.3067" y1="241.9791" x2="149.3067" y2="266.3124"/><line class="cls-31" x1="163.0015" y1="242.3524" x2="163.0015" y2="273.9389"/><line class="cls-31" x1="176.6922" y1="242.3526" x2="176.6922" y2="262.7892"/><line class="cls-31" x1="146.7698" y1="270.6106" x2="151.8435" y2="270.6106"/><line class="cls-31" x1="144.7566" y1="268.4594" x2="153.8607" y2="268.4594"/><line class="cls-31" x1="142.5404" y1="266.3122" x2="156.0728" y2="266.3122"/><rect class="cls-32" x="174.984" y="238.5545" width="3.4251" height="3.4246"/><rect class="cls-32" x="147.597" y="238.5545" width="3.4226" height="3.4246"/><rect class="cls-32" x="161.2933" y="238.5545" width="3.421" height="3.4246"/><rect class="cls-31" x="142.4634" y="222.7444" width="41.0802" height="34.2324"/><text class="cls-34" transform="translate(166.2061 273.3525) scale(1 1.0115)">TXD</text><text class="cls-34" transform="translate(151.4512 284.3291) scale(1 1.0115)">RXD</text><line class="cls-31" x1="30.5226" y1="700.5166" x2="30.5226" y2="711.4149"/><line class="cls-31" x1="44.2255" y1="700.4435" x2="44.542" y2="718.8548"/><line class="cls-31" x1="57.9162" y1="700.5166" x2="57.9162" y2="708.3625"/><line class="cls-31" x1="27.9858" y1="715.7172" x2="33.0595" y2="715.7172"/><line class="cls-31" x1="25.9726" y1="713.5619" x2="35.0767" y2="713.5619"/><line class="cls-31" x1="23.7564" y1="711.4187" x2="37.2888" y2="711.4187"/><text class="cls-36" transform="translate(38.1045 729.0088) scale(1 1.0056)">5V</text><text class="cls-36" transform="translate(54.4893 717.6934) scale(1 1.0056)">S</text><rect class="cls-37" x="56.3674" y="696.9811" width="3.1791" height="3.4581"/><rect class="cls-37" x="42.7942" y="697.2371" width="3.1791" height="3.4581"/><rect class="cls-37" x="29.0369" y="697.1921" width="3.1791" height="3.4581"/><line class="cls-31" x1="75.1248" y1="758.6025" x2="80.1985" y2="758.6025"/><line class="cls-31" x1="73.1116" y1="756.4431" x2="82.2157" y2="756.4431"/><line class="cls-31" x1="70.8994" y1="754.3" x2="84.4318" y2="754.3"/><line class="cls-31" x1="77.6657" y1="745.9184" x2="90.2036" y2="745.9184"/><line class="cls-31" x1="90.1388" y1="732.1709" x2="82.1346" y2="732.1709"/><line class="cls-31" x1="77.6616" y1="745.5727" x2="77.6616" y2="754.3"/><line class="cls-31" x1="77.6657" y1="752.9241" x2="77.6657" y2="746.2676"/><text class="cls-36" transform="translate(73.9893 735.9316) scale(1 1.0056)">S</text><rect class="cls-37" x="90.2081" y="730.3666" width="3.1791" height="3.4581"/><rect class="cls-37" x="90.0265" y="744.2282" width="3.1791" height="3.4581"/><line class="cls-31" x1="197.9555" y1="758.5984" x2="203.0291" y2="758.5984"/><line class="cls-38" x1="195.9423" y1="756.4431" x2="205.0463" y2="756.4431"/><line class="cls-31" x1="193.7301" y1="754.2959" x2="207.2625" y2="754.2959"/><line class="cls-31" x1="213.075" y1="732.1709" x2="204.9652" y2="732.1709"/><line class="cls-31" x1="213.075" y1="718.4477" x2="204.9652" y2="718.4477"/><polyline class="cls-31" points="200.496 754.296 200.496 745.72 213.075 745.72"/><text class="cls-39" transform="translate(180.3359 720.9297) scale(1 1.0605)">FWD</text><text class="cls-40" transform="translate(184.4111 734.8623) scale(1 1.1297)">REV</text><rect class="cls-37" x="213.189" y="716.6248" width="3.1791" height="3.4581"/><rect class="cls-37" x="212.8669" y="730.3384" width="3.1791" height="3.4581"/><rect class="cls-37" x="212.8382" y="744.0851" width="3.1791" height="3.4581"/><line class="cls-41" x1="585.7071" y1="758.7526" x2="590.7808" y2="758.7526"/><line class="cls-41" x1="583.698" y1="756.6014" x2="592.8021" y2="756.6014"/><line class="cls-41" x1="581.4818" y1="754.4542" x2="595.0141" y2="754.4542"/><line class="cls-41" x1="583.8401" y1="731.9719" x2="575.8155" y2="731.9719"/><line class="cls-41" x1="583.836" y1="718.407" x2="575.8114" y2="718.407"/><polyline class="cls-41" points="588.248 754.454 588.248 745.931 575.815 745.931"/><text class="cls-39" transform="translate(584.7158 721.2754) scale(1 1.0605)">S</text><text class="cls-40" transform="translate(585.3721 735.4482) scale(1 1.1297)">5V</text><rect class="cls-37" x="572.3999" y="716.58" width="3.1791" height="3.4581"/><rect class="cls-37" x="572.6081" y="730.1079" width="3.1791" height="3.4581"/><rect class="cls-37" x="572.5612" y="744.0521" width="3.1791" height="3.4581"/><line class="cls-31" x1="749.4193" y1="711.1278" x2="754.4929" y2="711.1278"/><line class="cls-31" x1="747.4101" y1="708.9807" x2="756.5101" y2="708.9807"/><line class="cls-31" x1="745.198" y1="706.8335" x2="758.7303" y2="706.8335"/><line class="cls-31" x1="724.5619" y1="695.8583" x2="724.5619" y2="703.7692"/><line class="cls-31" x1="738.2566" y1="695.9191" x2="738.2566" y2="714.0585"/><line class="cls-31" x1="751.9473" y1="695.8583" x2="751.9473" y2="707.203"/><text class="cls-36" transform="translate(721.252 713.1113) scale(1 1.0056)">S</text><text class="cls-36" transform="translate(732.0703 724.1191) scale(1 1.0056)">6V</text><rect class="cls-37" x="722.8621" y="692.588" width="3.1791" height="3.4581"/><rect class="cls-37" x="736.6601" y="692.588" width="3.1791" height="3.4581"/><rect class="cls-37" x="750.3014" y="692.588" width="3.1791" height="3.4581"/><path class="cls-42" d="M606.4441,648.22a6.8484,6.8484,0,0,0,6.8555-6.8392"/><path class="cls-42" d="M606.4441,634.53a6.8528,6.8528,0,0,0-6.8393,6.8515"/><text class="cls-43" transform="translate(567 661.4248) scale(1 1.0349)">A<tspan class="cls-44" x="6.918" y="0">CCELEROMETER</tspan></text><text class="cls-45" transform="translate(602.125 608.2578) scale(1 1.0349)">Y</text><text class="cls-45" transform="translate(589.5762 635.8535) scale(1 1.0349)">Z</text><text class="cls-45" transform="translate(634.9219 645.3359) scale(1 1.0349)">X</text><line class="cls-46" x1="630.4607" y1="641.722" x2="606.4481" y2="641.722"/><line class="cls-46" x1="606.4441" y1="641.722" x2="606.4441" y2="614.6167"/><path class="cls-31" d="M606.4441,648.22a6.8453,6.8453,0,1,0-6.8393-6.8392A6.8484,6.8484,0,0,0,606.4441,648.22Z"/><polyline class="cls-12" points="634.085 641.722 629.361 639.9 630.481 641.722 629.361 643.541"/><polyline class="cls-47" points="634.085 641.722 629.361 639.9 630.481 641.722 629.361 643.541"/><polyline class="cls-12" points="606.444 611.114 604.646 615.847 606.444 614.377 608.254 615.847 606.444 611.114"/><polyline class="cls-47" points="606.444 611.114 604.646 615.847 606.444 614.377 608.254 615.847 606.444 611.114"/><line class="cls-48" x1="629.3607" y1="643.5404" x2="634.0852" y2="641.722"/><line class="cls-47" x1="629.3607" y1="643.5404" x2="634.0852" y2="641.722"/><path class="cls-12" d="M606.4481,642.9275a1.5464,1.5464,0,1,0-1.5424-1.5463,1.5521,1.5521,0,0,0,1.5424,1.5463"/><path class="cls-31" d="M606.4481,642.9275a1.5464,1.5464,0,1,0-1.5424-1.5463A1.5521,1.5521,0,0,0,606.4481,642.9275Z"/><line class="cls-42" x1="611.1543" y1="269.7707" x2="652.2344" y2="269.7707"/><line class="cls-31" x1="602.4237" y1="245.7987" x2="626.1115" y2="245.7987"/><line class="cls-31" x1="602.4237" y1="232.104" x2="626.1115" y2="232.104"/><line class="cls-31" x1="602.424" y1="218.4134" x2="626.1117" y2="218.4134"/><line class="cls-31" x1="611.1584" y1="167.0681" x2="611.1584" y2="269.7707"/><line class="cls-31" x1="602.4237" y1="204.7226" x2="626.1115" y2="204.7226"/><line class="cls-31" x1="602.4237" y1="191.0361" x2="626.1115" y2="191.0361"/><line class="cls-31" x1="652.2387" y1="269.7823" x2="652.2387" y2="167.0798"/><line class="cls-42" x1="652.2386" y1="167.064" x2="611.1584" y2="167.064"/><line class="cls-49" x1="636.831" y1="245.8069" x2="660.5228" y2="245.8069"/><line class="cls-49" x1="602.4237" y1="245.7987" x2="626.1115" y2="245.7987"/><line class="cls-49" x1="602.4196" y1="232.1081" x2="626.1074" y2="232.1081"/><line class="cls-49" x1="636.8269" y1="232.1081" x2="660.5187" y2="232.1081"/><line class="cls-49" x1="602.4196" y1="218.4173" x2="626.1074" y2="218.4173"/><line class="cls-49" x1="636.8269" y1="218.4173" x2="660.5187" y2="218.4173"/><line class="cls-49" x1="591.5255" y1="182.1956" x2="591.5255" y2="191.1008"/><line class="cls-49" x1="602.4196" y1="204.7226" x2="626.1074" y2="204.7226"/><line class="cls-49" x1="636.8269" y1="204.7226" x2="660.5187" y2="204.7226"/><line class="cls-49" x1="588.9846" y1="195.4033" x2="594.0622" y2="195.4033"/><line class="cls-49" x1="586.9796" y1="193.2521" x2="596.0796" y2="193.2521"/><line class="cls-49" x1="584.7633" y1="191.1049" x2="598.2916" y2="191.1049"/><line class="cls-49" x1="602.4196" y1="191.0279" x2="626.1074" y2="191.0279"/><line class="cls-49" x1="636.8269" y1="191.0279" x2="660.5187" y2="191.0279"/><rect class="cls-49" x="611.1584" y="167.0682" width="41.0802" height="102.7025"/><text class="cls-34" transform="translate(662.6309 193.958) scale(1 1.0115)">CS0</text><text class="cls-34" transform="translate(662.625 207.6348) scale(1 1.0115)">CS1</text><text class="cls-34" transform="translate(662.6172 221.5771) scale(1 1.0115)">5V</text><text class="cls-34" transform="translate(662.6094 235.3311) scale(1 1.0115)">CS2</text><text class="cls-34" transform="translate(662.8018 249.0361) scale(1 1.0115)">CS3</text><text class="cls-34" transform="translate(570.6357 208.5596) scale(1 1.0115)">SCLK</text><text class="cls-34" transform="translate(569.3418 222.2568) scale(1 1.0115)">MOSI</text><text class="cls-34" transform="translate(569.334 236.0107) scale(1 1.0115)">MISO</text><text class="cls-34" transform="translate(576.4629 250.2021) scale(1 1.0115)">3.3V</text><rect class="cls-37" x="624.483" y="189.0117" width="3.1791" height="3.4581"/><rect class="cls-37" x="624.483" y="202.6982" width="3.1791" height="3.4581"/><rect class="cls-37" x="624.4833" y="216.389" width="3.1791" height="3.4581"/><rect class="cls-37" x="624.483" y="230.0796" width="3.1791" height="3.4581"/><rect class="cls-37" x="624.483" y="243.7744" width="3.1791" height="3.4581"/><rect class="cls-37" x="635.2026" y="243.7825" width="3.1791" height="3.4581"/><rect class="cls-37" x="635.1985" y="230.0837" width="3.1791" height="3.4581"/><rect class="cls-37" x="635.1985" y="216.3929" width="3.1791" height="3.4581"/><rect class="cls-37" x="635.1985" y="202.6982" width="3.1791" height="3.4581"/><rect class="cls-37" x="635.1985" y="189.0035" width="3.1791" height="3.4581"/><text class="cls-10" transform="translate(618.0439 156.7178)">SPI</text></g><g id="Shader"><g class="cls-50"><path class="cls-48" d="M53.0859,781.6182A50.1431,50.1431,0,0,1,3,731.5322V53.0859A50.1431,50.1431,0,0,1,53.0859,3H743.1943A50.1431,50.1431,0,0,1,793.28,53.0859V731.5322a50.1431,50.1431,0,0,1-50.086,50.086ZM254.5264,509.7168a11.4134,11.4134,0,0,0-11.4,11.4v51.5947a11.4134,11.4134,0,0,0,11.4,11.4H543.1016a11.4132,11.4132,0,0,0,11.3994-11.4V521.1172a11.4132,11.4132,0,0,0-11.3994-11.4Z"/></g><path class="cls-51" d="M743.1941,6A47.0871,47.0871,0,0,1,790.28,53.0859V731.532a47.0857,47.0857,0,0,1-47.0859,47.0859H53.0859A47.0858,47.0858,0,0,1,6,731.532V53.0859A47.0872,47.0872,0,0,1,53.0859,6H743.1941M254.5261,587.1122h288.575a14.4,14.4,0,0,0,14.4-14.4V521.1167a14.4,14.4,0,0,0-14.4-14.4H254.5261a14.4,14.4,0,0,0-14.4,14.4v51.5955a14.4,14.4,0,0,0,14.4,14.4M743.1941,0H53.0859A53.1461,53.1461,0,0,0,0,53.0859V731.532a53.1461,53.1461,0,0,0,53.086,53.0859H743.1941A53.146,53.146,0,0,0,796.28,731.532V53.0859A53.146,53.146,0,0,0,743.1941,0ZM254.5261,581.1122a8.41,8.41,0,0,1-8.4-8.4V521.1167a8.41,8.41,0,0,1,8.4-8.4h288.575a8.41,8.41,0,0,1,8.4,8.4v51.5955a8.41,8.41,0,0,1-8.4,8.4Z"/></g><g id="Edge_Fix_TOP_" data-name="Edge Fix (TOP)"><path class="cls-12" d="M-.4346-.7755v787.72H797.5832V-.7755Zm749.7467,778.817-698.0228.5138c-25.7843-2.0646-41.7151-20.1637-44.8769-45.14L7.1764,47.75C9.206,26.65,27.3408,8.3826,48.1648,6.1488l700.17.1456c21.0428,2.4863,38.8976,20.0071,41.9895,40.9878L790.4,731.3836C790.4256,756.6176,774.24,773.7848,749.3121,778.0415Z"/></g></svg>