<svg xmlns="http://www.w3.org/2000/svg" viewBox="0 0 800 785"><defs><style>.cls-1{fill:#434343;}.cls-2{fill:#4f4e51;}.cls-3{fill:#323031;}.cls-4{fill:#424242;}.cls-5{fill:#6a5f27;}.cls-6{fill:#5a5a5d;}.cls-7{fill:#f2f2f2;}.cls-8{fill:#221f1f;}.cls-13,.cls-30,.cls-31,.cls-41,.cls-42,.cls-46,.cls-47,.cls-49,.cls-9{fill:none;}.cls-9{stroke:#5a5a5d;stroke-width:5.416px;}.cls-13,.cls-9{stroke-miterlimit:10;}.cls-10{font-size:16.248px;}.cls-10,.cls-11,.cls-12,.cls-17,.cls-22,.cls-29,.cls-32,.cls-33,.cls-34,.cls-36,.cls-37,.cls-38,.cls-39,.cls-40,.cls-43,.cls-45{fill:#fff;}.cls-10,.cls-11,.cls-17,.cls-22,.cls-29,.cls-33,.cls-34,.cls-36,.cls-39,.cls-40,.cls-43,.cls-45{font-family:Heebo-Light, Heebo;font-weight:300;}.cls-11{font-size:10.832px;}.cls-13,.cls-31,.cls-32,.cls-37,.cls-38,.cls-46,.cls-47,.cls-49{stroke:#fff;}.cls-13{stroke-width:2.708px;}.cls-14{letter-spacing:0.009em;}.cls-15{letter-spacing:-0.058em;}.cls-16{letter-spacing:-0.031em;}.cls-17{font-size:11.7401px;}.cls-18{fill:#9b9b9b;}.cls-19{fill:#171717;}.cls-20{fill:#f3ea07;}.cls-21{fill:#7cc244;}.cls-22{font-size:32.496px;}.cls-23{letter-spacing:-0.013em;}.cls-24{letter-spacing:0em;}.cls-25{fill:#51545a;}.cls-26{fill:#3c3d42;}.cls-27{fill:#5a5d65;}.cls-28{fill:#23446c;}.cls-29{font-size:11.1981px;}.cls-30,.cls-41{stroke:#f1f2f2;}.cls-30,.cls-31,.cls-32,.cls-38,.cls-41,.cls-42,.cls-46{stroke-miterlimit:2;}.cls-31,.cls-32,.cls-37,.cls-38,.cls-41,.cls-42,.cls-49{stroke-width:0.686px;}.cls-32,.cls-37,.cls-47{stroke-linecap:round;}.cls-33{font-size:10.9221px;}.cls-34{font-size:11.699px;}.cls-35{letter-spacing:-0.019em;}.cls-36{font-size:10.9278px;}.cls-37,.cls-47,.cls-49{stroke-linejoin:round;}.cls-39{font-size:9.9074px;}.cls-40{font-size:9.6078px;}.cls-42{stroke:#020202;}.cls-43,.cls-45{font-size:11.4352px;}.cls-43{letter-spacing:-0.0201em;}.cls-44{letter-spacing:0.0001em;}.cls-46{stroke-width:0.588px;}.cls-47{stroke-width:0.506px;}.cls-48{fill:#231f20;}.cls-50{opacity:0.33;}.cls-51{fill:#00aeef;}</style></defs><g id="roboRIO"><path class="cls-1" d="M745.94,776.7136l-699.2185.9311a41.8157,41.8157,0,0,1-41.76-41.8712V44.8409A41.8157,41.8157,0,0,1,46.7211,2.97l704.5444-.9311a41.8157,41.8157,0,0,1,41.76,41.8712V729.5023c2.3994,27.8894-12.3474,47.6874-38.9832,47.21"/><rect class="cls-2" x="17.3556" y="17.6245" width="763.4358" height="747.9174" rx="29.4466"/><rect class="cls-3" x="23.7562" y="278.8354" width="46.329" height="413.1708"/><path class="cls-4" d="M552.7552,136.0791H240.4012a19.4985,19.4985,0,0,1-19.498-19.4978V36.0551a19.4986,19.4986,0,0,1,19.498-19.498h312.354a19.4985,19.4985,0,0,1,19.4978,19.498v80.5262a19.4985,19.4985,0,0,1-19.4978,19.4978"/><rect class="cls-3" x="255.4173" y="521.2583" width="279.7219" height="51.5601"/><path class="cls-5" d="M49.4,301.4052a2.7242,2.7242,0,1,1-2.7241-2.7238A2.723,2.723,0,0,1,49.4,301.4052"/><path class="cls-5" d="M37.2083,301.4052a2.7242,2.7242,0,1,1-2.7222-2.7238,2.7212,2.7212,0,0,1,2.7222,2.7238"/><path class="cls-5" d="M62.0813,301.4052a2.723,2.723,0,1,1-2.7221-2.7238,2.7212,2.7212,0,0,1,2.7221,2.7238"/><path class="cls-5" d="M49.4,342.637a2.7242,2.7242,0,1,1-2.7241-2.7237A2.7231,2.7231,0,0,1,49.4,342.637"/><path class="cls-5" d="M37.2083,342.637a2.7242,2.7242,0,1,1-2.7222-2.7237,2.7213,2.7213,0,0,1,2.7222,2.7237"/><path class="cls-5" d="M62.0813,342.637a2.723,2.723,0,1,1-2.7221-2.7237,2.7213,2.7213,0,0,1,2.7221,2.7237"/><path class="cls-5" d="M49.4,383.8688a2.7242,2.7242,0,1,1-2.7241-2.7235A2.723,2.723,0,0,1,49.4,383.8688"/><path class="cls-5" d="M37.2083,383.8688a2.7242,2.7242,0,1,1-2.7222-2.7235,2.7212,2.7212,0,0,1,2.7222,2.7235"/><path class="cls-5" d="M62.0813,383.8688a2.723,2.723,0,1,1-2.7221-2.7235,2.7212,2.7212,0,0,1,2.7221,2.7235"/><path class="cls-5" d="M49.4,425.1005a2.7242,2.7242,0,1,1-2.7241-2.7232A2.723,2.723,0,0,1,49.4,425.1005"/><path class="cls-5" d="M37.2083,425.1005a2.7242,2.7242,0,1,1-2.7222-2.7232,2.7212,2.7212,0,0,1,2.7222,2.7232"/><path class="cls-5" d="M62.0813,425.1005a2.723,2.723,0,1,1-2.7221-2.7232,2.7212,2.7212,0,0,1,2.7221,2.7232"/><path class="cls-5" d="M49.4,466.3323a2.7242,2.7242,0,1,1-2.7241-2.723,2.723,2.723,0,0,1,2.7241,2.723"/><path class="cls-5" d="M37.2083,466.3323a2.7242,2.7242,0,1,1-2.7222-2.723,2.7212,2.7212,0,0,1,2.7222,2.723"/><path class="cls-5" d="M62.0813,466.3323a2.723,2.723,0,1,1-2.7221-2.723,2.7212,2.7212,0,0,1,2.7221,2.723"/><path class="cls-5" d="M49.4,507.564a2.7242,2.7242,0,1,1-2.7241-2.7228A2.723,2.723,0,0,1,49.4,507.564"/><path class="cls-5" d="M37.2083,507.564a2.7242,2.7242,0,1,1-2.7222-2.7228,2.7212,2.7212,0,0,1,2.7222,2.7228"/><path class="cls-5" d="M62.0813,507.564a2.723,2.723,0,1,1-2.7221-2.7228,2.7212,2.7212,0,0,1,2.7221,2.7228"/><path class="cls-5" d="M49.4,548.7958a2.7242,2.7242,0,1,1-2.7241-2.7226A2.723,2.723,0,0,1,49.4,548.7958"/><path class="cls-5" d="M37.2083,548.7958a2.7242,2.7242,0,1,1-2.7222-2.7226,2.7212,2.7212,0,0,1,2.7222,2.7226"/><path class="cls-5" d="M62.0813,548.7958a2.723,2.723,0,1,1-2.7221-2.7226,2.7212,2.7212,0,0,1,2.7221,2.7226"/><path class="cls-5" d="M49.4,590.0275a2.7242,2.7242,0,1,1-2.7241-2.7223A2.723,2.723,0,0,1,49.4,590.0275"/><path class="cls-5" d="M37.2083,590.0275a2.7242,2.7242,0,1,1-2.7222-2.7223,2.7212,2.7212,0,0,1,2.7222,2.7223"/><path class="cls-5" d="M62.0813,590.0275a2.723,2.723,0,1,1-2.7221-2.7223,2.7212,2.7212,0,0,1,2.7221,2.7223"/><path class="cls-5" d="M49.4,631.2593a2.7242,2.7242,0,1,1-2.7241-2.7221A2.7231,2.7231,0,0,1,49.4,631.2593"/><path class="cls-5" d="M37.2083,631.2593a2.7242,2.7242,0,1,1-2.7222-2.7221,2.7213,2.7213,0,0,1,2.7222,2.7221"/><path class="cls-5" d="M62.0813,631.2593a2.723,2.723,0,1,1-2.7221-2.7221,2.7212,2.7212,0,0,1,2.7221,2.7221"/><path class="cls-5" d="M49.4,672.4911a2.7242,2.7242,0,1,1-2.7241-2.722,2.723,2.723,0,0,1,2.7241,2.722"/><path class="cls-5" d="M37.2083,672.4911a2.7242,2.7242,0,1,1-2.7222-2.722,2.7212,2.7212,0,0,1,2.7222,2.722"/><path class="cls-5" d="M62.0813,672.4911a2.723,2.723,0,1,1-2.7221-2.722,2.7212,2.7212,0,0,1,2.7221,2.722"/><rect class="cls-3" x="25.1312" y="223.8423" width="45.05" height="36.188"/><path class="cls-5" d="M50.38,241.9365a2.7241,2.7241,0,1,1-2.7241-2.7219,2.7231,2.7231,0,0,1,2.7241,2.7219"/><path class="cls-5" d="M38.1888,241.9365a2.7241,2.7241,0,1,1-2.7222-2.7219,2.7213,2.7213,0,0,1,2.7222,2.7219"/><path class="cls-5" d="M63.0619,241.9365a2.7231,2.7231,0,1,1-2.7222-2.7219,2.7213,2.7213,0,0,1,2.7222,2.7219"/><rect class="cls-3" x="25.1312" y="160.4363" width="60.6521" height="39.05"/><path class="cls-5" d="M51.6517,179.96a2.7241,2.7241,0,1,1-2.7241-2.7219,2.7247,2.7247,0,0,1,2.7241,2.7219"/><path class="cls-5" d="M39.46,179.96a2.7241,2.7241,0,1,1-2.7222-2.7219A2.7229,2.7229,0,0,1,39.46,179.96"/><path class="cls-5" d="M64.3333,179.96a2.723,2.723,0,1,1-2.7221-2.7219,2.7229,2.7229,0,0,1,2.7221,2.7219"/><path class="cls-5" d="M76.9,179.96a2.7242,2.7242,0,1,1-2.7222-2.7219A2.723,2.723,0,0,1,76.9,179.96"/><rect class="cls-3" x="228.3566" y="708.6146" width="158.48" height="45.05"/><path class="cls-5" d="M246.4526,728.4164a2.7231,2.7231,0,1,1-2.7241,2.7221,2.7212,2.7212,0,0,1,2.7241-2.7221"/><path class="cls-5" d="M246.4526,740.6059a2.7241,2.7241,0,1,1-2.7241,2.7241,2.7216,2.7216,0,0,1,2.7241-2.7241"/><path class="cls-5" d="M246.4526,715.7329a2.7241,2.7241,0,1,1-2.7241,2.722,2.7211,2.7211,0,0,1,2.7241-2.722"/><rect class="cls-3" x="268.8085" y="708.6146" width="36.188" height="45.05"/><path class="cls-5" d="M286.9037,728.4164a2.7231,2.7231,0,1,1-2.7221,2.7221,2.7228,2.7228,0,0,1,2.7221-2.7221"/><path class="cls-5" d="M286.9037,740.6059a2.7241,2.7241,0,1,1-2.7221,2.7241,2.7232,2.7232,0,0,1,2.7221-2.7241"/><path class="cls-5" d="M286.9037,715.7329a2.7241,2.7241,0,1,1-2.7221,2.722,2.7228,2.7228,0,0,1,2.7221-2.722"/><rect class="cls-3" x="350.6486" y="708.6146" width="36.188" height="45.05"/><path class="cls-5" d="M368.7436,728.4164a2.7231,2.7231,0,1,1-2.7222,2.7221,2.7229,2.7229,0,0,1,2.7222-2.7221"/><path class="cls-5" d="M368.7436,740.6059a2.7241,2.7241,0,1,1-2.7222,2.7241,2.7233,2.7233,0,0,1,2.7222-2.7241"/><path class="cls-5" d="M368.7436,715.7329a2.7241,2.7241,0,1,1-2.7222,2.722,2.7228,2.7228,0,0,1,2.7222-2.722"/><rect class="cls-3" x="309.7526" y="708.6146" width="36.188" height="45.05"/><path class="cls-5" d="M327.8471,728.4164a2.7231,2.7231,0,1,1-2.7222,2.7221,2.7212,2.7212,0,0,1,2.7222-2.7221"/><path class="cls-5" d="M327.8471,740.6059a2.7241,2.7241,0,1,1-2.7222,2.7241,2.7216,2.7216,0,0,1,2.7222-2.7241"/><path class="cls-5" d="M327.8471,715.7329a2.7241,2.7241,0,1,1-2.7222,2.722,2.7211,2.7211,0,0,1,2.7222-2.722"/><rect class="cls-3" x="404.8853" y="708.5066" width="158.48" height="45.05"/><path class="cls-5" d="M422.9783,728.3084a2.7231,2.7231,0,1,1-2.7221,2.7221,2.7216,2.7216,0,0,1,2.7221-2.7221"/><path class="cls-5" d="M422.9783,740.4979a2.7241,2.7241,0,1,1-2.7221,2.7241,2.722,2.722,0,0,1,2.7221-2.7241"/><path class="cls-5" d="M422.9783,715.6249a2.7241,2.7241,0,1,1-2.7221,2.722,2.7215,2.7215,0,0,1,2.7221-2.722"/><rect class="cls-3" x="445.3372" y="708.5066" width="36.188" height="45.05"/><path class="cls-5" d="M463.4315,728.3084a2.7231,2.7231,0,1,1-2.7242,2.7221,2.7212,2.7212,0,0,1,2.7242-2.7221"/><path class="cls-5" d="M463.4315,740.4979a2.7241,2.7241,0,1,1-2.7242,2.7241,2.7216,2.7216,0,0,1,2.7242-2.7241"/><path class="cls-5" d="M463.4315,715.6249a2.7241,2.7241,0,1,1-2.7242,2.722,2.7211,2.7211,0,0,1,2.7242-2.722"/><rect class="cls-3" x="527.1773" y="708.5066" width="36.188" height="45.05"/><path class="cls-5" d="M545.2713,728.3084a2.7231,2.7231,0,1,1-2.7241,2.7221,2.7212,2.7212,0,0,1,2.7241-2.7221"/><path class="cls-5" d="M545.2713,740.4979a2.7241,2.7241,0,1,1-2.7241,2.7241,2.7216,2.7216,0,0,1,2.7241-2.7241"/><path class="cls-5" d="M545.2713,715.6249a2.7241,2.7241,0,1,1-2.7241,2.722,2.7211,2.7211,0,0,1,2.7241-2.722"/><rect class="cls-3" x="486.2794" y="708.5066" width="36.1899" height="45.05"/><path class="cls-5" d="M504.3748,728.3084a2.7231,2.7231,0,1,1-2.7241,2.7221,2.7212,2.7212,0,0,1,2.7241-2.7221"/><path class="cls-5" d="M504.3748,740.4979a2.7241,2.7241,0,1,1-2.7241,2.7241,2.7216,2.7216,0,0,1,2.7241-2.7241"/><path class="cls-5" d="M504.3748,715.6249a2.7241,2.7241,0,1,1-2.7241,2.722,2.7211,2.7211,0,0,1,2.7241-2.722"/><rect class="cls-6" x="29.8954" y="86.4443" width="43.512" height="24.8181"/><rect class="cls-7" x="39.6715" y="91.0984" width="27.9199" height="14.7339"/><path class="cls-8" d="M52.6615,98.8545a9.7911,9.7911,0,1,1-9.7923-9.792,9.79,9.79,0,0,1,9.7923,9.792"/><rect class="cls-6" x="29.8954" y="111.2624" width="43.512" height="24.8159"/><rect class="cls-7" x="39.6715" y="115.9165" width="27.9199" height="14.7339"/><path class="cls-8" d="M52.6615,123.6709a9.7911,9.7911,0,1,1-9.7923-9.792,9.7923,9.7923,0,0,1,9.7923,9.792"/><polygon class="cls-3" points="143.898 24.311 143.898 58.286 136.512 58.286 136.512 98.466 143.898 98.466 143.898 123.672 179.348 123.672 179.348 98.466 194.856 98.466 194.856 56.808 181.564 56.07 180.826 24.311 143.898 24.311"/><path class="cls-8" d="M171.4134,39.4463a9.791,9.791,0,1,1-9.7922-9.792,9.7922,9.7922,0,0,1,9.7922,9.792"/><path class="cls-8" d="M171.4134,108.4326a9.791,9.791,0,1,1-9.7922-9.792,9.7908,9.7908,0,0,1,9.7922,9.792"/><rect class="cls-8" x="165.6854" y="62.6184" width="25.478" height="10.3379"/><rect class="cls-8" x="165.6854" y="81.0903" width="25.478" height="10.3401"/><path class="cls-7" d="M360.9505,619.4051h-3.0761a82.86,82.86,0,0,1-6.85-8.9439h-.042v8.9439H347.36v-15.27h3.3379c2.2041,2.706,5.4961,6.6759,6.5882,8.748h.042v-8.748h3.622v15.27"/><path class="cls-7" d="M371.619,604.1347l5.802,15.27h-4.886l-1.2-3.642h-4.7342l-1.4619,3.642h-3.5979l6.2158-15.27Zm-1.0259,9.206c-.5022-1.81-.9382-3.272-1.4841-5.454h-.044c-.5881,2.182-1.112,3.644-1.68,5.454h3.208"/><polygon class="cls-7" points="378.882 619.405 378.882 606.993 374.476 606.993 374.476 604.135 387.892 604.135 387.892 606.993 383.486 606.993 383.486 619.405 378.882 619.405"/><rect class="cls-7" x="389.3753" y="604.1363" width="4.604" height="15.27"/><path class="cls-7" d="M395.088,611.5965a7.5921,7.5921,0,1,1,15.1819,0c0,4.5581-2.9019,8.07-7.5921,8.07s-7.59-3.512-7.59-8.07m10.3821,0c0-2.7059-.8282-4.5379-2.7923-4.5379s-2.792,1.832-2.792,4.5379c0,2.8781.7422,4.8841,2.792,4.8841s2.7923-2.006,2.7923-4.8841"/><path class="cls-7" d="M424.97,619.4051h-3.0743a82.3714,82.3714,0,0,1-6.85-8.9439h-.044v8.9439H411.38v-15.27h3.3379c2.2041,2.706,5.4961,6.6759,6.5881,8.748h.0439v-8.748h3.62v15.27"/><path class="cls-7" d="M435.42,604.1347l5.802,15.27h-4.8841l-1.2019-3.642h-4.7341l-1.4619,3.642h-3.5979l6.2178-15.27Zm-1.0259,9.206c-.5-1.81-.9382-3.272-1.4822-5.454h-.0439c-.59,2.182-1.1121,3.644-1.6819,5.454h3.208"/><polygon class="cls-7" points="442.249 604.135 446.851 604.135 446.851 616.548 452.435 616.548 452.435 619.405 442.249 619.405 442.249 604.135"/><rect class="cls-7" x="340.4874" y="624.1344" width="4.604" height="15.272"/><path class="cls-7" d="M360.6419,639.4051h-3.0742a82.6592,82.6592,0,0,1-6.8518-8.9459h-.042v8.9459h-3.622V624.1332H350.39c2.2041,2.706,5.4981,6.676,6.5882,8.748h.042v-8.748h3.622v15.2719"/><path class="cls-7" d="M370.3509,627.2977a4.3438,4.3438,0,0,0-2.248-.568c-.8941,0-1.3521.4381-1.3521.94,0,.848,1.2881,1.5479,2.772,2.92,1.96,1.834,2.4419,2.99,2.4419,4.584,0,1.35-1.1118,4.494-5.6939,4.494a7.7341,7.7341,0,0,1-4.798-1.3981l1.3959-2.53a4.3224,4.3224,0,0,0,2.616,1.068c.916,0,1.92-.458,1.92-1.5919,0-1.22-1.4842-2.1161-2.6821-3.162-1.5921-1.396-2.532-2.206-2.532-4.08,0-2.4439,2.4641-4.1019,5.3459-4.1019a8.1258,8.1258,0,0,1,3.9922,1.026l-1.178,2.4"/><polygon class="cls-7" points="376.501 639.405 376.501 626.991 372.095 626.991 372.095 624.133 385.509 624.133 385.509 626.991 381.105 626.991 381.105 639.405 376.501 639.405"/><path class="cls-7" d="M386.9911,624.133h6.8078c3.5979,0,5.54,1.5721,5.54,4.08a4.58,4.58,0,0,1-2.574,4.406l3.38,6.546-4.928.5021-2.42-6.0441h-1.2019v5.782h-4.604Zm4.604,6.612h1.3078a1.8412,1.8412,0,0,0,1.8321-1.876,1.6849,1.6849,0,0,0-1.918-1.8779h-1.2219v3.7539"/><path class="cls-7" d="M405.3177,624.1338v7.986c0,2.746.4138,4.362,2.356,4.362,1.5259,0,2.4-1.528,2.4-4.428v-7.92h3.97v9.228c0,4.56-3.0979,6.306-6.5879,6.306-3.9041,0-6.742-1.6379-6.742-6.196v-9.338h4.604"/><path class="cls-7" d="M434.6146,639.4051h-4.6021v-10.69h-.0419c-1.18,3.9919-2.4,7.352-3.6241,10.69h-2.9c-1.2439-3.3379-2.4878-6.698-3.688-10.69h-.042v10.69h-3.6218V624.1332h6.2378c1.0481,2.924,2.094,5.826,3.12,9.4019h.0439c.982-3.5759,2.0061-6.4779,3.01-9.4019h6.1082v15.2719"/><polygon class="cls-7" points="445.851 626.991 441.183 626.991 441.183 630.003 445.743 630.003 445.743 632.861 441.183 632.861 441.183 636.545 446.791 636.545 446.791 639.405 436.581 639.405 436.581 624.133 445.851 624.133 445.851 626.991"/><path class="cls-7" d="M461.2083,639.4051h-3.0761a82.6273,82.6273,0,0,1-6.85-8.9459h-.042v8.9459h-3.622V624.1332h3.3378c2.2042,2.706,5.4961,6.676,6.5882,8.748h.042v-8.748h3.622v15.2719"/><polygon class="cls-7" points="466.445 639.405 466.445 626.991 462.039 626.991 462.039 624.133 475.454 624.133 475.454 626.991 471.048 626.991 471.048 639.405 466.445 639.405"/><path class="cls-7" d="M484.4623,627.2977a4.3421,4.3421,0,0,0-2.2461-.568c-.896,0-1.354.4381-1.354.94,0,.848,1.288,1.5479,2.77,2.92,1.9638,1.834,2.4438,2.99,2.4438,4.584,0,1.35-1.1118,4.494-5.6919,4.494a7.7362,7.7362,0,0,1-4.8-1.3981l1.396-2.53a4.3321,4.3321,0,0,0,2.6159,1.068c.9161,0,1.92-.458,1.92-1.5919,0-1.22-1.4822-2.1161-2.6821-3.162-1.5921-1.396-2.532-2.206-2.532-4.08,0-2.4439,2.4661-4.1019,5.3459-4.1019a8.1254,8.1254,0,0,1,3.9922,1.026l-1.1779,2.4"/><path class="cls-7" d="M486.9049,626.7625v-2.16h-.82v-.276h2.0562v.276h-.8162v2.16Zm4.4441,0h-.4241v-1.7959h-.012l-.9641,1.7959h-.2l-.896-1.7959h-.0081v1.7959h-.344v-2.4359h.4881l.9179,1.826.9939-1.826h.4483v2.4359"/><path class="cls-7" d="M323.7923,609.8993A5.8213,5.8213,0,0,1,328,605.0133c5.154-1.464,7.9121-1.194,17.154-1.27-5.54,4.9579-9.9638,12.77-8.9738,20.4139-1.99-1.63-3.334-3.96-5.062-5.822a19.2487,19.2487,0,0,0,1.6679-3.8879c.6121-2.3121,2.2781-2.8581,4.39-2.7941.1582.006-.124-1.78-.708-1.938-1.574-.426-2.906.08-4.7339-.626a2.2276,2.2276,0,0,0-1.7439.3321c-1.5.766-2.45,2.4039-4.1382,2.922Z"/><path class="cls-7" d="M295.5365,608.4032a25.09,25.09,0,0,1,9.9538-4.324c4.7161-.8619,9.826-.926,13.3479,2.47,6.6541,6.4079,12.0423,13.1339,17.8782,20.4559.23.288.21,1.0761.01,1.19a83.7191,83.7191,0,0,1-12.6721,5.9339,2.1874,2.1874,0,0,1-2.03-.448c-6.6538-6.046-11.21-13.2819-17.596-19.572a21.3219,21.3219,0,0,0-8.7239-5.186c-.2641-.0819-.312-.42-.1679-.52"/><path class="cls-7" d="M318.79,637.9032a42.8288,42.8288,0,0,0-11.9383,12.718,26.5054,26.5054,0,0,1,.48-14.968c1.67-4.6759,1.99-9.216,2.2119-14.09,3.0359,3.496,6.4819,7.36,9.32,10.866Z"/><rect class="cls-3" x="266.5833" y="531.2463" width="260.228" height="32.484"/><path class="cls-5" d="M285.3294,550.5653a1.9641,1.9641,0,1,1-1.9641,1.9641,1.9632,1.9632,0,0,1,1.9641-1.9641"/><path class="cls-5" d="M285.3294,540.4851a1.9641,1.9641,0,1,1-1.9641,1.9641,1.9619,1.9619,0,0,1,1.9641-1.9641"/><path class="cls-5" d="M297.4212,550.5653a1.9641,1.9641,0,1,1-1.9641,1.9641,1.9632,1.9632,0,0,1,1.9641-1.9641"/><path class="cls-5" d="M297.4212,540.4851a1.9641,1.9641,0,1,1-1.9641,1.9641,1.9619,1.9619,0,0,1,1.9641-1.9641"/><path class="cls-5" d="M312.3783,550.5536a1.9641,1.9641,0,1,1-1.9641,1.9641,1.9618,1.9618,0,0,1,1.9641-1.9641"/><path class="cls-5" d="M312.3783,540.4735a1.9641,1.9641,0,1,1-1.9641,1.9641,1.9618,1.9618,0,0,1,1.9641-1.9641"/><path class="cls-5" d="M324.47,550.5536a1.9641,1.9641,0,1,1-1.9622,1.9641,1.9619,1.9619,0,0,1,1.9622-1.9641"/><path class="cls-5" d="M324.47,540.4735a1.9641,1.9641,0,1,1-1.9622,1.9641,1.9619,1.9619,0,0,1,1.9622-1.9641"/><path class="cls-5" d="M340.0794,550.5536a1.9641,1.9641,0,1,1-1.9641,1.9641,1.9619,1.9619,0,0,1,1.9641-1.9641"/><path class="cls-5" d="M340.0794,540.4735a1.9641,1.9641,0,1,1-1.9641,1.962,1.9615,1.9615,0,0,1,1.9641-1.962"/><path class="cls-5" d="M352.1712,550.5536a1.9641,1.9641,0,1,1-1.9621,1.9641,1.9635,1.9635,0,0,1,1.9621-1.9641"/><path class="cls-5" d="M352.1712,540.4735a1.9641,1.9641,0,1,1-1.9621,1.962,1.9631,1.9631,0,0,1,1.9621-1.962"/><path class="cls-5" d="M367.3861,550.5536a1.9641,1.9641,0,1,1-1.9622,1.9641,1.9622,1.9622,0,0,1,1.9622-1.9641"/><path class="cls-5" d="M367.3861,540.4735a1.9641,1.9641,0,1,1-1.9622,1.962,1.9618,1.9618,0,0,1,1.9622-1.962"/><path class="cls-5" d="M381.9857,550.5536a1.9641,1.9641,0,1,1-1.9641,1.9641,1.9618,1.9618,0,0,1,1.9641-1.9641"/><path class="cls-5" d="M381.9857,540.4735a1.9641,1.9641,0,1,1-1.9641,1.962,1.9614,1.9614,0,0,1,1.9641-1.962"/><path class="cls-5" d="M396.4369,550.5536a1.9641,1.9641,0,1,1-1.9622,1.9641,1.9622,1.9622,0,0,1,1.9622-1.9641"/><path class="cls-5" d="M396.4369,540.4735a1.9641,1.9641,0,1,1-1.9622,1.9641,1.9622,1.9622,0,0,1,1.9622-1.9641"/><path class="cls-5" d="M409.3431,550.5555a1.963,1.963,0,1,1-1.9621,1.9621,1.962,1.962,0,0,1,1.9621-1.9621"/><path class="cls-5" d="M409.3431,540.4735a1.9641,1.9641,0,1,1-1.9621,1.9641,1.9623,1.9623,0,0,1,1.9621-1.9641"/><path class="cls-5" d="M422.56,550.5536a1.9641,1.9641,0,1,1-1.9641,1.9641,1.9631,1.9631,0,0,1,1.9641-1.9641"/><path class="cls-5" d="M422.56,540.4735a1.9641,1.9641,0,1,1-1.9641,1.9641,1.9618,1.9618,0,0,1,1.9641-1.9641"/><path class="cls-5" d="M435.5794,550.5536a1.9641,1.9641,0,1,1-1.9641,1.9641,1.9619,1.9619,0,0,1,1.9641-1.9641"/><path class="cls-5" d="M435.5794,540.4735a1.9641,1.9641,0,1,1-1.9641,1.9641,1.9619,1.9619,0,0,1,1.9641-1.9641"/><path class="cls-5" d="M450.472,550.5536a1.9641,1.9641,0,1,1-1.9621,1.9641,1.9631,1.9631,0,0,1,1.9621-1.9641"/><path class="cls-5" d="M450.472,540.4735a1.9641,1.9641,0,1,1-1.9621,1.9641,1.9618,1.9618,0,0,1,1.9621-1.9641"/><path class="cls-5" d="M463.638,550.5536a1.9641,1.9641,0,1,1-1.9621,1.9641,1.9635,1.9635,0,0,1,1.9621-1.9641"/><path class="cls-5" d="M463.638,540.4735a1.9641,1.9641,0,1,1-1.9621,1.9641,1.9635,1.9635,0,0,1,1.9621-1.9641"/><path class="cls-5" d="M476.6322,550.5536a1.9641,1.9641,0,1,1-1.9641,1.9641,1.9631,1.9631,0,0,1,1.9641-1.9641"/><path class="cls-5" d="M476.6322,540.4735a1.9641,1.9641,0,1,1-1.9641,1.9641,1.9618,1.9618,0,0,1,1.9641-1.9641"/><path class="cls-5" d="M490.6869,550.5555a1.963,1.963,0,1,1-1.9622,1.9621,1.9619,1.9619,0,0,1,1.9622-1.9621"/><path class="cls-5" d="M490.6869,540.4735a1.9641,1.9641,0,1,1-1.9622,1.9641,1.9622,1.9622,0,0,1,1.9622-1.9641"/><path class="cls-5" d="M503.5873,550.5555a1.963,1.963,0,1,1-1.9642,1.9621,1.9615,1.9615,0,0,1,1.9642-1.9621"/><path class="cls-5" d="M503.5873,540.4735a1.9641,1.9641,0,1,1-1.9642,1.9641,1.9619,1.9619,0,0,1,1.9642-1.9641"/><polyline class="cls-9" points="380.394 527.813 262.99 527.813 262.99 567.141 527.184 567.141 527.184 527.813 411.752 527.813"/><path class="cls-5" d="M271.6654,181.2021a9.3811,9.3811,0,1,1-9.38-9.38,9.3807,9.3807,0,0,1,9.38,9.38"/><path class="cls-8" d="M267.7005,181.2021a5.416,5.416,0,1,1-5.416-5.4158,5.416,5.416,0,0,1,5.416,5.4158"/><path class="cls-5" d="M538.5482,173.2763a9.3813,9.3813,0,1,1-13.2681,0,9.3833,9.3833,0,0,1,13.2681,0"/><path class="cls-8" d="M537.3314,179.9092a5.416,5.416,0,1,1-5.416-5.4158,5.4174,5.4174,0,0,1,5.416,5.4158"/><rect class="cls-3" x="606.7752" y="23.3623" width="51.5581" height="112.7161"/><rect class="cls-3" x="616.7494" y="26.7182" width="32.4861" height="104.8621"/><path class="cls-5" d="M636.07,113.1259c0-.4379.8779-.7919,1.9619-.7919s1.9639.354,1.9639.7919-.88.7923-1.9639.7923-1.9619-.354-1.9619-.7923"/><path class="cls-5" d="M625.9876,113.1259c0-.4379.878-.7919,1.9639-.7919,1.084,0,1.9641.354,1.9641.7919s-.88.7923-1.9641.7923c-1.0859,0-1.9639-.354-1.9639-.7923"/><path class="cls-5" d="M636.07,108.2529c0-.438.8779-.792,1.9619-.792s1.9639.354,1.9639.792-.88.7922-1.9639.7922-1.9619-.354-1.9619-.7922"/><path class="cls-5" d="M625.9876,108.2529c0-.438.878-.792,1.9639-.792,1.084,0,1.9641.354,1.9641.792s-.88.7922-1.9641.7922c-1.0859,0-1.9639-.354-1.9639-.7922"/><path class="cls-5" d="M636.07,101.9638c0-.4379.8779-.792,1.9619-.792s1.9639.3541,1.9639.792-.88.7923-1.9639.7923-1.9619-.354-1.9619-.7923"/><path class="cls-5" d="M625.9876,101.9638c0-.4379.878-.792,1.9639-.792,1.084,0,1.9641.3541,1.9641.792s-.88.7923-1.9641.7923c-1.0859,0-1.9639-.354-1.9639-.7923"/><path class="cls-5" d="M636.07,97.0908c0-.438.8779-.792,1.9619-.792s1.9639.354,1.9639.792-.88.7922-1.9639.7922-1.9619-.354-1.9619-.7922"/><path class="cls-5" d="M625.9876,97.0908c0-.438.878-.792,1.9639-.792,1.084,0,1.9641.354,1.9641.792s-.88.7922-1.9641.7922c-1.0859,0-1.9639-.354-1.9639-.7922"/><path class="cls-5" d="M636.07,90.96c0-.438.8779-.792,1.9619-.792s1.9639.354,1.9639.792-.88.7923-1.9639.7923-1.9619-.354-1.9619-.7923"/><path class="cls-5" d="M625.9876,90.96c0-.438.878-.792,1.9639-.792,1.084,0,1.9641.354,1.9641.792s-.88.7923-1.9641.7923c-1.0859,0-1.9639-.354-1.9639-.7923"/><path class="cls-5" d="M636.07,85.0771c0-.438.8779-.792,1.9619-.792s1.9639.354,1.9639.792-.88.7923-1.9639.7923-1.9619-.354-1.9619-.7923"/><path class="cls-5" d="M625.9876,85.0771c0-.438.878-.792,1.9639-.792,1.084,0,1.9641.354,1.9641.792s-.88.7923-1.9641.7923c-1.0859,0-1.9639-.354-1.9639-.7923"/><path class="cls-5" d="M636.07,79.2529c0-.4358.8779-.792,1.9619-.792s1.9639.3562,1.9639.792c0,.4382-.88.7922-1.9639.7922s-1.9619-.354-1.9619-.7922"/><path class="cls-5" d="M625.9876,79.2529c0-.4358.878-.792,1.9639-.792,1.084,0,1.9641.3562,1.9641.792,0,.4382-.88.7922-1.9641.7922-1.0859,0-1.9639-.354-1.9639-.7922"/><path class="cls-5" d="M636.07,74.0537c0-.438.8779-.792,1.9619-.792,1.0859,0,1.9661.354,1.9661.792,0,.436-.88.7922-1.9661.7922-1.084,0-1.9619-.3562-1.9619-.7922"/><path class="cls-5" d="M625.99,74.0537c0-.438.8779-.792,1.9619-.792s1.9639.354,1.9639.792c0,.436-.88.7922-1.9639.7922s-1.9619-.3562-1.9619-.7922"/><path class="cls-5" d="M636.07,68.7275c0-.438.8779-.792,1.9619-.792s1.9661.354,1.9661.792-.8821.7922-1.9661.7922-1.9619-.354-1.9619-.7922"/><path class="cls-5" d="M625.9876,68.7275c0-.438.88-.792,1.9639-.792s1.9641.354,1.9641.792-.88.7922-1.9641.7922-1.9639-.354-1.9639-.7922"/><path class="cls-5" d="M636.07,63.4814c0-.438.8779-.792,1.9619-.792s1.9639.354,1.9639.792-.88.7923-1.9639.7923-1.9619-.354-1.9619-.7923"/><path class="cls-5" d="M625.9876,63.4814c0-.438.878-.792,1.9639-.792,1.084,0,1.9641.354,1.9641.792s-.88.7923-1.9641.7923c-1.0859,0-1.9639-.354-1.9639-.7923"/><path class="cls-5" d="M636.07,57.48c0-.4358.8779-.792,1.9619-.792s1.9661.3562,1.9661.792c0,.4382-.8821.7922-1.9661.7922s-1.9619-.354-1.9619-.7922"/><path class="cls-5" d="M625.9876,57.48c0-.4358.88-.792,1.9639-.792s1.9641.3562,1.9641.792c0,.4382-.88.7922-1.9641.7922s-1.9639-.354-1.9639-.7922"/><path class="cls-5" d="M636.07,52.1748c0-.438.8779-.792,1.9619-.792s1.9639.354,1.9639.792-.88.7922-1.9639.7922-1.9619-.354-1.9619-.7922"/><path class="cls-5" d="M625.9876,52.1748c0-.438.878-.792,1.9639-.792,1.084,0,1.9641.354,1.9641.792s-.88.7922-1.9641.7922c-1.0859,0-1.9639-.354-1.9639-.7922"/><path class="cls-5" d="M636.07,46.9384c0-.4379.8779-.7919,1.9619-.7919s1.9661.354,1.9661.7919-.8821.7923-1.9661.7923-1.9619-.354-1.9619-.7923"/><path class="cls-5" d="M625.9876,46.9384c0-.4357.88-.7919,1.9639-.7919s1.9641.3562,1.9641.7919c0,.4383-.88.7923-1.9641.7923s-1.9639-.354-1.9639-.7923"/><polyline class="cls-9" points="613.329 85.718 613.329 133.026 652.655 133.026 652.655 26.57 613.329 26.57 613.329 73.084"/><text class="cls-10" transform="translate(79.8232 246.3955)">RS-232</text><text class="cls-10" transform="translate(97.3721 186.0635)">I</text><text class="cls-10" transform="translate(101.7041 180.6528) scale(0.583)">2</text><text class="cls-10" transform="translate(106.958 186.0635)">C</text><text class="cls-10" transform="translate(35.5332 78.1606)">CAN</text><text class="cls-11" transform="translate(83.6152 101.4385)">L (GRN)</text><text class="cls-11" transform="translate(84.4512 126.2563)">H (YEL)</text><path class="cls-12" d="M104.81,480.9216a4.493,4.493,0,0,1-1.8437,1.7481,5.8317,5.8317,0,0,1-2.749.6269H99.1533A5.82,5.82,0,0,1,96.4,482.67a4.4816,4.4816,0,0,1-1.8409-1.76,5.1609,5.1609,0,0,1-.65-2.6113V475.14h11.5518v3.23A5.0017,5.0017,0,0,1,104.81,480.9216Zm-4.5771,1.4082a5.1577,5.1577,0,0,0,2.3125-.4922,3.6352,3.6352,0,0,0,1.539-1.3887,3.93,3.93,0,0,0,.544-2.0781v-2.2539H94.7343v2.1817a4.0206,4.0206,0,0,0,.5557,2.1347,3.6768,3.6768,0,0,0,1.5547,1.4043,5.1607,5.1607,0,0,0,2.3086.4922Z"/><path class="cls-12" d="M93.9091,486.0017h11.5518v.9765H93.9091Z"/><path class="cls-12" d="M96.2617,498.0974a4.4132,4.4132,0,0,1-1.8565-6.2949,4.3019,4.3019,0,0,1,1.86-1.5879,6.56,6.56,0,0,1,2.8008-.5625h1.2373a6.5917,6.5917,0,0,1,2.8008.5586,4.2983,4.2983,0,0,1,1.86,1.58,4.25,4.25,0,0,1,.6543,2.3516,4.1575,4.1575,0,0,1-2.5107,3.9512,6.6463,6.6463,0,0,1-2.8047.5547H99.0664A6.6725,6.6725,0,0,1,96.2617,498.0974Zm6.4219-.8379a3.3736,3.3736,0,0,0,1.539-1.2168,3.3137,3.3137,0,0,0,.54-1.9,3.2555,3.2555,0,0,0-.54-1.873,3.412,3.412,0,0,0-1.543-1.2168,6.024,6.024,0,0,0-2.36-.4258H99.0664a6.0064,6.0064,0,0,0-2.3682.43A3.45,3.45,0,0,0,95.15,492.281a3.2562,3.2562,0,0,0-.543,1.8769,3.309,3.309,0,0,0,.539,1.9043,3.3459,3.3459,0,0,0,1.543,1.2051,6.2286,6.2286,0,0,0,2.377.4141h1.2529A6.0527,6.0527,0,0,0,102.6836,497.26Z"/><polyline class="cls-13" points="88.56 298.681 99.768 298.681 99.768 464.253"/><polyline class="cls-13" points="99.769 509.536 99.769 666.012 88.561 666.012"/><text class="cls-10" transform="translate(286.7891 683.8428)">RE<tspan class="cls-14" x="19.5645" y="0">L</tspan><tspan class="cls-15" x="28.2783" y="0">A</tspan><tspan x="37.4912" y="0">Y</tspan></text><polyline class="cls-13" points="245.747 689.343 245.747 680.469 276.465 680.469"/><polyline class="cls-13" points="340.595 680.468 368.461 680.468 368.461 690.442"/><text class="cls-10" transform="translate(445.1436 683.8428)">ANA<tspan class="cls-16" x="31.8535" y="0">L</tspan><tspan x="39.918" y="0">OG IN</tspan></text><text class="cls-17" transform="translate(621.6689 696.4707)">RESET</text><text class="cls-17" transform="translate(677.8477 696.4707)">USER</text><polyline class="cls-13" points="422.183 689.276 422.183 681.016 436.213 681.016"/><polyline class="cls-13" points="535.042 679.919 548.974 679.919 548.974 690.443"/><rect class="cls-3" x="101.9661" y="708.6146" width="39.958" height="45.05"/><path class="cls-5" d="M121.9443,728.4144a2.7241,2.7241,0,1,1-2.7222,2.7241,2.7245,2.7245,0,0,1,2.7222-2.7241"/><path class="cls-5" d="M121.9443,740.6059a2.7241,2.7241,0,1,1-2.7222,2.722,2.7227,2.7227,0,0,1,2.7222-2.722"/><text class="cls-10" transform="translate(107.6885 696.5586)">RSL</text><text class="cls-10" transform="translate(700.9102 496.6475) rotate(-90)">PWM</text><polyline class="cls-13" points="705.322 665.921 694.114 665.921 694.114 504.904"/><polyline class="cls-13" points="694.113 449.761 694.113 293.327 705.32 293.327"/><path class="cls-5" d="M343.5248,86.622a9.3812,9.3812,0,1,1-9.38-9.38,9.3808,9.3808,0,0,1,9.38,9.38"/><path class="cls-8" d="M339.56,86.622a5.416,5.416,0,1,1-5.416-5.4157,5.4174,5.4174,0,0,1,5.416,5.4157"/><path class="cls-5" d="M343.5248,41.0927a9.3812,9.3812,0,1,1-9.38-9.3779,9.3795,9.3795,0,0,1,9.38,9.3779"/><path class="cls-8" d="M339.56,41.0927a5.416,5.416,0,1,1-5.416-5.4138,5.4162,5.4162,0,0,1,5.416,5.4138"/><rect class="cls-18" x="235.5433" y="37.3623" width="66.468" height="53.384"/><polygon class="cls-19" points="253.083 42.821 284.287 42.821 291.857 50.577 291.857 85.287 245.699 85.287 245.699 50.761 253.083 42.821"/><path class="cls-5" d="M262.7318,68.72a1.9641,1.9641,0,1,1-1.9641,1.9622,1.9616,1.9616,0,0,1,1.9641-1.9622"/><path class="cls-5" d="M262.7318,58.64a1.9641,1.9641,0,1,1-1.9641,1.9622,1.9616,1.9616,0,0,1,1.9641-1.9622"/><path class="cls-5" d="M274.8236,68.72a1.9641,1.9641,0,1,1-1.9622,1.9622,1.962,1.962,0,0,1,1.9622-1.9622"/><path class="cls-5" d="M274.8236,58.64a1.9641,1.9641,0,1,1-1.9622,1.9622,1.962,1.962,0,0,1,1.9622-1.9622"/><rect class="cls-18" x="470.6114" y="26.4883" width="87.1479" height="92.3181"/><rect class="cls-19" x="481.4134" y="63.3523" width="65.5459" height="38.1741"/><rect class="cls-19" x="495.9974" y="101.5263" width="36.0039" height="8.8621"/><rect class="cls-19" x="502.4593" y="110.3884" width="23.2639" height="7.386"/><rect class="cls-20" x="472.5494" y="101.5263" width="23.448" height="13.292"/><rect class="cls-21" x="532.0013" y="101.5263" width="23.45" height="13.292"/><rect class="cls-18" x="368.3531" y="72.6482" width="75.3921" height="33.3101"/><rect class="cls-19" x="370.3512" y="73.9905" width="71.4561" height="30.084"/><rect class="cls-18" x="368.3853" y="26.1682" width="75.3921" height="33.3101"/><rect class="cls-19" x="370.3832" y="27.5102" width="71.4541" height="30.084"/><text class="cls-10" transform="translate(81.7627 38.2114)">INPUT</text><text class="cls-22" transform="translate(318.7217 246.9204)">NI <tspan class="cls-23" x="39.668" y="0">r</tspan><tspan class="cls-24" x="50.1943" y="0">oboRIO</tspan></text><rect class="cls-6" x="373.3673" y="77.2402" width="65.3621" height="11.792"/><rect class="cls-6" x="373.3673" y="30.7624" width="65.3621" height="11.792"/><text class="cls-10" transform="translate(705.2959 92.6074)">POWER</text><rect class="cls-25" x="767.109" y="79.2955" width="16.0342" height="15.1855"/><rect class="cls-26" x="782.2726" y="79.4149" width="10.6027" height="15.1855"/><text class="cls-10" transform="translate(700.9414 118.5674)">STATUS</text><rect class="cls-25" x="767.109" y="105.2554" width="16.0342" height="15.1855"/><rect class="cls-26" x="782.2726" y="105.3747" width="10.6027" height="15.1855"/><text class="cls-10" transform="translate(713.9756 158.2197)">RADIO</text><rect class="cls-25" x="767.109" y="145.1685" width="16.0342" height="15.1855"/><rect class="cls-26" x="782.2726" y="145.2879" width="10.6027" height="15.1855"/><text class="cls-10" transform="translate(710.7627 185.0894)">COMM</text><rect class="cls-25" x="767.109" y="171.7773" width="16.0342" height="15.1855"/><rect class="cls-26" x="782.2726" y="171.8966" width="10.6027" height="15.1855"/><text class="cls-10" transform="translate(715.4824 213.002)">MODE</text><rect class="cls-25" x="767.109" y="198.3861" width="16.0342" height="15.1855"/><rect class="cls-26" x="782.2726" y="198.5054" width="10.6027" height="15.1855"/><text class="cls-10" transform="translate(731.9209 253.5479)">RSL</text><rect class="cls-25" x="767.109" y="238.9319" width="16.0342" height="15.1855"/><rect class="cls-26" x="782.2726" y="239.0512" width="10.6027" height="15.1855"/><rect class="cls-27" x="611.2323" y="705.5343" width="108.8485" height="50.9946" rx="9.8548"/><rect class="cls-28" x="625.4989" y="717.38" width="27.1208" height="27.3032" rx="13.5604"/><rect class="cls-28" x="678.6934" y="717.38" width="27.1208" height="27.3032" rx="13.5604"/><rect class="cls-3" x="718.942" y="271.7753" width="46.329" height="413.1708"/><path class="cls-5" d="M744.5855,294.3451a2.7242,2.7242,0,1,1-2.7242-2.7239,2.723,2.723,0,0,1,2.7242,2.7239"/><path class="cls-5" d="M732.3941,294.3451a2.7242,2.7242,0,1,1-2.7222-2.7239,2.7213,2.7213,0,0,1,2.7222,2.7239"/><path class="cls-5" d="M757.2671,294.3451a2.723,2.723,0,1,1-2.7222-2.7239,2.7212,2.7212,0,0,1,2.7222,2.7239"/><path class="cls-5" d="M744.5855,335.5769a2.7242,2.7242,0,1,1-2.7242-2.7237,2.723,2.723,0,0,1,2.7242,2.7237"/><path class="cls-5" d="M732.3941,335.5769a2.7242,2.7242,0,1,1-2.7222-2.7237,2.7213,2.7213,0,0,1,2.7222,2.7237"/><path class="cls-5" d="M757.2671,335.5769a2.723,2.723,0,1,1-2.7222-2.7237,2.7212,2.7212,0,0,1,2.7222,2.7237"/><path class="cls-5" d="M744.5855,376.8086a2.7242,2.7242,0,1,1-2.7242-2.7234,2.723,2.723,0,0,1,2.7242,2.7234"/><path class="cls-5" d="M732.3941,376.8086a2.7242,2.7242,0,1,1-2.7222-2.7234,2.7213,2.7213,0,0,1,2.7222,2.7234"/><path class="cls-5" d="M757.2671,376.8086a2.723,2.723,0,1,1-2.7222-2.7234,2.7212,2.7212,0,0,1,2.7222,2.7234"/><path class="cls-5" d="M744.5855,418.04a2.7242,2.7242,0,1,1-2.7242-2.7232,2.723,2.723,0,0,1,2.7242,2.7232"/><path class="cls-5" d="M732.3941,418.04a2.7242,2.7242,0,1,1-2.7222-2.7232,2.7213,2.7213,0,0,1,2.7222,2.7232"/><path class="cls-5" d="M757.2671,418.04a2.723,2.723,0,1,1-2.7222-2.7232,2.7212,2.7212,0,0,1,2.7222,2.7232"/><path class="cls-5" d="M744.5855,459.2721a2.7242,2.7242,0,1,1-2.7242-2.723,2.7231,2.7231,0,0,1,2.7242,2.723"/><path class="cls-5" d="M732.3941,459.2721a2.7242,2.7242,0,1,1-2.7222-2.723,2.7213,2.7213,0,0,1,2.7222,2.723"/><path class="cls-5" d="M757.2671,459.2721a2.723,2.723,0,1,1-2.7222-2.723,2.7213,2.7213,0,0,1,2.7222,2.723"/><path class="cls-5" d="M744.5855,500.5039a2.7242,2.7242,0,1,1-2.7242-2.7228,2.723,2.723,0,0,1,2.7242,2.7228"/><path class="cls-5" d="M732.3941,500.5039a2.7242,2.7242,0,1,1-2.7222-2.7228,2.7213,2.7213,0,0,1,2.7222,2.7228"/><path class="cls-5" d="M757.2671,500.5039a2.723,2.723,0,1,1-2.7222-2.7228,2.7212,2.7212,0,0,1,2.7222,2.7228"/><path class="cls-5" d="M744.5855,541.7357a2.7242,2.7242,0,1,1-2.7242-2.7226,2.723,2.723,0,0,1,2.7242,2.7226"/><path class="cls-5" d="M732.3941,541.7357a2.7242,2.7242,0,1,1-2.7222-2.7226,2.7212,2.7212,0,0,1,2.7222,2.7226"/><path class="cls-5" d="M757.2671,541.7357a2.723,2.723,0,1,1-2.7222-2.7226,2.7212,2.7212,0,0,1,2.7222,2.7226"/><path class="cls-5" d="M744.5855,582.9674a2.7242,2.7242,0,1,1-2.7242-2.7223,2.723,2.723,0,0,1,2.7242,2.7223"/><path class="cls-5" d="M732.3941,582.9674a2.7242,2.7242,0,1,1-2.7222-2.7223,2.7213,2.7213,0,0,1,2.7222,2.7223"/><path class="cls-5" d="M757.2671,582.9674a2.723,2.723,0,1,1-2.7222-2.7223,2.7212,2.7212,0,0,1,2.7222,2.7223"/><path class="cls-5" d="M744.5855,624.1992a2.7242,2.7242,0,1,1-2.7242-2.7222,2.723,2.723,0,0,1,2.7242,2.7222"/><path class="cls-5" d="M732.3941,624.1992a2.7242,2.7242,0,1,1-2.7222-2.7222,2.7212,2.7212,0,0,1,2.7222,2.7222"/><path class="cls-5" d="M757.2671,624.1992a2.723,2.723,0,1,1-2.7222-2.7222,2.7212,2.7212,0,0,1,2.7222,2.7222"/><path class="cls-5" d="M744.5855,665.4309a2.7242,2.7242,0,1,1-2.7242-2.7219,2.723,2.723,0,0,1,2.7242,2.7219"/><path class="cls-5" d="M732.3941,665.4309a2.7242,2.7242,0,1,1-2.7222-2.7219,2.7213,2.7213,0,0,1,2.7222,2.7219"/><path class="cls-5" d="M757.2671,665.4309a2.723,2.723,0,1,1-2.7222-2.7219,2.7212,2.7212,0,0,1,2.7222,2.7219"/><text class="cls-29" transform="translate(82.4043 51.7856)">7-16V </text><line class="cls-30" x1="113.5243" y1="50.4084" x2="116.9053" y2="50.4084"/><line class="cls-30" x1="118.7643" y1="50.4084" x2="122.1413" y2="50.4084"/><line class="cls-30" x1="124.0085" y1="50.4084" x2="127.3895" y2="50.4084"/><line class="cls-30" x1="113.5243" y1="47.0152" x2="127.3895" y2="47.0152"/><text class="cls-29" transform="translate(79.165 63.8105)">45 W MAX</text><line class="cls-31" x1="139.2727" y1="180.3455" x2="139.2727" y2="204.7964"/><line class="cls-31" x1="152.9716" y1="154.9488" x2="152.9716" y2="177.9405"/><line class="cls-31" x1="166.6623" y1="178.502" x2="166.6623" y2="201.5127"/><line class="cls-31" x1="180.353" y1="154.7094" x2="180.353" y2="177.6998"/><line class="cls-31" x1="134.7231" y1="206.9395" x2="143.8272" y2="206.9395"/><line class="cls-31" x1="132.5069" y1="204.7923" x2="146.0393" y2="204.7923"/><rect class="cls-32" x="137.5639" y="176.5666" width="3.423" height="3.4251"/><rect class="cls-12" x="151.2546" y="176.5666" width="3.4266" height="3.4251"/><rect class="cls-12" x="164.95" y="176.5633" width="3.4251" height="3.425"/><rect class="cls-12" x="178.6482" y="176.5666" width="3.421" height="3.4251"/><polygon class="cls-31" points="132.872 161.159 132.872 195.392 186.746 195.384 186.746 161.159 132.872 161.159"/><text class="cls-33" transform="translate(156.8076 210.4229) scale(1 1.0622)">SCL</text><text class="cls-34" transform="translate(141.3662 150.7793) scale(1 1.0115)">3.3V S<tspan class="cls-35" x="32.7725" y="0">D</tspan><tspan x="40.2158" y="0">A</tspan></text><line class="cls-31" x1="136.7363" y1="209.0907" x2="141.8099" y2="209.0907"/><line class="cls-31" x1="152.2775" y1="241.7648" x2="152.2775" y2="266.0981"/><line class="cls-31" x1="165.9723" y1="242.1382" x2="165.9723" y2="273.7247"/><line class="cls-31" x1="179.663" y1="242.1383" x2="179.663" y2="262.5749"/><line class="cls-31" x1="149.7406" y1="270.3963" x2="154.8143" y2="270.3963"/><line class="cls-31" x1="147.7274" y1="268.2451" x2="156.8315" y2="268.2451"/><line class="cls-31" x1="145.5112" y1="266.098" x2="159.0436" y2="266.098"/><rect class="cls-32" x="177.9548" y="238.3403" width="3.4251" height="3.4246"/><rect class="cls-32" x="150.5678" y="238.3403" width="3.4226" height="3.4246"/><rect class="cls-32" x="164.2641" y="238.3403" width="3.421" height="3.4246"/><rect class="cls-31" x="145.4342" y="222.5301" width="41.0802" height="34.2324"/><text class="cls-34" transform="translate(169.1758 273.1387) scale(1 1.0115)">TXD</text><text class="cls-34" transform="translate(154.4209 284.1152) scale(1 1.0115)">RXD</text><line class="cls-31" x1="33.4934" y1="700.3024" x2="33.4934" y2="711.2007"/><line class="cls-31" x1="47.1963" y1="700.2293" x2="47.5128" y2="718.6405"/><line class="cls-31" x1="60.887" y1="700.3024" x2="60.887" y2="708.1483"/><line class="cls-31" x1="30.9566" y1="715.503" x2="36.0303" y2="715.503"/><line class="cls-31" x1="28.9434" y1="713.3477" x2="38.0475" y2="713.3477"/><line class="cls-31" x1="26.7272" y1="711.2045" x2="40.2596" y2="711.2045"/><text class="cls-36" transform="translate(41.0742 728.7949) scale(1 1.0056)">5V</text><text class="cls-36" transform="translate(57.459 717.4785) scale(1 1.0056)">S</text><rect class="cls-37" x="59.3382" y="696.7668" width="3.1791" height="3.4581"/><rect class="cls-37" x="45.765" y="697.0229" width="3.1791" height="3.4581"/><rect class="cls-37" x="32.0077" y="696.9779" width="3.1791" height="3.4581"/><line class="cls-31" x1="78.0956" y1="758.3882" x2="83.1693" y2="758.3882"/><line class="cls-31" x1="76.0824" y1="756.2288" x2="85.1865" y2="756.2288"/><line class="cls-31" x1="73.8702" y1="754.0858" x2="87.4026" y2="754.0858"/><line class="cls-31" x1="80.6365" y1="745.7041" x2="93.1744" y2="745.7041"/><line class="cls-31" x1="93.1096" y1="731.9566" x2="85.1054" y2="731.9566"/><line class="cls-31" x1="80.6324" y1="745.3585" x2="80.6324" y2="754.0858"/><line class="cls-31" x1="80.6365" y1="752.7098" x2="80.6365" y2="746.0533"/><text class="cls-36" transform="translate(76.959 735.7168) scale(1 1.0056)">S</text><rect class="cls-37" x="93.1789" y="730.1524" width="3.1791" height="3.4581"/><rect class="cls-37" x="92.9973" y="744.014" width="3.1791" height="3.4581"/><line class="cls-31" x1="200.9263" y1="758.3841" x2="205.9999" y2="758.3841"/><line class="cls-38" x1="198.9131" y1="756.2288" x2="208.0171" y2="756.2288"/><line class="cls-31" x1="196.7009" y1="754.0817" x2="210.2333" y2="754.0817"/><line class="cls-31" x1="216.0458" y1="731.9566" x2="207.936" y2="731.9566"/><line class="cls-31" x1="216.0458" y1="718.2334" x2="207.936" y2="718.2334"/><polyline class="cls-31" points="203.467 754.082 203.467 745.505 216.046 745.505"/><text class="cls-39" transform="translate(183.3057 720.7158) scale(1 1.0605)">FWD</text><text class="cls-40" transform="translate(187.3809 734.6484) scale(1 1.1297)">REV</text><rect class="cls-37" x="216.1598" y="716.4106" width="3.1791" height="3.4581"/><rect class="cls-37" x="215.8377" y="730.1241" width="3.1791" height="3.4581"/><rect class="cls-37" x="215.809" y="743.8709" width="3.1791" height="3.4581"/><line class="cls-41" x1="588.6779" y1="758.5383" x2="593.7516" y2="758.5383"/><line class="cls-41" x1="586.6688" y1="756.3871" x2="595.7729" y2="756.3871"/><line class="cls-41" x1="584.4526" y1="754.24" x2="597.9849" y2="754.24"/><line class="cls-41" x1="586.8109" y1="731.7577" x2="578.7863" y2="731.7577"/><line class="cls-41" x1="586.8068" y1="718.1928" x2="578.7822" y2="718.1928"/><polyline class="cls-41" points="591.219 754.24 591.219 745.716 578.786 745.716"/><text class="cls-39" transform="translate(587.6855 721.0605) scale(1 1.0605)">S</text><text class="cls-40" transform="translate(588.3418 735.2344) scale(1 1.1297)">5V</text><rect class="cls-37" x="575.3707" y="716.3658" width="3.1791" height="3.4581"/><rect class="cls-37" x="575.5789" y="729.8937" width="3.1791" height="3.4581"/><rect class="cls-37" x="575.532" y="743.8379" width="3.1791" height="3.4581"/><line class="cls-31" x1="752.3901" y1="710.9135" x2="757.4637" y2="710.9135"/><line class="cls-31" x1="750.3809" y1="708.7664" x2="759.4809" y2="708.7664"/><line class="cls-31" x1="748.1688" y1="706.6193" x2="761.7011" y2="706.6193"/><line class="cls-31" x1="727.5327" y1="695.6441" x2="727.5327" y2="703.5549"/><line class="cls-31" x1="741.2274" y1="695.7049" x2="741.2274" y2="713.8443"/><line class="cls-31" x1="754.9181" y1="695.6441" x2="754.9181" y2="706.9888"/><text class="cls-36" transform="translate(724.2227 712.8965) scale(1 1.0056)">S</text><text class="cls-36" transform="translate(735.042 723.9043) scale(1 1.0056)">6V</text><rect class="cls-37" x="725.8329" y="692.3738" width="3.1791" height="3.4581"/><rect class="cls-37" x="739.6309" y="692.3738" width="3.1791" height="3.4581"/><rect class="cls-37" x="753.2722" y="692.3738" width="3.1791" height="3.4581"/><path class="cls-42" d="M609.4149,648.0061a6.8484,6.8484,0,0,0,6.8555-6.8392"/><path class="cls-42" d="M609.4149,634.3155a6.8529,6.8529,0,0,0-6.8393,6.8515"/><text class="cls-43" transform="translate(569.9697 661.2109) scale(1 1.0349)">A<tspan class="cls-44" x="6.918" y="0">CCELEROMETER</tspan></text><text class="cls-45" transform="translate(605.0947 608.0439) scale(1 1.0349)">Y</text><text class="cls-45" transform="translate(592.5459 635.6387) scale(1 1.0349)">Z</text><text class="cls-45" transform="translate(637.8916 645.1221) scale(1 1.0349)">X</text><line class="cls-46" x1="633.4315" y1="641.5078" x2="609.4189" y2="641.5078"/><line class="cls-46" x1="609.4149" y1="641.5078" x2="609.4149" y2="614.4025"/><path class="cls-31" d="M609.4149,648.0061a6.8453,6.8453,0,1,0-6.8393-6.8392A6.8484,6.8484,0,0,0,609.4149,648.0061Z"/><polyline class="cls-12" points="637.056 641.508 632.332 639.685 633.452 641.508 632.332 643.326"/><polyline class="cls-47" points="637.056 641.508 632.332 639.685 633.452 641.508 632.332 643.326"/><polyline class="cls-12" points="609.415 610.9 607.617 615.632 609.415 614.163 611.225 615.632 609.415 610.9"/><polyline class="cls-47" points="609.415 610.9 607.617 615.632 609.415 614.163 611.225 615.632 609.415 610.9"/><line class="cls-48" x1="632.3315" y1="643.3262" x2="637.056" y2="641.5078"/><line class="cls-47" x1="632.3315" y1="643.3262" x2="637.056" y2="641.5078"/><path class="cls-12" d="M609.4189,642.7133a1.5465,1.5465,0,1,0-1.5424-1.5464,1.5522,1.5522,0,0,0,1.5424,1.5464"/><path class="cls-31" d="M609.4189,642.7133a1.5465,1.5465,0,1,0-1.5424-1.5464A1.5522,1.5522,0,0,0,609.4189,642.7133Z"/><line class="cls-42" x1="614.1251" y1="269.5564" x2="655.2052" y2="269.5564"/><line class="cls-31" x1="605.3945" y1="245.5845" x2="629.0823" y2="245.5845"/><line class="cls-31" x1="605.3945" y1="231.8898" x2="629.0823" y2="231.8898"/><line class="cls-31" x1="605.3948" y1="218.1991" x2="629.0825" y2="218.1991"/><line class="cls-31" x1="614.1292" y1="166.8538" x2="614.1292" y2="269.5564"/><line class="cls-31" x1="605.3945" y1="204.5084" x2="629.0823" y2="204.5084"/><line class="cls-31" x1="605.3945" y1="190.8218" x2="629.0823" y2="190.8218"/><line class="cls-31" x1="655.2095" y1="269.5681" x2="655.2095" y2="166.8656"/><line class="cls-42" x1="655.2094" y1="166.8497" x2="614.1292" y2="166.8497"/><line class="cls-49" x1="639.8018" y1="245.5927" x2="663.4936" y2="245.5927"/><line class="cls-49" x1="605.3945" y1="245.5845" x2="629.0823" y2="245.5845"/><line class="cls-49" x1="605.3904" y1="231.8939" x2="629.0782" y2="231.8939"/><line class="cls-49" x1="639.7977" y1="231.8939" x2="663.4895" y2="231.8939"/><line class="cls-49" x1="605.3904" y1="218.2031" x2="629.0782" y2="218.2031"/><line class="cls-49" x1="639.7977" y1="218.2031" x2="663.4895" y2="218.2031"/><line class="cls-49" x1="594.4963" y1="181.9813" x2="594.4963" y2="190.8866"/><line class="cls-49" x1="605.3904" y1="204.5084" x2="629.0782" y2="204.5084"/><line class="cls-49" x1="639.7977" y1="204.5084" x2="663.4895" y2="204.5084"/><line class="cls-49" x1="591.9554" y1="195.189" x2="597.033" y2="195.189"/><line class="cls-49" x1="589.9504" y1="193.0378" x2="599.0504" y2="193.0378"/><line class="cls-49" x1="587.7341" y1="190.8907" x2="601.2624" y2="190.8907"/><line class="cls-49" x1="605.3904" y1="190.8136" x2="629.0782" y2="190.8136"/><line class="cls-49" x1="639.7977" y1="190.8136" x2="663.4895" y2="190.8136"/><rect class="cls-49" x="614.1292" y="166.8539" width="41.0802" height="102.7025"/><text class="cls-34" transform="translate(665.6006 193.7441) scale(1 1.0115)">CS0</text><text class="cls-34" transform="translate(665.5947 207.4204) scale(1 1.0115)">CS1</text><text class="cls-34" transform="translate(665.5869 221.3628) scale(1 1.0115)">5V</text><text class="cls-34" transform="translate(665.5791 235.1177) scale(1 1.0115)">CS2</text><text class="cls-34" transform="translate(665.7715 248.8223) scale(1 1.0115)">CS3</text><text class="cls-34" transform="translate(573.6055 208.3457) scale(1 1.0115)">SCLK</text><text class="cls-34" transform="translate(572.3115 222.0425) scale(1 1.0115)">MOSI</text><text class="cls-34" transform="translate(572.3037 235.7974) scale(1 1.0115)">MISO</text><text class="cls-34" transform="translate(579.4326 249.9878) scale(1 1.0115)">3.3V</text><rect class="cls-37" x="627.4538" y="188.7974" width="3.1791" height="3.4581"/><rect class="cls-37" x="627.4538" y="202.484" width="3.1791" height="3.4581"/><rect class="cls-37" x="627.4541" y="216.1747" width="3.1791" height="3.4581"/><rect class="cls-37" x="627.4538" y="229.8654" width="3.1791" height="3.4581"/><rect class="cls-37" x="627.4538" y="243.5601" width="3.1791" height="3.4581"/><rect class="cls-37" x="638.1734" y="243.5683" width="3.1791" height="3.4581"/><rect class="cls-37" x="638.1693" y="229.8695" width="3.1791" height="3.4581"/><rect class="cls-37" x="638.1693" y="216.1787" width="3.1791" height="3.4581"/><rect class="cls-37" x="638.1693" y="202.484" width="3.1791" height="3.4581"/><rect class="cls-37" x="638.1693" y="188.7892" width="3.1791" height="3.4581"/><text class="cls-10" transform="translate(621.0137 156.5034)">SPI</text></g><g id="Shader"><g class="cls-50"><path class="cls-48" d="M56.36,781.6182a50.1431,50.1431,0,0,1-50.086-50.086V53.0859A50.1428,50.1428,0,0,1,56.36,3H746.4688a50.1428,50.1428,0,0,1,50.0859,50.0859V731.5322a50.1431,50.1431,0,0,1-50.0859,50.086ZM371.7432,18.7212a11.413,11.413,0,0,0-11.4,11.4V105.36a11.4133,11.4133,0,0,0,11.4,11.4h74.2089a11.4133,11.4133,0,0,0,11.4-11.4V30.1211a11.413,11.413,0,0,0-11.4-11.4Z"/></g><path class="cls-51" d="M746.4685,6A47.0871,47.0871,0,0,1,793.5544,53.086V731.532a47.0858,47.0858,0,0,1-47.0859,47.086H56.36A47.0858,47.0858,0,0,1,9.2743,731.532V53.086A47.0871,47.0871,0,0,1,56.36,6H746.4685M371.7427,119.76h74.21a14.4,14.4,0,0,0,14.4-14.4V30.1212a14.4,14.4,0,0,0-14.4-14.4h-74.21a14.4,14.4,0,0,0-14.4,14.4V105.36a14.4,14.4,0,0,0,14.4,14.4M746.4685,0H56.36A53.146,53.146,0,0,0,3.2743,53.086V731.532A53.1461,53.1461,0,0,0,56.36,784.618H746.4685a53.1461,53.1461,0,0,0,53.0859-53.086V53.086A53.146,53.146,0,0,0,746.4685,0ZM371.7427,113.76a8.4094,8.4094,0,0,1-8.4-8.4V30.1212a8.4094,8.4094,0,0,1,8.4-8.4h74.21a8.41,8.41,0,0,1,8.4,8.4V105.36a8.41,8.41,0,0,1-8.4,8.4Z"/></g><g id="Edge_Fix_TOP_" data-name="Edge Fix (TOP)"><path class="cls-12" d="M2.5362-.99V786.73H800.554V-.99ZM752.2829,777.8273,54.26,778.341c-25.7843-2.0646-41.7151-20.1636-44.8769-45.14l.764-685.6649c2.03-21.1,20.1644-39.3677,40.9884-41.6014l700.17.1456c21.0428,2.4862,38.8976,20.007,41.99,40.9877l.0758,684.1015C793.3964,756.4034,777.2109,773.5706,752.2829,777.8273Z"/></g></svg>