<svg xmlns="http://www.w3.org/2000/svg" viewBox="0 0 800 785"><defs><style>.cls-1{fill:#434343;}.cls-2{fill:#4f4e51;}.cls-3{fill:#323031;}.cls-4{fill:#424242;}.cls-5{fill:#6a5f27;}.cls-6{fill:#5a5a5d;}.cls-7{fill:#f2f2f2;}.cls-8{fill:#221f1f;}.cls-13,.cls-31,.cls-32,.cls-42,.cls-43,.cls-46,.cls-47,.cls-49,.cls-9{fill:none;}.cls-9{stroke:#5a5a5d;stroke-width:5.416px;}.cls-13,.cls-9{stroke-miterlimit:10;}.cls-10{font-size:16.248px;}.cls-10,.cls-11,.cls-12,.cls-16,.cls-18,.cls-23,.cls-30,.cls-33,.cls-34,.cls-35,.cls-37,.cls-38,.cls-39,.cls-40,.cls-41,.cls-44{fill:#fff;}.cls-10,.cls-11,.cls-16,.cls-18,.cls-23,.cls-30,.cls-34,.cls-35,.cls-37,.cls-40,.cls-41,.cls-44{font-family:Verdana;}.cls-11{font-size:10.832px;}.cls-13,.cls-32,.cls-33,.cls-38,.cls-39,.cls-46,.cls-47,.cls-49{stroke:#fff;}.cls-13{stroke-width:2.708px;}.cls-14{letter-spacing:0.009em;}.cls-15{letter-spacing:-0.058em;}.cls-16{font-size:15.9201px;}.cls-17{letter-spacing:-0.031em;}.cls-18{font-size:11.7401px;}.cls-19{fill:#9b9b9b;}.cls-20{fill:#171717;}.cls-21{fill:#f3ea07;}.cls-22{fill:#7cc244;}.cls-23{font-size:32.496px;}.cls-24{letter-spacing:-0.013em;}.cls-25{letter-spacing:0em;}.cls-26{fill:#51545a;}.cls-27{fill:#3c3d42;}.cls-28{fill:#5a5d65;}.cls-29{fill:#23446c;}.cls-30{font-size:11.1981px;}.cls-31,.cls-42{stroke:#f1f2f2;}.cls-31,.cls-32,.cls-33,.cls-39,.cls-42,.cls-43,.cls-46{stroke-miterlimit:2;}.cls-32,.cls-33,.cls-38,.cls-39,.cls-42,.cls-43,.cls-49{stroke-width:0.686px;}.cls-33,.cls-38,.cls-47{stroke-linecap:round;}.cls-34{font-size:10.9221px;}.cls-35{font-size:11.699px;}.cls-36{letter-spacing:-0.019em;}.cls-37{font-size:10.9278px;}.cls-38,.cls-47,.cls-49{stroke-linejoin:round;}.cls-40{font-size:9.9074px;}.cls-41{font-size:9.6078px;}.cls-43{stroke:#020202;}.cls-44{font-size:11.4352px;}.cls-45{letter-spacing:-0.02em;}.cls-46{stroke-width:0.588px;}.cls-47{stroke-width:0.506px;}.cls-48{fill:#231f20;}.cls-50{opacity:0.33;}.cls-51{fill:#00aeef;}</style></defs><g id="roboRIO"><path class="cls-1" d="M746.8194,779.3719l-699.2185.9311a41.8157,41.8157,0,0,1-41.76-41.8712V47.4992a41.8156,41.8156,0,0,1,41.76-41.8711L752.1454,4.697a41.8157,41.8157,0,0,1,41.76,41.8712V732.1607c2.3995,27.8893-12.3474,47.6874-38.9832,47.21"/><rect class="cls-2" x="18.2355" y="20.2828" width="763.4358" height="747.9174" rx="29.4466"/><rect class="cls-3" x="24.636" y="281.4938" width="46.329" height="413.1708"/><path class="cls-4" d="M553.635,138.7374H241.281A19.4985,19.4985,0,0,1,221.783,119.24V38.7135a19.4986,19.4986,0,0,1,19.498-19.4981H553.635a19.4986,19.4986,0,0,1,19.4979,19.4981V119.24a19.4985,19.4985,0,0,1-19.4979,19.4978"/><rect class="cls-3" x="256.2972" y="523.9166" width="279.7219" height="51.5601"/><path class="cls-5" d="M50.28,304.0636a2.7241,2.7241,0,1,1-2.7241-2.7239,2.723,2.723,0,0,1,2.7241,2.7239"/><path class="cls-5" d="M38.0881,304.0636a2.7241,2.7241,0,1,1-2.7222-2.7239,2.7212,2.7212,0,0,1,2.7222,2.7239"/><path class="cls-5" d="M62.9611,304.0636A2.723,2.723,0,1,1,60.239,301.34a2.7212,2.7212,0,0,1,2.7221,2.7239"/><path class="cls-5" d="M50.28,345.2953a2.7241,2.7241,0,1,1-2.7241-2.7236,2.723,2.723,0,0,1,2.7241,2.7236"/><path class="cls-5" d="M38.0881,345.2953a2.7241,2.7241,0,1,1-2.7222-2.7236,2.7212,2.7212,0,0,1,2.7222,2.7236"/><path class="cls-5" d="M62.9611,345.2953a2.723,2.723,0,1,1-2.7221-2.7236,2.7212,2.7212,0,0,1,2.7221,2.7236"/><path class="cls-5" d="M50.28,386.5271a2.7241,2.7241,0,1,1-2.7241-2.7234,2.723,2.723,0,0,1,2.7241,2.7234"/><path class="cls-5" d="M38.0881,386.5271a2.7241,2.7241,0,1,1-2.7222-2.7234,2.7212,2.7212,0,0,1,2.7222,2.7234"/><path class="cls-5" d="M62.9611,386.5271a2.723,2.723,0,1,1-2.7221-2.7234,2.7212,2.7212,0,0,1,2.7221,2.7234"/><path class="cls-5" d="M50.28,427.7589a2.7241,2.7241,0,1,1-2.7241-2.7233,2.723,2.723,0,0,1,2.7241,2.7233"/><path class="cls-5" d="M38.0881,427.7589a2.7241,2.7241,0,1,1-2.7222-2.7233,2.7212,2.7212,0,0,1,2.7222,2.7233"/><path class="cls-5" d="M62.9611,427.7589a2.723,2.723,0,1,1-2.7221-2.7233,2.7212,2.7212,0,0,1,2.7221,2.7233"/><path class="cls-5" d="M50.28,468.9906a2.7241,2.7241,0,1,1-2.7241-2.723,2.723,2.723,0,0,1,2.7241,2.723"/><path class="cls-5" d="M38.0881,468.9906a2.7241,2.7241,0,1,1-2.7222-2.723,2.7212,2.7212,0,0,1,2.7222,2.723"/><path class="cls-5" d="M62.9611,468.9906a2.723,2.723,0,1,1-2.7221-2.723,2.7212,2.7212,0,0,1,2.7221,2.723"/><path class="cls-5" d="M50.28,510.2224A2.7241,2.7241,0,1,1,47.5554,507.5a2.7231,2.7231,0,0,1,2.7241,2.7228"/><path class="cls-5" d="M38.0881,510.2224A2.7241,2.7241,0,1,1,35.3659,507.5a2.7213,2.7213,0,0,1,2.7222,2.7228"/><path class="cls-5" d="M62.9611,510.2224A2.723,2.723,0,1,1,60.239,507.5a2.7212,2.7212,0,0,1,2.7221,2.7228"/><path class="cls-5" d="M50.28,551.4541a2.7241,2.7241,0,1,1-2.7241-2.7226,2.723,2.723,0,0,1,2.7241,2.7226"/><path class="cls-5" d="M38.0881,551.4541a2.7241,2.7241,0,1,1-2.7222-2.7226,2.7212,2.7212,0,0,1,2.7222,2.7226"/><path class="cls-5" d="M62.9611,551.4541a2.723,2.723,0,1,1-2.7221-2.7226,2.7212,2.7212,0,0,1,2.7221,2.7226"/><path class="cls-5" d="M50.28,592.6859a2.7241,2.7241,0,1,1-2.7241-2.7224,2.723,2.723,0,0,1,2.7241,2.7224"/><path class="cls-5" d="M38.0881,592.6859a2.7241,2.7241,0,1,1-2.7222-2.7224,2.7212,2.7212,0,0,1,2.7222,2.7224"/><path class="cls-5" d="M62.9611,592.6859a2.723,2.723,0,1,1-2.7221-2.7224,2.7212,2.7212,0,0,1,2.7221,2.7224"/><path class="cls-5" d="M50.28,633.9176a2.7241,2.7241,0,1,1-2.7241-2.7221,2.723,2.723,0,0,1,2.7241,2.7221"/><path class="cls-5" d="M38.0881,633.9176a2.7241,2.7241,0,1,1-2.7222-2.7221,2.7212,2.7212,0,0,1,2.7222,2.7221"/><path class="cls-5" d="M62.9611,633.9176a2.723,2.723,0,1,1-2.7221-2.7221,2.7212,2.7212,0,0,1,2.7221,2.7221"/><path class="cls-5" d="M50.28,675.1494a2.7241,2.7241,0,1,1-2.7241-2.7219,2.723,2.723,0,0,1,2.7241,2.7219"/><path class="cls-5" d="M38.0881,675.1494a2.7241,2.7241,0,1,1-2.7222-2.7219,2.7212,2.7212,0,0,1,2.7222,2.7219"/><path class="cls-5" d="M62.9611,675.1494a2.723,2.723,0,1,1-2.7221-2.7219,2.7212,2.7212,0,0,1,2.7221,2.7219"/><rect class="cls-3" x="26.011" y="226.5006" width="45.05" height="36.188"/><path class="cls-5" d="M51.26,244.5948a2.7241,2.7241,0,1,1-2.7241-2.7219,2.723,2.723,0,0,1,2.7241,2.7219"/><path class="cls-5" d="M39.0686,244.5948a2.7241,2.7241,0,1,1-2.7221-2.7219,2.7212,2.7212,0,0,1,2.7221,2.7219"/><path class="cls-5" d="M63.9417,244.5948a2.7231,2.7231,0,1,1-2.7222-2.7219,2.7212,2.7212,0,0,1,2.7222,2.7219"/><rect class="cls-3" x="26.011" y="163.0946" width="60.6521" height="39.05"/><path class="cls-5" d="M52.5315,182.6183a2.7241,2.7241,0,1,1-2.7241-2.722,2.7247,2.7247,0,0,1,2.7241,2.722"/><path class="cls-5" d="M40.34,182.6183a2.7241,2.7241,0,1,1-2.7221-2.722,2.7229,2.7229,0,0,1,2.7221,2.722"/><path class="cls-5" d="M65.2132,182.6183a2.7231,2.7231,0,1,1-2.7222-2.722,2.7229,2.7229,0,0,1,2.7222,2.722"/><path class="cls-5" d="M77.78,182.6183a2.7242,2.7242,0,1,1-2.7222-2.722,2.7229,2.7229,0,0,1,2.7222,2.722"/><rect class="cls-3" x="229.2365" y="711.2729" width="158.48" height="45.05"/><path class="cls-5" d="M247.3324,731.0748a2.723,2.723,0,1,1-2.7241,2.722,2.7211,2.7211,0,0,1,2.7241-2.722"/><path class="cls-5" d="M247.3324,743.2642a2.7241,2.7241,0,1,1-2.7241,2.7242,2.7216,2.7216,0,0,1,2.7241-2.7242"/><path class="cls-5" d="M247.3324,718.3912a2.7241,2.7241,0,1,1-2.7241,2.722,2.7211,2.7211,0,0,1,2.7241-2.722"/><rect class="cls-3" x="269.6884" y="711.2729" width="36.188" height="45.05"/><path class="cls-5" d="M287.7836,731.0748a2.723,2.723,0,1,1-2.7222,2.722,2.7228,2.7228,0,0,1,2.7222-2.722"/><path class="cls-5" d="M287.7836,743.2642a2.7241,2.7241,0,1,1-2.7222,2.7242,2.7233,2.7233,0,0,1,2.7222-2.7242"/><path class="cls-5" d="M287.7836,718.3912a2.7241,2.7241,0,1,1-2.7222,2.722,2.7228,2.7228,0,0,1,2.7222-2.722"/><rect class="cls-3" x="351.5284" y="711.2729" width="36.188" height="45.05"/><path class="cls-5" d="M369.6234,731.0748a2.723,2.723,0,1,1-2.7221,2.722,2.7228,2.7228,0,0,1,2.7221-2.722"/><path class="cls-5" d="M369.6234,743.2642a2.7241,2.7241,0,1,1-2.7221,2.7242,2.7233,2.7233,0,0,1,2.7221-2.7242"/><path class="cls-5" d="M369.6234,718.3912a2.7241,2.7241,0,1,1-2.7221,2.722,2.7228,2.7228,0,0,1,2.7221-2.722"/><rect class="cls-3" x="310.6325" y="711.2729" width="36.188" height="45.05"/><path class="cls-5" d="M328.7269,731.0748a2.723,2.723,0,1,1-2.7221,2.722,2.7212,2.7212,0,0,1,2.7221-2.722"/><path class="cls-5" d="M328.7269,743.2642a2.7241,2.7241,0,1,1-2.7221,2.7242,2.7217,2.7217,0,0,1,2.7221-2.7242"/><path class="cls-5" d="M328.7269,718.3912a2.7241,2.7241,0,1,1-2.7221,2.722,2.7212,2.7212,0,0,1,2.7221-2.722"/><rect class="cls-3" x="405.7651" y="711.1649" width="158.48" height="45.05"/><path class="cls-5" d="M423.8582,730.9668a2.723,2.723,0,1,1-2.7222,2.722,2.7215,2.7215,0,0,1,2.7222-2.722"/><path class="cls-5" d="M423.8582,743.1562a2.7241,2.7241,0,1,1-2.7222,2.7242,2.722,2.722,0,0,1,2.7222-2.7242"/><path class="cls-5" d="M423.8582,718.2832a2.7241,2.7241,0,1,1-2.7222,2.722,2.7215,2.7215,0,0,1,2.7222-2.722"/><rect class="cls-3" x="446.217" y="711.1649" width="36.188" height="45.05"/><path class="cls-5" d="M464.3113,730.9668a2.723,2.723,0,1,1-2.7241,2.722,2.7211,2.7211,0,0,1,2.7241-2.722"/><path class="cls-5" d="M464.3113,743.1562a2.7241,2.7241,0,1,1-2.7241,2.7242,2.7216,2.7216,0,0,1,2.7241-2.7242"/><path class="cls-5" d="M464.3113,718.2832a2.7241,2.7241,0,1,1-2.7241,2.722,2.7211,2.7211,0,0,1,2.7241-2.722"/><rect class="cls-3" x="528.0571" y="711.1649" width="36.188" height="45.05"/><path class="cls-5" d="M546.1511,730.9668a2.723,2.723,0,1,1-2.7241,2.722,2.7212,2.7212,0,0,1,2.7241-2.722"/><path class="cls-5" d="M546.1511,743.1562a2.7241,2.7241,0,1,1-2.7241,2.7242,2.7217,2.7217,0,0,1,2.7241-2.7242"/><path class="cls-5" d="M546.1511,718.2832a2.7241,2.7241,0,1,1-2.7241,2.722,2.7212,2.7212,0,0,1,2.7241-2.722"/><rect class="cls-3" x="487.1592" y="711.1649" width="36.1899" height="45.05"/><path class="cls-5" d="M505.2546,730.9668a2.723,2.723,0,1,1-2.7241,2.722,2.7212,2.7212,0,0,1,2.7241-2.722"/><path class="cls-5" d="M505.2546,743.1562a2.7241,2.7241,0,1,1-2.7241,2.7242,2.7217,2.7217,0,0,1,2.7241-2.7242"/><path class="cls-5" d="M505.2546,718.2832a2.7241,2.7241,0,1,1-2.7241,2.722,2.7212,2.7212,0,0,1,2.7241-2.722"/><rect class="cls-6" x="30.7752" y="89.1026" width="43.512" height="24.8181"/><rect class="cls-7" x="40.5513" y="93.7567" width="27.9199" height="14.7339"/><path class="cls-8" d="M53.5413,101.5128a9.791,9.791,0,1,1-9.7922-9.792,9.79,9.79,0,0,1,9.7922,9.792"/><rect class="cls-6" x="30.7752" y="113.9208" width="43.512" height="24.8159"/><rect class="cls-7" x="40.5513" y="118.5748" width="27.9199" height="14.7339"/><path class="cls-8" d="M53.5413,126.3292a9.791,9.791,0,1,1-9.7922-9.792,9.7922,9.7922,0,0,1,9.7922,9.792"/><polygon class="cls-3" points="154.778 26.97 154.778 60.944 147.391 60.944 147.391 101.124 154.778 101.124 154.778 126.33 190.228 126.33 190.228 101.124 205.735 101.124 205.735 59.466 190.228 58.728 190.228 26.97 154.778 26.97"/><path class="cls-8" d="M182.2933,42.1046a9.7911,9.7911,0,1,1-9.7923-9.792,9.7923,9.7923,0,0,1,9.7923,9.792"/><path class="cls-8" d="M182.2933,111.0909a9.7911,9.7911,0,1,1-9.7923-9.792,9.7909,9.7909,0,0,1,9.7923,9.792"/><rect class="cls-8" x="176.5652" y="65.2767" width="25.478" height="10.3379"/><rect class="cls-8" x="176.5652" y="83.7486" width="25.478" height="10.3401"/><path class="cls-7" d="M367.5011,622.0635h-3.0762a82.8592,82.8592,0,0,1-6.85-8.944h-.042v8.944H353.911v-15.27h3.3379c2.2041,2.7059,5.4961,6.6759,6.5881,8.7479h.042v-8.7479h3.6221v15.27"/><path class="cls-7" d="M378.17,606.7931l5.802,15.27h-4.886l-1.2-3.642h-4.7341l-1.4619,3.642h-3.5979l6.2158-15.27Zm-1.0259,9.2059c-.5022-1.81-.9383-3.272-1.4842-5.454h-.0439c-.5881,2.182-1.1121,3.6441-1.68,5.454h3.208"/><polygon class="cls-7" points="385.433 622.063 385.433 609.651 381.027 609.651 381.027 606.794 394.443 606.794 394.443 609.651 390.037 609.651 390.037 622.063 385.433 622.063"/><rect class="cls-7" x="395.9259" y="606.7947" width="4.604" height="15.27"/><path class="cls-7" d="M401.6386,614.2549a7.592,7.592,0,1,1,15.1818,0c0,4.5581-2.9018,8.07-7.592,8.07s-7.59-3.5119-7.59-8.07m10.382,0c0-2.706-.8281-4.538-2.7922-4.538s-2.792,1.832-2.792,4.538c0,2.878.7422,4.884,2.792,4.884s2.7922-2.006,2.7922-4.884"/><path class="cls-7" d="M431.5206,622.0635h-3.0742a82.3592,82.3592,0,0,1-6.85-8.944h-.044v8.944h-3.6221v-15.27h3.3379c2.2041,2.7059,5.4961,6.6759,6.5882,8.7479h.0439v-8.7479h3.62v15.27"/><path class="cls-7" d="M441.97,606.7931l5.802,15.27h-4.884l-1.2019-3.642h-4.7341l-1.4619,3.642h-3.5979l6.2177-15.27Zm-1.0258,9.2059c-.5-1.81-.9383-3.272-1.4822-5.454h-.044c-.59,2.182-1.112,3.6441-1.6818,5.454h3.208"/><polygon class="cls-7" points="448.8 606.794 453.402 606.794 453.402 619.206 458.986 619.206 458.986 622.064 448.8 622.064 448.8 606.794"/><rect class="cls-7" x="347.038" y="626.7927" width="4.604" height="15.272"/><path class="cls-7" d="M367.1925,642.0635h-3.0742a82.6566,82.6566,0,0,1-6.8518-8.946h-.042v8.946h-3.6221v-15.272H356.94c2.2041,2.706,5.4981,6.676,6.5881,8.748h.042v-8.748h3.6221v15.272"/><path class="cls-7" d="M376.9015,629.956a4.3441,4.3441,0,0,0-2.2481-.568c-.894,0-1.352.4382-1.352.94,0,.848,1.2881,1.548,2.772,2.92,1.96,1.8339,2.4419,2.99,2.4419,4.5839,0,1.35-1.1119,4.4941-5.6939,4.4941a7.7352,7.7352,0,0,1-4.7981-1.3981l1.396-2.53a4.323,4.323,0,0,0,2.616,1.0679c.916,0,1.92-.458,1.92-1.5919,0-1.22-1.4841-2.1161-2.6821-3.162-1.592-1.396-2.532-2.206-2.532-4.08,0-2.444,2.4641-4.102,5.346-4.102a8.1258,8.1258,0,0,1,3.9922,1.026l-1.178,2.4"/><polygon class="cls-7" points="383.052 642.063 383.052 629.65 378.646 629.65 378.646 626.791 392.06 626.791 392.06 629.65 387.656 629.65 387.656 642.063 383.052 642.063"/><path class="cls-7" d="M393.5416,626.7914H400.35c3.5979,0,5.54,1.572,5.54,4.08a4.58,4.58,0,0,1-2.5739,4.406l3.38,6.546-4.9279.5021-2.42-6.044h-1.2019v5.7819h-4.604Zm4.604,6.6119h1.3079a1.8411,1.8411,0,0,0,1.832-1.876,1.6848,1.6848,0,0,0-1.9179-1.8779h-1.222v3.7539"/><path class="cls-7" d="M411.8683,626.7921v7.9861c0,2.746.4138,4.3619,2.3559,4.3619,1.5259,0,2.4-1.5279,2.4-4.428v-7.92h3.97v9.228c0,4.56-3.0979,6.3061-6.5879,6.3061-3.904,0-6.7419-1.638-6.7419-6.1961v-9.338h4.604"/><path class="cls-7" d="M441.1652,642.0635h-4.6021v-10.69h-.042c-1.18,3.992-2.4,7.3521-3.624,10.69h-2.9c-1.2439-3.3379-2.4878-6.698-3.688-10.69h-.042v10.69h-3.6219v-15.272h6.2378c1.0481,2.9241,2.094,5.826,3.12,9.402h.0439c.9819-3.576,2.0061-6.4779,3.01-9.402h6.1082v15.272"/><polygon class="cls-7" points="452.401 629.649 447.733 629.649 447.733 632.661 452.293 632.661 452.293 635.52 447.733 635.52 447.733 639.203 453.341 639.203 453.341 642.063 443.131 642.063 443.131 626.791 452.401 626.791 452.401 629.649"/><path class="cls-7" d="M467.7589,642.0635h-3.0762a82.6359,82.6359,0,0,1-6.85-8.946h-.042v8.946h-3.6221v-15.272h3.3379c2.2041,2.706,5.4961,6.676,6.5882,8.748h.0419v-8.748h3.6221v15.272"/><polygon class="cls-7" points="472.995 642.063 472.995 629.65 468.589 629.65 468.589 626.791 482.005 626.791 482.005 629.65 477.599 629.65 477.599 642.063 472.995 642.063"/><path class="cls-7" d="M491.0128,629.956a4.3416,4.3416,0,0,0-2.2461-.568c-.896,0-1.354.4382-1.354.94,0,.848,1.2881,1.548,2.77,2.92,1.9639,1.8339,2.4439,2.99,2.4439,4.5839,0,1.35-1.1118,4.4941-5.6919,4.4941a7.7373,7.7373,0,0,1-4.8-1.3981l1.396-2.53a4.3332,4.3332,0,0,0,2.616,1.0679c.916,0,1.92-.458,1.92-1.5919,0-1.22-1.4822-2.1161-2.6822-3.162-1.592-1.396-2.5319-2.206-2.5319-4.08,0-2.444,2.466-4.102,5.3459-4.102a8.1258,8.1258,0,0,1,3.9922,1.026l-1.178,2.4"/><path class="cls-7" d="M493.4554,629.4209v-2.16h-.82v-.276h2.0561v.276h-.8161v2.16Zm4.4441,0h-.424V627.625h-.012l-.9641,1.7959h-.2l-.896-1.7959h-.008v1.7959h-.344V626.985h.488l.918,1.8259.9939-1.8259H497.9v2.4359"/><path class="cls-7" d="M330.3429,612.5576a5.8213,5.8213,0,0,1,4.2078-4.886c5.154-1.464,7.9121-1.194,17.154-1.27-5.54,4.9579-9.9639,12.77-8.9739,20.414-1.99-1.63-3.3339-3.96-5.062-5.8221a19.2523,19.2523,0,0,0,1.668-3.8879c.6121-2.312,2.2781-2.858,4.39-2.7941.1582.006-.124-1.78-.708-1.938-1.574-.426-2.906.08-4.7339-.6259a2.2275,2.2275,0,0,0-1.7439.332c-1.5.766-2.45,2.4039-4.1382,2.922Z"/><path class="cls-7" d="M302.087,611.0615a25.0925,25.0925,0,0,1,9.9539-4.324c4.7161-.8619,9.8259-.926,13.3479,2.47,6.654,6.408,12.0422,13.1339,17.8782,20.456.23.2879.21,1.076.01,1.19a83.7242,83.7242,0,0,1-12.6721,5.934,2.1882,2.1882,0,0,1-2.03-.448c-6.6538-6.046-11.21-13.282-17.5959-19.572a21.321,21.321,0,0,0-8.7239-5.1861c-.2642-.0819-.312-.42-.168-.52"/><path class="cls-7" d="M325.3409,640.5615a42.83,42.83,0,0,0-11.9382,12.718,26.5063,26.5063,0,0,1,.48-14.968c1.67-4.6759,1.99-9.2159,2.212-14.09,3.0358,3.496,6.4819,7.36,9.32,10.866Z"/><rect class="cls-3" x="267.4632" y="533.9046" width="260.228" height="32.484"/><path class="cls-5" d="M286.2093,553.2236a1.9641,1.9641,0,1,1-1.9641,1.9641,1.9631,1.9631,0,0,1,1.9641-1.9641"/><path class="cls-5" d="M286.2093,543.1434a1.9641,1.9641,0,1,1-1.9641,1.9641,1.9619,1.9619,0,0,1,1.9641-1.9641"/><path class="cls-5" d="M298.3011,553.2236a1.9641,1.9641,0,1,1-1.9641,1.9641,1.9632,1.9632,0,0,1,1.9641-1.9641"/><path class="cls-5" d="M298.3011,543.1434a1.9641,1.9641,0,1,1-1.9641,1.9641,1.962,1.962,0,0,1,1.9641-1.9641"/><path class="cls-5" d="M313.2581,553.2119a1.9641,1.9641,0,1,1-1.9641,1.9641,1.9618,1.9618,0,0,1,1.9641-1.9641"/><path class="cls-5" d="M313.2581,543.1318a1.9641,1.9641,0,1,1-1.9641,1.9641,1.9619,1.9619,0,0,1,1.9641-1.9641"/><path class="cls-5" d="M325.35,553.2119a1.9641,1.9641,0,1,1-1.9622,1.9641,1.9618,1.9618,0,0,1,1.9622-1.9641"/><path class="cls-5" d="M325.35,543.1318a1.9641,1.9641,0,1,1-1.9622,1.9641,1.9619,1.9619,0,0,1,1.9622-1.9641"/><path class="cls-5" d="M340.9593,553.2119a1.9641,1.9641,0,1,1-1.9641,1.9641,1.9618,1.9618,0,0,1,1.9641-1.9641"/><path class="cls-5" d="M340.9593,543.1318a1.9641,1.9641,0,1,1-1.9641,1.9621,1.9615,1.9615,0,0,1,1.9641-1.9621"/><path class="cls-5" d="M353.0511,553.2119a1.9641,1.9641,0,1,1-1.9622,1.9641,1.9635,1.9635,0,0,1,1.9622-1.9641"/><path class="cls-5" d="M353.0511,543.1318a1.9641,1.9641,0,1,1-1.9622,1.9621,1.9632,1.9632,0,0,1,1.9622-1.9621"/><path class="cls-5" d="M368.2659,553.2119a1.9641,1.9641,0,1,1-1.9621,1.9641,1.9623,1.9623,0,0,1,1.9621-1.9641"/><path class="cls-5" d="M368.2659,543.1318a1.9641,1.9641,0,1,1-1.9621,1.9621,1.962,1.962,0,0,1,1.9621-1.9621"/><path class="cls-5" d="M382.8655,553.2119a1.9641,1.9641,0,1,1-1.9641,1.9641,1.9618,1.9618,0,0,1,1.9641-1.9641"/><path class="cls-5" d="M382.8655,543.1318a1.9641,1.9641,0,1,1-1.9641,1.9621,1.9615,1.9615,0,0,1,1.9641-1.9621"/><path class="cls-5" d="M397.3167,553.2119a1.9641,1.9641,0,1,1-1.9622,1.9641,1.9623,1.9623,0,0,1,1.9622-1.9641"/><path class="cls-5" d="M397.3167,543.1318a1.9641,1.9641,0,1,1-1.9622,1.9641,1.9624,1.9624,0,0,1,1.9622-1.9641"/><path class="cls-5" d="M410.2229,553.2139a1.963,1.963,0,1,1-1.9621,1.962,1.9618,1.9618,0,0,1,1.9621-1.962"/><path class="cls-5" d="M410.2229,543.1318a1.9641,1.9641,0,1,1-1.9621,1.9641,1.9623,1.9623,0,0,1,1.9621-1.9641"/><path class="cls-5" d="M423.44,553.2119a1.9641,1.9641,0,1,1-1.9641,1.9641,1.9632,1.9632,0,0,1,1.9641-1.9641"/><path class="cls-5" d="M423.44,543.1318a1.9641,1.9641,0,1,1-1.9641,1.9641,1.962,1.962,0,0,1,1.9641-1.9641"/><path class="cls-5" d="M436.4593,553.2119a1.9641,1.9641,0,1,1-1.9641,1.9641,1.9618,1.9618,0,0,1,1.9641-1.9641"/><path class="cls-5" d="M436.4593,543.1318a1.9641,1.9641,0,1,1-1.9641,1.9641,1.9619,1.9619,0,0,1,1.9641-1.9641"/><path class="cls-5" d="M451.3518,553.2119a1.9641,1.9641,0,1,1-1.9621,1.9641,1.9632,1.9632,0,0,1,1.9621-1.9641"/><path class="cls-5" d="M451.3518,543.1318a1.9641,1.9641,0,1,1-1.9621,1.9641,1.962,1.962,0,0,1,1.9621-1.9641"/><path class="cls-5" d="M464.5179,553.2119a1.9641,1.9641,0,1,1-1.9622,1.9641,1.9635,1.9635,0,0,1,1.9622-1.9641"/><path class="cls-5" d="M464.5179,543.1318a1.9641,1.9641,0,1,1-1.9622,1.9641,1.9636,1.9636,0,0,1,1.9622-1.9641"/><path class="cls-5" d="M477.512,553.2119a1.9641,1.9641,0,1,1-1.9641,1.9641,1.9631,1.9631,0,0,1,1.9641-1.9641"/><path class="cls-5" d="M477.512,543.1318a1.9641,1.9641,0,1,1-1.9641,1.9641,1.9619,1.9619,0,0,1,1.9641-1.9641"/><path class="cls-5" d="M491.5667,553.2139a1.963,1.963,0,1,1-1.9622,1.962,1.9619,1.9619,0,0,1,1.9622-1.962"/><path class="cls-5" d="M491.5667,543.1318a1.9641,1.9641,0,1,1-1.9622,1.9641,1.9624,1.9624,0,0,1,1.9622-1.9641"/><path class="cls-5" d="M504.4671,553.2139a1.963,1.963,0,1,1-1.9641,1.962,1.9614,1.9614,0,0,1,1.9641-1.962"/><path class="cls-5" d="M504.4671,543.1318a1.9641,1.9641,0,1,1-1.9641,1.9641,1.9619,1.9619,0,0,1,1.9641-1.9641"/><polyline class="cls-9" points="381.274 530.472 263.87 530.472 263.87 569.8 528.064 569.8 528.064 530.472 412.632 530.472"/><path class="cls-5" d="M272.5452,183.8605a9.3811,9.3811,0,1,1-9.38-9.38,9.3807,9.3807,0,0,1,9.38,9.38"/><path class="cls-8" d="M268.58,183.8605a5.4161,5.4161,0,1,1-5.4161-5.4158,5.4162,5.4162,0,0,1,5.4161,5.4158"/><path class="cls-5" d="M539.428,175.9347a9.3812,9.3812,0,1,1-13.268,0,9.3831,9.3831,0,0,1,13.268,0"/><path class="cls-8" d="M538.2112,182.5675a5.416,5.416,0,1,1-5.416-5.4158,5.4174,5.4174,0,0,1,5.416,5.4158"/><rect class="cls-3" x="607.6551" y="23.1111" width="51.5581" height="119.2091"/><rect class="cls-3" x="617.6292" y="29.3766" width="32.4861" height="104.8621"/><polyline class="cls-9" points="614.209 88.376 614.209 135.684 653.535 135.684 653.535 29.228 614.209 29.228 614.209 75.742"/><text class="cls-10" transform="translate(78.7036 249.0532)">RS-232</text><text class="cls-10" transform="translate(97.2524 188.7217)">I</text><text class="cls-10" transform="translate(104.0913 183.311) scale(0.583)">2</text><text class="cls-10" transform="translate(110.1133 188.7217)">C</text><text class="cls-10" transform="translate(36.4131 80.8188)">CAN</text><text class="cls-11" transform="translate(82 104.0967)">L (GRN)</text><text class="cls-11" transform="translate(82 128.9155)">H (YEL)</text><path class="cls-12" d="M105.6894,483.58a4.4932,4.4932,0,0,1-1.8438,1.7481,5.83,5.83,0,0,1-2.749.6269h-1.0635a5.8185,5.8185,0,0,1-2.7529-.6269,4.4807,4.4807,0,0,1-1.8408-1.76,5.1607,5.1607,0,0,1-.65-2.6113v-3.1582h11.5517v3.2305A5.0016,5.0016,0,0,1,105.6894,483.58Zm-4.5772,1.4082a5.1577,5.1577,0,0,0,2.3125-.4921,3.6361,3.6361,0,0,0,1.5391-1.3887,3.9311,3.9311,0,0,0,.5439-2.0781v-2.2539H95.6142v2.1816a4.0209,4.0209,0,0,0,.5556,2.1348,3.6774,3.6774,0,0,0,1.5547,1.4043,5.161,5.161,0,0,0,2.3086.4921Z"/><path class="cls-12" d="M94.789,488.66h11.5517v.9766H94.789Z"/><path class="cls-12" d="M97.1415,500.7557a4.4132,4.4132,0,0,1-1.8564-6.2949,4.3011,4.3011,0,0,1,1.86-1.5879,6.56,6.56,0,0,1,2.8008-.5625h1.2373a6.5929,6.5929,0,0,1,2.8008.5586,4.2978,4.2978,0,0,1,1.86,1.58,4.2486,4.2486,0,0,1,.6543,2.3515,4.1575,4.1575,0,0,1-2.5107,3.9512,6.6444,6.6444,0,0,1-2.8047.5547H99.9462A6.6725,6.6725,0,0,1,97.1415,500.7557Zm6.4219-.8379a3.3719,3.3719,0,0,0,1.539-1.2168,3.3135,3.3135,0,0,0,.54-1.9,3.2555,3.2555,0,0,0-.54-1.873,3.4117,3.4117,0,0,0-1.5429-1.2168,6.0249,6.0249,0,0,0-2.36-.4258H99.9462a6.0068,6.0068,0,0,0-2.3682.43,3.4516,3.4516,0,0,0-1.5478,1.2246,3.257,3.257,0,0,0-.543,1.877,3.3085,3.3085,0,0,0,.5391,1.9043,3.3443,3.3443,0,0,0,1.5429,1.205,6.2293,6.2293,0,0,0,2.377.4141h1.2529A6.0506,6.0506,0,0,0,103.5634,499.9178Z"/><polyline class="cls-13" points="89.44 301.339 100.648 301.339 100.648 466.911"/><polyline class="cls-13" points="100.649 512.194 100.649 668.67 89.441 668.67"/><text class="cls-10" transform="translate(284.6694 686.5015)">RE<tspan class="cls-14" x="21.5713" y="0">L</tspan><tspan class="cls-15" x="30.7617" y="0">A</tspan><tspan x="40.9268" y="0">Y</tspan></text><polyline class="cls-13" points="246.627 692.001 246.627 683.127 277.345 683.127"/><polyline class="cls-13" points="341.475 683.126 369.341 683.126 369.341 693.1"/><text class="cls-16" transform="translate(441.0239 688.2183)">ANA<tspan class="cls-17" x="33.6748" y="0">L</tspan><tspan x="42.043" y="0">OG IN</tspan></text><text class="cls-18" transform="translate(622.5493 699.1299)">RESET</text><text class="cls-18" transform="translate(678.729 699.1279)">USER</text><polyline class="cls-13" points="423.063 691.934 423.063 683.675 437.093 683.675"/><polyline class="cls-13" points="535.922 682.577 549.854 682.577 549.854 693.101"/><rect class="cls-3" x="102.8459" y="711.2729" width="39.958" height="45.05"/><path class="cls-5" d="M122.8241,731.0727a2.7241,2.7241,0,1,1-2.7222,2.7241,2.7246,2.7246,0,0,1,2.7222-2.7241"/><path class="cls-5" d="M122.8241,743.2642a2.7241,2.7241,0,1,1-2.7222,2.7221,2.7228,2.7228,0,0,1,2.7222-2.7221"/><text class="cls-10" transform="translate(108.5693 699.2188)">RSL</text><text class="cls-10" transform="translate(701.7896 499.3096) rotate(-90)">PWM</text><polyline class="cls-13" points="706.201 668.579 694.993 668.579 694.993 507.563"/><polyline class="cls-13" points="694.992 452.419 694.992 295.986 706.2 295.986"/><path class="cls-5" d="M344.4046,89.28a9.3811,9.3811,0,1,1-9.38-9.38,9.3807,9.3807,0,0,1,9.38,9.38"/><path class="cls-8" d="M340.44,89.28a5.416,5.416,0,1,1-5.416-5.4158A5.4174,5.4174,0,0,1,340.44,89.28"/><path class="cls-5" d="M344.4046,43.7511a9.3811,9.3811,0,1,1-9.38-9.3779,9.3794,9.3794,0,0,1,9.38,9.3779"/><path class="cls-8" d="M340.44,43.7511a5.416,5.416,0,1,1-5.416-5.4138,5.4161,5.4161,0,0,1,5.416,5.4138"/><rect class="cls-19" x="236.4231" y="40.0206" width="66.468" height="53.384"/><polygon class="cls-20" points="253.963 45.48 285.167 45.48 292.737 53.236 292.737 87.946 246.579 87.946 246.579 53.42 253.963 45.48"/><path class="cls-5" d="M263.6116,71.378a1.9642,1.9642,0,1,1-1.9641,1.9622,1.9616,1.9616,0,0,1,1.9641-1.9622"/><path class="cls-5" d="M263.6116,61.298a1.9641,1.9641,0,1,1-1.9641,1.9621,1.9615,1.9615,0,0,1,1.9641-1.9621"/><path class="cls-5" d="M275.7034,71.378a1.9642,1.9642,0,1,1-1.9621,1.9622,1.962,1.962,0,0,1,1.9621-1.9622"/><path class="cls-5" d="M275.7034,61.298a1.9641,1.9641,0,1,1-1.9621,1.9621,1.962,1.962,0,0,1,1.9621-1.9621"/><rect class="cls-19" x="471.4913" y="29.1466" width="87.1479" height="94.458"/><rect class="cls-20" x="482.2933" y="66.0106" width="65.5459" height="38.1741"/><rect class="cls-20" x="496.8772" y="104.1847" width="36.0039" height="8.8621"/><rect class="cls-20" x="503.3392" y="113.0467" width="23.2639" height="7.386"/><rect class="cls-21" x="473.4292" y="104.1847" width="23.448" height="13.292"/><rect class="cls-22" x="532.8811" y="104.1847" width="23.45" height="13.292"/><rect class="cls-19" x="369.233" y="75.3065" width="75.3921" height="33.3101"/><rect class="cls-20" x="371.231" y="76.6488" width="71.4561" height="30.084"/><rect class="cls-19" x="369.2652" y="28.8265" width="75.3921" height="33.3101"/><rect class="cls-20" x="371.263" y="30.1686" width="71.4541" height="30.084"/><text class="cls-23" transform="translate(307.7542 249.5781)">NI <tspan class="cls-24" x="49.4102" y="0">r</tspan><tspan class="cls-25" x="62.856" y="0">oboRIO</tspan></text><rect class="cls-6" x="374.2471" y="79.8985" width="65.3621" height="11.792"/><rect class="cls-6" x="374.2471" y="33.4208" width="65.3621" height="11.792"/><text class="cls-10" transform="translate(703.0913 95.2656)">POWER</text><rect class="cls-26" x="767.9888" y="81.9539" width="16.0342" height="15.1855"/><rect class="cls-27" x="783.1524" y="82.0732" width="10.6027" height="15.1855"/><text class="cls-10" transform="translate(698.1533 121.2251)">STATUS</text><rect class="cls-26" x="767.9888" y="107.9137" width="16.0342" height="15.1855"/><rect class="cls-27" x="783.1524" y="108.0331" width="10.6027" height="15.1855"/><text class="cls-10" transform="translate(708.8398 160.8779)">RADIO</text><rect class="cls-26" x="767.9888" y="147.8269" width="16.0342" height="15.1855"/><rect class="cls-27" x="783.1524" y="147.9462" width="10.6027" height="15.1855"/><text class="cls-10" transform="translate(711.8706 187.7471)">COMM</text><rect class="cls-26" x="767.9888" y="174.4356" width="16.0342" height="15.1855"/><rect class="cls-27" x="783.1524" y="174.555" width="10.6027" height="15.1855"/><text class="cls-10" transform="translate(714.1157 215.6592)">MODE</text><rect class="cls-26" x="767.9888" y="201.0444" width="16.0342" height="15.1855"/><rect class="cls-27" x="783.1524" y="201.1637" width="10.6027" height="15.1855"/><text class="cls-10" transform="translate(731.9204 256.2061)">RSL</text><rect class="cls-26" x="767.9888" y="241.5902" width="16.0342" height="15.1855"/><rect class="cls-27" x="783.1524" y="241.7095" width="10.6027" height="15.1855"/><rect class="cls-28" x="612.1121" y="708.1926" width="108.8485" height="50.9946" rx="9.8548"/><rect class="cls-29" x="626.3787" y="720.0383" width="27.1208" height="27.3032" rx="13.5604"/><rect class="cls-29" x="679.5732" y="720.0383" width="27.1208" height="27.3032" rx="13.5604"/><rect class="cls-3" x="719.8218" y="274.4336" width="46.329" height="413.1708"/><path class="cls-5" d="M745.4653,297.0035a2.7241,2.7241,0,1,1-2.7241-2.7239,2.723,2.723,0,0,1,2.7241,2.7239"/><path class="cls-5" d="M733.2739,297.0035a2.7242,2.7242,0,1,1-2.7222-2.7239,2.7212,2.7212,0,0,1,2.7222,2.7239"/><path class="cls-5" d="M758.1469,297.0035a2.723,2.723,0,1,1-2.7221-2.7239,2.7212,2.7212,0,0,1,2.7221,2.7239"/><path class="cls-5" d="M745.4653,338.2352a2.7241,2.7241,0,1,1-2.7241-2.7237,2.7231,2.7231,0,0,1,2.7241,2.7237"/><path class="cls-5" d="M733.2739,338.2352a2.7242,2.7242,0,1,1-2.7222-2.7237,2.7213,2.7213,0,0,1,2.7222,2.7237"/><path class="cls-5" d="M758.1469,338.2352a2.723,2.723,0,1,1-2.7221-2.7237,2.7213,2.7213,0,0,1,2.7221,2.7237"/><path class="cls-5" d="M745.4653,379.467a2.7241,2.7241,0,1,1-2.7241-2.7235,2.723,2.723,0,0,1,2.7241,2.7235"/><path class="cls-5" d="M733.2739,379.467a2.7242,2.7242,0,1,1-2.7222-2.7235,2.7212,2.7212,0,0,1,2.7222,2.7235"/><path class="cls-5" d="M758.1469,379.467a2.723,2.723,0,1,1-2.7221-2.7235,2.7212,2.7212,0,0,1,2.7221,2.7235"/><path class="cls-5" d="M745.4653,420.6987a2.7241,2.7241,0,1,1-2.7241-2.7232,2.723,2.723,0,0,1,2.7241,2.7232"/><path class="cls-5" d="M733.2739,420.6987a2.7242,2.7242,0,1,1-2.7222-2.7232,2.7212,2.7212,0,0,1,2.7222,2.7232"/><path class="cls-5" d="M758.1469,420.6987a2.723,2.723,0,1,1-2.7221-2.7232,2.7212,2.7212,0,0,1,2.7221,2.7232"/><path class="cls-5" d="M745.4653,461.9305a2.7241,2.7241,0,1,1-2.7241-2.723,2.723,2.723,0,0,1,2.7241,2.723"/><path class="cls-5" d="M733.2739,461.9305a2.7242,2.7242,0,1,1-2.7222-2.723,2.7212,2.7212,0,0,1,2.7222,2.723"/><path class="cls-5" d="M758.1469,461.9305a2.723,2.723,0,1,1-2.7221-2.723,2.7212,2.7212,0,0,1,2.7221,2.723"/><path class="cls-5" d="M745.4653,503.1622a2.7241,2.7241,0,1,1-2.7241-2.7228,2.723,2.723,0,0,1,2.7241,2.7228"/><path class="cls-5" d="M733.2739,503.1622a2.7242,2.7242,0,1,1-2.7222-2.7228,2.7212,2.7212,0,0,1,2.7222,2.7228"/><path class="cls-5" d="M758.1469,503.1622a2.723,2.723,0,1,1-2.7221-2.7228,2.7212,2.7212,0,0,1,2.7221,2.7228"/><path class="cls-5" d="M745.4653,544.394a2.7241,2.7241,0,1,1-2.7241-2.7226,2.723,2.723,0,0,1,2.7241,2.7226"/><path class="cls-5" d="M733.2739,544.394a2.7242,2.7242,0,1,1-2.7222-2.7226,2.7212,2.7212,0,0,1,2.7222,2.7226"/><path class="cls-5" d="M758.1469,544.394a2.723,2.723,0,1,1-2.7221-2.7226,2.7212,2.7212,0,0,1,2.7221,2.7226"/><path class="cls-5" d="M745.4653,585.6257a2.7241,2.7241,0,1,1-2.7241-2.7223,2.723,2.723,0,0,1,2.7241,2.7223"/><path class="cls-5" d="M733.2739,585.6257a2.7242,2.7242,0,1,1-2.7222-2.7223,2.7212,2.7212,0,0,1,2.7222,2.7223"/><path class="cls-5" d="M758.1469,585.6257a2.723,2.723,0,1,1-2.7221-2.7223,2.7212,2.7212,0,0,1,2.7221,2.7223"/><path class="cls-5" d="M745.4653,626.8575a2.7241,2.7241,0,1,1-2.7241-2.7221,2.7231,2.7231,0,0,1,2.7241,2.7221"/><path class="cls-5" d="M733.2739,626.8575a2.7242,2.7242,0,1,1-2.7222-2.7221,2.7213,2.7213,0,0,1,2.7222,2.7221"/><path class="cls-5" d="M758.1469,626.8575a2.723,2.723,0,1,1-2.7221-2.7221,2.7212,2.7212,0,0,1,2.7221,2.7221"/><path class="cls-5" d="M745.4653,668.0893a2.7241,2.7241,0,1,1-2.7241-2.722,2.723,2.723,0,0,1,2.7241,2.722"/><path class="cls-5" d="M733.2739,668.0893a2.7242,2.7242,0,1,1-2.7222-2.722,2.7212,2.7212,0,0,1,2.7222,2.722"/><path class="cls-5" d="M758.1469,668.0893a2.723,2.723,0,1,1-2.7221-2.722,2.7212,2.7212,0,0,1,2.7221,2.722"/><text class="cls-10" transform="translate(82 41.0006)">INPUT</text><text class="cls-30" transform="translate(82 54.5743)">7-16V </text><line class="cls-31" x1="119.1194" y1="53.1972" x2="122.5005" y2="53.1972"/><line class="cls-31" x1="124.3595" y1="53.1972" x2="127.7364" y2="53.1972"/><line class="cls-31" x1="129.6036" y1="53.1972" x2="132.9847" y2="53.1972"/><line class="cls-31" x1="119.1195" y1="49.804" x2="132.9847" y2="49.804"/><text class="cls-30" transform="translate(82 67.5992)">45 W MAX</text><line class="cls-32" x1="140.1526" y1="183.0038" x2="140.1526" y2="207.4548"/><line class="cls-32" x1="153.8514" y1="157.6072" x2="153.8514" y2="180.5988"/><line class="cls-32" x1="167.5421" y1="181.1604" x2="167.5421" y2="204.171"/><line class="cls-32" x1="181.2328" y1="157.3677" x2="181.2328" y2="180.3582"/><line class="cls-32" x1="135.6029" y1="209.5978" x2="144.707" y2="209.5978"/><line class="cls-32" x1="133.3867" y1="207.4507" x2="146.9191" y2="207.4507"/><rect class="cls-33" x="138.4437" y="179.225" width="3.423" height="3.4251"/><rect class="cls-12" x="152.1345" y="179.225" width="3.4266" height="3.4251"/><rect class="cls-12" x="165.8299" y="179.2216" width="3.4251" height="3.425"/><rect class="cls-12" x="179.5281" y="179.225" width="3.421" height="3.4251"/><polygon class="cls-32" points="133.752 163.817 133.752 198.05 187.626 198.042 187.626 163.817 133.752 163.817"/><text class="cls-34" transform="translate(157.688 213.0811) scale(1 1.0622)">SCL</text><text class="cls-35" transform="translate(142.2476 153.4375) scale(1 1.0115)">3.3V S<tspan class="cls-36" x="39.2383" y="0">D</tspan><tspan x="48.0303" y="0">A</tspan></text><line class="cls-32" x1="137.6161" y1="211.749" x2="142.6898" y2="211.749"/><line class="cls-32" x1="153.1573" y1="244.4232" x2="153.1573" y2="268.7564"/><line class="cls-32" x1="166.8521" y1="244.7965" x2="166.8521" y2="276.383"/><line class="cls-32" x1="180.5428" y1="244.7966" x2="180.5428" y2="265.2333"/><line class="cls-32" x1="150.6205" y1="273.0547" x2="155.6941" y2="273.0547"/><line class="cls-32" x1="148.6072" y1="270.9035" x2="157.7114" y2="270.9035"/><line class="cls-32" x1="146.3911" y1="268.7563" x2="159.9235" y2="268.7563"/><rect class="cls-33" x="178.8346" y="240.9986" width="3.4251" height="3.4246"/><rect class="cls-33" x="151.4476" y="240.9986" width="3.4226" height="3.4246"/><rect class="cls-33" x="165.1439" y="240.9986" width="3.421" height="3.4246"/><rect class="cls-32" x="146.3141" y="225.1885" width="41.0802" height="34.2324"/><text class="cls-35" transform="translate(170.0571 275.7969) scale(1 1.0115)">TXD</text><text class="cls-35" transform="translate(155.3022 286.7734) scale(1 1.0115)">RXD</text><line class="cls-32" x1="34.3733" y1="702.9607" x2="34.3733" y2="713.859"/><line class="cls-32" x1="48.0761" y1="702.8876" x2="48.3927" y2="721.2989"/><line class="cls-32" x1="61.7668" y1="702.9607" x2="61.7668" y2="710.8066"/><line class="cls-32" x1="31.8365" y1="718.1613" x2="36.9101" y2="718.1613"/><line class="cls-32" x1="29.8232" y1="716.006" x2="38.9273" y2="716.006"/><line class="cls-32" x1="27.607" y1="713.8628" x2="41.1394" y2="713.8628"/><text class="cls-37" transform="translate(41.9556 731.4531) scale(1 1.0056)">5V</text><text class="cls-37" transform="translate(58.3394 720.1377) scale(1 1.0056)">S</text><rect class="cls-38" x="60.2181" y="699.4252" width="3.1791" height="3.4581"/><rect class="cls-38" x="46.6449" y="699.6812" width="3.1791" height="3.4581"/><rect class="cls-38" x="32.8875" y="699.6362" width="3.1791" height="3.4581"/><line class="cls-32" x1="78.9755" y1="761.0465" x2="84.0491" y2="761.0465"/><line class="cls-32" x1="76.9622" y1="758.8871" x2="86.0663" y2="758.8871"/><line class="cls-32" x1="74.7501" y1="756.7441" x2="88.2825" y2="756.7441"/><line class="cls-32" x1="81.5163" y1="748.3625" x2="94.0542" y2="748.3625"/><line class="cls-32" x1="93.9894" y1="734.615" x2="85.9852" y2="734.615"/><line class="cls-32" x1="81.5123" y1="748.0168" x2="81.5123" y2="756.7441"/><line class="cls-32" x1="81.5164" y1="755.3682" x2="81.5164" y2="748.7116"/><text class="cls-37" transform="translate(77.8394 738.375) scale(1 1.0056)">S</text><rect class="cls-38" x="94.0588" y="732.8107" width="3.1791" height="3.4581"/><rect class="cls-38" x="93.8772" y="746.6723" width="3.1791" height="3.4581"/><line class="cls-32" x1="201.8061" y1="761.0425" x2="206.8798" y2="761.0425"/><line class="cls-39" x1="199.7929" y1="758.8871" x2="208.897" y2="758.8871"/><line class="cls-32" x1="197.5807" y1="756.74" x2="211.1131" y2="756.74"/><line class="cls-32" x1="216.9256" y1="734.615" x2="208.8158" y2="734.615"/><line class="cls-32" x1="216.9256" y1="720.8917" x2="208.8158" y2="720.8917"/><polyline class="cls-32" points="204.347 756.74 204.347 748.164 216.926 748.164"/><text class="cls-40" transform="translate(184.1865 723.3735) scale(1 1.0605)">FWD</text><text class="cls-41" transform="translate(188.2612 737.3062) scale(1 1.1297)">REV</text><rect class="cls-38" x="217.0396" y="719.0689" width="3.1791" height="3.4581"/><rect class="cls-38" x="216.7176" y="732.7824" width="3.1791" height="3.4581"/><rect class="cls-38" x="216.6888" y="746.5292" width="3.1791" height="3.4581"/><line class="cls-42" x1="589.5578" y1="761.1967" x2="594.6314" y2="761.1967"/><line class="cls-42" x1="587.5486" y1="759.0455" x2="596.6527" y2="759.0455"/><line class="cls-42" x1="585.3324" y1="756.8983" x2="598.8647" y2="756.8983"/><line class="cls-42" x1="587.6907" y1="734.416" x2="579.6662" y2="734.416"/><line class="cls-42" x1="587.6866" y1="720.8511" x2="579.6621" y2="720.8511"/><polyline class="cls-42" points="592.099 756.898 592.099 748.375 579.666 748.375"/><text class="cls-40" transform="translate(588.5664 723.7188) scale(1 1.0605)">S</text><text class="cls-41" transform="translate(589.2227 737.8921) scale(1 1.1297)">5V</text><rect class="cls-38" x="576.2506" y="719.0241" width="3.1791" height="3.4581"/><rect class="cls-38" x="576.4587" y="732.552" width="3.1791" height="3.4581"/><rect class="cls-38" x="576.4119" y="746.4962" width="3.1791" height="3.4581"/><line class="cls-32" x1="753.2699" y1="713.5719" x2="758.3435" y2="713.5719"/><line class="cls-32" x1="751.2608" y1="711.4247" x2="760.3607" y2="711.4247"/><line class="cls-32" x1="749.0486" y1="709.2776" x2="762.5809" y2="709.2776"/><line class="cls-32" x1="728.4125" y1="698.3024" x2="728.4125" y2="706.2132"/><line class="cls-32" x1="742.1073" y1="698.3632" x2="742.1073" y2="716.5026"/><line class="cls-32" x1="755.7979" y1="698.3024" x2="755.7979" y2="709.6471"/><text class="cls-37" transform="translate(725.1021 715.5562) scale(1 1.0056)">S</text><text class="cls-37" transform="translate(735.9209 726.564) scale(1 1.0056)">6V</text><rect class="cls-38" x="726.7127" y="695.0321" width="3.1791" height="3.4581"/><rect class="cls-38" x="740.5108" y="695.0321" width="3.1791" height="3.4581"/><rect class="cls-38" x="754.152" y="695.0321" width="3.1791" height="3.4581"/><path class="cls-43" d="M610.2948,650.6645a6.8485,6.8485,0,0,0,6.8555-6.8393"/><path class="cls-43" d="M610.2948,636.9738a6.853,6.853,0,0,0-6.8394,6.8516"/><text class="cls-44" transform="translate(560.0601 663.8687) scale(1 1.0349)"><tspan class="cls-45">A</tspan><tspan x="7.5884" y="0">CCELEROMETER</tspan></text><text class="cls-44" transform="translate(605.9756 610.7017) scale(1 1.0349)">Y</text><text class="cls-44" transform="translate(593.4272 638.2969) scale(1 1.0349)">Z</text><text class="cls-44" transform="translate(638.7725 647.7798) scale(1 1.0349)">X</text><line class="cls-46" x1="634.3113" y1="644.1661" x2="610.2987" y2="644.1661"/><line class="cls-46" x1="610.2948" y1="644.1661" x2="610.2948" y2="617.0608"/><path class="cls-32" d="M610.2948,650.6645a6.8454,6.8454,0,1,0-6.8394-6.8393A6.8485,6.8485,0,0,0,610.2948,650.6645Z"/><polyline class="cls-12" points="637.936 644.166 633.211 642.344 634.332 644.166 633.211 645.985"/><polyline class="cls-47" points="637.936 644.166 633.211 642.344 634.332 644.166 633.211 645.985"/><polyline class="cls-12" points="610.295 613.558 608.497 618.291 610.295 616.821 612.105 618.291 610.295 613.558"/><polyline class="cls-47" points="610.295 613.558 608.497 618.291 610.295 616.821 612.105 618.291 610.295 613.558"/><line class="cls-48" x1="633.2114" y1="645.9845" x2="637.9358" y2="644.1661"/><line class="cls-47" x1="633.2114" y1="645.9845" x2="637.9358" y2="644.1661"/><path class="cls-12" d="M610.2987,645.3716a1.5465,1.5465,0,1,0-1.5424-1.5464,1.552,1.552,0,0,0,1.5424,1.5464"/><path class="cls-32" d="M610.2987,645.3716a1.5465,1.5465,0,1,0-1.5424-1.5464A1.552,1.552,0,0,0,610.2987,645.3716Z"/><line class="cls-43" x1="615.0049" y1="272.2148" x2="656.085" y2="272.2148"/><line class="cls-32" x1="606.2743" y1="248.2428" x2="629.9621" y2="248.2428"/><line class="cls-32" x1="606.2743" y1="234.5481" x2="629.9621" y2="234.5481"/><line class="cls-32" x1="606.2746" y1="220.8575" x2="629.9624" y2="220.8575"/><line class="cls-32" x1="615.009" y1="169.5122" x2="615.009" y2="272.2148"/><line class="cls-32" x1="606.2743" y1="207.1667" x2="629.9621" y2="207.1667"/><line class="cls-32" x1="606.2743" y1="193.4801" x2="629.9621" y2="193.4801"/><line class="cls-32" x1="656.0894" y1="272.2264" x2="656.0894" y2="169.5239"/><line class="cls-43" x1="656.0892" y1="169.5081" x2="615.009" y2="169.5081"/><line class="cls-49" x1="640.6817" y1="248.251" x2="664.3734" y2="248.251"/><line class="cls-49" x1="606.2743" y1="248.2428" x2="629.9621" y2="248.2428"/><line class="cls-49" x1="606.2702" y1="234.5522" x2="629.958" y2="234.5522"/><line class="cls-49" x1="640.6776" y1="234.5522" x2="664.3693" y2="234.5522"/><line class="cls-49" x1="606.2702" y1="220.8614" x2="629.958" y2="220.8614"/><line class="cls-49" x1="640.6776" y1="220.8614" x2="664.3693" y2="220.8614"/><line class="cls-49" x1="595.3762" y1="184.6397" x2="595.3762" y2="193.5449"/><line class="cls-49" x1="606.2702" y1="207.1667" x2="629.958" y2="207.1667"/><line class="cls-49" x1="640.6776" y1="207.1667" x2="664.3693" y2="207.1667"/><line class="cls-49" x1="592.8353" y1="197.8474" x2="597.9129" y2="197.8474"/><line class="cls-49" x1="590.8302" y1="195.6961" x2="599.9302" y2="195.6961"/><line class="cls-49" x1="588.614" y1="193.549" x2="602.1422" y2="193.549"/><line class="cls-49" x1="606.2702" y1="193.472" x2="629.958" y2="193.472"/><line class="cls-49" x1="640.6776" y1="193.472" x2="664.3693" y2="193.472"/><rect class="cls-49" x="615.009" y="169.5123" width="41.0802" height="102.7025"/><text class="cls-35" transform="translate(666.4819 196.4033) scale(1 1.0115)">CS0</text><text class="cls-35" transform="translate(666.4756 210.0796) scale(1 1.0115)">CS1</text><text class="cls-35" transform="translate(666.4678 224.022) scale(1 1.0115)">5V</text><text class="cls-35" transform="translate(666.46 237.7764) scale(1 1.0115)">CS2</text><text class="cls-35" transform="translate(666.6523 251.4814) scale(1 1.0115)">CS3</text><text class="cls-35" transform="translate(574.4868 211.0049) scale(1 1.0115)">SCLK</text><text class="cls-35" transform="translate(573.1929 224.7017) scale(1 1.0115)">MOSI</text><text class="cls-35" transform="translate(573.1851 238.4561) scale(1 1.0115)">MISO</text><text class="cls-35" transform="translate(580.313 252.647) scale(1 1.0115)">3.3V</text><rect class="cls-38" x="628.3336" y="191.4557" width="3.1791" height="3.4581"/><rect class="cls-38" x="628.3336" y="205.1423" width="3.1791" height="3.4581"/><rect class="cls-38" x="628.3339" y="218.8331" width="3.1791" height="3.4581"/><rect class="cls-38" x="628.3336" y="232.5237" width="3.1791" height="3.4581"/><rect class="cls-38" x="628.3336" y="246.2184" width="3.1791" height="3.4581"/><rect class="cls-38" x="639.0532" y="246.2266" width="3.1791" height="3.4581"/><rect class="cls-38" x="639.0491" y="232.5278" width="3.1791" height="3.4581"/><rect class="cls-38" x="639.0491" y="218.837" width="3.1791" height="3.4581"/><rect class="cls-38" x="639.0491" y="205.1423" width="3.1791" height="3.4581"/><rect class="cls-38" x="639.0491" y="191.4476" width="3.1791" height="3.4581"/><text class="cls-10" transform="translate(621.8931 159.1626)">SPI</text><path class="cls-5" d="M630.3807,58.2456a2.7241,2.7241,0,1,1-2.7241-2.7239,2.723,2.723,0,0,1,2.7241,2.7239"/><path class="cls-5" d="M643.0624,58.2456a2.7231,2.7231,0,1,1-2.7222-2.7239,2.7213,2.7213,0,0,1,2.7222,2.7239"/><path class="cls-5" d="M630.13,70.027a2.7241,2.7241,0,1,1-2.7241-2.7239A2.723,2.723,0,0,1,630.13,70.027"/><path class="cls-5" d="M642.812,70.027a2.7231,2.7231,0,1,1-2.7222-2.7239,2.7212,2.7212,0,0,1,2.7222,2.7239"/><path class="cls-5" d="M630.13,81.8085a2.7241,2.7241,0,1,1-2.7241-2.7239,2.723,2.723,0,0,1,2.7241,2.7239"/><path class="cls-5" d="M642.812,81.8085a2.7231,2.7231,0,1,1-2.7222-2.7239,2.7212,2.7212,0,0,1,2.7222,2.7239"/><path class="cls-5" d="M630.13,93.59a2.7241,2.7241,0,1,1-2.7241-2.7239A2.7231,2.7231,0,0,1,630.13,93.59"/><path class="cls-5" d="M642.812,93.59A2.7231,2.7231,0,1,1,640.09,90.866,2.7213,2.7213,0,0,1,642.812,93.59"/><path class="cls-5" d="M630.13,105.3713a2.7241,2.7241,0,1,1-2.7241-2.7238,2.723,2.723,0,0,1,2.7241,2.7238"/><path class="cls-5" d="M642.58,105.3713a2.7231,2.7231,0,1,1-2.7222-2.7238,2.7212,2.7212,0,0,1,2.7222,2.7238"/></g><g id="Shader"><g class="cls-50"><path class="cls-48" d="M53.0859,781.5293a50.0539,50.0539,0,0,1-49.997-49.9976V53.0859A50.0539,50.0539,0,0,1,53.0859,3.0884H743.1943a50.0539,50.0539,0,0,1,49.9971,49.9975V731.5317a50.054,50.054,0,0,1-49.9971,49.9976ZM406.05,662.2256a11.0794,11.0794,0,0,0-11.1816,10.9477v80.9893A11.08,11.08,0,0,0,406.05,765.11H564.1953a11.08,11.08,0,0,0,11.1817-10.9478V673.1733a11.0794,11.0794,0,0,0-11.1817-10.9477Z"/></g><path class="cls-51" d="M743.1941,6A47.0872,47.0872,0,0,1,790.28,53.0859v678.446a47.0858,47.0858,0,0,1-47.0859,47.086H53.0858A47.0858,47.0858,0,0,1,6,731.5319V53.0859A47.0872,47.0872,0,0,1,53.0858,6H743.1941M406.05,768.022H564.1951a13.9774,13.9774,0,0,0,14.0925-13.8592v-80.99a13.9774,13.9774,0,0,0-14.0925-13.8594H406.05a13.9773,13.9773,0,0,0-14.0925,13.8594v80.99A13.9773,13.9773,0,0,0,406.05,768.022M743.1941.1768H53.0858A52.969,52.969,0,0,0,.1768,53.0859v678.446a52.9689,52.9689,0,0,0,52.909,52.9091H743.1941a52.9689,52.9689,0,0,0,52.9089-52.9091V53.0859A52.969,52.969,0,0,0,743.1941.1768ZM406.05,762.1989a8.1645,8.1645,0,0,1-8.2694-8.0361v-80.99a8.1645,8.1645,0,0,1,8.2694-8.0363H564.1951a8.1645,8.1645,0,0,1,8.2694,8.0363v80.99a8.1645,8.1645,0,0,1-8.2694,8.0361Z"/></g><g id="Edge_Fix_TOP_" data-name="Edge Fix (TOP)"><path class="cls-12" d="M-.4346-.99V786.73H797.5832V-.99ZM749.3122,777.8268l-698.0228.5137C25.505,776.276,9.5742,758.1769,6.4125,733.2L7.1764,47.5355c2.03-21.1,20.1644-39.3677,40.9884-41.6014l700.17.1456c21.0427,2.4863,38.8976,20.007,41.9894,40.9878L790.4,731.1689C790.4256,756.4029,774.24,773.57,749.3122,777.8268Z"/></g></svg>