<svg xmlns="http://www.w3.org/2000/svg" viewBox="0 0 800 785"><defs><style>.cls-1{fill:#434343;}.cls-2{fill:#4f4e51;}.cls-3{fill:#323031;}.cls-4{fill:#424242;}.cls-5{fill:#6a5f27;}.cls-6{fill:#5a5a5d;}.cls-7{fill:#f2f2f2;}.cls-8{fill:#221f1f;}.cls-13,.cls-30,.cls-31,.cls-41,.cls-42,.cls-46,.cls-47,.cls-49,.cls-9{fill:none;}.cls-9{stroke:#5a5a5d;stroke-width:5.416px;}.cls-13,.cls-9{stroke-miterlimit:10;}.cls-10{font-size:16.248px;}.cls-10,.cls-11,.cls-12,.cls-18,.cls-23,.cls-29,.cls-32,.cls-33,.cls-34,.cls-36,.cls-37,.cls-38,.cls-39,.cls-40,.cls-43,.cls-45{fill:#fff;}.cls-10,.cls-11,.cls-18,.cls-23,.cls-29,.cls-33,.cls-34,.cls-36,.cls-39,.cls-40,.cls-43,.cls-45{font-family:Heebo-Light, Heebo;font-weight:300;}.cls-11{font-size:10.832px;}.cls-13,.cls-31,.cls-32,.cls-37,.cls-38,.cls-46,.cls-47,.cls-49{stroke:#fff;}.cls-13{stroke-width:2.708px;}.cls-14{letter-spacing:0.009em;}.cls-15{letter-spacing:-0.058em;}.cls-16{letter-spacing:0em;}.cls-17{letter-spacing:-0.031em;}.cls-18{font-size:11.7401px;}.cls-19{fill:#9b9b9b;}.cls-20{fill:#171717;}.cls-21{fill:#f3ea07;}.cls-22{fill:#7cc244;}.cls-23{font-size:32.496px;}.cls-24{letter-spacing:-0.013em;}.cls-25{fill:#51545a;}.cls-26{fill:#3c3d42;}.cls-27{fill:#5a5d65;}.cls-28{fill:#23446c;}.cls-29{font-size:11.1981px;}.cls-30,.cls-41{stroke:#f1f2f2;}.cls-30,.cls-31,.cls-32,.cls-38,.cls-41,.cls-42,.cls-46{stroke-miterlimit:2;}.cls-31,.cls-32,.cls-37,.cls-38,.cls-41,.cls-42,.cls-49{stroke-width:0.686px;}.cls-32,.cls-37,.cls-47{stroke-linecap:round;}.cls-33{font-size:10.9221px;}.cls-34{font-size:11.699px;}.cls-35{letter-spacing:-0.019em;}.cls-36{font-size:10.9278px;}.cls-37,.cls-47,.cls-49{stroke-linejoin:round;}.cls-39{font-size:9.9074px;}.cls-40{font-size:9.6078px;}.cls-42{stroke:#020202;}.cls-43,.cls-45{font-size:11.4352px;}.cls-43{letter-spacing:-0.02em;}.cls-44{letter-spacing:0em;}.cls-46{stroke-width:0.588px;}.cls-47{stroke-width:0.506px;}.cls-48{fill:#231f20;}</style></defs><g id="roboRIO"><path class="cls-1" d="M743.4283,777.3133,44.21,778.2444A41.8157,41.8157,0,0,1,2.45,736.3732V45.4406A41.8157,41.8157,0,0,1,44.21,3.5694l704.5444-.9311a41.8157,41.8157,0,0,1,41.76,41.8712V730.102c2.3995,27.8894-12.3473,47.6874-38.9831,47.21"/><rect class="cls-2" x="14.8443" y="18.2242" width="763.4358" height="747.9174" rx="29.4466"/><rect class="cls-3" x="21.2449" y="279.4351" width="46.329" height="413.1708"/><path class="cls-4" d="M550.2439,136.6788H237.89a19.4985,19.4985,0,0,1-19.498-19.4978V36.6549A19.4985,19.4985,0,0,1,237.89,17.1568h312.354a19.4986,19.4986,0,0,1,19.4978,19.4981V117.181a19.4985,19.4985,0,0,1-19.4978,19.4978"/><rect class="cls-3" x="252.906" y="521.858" width="279.7219" height="51.5601"/><path class="cls-5" d="M46.8884,302.0049a2.7242,2.7242,0,1,1-2.7242-2.7238,2.7231,2.7231,0,0,1,2.7242,2.7238"/><path class="cls-5" d="M34.697,302.0049a2.7242,2.7242,0,1,1-2.7222-2.7238,2.7213,2.7213,0,0,1,2.7222,2.7238"/><path class="cls-5" d="M59.57,302.0049a2.723,2.723,0,1,1-2.7222-2.7238,2.7212,2.7212,0,0,1,2.7222,2.7238"/><path class="cls-5" d="M46.8884,343.2367a2.7242,2.7242,0,1,1-2.7242-2.7237,2.7232,2.7232,0,0,1,2.7242,2.7237"/><path class="cls-5" d="M34.697,343.2367a2.7242,2.7242,0,1,1-2.7222-2.7237,2.7213,2.7213,0,0,1,2.7222,2.7237"/><path class="cls-5" d="M59.57,343.2367a2.723,2.723,0,1,1-2.7222-2.7237,2.7213,2.7213,0,0,1,2.7222,2.7237"/><path class="cls-5" d="M46.8884,384.4685a2.7242,2.7242,0,1,1-2.7242-2.7235,2.7231,2.7231,0,0,1,2.7242,2.7235"/><path class="cls-5" d="M34.697,384.4685a2.7242,2.7242,0,1,1-2.7222-2.7235,2.7213,2.7213,0,0,1,2.7222,2.7235"/><path class="cls-5" d="M59.57,384.4685a2.723,2.723,0,1,1-2.7222-2.7235,2.7212,2.7212,0,0,1,2.7222,2.7235"/><path class="cls-5" d="M46.8884,425.7a2.7242,2.7242,0,1,1-2.7242-2.7232A2.7231,2.7231,0,0,1,46.8884,425.7"/><path class="cls-5" d="M34.697,425.7a2.7242,2.7242,0,1,1-2.7222-2.7232A2.7213,2.7213,0,0,1,34.697,425.7"/><path class="cls-5" d="M59.57,425.7a2.723,2.723,0,1,1-2.7222-2.7232A2.7212,2.7212,0,0,1,59.57,425.7"/><path class="cls-5" d="M46.8884,466.932a2.7242,2.7242,0,1,1-2.7242-2.723,2.7231,2.7231,0,0,1,2.7242,2.723"/><path class="cls-5" d="M34.697,466.932a2.7242,2.7242,0,1,1-2.7222-2.723,2.7213,2.7213,0,0,1,2.7222,2.723"/><path class="cls-5" d="M59.57,466.932a2.723,2.723,0,1,1-2.7222-2.723,2.7212,2.7212,0,0,1,2.7222,2.723"/><path class="cls-5" d="M46.8884,508.1637a2.7242,2.7242,0,1,1-2.7242-2.7228,2.7231,2.7231,0,0,1,2.7242,2.7228"/><path class="cls-5" d="M34.697,508.1637a2.7242,2.7242,0,1,1-2.7222-2.7228,2.7213,2.7213,0,0,1,2.7222,2.7228"/><path class="cls-5" d="M59.57,508.1637a2.723,2.723,0,1,1-2.7222-2.7228,2.7212,2.7212,0,0,1,2.7222,2.7228"/><path class="cls-5" d="M46.8884,549.3955a2.7242,2.7242,0,1,1-2.7242-2.7226,2.7231,2.7231,0,0,1,2.7242,2.7226"/><path class="cls-5" d="M34.697,549.3955a2.7242,2.7242,0,1,1-2.7222-2.7226,2.7213,2.7213,0,0,1,2.7222,2.7226"/><path class="cls-5" d="M59.57,549.3955a2.723,2.723,0,1,1-2.7222-2.7226,2.7212,2.7212,0,0,1,2.7222,2.7226"/><path class="cls-5" d="M46.8884,590.6272a2.7242,2.7242,0,1,1-2.7242-2.7223,2.7231,2.7231,0,0,1,2.7242,2.7223"/><path class="cls-5" d="M34.697,590.6272a2.7242,2.7242,0,1,1-2.7222-2.7223,2.7213,2.7213,0,0,1,2.7222,2.7223"/><path class="cls-5" d="M59.57,590.6272a2.723,2.723,0,1,1-2.7222-2.7223,2.7212,2.7212,0,0,1,2.7222,2.7223"/><path class="cls-5" d="M46.8884,631.859a2.7242,2.7242,0,1,1-2.7242-2.7221,2.7232,2.7232,0,0,1,2.7242,2.7221"/><path class="cls-5" d="M34.697,631.859a2.7242,2.7242,0,1,1-2.7222-2.7221,2.7213,2.7213,0,0,1,2.7222,2.7221"/><path class="cls-5" d="M59.57,631.859a2.723,2.723,0,1,1-2.7222-2.7221A2.7213,2.7213,0,0,1,59.57,631.859"/><path class="cls-5" d="M46.8884,673.0908a2.7242,2.7242,0,1,1-2.7242-2.722,2.7231,2.7231,0,0,1,2.7242,2.722"/><path class="cls-5" d="M34.697,673.0908a2.7242,2.7242,0,1,1-2.7222-2.722,2.7212,2.7212,0,0,1,2.7222,2.722"/><path class="cls-5" d="M59.57,673.0908a2.723,2.723,0,1,1-2.7222-2.722,2.7212,2.7212,0,0,1,2.7222,2.722"/><rect class="cls-3" x="22.6199" y="224.442" width="45.05" height="36.188"/><path class="cls-5" d="M47.8689,242.5362a2.7241,2.7241,0,1,1-2.7241-2.7219,2.7231,2.7231,0,0,1,2.7241,2.7219"/><path class="cls-5" d="M35.6775,242.5362a2.7241,2.7241,0,1,1-2.7222-2.7219,2.7213,2.7213,0,0,1,2.7222,2.7219"/><path class="cls-5" d="M60.5505,242.5362a2.723,2.723,0,1,1-2.7221-2.7219,2.7213,2.7213,0,0,1,2.7221,2.7219"/><rect class="cls-3" x="22.6199" y="161.036" width="60.6521" height="39.05"/><path class="cls-5" d="M49.14,180.56a2.7242,2.7242,0,1,1-2.7241-2.7219A2.7247,2.7247,0,0,1,49.14,180.56"/><path class="cls-5" d="M36.949,180.56a2.7242,2.7242,0,1,1-2.7222-2.7219A2.7229,2.7229,0,0,1,36.949,180.56"/><path class="cls-5" d="M61.822,180.56A2.723,2.723,0,1,1,59.1,177.8377,2.7229,2.7229,0,0,1,61.822,180.56"/><path class="cls-5" d="M74.3884,180.56a2.7241,2.7241,0,1,1-2.7221-2.7219,2.7229,2.7229,0,0,1,2.7221,2.7219"/><rect class="cls-3" x="225.8453" y="709.2143" width="158.48" height="45.05"/><path class="cls-5" d="M243.9413,729.0161a2.7231,2.7231,0,1,1-2.7242,2.7221,2.7212,2.7212,0,0,1,2.7242-2.7221"/><path class="cls-5" d="M243.9413,741.2056a2.7241,2.7241,0,1,1-2.7242,2.7241,2.7216,2.7216,0,0,1,2.7242-2.7241"/><path class="cls-5" d="M243.9413,716.3326a2.7241,2.7241,0,1,1-2.7242,2.722,2.7211,2.7211,0,0,1,2.7242-2.722"/><rect class="cls-3" x="266.2972" y="709.2143" width="36.188" height="45.05"/><path class="cls-5" d="M284.3924,729.0161a2.7231,2.7231,0,1,1-2.7221,2.7221,2.7229,2.7229,0,0,1,2.7221-2.7221"/><path class="cls-5" d="M284.3924,741.2056A2.7241,2.7241,0,1,1,281.67,743.93a2.7233,2.7233,0,0,1,2.7221-2.7241"/><path class="cls-5" d="M284.3924,716.3326a2.7241,2.7241,0,1,1-2.7221,2.722,2.7228,2.7228,0,0,1,2.7221-2.722"/><rect class="cls-3" x="348.1373" y="709.2143" width="36.188" height="45.05"/><path class="cls-5" d="M366.2323,729.0161a2.7231,2.7231,0,1,1-2.7222,2.7221,2.7228,2.7228,0,0,1,2.7222-2.7221"/><path class="cls-5" d="M366.2323,741.2056A2.7241,2.7241,0,1,1,363.51,743.93a2.7232,2.7232,0,0,1,2.7222-2.7241"/><path class="cls-5" d="M366.2323,716.3326a2.7241,2.7241,0,1,1-2.7222,2.722,2.7227,2.7227,0,0,1,2.7222-2.722"/><rect class="cls-3" x="307.2413" y="709.2143" width="36.188" height="45.05"/><path class="cls-5" d="M325.3358,729.0161a2.7231,2.7231,0,1,1-2.7222,2.7221,2.7212,2.7212,0,0,1,2.7222-2.7221"/><path class="cls-5" d="M325.3358,741.2056a2.7241,2.7241,0,1,1-2.7222,2.7241,2.7216,2.7216,0,0,1,2.7222-2.7241"/><path class="cls-5" d="M325.3358,716.3326a2.7241,2.7241,0,1,1-2.7222,2.722,2.7211,2.7211,0,0,1,2.7222-2.722"/><rect class="cls-3" x="402.374" y="709.1063" width="158.48" height="45.05"/><path class="cls-5" d="M420.467,728.9081a2.7231,2.7231,0,1,1-2.7222,2.7221,2.7216,2.7216,0,0,1,2.7222-2.7221"/><path class="cls-5" d="M420.467,741.0976a2.7241,2.7241,0,1,1-2.7222,2.7241,2.722,2.722,0,0,1,2.7222-2.7241"/><path class="cls-5" d="M420.467,716.2246a2.7241,2.7241,0,1,1-2.7222,2.722,2.7215,2.7215,0,0,1,2.7222-2.722"/><rect class="cls-3" x="442.8259" y="709.1063" width="36.188" height="45.05"/><path class="cls-5" d="M460.92,728.9081a2.7231,2.7231,0,1,1-2.7241,2.7221,2.7213,2.7213,0,0,1,2.7241-2.7221"/><path class="cls-5" d="M460.92,741.0976a2.7241,2.7241,0,1,1-2.7241,2.7241,2.7216,2.7216,0,0,1,2.7241-2.7241"/><path class="cls-5" d="M460.92,716.2246a2.7241,2.7241,0,1,1-2.7241,2.722,2.7212,2.7212,0,0,1,2.7241-2.722"/><rect class="cls-3" x="524.666" y="709.1063" width="36.188" height="45.05"/><path class="cls-5" d="M542.76,728.9081a2.7231,2.7231,0,1,1-2.7241,2.7221,2.7212,2.7212,0,0,1,2.7241-2.7221"/><path class="cls-5" d="M542.76,741.0976a2.7241,2.7241,0,1,1-2.7241,2.7241,2.7216,2.7216,0,0,1,2.7241-2.7241"/><path class="cls-5" d="M542.76,716.2246a2.7241,2.7241,0,1,1-2.7241,2.722,2.7211,2.7211,0,0,1,2.7241-2.722"/><rect class="cls-3" x="483.768" y="709.1063" width="36.1899" height="45.05"/><path class="cls-5" d="M501.8635,728.9081a2.7231,2.7231,0,1,1-2.7241,2.7221,2.7212,2.7212,0,0,1,2.7241-2.7221"/><path class="cls-5" d="M501.8635,741.0976a2.7241,2.7241,0,1,1-2.7241,2.7241,2.7216,2.7216,0,0,1,2.7241-2.7241"/><path class="cls-5" d="M501.8635,716.2246a2.7241,2.7241,0,1,1-2.7241,2.722,2.7211,2.7211,0,0,1,2.7241-2.722"/><rect class="cls-6" x="27.384" y="87.044" width="43.512" height="24.8181"/><rect class="cls-7" x="37.1602" y="91.6981" width="27.9199" height="14.7339"/><path class="cls-8" d="M50.15,99.4542a9.7911,9.7911,0,1,1-9.7923-9.792,9.79,9.79,0,0,1,9.7923,9.792"/><rect class="cls-6" x="27.384" y="111.8621" width="43.512" height="24.8159"/><rect class="cls-7" x="37.1602" y="116.5162" width="27.9199" height="14.7339"/><path class="cls-8" d="M50.15,124.2706a9.7911,9.7911,0,1,1-9.7923-9.792,9.7923,9.7923,0,0,1,9.7923,9.792"/><polygon class="cls-3" points="141.386 24.911 141.386 58.885 134 58.885 134 99.065 141.386 99.065 141.386 124.271 176.836 124.271 176.836 99.065 192.344 99.065 192.344 57.407 179.052 56.669 178.314 24.911 141.386 24.911"/><path class="cls-8" d="M168.9021,40.046a9.791,9.791,0,1,1-9.7922-9.792,9.7922,9.7922,0,0,1,9.7922,9.792"/><path class="cls-8" d="M168.9021,109.0323A9.791,9.791,0,1,1,159.11,99.24a9.7908,9.7908,0,0,1,9.7922,9.792"/><rect class="cls-8" x="163.1741" y="63.2181" width="25.478" height="10.3379"/><rect class="cls-8" x="163.1741" y="81.69" width="25.478" height="10.3401"/><path class="cls-7" d="M358.4392,620.0048H355.363a82.8715,82.8715,0,0,1-6.85-8.9439h-.042v8.9439h-3.6221v-15.27h3.3379c2.2041,2.706,5.4961,6.6759,6.5882,8.748h.0419v-8.748h3.6221v15.27"/><path class="cls-7" d="M369.1077,604.7344l5.802,15.27h-4.886l-1.2-3.642H364.09l-1.4619,3.642H359.03l6.2158-15.27Zm-1.0259,9.206c-.5022-1.81-.9382-3.272-1.4841-5.454h-.044c-.5881,2.182-1.112,3.644-1.68,5.454h3.208"/><polygon class="cls-7" points="376.371 620.005 376.371 607.593 371.965 607.593 371.965 604.735 385.381 604.735 385.381 607.593 380.975 607.593 380.975 620.005 376.371 620.005"/><rect class="cls-7" x="386.864" y="604.736" width="4.604" height="15.27"/><path class="cls-7" d="M392.5767,612.1962a7.5921,7.5921,0,1,1,15.1819,0c0,4.5581-2.9019,8.07-7.5921,8.07s-7.59-3.512-7.59-8.07m10.382,0c0-2.7059-.8281-4.5379-2.7922-4.5379s-2.792,1.832-2.792,4.5379c0,2.8781.7422,4.8841,2.792,4.8841s2.7922-2.006,2.7922-4.8841"/><path class="cls-7" d="M422.4587,620.0048h-3.0742a82.3587,82.3587,0,0,1-6.85-8.9439h-.044v8.9439h-3.622v-15.27h3.3378c2.2042,2.706,5.4961,6.6759,6.5882,8.748h.0439v-8.748h3.62v15.27"/><path class="cls-7" d="M432.9085,604.7344l5.802,15.27h-4.8841l-1.2019-3.642H427.89l-1.4619,3.642h-3.5979l6.2177-15.27Zm-1.0259,9.206c-.5-1.81-.9383-3.272-1.4822-5.454h-.0439c-.59,2.182-1.1121,3.644-1.6819,5.454h3.208"/><polygon class="cls-7" points="439.738 604.735 444.34 604.735 444.34 617.147 449.924 617.147 449.924 620.005 439.738 620.005 439.738 604.735"/><rect class="cls-7" x="337.9761" y="624.7341" width="4.604" height="15.272"/><path class="cls-7" d="M358.1306,640.0048h-3.0742a82.6592,82.6592,0,0,1-6.8518-8.9459h-.042v8.9459h-3.6221V624.7329h3.3379c2.2041,2.706,5.4981,6.676,6.5882,8.748h.042v-8.748h3.622v15.2719"/><path class="cls-7" d="M367.84,627.8974a4.344,4.344,0,0,0-2.248-.568c-.8941,0-1.3521.4381-1.3521.94,0,.848,1.2881,1.5479,2.772,2.92,1.96,1.834,2.4419,2.99,2.4419,4.584,0,1.35-1.1118,4.494-5.6939,4.494a7.7351,7.7351,0,0,1-4.7981-1.398l1.396-2.53a4.3224,4.3224,0,0,0,2.616,1.068c.916,0,1.92-.458,1.92-1.5919,0-1.22-1.4842-2.1161-2.6822-3.162-1.592-1.396-2.532-2.206-2.532-4.08,0-2.4439,2.4642-4.1019,5.346-4.1019a8.1258,8.1258,0,0,1,3.9922,1.026l-1.178,2.4"/><polygon class="cls-7" points="373.99 640.005 373.99 627.591 369.584 627.591 369.584 624.733 382.998 624.733 382.998 627.591 378.594 627.591 378.594 640.005 373.99 640.005"/><path class="cls-7" d="M384.48,624.7327h6.8079c3.5979,0,5.54,1.5721,5.54,4.08a4.58,4.58,0,0,1-2.5739,4.406l3.38,6.546-4.928.5021-2.42-6.0441h-1.202v5.782H384.48Zm4.604,6.612h1.3079a1.8411,1.8411,0,0,0,1.832-1.876,1.6848,1.6848,0,0,0-1.9179-1.8779h-1.222v3.7539"/><path class="cls-7" d="M402.8064,624.7335v7.986c0,2.746.4138,4.362,2.356,4.362,1.5258,0,2.4-1.528,2.4-4.428v-7.92h3.97v9.228c0,4.56-3.0979,6.306-6.5879,6.306-3.904,0-6.7419-1.6379-6.7419-6.196v-9.338h4.604"/><path class="cls-7" d="M432.1033,640.0048h-4.6021v-10.69h-.042c-1.18,3.9919-2.4,7.352-3.624,10.69h-2.9c-1.2439-3.3379-2.4878-6.698-3.688-10.69h-.042v10.69h-3.6218V624.7329h6.2378c1.048,2.924,2.0939,5.826,3.12,9.4019h.0439c.9819-3.5759,2.0061-6.4779,3.01-9.4019h6.1082v15.2719"/><polygon class="cls-7" points="443.34 627.591 438.671 627.591 438.671 630.603 443.231 630.603 443.231 633.461 438.671 633.461 438.671 637.145 444.28 637.145 444.28 640.005 434.07 640.005 434.07 624.733 443.34 624.733 443.34 627.591"/><path class="cls-7" d="M458.697,640.0048h-3.0761a82.6273,82.6273,0,0,1-6.85-8.9459h-.042v8.9459h-3.6221V624.7329h3.3379c2.2041,2.706,5.4961,6.676,6.5882,8.748h.042v-8.748h3.622v15.2719"/><polygon class="cls-7" points="463.933 640.005 463.933 627.591 459.527 627.591 459.527 624.733 472.943 624.733 472.943 627.591 468.537 627.591 468.537 640.005 463.933 640.005"/><path class="cls-7" d="M481.9509,627.8974a4.3416,4.3416,0,0,0-2.2461-.568c-.896,0-1.354.4381-1.354.94,0,.848,1.2881,1.5479,2.77,2.92,1.9638,1.834,2.4438,2.99,2.4438,4.584,0,1.35-1.1118,4.494-5.6919,4.494a7.7367,7.7367,0,0,1-4.8-1.398l1.396-2.53a4.3321,4.3321,0,0,0,2.6159,1.068c.916,0,1.92-.458,1.92-1.5919,0-1.22-1.4822-2.1161-2.6821-3.162-1.5921-1.396-2.532-2.206-2.532-4.08,0-2.4439,2.466-4.1019,5.3459-4.1019a8.1258,8.1258,0,0,1,3.9922,1.026l-1.178,2.4"/><path class="cls-7" d="M484.3936,627.3622v-2.16h-.82v-.276H485.63v.276h-.8161v2.16Zm4.4441,0h-.4241v-1.7959h-.012l-.9641,1.7959h-.2l-.896-1.7959h-.0081v1.7959h-.344v-2.4359h.488l.918,1.826.9939-1.826h.4483v2.4359"/><path class="cls-7" d="M321.281,610.499a5.8213,5.8213,0,0,1,4.2078-4.886c5.154-1.464,7.9121-1.194,17.154-1.27-5.54,4.9579-9.9638,12.77-8.9738,20.4139-1.99-1.63-3.334-3.96-5.0621-5.822a19.2547,19.2547,0,0,0,1.668-3.8879c.6121-2.312,2.2781-2.8581,4.39-2.7941.1582.006-.124-1.78-.708-1.938-1.574-.426-2.906.08-4.7339-.626a2.2276,2.2276,0,0,0-1.7439.3321c-1.5.766-2.45,2.4039-4.1382,2.922Z"/><path class="cls-7" d="M293.0252,609.0029a25.09,25.09,0,0,1,9.9538-4.324c4.7161-.8619,9.8259-.926,13.3479,2.47,6.6541,6.408,12.0422,13.1339,17.8782,20.4559.23.288.21,1.0761.01,1.19a83.7237,83.7237,0,0,1-12.6721,5.9339,2.1877,2.1877,0,0,1-2.03-.448c-6.6538-6.046-11.21-13.2819-17.5959-19.572a21.3219,21.3219,0,0,0-8.7239-5.186c-.2641-.0819-.312-.42-.1679-.52"/><path class="cls-7" d="M316.2791,638.5029a42.8288,42.8288,0,0,0-11.9383,12.718,26.5054,26.5054,0,0,1,.48-14.968c1.67-4.6759,1.99-9.216,2.2119-14.09,3.0359,3.496,6.4819,7.36,9.32,10.866Z"/><rect class="cls-3" x="264.072" y="531.846" width="260.228" height="32.484"/><path class="cls-5" d="M282.8181,551.165a1.9641,1.9641,0,1,1-1.9641,1.9641,1.9631,1.9631,0,0,1,1.9641-1.9641"/><path class="cls-5" d="M282.8181,541.0848a1.9641,1.9641,0,1,1-1.9641,1.9641,1.9618,1.9618,0,0,1,1.9641-1.9641"/><path class="cls-5" d="M294.91,551.165a1.9641,1.9641,0,1,1-1.9641,1.9641,1.9631,1.9631,0,0,1,1.9641-1.9641"/><path class="cls-5" d="M294.91,541.0848a1.9641,1.9641,0,1,1-1.9641,1.9641,1.9618,1.9618,0,0,1,1.9641-1.9641"/><path class="cls-5" d="M309.8669,551.1533a1.9641,1.9641,0,1,1-1.9641,1.9641,1.9619,1.9619,0,0,1,1.9641-1.9641"/><path class="cls-5" d="M309.8669,541.0732a1.9641,1.9641,0,1,1-1.9641,1.9641,1.9619,1.9619,0,0,1,1.9641-1.9641"/><path class="cls-5" d="M321.9587,551.1533a1.9641,1.9641,0,1,1-1.9621,1.9641,1.9619,1.9619,0,0,1,1.9621-1.9641"/><path class="cls-5" d="M321.9587,541.0732a1.9641,1.9641,0,1,1-1.9621,1.9641,1.9619,1.9619,0,0,1,1.9621-1.9641"/><path class="cls-5" d="M337.5681,551.1533a1.9641,1.9641,0,1,1-1.9641,1.9641,1.9618,1.9618,0,0,1,1.9641-1.9641"/><path class="cls-5" d="M337.5681,541.0732a1.9641,1.9641,0,1,1-1.9641,1.962,1.9614,1.9614,0,0,1,1.9641-1.962"/><path class="cls-5" d="M349.66,551.1533a1.9641,1.9641,0,1,1-1.9621,1.9641,1.9635,1.9635,0,0,1,1.9621-1.9641"/><path class="cls-5" d="M349.66,541.0732a1.9641,1.9641,0,1,1-1.9621,1.962,1.9631,1.9631,0,0,1,1.9621-1.962"/><path class="cls-5" d="M364.8748,551.1533a1.9641,1.9641,0,1,1-1.9622,1.9641,1.9622,1.9622,0,0,1,1.9622-1.9641"/><path class="cls-5" d="M364.8748,541.0732a1.9641,1.9641,0,1,1-1.9622,1.962,1.9618,1.9618,0,0,1,1.9622-1.962"/><path class="cls-5" d="M379.4744,551.1533a1.9641,1.9641,0,1,1-1.9641,1.9641,1.9618,1.9618,0,0,1,1.9641-1.9641"/><path class="cls-5" d="M379.4744,541.0732a1.9641,1.9641,0,1,1-1.9641,1.962,1.9614,1.9614,0,0,1,1.9641-1.962"/><path class="cls-5" d="M393.9255,551.1533a1.9641,1.9641,0,1,1-1.9621,1.9641,1.9623,1.9623,0,0,1,1.9621-1.9641"/><path class="cls-5" d="M393.9255,541.0732a1.9641,1.9641,0,1,1-1.9621,1.9641,1.9623,1.9623,0,0,1,1.9621-1.9641"/><path class="cls-5" d="M406.8318,551.1552a1.963,1.963,0,1,1-1.9622,1.9621,1.962,1.962,0,0,1,1.9622-1.9621"/><path class="cls-5" d="M406.8318,541.0732a1.9641,1.9641,0,1,1-1.9622,1.9641,1.9623,1.9623,0,0,1,1.9622-1.9641"/><path class="cls-5" d="M420.0486,551.1533a1.9641,1.9641,0,1,1-1.9641,1.9641,1.9631,1.9631,0,0,1,1.9641-1.9641"/><path class="cls-5" d="M420.0486,541.0732a1.9641,1.9641,0,1,1-1.9641,1.9641,1.9618,1.9618,0,0,1,1.9641-1.9641"/><path class="cls-5" d="M433.0681,551.1533a1.9641,1.9641,0,1,1-1.9641,1.9641,1.9618,1.9618,0,0,1,1.9641-1.9641"/><path class="cls-5" d="M433.0681,541.0732a1.9641,1.9641,0,1,1-1.9641,1.9641,1.9618,1.9618,0,0,1,1.9641-1.9641"/><path class="cls-5" d="M447.9607,551.1533a1.9641,1.9641,0,1,1-1.9622,1.9641,1.9631,1.9631,0,0,1,1.9622-1.9641"/><path class="cls-5" d="M447.9607,541.0732a1.9641,1.9641,0,1,1-1.9622,1.9641,1.9618,1.9618,0,0,1,1.9622-1.9641"/><path class="cls-5" d="M461.1267,551.1533a1.9641,1.9641,0,1,1-1.9621,1.9641,1.9635,1.9635,0,0,1,1.9621-1.9641"/><path class="cls-5" d="M461.1267,541.0732a1.9641,1.9641,0,1,1-1.9621,1.9641,1.9635,1.9635,0,0,1,1.9621-1.9641"/><path class="cls-5" d="M474.1209,551.1533a1.9641,1.9641,0,1,1-1.9642,1.9641,1.9632,1.9632,0,0,1,1.9642-1.9641"/><path class="cls-5" d="M474.1209,541.0732a1.9641,1.9641,0,1,1-1.9642,1.9641,1.9619,1.9619,0,0,1,1.9642-1.9641"/><path class="cls-5" d="M488.1755,551.1552a1.963,1.963,0,1,1-1.9621,1.9621,1.9619,1.9619,0,0,1,1.9621-1.9621"/><path class="cls-5" d="M488.1755,541.0732a1.9641,1.9641,0,1,1-1.9621,1.9641,1.9623,1.9623,0,0,1,1.9621-1.9641"/><path class="cls-5" d="M501.0759,551.1552a1.963,1.963,0,1,1-1.9641,1.9621,1.9615,1.9615,0,0,1,1.9641-1.9621"/><path class="cls-5" d="M501.0759,541.0732a1.9641,1.9641,0,1,1-1.9641,1.9641,1.9618,1.9618,0,0,1,1.9641-1.9641"/><polyline class="cls-9" points="377.883 528.413 260.479 528.413 260.479 567.741 524.672 567.741 524.672 528.413 409.24 528.413"/><path class="cls-5" d="M269.1541,181.8018a9.3811,9.3811,0,1,1-9.38-9.38,9.3808,9.3808,0,0,1,9.38,9.38"/><path class="cls-8" d="M265.1892,181.8018a5.416,5.416,0,1,1-5.416-5.4157,5.4161,5.4161,0,0,1,5.416,5.4157"/><path class="cls-5" d="M536.0369,173.876a9.3813,9.3813,0,1,1-13.2681,0,9.3834,9.3834,0,0,1,13.2681,0"/><path class="cls-8" d="M534.82,180.5089a5.4161,5.4161,0,1,1-5.416-5.4158,5.4174,5.4174,0,0,1,5.416,5.4158"/><rect class="cls-3" x="604.2639" y="23.962" width="51.5581" height="112.7161"/><rect class="cls-3" x="614.238" y="27.3179" width="32.4861" height="104.8621"/><path class="cls-5" d="M633.5584,113.7257c0-.438.8779-.792,1.9619-.792s1.9638.354,1.9638.792-.88.7922-1.9638.7922-1.9619-.354-1.9619-.7922"/><path class="cls-5" d="M623.4763,113.7257c0-.438.878-.792,1.9639-.792,1.084,0,1.9641.354,1.9641.792s-.88.7922-1.9641.7922c-1.0859,0-1.9639-.354-1.9639-.7922"/><path class="cls-5" d="M633.5584,108.8526c0-.438.8779-.792,1.9619-.792s1.9638.354,1.9638.792-.88.7922-1.9638.7922-1.9619-.354-1.9619-.7922"/><path class="cls-5" d="M623.4763,108.8526c0-.438.878-.792,1.9639-.792,1.084,0,1.9641.354,1.9641.792s-.88.7922-1.9641.7922c-1.0859,0-1.9639-.354-1.9639-.7922"/><path class="cls-5" d="M633.5584,102.5635c0-.4379.8779-.792,1.9619-.792s1.9638.3541,1.9638.792-.88.7923-1.9638.7923-1.9619-.354-1.9619-.7923"/><path class="cls-5" d="M623.4763,102.5635c0-.4379.878-.792,1.9639-.792,1.084,0,1.9641.3541,1.9641.792s-.88.7923-1.9641.7923c-1.0859,0-1.9639-.354-1.9639-.7923"/><path class="cls-5" d="M633.5584,97.6905c0-.438.8779-.792,1.9619-.792s1.9638.354,1.9638.792-.88.7922-1.9638.7922-1.9619-.354-1.9619-.7922"/><path class="cls-5" d="M623.4763,97.6905c0-.438.878-.792,1.9639-.792,1.084,0,1.9641.354,1.9641.792s-.88.7922-1.9641.7922c-1.0859,0-1.9639-.354-1.9639-.7922"/><path class="cls-5" d="M633.5584,91.56c0-.438.8779-.792,1.9619-.792s1.9638.354,1.9638.792-.88.7923-1.9638.7923-1.9619-.354-1.9619-.7923"/><path class="cls-5" d="M623.4763,91.56c0-.438.878-.792,1.9639-.792,1.084,0,1.9641.354,1.9641.792s-.88.7923-1.9641.7923c-1.0859,0-1.9639-.354-1.9639-.7923"/><path class="cls-5" d="M633.5584,85.6768c0-.438.8779-.792,1.9619-.792s1.9638.354,1.9638.792-.88.7923-1.9638.7923-1.9619-.354-1.9619-.7923"/><path class="cls-5" d="M623.4763,85.6768c0-.438.878-.792,1.9639-.792,1.084,0,1.9641.354,1.9641.792s-.88.7923-1.9641.7923c-1.0859,0-1.9639-.354-1.9639-.7923"/><path class="cls-5" d="M633.5584,79.8526c0-.4358.8779-.792,1.9619-.792s1.9638.3562,1.9638.792c0,.4382-.88.7922-1.9638.7922s-1.9619-.354-1.9619-.7922"/><path class="cls-5" d="M623.4763,79.8526c0-.4358.878-.792,1.9639-.792,1.084,0,1.9641.3562,1.9641.792,0,.4382-.88.7922-1.9641.7922-1.0859,0-1.9639-.354-1.9639-.7922"/><path class="cls-5" d="M633.5584,74.6534c0-.438.8779-.792,1.9619-.792,1.0859,0,1.966.354,1.966.792,0,.436-.88.7922-1.966.7922-1.084,0-1.9619-.3562-1.9619-.7922"/><path class="cls-5" d="M623.4783,74.6534c0-.438.8779-.792,1.9619-.792s1.9639.354,1.9639.792c0,.436-.88.7922-1.9639.7922s-1.9619-.3562-1.9619-.7922"/><path class="cls-5" d="M633.5584,69.3272c0-.438.8779-.792,1.9619-.792s1.966.354,1.966.792-.882.7923-1.966.7923-1.9619-.3541-1.9619-.7923"/><path class="cls-5" d="M623.4763,69.3272c0-.438.88-.792,1.9639-.792s1.9641.354,1.9641.792-.88.7923-1.9641.7923-1.9639-.3541-1.9639-.7923"/><path class="cls-5" d="M633.5584,64.0811c0-.438.8779-.792,1.9619-.792s1.9638.354,1.9638.792-.88.7923-1.9638.7923-1.9619-.354-1.9619-.7923"/><path class="cls-5" d="M623.4763,64.0811c0-.438.878-.792,1.9639-.792,1.084,0,1.9641.354,1.9641.792s-.88.7923-1.9641.7923c-1.0859,0-1.9639-.354-1.9639-.7923"/><path class="cls-5" d="M633.5584,58.0792c0-.4358.8779-.792,1.9619-.792s1.966.3562,1.966.792c0,.4382-.882.7922-1.966.7922s-1.9619-.354-1.9619-.7922"/><path class="cls-5" d="M623.4763,58.0792c0-.4358.88-.792,1.9639-.792s1.9641.3562,1.9641.792c0,.4382-.88.7922-1.9641.7922s-1.9639-.354-1.9639-.7922"/><path class="cls-5" d="M633.5584,52.7745c0-.438.8779-.792,1.9619-.792s1.9638.354,1.9638.792-.88.7922-1.9638.7922-1.9619-.354-1.9619-.7922"/><path class="cls-5" d="M623.4763,52.7745c0-.438.878-.792,1.9639-.792,1.084,0,1.9641.354,1.9641.792s-.88.7922-1.9641.7922c-1.0859,0-1.9639-.354-1.9639-.7922"/><path class="cls-5" d="M633.5584,47.5382c0-.438.8779-.792,1.9619-.792s1.966.354,1.966.792-.882.7922-1.966.7922-1.9619-.354-1.9619-.7922"/><path class="cls-5" d="M623.4763,47.5382c0-.4358.88-.792,1.9639-.792s1.9641.3562,1.9641.792c0,.4382-.88.7922-1.9641.7922s-1.9639-.354-1.9639-.7922"/><polyline class="cls-9" points="610.818 86.317 610.818 133.626 650.144 133.626 650.144 27.169 610.818 27.169 610.818 73.684"/><text class="cls-10" transform="translate(77.3125 246.9946)">RS-232</text><text class="cls-10" transform="translate(94.8613 186.6631)">I</text><text class="cls-10" transform="translate(99.1929 181.2524) scale(0.583)">2</text><text class="cls-10" transform="translate(104.4473 186.6631)">C</text><text class="cls-10" transform="translate(33.022 78.7603)">CAN</text><text class="cls-11" transform="translate(81.1045 102.0381)">L (GRN)</text><text class="cls-11" transform="translate(81.9404 126.8569)">H (YEL)</text><path class="cls-12" d="M102.2982,481.5213a4.493,4.493,0,0,1-1.8437,1.7481,5.8318,5.8318,0,0,1-2.7491.6269H96.642a5.82,5.82,0,0,1-2.753-.6269,4.4819,4.4819,0,0,1-1.8408-1.76,5.1609,5.1609,0,0,1-.65-2.6113V475.74H102.95v3.23A5.0017,5.0017,0,0,1,102.2982,481.5213ZM97.7211,482.93a5.1577,5.1577,0,0,0,2.3125-.4922,3.6352,3.6352,0,0,0,1.539-1.3887,3.931,3.931,0,0,0,.544-2.0781v-2.2539H92.223v2.1817a4.0206,4.0206,0,0,0,.5557,2.1347,3.6768,3.6768,0,0,0,1.5547,1.4043,5.1607,5.1607,0,0,0,2.3086.4922Z"/><path class="cls-12" d="M91.3978,486.6014H102.95v.9765H91.3978Z"/><path class="cls-12" d="M93.75,498.6971a4.4132,4.4132,0,0,1-1.8565-6.2949,4.3013,4.3013,0,0,1,1.86-1.5879,6.5593,6.5593,0,0,1,2.8007-.5625h1.2374a6.5912,6.5912,0,0,1,2.8007.5586,4.2985,4.2985,0,0,1,1.86,1.58,4.25,4.25,0,0,1,.6543,2.3516,4.1574,4.1574,0,0,1-2.5108,3.9512,6.6455,6.6455,0,0,1-2.8046.5547H96.555A6.672,6.672,0,0,1,93.75,498.6971Zm6.4218-.8379a3.3734,3.3734,0,0,0,1.5391-1.2168,3.3137,3.3137,0,0,0,.54-1.9,3.2555,3.2555,0,0,0-.54-1.873,3.412,3.412,0,0,0-1.543-1.2168,6.024,6.024,0,0,0-2.36-.4258H96.555a6.0062,6.0062,0,0,0-2.3681.43,3.4506,3.4506,0,0,0-1.5479,1.2246,3.2568,3.2568,0,0,0-.5429,1.8769,3.309,3.309,0,0,0,.539,1.9043,3.3459,3.3459,0,0,0,1.543,1.2051,6.2284,6.2284,0,0,0,2.3769.4141h1.253A6.0522,6.0522,0,0,0,100.1722,497.8592Z"/><polyline class="cls-13" points="86.049 299.28 97.256 299.28 97.256 464.852"/><polyline class="cls-13" points="97.258 510.136 97.258 666.612 86.05 666.612"/><text class="cls-10" transform="translate(284.2783 684.4429)">RE<tspan class="cls-14" x="19.5645" y="0">L</tspan><tspan class="cls-15" x="28.2788" y="0">A</tspan><tspan class="cls-16" x="37.4912" y="0">Y</tspan></text><polyline class="cls-13" points="243.236 689.942 243.236 681.069 273.954 681.069"/><polyline class="cls-13" points="338.084 681.067 365.95 681.067 365.95 691.042"/><text class="cls-10" transform="translate(442.6328 684.4429)">ANA<tspan class="cls-17" x="31.8535" y="0">L</tspan><tspan x="39.918" y="0">OG IN</tspan></text><text class="cls-18" transform="translate(619.1582 697.0713)">RESET</text><text class="cls-18" transform="translate(675.3379 697.0693)">USER</text><polyline class="cls-13" points="419.672 689.876 419.672 681.616 433.701 681.616"/><polyline class="cls-13" points="532.531 680.518 546.463 680.518 546.463 691.042"/><rect class="cls-3" x="99.4548" y="709.2143" width="39.958" height="45.05"/><path class="cls-5" d="M119.4329,729.0141a2.7241,2.7241,0,1,1-2.7221,2.7241,2.7246,2.7246,0,0,1,2.7221-2.7241"/><path class="cls-5" d="M119.4329,741.2056a2.7241,2.7241,0,1,1-2.7221,2.722,2.7228,2.7228,0,0,1,2.7221-2.722"/><text class="cls-10" transform="translate(105.1782 697.1602)">RSL</text><text class="cls-10" transform="translate(698.3984 497.251) rotate(-90)">PWM</text><polyline class="cls-13" points="702.81 666.52 691.602 666.52 691.602 505.504"/><polyline class="cls-13" points="691.601 450.36 691.601 293.927 702.809 293.927"/><path class="cls-5" d="M341.0134,87.2217a9.3811,9.3811,0,1,1-9.38-9.38,9.3807,9.3807,0,0,1,9.38,9.38"/><path class="cls-8" d="M337.0486,87.2217a5.416,5.416,0,1,1-5.416-5.4157,5.4174,5.4174,0,0,1,5.416,5.4157"/><path class="cls-5" d="M341.0134,41.6924a9.3811,9.3811,0,1,1-9.38-9.3779,9.3795,9.3795,0,0,1,9.38,9.3779"/><path class="cls-8" d="M337.0486,41.6924a5.416,5.416,0,1,1-5.416-5.4138,5.4162,5.4162,0,0,1,5.416,5.4138"/><rect class="cls-19" x="233.032" y="37.962" width="66.468" height="53.384"/><polygon class="cls-20" points="250.572 43.421 281.776 43.421 289.346 51.177 289.346 85.887 243.188 85.887 243.188 51.361 250.572 43.421"/><path class="cls-5" d="M260.2205,69.3194a1.9641,1.9641,0,1,1-1.9641,1.9622,1.9616,1.9616,0,0,1,1.9641-1.9622"/><path class="cls-5" d="M260.2205,59.2393a1.9641,1.9641,0,1,1-1.9641,1.9622,1.9616,1.9616,0,0,1,1.9641-1.9622"/><path class="cls-5" d="M272.3123,69.3194a1.9641,1.9641,0,1,1-1.9622,1.9622,1.962,1.962,0,0,1,1.9622-1.9622"/><path class="cls-5" d="M272.3123,59.2393a1.9641,1.9641,0,1,1-1.9622,1.9622,1.962,1.962,0,0,1,1.9622-1.9622"/><rect class="cls-19" x="468.1001" y="27.088" width="87.1479" height="92.3181"/><rect class="cls-20" x="478.9021" y="63.952" width="65.5459" height="38.1741"/><rect class="cls-20" x="493.4861" y="102.126" width="36.0039" height="8.8621"/><rect class="cls-20" x="499.948" y="110.9881" width="23.2639" height="7.386"/><rect class="cls-21" x="470.0381" y="102.126" width="23.448" height="13.292"/><rect class="cls-22" x="529.49" y="102.126" width="23.45" height="13.292"/><rect class="cls-19" x="365.8418" y="73.2479" width="75.3921" height="33.3101"/><rect class="cls-20" x="367.8399" y="74.5902" width="71.4561" height="30.084"/><rect class="cls-19" x="365.874" y="26.7679" width="75.3921" height="33.3101"/><rect class="cls-20" x="367.8718" y="28.1099" width="71.4541" height="30.084"/><text class="cls-10" transform="translate(79.252 38.8115)">INPUT</text><text class="cls-23" transform="translate(316.2109 247.5195)">NI <tspan class="cls-24" x="39.668" y="0">r</tspan><tspan x="50.1938" y="0">oboRIO</tspan></text><rect class="cls-6" x="370.856" y="77.8399" width="65.3621" height="11.792"/><rect class="cls-6" x="370.856" y="31.3621" width="65.3621" height="11.792"/><text class="cls-10" transform="translate(702.7847 93.207)">POWER</text><rect class="cls-25" x="764.5976" y="79.8952" width="16.0342" height="15.1855"/><rect class="cls-26" x="779.7613" y="80.0146" width="10.6027" height="15.1855"/><text class="cls-10" transform="translate(698.4297 119.1665)">STATUS</text><rect class="cls-25" x="764.5976" y="105.8551" width="16.0342" height="15.1855"/><rect class="cls-26" x="779.7613" y="105.9744" width="10.6027" height="15.1855"/><text class="cls-10" transform="translate(711.4644 158.8193)">RADIO</text><rect class="cls-25" x="764.5976" y="145.7682" width="16.0342" height="15.1855"/><rect class="cls-26" x="779.7613" y="145.8876" width="10.6027" height="15.1855"/><text class="cls-10" transform="translate(708.252 185.6885)">COMM</text><rect class="cls-25" x="764.5976" y="172.377" width="16.0342" height="15.1855"/><rect class="cls-26" x="779.7613" y="172.4963" width="10.6027" height="15.1855"/><text class="cls-10" transform="translate(712.9707 213.6006)">MODE</text><rect class="cls-25" x="764.5976" y="198.9858" width="16.0342" height="15.1855"/><rect class="cls-26" x="779.7613" y="199.1051" width="10.6027" height="15.1855"/><text class="cls-10" transform="translate(729.4097 254.1475)">RSL</text><rect class="cls-25" x="764.5976" y="239.5316" width="16.0342" height="15.1855"/><rect class="cls-26" x="779.7613" y="239.6509" width="10.6027" height="15.1855"/><rect class="cls-27" x="608.7209" y="706.134" width="108.8485" height="50.9946" rx="9.8548"/><rect class="cls-28" x="622.9875" y="717.9797" width="27.1208" height="27.3032" rx="13.5604"/><rect class="cls-28" x="676.1821" y="717.9797" width="27.1208" height="27.3032" rx="13.5604"/><rect class="cls-3" x="716.4307" y="272.375" width="46.329" height="413.1708"/><path class="cls-5" d="M742.0741,294.9448a2.7241,2.7241,0,1,1-2.7241-2.7239,2.723,2.723,0,0,1,2.7241,2.7239"/><path class="cls-5" d="M729.8827,294.9448a2.7241,2.7241,0,1,1-2.7221-2.7239,2.7212,2.7212,0,0,1,2.7221,2.7239"/><path class="cls-5" d="M754.7558,294.9448a2.7231,2.7231,0,1,1-2.7222-2.7239,2.7212,2.7212,0,0,1,2.7222,2.7239"/><path class="cls-5" d="M742.0741,336.1766a2.7241,2.7241,0,1,1-2.7241-2.7237,2.723,2.723,0,0,1,2.7241,2.7237"/><path class="cls-5" d="M729.8827,336.1766a2.7241,2.7241,0,1,1-2.7221-2.7237,2.7212,2.7212,0,0,1,2.7221,2.7237"/><path class="cls-5" d="M754.7558,336.1766a2.7231,2.7231,0,1,1-2.7222-2.7237,2.7212,2.7212,0,0,1,2.7222,2.7237"/><path class="cls-5" d="M742.0741,377.4083a2.7241,2.7241,0,1,1-2.7241-2.7234,2.723,2.723,0,0,1,2.7241,2.7234"/><path class="cls-5" d="M729.8827,377.4083a2.7241,2.7241,0,1,1-2.7221-2.7234,2.7212,2.7212,0,0,1,2.7221,2.7234"/><path class="cls-5" d="M754.7558,377.4083a2.7231,2.7231,0,1,1-2.7222-2.7234,2.7212,2.7212,0,0,1,2.7222,2.7234"/><path class="cls-5" d="M742.0741,418.64a2.7241,2.7241,0,1,1-2.7241-2.7232,2.723,2.723,0,0,1,2.7241,2.7232"/><path class="cls-5" d="M729.8827,418.64a2.7241,2.7241,0,1,1-2.7221-2.7232,2.7212,2.7212,0,0,1,2.7221,2.7232"/><path class="cls-5" d="M754.7558,418.64a2.7231,2.7231,0,1,1-2.7222-2.7232,2.7212,2.7212,0,0,1,2.7222,2.7232"/><path class="cls-5" d="M742.0741,459.8718a2.7241,2.7241,0,1,1-2.7241-2.723,2.7231,2.7231,0,0,1,2.7241,2.723"/><path class="cls-5" d="M729.8827,459.8718a2.7241,2.7241,0,1,1-2.7221-2.723,2.7213,2.7213,0,0,1,2.7221,2.723"/><path class="cls-5" d="M754.7558,459.8718a2.7231,2.7231,0,1,1-2.7222-2.723,2.7213,2.7213,0,0,1,2.7222,2.723"/><path class="cls-5" d="M742.0741,501.1036a2.7241,2.7241,0,1,1-2.7241-2.7228,2.723,2.723,0,0,1,2.7241,2.7228"/><path class="cls-5" d="M729.8827,501.1036a2.7241,2.7241,0,1,1-2.7221-2.7228,2.7212,2.7212,0,0,1,2.7221,2.7228"/><path class="cls-5" d="M754.7558,501.1036a2.7231,2.7231,0,1,1-2.7222-2.7228,2.7212,2.7212,0,0,1,2.7222,2.7228"/><path class="cls-5" d="M742.0741,542.3354a2.7241,2.7241,0,1,1-2.7241-2.7226,2.723,2.723,0,0,1,2.7241,2.7226"/><path class="cls-5" d="M729.8827,542.3354a2.7241,2.7241,0,1,1-2.7221-2.7226,2.7212,2.7212,0,0,1,2.7221,2.7226"/><path class="cls-5" d="M754.7558,542.3354a2.7231,2.7231,0,1,1-2.7222-2.7226,2.7212,2.7212,0,0,1,2.7222,2.7226"/><path class="cls-5" d="M742.0741,583.5671a2.7241,2.7241,0,1,1-2.7241-2.7223,2.723,2.723,0,0,1,2.7241,2.7223"/><path class="cls-5" d="M729.8827,583.5671a2.7241,2.7241,0,1,1-2.7221-2.7223,2.7212,2.7212,0,0,1,2.7221,2.7223"/><path class="cls-5" d="M754.7558,583.5671a2.7231,2.7231,0,1,1-2.7222-2.7223,2.7212,2.7212,0,0,1,2.7222,2.7223"/><path class="cls-5" d="M742.0741,624.7989a2.7241,2.7241,0,1,1-2.7241-2.7222,2.723,2.723,0,0,1,2.7241,2.7222"/><path class="cls-5" d="M729.8827,624.7989a2.7241,2.7241,0,1,1-2.7221-2.7222,2.7212,2.7212,0,0,1,2.7221,2.7222"/><path class="cls-5" d="M754.7558,624.7989a2.7231,2.7231,0,1,1-2.7222-2.7222,2.7212,2.7212,0,0,1,2.7222,2.7222"/><path class="cls-5" d="M742.0741,666.0306a2.7241,2.7241,0,1,1-2.7241-2.7219,2.723,2.723,0,0,1,2.7241,2.7219"/><path class="cls-5" d="M729.8827,666.0306a2.7241,2.7241,0,1,1-2.7221-2.7219,2.7212,2.7212,0,0,1,2.7221,2.7219"/><path class="cls-5" d="M754.7558,666.0306a2.7231,2.7231,0,1,1-2.7222-2.7219,2.7212,2.7212,0,0,1,2.7222,2.7219"/><text class="cls-29" transform="translate(79.8936 52.3853)">7-16V </text><line class="cls-30" x1="111.0129" y1="51.0081" x2="114.394" y2="51.0081"/><line class="cls-30" x1="116.253" y1="51.0081" x2="119.63" y2="51.0081"/><line class="cls-30" x1="121.4971" y1="51.0081" x2="124.8782" y2="51.0081"/><line class="cls-30" x1="111.013" y1="47.6149" x2="124.8782" y2="47.6149"/><text class="cls-29" transform="translate(76.6548 64.4102)">45 W MAX</text><line class="cls-31" x1="136.7614" y1="180.9452" x2="136.7614" y2="205.3961"/><line class="cls-31" x1="150.4602" y1="155.5485" x2="150.4602" y2="178.5402"/><line class="cls-31" x1="164.1509" y1="179.1017" x2="164.1509" y2="202.1124"/><line class="cls-31" x1="177.8416" y1="155.3091" x2="177.8416" y2="178.2995"/><line class="cls-31" x1="132.2117" y1="207.5392" x2="141.3159" y2="207.5392"/><line class="cls-31" x1="129.9956" y1="205.392" x2="143.528" y2="205.392"/><rect class="cls-32" x="135.0526" y="177.1663" width="3.423" height="3.4251"/><rect class="cls-12" x="148.7433" y="177.1663" width="3.4266" height="3.4251"/><rect class="cls-12" x="162.4387" y="177.163" width="3.4251" height="3.425"/><rect class="cls-12" x="176.1369" y="177.1663" width="3.421" height="3.4251"/><polygon class="cls-31" points="130.36 161.759 130.36 195.992 184.234 195.983 184.234 161.759 130.36 161.759"/><text class="cls-33" transform="translate(154.2969 211.0225) scale(1 1.0622)">SCL</text><text class="cls-34" transform="translate(138.8564 151.3789) scale(1 1.0115)">3.3V S<tspan class="cls-35" x="32.772" y="0">D</tspan><tspan x="40.2158" y="0">A</tspan></text><line class="cls-31" x1="134.225" y1="209.6904" x2="139.2986" y2="209.6904"/><line class="cls-31" x1="149.7661" y1="242.3646" x2="149.7661" y2="266.6978"/><line class="cls-31" x1="163.4609" y1="242.7379" x2="163.4609" y2="274.3244"/><line class="cls-31" x1="177.1516" y1="242.738" x2="177.1516" y2="263.1746"/><line class="cls-31" x1="147.2293" y1="270.996" x2="152.303" y2="270.996"/><line class="cls-31" x1="145.2161" y1="268.8448" x2="154.3202" y2="268.8448"/><line class="cls-31" x1="142.9999" y1="266.6977" x2="156.5323" y2="266.6977"/><rect class="cls-32" x="175.4434" y="238.94" width="3.4251" height="3.4246"/><rect class="cls-32" x="148.0565" y="238.94" width="3.4226" height="3.4246"/><rect class="cls-32" x="161.7528" y="238.94" width="3.421" height="3.4246"/><rect class="cls-31" x="142.9229" y="223.1298" width="41.0802" height="34.2324"/><text class="cls-34" transform="translate(166.666 273.7383) scale(1 1.0115)">TXD</text><text class="cls-34" transform="translate(151.9111 284.7148) scale(1 1.0115)">RXD</text><line class="cls-31" x1="30.9821" y1="700.9021" x2="30.9821" y2="711.8004"/><line class="cls-31" x1="44.685" y1="700.829" x2="45.0015" y2="719.2402"/><line class="cls-31" x1="58.3757" y1="700.9021" x2="58.3757" y2="708.748"/><line class="cls-31" x1="28.4453" y1="716.1027" x2="33.5189" y2="716.1027"/><line class="cls-31" x1="26.4321" y1="713.9474" x2="35.5362" y2="713.9474"/><line class="cls-31" x1="24.2159" y1="711.8042" x2="37.7483" y2="711.8042"/><text class="cls-36" transform="translate(38.5645 729.3945) scale(1 1.0056)">5V</text><text class="cls-36" transform="translate(54.9482 718.0791) scale(1 1.0056)">S</text><rect class="cls-37" x="56.8269" y="697.3665" width="3.1791" height="3.4581"/><rect class="cls-37" x="43.2537" y="697.6226" width="3.1791" height="3.4581"/><rect class="cls-37" x="29.4964" y="697.5776" width="3.1791" height="3.4581"/><line class="cls-31" x1="75.5843" y1="758.9879" x2="80.6579" y2="758.9879"/><line class="cls-31" x1="73.5711" y1="756.8285" x2="82.6752" y2="756.8285"/><line class="cls-31" x1="71.3589" y1="754.6855" x2="84.8913" y2="754.6855"/><line class="cls-31" x1="78.1252" y1="746.3038" x2="90.6631" y2="746.3038"/><line class="cls-31" x1="90.5982" y1="732.5563" x2="82.5941" y2="732.5563"/><line class="cls-31" x1="78.1211" y1="745.9582" x2="78.1211" y2="754.6855"/><line class="cls-31" x1="78.1252" y1="753.3095" x2="78.1252" y2="746.653"/><text class="cls-36" transform="translate(74.4482 736.3164) scale(1 1.0056)">S</text><rect class="cls-37" x="90.6676" y="730.7521" width="3.1791" height="3.4581"/><rect class="cls-37" x="90.486" y="744.6137" width="3.1791" height="3.4581"/><line class="cls-31" x1="198.415" y1="758.9838" x2="203.4886" y2="758.9838"/><line class="cls-38" x1="196.4018" y1="756.8285" x2="205.5058" y2="756.8285"/><line class="cls-31" x1="194.1896" y1="754.6814" x2="207.7219" y2="754.6814"/><line class="cls-31" x1="213.5344" y1="732.5563" x2="205.4247" y2="732.5563"/><line class="cls-31" x1="213.5344" y1="718.8331" x2="205.4247" y2="718.8331"/><polyline class="cls-31" points="200.956 754.681 200.956 746.105 213.534 746.105"/><text class="cls-39" transform="translate(180.7954 721.3149) scale(1 1.0605)">FWD</text><text class="cls-40" transform="translate(184.8701 735.2476) scale(1 1.1297)">REV</text><rect class="cls-37" x="213.6484" y="717.0103" width="3.1791" height="3.4581"/><rect class="cls-37" x="213.3264" y="730.7238" width="3.1791" height="3.4581"/><rect class="cls-37" x="213.2976" y="744.4706" width="3.1791" height="3.4581"/><line class="cls-41" x1="586.1666" y1="759.138" x2="591.2403" y2="759.138"/><line class="cls-41" x1="584.1575" y1="756.9868" x2="593.2615" y2="756.9868"/><line class="cls-41" x1="581.9412" y1="754.8397" x2="595.4736" y2="754.8397"/><line class="cls-41" x1="584.2996" y1="732.3574" x2="576.275" y2="732.3574"/><line class="cls-41" x1="584.2955" y1="718.7925" x2="576.2709" y2="718.7925"/><polyline class="cls-41" points="588.707 754.84 588.707 746.316 576.275 746.316"/><text class="cls-39" transform="translate(585.1753 721.6602) scale(1 1.0605)">S</text><text class="cls-40" transform="translate(585.8315 735.8335) scale(1 1.1297)">5V</text><rect class="cls-37" x="572.8594" y="716.9655" width="3.1791" height="3.4581"/><rect class="cls-37" x="573.0675" y="730.4934" width="3.1791" height="3.4581"/><rect class="cls-37" x="573.0207" y="744.4376" width="3.1791" height="3.4581"/><line class="cls-31" x1="749.8787" y1="711.5132" x2="754.9524" y2="711.5132"/><line class="cls-31" x1="747.8696" y1="709.3661" x2="756.9696" y2="709.3661"/><line class="cls-31" x1="745.6574" y1="707.219" x2="759.1898" y2="707.219"/><line class="cls-31" x1="725.0214" y1="696.2438" x2="725.0214" y2="704.1546"/><line class="cls-31" x1="738.7161" y1="696.3046" x2="738.7161" y2="714.444"/><line class="cls-31" x1="752.4068" y1="696.2438" x2="752.4068" y2="707.5885"/><text class="cls-36" transform="translate(721.7109 713.4976) scale(1 1.0056)">S</text><text class="cls-36" transform="translate(732.5298 724.5054) scale(1 1.0056)">6V</text><rect class="cls-37" x="723.3216" y="692.9735" width="3.1791" height="3.4581"/><rect class="cls-37" x="737.1196" y="692.9735" width="3.1791" height="3.4581"/><rect class="cls-37" x="750.7609" y="692.9735" width="3.1791" height="3.4581"/><path class="cls-42" d="M606.9036,648.6059a6.8486,6.8486,0,0,0,6.8555-6.8393"/><path class="cls-42" d="M606.9036,634.9152a6.8529,6.8529,0,0,0-6.8393,6.8515"/><text class="cls-43" transform="translate(567.4595 661.8101) scale(1 1.0349)">A<tspan class="cls-44" x="6.9185" y="0">CCELEROMETER</tspan></text><text class="cls-45" transform="translate(602.5845 608.6431) scale(1 1.0349)">Y</text><text class="cls-45" transform="translate(590.0361 636.2383) scale(1 1.0349)">Z</text><text class="cls-45" transform="translate(635.3813 645.7212) scale(1 1.0349)">X</text><line class="cls-46" x1="630.9202" y1="642.1075" x2="606.9076" y2="642.1075"/><line class="cls-46" x1="606.9036" y1="642.1075" x2="606.9036" y2="615.0022"/><path class="cls-31" d="M606.9036,648.6059a6.8454,6.8454,0,1,0-6.8393-6.8393A6.8486,6.8486,0,0,0,606.9036,648.6059Z"/><polyline class="cls-12" points="634.545 642.107 629.82 640.285 630.94 642.107 629.82 643.926"/><polyline class="cls-47" points="634.545 642.107 629.82 640.285 630.94 642.107 629.82 643.926"/><polyline class="cls-12" points="606.904 611.499 605.105 616.232 606.904 614.763 608.714 616.232 606.904 611.499"/><polyline class="cls-47" points="606.904 611.499 605.105 616.232 606.904 614.763 608.714 616.232 606.904 611.499"/><line class="cls-48" x1="629.8202" y1="643.9259" x2="634.5447" y2="642.1075"/><line class="cls-47" x1="629.8202" y1="643.9259" x2="634.5447" y2="642.1075"/><path class="cls-12" d="M606.9076,643.313a1.5465,1.5465,0,1,0-1.5424-1.5464,1.5521,1.5521,0,0,0,1.5424,1.5464"/><path class="cls-31" d="M606.9076,643.313a1.5465,1.5465,0,1,0-1.5424-1.5464A1.5521,1.5521,0,0,0,606.9076,643.313Z"/><line class="cls-42" x1="611.6138" y1="270.1561" x2="652.6939" y2="270.1561"/><line class="cls-31" x1="602.8832" y1="246.1842" x2="626.571" y2="246.1842"/><line class="cls-31" x1="602.8832" y1="232.4895" x2="626.571" y2="232.4895"/><line class="cls-31" x1="602.8834" y1="218.7988" x2="626.5712" y2="218.7988"/><line class="cls-31" x1="611.6179" y1="167.4535" x2="611.6179" y2="270.1561"/><line class="cls-31" x1="602.8832" y1="205.1081" x2="626.571" y2="205.1081"/><line class="cls-31" x1="602.8832" y1="191.4215" x2="626.571" y2="191.4215"/><line class="cls-31" x1="652.6982" y1="270.1678" x2="652.6982" y2="167.4653"/><line class="cls-42" x1="652.6981" y1="167.4494" x2="611.6179" y2="167.4494"/><line class="cls-49" x1="637.2905" y1="246.1924" x2="660.9823" y2="246.1924"/><line class="cls-49" x1="602.8832" y1="246.1842" x2="626.571" y2="246.1842"/><line class="cls-49" x1="602.8791" y1="232.4936" x2="626.5669" y2="232.4936"/><line class="cls-49" x1="637.2864" y1="232.4936" x2="660.9782" y2="232.4936"/><line class="cls-49" x1="602.8791" y1="218.8028" x2="626.5669" y2="218.8028"/><line class="cls-49" x1="637.2864" y1="218.8028" x2="660.9782" y2="218.8028"/><line class="cls-49" x1="591.985" y1="182.581" x2="591.985" y2="191.4863"/><line class="cls-49" x1="602.8791" y1="205.1081" x2="626.5669" y2="205.1081"/><line class="cls-49" x1="637.2864" y1="205.1081" x2="660.9782" y2="205.1081"/><line class="cls-49" x1="589.4441" y1="195.7887" x2="594.5217" y2="195.7887"/><line class="cls-49" x1="587.4391" y1="193.6375" x2="596.539" y2="193.6375"/><line class="cls-49" x1="585.2228" y1="191.4904" x2="598.7511" y2="191.4904"/><line class="cls-49" x1="602.8791" y1="191.4133" x2="626.5669" y2="191.4133"/><line class="cls-49" x1="637.2864" y1="191.4133" x2="660.9782" y2="191.4133"/><rect class="cls-49" x="611.6179" y="167.4537" width="41.0802" height="102.7025"/><text class="cls-34" transform="translate(663.0908 194.3447) scale(1 1.0115)">CS0</text><text class="cls-34" transform="translate(663.0845 208.021) scale(1 1.0115)">CS1</text><text class="cls-34" transform="translate(663.0767 221.9634) scale(1 1.0115)">5V</text><text class="cls-34" transform="translate(663.0688 235.7178) scale(1 1.0115)">CS2</text><text class="cls-34" transform="translate(663.2612 249.4229) scale(1 1.0115)">CS3</text><text class="cls-34" transform="translate(571.0957 208.9463) scale(1 1.0115)">SCLK</text><text class="cls-34" transform="translate(569.8018 222.6431) scale(1 1.0115)">MOSI</text><text class="cls-34" transform="translate(569.7939 236.3975) scale(1 1.0115)">MISO</text><text class="cls-34" transform="translate(576.9219 250.5884) scale(1 1.0115)">3.3V</text><rect class="cls-37" x="624.9425" y="189.3971" width="3.1791" height="3.4581"/><rect class="cls-37" x="624.9425" y="203.0837" width="3.1791" height="3.4581"/><rect class="cls-37" x="624.9427" y="216.7744" width="3.1791" height="3.4581"/><rect class="cls-37" x="624.9425" y="230.4651" width="3.1791" height="3.4581"/><rect class="cls-37" x="624.9425" y="244.1598" width="3.1791" height="3.4581"/><rect class="cls-37" x="635.662" y="244.168" width="3.1791" height="3.4581"/><rect class="cls-37" x="635.658" y="230.4692" width="3.1791" height="3.4581"/><rect class="cls-37" x="635.658" y="216.7784" width="3.1791" height="3.4581"/><rect class="cls-37" x="635.658" y="203.0837" width="3.1791" height="3.4581"/><rect class="cls-37" x="635.658" y="189.3889" width="3.1791" height="3.4581"/><text class="cls-10" transform="translate(618.502 157.104)">SPI</text></g><g id="Edge_Fix_TOP_" data-name="Edge Fix (TOP)"><path class="cls-12" d="M0,0V787.72H798.0178V0ZM749.7467,778.8171l-698.0227.5137c-25.7844-2.0646-41.7152-20.1636-44.877-45.14L7.611,48.5258c2.03-21.1,20.1644-39.3677,40.9884-41.6015l700.17.1456c21.0428,2.4863,38.8976,20.0071,41.99,40.9878l.0759,684.1015C790.86,757.3932,774.6747,774.56,749.7467,778.8171Z"/></g></svg>