<svg xmlns="http://www.w3.org/2000/svg" viewBox="0 0 800 785"><defs><style>.cls-1{fill:#434343;}.cls-2{fill:#4f4e51;}.cls-3{fill:#323031;}.cls-4{fill:#424242;}.cls-5{fill:#6a5f27;}.cls-6{fill:#5a5a5d;}.cls-7{fill:#f2f2f2;}.cls-8{fill:#221f1f;}.cls-13,.cls-30,.cls-31,.cls-41,.cls-42,.cls-46,.cls-47,.cls-49,.cls-9{fill:none;}.cls-9{stroke:#5a5a5d;stroke-width:5.416px;}.cls-13,.cls-9{stroke-miterlimit:10;}.cls-10{font-size:16.248px;}.cls-10,.cls-11,.cls-12,.cls-18,.cls-23,.cls-29,.cls-32,.cls-33,.cls-34,.cls-36,.cls-37,.cls-38,.cls-39,.cls-40,.cls-43,.cls-45{fill:#fff;}.cls-10,.cls-11,.cls-18,.cls-23,.cls-29,.cls-33,.cls-34,.cls-36,.cls-39,.cls-40,.cls-43,.cls-45{font-family:Heebo-Light, Heebo;font-weight:300;}.cls-11{font-size:10.832px;}.cls-13,.cls-31,.cls-32,.cls-37,.cls-38,.cls-46,.cls-47,.cls-49{stroke:#fff;}.cls-13{stroke-width:2.708px;}.cls-14{letter-spacing:0.009em;}.cls-15{letter-spacing:-0.058em;}.cls-16{letter-spacing:0em;}.cls-17{letter-spacing:-0.031em;}.cls-18{font-size:11.7401px;}.cls-19{fill:#9b9b9b;}.cls-20{fill:#171717;}.cls-21{fill:#f3ea07;}.cls-22{fill:#7cc244;}.cls-23{font-size:32.496px;}.cls-24{letter-spacing:-0.013em;}.cls-25{fill:#51545a;}.cls-26{fill:#3c3d42;}.cls-27{fill:#5a5d65;}.cls-28{fill:#23446c;}.cls-29{font-size:11.1981px;}.cls-30,.cls-41{stroke:#f1f2f2;}.cls-30,.cls-31,.cls-32,.cls-38,.cls-41,.cls-42,.cls-46{stroke-miterlimit:2;}.cls-31,.cls-32,.cls-37,.cls-38,.cls-41,.cls-42,.cls-49{stroke-width:0.686px;}.cls-32,.cls-37,.cls-47{stroke-linecap:round;}.cls-33{font-size:10.9221px;}.cls-34{font-size:11.699px;}.cls-35{letter-spacing:-0.019em;}.cls-36{font-size:10.9278px;}.cls-37,.cls-47,.cls-49{stroke-linejoin:round;}.cls-39{font-size:9.9074px;}.cls-40{font-size:9.6078px;}.cls-42{stroke:#020202;}.cls-43,.cls-45{font-size:11.4352px;}.cls-43{letter-spacing:-0.02em;}.cls-44{letter-spacing:0em;}.cls-46{stroke-width:0.588px;}.cls-47{stroke-width:0.506px;}.cls-48{fill:#231f20;}.cls-50{opacity:0.33;}.cls-51{fill:#00aeef;}</style></defs><g id="roboRIO"><path class="cls-1" d="M738.219,772.2676l-699.2185.9311a41.8157,41.8157,0,0,1-41.76-41.8712V40.3949a41.8157,41.8157,0,0,1,41.76-41.8712l704.5445-.931a41.8156,41.8156,0,0,1,41.76,41.8711V725.0563c2.4,27.8894-12.3474,47.6875-38.9832,47.21"/><rect class="cls-2" x="9.6351" y="13.1785" width="763.4358" height="747.9174" rx="29.4466"/><rect class="cls-3" x="16.0356" y="274.3895" width="46.329" height="413.1708"/><path class="cls-4" d="M545.0346,131.6331H232.6806a19.4985,19.4985,0,0,1-19.498-19.4978V31.6092a19.4986,19.4986,0,0,1,19.498-19.4981h312.354a19.4985,19.4985,0,0,1,19.4978,19.4981v80.5261a19.4984,19.4984,0,0,1-19.4978,19.4978"/><rect class="cls-3" x="247.6968" y="516.8123" width="279.7219" height="51.5601"/><path class="cls-5" d="M41.6791,296.9593a2.7241,2.7241,0,1,1-2.7241-2.7239,2.723,2.723,0,0,1,2.7241,2.7239"/><path class="cls-5" d="M29.4877,296.9593a2.7241,2.7241,0,1,1-2.7222-2.7239,2.7212,2.7212,0,0,1,2.7222,2.7239"/><path class="cls-5" d="M54.3607,296.9593a2.723,2.723,0,1,1-2.7221-2.7239,2.7212,2.7212,0,0,1,2.7221,2.7239"/><path class="cls-5" d="M41.6791,338.191a2.7241,2.7241,0,1,1-2.7241-2.7236,2.723,2.723,0,0,1,2.7241,2.7236"/><path class="cls-5" d="M29.4877,338.191a2.7241,2.7241,0,1,1-2.7222-2.7236,2.7212,2.7212,0,0,1,2.7222,2.7236"/><path class="cls-5" d="M54.3607,338.191a2.723,2.723,0,1,1-2.7221-2.7236,2.7212,2.7212,0,0,1,2.7221,2.7236"/><path class="cls-5" d="M41.6791,379.4228a2.7241,2.7241,0,1,1-2.7241-2.7235,2.723,2.723,0,0,1,2.7241,2.7235"/><path class="cls-5" d="M29.4877,379.4228a2.7241,2.7241,0,1,1-2.7222-2.7235,2.7212,2.7212,0,0,1,2.7222,2.7235"/><path class="cls-5" d="M54.3607,379.4228a2.723,2.723,0,1,1-2.7221-2.7235,2.7212,2.7212,0,0,1,2.7221,2.7235"/><path class="cls-5" d="M41.6791,420.6545a2.7241,2.7241,0,1,1-2.7241-2.7232,2.7231,2.7231,0,0,1,2.7241,2.7232"/><path class="cls-5" d="M29.4877,420.6545a2.7241,2.7241,0,1,1-2.7222-2.7232,2.7213,2.7213,0,0,1,2.7222,2.7232"/><path class="cls-5" d="M54.3607,420.6545a2.723,2.723,0,1,1-2.7221-2.7232,2.7213,2.7213,0,0,1,2.7221,2.7232"/><path class="cls-5" d="M41.6791,461.8863a2.7241,2.7241,0,1,1-2.7241-2.723,2.723,2.723,0,0,1,2.7241,2.723"/><path class="cls-5" d="M29.4877,461.8863a2.7241,2.7241,0,1,1-2.7222-2.723,2.7212,2.7212,0,0,1,2.7222,2.723"/><path class="cls-5" d="M54.3607,461.8863a2.723,2.723,0,1,1-2.7221-2.723,2.7212,2.7212,0,0,1,2.7221,2.723"/><path class="cls-5" d="M41.6791,503.118a2.7241,2.7241,0,1,1-2.7241-2.7227,2.723,2.723,0,0,1,2.7241,2.7227"/><path class="cls-5" d="M29.4877,503.118a2.7241,2.7241,0,1,1-2.7222-2.7227,2.7212,2.7212,0,0,1,2.7222,2.7227"/><path class="cls-5" d="M54.3607,503.118a2.723,2.723,0,1,1-2.7221-2.7227,2.7212,2.7212,0,0,1,2.7221,2.7227"/><path class="cls-5" d="M41.6791,544.35a2.7241,2.7241,0,1,1-2.7241-2.7226,2.723,2.723,0,0,1,2.7241,2.7226"/><path class="cls-5" d="M29.4877,544.35a2.7241,2.7241,0,1,1-2.7222-2.7226,2.7212,2.7212,0,0,1,2.7222,2.7226"/><path class="cls-5" d="M54.3607,544.35a2.723,2.723,0,1,1-2.7221-2.7226,2.7212,2.7212,0,0,1,2.7221,2.7226"/><path class="cls-5" d="M41.6791,585.5816a2.7241,2.7241,0,1,1-2.7241-2.7224,2.723,2.723,0,0,1,2.7241,2.7224"/><path class="cls-5" d="M29.4877,585.5816a2.7241,2.7241,0,1,1-2.7222-2.7224,2.7212,2.7212,0,0,1,2.7222,2.7224"/><path class="cls-5" d="M54.3607,585.5816a2.723,2.723,0,1,1-2.7221-2.7224,2.7212,2.7212,0,0,1,2.7221,2.7224"/><path class="cls-5" d="M41.6791,626.8133a2.7241,2.7241,0,1,1-2.7241-2.7221,2.723,2.723,0,0,1,2.7241,2.7221"/><path class="cls-5" d="M29.4877,626.8133a2.7241,2.7241,0,1,1-2.7222-2.7221,2.7212,2.7212,0,0,1,2.7222,2.7221"/><path class="cls-5" d="M54.3607,626.8133a2.723,2.723,0,1,1-2.7221-2.7221,2.7212,2.7212,0,0,1,2.7221,2.7221"/><path class="cls-5" d="M41.6791,668.0451a2.7241,2.7241,0,1,1-2.7241-2.7219,2.723,2.723,0,0,1,2.7241,2.7219"/><path class="cls-5" d="M29.4877,668.0451a2.7241,2.7241,0,1,1-2.7222-2.7219,2.7212,2.7212,0,0,1,2.7222,2.7219"/><path class="cls-5" d="M54.3607,668.0451a2.723,2.723,0,1,1-2.7221-2.7219,2.7212,2.7212,0,0,1,2.7221,2.7219"/><rect class="cls-3" x="17.4106" y="219.3963" width="45.05" height="36.188"/><path class="cls-5" d="M42.66,237.4905a2.7241,2.7241,0,1,1-2.7241-2.7219,2.723,2.723,0,0,1,2.7241,2.7219"/><path class="cls-5" d="M30.4682,237.4905a2.7241,2.7241,0,1,1-2.7221-2.7219,2.7212,2.7212,0,0,1,2.7221,2.7219"/><path class="cls-5" d="M55.3413,237.4905a2.7231,2.7231,0,1,1-2.7222-2.7219,2.7212,2.7212,0,0,1,2.7222,2.7219"/><rect class="cls-3" x="17.4106" y="155.9903" width="60.6521" height="39.05"/><path class="cls-5" d="M43.9311,175.514a2.7241,2.7241,0,1,1-2.7241-2.722,2.7247,2.7247,0,0,1,2.7241,2.722"/><path class="cls-5" d="M31.74,175.514a2.7241,2.7241,0,1,1-2.7221-2.722,2.7229,2.7229,0,0,1,2.7221,2.722"/><path class="cls-5" d="M56.6128,175.514a2.7231,2.7231,0,1,1-2.7222-2.722,2.7229,2.7229,0,0,1,2.7222,2.722"/><path class="cls-5" d="M69.1792,175.514a2.7242,2.7242,0,1,1-2.7222-2.722,2.7229,2.7229,0,0,1,2.7222,2.722"/><rect class="cls-3" x="220.636" y="704.1686" width="158.48" height="45.05"/><path class="cls-5" d="M238.732,723.9705a2.723,2.723,0,1,1-2.7241,2.722,2.7211,2.7211,0,0,1,2.7241-2.722"/><path class="cls-5" d="M238.732,736.16a2.7241,2.7241,0,1,1-2.7241,2.7241,2.7216,2.7216,0,0,1,2.7241-2.7241"/><path class="cls-5" d="M238.732,711.2869a2.7241,2.7241,0,1,1-2.7241,2.722,2.7211,2.7211,0,0,1,2.7241-2.722"/><rect class="cls-3" x="261.088" y="704.1686" width="36.188" height="45.05"/><path class="cls-5" d="M279.1832,723.9705a2.723,2.723,0,1,1-2.7222,2.722,2.7227,2.7227,0,0,1,2.7222-2.722"/><path class="cls-5" d="M279.1832,736.16a2.7241,2.7241,0,1,1-2.7222,2.7241,2.7232,2.7232,0,0,1,2.7222-2.7241"/><path class="cls-5" d="M279.1832,711.2869a2.7241,2.7241,0,1,1-2.7222,2.722,2.7227,2.7227,0,0,1,2.7222-2.722"/><rect class="cls-3" x="342.928" y="704.1686" width="36.188" height="45.05"/><path class="cls-5" d="M361.023,723.9705a2.723,2.723,0,1,1-2.7222,2.722,2.7228,2.7228,0,0,1,2.7222-2.722"/><path class="cls-5" d="M361.023,736.16a2.7241,2.7241,0,1,1-2.7222,2.7241,2.7233,2.7233,0,0,1,2.7222-2.7241"/><path class="cls-5" d="M361.023,711.2869a2.7241,2.7241,0,1,1-2.7222,2.722,2.7228,2.7228,0,0,1,2.7222-2.722"/><rect class="cls-3" x="302.032" y="704.1686" width="36.188" height="45.05"/><path class="cls-5" d="M320.1265,723.9705a2.723,2.723,0,1,1-2.7221,2.722,2.7212,2.7212,0,0,1,2.7221-2.722"/><path class="cls-5" d="M320.1265,736.16a2.7241,2.7241,0,1,1-2.7221,2.7241,2.7216,2.7216,0,0,1,2.7221-2.7241"/><path class="cls-5" d="M320.1265,711.2869a2.7241,2.7241,0,1,1-2.7221,2.722,2.7212,2.7212,0,0,1,2.7221-2.722"/><rect class="cls-3" x="397.1647" y="704.0606" width="158.48" height="45.05"/><path class="cls-5" d="M415.2578,723.8625a2.723,2.723,0,1,1-2.7222,2.722,2.7215,2.7215,0,0,1,2.7222-2.722"/><path class="cls-5" d="M415.2578,736.0519a2.7241,2.7241,0,1,1-2.7222,2.7241,2.722,2.722,0,0,1,2.7222-2.7241"/><path class="cls-5" d="M415.2578,711.1789a2.7241,2.7241,0,1,1-2.7222,2.722,2.7215,2.7215,0,0,1,2.7222-2.722"/><rect class="cls-3" x="437.6166" y="704.0606" width="36.188" height="45.05"/><path class="cls-5" d="M455.7109,723.8625a2.723,2.723,0,1,1-2.7241,2.722,2.7211,2.7211,0,0,1,2.7241-2.722"/><path class="cls-5" d="M455.7109,736.0519a2.7241,2.7241,0,1,1-2.7241,2.7241,2.7216,2.7216,0,0,1,2.7241-2.7241"/><path class="cls-5" d="M455.7109,711.1789a2.7241,2.7241,0,1,1-2.7241,2.722,2.7211,2.7211,0,0,1,2.7241-2.722"/><rect class="cls-3" x="519.4567" y="704.0606" width="36.188" height="45.05"/><path class="cls-5" d="M537.5507,723.8625a2.723,2.723,0,1,1-2.7241,2.722,2.7211,2.7211,0,0,1,2.7241-2.722"/><path class="cls-5" d="M537.5507,736.0519a2.7241,2.7241,0,1,1-2.7241,2.7241,2.7216,2.7216,0,0,1,2.7241-2.7241"/><path class="cls-5" d="M537.5507,711.1789a2.7241,2.7241,0,1,1-2.7241,2.722,2.7211,2.7211,0,0,1,2.7241-2.722"/><rect class="cls-3" x="478.5588" y="704.0606" width="36.1899" height="45.05"/><path class="cls-5" d="M496.6542,723.8625a2.723,2.723,0,1,1-2.7241,2.722,2.7212,2.7212,0,0,1,2.7241-2.722"/><path class="cls-5" d="M496.6542,736.0519a2.7241,2.7241,0,1,1-2.7241,2.7241,2.7216,2.7216,0,0,1,2.7241-2.7241"/><path class="cls-5" d="M496.6542,711.1789a2.7241,2.7241,0,1,1-2.7241,2.722,2.7212,2.7212,0,0,1,2.7241-2.722"/><rect class="cls-6" x="22.1748" y="81.9983" width="43.512" height="24.8181"/><rect class="cls-7" x="31.9509" y="86.6524" width="27.9199" height="14.7339"/><path class="cls-8" d="M44.9409,94.4085a9.791,9.791,0,1,1-9.7922-9.792,9.79,9.79,0,0,1,9.7922,9.792"/><rect class="cls-6" x="22.1748" y="106.8164" width="43.512" height="24.8159"/><rect class="cls-7" x="31.9509" y="111.4705" width="27.9199" height="14.7339"/><path class="cls-8" d="M44.9409,119.2249a9.791,9.791,0,1,1-9.7922-9.792,9.7922,9.7922,0,0,1,9.7922,9.792"/><polygon class="cls-3" points="136.177 19.866 136.177 53.84 128.791 53.84 128.791 94.02 136.177 94.02 136.177 119.226 171.627 119.226 171.627 94.02 187.135 94.02 187.135 52.362 173.843 51.624 173.105 19.866 136.177 19.866"/><path class="cls-8" d="M163.6928,35a9.791,9.791,0,1,1-9.7922-9.792A9.7922,9.7922,0,0,1,163.6928,35"/><path class="cls-8" d="M163.6928,103.9866a9.791,9.791,0,1,1-9.7922-9.792,9.7908,9.7908,0,0,1,9.7922,9.792"/><rect class="cls-8" x="157.9648" y="58.1724" width="25.478" height="10.3379"/><rect class="cls-8" x="157.9648" y="76.6443" width="25.478" height="10.3401"/><path class="cls-7" d="M353.23,614.9591h-3.0762a82.86,82.86,0,0,1-6.85-8.9439h-.042v8.9439H339.64v-15.27h3.3379c2.2041,2.706,5.4961,6.676,6.5881,8.748h.042v-8.748H353.23v15.27"/><path class="cls-7" d="M363.8984,599.6888l5.802,15.27h-4.886l-1.2-3.642H358.88l-1.4619,3.642h-3.5979l6.2159-15.27Zm-1.0259,9.2059c-.5022-1.81-.9382-3.272-1.4841-5.454h-.0439c-.5882,2.182-1.1121,3.6441-1.68,5.454h3.208"/><polygon class="cls-7" points="371.162 614.959 371.162 602.547 366.756 602.547 366.756 599.689 380.171 599.689 380.171 602.547 375.765 602.547 375.765 614.959 371.162 614.959"/><rect class="cls-7" x="381.6548" y="599.6903" width="4.604" height="15.27"/><path class="cls-7" d="M387.3674,607.1506a7.5921,7.5921,0,1,1,15.1819,0c0,4.5581-2.9019,8.07-7.592,8.07s-7.59-3.5119-7.59-8.07m10.3821,0c0-2.706-.8281-4.538-2.7922-4.538s-2.792,1.832-2.792,4.538c0,2.878.7421,4.884,2.792,4.884s2.7922-2.006,2.7922-4.884"/><path class="cls-7" d="M417.25,614.9591h-3.0742a82.36,82.36,0,0,1-6.85-8.9439h-.0439v8.9439h-3.6221v-15.27h3.3379c2.2041,2.706,5.4961,6.676,6.5881,8.748h.044v-8.748h3.62v15.27"/><path class="cls-7" d="M427.6992,599.6888l5.802,15.27h-4.884l-1.2019-3.642h-4.7342l-1.4619,3.642h-3.5979l6.2178-15.27Zm-1.0259,9.2059c-.5-1.81-.9382-3.272-1.4822-5.454h-.0439c-.59,2.182-1.1121,3.6441-1.6819,5.454h3.208"/><polygon class="cls-7" points="434.529 599.689 439.131 599.689 439.131 612.102 444.715 612.102 444.715 614.96 434.529 614.96 434.529 599.689"/><rect class="cls-7" x="332.7668" y="619.6884" width="4.604" height="15.272"/><path class="cls-7" d="M352.9214,634.9591h-3.0743a82.672,82.672,0,0,1-6.8518-8.9459h-.042v8.9459h-3.622V619.6872h3.3379c2.2041,2.706,5.498,6.676,6.5881,8.748h.042v-8.748h3.6221v15.2719"/><path class="cls-7" d="M362.63,622.8517a4.3438,4.3438,0,0,0-2.248-.568c-.894,0-1.3521.4381-1.3521.94,0,.848,1.2881,1.548,2.772,2.92,1.96,1.834,2.4419,2.99,2.4419,4.584,0,1.35-1.1118,4.494-5.6938,4.494a7.7347,7.7347,0,0,1-4.7981-1.398l1.396-2.53a4.3221,4.3221,0,0,0,2.6159,1.068c.9161,0,1.92-.458,1.92-1.5919,0-1.22-1.4841-2.1161-2.6821-3.162-1.5921-1.396-2.532-2.206-2.532-4.08,0-2.4439,2.4641-4.1019,5.3459-4.1019a8.1254,8.1254,0,0,1,3.9922,1.026l-1.178,2.4"/><polygon class="cls-7" points="368.781 634.959 368.781 622.545 364.375 622.545 364.375 619.687 377.789 619.687 377.789 622.545 373.384 622.545 373.384 634.959 368.781 634.959"/><path class="cls-7" d="M379.2705,619.687h6.8078c3.5979,0,5.54,1.5721,5.54,4.08a4.58,4.58,0,0,1-2.574,4.406l3.38,6.546-4.928.5021-2.42-6.0441h-1.2019v5.782h-4.604Zm4.604,6.612h1.3078a1.8411,1.8411,0,0,0,1.8321-1.876,1.6849,1.6849,0,0,0-1.918-1.8779h-1.2219v3.7539"/><path class="cls-7" d="M397.5971,619.6878v7.9861c0,2.7459.4139,4.3619,2.356,4.3619,1.5259,0,2.4-1.5279,2.4-4.428v-7.92h3.97v9.228c0,4.56-3.0979,6.306-6.5879,6.306-3.9041,0-6.742-1.6379-6.742-6.196v-9.338h4.604"/><path class="cls-7" d="M426.894,634.9591h-4.602v-10.69h-.042c-1.18,3.9919-2.4,7.3521-3.624,10.69h-2.9c-1.2439-3.3378-2.4878-6.698-3.688-10.69h-.042v10.69H408.374V619.6872h6.2378c1.0481,2.924,2.094,5.826,3.12,9.4019h.044c.9819-3.5759,2.0061-6.4779,3.01-9.4019h6.1081v15.2719"/><polygon class="cls-7" points="438.13 622.545 433.462 622.545 433.462 625.557 438.022 625.557 438.022 628.415 433.462 628.415 433.462 632.099 439.07 632.099 439.07 634.959 428.86 634.959 428.86 619.687 438.13 619.687 438.13 622.545"/><path class="cls-7" d="M453.4878,634.9591h-3.0762a82.6273,82.6273,0,0,1-6.85-8.9459H443.52v8.9459h-3.6221V619.6872h3.3379c2.2041,2.706,5.4961,6.676,6.5881,8.748h.042v-8.748h3.6221v15.2719"/><polygon class="cls-7" points="458.724 634.959 458.724 622.545 454.318 622.545 454.318 619.687 467.734 619.687 467.734 622.545 463.328 622.545 463.328 634.959 458.724 634.959"/><path class="cls-7" d="M476.7417,622.8517a4.3421,4.3421,0,0,0-2.2461-.568c-.896,0-1.354.4381-1.354.94,0,.848,1.2881,1.548,2.77,2.92,1.9639,1.834,2.4438,2.99,2.4438,4.584,0,1.35-1.1118,4.494-5.6919,4.494a7.7371,7.7371,0,0,1-4.8-1.398l1.396-2.53a4.3322,4.3322,0,0,0,2.616,1.068c.916,0,1.92-.458,1.92-1.5919,0-1.22-1.4821-2.1161-2.6821-3.162-1.592-1.396-2.532-2.206-2.532-4.08,0-2.4439,2.4661-4.1019,5.346-4.1019a8.1258,8.1258,0,0,1,3.9922,1.026l-1.178,2.4"/><path class="cls-7" d="M479.1843,622.3166v-2.16h-.82v-.276H480.42v.276h-.8162v2.16Zm4.4441,0h-.4241v-1.7959h-.0119l-.9642,1.7959h-.2l-.896-1.7959h-.0081v1.7959h-.344v-2.4359h.4881l.918,1.8259.9939-1.8259h.4482v2.4359"/><path class="cls-7" d="M316.0718,605.4533a5.8212,5.8212,0,0,1,4.2077-4.886c5.1541-1.464,7.9121-1.194,17.1541-1.27-5.54,4.9579-9.9639,12.77-8.9739,20.4139-1.99-1.63-3.334-3.96-5.062-5.822a19.2463,19.2463,0,0,0,1.6679-3.8879c.6121-2.312,2.2781-2.8581,4.39-2.7941.1582.006-.124-1.78-.708-1.938-1.5739-.426-2.906.08-4.7339-.626a2.2278,2.2278,0,0,0-1.7438.3321c-1.5.766-2.45,2.4039-4.1382,2.922Z"/><path class="cls-7" d="M287.8159,603.9572a25.0925,25.0925,0,0,1,9.9539-4.324c4.716-.8619,9.8259-.926,13.3479,2.47,6.654,6.408,12.0422,13.1339,17.8781,20.4559.23.288.21,1.0761.01,1.19a83.7293,83.7293,0,0,1-12.6721,5.934,2.1881,2.1881,0,0,1-2.03-.448c-6.6538-6.0461-11.21-13.282-17.596-19.5721a21.3222,21.3222,0,0,0-8.7238-5.186c-.2642-.0819-.3121-.42-.168-.52"/><path class="cls-7" d="M311.07,633.4572a42.8284,42.8284,0,0,0-11.9382,12.718,26.5054,26.5054,0,0,1,.48-14.968c1.67-4.6759,1.99-9.216,2.2119-14.09,3.0359,3.496,6.4819,7.36,9.32,10.866Z"/><rect class="cls-3" x="258.8628" y="526.8003" width="260.228" height="32.484"/><path class="cls-5" d="M277.6089,546.1193a1.9641,1.9641,0,1,1-1.9641,1.9641,1.9632,1.9632,0,0,1,1.9641-1.9641"/><path class="cls-5" d="M277.6089,536.0391a1.9641,1.9641,0,1,1-1.9641,1.9641,1.962,1.962,0,0,1,1.9641-1.9641"/><path class="cls-5" d="M289.7007,546.1193a1.9641,1.9641,0,1,1-1.9642,1.9641,1.9632,1.9632,0,0,1,1.9642-1.9641"/><path class="cls-5" d="M289.7007,536.0391a1.9641,1.9641,0,1,1-1.9642,1.9641,1.962,1.962,0,0,1,1.9642-1.9641"/><path class="cls-5" d="M304.6577,546.1076a1.9641,1.9641,0,1,1-1.9641,1.9641,1.9618,1.9618,0,0,1,1.9641-1.9641"/><path class="cls-5" d="M304.6577,536.0275a1.9641,1.9641,0,1,1-1.9641,1.9641,1.9619,1.9619,0,0,1,1.9641-1.9641"/><path class="cls-5" d="M316.75,546.1076a1.9641,1.9641,0,1,1-1.9622,1.9641,1.9618,1.9618,0,0,1,1.9622-1.9641"/><path class="cls-5" d="M316.75,536.0275a1.9641,1.9641,0,1,1-1.9622,1.9641,1.9619,1.9619,0,0,1,1.9622-1.9641"/><path class="cls-5" d="M332.3589,546.1076a1.9641,1.9641,0,1,1-1.9641,1.9641,1.9619,1.9619,0,0,1,1.9641-1.9641"/><path class="cls-5" d="M332.3589,536.0275a1.9641,1.9641,0,1,1-1.9641,1.962,1.9615,1.9615,0,0,1,1.9641-1.962"/><path class="cls-5" d="M344.4507,546.1076a1.9641,1.9641,0,1,1-1.9622,1.9641,1.9635,1.9635,0,0,1,1.9622-1.9641"/><path class="cls-5" d="M344.4507,536.0275a1.9641,1.9641,0,1,1-1.9622,1.962,1.9631,1.9631,0,0,1,1.9622-1.962"/><path class="cls-5" d="M359.6655,546.1076a1.9641,1.9641,0,1,1-1.9622,1.9641,1.9623,1.9623,0,0,1,1.9622-1.9641"/><path class="cls-5" d="M359.6655,536.0275a1.9641,1.9641,0,1,1-1.9622,1.962,1.9619,1.9619,0,0,1,1.9622-1.962"/><path class="cls-5" d="M374.2651,546.1076a1.9641,1.9641,0,1,1-1.9641,1.9641,1.9618,1.9618,0,0,1,1.9641-1.9641"/><path class="cls-5" d="M374.2651,536.0275a1.9641,1.9641,0,1,1-1.9641,1.962,1.9614,1.9614,0,0,1,1.9641-1.962"/><path class="cls-5" d="M388.7163,546.1076a1.9641,1.9641,0,1,1-1.9622,1.9641,1.9623,1.9623,0,0,1,1.9622-1.9641"/><path class="cls-5" d="M388.7163,536.0275a1.9641,1.9641,0,1,1-1.9622,1.9641,1.9624,1.9624,0,0,1,1.9622-1.9641"/><path class="cls-5" d="M401.6225,546.11a1.9631,1.9631,0,1,1-1.9621,1.9621,1.9619,1.9619,0,0,1,1.9621-1.9621"/><path class="cls-5" d="M401.6225,536.0275a1.9641,1.9641,0,1,1-1.9621,1.9641,1.9623,1.9623,0,0,1,1.9621-1.9641"/><path class="cls-5" d="M414.8393,546.1076a1.9641,1.9641,0,1,1-1.9641,1.9641,1.9631,1.9631,0,0,1,1.9641-1.9641"/><path class="cls-5" d="M414.8393,536.0275a1.9641,1.9641,0,1,1-1.9641,1.9641,1.9619,1.9619,0,0,1,1.9641-1.9641"/><path class="cls-5" d="M427.8589,546.1076a1.9641,1.9641,0,1,1-1.9641,1.9641,1.9619,1.9619,0,0,1,1.9641-1.9641"/><path class="cls-5" d="M427.8589,536.0275a1.9641,1.9641,0,1,1-1.9641,1.9641,1.962,1.962,0,0,1,1.9641-1.9641"/><path class="cls-5" d="M442.7514,546.1076a1.9641,1.9641,0,1,1-1.9621,1.9641,1.9632,1.9632,0,0,1,1.9621-1.9641"/><path class="cls-5" d="M442.7514,536.0275a1.9641,1.9641,0,1,1-1.9621,1.9641,1.962,1.962,0,0,1,1.9621-1.9641"/><path class="cls-5" d="M455.9175,546.1076a1.9641,1.9641,0,1,1-1.9622,1.9641,1.9635,1.9635,0,0,1,1.9622-1.9641"/><path class="cls-5" d="M455.9175,536.0275a1.9641,1.9641,0,1,1-1.9622,1.9641,1.9636,1.9636,0,0,1,1.9622-1.9641"/><path class="cls-5" d="M468.9116,546.1076a1.9641,1.9641,0,1,1-1.9641,1.9641,1.9631,1.9631,0,0,1,1.9641-1.9641"/><path class="cls-5" d="M468.9116,536.0275a1.9641,1.9641,0,1,1-1.9641,1.9641,1.9619,1.9619,0,0,1,1.9641-1.9641"/><path class="cls-5" d="M482.9663,546.11a1.9631,1.9631,0,1,1-1.9622,1.9621,1.962,1.962,0,0,1,1.9622-1.9621"/><path class="cls-5" d="M482.9663,536.0275a1.9641,1.9641,0,1,1-1.9622,1.9641,1.9624,1.9624,0,0,1,1.9622-1.9641"/><path class="cls-5" d="M495.8667,546.11a1.9631,1.9631,0,1,1-1.9641,1.9621,1.9615,1.9615,0,0,1,1.9641-1.9621"/><path class="cls-5" d="M495.8667,536.0275a1.9641,1.9641,0,1,1-1.9641,1.9641,1.9619,1.9619,0,0,1,1.9641-1.9641"/><polyline class="cls-9" points="372.673 523.367 255.269 523.367 255.269 562.695 519.463 562.695 519.463 523.367 404.031 523.367"/><path class="cls-5" d="M263.9448,176.7561a9.3811,9.3811,0,1,1-9.38-9.38,9.3807,9.3807,0,0,1,9.38,9.38"/><path class="cls-8" d="M259.98,176.7561a5.4161,5.4161,0,1,1-5.4161-5.4157,5.4162,5.4162,0,0,1,5.4161,5.4157"/><path class="cls-5" d="M530.8276,168.83a9.3813,9.3813,0,1,1-13.2681,0,9.3831,9.3831,0,0,1,13.2681,0"/><path class="cls-8" d="M529.6108,175.4632a5.416,5.416,0,1,1-5.416-5.4158,5.4174,5.4174,0,0,1,5.416,5.4158"/><rect class="cls-3" x="599.0547" y="18.9163" width="51.5581" height="112.7161"/><rect class="cls-3" x="609.0288" y="22.2723" width="32.4861" height="104.8621"/><path class="cls-5" d="M628.3491,108.68c0-.438.8779-.792,1.9619-.792s1.9639.354,1.9639.792-.88.7922-1.9639.7922-1.9619-.354-1.9619-.7922"/><path class="cls-5" d="M618.2671,108.68c0-.438.8779-.792,1.9638-.792,1.084,0,1.9641.354,1.9641.792s-.88.7922-1.9641.7922c-1.0859,0-1.9638-.354-1.9638-.7922"/><path class="cls-5" d="M628.3491,103.8069c0-.438.8779-.792,1.9619-.792s1.9639.354,1.9639.792-.88.7923-1.9639.7923-1.9619-.354-1.9619-.7923"/><path class="cls-5" d="M618.2671,103.8069c0-.438.8779-.792,1.9638-.792,1.084,0,1.9641.354,1.9641.792s-.88.7923-1.9641.7923c-1.0859,0-1.9638-.354-1.9638-.7923"/><path class="cls-5" d="M628.3491,97.5179c0-.438.8779-.792,1.9619-.792s1.9639.354,1.9639.792-.88.7922-1.9639.7922-1.9619-.354-1.9619-.7922"/><path class="cls-5" d="M618.2671,97.5179c0-.438.8779-.792,1.9638-.792,1.084,0,1.9641.354,1.9641.792s-.88.7922-1.9641.7922c-1.0859,0-1.9638-.354-1.9638-.7922"/><path class="cls-5" d="M628.3491,92.6448c0-.438.8779-.792,1.9619-.792s1.9639.354,1.9639.792-.88.7922-1.9639.7922-1.9619-.354-1.9619-.7922"/><path class="cls-5" d="M618.2671,92.6448c0-.438.8779-.792,1.9638-.792,1.084,0,1.9641.354,1.9641.792s-.88.7922-1.9641.7922c-1.0859,0-1.9638-.354-1.9638-.7922"/><path class="cls-5" d="M628.3491,86.514c0-.438.8779-.792,1.9619-.792s1.9639.354,1.9639.792-.88.7922-1.9639.7922-1.9619-.354-1.9619-.7922"/><path class="cls-5" d="M618.2671,86.514c0-.438.8779-.792,1.9638-.792,1.084,0,1.9641.354,1.9641.792s-.88.7922-1.9641.7922c-1.0859,0-1.9638-.354-1.9638-.7922"/><path class="cls-5" d="M628.3491,80.6311c0-.4379.8779-.792,1.9619-.792s1.9639.3541,1.9639.792-.88.7923-1.9639.7923-1.9619-.354-1.9619-.7923"/><path class="cls-5" d="M618.2671,80.6311c0-.4379.8779-.792,1.9638-.792,1.084,0,1.9641.3541,1.9641.792s-.88.7923-1.9641.7923c-1.0859,0-1.9638-.354-1.9638-.7923"/><path class="cls-5" d="M628.3491,74.8069c0-.4358.8779-.792,1.9619-.792s1.9639.3562,1.9639.792c0,.4383-.88.7923-1.9639.7923s-1.9619-.354-1.9619-.7923"/><path class="cls-5" d="M618.2671,74.8069c0-.4358.8779-.792,1.9638-.792,1.084,0,1.9641.3562,1.9641.792,0,.4383-.88.7923-1.9641.7923-1.0859,0-1.9638-.354-1.9638-.7923"/><path class="cls-5" d="M628.3491,69.6077c0-.438.8779-.792,1.9619-.792,1.0859,0,1.9661.354,1.9661.792,0,.436-.88.7922-1.9661.7922-1.084,0-1.9619-.3562-1.9619-.7922"/><path class="cls-5" d="M618.269,69.6077c0-.438.8779-.792,1.9619-.792s1.9639.354,1.9639.792c0,.436-.88.7922-1.9639.7922s-1.9619-.3562-1.9619-.7922"/><path class="cls-5" d="M628.3491,64.2815c0-.438.8779-.792,1.9619-.792s1.9661.354,1.9661.792-.8821.7923-1.9661.7923-1.9619-.354-1.9619-.7923"/><path class="cls-5" d="M618.2671,64.2815c0-.438.88-.792,1.9638-.792s1.9641.354,1.9641.792-.88.7923-1.9641.7923-1.9638-.354-1.9638-.7923"/><path class="cls-5" d="M628.3491,59.0354c0-.4379.8779-.792,1.9619-.792s1.9639.3541,1.9639.792-.88.7923-1.9639.7923-1.9619-.354-1.9619-.7923"/><path class="cls-5" d="M618.2671,59.0354c0-.4379.8779-.792,1.9638-.792,1.084,0,1.9641.3541,1.9641.792s-.88.7923-1.9641.7923c-1.0859,0-1.9638-.354-1.9638-.7923"/><path class="cls-5" d="M628.3491,53.0335c0-.4358.8779-.792,1.9619-.792s1.9661.3562,1.9661.792c0,.4382-.8821.7922-1.9661.7922s-1.9619-.354-1.9619-.7922"/><path class="cls-5" d="M618.2671,53.0335c0-.4358.88-.792,1.9638-.792s1.9641.3562,1.9641.792c0,.4382-.88.7922-1.9641.7922s-1.9638-.354-1.9638-.7922"/><path class="cls-5" d="M628.3491,47.7288c0-.438.8779-.792,1.9619-.792s1.9639.354,1.9639.792-.88.7922-1.9639.7922-1.9619-.354-1.9619-.7922"/><path class="cls-5" d="M618.2671,47.7288c0-.438.8779-.792,1.9638-.792,1.084,0,1.9641.354,1.9641.792s-.88.7922-1.9641.7922c-1.0859,0-1.9638-.354-1.9638-.7922"/><path class="cls-5" d="M628.3491,42.4925c0-.438.8779-.792,1.9619-.792s1.9661.354,1.9661.792-.8821.7922-1.9661.7922-1.9619-.354-1.9619-.7922"/><path class="cls-5" d="M618.2671,42.4925c0-.4358.88-.792,1.9638-.792s1.9641.3562,1.9641.792c0,.4382-.88.7922-1.9641.7922s-1.9638-.354-1.9638-.7922"/><polyline class="cls-9" points="605.609 81.272 605.609 128.58 644.935 128.58 644.935 22.124 605.609 22.124 605.609 68.638"/><text class="cls-10" transform="translate(72.1035 241.9492)">RS-232</text><text class="cls-10" transform="translate(89.6519 181.6172)">I</text><text class="cls-10" transform="translate(93.9834 176.207) scale(0.583)">2</text><text class="cls-10" transform="translate(99.2378 181.6172)">C</text><text class="cls-10" transform="translate(27.8125 73.7139)">CAN</text><text class="cls-11" transform="translate(75.8955 96.9912)">L (GRN)</text><text class="cls-11" transform="translate(76.7314 121.8105)">H (YEL)</text><path class="cls-12" d="M97.089,476.4756a4.4932,4.4932,0,0,1-1.8438,1.7481,5.8317,5.8317,0,0,1-2.749.6269H91.4327a5.82,5.82,0,0,1-2.7529-.6269,4.48,4.48,0,0,1-1.8408-1.76,5.1607,5.1607,0,0,1-.65-2.6113v-3.1582H97.74v3.23A5.0027,5.0027,0,0,1,97.089,476.4756Zm-4.5772,1.4082a5.1563,5.1563,0,0,0,2.3125-.4922,3.6353,3.6353,0,0,0,1.5391-1.3886,3.9313,3.9313,0,0,0,.5439-2.0782v-2.2539H87.0138v2.1817a4.02,4.02,0,0,0,.5556,2.1347,3.6762,3.6762,0,0,0,1.5547,1.4043,5.16,5.16,0,0,0,2.3086.4922Z"/><path class="cls-12" d="M86.1886,481.5557H97.74v.9766H86.1886Z"/><path class="cls-12" d="M88.5411,493.6514a4.4132,4.4132,0,0,1-1.8564-6.2949,4.3011,4.3011,0,0,1,1.86-1.5879,6.56,6.56,0,0,1,2.8008-.5625h1.2373a6.5913,6.5913,0,0,1,2.8008.5586,4.2978,4.2978,0,0,1,1.86,1.58,4.2486,4.2486,0,0,1,.6543,2.3515,4.1575,4.1575,0,0,1-2.5107,3.9512,6.646,6.646,0,0,1-2.8047.5547H91.3458A6.6725,6.6725,0,0,1,88.5411,493.6514Zm6.4219-.8379a3.3719,3.3719,0,0,0,1.539-1.2168,3.3135,3.3135,0,0,0,.54-1.9,3.2555,3.2555,0,0,0-.54-1.873,3.4117,3.4117,0,0,0-1.5429-1.2168,6.0249,6.0249,0,0,0-2.36-.4258H91.3458a6.0068,6.0068,0,0,0-2.3682.43A3.45,3.45,0,0,0,87.43,487.835a3.257,3.257,0,0,0-.543,1.877,3.308,3.308,0,0,0,.5391,1.9042,3.3451,3.3451,0,0,0,1.5429,1.2051,6.2293,6.2293,0,0,0,2.377.4141h1.2529A6.0506,6.0506,0,0,0,94.963,492.8135Z"/><polyline class="cls-13" points="80.839 294.235 92.047 294.235 92.047 459.807"/><polyline class="cls-13" points="92.048 505.09 92.048 661.566 80.84 661.566"/><text class="cls-10" transform="translate(279.0693 679.3975)">RE<tspan class="cls-14" x="19.5645" y="0">L</tspan><tspan class="cls-15" x="28.2788" y="0">A</tspan><tspan class="cls-16" x="37.4912" y="0">Y</tspan></text><polyline class="cls-13" points="238.027 684.897 238.027 676.023 268.745 676.023"/><polyline class="cls-13" points="332.874 676.022 360.74 676.022 360.74 685.996"/><text class="cls-10" transform="translate(437.4238 679.3975)">ANA<tspan class="cls-17" x="31.8535" y="0">L</tspan><tspan x="39.918" y="0">OG IN</tspan></text><text class="cls-18" transform="translate(613.9492 692.0254)">RESET</text><text class="cls-18" transform="translate(670.1289 692.0244)">USER</text><polyline class="cls-13" points="414.462 684.83 414.462 676.57 428.492 676.57"/><polyline class="cls-13" points="527.322 675.473 541.254 675.473 541.254 685.997"/><rect class="cls-3" x="94.2455" y="704.1686" width="39.958" height="45.05"/><path class="cls-5" d="M114.2237,723.9684a2.7241,2.7241,0,1,1-2.7222,2.7241,2.7246,2.7246,0,0,1,2.7222-2.7241"/><path class="cls-5" d="M114.2237,736.16a2.7241,2.7241,0,1,1-2.7222,2.7221,2.7228,2.7228,0,0,1,2.7222-2.7221"/><text class="cls-10" transform="translate(99.9688 692.1133)">RSL</text><text class="cls-10" transform="translate(693.1895 492.2021) rotate(-90)">PWM</text><polyline class="cls-13" points="697.601 661.475 686.393 661.475 686.393 500.458"/><polyline class="cls-13" points="686.392 445.315 686.392 288.881 697.6 288.881"/><path class="cls-5" d="M335.8042,82.1761a9.3811,9.3811,0,1,1-9.38-9.38,9.3807,9.3807,0,0,1,9.38,9.38"/><path class="cls-8" d="M331.8393,82.1761a5.416,5.416,0,1,1-5.416-5.4158,5.4174,5.4174,0,0,1,5.416,5.4158"/><path class="cls-5" d="M335.8042,36.6468a9.3811,9.3811,0,1,1-9.38-9.378,9.3795,9.3795,0,0,1,9.38,9.378"/><path class="cls-8" d="M331.8393,36.6468a5.416,5.416,0,1,1-5.416-5.4139,5.4161,5.4161,0,0,1,5.416,5.4139"/><rect class="cls-19" x="227.8227" y="32.9163" width="66.468" height="53.384"/><polygon class="cls-20" points="245.363 38.375 276.567 38.375 284.137 46.131 284.137 80.841 237.979 80.841 237.979 46.315 245.363 38.375"/><path class="cls-5" d="M255.0112,64.2737a1.9641,1.9641,0,1,1-1.9641,1.9622,1.9616,1.9616,0,0,1,1.9641-1.9622"/><path class="cls-5" d="M255.0112,54.1936a1.9642,1.9642,0,1,1-1.9641,1.9622,1.9616,1.9616,0,0,1,1.9641-1.9622"/><path class="cls-5" d="M267.103,64.2737a1.9641,1.9641,0,1,1-1.9622,1.9622,1.962,1.962,0,0,1,1.9622-1.9622"/><path class="cls-5" d="M267.103,54.1936a1.9642,1.9642,0,1,1-1.9622,1.9622,1.962,1.962,0,0,1,1.9622-1.9622"/><rect class="cls-19" x="462.8908" y="22.0423" width="87.1479" height="92.3181"/><rect class="cls-20" x="473.6928" y="58.9063" width="65.5459" height="38.1741"/><rect class="cls-20" x="488.2768" y="97.0804" width="36.0039" height="8.8621"/><rect class="cls-20" x="494.7387" y="105.9424" width="23.2639" height="7.386"/><rect class="cls-21" x="464.8288" y="97.0804" width="23.448" height="13.292"/><rect class="cls-22" x="524.2807" y="97.0804" width="23.45" height="13.292"/><rect class="cls-19" x="360.6325" y="68.2022" width="75.3921" height="33.3101"/><rect class="cls-20" x="362.6306" y="69.5445" width="71.4561" height="30.084"/><rect class="cls-19" x="360.6648" y="21.7222" width="75.3921" height="33.3101"/><rect class="cls-20" x="362.6626" y="23.0642" width="71.4541" height="30.084"/><text class="cls-10" transform="translate(74.0425 33.7646)">INPUT</text><text class="cls-23" transform="translate(311.002 242.4736)">NI <tspan class="cls-24" x="39.668" y="0">r</tspan><tspan x="50.1938" y="0">oboRIO</tspan></text><rect class="cls-6" x="365.6467" y="72.7942" width="65.3621" height="11.792"/><rect class="cls-6" x="365.6467" y="26.3164" width="65.3621" height="11.792"/><text class="cls-10" transform="translate(697.5771 88.1611)">POWER</text><rect class="cls-25" x="759.3884" y="74.8496" width="16.0342" height="15.1855"/><rect class="cls-26" x="774.552" y="74.9689" width="10.6027" height="15.1855"/><text class="cls-10" transform="translate(693.2207 114.1211)">STATUS</text><rect class="cls-25" x="759.3884" y="100.8094" width="16.0342" height="15.1855"/><rect class="cls-26" x="774.552" y="100.9287" width="10.6027" height="15.1855"/><text class="cls-10" transform="translate(706.2549 153.7734)">RADIO</text><rect class="cls-25" x="759.3884" y="140.7226" width="16.0342" height="15.1855"/><rect class="cls-26" x="774.552" y="140.8419" width="10.6027" height="15.1855"/><text class="cls-10" transform="translate(703.043 180.6426)">COMM</text><rect class="cls-25" x="759.3884" y="167.3313" width="16.0342" height="15.1855"/><rect class="cls-26" x="774.552" y="167.4507" width="10.6027" height="15.1855"/><text class="cls-10" transform="translate(707.7617 208.5557)">MODE</text><rect class="cls-25" x="759.3884" y="193.9401" width="16.0342" height="15.1855"/><rect class="cls-26" x="774.552" y="194.0594" width="10.6027" height="15.1855"/><text class="cls-10" transform="translate(724.2002 249.1016)">RSL</text><rect class="cls-25" x="759.3884" y="234.4859" width="16.0342" height="15.1855"/><rect class="cls-26" x="774.552" y="234.6052" width="10.6027" height="15.1855"/><rect class="cls-27" x="603.5117" y="701.0883" width="108.8485" height="50.9946" rx="9.8548"/><rect class="cls-28" x="617.7783" y="712.934" width="27.1208" height="27.3032" rx="13.5604"/><rect class="cls-28" x="670.9728" y="712.934" width="27.1208" height="27.3032" rx="13.5604"/><rect class="cls-3" x="711.2214" y="267.3293" width="46.329" height="413.1708"/><path class="cls-5" d="M736.8649,289.8991a2.7242,2.7242,0,1,1-2.7241-2.7238,2.723,2.723,0,0,1,2.7241,2.7238"/><path class="cls-5" d="M724.6735,289.8991a2.7242,2.7242,0,1,1-2.7222-2.7238,2.7212,2.7212,0,0,1,2.7222,2.7238"/><path class="cls-5" d="M749.5465,289.8991a2.723,2.723,0,1,1-2.7221-2.7238,2.7212,2.7212,0,0,1,2.7221,2.7238"/><path class="cls-5" d="M736.8649,331.1309a2.7242,2.7242,0,1,1-2.7241-2.7237,2.723,2.723,0,0,1,2.7241,2.7237"/><path class="cls-5" d="M724.6735,331.1309a2.7242,2.7242,0,1,1-2.7222-2.7237,2.7212,2.7212,0,0,1,2.7222,2.7237"/><path class="cls-5" d="M749.5465,331.1309a2.723,2.723,0,1,1-2.7221-2.7237,2.7212,2.7212,0,0,1,2.7221,2.7237"/><path class="cls-5" d="M736.8649,372.3627a2.7242,2.7242,0,1,1-2.7241-2.7235,2.723,2.723,0,0,1,2.7241,2.7235"/><path class="cls-5" d="M724.6735,372.3627a2.7242,2.7242,0,1,1-2.7222-2.7235,2.7212,2.7212,0,0,1,2.7222,2.7235"/><path class="cls-5" d="M749.5465,372.3627a2.723,2.723,0,1,1-2.7221-2.7235,2.7212,2.7212,0,0,1,2.7221,2.7235"/><path class="cls-5" d="M736.8649,413.5944a2.7242,2.7242,0,1,1-2.7241-2.7232,2.723,2.723,0,0,1,2.7241,2.7232"/><path class="cls-5" d="M724.6735,413.5944a2.7242,2.7242,0,1,1-2.7222-2.7232,2.7212,2.7212,0,0,1,2.7222,2.7232"/><path class="cls-5" d="M749.5465,413.5944a2.723,2.723,0,1,1-2.7221-2.7232,2.7212,2.7212,0,0,1,2.7221,2.7232"/><path class="cls-5" d="M736.8649,454.8262a2.7242,2.7242,0,1,1-2.7241-2.723,2.723,2.723,0,0,1,2.7241,2.723"/><path class="cls-5" d="M724.6735,454.8262a2.7242,2.7242,0,1,1-2.7222-2.723,2.7212,2.7212,0,0,1,2.7222,2.723"/><path class="cls-5" d="M749.5465,454.8262a2.723,2.723,0,1,1-2.7221-2.723,2.7212,2.7212,0,0,1,2.7221,2.723"/><path class="cls-5" d="M736.8649,496.0579a2.7242,2.7242,0,1,1-2.7241-2.7228,2.723,2.723,0,0,1,2.7241,2.7228"/><path class="cls-5" d="M724.6735,496.0579a2.7242,2.7242,0,1,1-2.7222-2.7228,2.7212,2.7212,0,0,1,2.7222,2.7228"/><path class="cls-5" d="M749.5465,496.0579a2.723,2.723,0,1,1-2.7221-2.7228,2.7212,2.7212,0,0,1,2.7221,2.7228"/><path class="cls-5" d="M736.8649,537.29a2.7242,2.7242,0,1,1-2.7241-2.7226,2.7231,2.7231,0,0,1,2.7241,2.7226"/><path class="cls-5" d="M724.6735,537.29a2.7242,2.7242,0,1,1-2.7222-2.7226,2.7213,2.7213,0,0,1,2.7222,2.7226"/><path class="cls-5" d="M749.5465,537.29a2.723,2.723,0,1,1-2.7221-2.7226,2.7212,2.7212,0,0,1,2.7221,2.7226"/><path class="cls-5" d="M736.8649,578.5214a2.7242,2.7242,0,1,1-2.7241-2.7223,2.723,2.723,0,0,1,2.7241,2.7223"/><path class="cls-5" d="M724.6735,578.5214a2.7242,2.7242,0,1,1-2.7222-2.7223,2.7212,2.7212,0,0,1,2.7222,2.7223"/><path class="cls-5" d="M749.5465,578.5214a2.723,2.723,0,1,1-2.7221-2.7223,2.7212,2.7212,0,0,1,2.7221,2.7223"/><path class="cls-5" d="M736.8649,619.7532a2.7242,2.7242,0,1,1-2.7241-2.7222,2.723,2.723,0,0,1,2.7241,2.7222"/><path class="cls-5" d="M724.6735,619.7532a2.7242,2.7242,0,1,1-2.7222-2.7222,2.7212,2.7212,0,0,1,2.7222,2.7222"/><path class="cls-5" d="M749.5465,619.7532a2.723,2.723,0,1,1-2.7221-2.7222,2.7212,2.7212,0,0,1,2.7221,2.7222"/><path class="cls-5" d="M736.8649,660.9849a2.7242,2.7242,0,1,1-2.7241-2.7219,2.723,2.723,0,0,1,2.7241,2.7219"/><path class="cls-5" d="M724.6735,660.9849a2.7242,2.7242,0,1,1-2.7222-2.7219,2.7212,2.7212,0,0,1,2.7222,2.7219"/><path class="cls-5" d="M749.5465,660.9849a2.723,2.723,0,1,1-2.7221-2.7219,2.7212,2.7212,0,0,1,2.7221,2.7219"/><text class="cls-29" transform="translate(74.6846 47.3389)">7-16V </text><line class="cls-30" x1="105.8037" y1="45.9624" x2="109.1847" y2="45.9624"/><line class="cls-30" x1="111.0437" y1="45.9624" x2="114.4207" y2="45.9624"/><line class="cls-30" x1="116.2879" y1="45.9624" x2="119.6689" y2="45.9624"/><line class="cls-30" x1="105.8037" y1="42.5692" x2="119.6689" y2="42.5692"/><text class="cls-29" transform="translate(71.4453 59.3643)">45 W MAX</text><line class="cls-31" x1="131.5522" y1="175.8995" x2="131.5522" y2="200.3504"/><line class="cls-31" x1="145.251" y1="150.5028" x2="145.251" y2="173.4945"/><line class="cls-31" x1="158.9417" y1="174.056" x2="158.9417" y2="197.0667"/><line class="cls-31" x1="172.6324" y1="150.2634" x2="172.6324" y2="173.2539"/><line class="cls-31" x1="127.0025" y1="202.4935" x2="136.1066" y2="202.4935"/><line class="cls-31" x1="124.7863" y1="200.3464" x2="138.3187" y2="200.3464"/><rect class="cls-32" x="129.8433" y="172.1207" width="3.423" height="3.4251"/><rect class="cls-12" x="143.534" y="172.1207" width="3.4266" height="3.4251"/><rect class="cls-12" x="157.2295" y="172.1173" width="3.4251" height="3.425"/><rect class="cls-12" x="170.9277" y="172.1207" width="3.421" height="3.4251"/><polygon class="cls-31" points="125.151 156.713 125.151 190.946 179.025 190.938 179.025 156.713 125.151 156.713"/><text class="cls-33" transform="translate(149.0879 205.9766) scale(1 1.0622)">SCL</text><text class="cls-34" transform="translate(133.6475 146.333) scale(1 1.0115)">3.3V S<tspan class="cls-35" x="32.772" y="0">D</tspan><tspan x="40.2158" y="0">A</tspan></text><line class="cls-31" x1="129.0157" y1="204.6447" x2="134.0894" y2="204.6447"/><line class="cls-31" x1="144.5569" y1="237.3189" x2="144.5569" y2="261.6521"/><line class="cls-31" x1="158.2517" y1="237.6922" x2="158.2517" y2="269.2787"/><line class="cls-31" x1="171.9424" y1="237.6923" x2="171.9424" y2="258.129"/><line class="cls-31" x1="142.0201" y1="265.9504" x2="147.0937" y2="265.9504"/><line class="cls-31" x1="140.0068" y1="263.7991" x2="149.111" y2="263.7991"/><line class="cls-31" x1="137.7907" y1="261.652" x2="151.3231" y2="261.652"/><rect class="cls-32" x="170.2342" y="233.8943" width="3.4251" height="3.4246"/><rect class="cls-32" x="142.8472" y="233.8943" width="3.4226" height="3.4246"/><rect class="cls-32" x="156.5435" y="233.8943" width="3.421" height="3.4246"/><rect class="cls-31" x="137.7137" y="218.0841" width="41.0802" height="34.2324"/><text class="cls-34" transform="translate(161.4565 268.6924) scale(1 1.0115)">TXD</text><text class="cls-34" transform="translate(146.7021 279.6689) scale(1 1.0115)">RXD</text><line class="cls-31" x1="25.7729" y1="695.8564" x2="25.7729" y2="706.7547"/><line class="cls-31" x1="39.4757" y1="695.7833" x2="39.7923" y2="714.1946"/><line class="cls-31" x1="53.1664" y1="695.8564" x2="53.1664" y2="703.7023"/><line class="cls-31" x1="23.236" y1="711.057" x2="28.3097" y2="711.057"/><line class="cls-31" x1="21.2228" y1="708.9017" x2="30.3269" y2="708.9017"/><line class="cls-31" x1="19.0066" y1="706.7585" x2="32.539" y2="706.7585"/><text class="cls-36" transform="translate(33.355 724.3486) scale(1 1.0056)">5V</text><text class="cls-36" transform="translate(49.7393 713.0332) scale(1 1.0056)">S</text><rect class="cls-37" x="51.6177" y="692.3209" width="3.1791" height="3.4581"/><rect class="cls-37" x="38.0444" y="692.5769" width="3.1791" height="3.4581"/><rect class="cls-37" x="24.2871" y="692.5319" width="3.1791" height="3.4581"/><line class="cls-31" x1="70.375" y1="753.9422" x2="75.4487" y2="753.9422"/><line class="cls-31" x1="68.3618" y1="751.7828" x2="77.4659" y2="751.7828"/><line class="cls-31" x1="66.1497" y1="749.6398" x2="79.6821" y2="749.6398"/><line class="cls-31" x1="72.9159" y1="741.2581" x2="85.4538" y2="741.2581"/><line class="cls-31" x1="85.389" y1="727.5106" x2="77.3848" y2="727.5106"/><line class="cls-31" x1="72.9119" y1="740.9125" x2="72.9119" y2="749.6398"/><line class="cls-31" x1="72.916" y1="748.2639" x2="72.916" y2="741.6073"/><text class="cls-36" transform="translate(69.2393 731.2715) scale(1 1.0056)">S</text><rect class="cls-37" x="85.4584" y="725.7064" width="3.1791" height="3.4581"/><rect class="cls-37" x="85.2768" y="739.568" width="3.1791" height="3.4581"/><line class="cls-31" x1="193.2057" y1="753.9381" x2="198.2794" y2="753.9381"/><line class="cls-38" x1="191.1925" y1="751.7828" x2="200.2965" y2="751.7828"/><line class="cls-31" x1="188.9803" y1="749.6357" x2="202.5127" y2="749.6357"/><line class="cls-31" x1="208.3252" y1="727.5106" x2="200.2154" y2="727.5106"/><line class="cls-31" x1="208.3252" y1="713.7874" x2="200.2154" y2="713.7874"/><polyline class="cls-31" points="195.747 749.636 195.747 741.059 208.325 741.059"/><text class="cls-39" transform="translate(175.5859 716.2695) scale(1 1.0605)">FWD</text><text class="cls-40" transform="translate(179.6611 730.2021) scale(1 1.1297)">REV</text><rect class="cls-37" x="208.4392" y="711.9646" width="3.1791" height="3.4581"/><rect class="cls-37" x="208.1171" y="725.6781" width="3.1791" height="3.4581"/><rect class="cls-37" x="208.0884" y="739.4249" width="3.1791" height="3.4581"/><line class="cls-41" x1="580.9574" y1="754.0924" x2="586.031" y2="754.0924"/><line class="cls-41" x1="578.9482" y1="751.9411" x2="588.0523" y2="751.9411"/><line class="cls-41" x1="576.732" y1="749.794" x2="590.2643" y2="749.794"/><line class="cls-41" x1="579.0903" y1="727.3117" x2="571.0658" y2="727.3117"/><line class="cls-41" x1="579.0862" y1="713.7468" x2="571.0617" y2="713.7468"/><polyline class="cls-41" points="583.498 749.794 583.498 741.27 571.066 741.27"/><text class="cls-39" transform="translate(579.9658 716.6152) scale(1 1.0605)">S</text><text class="cls-40" transform="translate(580.6221 730.7881) scale(1 1.1297)">5V</text><rect class="cls-37" x="567.6502" y="711.9198" width="3.1791" height="3.4581"/><rect class="cls-37" x="567.8583" y="725.4477" width="3.1791" height="3.4581"/><rect class="cls-37" x="567.8115" y="739.3919" width="3.1791" height="3.4581"/><line class="cls-31" x1="744.6695" y1="706.4676" x2="749.7431" y2="706.4676"/><line class="cls-31" x1="742.6603" y1="704.3204" x2="751.7603" y2="704.3204"/><line class="cls-31" x1="740.4482" y1="702.1733" x2="753.9805" y2="702.1733"/><line class="cls-31" x1="719.8121" y1="691.1981" x2="719.8121" y2="699.1089"/><line class="cls-31" x1="733.5069" y1="691.2589" x2="733.5069" y2="709.3983"/><line class="cls-31" x1="747.1975" y1="691.1981" x2="747.1975" y2="702.5428"/><text class="cls-36" transform="translate(716.502 708.4512) scale(1 1.0056)">S</text><text class="cls-36" transform="translate(727.3203 719.459) scale(1 1.0056)">6V</text><rect class="cls-37" x="718.1123" y="687.9278" width="3.1791" height="3.4581"/><rect class="cls-37" x="731.9104" y="687.9278" width="3.1791" height="3.4581"/><rect class="cls-37" x="745.5516" y="687.9278" width="3.1791" height="3.4581"/><path class="cls-42" d="M601.6944,643.56a6.8484,6.8484,0,0,0,6.8554-6.8393"/><path class="cls-42" d="M601.6944,629.87a6.8529,6.8529,0,0,0-6.8394,6.8515"/><text class="cls-43" transform="translate(562.25 656.7646) scale(1 1.0349)">A<tspan class="cls-44" x="6.9185" y="0">CCELEROMETER</tspan></text><text class="cls-45" transform="translate(597.375 603.5977) scale(1 1.0349)">Y</text><text class="cls-45" transform="translate(584.8271 631.1934) scale(1 1.0349)">Z</text><text class="cls-45" transform="translate(630.1719 640.6758) scale(1 1.0349)">X</text><line class="cls-46" x1="625.7109" y1="637.0618" x2="601.6983" y2="637.0618"/><line class="cls-46" x1="601.6944" y1="637.0618" x2="601.6944" y2="609.9565"/><path class="cls-31" d="M601.6944,643.56a6.8454,6.8454,0,1,0-6.8394-6.8393A6.8484,6.8484,0,0,0,601.6944,643.56Z"/><polyline class="cls-12" points="629.336 637.062 624.611 635.239 625.731 637.062 624.611 638.88"/><polyline class="cls-47" points="629.336 637.062 624.611 635.239 625.731 637.062 624.611 638.88"/><polyline class="cls-12" points="601.694 606.454 599.896 611.186 601.694 609.717 603.505 611.186 601.694 606.454"/><polyline class="cls-47" points="601.694 606.454 599.896 611.186 601.694 609.717 603.505 611.186 601.694 606.454"/><line class="cls-48" x1="624.611" y1="638.8802" x2="629.3354" y2="637.0618"/><line class="cls-47" x1="624.611" y1="638.8802" x2="629.3354" y2="637.0618"/><path class="cls-12" d="M601.6983,638.2673a1.5465,1.5465,0,1,0-1.5424-1.5464,1.552,1.552,0,0,0,1.5424,1.5464"/><path class="cls-31" d="M601.6983,638.2673a1.5465,1.5465,0,1,0-1.5424-1.5464A1.552,1.552,0,0,0,601.6983,638.2673Z"/><line class="cls-42" x1="606.4045" y1="265.1105" x2="647.4846" y2="265.1105"/><line class="cls-31" x1="597.6739" y1="241.1385" x2="621.3617" y2="241.1385"/><line class="cls-31" x1="597.6739" y1="227.4438" x2="621.3617" y2="227.4438"/><line class="cls-31" x1="597.6742" y1="213.7531" x2="621.362" y2="213.7531"/><line class="cls-31" x1="606.4086" y1="162.4078" x2="606.4086" y2="265.1105"/><line class="cls-31" x1="597.6739" y1="200.0624" x2="621.3617" y2="200.0624"/><line class="cls-31" x1="597.6739" y1="186.3758" x2="621.3617" y2="186.3758"/><line class="cls-31" x1="647.489" y1="265.1221" x2="647.489" y2="162.4196"/><line class="cls-42" x1="647.4888" y1="162.4038" x2="606.4086" y2="162.4038"/><line class="cls-49" x1="632.0813" y1="241.1467" x2="655.773" y2="241.1467"/><line class="cls-49" x1="597.6739" y1="241.1385" x2="621.3617" y2="241.1385"/><line class="cls-49" x1="597.6698" y1="227.4479" x2="621.3576" y2="227.4479"/><line class="cls-49" x1="632.0772" y1="227.4479" x2="655.7689" y2="227.4479"/><line class="cls-49" x1="597.6698" y1="213.7571" x2="621.3576" y2="213.7571"/><line class="cls-49" x1="632.0772" y1="213.7571" x2="655.7689" y2="213.7571"/><line class="cls-49" x1="586.7758" y1="177.5354" x2="586.7758" y2="186.4406"/><line class="cls-49" x1="597.6698" y1="200.0624" x2="621.3576" y2="200.0624"/><line class="cls-49" x1="632.0772" y1="200.0624" x2="655.7689" y2="200.0624"/><line class="cls-49" x1="584.2349" y1="190.743" x2="589.3125" y2="190.743"/><line class="cls-49" x1="582.2298" y1="188.5918" x2="591.3298" y2="188.5918"/><line class="cls-49" x1="580.0136" y1="186.4447" x2="593.5418" y2="186.4447"/><line class="cls-49" x1="597.6698" y1="186.3676" x2="621.3576" y2="186.3676"/><line class="cls-49" x1="632.0772" y1="186.3676" x2="655.7689" y2="186.3676"/><rect class="cls-49" x="606.4086" y="162.408" width="41.0802" height="102.7025"/><text class="cls-34" transform="translate(657.8818 189.2988) scale(1 1.0115)">CS0</text><text class="cls-34" transform="translate(657.875 202.9756) scale(1 1.0115)">CS1</text><text class="cls-34" transform="translate(657.8672 216.917) scale(1 1.0115)">5V</text><text class="cls-34" transform="translate(657.8594 230.6719) scale(1 1.0115)">CS2</text><text class="cls-34" transform="translate(658.0518 244.377) scale(1 1.0115)">CS3</text><text class="cls-34" transform="translate(565.8862 203.9004) scale(1 1.0115)">SCLK</text><text class="cls-34" transform="translate(564.5928 217.5967) scale(1 1.0115)">MOSI</text><text class="cls-34" transform="translate(564.585 231.3516) scale(1 1.0115)">MISO</text><text class="cls-34" transform="translate(571.7129 245.542) scale(1 1.0115)">3.3V</text><rect class="cls-37" x="619.7332" y="184.3514" width="3.1791" height="3.4581"/><rect class="cls-37" x="619.7332" y="198.038" width="3.1791" height="3.4581"/><rect class="cls-37" x="619.7335" y="211.7288" width="3.1791" height="3.4581"/><rect class="cls-37" x="619.7332" y="225.4194" width="3.1791" height="3.4581"/><rect class="cls-37" x="619.7332" y="239.1141" width="3.1791" height="3.4581"/><rect class="cls-37" x="630.4528" y="239.1223" width="3.1791" height="3.4581"/><rect class="cls-37" x="630.4487" y="225.4235" width="3.1791" height="3.4581"/><rect class="cls-37" x="630.4487" y="211.7327" width="3.1791" height="3.4581"/><rect class="cls-37" x="630.4487" y="198.038" width="3.1791" height="3.4581"/><rect class="cls-37" x="630.4487" y="184.3433" width="3.1791" height="3.4581"/><text class="cls-10" transform="translate(613.293 152.0576)">SPI</text></g><g id="Shader"><g class="cls-50"><path class="cls-48" d="M48.64,777.1719a50.1428,50.1428,0,0,1-50.0859-50.086V48.64A50.1428,50.1428,0,0,1,48.64-1.4463h690.108A50.1428,50.1428,0,0,1,788.8335,48.64V727.0859a50.1428,50.1428,0,0,1-50.0859,50.086ZM229.1523,21.1748a11.4125,11.4125,0,0,0-11.4,11.3994v51.124a11.4133,11.4133,0,0,0,11.4,11.4h64.3018a11.413,11.413,0,0,0,11.4-11.4V32.5742a11.4122,11.4122,0,0,0-11.4-11.3994Z"/></g><path class="cls-51" d="M738.7477,1.5537A47.0871,47.0871,0,0,1,785.8336,48.64V727.0857a47.0857,47.0857,0,0,1-47.0859,47.0859H48.64A47.0857,47.0857,0,0,1,1.5536,727.0857V48.64A47.0871,47.0871,0,0,1,48.64,1.5537H738.7477M229.1525,98.0986H293.454a14.4,14.4,0,0,0,14.4-14.4V32.5743a14.4,14.4,0,0,0-14.4-14.4H229.1525a14.4,14.4,0,0,0-14.4,14.4V83.6986a14.4,14.4,0,0,0,14.4,14.4M738.7477-4.4463H48.64A53.146,53.146,0,0,0-4.4464,48.64V727.0857A53.146,53.146,0,0,0,48.64,780.1716H738.7477a53.146,53.146,0,0,0,53.0859-53.0859V48.64A53.146,53.146,0,0,0,738.7477-4.4463ZM229.1525,92.0986a8.41,8.41,0,0,1-8.4-8.4V32.5743a8.41,8.41,0,0,1,8.4-8.4H293.454a8.41,8.41,0,0,1,8.4,8.4V83.6986a8.41,8.41,0,0,1-8.4,8.4Z"/></g><g id="Edge_Fix_TOP_" data-name="Edge Fix (TOP)"><path class="cls-12" d="M-5.1844-5.4358v787.72H792.8334V-5.4358ZM744.5624,773.3813,46.54,773.895c-25.7844-2.0645-41.7152-20.1636-44.8769-45.14L2.4266,43.09C4.4562,21.99,22.591,3.7223,43.415,1.4886l700.17.1456c21.0428,2.4863,38.8976,20.007,41.99,40.9877l.0759,684.1015C785.6758,751.9574,769.49,769.1246,744.5624,773.3813Z"/></g></svg>