<svg xmlns="http://www.w3.org/2000/svg" viewBox="0 0 800 785"><defs><style>.cls-3{fill:#323031}.cls-5{fill:#6a5f27}.cls-6{fill:#5a5a5d}.cls-7{fill:#f2f2f2}.cls-8{fill:#221f1f}.cls-13,.cls-32,.cls-43,.cls-47,.cls-9{fill:none}.cls-9{stroke:#5a5a5d;stroke-width:5.416px}.cls-13,.cls-9{stroke-miterlimit:10}.cls-10{font-size:16.248px}.cls-10,.cls-11,.cls-12,.cls-18,.cls-30,.cls-33,.cls-35,.cls-37,.cls-38,.cls-40,.cls-41,.cls-44{fill:#fff}.cls-10,.cls-11,.cls-18,.cls-30,.cls-35,.cls-37,.cls-40,.cls-41,.cls-44{font-family:Verdana}.cls-11{font-size:10.832px}.cls-13,.cls-32,.cls-33,.cls-38,.cls-47{stroke:#fff}.cls-13{stroke-width:2.708px}.cls-18{font-size:11.7401px}.cls-19{fill:#9b9b9b}.cls-20{fill:#171717}.cls-26{fill:#51545a}.cls-27{fill:#3c3d42}.cls-29{fill:#23446c}.cls-30{font-size:11.1981px}.cls-32,.cls-33,.cls-43{stroke-miterlimit:2}.cls-32,.cls-33,.cls-38,.cls-43{stroke-width:.686px}.cls-33,.cls-38,.cls-47{stroke-linecap:round}.cls-35{font-size:11.699px}.cls-37{font-size:10.9278px}.cls-38,.cls-47{stroke-linejoin:round}.cls-40{font-size:9.9074px}.cls-41{font-size:9.6078px}.cls-43{stroke:#020202}.cls-44{font-size:11.4352px}.cls-47{stroke-width:.506px}.cls-48{fill:#231f20}</style></defs><g id="roboRIO"><path d="M746.82 779.372l-699.22.931a41.816 41.816 0 01-41.76-41.871V47.499A41.816 41.816 0 0147.6 5.63l704.545-.932a41.816 41.816 0 0141.76 41.871v685.593c2.4 27.889-12.347 47.687-38.983 47.21" fill="#434343"/><rect x="18.235" y="20.283" width="763.436" height="747.917" rx="29.447" fill="#4f4e51"/><path class="cls-3" d="M24.636 281.494h46.329v413.171H24.636z"/><path d="M553.635 138.737H241.281a19.498 19.498 0 01-19.498-19.497V38.714a19.499 19.499 0 0119.498-19.499h312.354a19.499 19.499 0 0119.498 19.498v80.527a19.498 19.498 0 01-19.498 19.498" fill="#424242"/><path class="cls-3" d="M256.297 523.917h279.722v51.56H256.297z"/><path class="cls-5" d="M50.28 304.064a2.724 2.724 0 11-2.724-2.724 2.723 2.723 0 012.724 2.724m-12.192 0a2.724 2.724 0 11-2.722-2.724 2.721 2.721 0 012.722 2.724m24.873 0a2.723 2.723 0 11-2.722-2.724 2.721 2.721 0 012.722 2.724M50.28 345.295a2.724 2.724 0 11-2.724-2.723 2.723 2.723 0 012.724 2.723m-12.192 0a2.724 2.724 0 11-2.722-2.723 2.721 2.721 0 012.722 2.723m24.873 0a2.723 2.723 0 11-2.722-2.723 2.721 2.721 0 012.722 2.723M50.28 386.527a2.724 2.724 0 11-2.724-2.723 2.723 2.723 0 012.724 2.723m-12.192 0a2.724 2.724 0 11-2.722-2.723 2.721 2.721 0 012.722 2.723m24.873 0a2.723 2.723 0 11-2.722-2.723 2.721 2.721 0 012.722 2.723M50.28 427.759a2.724 2.724 0 11-2.724-2.723 2.723 2.723 0 012.724 2.723m-12.192 0a2.724 2.724 0 11-2.722-2.723 2.721 2.721 0 012.722 2.723m24.873 0a2.723 2.723 0 11-2.722-2.723 2.721 2.721 0 012.722 2.723M50.28 468.99a2.724 2.724 0 11-2.724-2.722 2.723 2.723 0 012.724 2.723m-12.192-.001a2.724 2.724 0 11-2.722-2.722 2.721 2.721 0 012.722 2.723m24.873-.001a2.723 2.723 0 11-2.722-2.722 2.721 2.721 0 012.722 2.723M50.28 510.222a2.724 2.724 0 11-2.725-2.722 2.723 2.723 0 012.724 2.723m-12.191-.001a2.724 2.724 0 11-2.722-2.722 2.721 2.721 0 012.722 2.723m24.873-.001a2.723 2.723 0 11-2.722-2.722 2.721 2.721 0 012.722 2.723M50.28 551.454a2.724 2.724 0 11-2.724-2.722 2.723 2.723 0 012.724 2.722m-12.192 0a2.724 2.724 0 11-2.722-2.722 2.721 2.721 0 012.722 2.722m24.873 0a2.723 2.723 0 11-2.722-2.722 2.721 2.721 0 012.722 2.722M50.28 592.686a2.724 2.724 0 11-2.724-2.723 2.723 2.723 0 012.724 2.723m-12.192 0a2.724 2.724 0 11-2.722-2.723 2.721 2.721 0 012.722 2.723m24.873 0a2.723 2.723 0 11-2.722-2.723 2.721 2.721 0 012.722 2.723M50.28 633.918a2.724 2.724 0 11-2.724-2.723 2.723 2.723 0 012.724 2.723m-12.192 0a2.724 2.724 0 11-2.722-2.723 2.721 2.721 0 012.722 2.723m24.873 0a2.723 2.723 0 11-2.722-2.723 2.721 2.721 0 012.722 2.723M50.28 675.15a2.724 2.724 0 11-2.724-2.722 2.723 2.723 0 012.724 2.721m-12.192.001a2.724 2.724 0 11-2.722-2.722 2.721 2.721 0 012.722 2.721m24.873.001a2.723 2.723 0 11-2.722-2.722 2.721 2.721 0 012.722 2.721"/><path class="cls-3" d="M26.011 226.501h45.05v36.188h-45.05z"/><path class="cls-5" d="M51.26 244.595a2.724 2.724 0 11-2.724-2.722 2.723 2.723 0 012.724 2.722m-12.191 0a2.724 2.724 0 11-2.722-2.722 2.721 2.721 0 012.722 2.722m24.873 0a2.723 2.723 0 11-2.723-2.722 2.721 2.721 0 012.723 2.722"/><path class="cls-3" d="M26.011 163.095h60.652v39.05H26.011z"/><path class="cls-5" d="M52.532 182.618a2.724 2.724 0 11-2.725-2.722 2.725 2.725 0 012.724 2.722m-12.191 0a2.724 2.724 0 11-2.722-2.722 2.723 2.723 0 012.722 2.722m24.873 0a2.723 2.723 0 11-2.722-2.722 2.723 2.723 0 012.722 2.722m12.567 0a2.724 2.724 0 11-2.722-2.722 2.723 2.723 0 012.722 2.722"/><path class="cls-3" d="M229.237 711.273h158.48v45.05h-158.48z"/><path class="cls-5" d="M247.332 731.075a2.723 2.723 0 11-2.724 2.722 2.721 2.721 0 012.724-2.722m0 12.189a2.724 2.724 0 11-2.724 2.724 2.722 2.722 0 012.724-2.724m0-24.873a2.724 2.724 0 11-2.724 2.722 2.721 2.721 0 012.724-2.722"/><path class="cls-3" d="M269.688 711.273h36.188v45.05h-36.188z"/><path class="cls-5" d="M287.784 731.075a2.723 2.723 0 11-2.723 2.722 2.723 2.723 0 012.723-2.722m0 12.189a2.724 2.724 0 11-2.723 2.724 2.723 2.723 0 012.723-2.724m0-24.873a2.724 2.724 0 11-2.723 2.722 2.723 2.723 0 012.723-2.722"/><path class="cls-3" d="M351.528 711.273h36.188v45.05h-36.188z"/><path class="cls-5" d="M369.623 731.075a2.723 2.723 0 11-2.722 2.722 2.723 2.723 0 012.722-2.722m0 12.189a2.724 2.724 0 11-2.722 2.724 2.723 2.723 0 012.722-2.724m0-24.873a2.724 2.724 0 11-2.722 2.722 2.723 2.723 0 012.722-2.722"/><path class="cls-3" d="M310.632 711.273h36.188v45.05h-36.188z"/><path class="cls-5" d="M328.727 731.075a2.723 2.723 0 11-2.722 2.722 2.721 2.721 0 012.722-2.722m0 12.189a2.724 2.724 0 11-2.722 2.724 2.722 2.722 0 012.722-2.724m0-24.873a2.724 2.724 0 11-2.722 2.722 2.721 2.721 0 012.722-2.722"/><path class="cls-3" d="M405.765 711.165h158.48v45.05h-158.48z"/><path class="cls-5" d="M423.858 730.967a2.723 2.723 0 11-2.722 2.722 2.721 2.721 0 012.722-2.722m0 12.189a2.724 2.724 0 11-2.722 2.724 2.722 2.722 0 012.722-2.724m0-24.873a2.724 2.724 0 11-2.722 2.722 2.721 2.721 0 012.722-2.722"/><path class="cls-3" d="M446.217 711.165h36.188v45.05h-36.188z"/><path class="cls-5" d="M464.311 730.967a2.723 2.723 0 11-2.724 2.722 2.721 2.721 0 012.724-2.722m0 12.189a2.724 2.724 0 11-2.724 2.724 2.722 2.722 0 012.724-2.724m0-24.873a2.724 2.724 0 11-2.724 2.722 2.721 2.721 0 012.724-2.722"/><path class="cls-3" d="M528.057 711.165h36.188v45.05h-36.188z"/><path class="cls-5" d="M546.151 730.967a2.723 2.723 0 11-2.724 2.722 2.721 2.721 0 012.724-2.722m0 12.189a2.724 2.724 0 11-2.724 2.724 2.722 2.722 0 012.724-2.724m0-24.873a2.724 2.724 0 11-2.724 2.722 2.721 2.721 0 012.724-2.722"/><path class="cls-3" d="M487.159 711.165h36.19v45.05h-36.19z"/><path class="cls-5" d="M505.255 730.967a2.723 2.723 0 11-2.725 2.722 2.721 2.721 0 012.725-2.722m0 12.189a2.724 2.724 0 11-2.725 2.724 2.722 2.722 0 012.725-2.724m0-24.873a2.724 2.724 0 11-2.725 2.722 2.721 2.721 0 012.725-2.722"/><path class="cls-6" d="M30.775 89.103h43.512v24.818H30.775z"/><path class="cls-7" d="M40.551 93.757h27.92v14.734h-27.92z"/><path class="cls-8" d="M53.541 101.513a9.791 9.791 0 11-9.792-9.792 9.79 9.79 0 019.792 9.792"/><path class="cls-6" d="M30.775 113.921h43.512v24.816H30.775z"/><path class="cls-7" d="M40.551 118.575h27.92v14.734h-27.92z"/><path class="cls-8" d="M53.541 126.33a9.791 9.791 0 11-9.792-9.793 9.792 9.792 0 019.792 9.792"/><path class="cls-3" d="M154.778 26.97v33.974h-7.387v40.18h7.387v25.206h35.45v-25.206h15.507V59.466l-15.507-.738V26.97h-35.45z"/><path class="cls-8" d="M182.293 42.105a9.791 9.791 0 11-9.792-9.792 9.792 9.792 0 019.792 9.792m0 68.985a9.791 9.791 0 11-9.792-9.791 9.79 9.79 0 019.792 9.792m-5.728-45.814h25.478v10.338h-25.478zm0 18.472h25.478v10.34h-25.478z"/><path class="cls-7" d="M367.501 622.063h-3.076a82.86 82.86 0 01-6.85-8.944h-.042v8.944h-3.622v-15.27h3.338c2.204 2.706 5.496 6.676 6.588 8.748h.042v-8.748h3.622v15.27m10.669-15.27l5.802 15.27h-4.886l-1.2-3.642h-4.734l-1.462 3.642h-3.598l6.216-15.27zM377.144 616c-.502-1.81-.938-3.272-1.484-5.454h-.044c-.588 2.182-1.112 3.644-1.68 5.454h3.208m8.289 6.063v-12.412h-4.406v-2.857h13.416v2.857h-4.406v12.412h-4.604zm10.493-15.268h4.604v15.27h-4.604zm5.713 7.46a7.592 7.592 0 1115.181 0c0 4.558-2.901 8.07-7.592 8.07s-7.59-3.512-7.59-8.07m10.382 0c0-2.706-.828-4.538-2.792-4.538s-2.792 1.832-2.792 4.538c0 2.878.742 4.884 2.792 4.884s2.792-2.006 2.792-4.884m19.5 7.808h-3.074a82.36 82.36 0 01-6.85-8.944h-.044v8.944h-3.622v-15.27h3.338c2.204 2.706 5.496 6.676 6.588 8.748h.044v-8.748h3.62v15.27m10.45-15.27l5.802 15.27h-4.884l-1.202-3.642h-4.734l-1.462 3.642h-3.598l6.218-15.27zM440.944 616c-.5-1.81-.938-3.272-1.482-5.454h-.044c-.59 2.182-1.112 3.644-1.682 5.454h3.208m7.856-9.206h4.602v12.412h5.584v2.858H448.8v-15.27zm-101.762 19.999h4.604v15.272h-4.604zm20.154 15.27h-3.074a82.657 82.657 0 01-6.852-8.946h-.042v8.946h-3.622v-15.272h3.338c2.204 2.706 5.498 6.676 6.588 8.748h.042v-8.748h3.622v15.272m9.709-12.107a4.344 4.344 0 00-2.248-.568c-.894 0-1.352.438-1.352.94 0 .848 1.289 1.548 2.772 2.92 1.96 1.834 2.442 2.99 2.442 4.584 0 1.35-1.112 4.494-5.694 4.494a7.735 7.735 0 01-4.798-1.398l1.396-2.53a4.323 4.323 0 002.616 1.068c.916 0 1.92-.458 1.92-1.592 0-1.22-1.484-2.116-2.682-3.162-1.592-1.396-2.532-2.206-2.532-4.08 0-2.444 2.464-4.102 5.346-4.102a8.126 8.126 0 013.992 1.026l-1.178 2.4m6.151 12.107V629.65h-4.406v-2.859h13.414v2.859h-4.404v12.413h-4.604zm10.49-15.272h6.808c3.598 0 5.54 1.572 5.54 4.08a4.58 4.58 0 01-2.574 4.406l3.38 6.546-4.928.503-2.42-6.044h-1.202v5.781h-4.604zm4.604 6.612h1.307a1.841 1.841 0 001.833-1.876 1.685 1.685 0 00-1.918-1.878h-1.222v3.754m13.722-6.611v7.986c0 2.746.414 4.362 2.356 4.362 1.526 0 2.4-1.528 2.4-4.428v-7.92h3.97v9.228c0 4.56-3.098 6.306-6.588 6.306-3.904 0-6.742-1.638-6.742-6.196v-9.338h4.604m29.297 15.271h-4.602v-10.69h-.042c-1.18 3.992-2.4 7.353-3.624 10.69h-2.9c-1.244-3.337-2.488-6.698-3.688-10.69h-.042v10.69h-3.622v-15.272h6.238c1.048 2.925 2.094 5.826 3.12 9.402h.044c.982-3.576 2.006-6.477 3.01-9.402h6.108v15.272m11.236-12.414h-4.668v3.012h4.56v2.859h-4.56v3.683h5.608v2.86h-10.21v-15.272h9.27v2.858zm15.358 12.414h-3.076a82.636 82.636 0 01-6.85-8.946h-.042v8.946h-3.622v-15.272h3.337c2.205 2.706 5.497 6.676 6.589 8.748h.042v-8.748h3.622v15.272m5.236 0V629.65h-4.406v-2.859h13.416v2.859h-4.406v12.413h-4.604zm18.018-12.107a4.342 4.342 0 00-2.246-.568c-.896 0-1.354.438-1.354.94 0 .848 1.288 1.548 2.77 2.92 1.964 1.834 2.444 2.99 2.444 4.584 0 1.35-1.112 4.494-5.692 4.494a7.737 7.737 0 01-4.8-1.398l1.396-2.53a4.333 4.333 0 002.616 1.068c.916 0 1.92-.458 1.92-1.592 0-1.22-1.482-2.116-2.682-3.162-1.592-1.396-2.532-2.206-2.532-4.08 0-2.444 2.466-4.102 5.345-4.102a8.126 8.126 0 013.993 1.026l-1.178 2.4m2.442-.536v-2.16h-.82v-.275h2.057v.276h-.817v2.16zm4.445 0h-.424v-1.795h-.012l-.965 1.796h-.2l-.896-1.796h-.008v1.796h-.344v-2.436h.488l.918 1.826.994-1.826h.449v2.436m-167.557-16.863a5.821 5.821 0 014.208-4.886c5.154-1.464 7.912-1.194 17.154-1.27-5.54 4.957-9.964 12.77-8.974 20.414-1.99-1.63-3.334-3.96-5.062-5.823a19.252 19.252 0 001.668-3.887c.612-2.312 2.278-2.858 4.39-2.794.158.006-.124-1.78-.708-1.938-1.574-.426-2.906.08-4.734-.626a2.228 2.228 0 00-1.744.332c-1.5.766-2.45 2.404-4.138 2.922zm-28.256-1.496a25.093 25.093 0 019.954-4.324c4.716-.862 9.826-.926 13.348 2.47 6.654 6.408 12.042 13.133 17.878 20.456.23.287.21 1.076.01 1.19a83.724 83.724 0 01-12.672 5.934 2.188 2.188 0 01-2.03-.448c-6.654-6.046-11.21-13.282-17.596-19.572a21.321 21.321 0 00-8.724-5.187c-.264-.081-.312-.42-.168-.52"/><path class="cls-7" d="M325.34 640.562a42.83 42.83 0 00-11.937 12.718 26.506 26.506 0 01.48-14.968c1.67-4.676 1.99-9.216 2.212-14.09 3.035 3.496 6.482 7.36 9.32 10.866z"/><path class="cls-3" d="M267.463 533.905h260.228v32.484H267.463z"/><path class="cls-5" d="M286.21 553.224a1.964 1.964 0 11-1.965 1.964 1.963 1.963 0 011.964-1.964m.001-10.081a1.964 1.964 0 11-1.965 1.965 1.962 1.962 0 011.964-1.965m12.092 10.081a1.964 1.964 0 11-1.964 1.964 1.963 1.963 0 011.964-1.964m0-10.081a1.964 1.964 0 11-1.964 1.965 1.962 1.962 0 011.964-1.965m14.957 10.069a1.964 1.964 0 11-1.964 1.964 1.962 1.962 0 011.964-1.964m0-10.08a1.964 1.964 0 11-1.964 1.964 1.962 1.962 0 011.964-1.964m12.092 10.08a1.964 1.964 0 11-1.962 1.964 1.962 1.962 0 011.962-1.964m0-10.08a1.964 1.964 0 11-1.962 1.964 1.962 1.962 0 011.962-1.964m15.61 10.08a1.964 1.964 0 11-1.965 1.964 1.962 1.962 0 011.964-1.964m.001-10.08a1.964 1.964 0 11-1.965 1.962 1.962 1.962 0 011.964-1.962m12.092 10.08a1.964 1.964 0 11-1.962 1.964 1.964 1.964 0 011.962-1.964m0-10.08a1.964 1.964 0 11-1.962 1.962 1.963 1.963 0 011.962-1.962m15.215 10.08a1.964 1.964 0 11-1.962 1.964 1.962 1.962 0 011.962-1.964m0-10.08a1.964 1.964 0 11-1.962 1.962 1.962 1.962 0 011.962-1.962m14.599 10.08a1.964 1.964 0 11-1.964 1.964 1.962 1.962 0 011.965-1.964m-.001-10.08a1.964 1.964 0 11-1.964 1.962 1.962 1.962 0 011.965-1.962m14.451 10.08a1.964 1.964 0 11-1.962 1.964 1.962 1.962 0 011.962-1.964m0-10.08a1.964 1.964 0 11-1.962 1.964 1.962 1.962 0 011.962-1.964m12.906 10.082a1.963 1.963 0 11-1.962 1.962 1.962 1.962 0 011.962-1.962m0-10.082a1.964 1.964 0 11-1.962 1.964 1.962 1.962 0 011.962-1.964m13.217 10.08a1.964 1.964 0 11-1.964 1.964 1.963 1.963 0 011.964-1.964m0-10.08a1.964 1.964 0 11-1.964 1.964 1.962 1.962 0 011.964-1.964m13.02 10.08a1.964 1.964 0 11-1.965 1.964 1.962 1.962 0 011.964-1.964m.001-10.08a1.964 1.964 0 11-1.965 1.964 1.962 1.962 0 011.964-1.964m14.893 10.08a1.964 1.964 0 11-1.962 1.964 1.963 1.963 0 011.962-1.964m0-10.08a1.964 1.964 0 11-1.962 1.964 1.962 1.962 0 011.962-1.964m13.166 10.08a1.964 1.964 0 11-1.962 1.964 1.964 1.964 0 011.962-1.964m0-10.08a1.964 1.964 0 11-1.962 1.964 1.964 1.964 0 011.962-1.964m12.994 10.08a1.964 1.964 0 11-1.964 1.964 1.963 1.963 0 011.964-1.964m0-10.08a1.964 1.964 0 11-1.964 1.964 1.962 1.962 0 011.964-1.964m14.055 10.082a1.963 1.963 0 11-1.962 1.962 1.962 1.962 0 011.962-1.962m0-10.082a1.964 1.964 0 11-1.962 1.964 1.962 1.962 0 011.962-1.964m12.9 10.082a1.963 1.963 0 11-1.964 1.962 1.961 1.961 0 011.964-1.962m0-10.082a1.964 1.964 0 11-1.964 1.964 1.962 1.962 0 011.964-1.964"/><path class="cls-9" d="M381.274 530.472H263.87V569.8h264.194v-39.328H412.632"/><path class="cls-5" d="M272.545 183.86a9.381 9.381 0 11-9.38-9.38 9.38 9.38 0 019.38 9.38"/><path class="cls-8" d="M268.58 183.86a5.416 5.416 0 11-5.416-5.415 5.416 5.416 0 015.416 5.416"/><path class="cls-5" d="M539.428 175.935a9.381 9.381 0 11-13.268 0 9.383 9.383 0 0113.268 0"/><path class="cls-8" d="M538.211 182.567a5.416 5.416 0 11-5.416-5.415 5.417 5.417 0 015.416 5.416"/><path class="cls-3" d="M607.655 23.111h51.558V142.32h-51.558z"/><path class="cls-3" d="M617.629 29.377h32.486v104.862h-32.486z"/><path class="cls-9" d="M614.209 88.376v47.308h39.326V29.228h-39.326v46.514"/><text class="cls-10" transform="translate(78.704 249.054)">RS-232</text><text class="cls-10" transform="translate(97.253 188.722)">I</text><text class="cls-10" transform="matrix(.583 0 0 .583 104.092 183.311)">2</text><text class="cls-10" transform="translate(110.114 188.722)">C</text><text class="cls-10" transform="translate(36.413 80.82)">CAN</text><text class="cls-11" transform="translate(82 104.097)">L (GRN)</text><text class="cls-11" transform="translate(82 128.916)">H (YEL)</text><path class="cls-12" d="M105.69 483.58a4.493 4.493 0 01-1.844 1.748 5.83 5.83 0 01-2.75.627h-1.063a5.819 5.819 0 01-2.753-.627 4.48 4.48 0 01-1.84-1.76 5.16 5.16 0 01-.65-2.611v-3.158h11.551v3.23a5.002 5.002 0 01-.652 2.551zm-4.578 1.408a5.158 5.158 0 002.313-.492 3.636 3.636 0 001.539-1.389 3.931 3.931 0 00.544-2.078v-2.254h-9.894v2.182a4.02 4.02 0 00.556 2.135 3.677 3.677 0 001.554 1.404 5.161 5.161 0 002.31.492zm-6.323 3.672h11.552v.977H94.789zm2.352 12.096a4.413 4.413 0 01-1.856-6.295 4.301 4.301 0 011.86-1.588 6.56 6.56 0 012.8-.563h1.238a6.593 6.593 0 012.801.559 4.298 4.298 0 011.86 1.58 4.249 4.249 0 01.654 2.352 4.157 4.157 0 01-2.51 3.95 6.644 6.644 0 01-2.805.555h-1.237a6.673 6.673 0 01-2.805-.55zm6.422-.838a3.372 3.372 0 001.54-1.217 3.313 3.313 0 00.54-1.9 3.256 3.256 0 00-.54-1.873 3.412 3.412 0 00-1.544-1.217 6.025 6.025 0 00-2.36-.426h-1.253a6.007 6.007 0 00-2.368.43 3.452 3.452 0 00-1.548 1.225 3.257 3.257 0 00-.543 1.877 3.308 3.308 0 00.54 1.904 3.344 3.344 0 001.542 1.205 6.23 6.23 0 002.377.414h1.253a6.05 6.05 0 002.364-.422z"/><path class="cls-13" d="M89.44 301.339h11.208v165.572m.001 45.283V668.67H89.441"/><text class="cls-10" transform="translate(284.67 686.502)">RE<tspan x="21.571" y="0" letter-spacing=".009em">L</tspan><tspan x="30.762" y="0" letter-spacing="-.058em">A</tspan><tspan x="40.927" y="0">Y</tspan></text><path class="cls-13" d="M246.627 692.001v-8.874h30.718m64.13-.001h27.866v9.974"/><text transform="translate(441.024 688.218)" font-size="15.92" font-family="Verdana" fill="#fff">ANA<tspan x="33.675" y="0" letter-spacing="-.031em">L</tspan><tspan x="42.043" y="0">OG IN</tspan></text><text class="cls-18" transform="translate(622.55 699.13)">RESET</text><text class="cls-18" transform="translate(678.73 699.128)">USER</text><path class="cls-13" d="M423.063 691.934v-8.259h14.03m98.829-1.098h13.932v10.524"/><path class="cls-3" d="M102.846 711.273h39.958v45.05h-39.958z"/><path class="cls-5" d="M122.824 731.073a2.724 2.724 0 11-2.722 2.724 2.725 2.725 0 012.722-2.724m0 12.191a2.724 2.724 0 11-2.722 2.722 2.723 2.723 0 012.722-2.722"/><text class="cls-10" transform="translate(108.57 699.219)">RSL</text><text class="cls-10" transform="rotate(-90 600.55 -101.24)">PWM</text><path class="cls-13" d="M706.201 668.579h-11.208V507.563m-.001-55.144V295.986H706.2"/><path class="cls-5" d="M344.405 89.28a9.381 9.381 0 11-9.38-9.38 9.38 9.38 0 019.38 9.38"/><path class="cls-8" d="M340.44 89.28a5.416 5.416 0 11-5.416-5.416 5.417 5.417 0 015.416 5.416"/><path class="cls-5" d="M344.405 43.751a9.381 9.381 0 11-9.38-9.378 9.38 9.38 0 019.38 9.378"/><path class="cls-8" d="M340.44 43.751a5.416 5.416 0 11-5.416-5.414 5.416 5.416 0 015.416 5.414"/><path class="cls-19" d="M236.423 40.021h66.468v53.384h-66.468z"/><path class="cls-20" d="M253.963 45.48h31.204l7.57 7.756v34.71h-46.158V53.42l7.384-7.94z"/><path class="cls-5" d="M263.612 71.378a1.964 1.964 0 11-1.965 1.962 1.962 1.962 0 011.965-1.962m0-10.08a1.964 1.964 0 11-1.965 1.962 1.962 1.962 0 011.965-1.962m12.091 10.08a1.964 1.964 0 11-1.962 1.962 1.962 1.962 0 011.962-1.962m0-10.08a1.964 1.964 0 11-1.962 1.962 1.962 1.962 0 011.962-1.962"/><path class="cls-19" d="M471.491 29.147h87.148v94.458h-87.148z"/><path class="cls-20" d="M482.293 66.011h65.546v38.174h-65.546zm14.584 38.174h36.004v8.862h-36.004zm6.462 8.862h23.264v7.386h-23.264z"/><path fill="#f3ea07" d="M473.429 104.185h23.448v13.292h-23.448z"/><path fill="#7cc244" d="M532.881 104.185h23.45v13.292h-23.45z"/><path class="cls-19" d="M369.233 75.306h75.392v33.31h-75.392z"/><path class="cls-20" d="M371.231 76.649h71.456v30.084h-71.456z"/><path class="cls-19" d="M369.265 28.826h75.392v33.31h-75.392z"/><path class="cls-20" d="M371.263 30.169h71.454v30.084h-71.454z"/><text transform="translate(307.754 249.578)" font-size="32.496" font-family="Verdana" fill="#fff">NI <tspan x="49.41" y="0" letter-spacing="-.013em">r</tspan><tspan x="62.856" y="0" letter-spacing="0">oboRIO</tspan></text><path class="cls-6" d="M374.247 79.898h65.362V91.69h-65.362zm0-46.477h65.362v11.792h-65.362z"/><text class="cls-10" transform="translate(703.092 95.266)">POWER</text><path class="cls-26" d="M767.989 81.954h16.034v15.185h-16.034z"/><path class="cls-27" d="M783.152 82.073h10.603v15.185h-10.603z"/><text class="cls-10" transform="translate(698.154 121.225)">STATUS</text><path class="cls-26" d="M767.989 107.914h16.034v15.185h-16.034z"/><path class="cls-27" d="M783.152 108.033h10.603v15.185h-10.603z"/><text class="cls-10" transform="translate(708.84 160.878)">RADIO</text><path class="cls-26" d="M767.989 147.827h16.034v15.185h-16.034z"/><path class="cls-27" d="M783.152 147.946h10.603v15.185h-10.603z"/><text class="cls-10" transform="translate(711.87 187.747)">COMM</text><path class="cls-26" d="M767.989 174.436h16.034v15.185h-16.034z"/><path class="cls-27" d="M783.152 174.555h10.603v15.185h-10.603z"/><text class="cls-10" transform="translate(714.116 215.66)">MODE</text><path class="cls-26" d="M767.989 201.044h16.034v15.185h-16.034z"/><path class="cls-27" d="M783.152 201.164h10.603v15.185h-10.603z"/><text class="cls-10" transform="translate(731.92 256.206)">RSL</text><path class="cls-26" d="M767.989 241.59h16.034v15.185h-16.034z"/><path class="cls-27" d="M783.152 241.709h10.603v15.185h-10.603z"/><rect x="612.112" y="708.193" width="108.849" height="50.995" rx="9.855" fill="#5a5d65"/><rect class="cls-29" x="626.379" y="720.038" width="27.121" height="27.303" rx="13.56"/><rect class="cls-29" x="679.573" y="720.038" width="27.121" height="27.303" rx="13.56"/><path class="cls-3" d="M719.822 274.434h46.329v413.171h-46.329z"/><path class="cls-5" d="M745.465 297.003a2.724 2.724 0 11-2.724-2.723 2.723 2.723 0 012.724 2.723m-12.191 0a2.724 2.724 0 11-2.722-2.723 2.721 2.721 0 012.722 2.723m24.873 0a2.723 2.723 0 11-2.722-2.723 2.721 2.721 0 012.722 2.723m-12.682 41.232a2.724 2.724 0 11-2.724-2.723 2.723 2.723 0 012.724 2.723m-12.191 0a2.724 2.724 0 11-2.722-2.723 2.721 2.721 0 012.722 2.723m24.873 0a2.723 2.723 0 11-2.722-2.723 2.721 2.721 0 012.722 2.723m-12.682 41.232a2.724 2.724 0 11-2.724-2.724 2.723 2.723 0 012.724 2.724m-12.191 0a2.724 2.724 0 11-2.722-2.724 2.721 2.721 0 012.722 2.724m24.873 0a2.723 2.723 0 11-2.722-2.724 2.721 2.721 0 012.722 2.724m-12.682 41.232a2.724 2.724 0 11-2.724-2.724 2.723 2.723 0 012.724 2.724m-12.191 0a2.724 2.724 0 11-2.722-2.724 2.721 2.721 0 012.722 2.724m24.873 0a2.723 2.723 0 11-2.722-2.724 2.721 2.721 0 012.722 2.724m-12.682 41.231a2.724 2.724 0 11-2.724-2.723 2.723 2.723 0 012.724 2.723m-12.191 0a2.724 2.724 0 11-2.722-2.723 2.721 2.721 0 012.722 2.723m24.873 0a2.723 2.723 0 11-2.722-2.723 2.721 2.721 0 012.722 2.723m-12.682 41.232a2.724 2.724 0 11-2.724-2.723 2.723 2.723 0 012.724 2.723m-12.191 0a2.724 2.724 0 11-2.722-2.723 2.721 2.721 0 012.722 2.723m24.873 0a2.723 2.723 0 11-2.722-2.723 2.721 2.721 0 012.722 2.723m-12.682 41.232a2.724 2.724 0 11-2.724-2.723 2.723 2.723 0 012.724 2.723m-12.191 0a2.724 2.724 0 11-2.722-2.723 2.721 2.721 0 012.722 2.723m24.873 0a2.723 2.723 0 11-2.722-2.723 2.721 2.721 0 012.722 2.723m-12.682 41.232a2.724 2.724 0 11-2.724-2.723 2.723 2.723 0 012.724 2.723m-12.191 0a2.724 2.724 0 11-2.722-2.723 2.721 2.721 0 012.722 2.723m24.873 0a2.723 2.723 0 11-2.722-2.723 2.721 2.721 0 012.722 2.723m-12.682 41.231a2.724 2.724 0 11-2.724-2.722 2.723 2.723 0 012.724 2.723m-12.191-.001a2.724 2.724 0 11-2.722-2.722 2.721 2.721 0 012.722 2.723m24.873-.001a2.723 2.723 0 11-2.722-2.722 2.721 2.721 0 012.722 2.723m-12.682 41.232a2.724 2.724 0 11-2.724-2.723 2.723 2.723 0 012.724 2.722m-12.191.001a2.724 2.724 0 11-2.722-2.723 2.721 2.721 0 012.722 2.722m24.873.001a2.723 2.723 0 11-2.722-2.723 2.721 2.721 0 012.722 2.722"/><text class="cls-10" transform="translate(82 41)">INPUT</text><text class="cls-30" transform="translate(82 54.575)">7-16V</text><path d="M119.119 53.197h3.382m1.858 0h3.377m1.868 0h3.381m-13.865-3.393h13.865" stroke-miterlimit="2" stroke="#f1f2f2" fill="none"/><text class="cls-30" transform="translate(82 67.6)">45 W MAX</text><path class="cls-32" d="M140.153 183.004v24.451m13.698-49.848v22.992m13.691.561v23.011m13.691-46.803v22.99m-45.63 29.24h9.104m-11.32-2.147h13.532"/><path class="cls-33" d="M138.444 179.225h3.423v3.425h-3.423z"/><path class="cls-12" d="M152.135 179.225h3.427v3.425h-3.427zm13.695-.003h3.425v3.425h-3.425zm13.698.003h3.421v3.425h-3.421z"/><path class="cls-32" d="M133.752 163.817v34.233l53.874-.008v-34.225h-53.874z"/><text transform="matrix(1 0 0 1.0622 157.688 213.081)" font-size="10.922" font-family="Verdana" fill="#fff">SCL</text><text class="cls-35" transform="matrix(1 0 0 1.0115 142.248 153.438)">3.3V S<tspan x="39.238" y="0" letter-spacing="-.019em">D</tspan><tspan x="48.03" y="0">A</tspan></text><path class="cls-32" d="M137.616 211.749h5.074m10.467 32.674v24.333m13.695-23.959v31.586m13.691-31.586v20.436m-29.923 7.822h5.074m-7.087-2.151h9.104m-11.32-2.148h13.532"/><path class="cls-33" d="M178.835 240.999h3.425v3.425h-3.425zm-27.387 0h3.423v3.425h-3.423zm13.696 0h3.421v3.425h-3.421z"/><path class="cls-32" d="M146.314 225.189h41.08v34.232h-41.08z"/><text class="cls-35" transform="matrix(1 0 0 1.0115 170.057 275.797)">TXD</text><text class="cls-35" transform="matrix(1 0 0 1.0115 155.303 286.774)">RXD</text><path class="cls-32" d="M34.373 702.961v10.898m13.703-10.971l.317 18.411m13.374-18.338v7.846m-29.93 7.354h5.073m-7.087-2.155h9.104m-11.32-2.143h13.532"/><text class="cls-37" transform="matrix(1 0 0 1.0056 41.956 731.453)">5V</text><text class="cls-37" transform="matrix(1 0 0 1.0056 58.34 720.138)">S</text><path class="cls-38" d="M60.218 699.425h3.179v3.458h-3.179zm-13.573.256h3.179v3.458h-3.179zm-13.757-.045h3.179v3.458h-3.179z"/><path class="cls-32" d="M78.975 761.047h5.074m-7.087-2.16h9.104m-11.316-2.143h13.532m-6.766-8.382h12.538m-.065-13.747h-8.004m-4.473 13.402v8.727m.004-1.376v-6.656"/><text class="cls-37" transform="matrix(1 0 0 1.0056 77.84 738.375)">S</text><path class="cls-38" d="M94.059 732.811h3.179v3.458h-3.179zm-.182 13.861h3.179v3.458h-3.179z"/><path class="cls-32" d="M201.806 761.043h5.074"/><path stroke-width=".686" stroke-miterlimit="2" stroke="#fff" fill="#fff" d="M199.793 758.887h9.104"/><path class="cls-32" d="M197.581 756.74h13.532m5.813-22.125h-8.11m8.11-13.723h-8.11m-4.469 35.848v-8.576h12.579"/><text class="cls-40" transform="matrix(1 0 0 1.0605 184.187 723.374)">FWD</text><text class="cls-41" transform="matrix(1 0 0 1.1297 188.262 737.306)">REV</text><path class="cls-38" d="M217.04 719.069h3.179v3.458h-3.179zm-.322 13.713h3.179v3.458h-3.179zm-.029 13.747h3.179v3.458h-3.179z"/><path d="M589.558 761.197h5.073m-7.082-2.152h9.104m-11.321-2.147h13.533m-11.174-22.482h-8.025m8.021-13.565h-8.025m12.437 36.047v-8.523h-12.433" stroke-width=".686" stroke-miterlimit="2" stroke="#f1f2f2" fill="none"/><text class="cls-40" transform="matrix(1 0 0 1.0605 588.567 723.719)">S</text><text class="cls-41" transform="matrix(1 0 0 1.1297 589.223 737.892)">5V</text><path class="cls-38" d="M576.251 719.024h3.179v3.458h-3.179zm.208 13.528h3.179v3.458h-3.179zm-.047 13.944h3.179v3.458h-3.179z"/><path class="cls-32" d="M753.27 713.572h5.073m-7.082-2.147h9.1m-11.312-2.147h13.532m-34.168-10.976v7.911m13.694-7.85v18.14m13.691-18.201v11.345"/><text class="cls-37" transform="matrix(1 0 0 1.0056 725.102 715.556)">S</text><text class="cls-37" transform="matrix(1 0 0 1.0056 735.921 726.564)">6V</text><path class="cls-38" d="M726.713 695.032h3.179v3.458h-3.179zm13.798 0h3.179v3.458h-3.179zm13.641 0h3.179v3.458h-3.179z"/><path class="cls-43" d="M610.295 650.664a6.848 6.848 0 006.855-6.839m-6.855-6.851a6.853 6.853 0 00-6.84 6.851"/><text class="cls-44" transform="matrix(1 0 0 1.0349 560.06 663.869)"><tspan letter-spacing="-.02em">A</tspan><tspan x="7.588" y="0">CCELEROMETER</tspan></text><text class="cls-44" transform="matrix(1 0 0 1.0349 605.976 610.702)">Y</text><text class="cls-44" transform="matrix(1 0 0 1.0349 593.428 638.297)">Z</text><text class="cls-44" transform="matrix(1 0 0 1.0349 638.773 647.78)">X</text><path d="M634.311 644.166h-24.012m-.004 0v-27.105" stroke-width=".588" stroke-miterlimit="2" stroke="#fff" fill="none"/><path class="cls-32" d="M610.295 650.664a6.845 6.845 0 10-6.84-6.839 6.848 6.848 0 006.84 6.84z"/><path class="cls-12" d="M637.936 644.166l-4.725-1.822 1.121 1.822-1.121 1.819"/><path class="cls-47" d="M637.936 644.166l-4.725-1.822 1.121 1.822-1.121 1.819"/><path class="cls-12" d="M610.295 613.558l-1.798 4.733 1.798-1.47 1.81 1.47-1.81-4.733"/><path class="cls-47" d="M610.295 613.558l-1.798 4.733 1.798-1.47 1.81 1.47-1.81-4.733"/><path class="cls-48" d="M633.211 645.985l4.725-1.819"/><path class="cls-47" d="M633.211 645.985l4.725-1.819"/><path class="cls-12" d="M610.299 645.372a1.546 1.546 0 10-1.543-1.547 1.552 1.552 0 001.543 1.547"/><path class="cls-32" d="M610.299 645.372a1.546 1.546 0 10-1.543-1.547 1.552 1.552 0 001.543 1.547z"/><path class="cls-43" d="M615.005 272.215h41.08"/><path class="cls-32" d="M606.274 248.243h23.688m-23.688-13.695h23.688m-23.687-13.691h23.687m-14.953-51.345v102.703m-8.735-65.048h23.688m-23.688-13.687h23.688m26.127 78.746V169.524"/><path class="cls-43" d="M656.089 169.508h-41.08"/><path d="M640.682 248.251h23.691m-58.099-.008h23.688m-23.692-13.691h23.688m10.72 0h23.691m-58.099-13.691h23.688m10.72 0h23.691m-68.993-36.221v8.905m10.894 13.622h23.688m10.72 0h23.691m-71.534-9.32h5.078m-7.083-2.151h9.1m-11.316-2.147h13.528m4.128-.077h23.688m10.72 0h23.691m-49.36-23.96h41.08v102.703h-41.08z" stroke-linejoin="round" stroke-width=".686" stroke="#fff" fill="none"/><text class="cls-35" transform="matrix(1 0 0 1.0115 666.482 196.404)">CS0</text><text class="cls-35" transform="matrix(1 0 0 1.0115 666.476 210.08)">CS1</text><text class="cls-35" transform="matrix(1 0 0 1.0115 666.468 224.022)">5V</text><text class="cls-35" transform="matrix(1 0 0 1.0115 666.46 237.777)">CS2</text><text class="cls-35" transform="matrix(1 0 0 1.0115 666.653 251.482)">CS3</text><text class="cls-35" transform="matrix(1 0 0 1.0115 574.487 211.005)">SCLK</text><text class="cls-35" transform="matrix(1 0 0 1.0115 573.193 224.702)">MOSI</text><text class="cls-35" transform="matrix(1 0 0 1.0115 573.185 238.456)">MISO</text><text class="cls-35" transform="matrix(1 0 0 1.0115 580.313 252.647)">3.3V</text><path class="cls-38" d="M628.334 191.456h3.179v3.458h-3.179zm0 13.686h3.179v3.458h-3.179zm0 13.691h3.179v3.458h-3.179zm0 13.691h3.179v3.458h-3.179zm0 13.694h3.179v3.458h-3.179zm10.719.009h3.179v3.458h-3.179zm-.004-13.699h3.179v3.458h-3.179zm0-13.691h3.179v3.458h-3.179zm0-13.695h3.179v3.458h-3.179zm0-13.694h3.179v3.458h-3.179z"/><text class="cls-10" transform="translate(621.893 159.163)">SPI</text><path class="cls-5" d="M630.38 58.246a2.724 2.724 0 11-2.723-2.724 2.723 2.723 0 012.724 2.724m12.681 0a2.723 2.723 0 11-2.722-2.724 2.721 2.721 0 012.722 2.724M630.13 70.027a2.724 2.724 0 11-2.724-2.724 2.723 2.723 0 012.724 2.724m12.682 0a2.723 2.723 0 11-2.722-2.724 2.721 2.721 0 012.722 2.724M630.13 81.808a2.724 2.724 0 11-2.724-2.723 2.723 2.723 0 012.724 2.724m12.682-.001a2.723 2.723 0 11-2.722-2.723 2.721 2.721 0 012.722 2.724M630.13 93.59a2.724 2.724 0 11-2.724-2.724 2.723 2.723 0 012.724 2.724m12.682 0a2.723 2.723 0 11-2.722-2.724 2.721 2.721 0 012.722 2.724m-12.682 11.781a2.724 2.724 0 11-2.724-2.723 2.723 2.723 0 012.724 2.723m12.45 0a2.723 2.723 0 11-2.722-2.723 2.721 2.721 0 012.722 2.723"/></g><g id="Shader"><path class="cls-48" d="M53.086 781.405a49.93 49.93 0 01-49.873-49.873V53.086A49.93 49.93 0 0153.086 3.213h690.108a49.93 49.93 0 0149.873 49.873v678.446a49.93 49.93 0 01-49.873 49.873zm508.232-191.172c-6.403 0-11.613 4.326-11.613 9.643v64.706c0 5.317 5.21 9.643 11.613 9.643h100.886c6.403 0 11.612-4.326 11.612-9.643v-64.706c0-5.317-5.209-9.643-11.612-9.643z" opacity=".33"/><path d="M743.194 6a47.087 47.087 0 0147.086 47.086v678.446a47.086 47.086 0 01-47.086 47.086H53.086A47.086 47.086 0 016 731.532V53.086A47.087 47.087 0 0153.086 6h690.108M561.318 677.012h100.886c7.953 0 14.4-5.565 14.4-12.43v-64.706c0-6.865-6.447-12.43-14.4-12.43H561.318c-7.953 0-14.4 5.565-14.4 12.43v64.706c0 6.865 6.447 12.43 14.4 12.43M743.194.425H53.086a52.72 52.72 0 00-52.66 52.66v678.447a52.72 52.72 0 0052.66 52.66h690.108a52.72 52.72 0 0052.66-52.66V53.086a52.72 52.72 0 00-52.66-52.66zM561.318 671.438c-4.784 0-8.825-3.14-8.825-6.856v-64.706c0-3.716 4.041-6.856 8.825-6.856h100.886c4.784 0 8.825 3.14 8.825 6.856v64.706c0 3.716-4.041 6.855-8.825 6.855z" fill="#00aeef"/></g><path class="cls-12" d="M-.435-.775v787.72h798.018V-.775zm749.747 778.817l-698.023.513c-25.784-2.064-41.715-20.163-44.877-45.14L7.177 47.75c2.03-21.1 20.165-39.367 40.989-41.601l700.17.145c21.042 2.487 38.897 20.008 41.99 40.988l.075 684.102c.026 25.234-16.16 42.4-41.088 46.658z" id="Edge_Fix_TOP_" data-name="Edge Fix (TOP)"/></svg>