<svg xmlns="http://www.w3.org/2000/svg" viewBox="0 0 800 785"><defs><style>.cls-1{fill:#434343;}.cls-2{fill:#4f4e51;}.cls-3{fill:#323031;}.cls-4{fill:#424242;}.cls-5{fill:#6a5f27;}.cls-6{fill:#5a5a5d;}.cls-7{fill:#f2f2f2;}.cls-8{fill:#221f1f;}.cls-13,.cls-30,.cls-31,.cls-41,.cls-42,.cls-46,.cls-47,.cls-49,.cls-9{fill:none;}.cls-9{stroke:#5a5a5d;stroke-width:5.416px;}.cls-13,.cls-9{stroke-miterlimit:10;}.cls-10{font-size:16.248px;}.cls-10,.cls-11,.cls-12,.cls-17,.cls-22,.cls-29,.cls-32,.cls-33,.cls-34,.cls-36,.cls-37,.cls-38,.cls-39,.cls-40,.cls-43,.cls-45{fill:#fff;}.cls-10,.cls-11,.cls-17,.cls-22,.cls-29,.cls-33,.cls-34,.cls-36,.cls-39,.cls-40,.cls-43,.cls-45{font-family:Heebo-Light, Heebo;font-weight:300;}.cls-11{font-size:10.832px;}.cls-13,.cls-31,.cls-32,.cls-37,.cls-38,.cls-46,.cls-47,.cls-49{stroke:#fff;}.cls-13{stroke-width:2.708px;}.cls-14{letter-spacing:0.009em;}.cls-15{letter-spacing:-0.058em;}.cls-16{letter-spacing:-0.031em;}.cls-17{font-size:11.7401px;}.cls-18{fill:#9b9b9b;}.cls-19{fill:#171717;}.cls-20{fill:#f3ea07;}.cls-21{fill:#7cc244;}.cls-22{font-size:32.496px;}.cls-23{letter-spacing:-0.013em;}.cls-24{letter-spacing:0em;}.cls-25{fill:#51545a;}.cls-26{fill:#3c3d42;}.cls-27{fill:#5a5d65;}.cls-28{fill:#23446c;}.cls-29{font-size:11.1981px;}.cls-30,.cls-41{stroke:#f1f2f2;}.cls-30,.cls-31,.cls-32,.cls-38,.cls-41,.cls-42,.cls-46{stroke-miterlimit:2;}.cls-31,.cls-32,.cls-37,.cls-38,.cls-41,.cls-42,.cls-49{stroke-width:0.686px;}.cls-32,.cls-37,.cls-47{stroke-linecap:round;}.cls-33{font-size:10.9221px;}.cls-34{font-size:11.699px;}.cls-35{letter-spacing:-0.019em;}.cls-36{font-size:10.9278px;}.cls-37,.cls-47,.cls-49{stroke-linejoin:round;}.cls-39{font-size:9.9074px;}.cls-40{font-size:9.6078px;}.cls-42{stroke:#020202;}.cls-43,.cls-45{font-size:11.4352px;}.cls-43{letter-spacing:-0.0201em;}.cls-44{letter-spacing:0.0001em;}.cls-46{stroke-width:0.588px;}.cls-47{stroke-width:0.506px;}.cls-48{fill:#231f20;}.cls-50{opacity:0.33;}.cls-51{fill:#00aeef;}</style></defs><g id="roboRIO"><path class="cls-1" d="M742.6651,776.7138l-699.2185.9311a41.8157,41.8157,0,0,1-41.76-41.8712V44.8411A41.8157,41.8157,0,0,1,43.4466,2.97l704.5445-.9311a41.8157,41.8157,0,0,1,41.76,41.8712V729.5025c2.4,27.8894-12.3474,47.6874-38.9832,47.21"/><rect class="cls-2" x="14.0812" y="17.6247" width="763.4358" height="747.9174" rx="29.4466"/><rect class="cls-3" x="20.4817" y="278.8356" width="46.329" height="413.1708"/><path class="cls-4" d="M549.4807,136.0793H237.1267a19.4985,19.4985,0,0,1-19.498-19.4978V36.0553a19.4986,19.4986,0,0,1,19.498-19.498h312.354a19.4985,19.4985,0,0,1,19.4978,19.498v80.5262a19.4984,19.4984,0,0,1-19.4978,19.4978"/><rect class="cls-3" x="252.1429" y="521.2585" width="279.7219" height="51.5601"/><path class="cls-5" d="M46.1252,301.4054a2.7241,2.7241,0,1,1-2.7241-2.7238,2.723,2.723,0,0,1,2.7241,2.7238"/><path class="cls-5" d="M33.9338,301.4054a2.7241,2.7241,0,1,1-2.7222-2.7238,2.7212,2.7212,0,0,1,2.7222,2.7238"/><path class="cls-5" d="M58.8068,301.4054a2.723,2.723,0,1,1-2.7221-2.7238,2.7212,2.7212,0,0,1,2.7221,2.7238"/><path class="cls-5" d="M46.1252,342.6372a2.7241,2.7241,0,1,1-2.7241-2.7237,2.723,2.723,0,0,1,2.7241,2.7237"/><path class="cls-5" d="M33.9338,342.6372a2.7241,2.7241,0,1,1-2.7222-2.7237,2.7212,2.7212,0,0,1,2.7222,2.7237"/><path class="cls-5" d="M58.8068,342.6372a2.723,2.723,0,1,1-2.7221-2.7237,2.7212,2.7212,0,0,1,2.7221,2.7237"/><path class="cls-5" d="M46.1252,383.869a2.7241,2.7241,0,1,1-2.7241-2.7235,2.723,2.723,0,0,1,2.7241,2.7235"/><path class="cls-5" d="M33.9338,383.869a2.7241,2.7241,0,1,1-2.7222-2.7235,2.7212,2.7212,0,0,1,2.7222,2.7235"/><path class="cls-5" d="M58.8068,383.869a2.723,2.723,0,1,1-2.7221-2.7235,2.7212,2.7212,0,0,1,2.7221,2.7235"/><path class="cls-5" d="M46.1252,425.1007a2.7241,2.7241,0,1,1-2.7241-2.7232,2.723,2.723,0,0,1,2.7241,2.7232"/><path class="cls-5" d="M33.9338,425.1007a2.7241,2.7241,0,1,1-2.7222-2.7232,2.7212,2.7212,0,0,1,2.7222,2.7232"/><path class="cls-5" d="M58.8068,425.1007a2.723,2.723,0,1,1-2.7221-2.7232,2.7212,2.7212,0,0,1,2.7221,2.7232"/><path class="cls-5" d="M46.1252,466.3325a2.7241,2.7241,0,1,1-2.7241-2.723,2.723,2.723,0,0,1,2.7241,2.723"/><path class="cls-5" d="M33.9338,466.3325a2.7241,2.7241,0,1,1-2.7222-2.723,2.7212,2.7212,0,0,1,2.7222,2.723"/><path class="cls-5" d="M58.8068,466.3325a2.723,2.723,0,1,1-2.7221-2.723,2.7212,2.7212,0,0,1,2.7221,2.723"/><path class="cls-5" d="M46.1252,507.5642a2.7241,2.7241,0,1,1-2.7241-2.7228,2.723,2.723,0,0,1,2.7241,2.7228"/><path class="cls-5" d="M33.9338,507.5642a2.7241,2.7241,0,1,1-2.7222-2.7228,2.7212,2.7212,0,0,1,2.7222,2.7228"/><path class="cls-5" d="M58.8068,507.5642a2.723,2.723,0,1,1-2.7221-2.7228,2.7212,2.7212,0,0,1,2.7221,2.7228"/><path class="cls-5" d="M46.1252,548.796a2.7241,2.7241,0,1,1-2.7241-2.7226,2.7231,2.7231,0,0,1,2.7241,2.7226"/><path class="cls-5" d="M33.9338,548.796a2.7241,2.7241,0,1,1-2.7222-2.7226,2.7213,2.7213,0,0,1,2.7222,2.7226"/><path class="cls-5" d="M58.8068,548.796a2.723,2.723,0,1,1-2.7221-2.7226,2.7212,2.7212,0,0,1,2.7221,2.7226"/><path class="cls-5" d="M46.1252,590.0277a2.7241,2.7241,0,1,1-2.7241-2.7223,2.723,2.723,0,0,1,2.7241,2.7223"/><path class="cls-5" d="M33.9338,590.0277a2.7241,2.7241,0,1,1-2.7222-2.7223,2.7212,2.7212,0,0,1,2.7222,2.7223"/><path class="cls-5" d="M58.8068,590.0277a2.723,2.723,0,1,1-2.7221-2.7223,2.7212,2.7212,0,0,1,2.7221,2.7223"/><path class="cls-5" d="M46.1252,631.26a2.7241,2.7241,0,1,1-2.7241-2.7222,2.723,2.723,0,0,1,2.7241,2.7222"/><path class="cls-5" d="M33.9338,631.26a2.7241,2.7241,0,1,1-2.7222-2.7222,2.7212,2.7212,0,0,1,2.7222,2.7222"/><path class="cls-5" d="M58.8068,631.26a2.723,2.723,0,1,1-2.7221-2.7222,2.7212,2.7212,0,0,1,2.7221,2.7222"/><path class="cls-5" d="M46.1252,672.4912a2.7241,2.7241,0,1,1-2.7241-2.7219,2.723,2.723,0,0,1,2.7241,2.7219"/><path class="cls-5" d="M33.9338,672.4912a2.7241,2.7241,0,1,1-2.7222-2.7219,2.7212,2.7212,0,0,1,2.7222,2.7219"/><path class="cls-5" d="M58.8068,672.4912a2.723,2.723,0,1,1-2.7221-2.7219,2.7212,2.7212,0,0,1,2.7221,2.7219"/><rect class="cls-3" x="21.8567" y="223.8424" width="45.05" height="36.188"/><path class="cls-5" d="M47.1057,241.9367a2.7241,2.7241,0,1,1-2.7241-2.7219,2.7231,2.7231,0,0,1,2.7241,2.7219"/><path class="cls-5" d="M34.9143,241.9367a2.7241,2.7241,0,1,1-2.7221-2.7219,2.7213,2.7213,0,0,1,2.7221,2.7219"/><path class="cls-5" d="M59.7874,241.9367a2.7231,2.7231,0,1,1-2.7222-2.7219,2.7213,2.7213,0,0,1,2.7222,2.7219"/><rect class="cls-3" x="21.8567" y="160.4364" width="60.6521" height="39.05"/><path class="cls-5" d="M48.3772,179.96a2.7241,2.7241,0,1,1-2.7241-2.7219,2.7246,2.7246,0,0,1,2.7241,2.7219"/><path class="cls-5" d="M36.1858,179.96a2.7241,2.7241,0,1,1-2.7221-2.7219,2.7228,2.7228,0,0,1,2.7221,2.7219"/><path class="cls-5" d="M61.0589,179.96a2.7231,2.7231,0,1,1-2.7222-2.7219,2.7228,2.7228,0,0,1,2.7222,2.7219"/><path class="cls-5" d="M73.6253,179.96a2.7242,2.7242,0,1,1-2.7222-2.7219,2.7228,2.7228,0,0,1,2.7222,2.7219"/><rect class="cls-3" x="225.0822" y="708.6148" width="158.48" height="45.05"/><path class="cls-5" d="M243.1781,728.4166a2.7231,2.7231,0,1,1-2.7241,2.7221,2.7212,2.7212,0,0,1,2.7241-2.7221"/><path class="cls-5" d="M243.1781,740.6061a2.7241,2.7241,0,1,1-2.7241,2.7241,2.7216,2.7216,0,0,1,2.7241-2.7241"/><path class="cls-5" d="M243.1781,715.733a2.7241,2.7241,0,1,1-2.7241,2.7221,2.7212,2.7212,0,0,1,2.7241-2.7221"/><rect class="cls-3" x="265.5341" y="708.6148" width="36.188" height="45.05"/><path class="cls-5" d="M283.6293,728.4166a2.7231,2.7231,0,1,1-2.7222,2.7221,2.7228,2.7228,0,0,1,2.7222-2.7221"/><path class="cls-5" d="M283.6293,740.6061a2.7241,2.7241,0,1,1-2.7222,2.7241,2.7232,2.7232,0,0,1,2.7222-2.7241"/><path class="cls-5" d="M283.6293,715.733a2.7241,2.7241,0,1,1-2.7222,2.7221,2.7228,2.7228,0,0,1,2.7222-2.7221"/><rect class="cls-3" x="347.3741" y="708.6148" width="36.188" height="45.05"/><path class="cls-5" d="M365.4691,728.4166a2.7231,2.7231,0,1,1-2.7222,2.7221,2.7229,2.7229,0,0,1,2.7222-2.7221"/><path class="cls-5" d="M365.4691,740.6061a2.7241,2.7241,0,1,1-2.7222,2.7241,2.7233,2.7233,0,0,1,2.7222-2.7241"/><path class="cls-5" d="M365.4691,715.733a2.7241,2.7241,0,1,1-2.7222,2.7221,2.7229,2.7229,0,0,1,2.7222-2.7221"/><rect class="cls-3" x="306.4781" y="708.6148" width="36.188" height="45.05"/><path class="cls-5" d="M324.5726,728.4166a2.7231,2.7231,0,1,1-2.7221,2.7221,2.7213,2.7213,0,0,1,2.7221-2.7221"/><path class="cls-5" d="M324.5726,740.6061a2.7241,2.7241,0,1,1-2.7221,2.7241,2.7216,2.7216,0,0,1,2.7221-2.7241"/><path class="cls-5" d="M324.5726,715.733a2.7241,2.7241,0,1,1-2.7221,2.7221,2.7213,2.7213,0,0,1,2.7221-2.7221"/><rect class="cls-3" x="401.6108" y="708.5068" width="158.48" height="45.05"/><path class="cls-5" d="M419.7039,728.3086a2.7231,2.7231,0,1,1-2.7222,2.7221,2.7216,2.7216,0,0,1,2.7222-2.7221"/><path class="cls-5" d="M419.7039,740.4981a2.7241,2.7241,0,1,1-2.7222,2.7241,2.722,2.722,0,0,1,2.7222-2.7241"/><path class="cls-5" d="M419.7039,715.625a2.7241,2.7241,0,1,1-2.7222,2.7221,2.7216,2.7216,0,0,1,2.7222-2.7221"/><rect class="cls-3" x="442.0627" y="708.5068" width="36.188" height="45.05"/><path class="cls-5" d="M460.157,728.3086a2.7231,2.7231,0,1,1-2.7241,2.7221,2.7212,2.7212,0,0,1,2.7241-2.7221"/><path class="cls-5" d="M460.157,740.4981a2.7241,2.7241,0,1,1-2.7241,2.7241,2.7216,2.7216,0,0,1,2.7241-2.7241"/><path class="cls-5" d="M460.157,715.625a2.7241,2.7241,0,1,1-2.7241,2.7221,2.7212,2.7212,0,0,1,2.7241-2.7221"/><rect class="cls-3" x="523.9028" y="708.5068" width="36.188" height="45.05"/><path class="cls-5" d="M541.9968,728.3086a2.7231,2.7231,0,1,1-2.7241,2.7221,2.7212,2.7212,0,0,1,2.7241-2.7221"/><path class="cls-5" d="M541.9968,740.4981a2.7241,2.7241,0,1,1-2.7241,2.7241,2.7216,2.7216,0,0,1,2.7241-2.7241"/><path class="cls-5" d="M541.9968,715.625a2.7241,2.7241,0,1,1-2.7241,2.7221,2.7212,2.7212,0,0,1,2.7241-2.7221"/><rect class="cls-3" x="483.0049" y="708.5068" width="36.1899" height="45.05"/><path class="cls-5" d="M501.1,728.3086a2.7231,2.7231,0,1,1-2.7241,2.7221,2.7213,2.7213,0,0,1,2.7241-2.7221"/><path class="cls-5" d="M501.1,740.4981a2.7241,2.7241,0,1,1-2.7241,2.7241,2.7216,2.7216,0,0,1,2.7241-2.7241"/><path class="cls-5" d="M501.1,715.625a2.7241,2.7241,0,1,1-2.7241,2.7221A2.7213,2.7213,0,0,1,501.1,715.625"/><rect class="cls-6" x="26.6209" y="86.4445" width="43.512" height="24.8181"/><rect class="cls-7" x="36.397" y="91.0986" width="27.9199" height="14.7339"/><path class="cls-8" d="M49.387,98.8547a9.791,9.791,0,1,1-9.7922-9.792,9.79,9.79,0,0,1,9.7922,9.792"/><rect class="cls-6" x="26.6209" y="111.2626" width="43.512" height="24.8159"/><rect class="cls-7" x="36.397" y="115.9167" width="27.9199" height="14.7339"/><path class="cls-8" d="M49.387,123.6711a9.791,9.791,0,1,1-9.7922-9.792,9.7922,9.7922,0,0,1,9.7922,9.792"/><polygon class="cls-3" points="140.623 24.312 140.623 58.286 133.237 58.286 133.237 98.466 140.623 98.466 140.623 123.672 176.073 123.672 176.073 98.466 191.581 98.466 191.581 56.808 178.289 56.07 177.551 24.312 140.623 24.312"/><path class="cls-8" d="M168.1389,39.4465a9.791,9.791,0,1,1-9.7922-9.792,9.7922,9.7922,0,0,1,9.7922,9.792"/><path class="cls-8" d="M168.1389,108.4328a9.791,9.791,0,1,1-9.7922-9.792,9.7908,9.7908,0,0,1,9.7922,9.792"/><rect class="cls-8" x="162.4109" y="62.6186" width="25.478" height="10.3379"/><rect class="cls-8" x="162.4109" y="81.0905" width="25.478" height="10.3401"/><path class="cls-7" d="M357.6761,619.4053H354.6a82.8511,82.8511,0,0,1-6.85-8.944h-.042v8.944h-3.622v-15.27h3.3379c2.2041,2.706,5.4961,6.6759,6.5881,8.7479h.042v-8.7479h3.6221v15.27"/><path class="cls-7" d="M368.3445,604.1349l5.802,15.27h-4.886l-1.2-3.6419h-4.7342l-1.4619,3.6419h-3.5979l6.2159-15.27Zm-1.0259,9.206c-.5022-1.81-.9382-3.272-1.4841-5.454h-.0439c-.5882,2.182-1.1121,3.644-1.68,5.454h3.208"/><polygon class="cls-7" points="375.608 619.405 375.608 606.993 371.202 606.993 371.202 604.135 384.617 604.135 384.617 606.993 380.211 606.993 380.211 619.405 375.608 619.405"/><rect class="cls-7" x="386.1009" y="604.1365" width="4.604" height="15.27"/><path class="cls-7" d="M391.8135,611.5967a7.5921,7.5921,0,1,1,15.1819,0c0,4.5581-2.9019,8.07-7.592,8.07s-7.59-3.512-7.59-8.07m10.3821,0c0-2.7059-.8281-4.5379-2.7922-4.5379s-2.792,1.832-2.792,4.5379c0,2.8781.7421,4.8841,2.792,4.8841s2.7922-2.006,2.7922-4.8841"/><path class="cls-7" d="M421.6956,619.4053h-3.0742a82.3512,82.3512,0,0,1-6.85-8.944h-.0439v8.944h-3.6221v-15.27h3.3379c2.2041,2.706,5.4961,6.6759,6.5881,8.7479h.044v-8.7479h3.62v15.27"/><path class="cls-7" d="M432.1453,604.1349l5.802,15.27h-4.884l-1.2019-3.6419h-4.7342l-1.4619,3.6419h-3.5979l6.2178-15.27Zm-1.0259,9.206c-.5-1.81-.9382-3.272-1.4822-5.454h-.0439c-.59,2.182-1.1121,3.644-1.6819,5.454h3.208"/><polygon class="cls-7" points="438.975 604.136 443.577 604.136 443.577 616.548 449.161 616.548 449.161 619.406 438.975 619.406 438.975 604.136"/><rect class="cls-7" x="337.2129" y="624.1346" width="4.604" height="15.272"/><path class="cls-7" d="M357.3675,639.4053h-3.0743a82.6817,82.6817,0,0,1-6.8518-8.9459h-.042v8.9459h-3.622v-15.272h3.3379c2.2041,2.7061,5.498,6.6761,6.5881,8.7481h.042v-8.7481h3.6221v15.272"/><path class="cls-7" d="M367.0764,627.2979a4.3428,4.3428,0,0,0-2.248-.568c-.894,0-1.3521.4381-1.3521.94,0,.848,1.2881,1.5479,2.772,2.92,1.96,1.834,2.4419,2.99,2.4419,4.584,0,1.35-1.1118,4.494-5.6938,4.494a7.7348,7.7348,0,0,1-4.7981-1.3981l1.396-2.53a4.3221,4.3221,0,0,0,2.6159,1.068c.9161,0,1.92-.458,1.92-1.5919,0-1.22-1.4841-2.1161-2.6821-3.162-1.5921-1.396-2.532-2.2061-2.532-4.08,0-2.444,2.4641-4.1019,5.3459-4.1019a8.1254,8.1254,0,0,1,3.9922,1.026l-1.178,2.4"/><polygon class="cls-7" points="373.227 639.405 373.227 626.991 368.821 626.991 368.821 624.133 382.235 624.133 382.235 626.991 377.831 626.991 377.831 639.405 373.227 639.405"/><path class="cls-7" d="M383.7166,624.1332h6.8078c3.5979,0,5.54,1.572,5.54,4.08a4.58,4.58,0,0,1-2.574,4.406l3.38,6.546-4.928.5021-2.42-6.0441h-1.2019v5.782h-4.604Zm4.604,6.612h1.3078a1.8411,1.8411,0,0,0,1.8321-1.876,1.6849,1.6849,0,0,0-1.918-1.8779h-1.2219v3.7539"/><path class="cls-7" d="M402.0432,624.134v7.986c0,2.746.4139,4.362,2.356,4.362,1.5259,0,2.4-1.528,2.4-4.428v-7.92h3.97v9.228c0,4.56-3.0979,6.306-6.5879,6.306-3.9041,0-6.742-1.6379-6.742-6.196v-9.338h4.604"/><path class="cls-7" d="M431.34,639.4053h-4.602v-10.69h-.042c-1.18,3.9919-2.4,7.352-3.624,10.69h-2.9c-1.2439-3.3379-2.4878-6.698-3.688-10.69h-.042v10.69H412.82v-15.272h6.2378c1.0481,2.9241,2.094,5.8261,3.12,9.402h.044c.9819-3.5759,2.0061-6.4779,3.01-9.402H431.34v15.272"/><polygon class="cls-7" points="442.576 626.991 437.908 626.991 437.908 630.003 442.468 630.003 442.468 632.861 437.908 632.861 437.908 636.545 443.516 636.545 443.516 639.405 433.306 639.405 433.306 624.133 442.576 624.133 442.576 626.991"/><path class="cls-7" d="M457.9339,639.4053h-3.0762a82.637,82.637,0,0,1-6.85-8.9459h-.0419v8.9459h-3.6221v-15.272h3.3379c2.2041,2.7061,5.4961,6.6761,6.5881,8.7481h.042v-8.7481h3.6221v15.272"/><polygon class="cls-7" points="463.17 639.405 463.17 626.991 458.764 626.991 458.764 624.133 472.18 624.133 472.18 626.991 467.774 626.991 467.774 639.405 463.17 639.405"/><path class="cls-7" d="M481.1878,627.2979a4.3411,4.3411,0,0,0-2.2461-.568c-.896,0-1.354.4381-1.354.94,0,.848,1.2881,1.5479,2.77,2.92,1.9639,1.834,2.4438,2.99,2.4438,4.584,0,1.35-1.1118,4.494-5.6918,4.494a7.7373,7.7373,0,0,1-4.8-1.3981l1.396-2.53a4.3324,4.3324,0,0,0,2.616,1.068c.916,0,1.92-.458,1.92-1.5919,0-1.22-1.4821-2.1161-2.6821-3.162-1.592-1.396-2.532-2.2061-2.532-4.08,0-2.444,2.4661-4.1019,5.346-4.1019a8.1258,8.1258,0,0,1,3.9922,1.026l-1.178,2.4"/><path class="cls-7" d="M483.63,626.7627v-2.16h-.82v-.276h2.0562v.276H484.05v2.16Zm4.4441,0H487.65v-1.7959h-.0119l-.9642,1.7959h-.2l-.896-1.7959H485.57v1.7959h-.344v-2.4359h.4881l.918,1.826.9939-1.826h.4482v2.4359"/><path class="cls-7" d="M320.5179,609.9a5.8211,5.8211,0,0,1,4.2077-4.886c5.1541-1.464,7.9121-1.194,17.1541-1.27-5.54,4.9579-9.9639,12.77-8.9739,20.4139-1.99-1.63-3.334-3.96-5.062-5.822a19.2487,19.2487,0,0,0,1.6679-3.8879c.6121-2.3121,2.2781-2.8581,4.39-2.7941.1582.006-.124-1.78-.708-1.938-1.5739-.426-2.906.08-4.7339-.626a2.2274,2.2274,0,0,0-1.7438.3321c-1.5.7659-2.45,2.4039-4.1382,2.9219Z"/><path class="cls-7" d="M292.262,608.4034a25.0911,25.0911,0,0,1,9.9539-4.324c4.716-.862,9.8259-.926,13.3479,2.47,6.654,6.4079,12.0422,13.1339,17.8781,20.4559.23.288.21,1.0761.01,1.19a83.7191,83.7191,0,0,1-12.6721,5.9339,2.1878,2.1878,0,0,1-2.03-.448c-6.6538-6.046-11.21-13.2819-17.596-19.572a21.3222,21.3222,0,0,0-8.7238-5.186c-.2642-.0819-.312-.42-.168-.52"/><path class="cls-7" d="M315.5159,637.9034a42.8284,42.8284,0,0,0-11.9382,12.718,26.5054,26.5054,0,0,1,.48-14.968c1.67-4.6759,1.99-9.216,2.2119-14.09,3.0359,3.496,6.4819,7.36,9.32,10.866Z"/><rect class="cls-3" x="263.3089" y="531.2465" width="260.228" height="32.484"/><path class="cls-5" d="M282.055,550.5655a1.9641,1.9641,0,1,1-1.9641,1.9641,1.9632,1.9632,0,0,1,1.9641-1.9641"/><path class="cls-5" d="M282.055,540.4853a1.9641,1.9641,0,1,1-1.9641,1.9641,1.9619,1.9619,0,0,1,1.9641-1.9641"/><path class="cls-5" d="M294.1468,550.5655a1.9641,1.9641,0,1,1-1.9642,1.9641,1.9632,1.9632,0,0,1,1.9642-1.9641"/><path class="cls-5" d="M294.1468,540.4853a1.9641,1.9641,0,1,1-1.9642,1.9641,1.9619,1.9619,0,0,1,1.9642-1.9641"/><path class="cls-5" d="M309.1038,550.5538a1.9641,1.9641,0,1,1-1.9641,1.9641,1.9618,1.9618,0,0,1,1.9641-1.9641"/><path class="cls-5" d="M309.1038,540.4737a1.9641,1.9641,0,1,1-1.9641,1.9641,1.9618,1.9618,0,0,1,1.9641-1.9641"/><path class="cls-5" d="M321.1956,550.5538a1.9641,1.9641,0,1,1-1.9622,1.9641,1.9618,1.9618,0,0,1,1.9622-1.9641"/><path class="cls-5" d="M321.1956,540.4737a1.9641,1.9641,0,1,1-1.9622,1.9641,1.9618,1.9618,0,0,1,1.9622-1.9641"/><path class="cls-5" d="M336.805,550.5538a1.9641,1.9641,0,1,1-1.9641,1.9641,1.9619,1.9619,0,0,1,1.9641-1.9641"/><path class="cls-5" d="M336.805,540.4737a1.9641,1.9641,0,1,1-1.9641,1.962,1.9614,1.9614,0,0,1,1.9641-1.962"/><path class="cls-5" d="M348.8968,550.5538a1.9641,1.9641,0,1,1-1.9622,1.9641,1.9635,1.9635,0,0,1,1.9622-1.9641"/><path class="cls-5" d="M348.8968,540.4737a1.9641,1.9641,0,1,1-1.9622,1.962,1.9631,1.9631,0,0,1,1.9622-1.962"/><path class="cls-5" d="M364.1116,550.5538a1.9641,1.9641,0,1,1-1.9622,1.9641,1.9623,1.9623,0,0,1,1.9622-1.9641"/><path class="cls-5" d="M364.1116,540.4737a1.9641,1.9641,0,1,1-1.9622,1.962,1.9619,1.9619,0,0,1,1.9622-1.962"/><path class="cls-5" d="M378.7112,550.5538a1.9641,1.9641,0,1,1-1.9641,1.9641,1.9618,1.9618,0,0,1,1.9641-1.9641"/><path class="cls-5" d="M378.7112,540.4737a1.9641,1.9641,0,1,1-1.9641,1.962,1.9614,1.9614,0,0,1,1.9641-1.962"/><path class="cls-5" d="M393.1624,550.5538a1.9641,1.9641,0,1,1-1.9622,1.9641,1.9623,1.9623,0,0,1,1.9622-1.9641"/><path class="cls-5" d="M393.1624,540.4737a1.9641,1.9641,0,1,1-1.9622,1.9641,1.9623,1.9623,0,0,1,1.9622-1.9641"/><path class="cls-5" d="M406.0686,550.5557a1.963,1.963,0,1,1-1.9621,1.962,1.9619,1.9619,0,0,1,1.9621-1.962"/><path class="cls-5" d="M406.0686,540.4737a1.9641,1.9641,0,1,1-1.9621,1.9641,1.9623,1.9623,0,0,1,1.9621-1.9641"/><path class="cls-5" d="M419.2854,550.5538a1.9641,1.9641,0,1,1-1.9641,1.9641,1.9631,1.9631,0,0,1,1.9641-1.9641"/><path class="cls-5" d="M419.2854,540.4737a1.9641,1.9641,0,1,1-1.9641,1.9641,1.9618,1.9618,0,0,1,1.9641-1.9641"/><path class="cls-5" d="M432.305,550.5538a1.9641,1.9641,0,1,1-1.9641,1.9641,1.9619,1.9619,0,0,1,1.9641-1.9641"/><path class="cls-5" d="M432.305,540.4737a1.9641,1.9641,0,1,1-1.9641,1.9641,1.9619,1.9619,0,0,1,1.9641-1.9641"/><path class="cls-5" d="M447.1975,550.5538a1.9641,1.9641,0,1,1-1.9621,1.9641,1.9632,1.9632,0,0,1,1.9621-1.9641"/><path class="cls-5" d="M447.1975,540.4737a1.9641,1.9641,0,1,1-1.9621,1.9641,1.9619,1.9619,0,0,1,1.9621-1.9641"/><path class="cls-5" d="M460.3636,550.5538a1.9641,1.9641,0,1,1-1.9622,1.9641,1.9635,1.9635,0,0,1,1.9622-1.9641"/><path class="cls-5" d="M460.3636,540.4737a1.9641,1.9641,0,1,1-1.9622,1.9641,1.9635,1.9635,0,0,1,1.9622-1.9641"/><path class="cls-5" d="M473.3577,550.5538a1.9641,1.9641,0,1,1-1.9641,1.9641,1.9631,1.9631,0,0,1,1.9641-1.9641"/><path class="cls-5" d="M473.3577,540.4737a1.9641,1.9641,0,1,1-1.9641,1.9641,1.9618,1.9618,0,0,1,1.9641-1.9641"/><path class="cls-5" d="M487.4124,550.5557a1.963,1.963,0,1,1-1.9622,1.962,1.9619,1.9619,0,0,1,1.9622-1.962"/><path class="cls-5" d="M487.4124,540.4737a1.9641,1.9641,0,1,1-1.9622,1.9641,1.9623,1.9623,0,0,1,1.9622-1.9641"/><path class="cls-5" d="M500.3128,550.5557a1.963,1.963,0,1,1-1.9641,1.962,1.9614,1.9614,0,0,1,1.9641-1.962"/><path class="cls-5" d="M500.3128,540.4737a1.9641,1.9641,0,1,1-1.9641,1.9641,1.9618,1.9618,0,0,1,1.9641-1.9641"/><polyline class="cls-9" points="377.119 527.814 259.715 527.814 259.715 567.142 523.909 567.142 523.909 527.814 408.477 527.814"/><path class="cls-5" d="M268.3909,181.2023a9.3811,9.3811,0,1,1-9.38-9.38,9.3807,9.3807,0,0,1,9.38,9.38"/><path class="cls-8" d="M264.4261,181.2023a5.4161,5.4161,0,1,1-5.4161-5.4158,5.4162,5.4162,0,0,1,5.4161,5.4158"/><path class="cls-5" d="M535.2737,173.2765a9.3813,9.3813,0,1,1-13.2681,0,9.3831,9.3831,0,0,1,13.2681,0"/><path class="cls-8" d="M534.0569,179.9093a5.416,5.416,0,1,1-5.416-5.4157,5.4174,5.4174,0,0,1,5.416,5.4157"/><rect class="cls-3" x="603.5008" y="23.3625" width="51.5581" height="112.7161"/><rect class="cls-3" x="613.4749" y="26.7184" width="32.4861" height="104.8621"/><path class="cls-5" d="M632.7952,113.1261c0-.4379.8779-.792,1.9619-.792s1.9639.3541,1.9639.792-.88.7923-1.9639.7923-1.9619-.354-1.9619-.7923"/><path class="cls-5" d="M622.7132,113.1261c0-.4379.8779-.792,1.9638-.792,1.084,0,1.9641.3541,1.9641.792s-.88.7923-1.9641.7923c-1.0859,0-1.9638-.354-1.9638-.7923"/><path class="cls-5" d="M632.7952,108.2531c0-.438.8779-.792,1.9619-.792s1.9639.354,1.9639.792-.88.7922-1.9639.7922-1.9619-.354-1.9619-.7922"/><path class="cls-5" d="M622.7132,108.2531c0-.438.8779-.792,1.9638-.792,1.084,0,1.9641.354,1.9641.792s-.88.7922-1.9641.7922c-1.0859,0-1.9638-.354-1.9638-.7922"/><path class="cls-5" d="M632.7952,101.964c0-.438.8779-.792,1.9619-.792s1.9639.354,1.9639.792-.88.7923-1.9639.7923-1.9619-.354-1.9619-.7923"/><path class="cls-5" d="M622.7132,101.964c0-.438.8779-.792,1.9638-.792,1.084,0,1.9641.354,1.9641.792s-.88.7923-1.9641.7923c-1.0859,0-1.9638-.354-1.9638-.7923"/><path class="cls-5" d="M632.7952,97.091c0-.438.8779-.792,1.9619-.792s1.9639.354,1.9639.792-.88.7922-1.9639.7922-1.9619-.354-1.9619-.7922"/><path class="cls-5" d="M622.7132,97.091c0-.438.8779-.792,1.9638-.792,1.084,0,1.9641.354,1.9641.792s-.88.7922-1.9641.7922c-1.0859,0-1.9638-.354-1.9638-.7922"/><path class="cls-5" d="M632.7952,90.96c0-.438.8779-.792,1.9619-.792s1.9639.354,1.9639.792-.88.7923-1.9639.7923-1.9619-.354-1.9619-.7923"/><path class="cls-5" d="M622.7132,90.96c0-.438.8779-.792,1.9638-.792,1.084,0,1.9641.354,1.9641.792s-.88.7923-1.9641.7923c-1.0859,0-1.9638-.354-1.9638-.7923"/><path class="cls-5" d="M632.7952,85.0773c0-.438.8779-.792,1.9619-.792s1.9639.354,1.9639.792-.88.7922-1.9639.7922-1.9619-.354-1.9619-.7922"/><path class="cls-5" d="M622.7132,85.0773c0-.438.8779-.792,1.9638-.792,1.084,0,1.9641.354,1.9641.792s-.88.7922-1.9641.7922c-1.0859,0-1.9638-.354-1.9638-.7922"/><path class="cls-5" d="M632.7952,79.2531c0-.4358.8779-.792,1.9619-.792s1.9639.3562,1.9639.792c0,.4382-.88.7922-1.9639.7922s-1.9619-.354-1.9619-.7922"/><path class="cls-5" d="M622.7132,79.2531c0-.4358.8779-.792,1.9638-.792,1.084,0,1.9641.3562,1.9641.792,0,.4382-.88.7922-1.9641.7922-1.0859,0-1.9638-.354-1.9638-.7922"/><path class="cls-5" d="M632.7952,74.0539c0-.438.8779-.792,1.9619-.792,1.0859,0,1.9661.354,1.9661.792,0,.436-.88.7922-1.9661.7922-1.084,0-1.9619-.3562-1.9619-.7922"/><path class="cls-5" d="M622.7151,74.0539c0-.438.8779-.792,1.9619-.792s1.9639.354,1.9639.792c0,.436-.88.7922-1.9639.7922s-1.9619-.3562-1.9619-.7922"/><path class="cls-5" d="M632.7952,68.7277c0-.438.8779-.792,1.9619-.792s1.9661.354,1.9661.792-.8821.7922-1.9661.7922-1.9619-.354-1.9619-.7922"/><path class="cls-5" d="M622.7132,68.7277c0-.438.88-.792,1.9638-.792s1.9641.354,1.9641.792-.88.7922-1.9641.7922-1.9638-.354-1.9638-.7922"/><path class="cls-5" d="M632.7952,63.4816c0-.438.8779-.792,1.9619-.792s1.9639.354,1.9639.792-.88.7922-1.9639.7922-1.9619-.354-1.9619-.7922"/><path class="cls-5" d="M622.7132,63.4816c0-.438.8779-.792,1.9638-.792,1.084,0,1.9641.354,1.9641.792s-.88.7922-1.9641.7922c-1.0859,0-1.9638-.354-1.9638-.7922"/><path class="cls-5" d="M632.7952,57.48c0-.4358.8779-.792,1.9619-.792s1.9661.3562,1.9661.792c0,.4382-.8821.7922-1.9661.7922s-1.9619-.354-1.9619-.7922"/><path class="cls-5" d="M622.7132,57.48c0-.4358.88-.792,1.9638-.792s1.9641.3562,1.9641.792c0,.4382-.88.7922-1.9641.7922s-1.9638-.354-1.9638-.7922"/><path class="cls-5" d="M632.7952,52.175c0-.438.8779-.792,1.9619-.792s1.9639.354,1.9639.792-.88.7922-1.9639.7922-1.9619-.354-1.9619-.7922"/><path class="cls-5" d="M622.7132,52.175c0-.438.8779-.792,1.9638-.792,1.084,0,1.9641.354,1.9641.792s-.88.7922-1.9641.7922c-1.0859,0-1.9638-.354-1.9638-.7922"/><path class="cls-5" d="M632.7952,46.9386c0-.4379.8779-.792,1.9619-.792s1.9661.3541,1.9661.792-.8821.7923-1.9661.7923-1.9619-.354-1.9619-.7923"/><path class="cls-5" d="M622.7132,46.9386c0-.4358.88-.792,1.9638-.792s1.9641.3562,1.9641.792c0,.4383-.88.7923-1.9641.7923s-1.9638-.354-1.9638-.7923"/><polyline class="cls-9" points="610.055 85.718 610.055 133.026 649.381 133.026 649.381 26.57 610.055 26.57 610.055 73.084"/><text class="cls-10" transform="translate(76.5488 246.395)">RS-232</text><text class="cls-10" transform="translate(94.0977 186.0635)">I</text><text class="cls-10" transform="translate(98.4297 180.6528) scale(0.583)">2</text><text class="cls-10" transform="translate(103.6836 186.0635)">C</text><text class="cls-10" transform="translate(32.2588 78.1606)">CAN</text><text class="cls-11" transform="translate(80.3408 101.4385)">L (GRN)</text><text class="cls-11" transform="translate(81.1768 126.2573)">H (YEL)</text><path class="cls-12" d="M101.5351,480.9218a4.493,4.493,0,0,1-1.8438,1.748,5.8305,5.8305,0,0,1-2.749.627H95.8788a5.8185,5.8185,0,0,1-2.7529-.627,4.48,4.48,0,0,1-1.8408-1.76,5.1611,5.1611,0,0,1-.65-2.6114v-3.1582h11.5517v3.2305A5.0027,5.0027,0,0,1,101.5351,480.9218ZM96.9579,482.33a5.1577,5.1577,0,0,0,2.3125-.4922,3.6349,3.6349,0,0,0,1.5391-1.3887,3.9309,3.9309,0,0,0,.5439-2.0781v-2.2539H91.46v2.1816a4.0207,4.0207,0,0,0,.5556,2.1348,3.6768,3.6768,0,0,0,1.5547,1.4043,5.161,5.161,0,0,0,2.3086.4922Z"/><path class="cls-12" d="M90.6347,486.0019h11.5517v.9765H90.6347Z"/><path class="cls-12" d="M92.9872,498.0976a4.4132,4.4132,0,0,1-1.8564-6.2949,4.3011,4.3011,0,0,1,1.86-1.5879,6.56,6.56,0,0,1,2.8008-.5625h1.2373a6.5913,6.5913,0,0,1,2.8008.5586,4.2976,4.2976,0,0,1,1.86,1.58,4.2489,4.2489,0,0,1,.6543,2.3516,4.1575,4.1575,0,0,1-2.5107,3.9512,6.646,6.646,0,0,1-2.8047.5547H95.7919A6.6725,6.6725,0,0,1,92.9872,498.0976Zm6.4219-.8379a3.3726,3.3726,0,0,0,1.539-1.2168,3.3137,3.3137,0,0,0,.54-1.9,3.2551,3.2551,0,0,0-.54-1.873,3.4117,3.4117,0,0,0-1.5429-1.2168,6.0249,6.0249,0,0,0-2.36-.4258H95.7919a6.0068,6.0068,0,0,0-2.3682.43,3.45,3.45,0,0,0-1.5478,1.2246,3.2569,3.2569,0,0,0-.543,1.8769,3.3083,3.3083,0,0,0,.5391,1.9043,3.3451,3.3451,0,0,0,1.5429,1.2051,6.2293,6.2293,0,0,0,2.377.4141h1.2529A6.0524,6.0524,0,0,0,99.4091,497.26Z"/><polyline class="cls-13" points="85.285 298.681 96.493 298.681 96.493 464.253"/><polyline class="cls-13" points="96.494 509.536 96.494 666.012 85.286 666.012"/><text class="cls-10" transform="translate(283.5146 683.8433)">RE<tspan class="cls-14" x="19.5645" y="0">L</tspan><tspan class="cls-15" x="28.2783" y="0">A</tspan><tspan x="37.4912" y="0">Y</tspan></text><polyline class="cls-13" points="242.473 689.343 242.473 680.469 273.191 680.469"/><polyline class="cls-13" points="337.321 680.468 365.187 680.468 365.187 690.442"/><text class="cls-10" transform="translate(441.8691 683.8433)">ANA<tspan class="cls-16" x="31.8535" y="0">L</tspan><tspan x="39.918" y="0">OG IN</tspan></text><text class="cls-17" transform="translate(618.3945 696.4717)">RESET</text><text class="cls-17" transform="translate(674.5742 696.4697)">USER</text><polyline class="cls-13" points="418.908 689.276 418.908 681.016 432.938 681.016"/><polyline class="cls-13" points="531.768 679.919 545.7 679.919 545.7 690.443"/><rect class="cls-3" x="98.6916" y="708.6148" width="39.958" height="45.05"/><path class="cls-5" d="M118.67,728.4146a2.7241,2.7241,0,1,1-2.7222,2.7241,2.7246,2.7246,0,0,1,2.7222-2.7241"/><path class="cls-5" d="M118.67,740.6061a2.7241,2.7241,0,1,1-2.7222,2.722,2.7228,2.7228,0,0,1,2.7222-2.722"/><text class="cls-10" transform="translate(104.4141 696.5605)">RSL</text><text class="cls-10" transform="translate(697.6357 496.6514) rotate(-90)">PWM</text><polyline class="cls-13" points="702.047 665.921 690.839 665.921 690.839 504.904"/><polyline class="cls-13" points="690.838 449.761 690.838 293.328 702.046 293.328"/><path class="cls-5" d="M340.25,86.6222a9.3811,9.3811,0,1,1-9.38-9.38,9.3808,9.3808,0,0,1,9.38,9.38"/><path class="cls-8" d="M336.2854,86.6222a5.416,5.416,0,1,1-5.416-5.4157,5.4174,5.4174,0,0,1,5.416,5.4157"/><path class="cls-5" d="M340.25,41.0929a9.3811,9.3811,0,1,1-9.38-9.3779,9.3795,9.3795,0,0,1,9.38,9.3779"/><path class="cls-8" d="M336.2854,41.0929a5.416,5.416,0,1,1-5.416-5.4138,5.4162,5.4162,0,0,1,5.416,5.4138"/><rect class="cls-18" x="232.2688" y="37.3625" width="66.468" height="53.384"/><polygon class="cls-19" points="249.809 42.821 281.013 42.821 288.583 50.578 288.583 85.288 242.425 85.288 242.425 50.762 249.809 42.821"/><path class="cls-5" d="M259.4573,68.72a1.9641,1.9641,0,1,1-1.9641,1.9621,1.9615,1.9615,0,0,1,1.9641-1.9621"/><path class="cls-5" d="M259.4573,58.64a1.9641,1.9641,0,1,1-1.9641,1.9622,1.9616,1.9616,0,0,1,1.9641-1.9622"/><path class="cls-5" d="M271.5491,68.72a1.9641,1.9641,0,1,1-1.9622,1.9621,1.962,1.962,0,0,1,1.9622-1.9621"/><path class="cls-5" d="M271.5491,58.64a1.9641,1.9641,0,1,1-1.9622,1.9622,1.962,1.962,0,0,1,1.9622-1.9622"/><rect class="cls-18" x="467.3369" y="26.4884" width="87.1479" height="92.3181"/><rect class="cls-19" x="478.1389" y="63.3525" width="65.5459" height="38.1741"/><rect class="cls-19" x="492.7229" y="101.5265" width="36.0039" height="8.8621"/><rect class="cls-19" x="499.1848" y="110.3886" width="23.2639" height="7.386"/><rect class="cls-20" x="469.2749" y="101.5265" width="23.448" height="13.292"/><rect class="cls-21" x="528.7268" y="101.5265" width="23.45" height="13.292"/><rect class="cls-18" x="365.0786" y="72.6484" width="75.3921" height="33.3101"/><rect class="cls-19" x="367.0767" y="73.9906" width="71.4561" height="30.084"/><rect class="cls-18" x="365.1109" y="26.1684" width="75.3921" height="33.3101"/><rect class="cls-19" x="367.1087" y="27.5104" width="71.4541" height="30.084"/><text class="cls-10" transform="translate(78.4873 38.2119)">INPUT</text><text class="cls-22" transform="translate(315.4473 246.9214)">NI <tspan class="cls-23" x="39.668" y="0">r</tspan><tspan class="cls-24" x="50.1943" y="0">oboRIO</tspan></text><rect class="cls-6" x="370.0928" y="77.2404" width="65.3621" height="11.792"/><rect class="cls-6" x="370.0928" y="30.7626" width="65.3621" height="11.792"/><text class="cls-10" transform="translate(702.0215 92.6074)">POWER</text><rect class="cls-25" x="763.8345" y="79.2957" width="16.0342" height="15.1855"/><rect class="cls-26" x="778.9981" y="79.4151" width="10.6027" height="15.1855"/><text class="cls-10" transform="translate(697.667 118.5669)">STATUS</text><rect class="cls-25" x="763.8345" y="105.2556" width="16.0342" height="15.1855"/><rect class="cls-26" x="778.9981" y="105.3749" width="10.6027" height="15.1855"/><text class="cls-10" transform="translate(710.7012 158.2197)">RADIO</text><rect class="cls-25" x="763.8345" y="145.1687" width="16.0342" height="15.1855"/><rect class="cls-26" x="778.9981" y="145.2881" width="10.6027" height="15.1855"/><text class="cls-10" transform="translate(707.4873 185.0903)">COMM</text><rect class="cls-25" x="763.8345" y="171.7775" width="16.0342" height="15.1855"/><rect class="cls-26" x="778.9981" y="171.8968" width="10.6027" height="15.1855"/><text class="cls-10" transform="translate(712.208 213.0029)">MODE</text><rect class="cls-25" x="763.8345" y="198.3863" width="16.0342" height="15.1855"/><rect class="cls-26" x="778.9981" y="198.5056" width="10.6027" height="15.1855"/><text class="cls-10" transform="translate(728.6465 253.5479)">RSL</text><rect class="cls-25" x="763.8345" y="238.9321" width="16.0342" height="15.1855"/><rect class="cls-26" x="778.9981" y="239.0514" width="10.6027" height="15.1855"/><rect class="cls-27" x="607.9578" y="705.5345" width="108.8485" height="50.9946" rx="9.8548"/><rect class="cls-28" x="622.2244" y="717.3802" width="27.1208" height="27.3032" rx="13.5604"/><rect class="cls-28" x="675.4189" y="717.3802" width="27.1208" height="27.3032" rx="13.5604"/><rect class="cls-3" x="715.6675" y="271.7755" width="46.329" height="413.1708"/><path class="cls-5" d="M741.311,294.3453a2.7242,2.7242,0,1,1-2.7241-2.7239,2.723,2.723,0,0,1,2.7241,2.7239"/><path class="cls-5" d="M729.12,294.3453a2.7242,2.7242,0,1,1-2.7222-2.7239,2.7212,2.7212,0,0,1,2.7222,2.7239"/><path class="cls-5" d="M753.9926,294.3453a2.723,2.723,0,1,1-2.7221-2.7239,2.7212,2.7212,0,0,1,2.7221,2.7239"/><path class="cls-5" d="M741.311,335.5771a2.7242,2.7242,0,1,1-2.7241-2.7237,2.723,2.723,0,0,1,2.7241,2.7237"/><path class="cls-5" d="M729.12,335.5771a2.7242,2.7242,0,1,1-2.7222-2.7237,2.7212,2.7212,0,0,1,2.7222,2.7237"/><path class="cls-5" d="M753.9926,335.5771a2.723,2.723,0,1,1-2.7221-2.7237,2.7212,2.7212,0,0,1,2.7221,2.7237"/><path class="cls-5" d="M741.311,376.8088a2.7242,2.7242,0,1,1-2.7241-2.7234,2.7231,2.7231,0,0,1,2.7241,2.7234"/><path class="cls-5" d="M729.12,376.8088a2.7242,2.7242,0,1,1-2.7222-2.7234,2.7213,2.7213,0,0,1,2.7222,2.7234"/><path class="cls-5" d="M753.9926,376.8088a2.723,2.723,0,1,1-2.7221-2.7234,2.7213,2.7213,0,0,1,2.7221,2.7234"/><path class="cls-5" d="M741.311,418.0406a2.7242,2.7242,0,1,1-2.7241-2.7232,2.723,2.723,0,0,1,2.7241,2.7232"/><path class="cls-5" d="M729.12,418.0406a2.7242,2.7242,0,1,1-2.7222-2.7232,2.7212,2.7212,0,0,1,2.7222,2.7232"/><path class="cls-5" d="M753.9926,418.0406a2.723,2.723,0,1,1-2.7221-2.7232,2.7212,2.7212,0,0,1,2.7221,2.7232"/><path class="cls-5" d="M741.311,459.2723a2.7242,2.7242,0,1,1-2.7241-2.723,2.723,2.723,0,0,1,2.7241,2.723"/><path class="cls-5" d="M729.12,459.2723a2.7242,2.7242,0,1,1-2.7222-2.723,2.7212,2.7212,0,0,1,2.7222,2.723"/><path class="cls-5" d="M753.9926,459.2723a2.723,2.723,0,1,1-2.7221-2.723,2.7212,2.7212,0,0,1,2.7221,2.723"/><path class="cls-5" d="M741.311,500.5041a2.7242,2.7242,0,1,1-2.7241-2.7228,2.723,2.723,0,0,1,2.7241,2.7228"/><path class="cls-5" d="M729.12,500.5041a2.7242,2.7242,0,1,1-2.7222-2.7228,2.7212,2.7212,0,0,1,2.7222,2.7228"/><path class="cls-5" d="M753.9926,500.5041a2.723,2.723,0,1,1-2.7221-2.7228,2.7212,2.7212,0,0,1,2.7221,2.7228"/><path class="cls-5" d="M741.311,541.7358a2.7242,2.7242,0,1,1-2.7241-2.7225,2.723,2.723,0,0,1,2.7241,2.7225"/><path class="cls-5" d="M729.12,541.7358a2.7242,2.7242,0,1,1-2.7222-2.7225,2.7212,2.7212,0,0,1,2.7222,2.7225"/><path class="cls-5" d="M753.9926,541.7358a2.723,2.723,0,1,1-2.7221-2.7225,2.7212,2.7212,0,0,1,2.7221,2.7225"/><path class="cls-5" d="M741.311,582.9676a2.7242,2.7242,0,1,1-2.7241-2.7224,2.723,2.723,0,0,1,2.7241,2.7224"/><path class="cls-5" d="M729.12,582.9676a2.7242,2.7242,0,1,1-2.7222-2.7224,2.7212,2.7212,0,0,1,2.7222,2.7224"/><path class="cls-5" d="M753.9926,582.9676a2.723,2.723,0,1,1-2.7221-2.7224,2.7212,2.7212,0,0,1,2.7221,2.7224"/><path class="cls-5" d="M741.311,624.1994a2.7242,2.7242,0,1,1-2.7241-2.7222,2.723,2.723,0,0,1,2.7241,2.7222"/><path class="cls-5" d="M729.12,624.1994a2.7242,2.7242,0,1,1-2.7222-2.7222,2.7212,2.7212,0,0,1,2.7222,2.7222"/><path class="cls-5" d="M753.9926,624.1994a2.723,2.723,0,1,1-2.7221-2.7222,2.7212,2.7212,0,0,1,2.7221,2.7222"/><path class="cls-5" d="M741.311,665.4311a2.7242,2.7242,0,1,1-2.7241-2.7219,2.7231,2.7231,0,0,1,2.7241,2.7219"/><path class="cls-5" d="M729.12,665.4311a2.7242,2.7242,0,1,1-2.7222-2.7219,2.7213,2.7213,0,0,1,2.7222,2.7219"/><path class="cls-5" d="M753.9926,665.4311a2.723,2.723,0,1,1-2.7221-2.7219,2.7212,2.7212,0,0,1,2.7221,2.7219"/><text class="cls-29" transform="translate(79.1309 51.7856)">7-16V </text><line class="cls-30" x1="110.2498" y1="50.4086" x2="113.6308" y2="50.4086"/><line class="cls-30" x1="115.4898" y1="50.4086" x2="118.8668" y2="50.4086"/><line class="cls-30" x1="120.734" y1="50.4086" x2="124.115" y2="50.4086"/><line class="cls-30" x1="110.2498" y1="47.0154" x2="124.115" y2="47.0154"/><text class="cls-29" transform="translate(75.8916 63.8105)">45 W MAX</text><line class="cls-31" x1="135.9983" y1="180.3457" x2="135.9983" y2="204.7966"/><line class="cls-31" x1="149.6971" y1="154.949" x2="149.6971" y2="177.9407"/><line class="cls-31" x1="163.3878" y1="178.5022" x2="163.3878" y2="201.5129"/><line class="cls-31" x1="177.0785" y1="154.7096" x2="177.0785" y2="177.7"/><line class="cls-31" x1="131.4486" y1="206.9397" x2="140.5527" y2="206.9397"/><line class="cls-31" x1="129.2324" y1="204.7925" x2="142.7648" y2="204.7925"/><rect class="cls-32" x="134.2894" y="176.5668" width="3.423" height="3.4251"/><rect class="cls-12" x="147.9801" y="176.5668" width="3.4266" height="3.4251"/><rect class="cls-12" x="161.6756" y="176.5635" width="3.4251" height="3.425"/><rect class="cls-12" x="175.3738" y="176.5668" width="3.421" height="3.4251"/><polygon class="cls-31" points="129.597 161.159 129.597 195.392 183.471 195.384 183.471 161.159 129.597 161.159"/><text class="cls-33" transform="translate(153.5332 210.4229) scale(1 1.0622)">SCL</text><text class="cls-34" transform="translate(138.0928 150.7793) scale(1 1.0115)">3.3V S<tspan class="cls-35" x="32.7725" y="0">D</tspan><tspan x="40.2158" y="0">A</tspan></text><line class="cls-31" x1="133.4618" y1="209.0909" x2="138.5355" y2="209.0909"/><line class="cls-31" x1="149.003" y1="241.765" x2="149.003" y2="266.0983"/><line class="cls-31" x1="162.6978" y1="242.1384" x2="162.6978" y2="273.7249"/><line class="cls-31" x1="176.3885" y1="242.1385" x2="176.3885" y2="262.5751"/><line class="cls-31" x1="146.4662" y1="270.3965" x2="151.5398" y2="270.3965"/><line class="cls-31" x1="144.4529" y1="268.2453" x2="153.5571" y2="268.2453"/><line class="cls-31" x1="142.2368" y1="266.0982" x2="155.7692" y2="266.0982"/><rect class="cls-32" x="174.6803" y="238.3405" width="3.4251" height="3.4246"/><rect class="cls-32" x="147.2933" y="238.3405" width="3.4226" height="3.4246"/><rect class="cls-32" x="160.9896" y="238.3405" width="3.421" height="3.4246"/><rect class="cls-31" x="142.1598" y="222.5303" width="41.0802" height="34.2324"/><text class="cls-34" transform="translate(165.9023 273.1387) scale(1 1.0115)">TXD</text><text class="cls-34" transform="translate(151.1475 284.1152) scale(1 1.0115)">RXD</text><line class="cls-31" x1="30.219" y1="700.3026" x2="30.219" y2="711.2008"/><line class="cls-31" x1="43.9218" y1="700.2295" x2="44.2384" y2="718.6407"/><line class="cls-31" x1="57.6125" y1="700.3026" x2="57.6125" y2="708.1485"/><line class="cls-31" x1="27.6821" y1="715.5032" x2="32.7558" y2="715.5032"/><line class="cls-31" x1="25.6689" y1="713.3478" x2="34.773" y2="713.3478"/><line class="cls-31" x1="23.4527" y1="711.2047" x2="36.9851" y2="711.2047"/><text class="cls-36" transform="translate(37.8008 728.7949) scale(1 1.0056)">5V</text><text class="cls-36" transform="translate(54.1855 717.4795) scale(1 1.0056)">S</text><rect class="cls-37" x="56.0638" y="696.767" width="3.1791" height="3.4581"/><rect class="cls-37" x="42.4905" y="697.0231" width="3.1791" height="3.4581"/><rect class="cls-37" x="28.7332" y="696.9781" width="3.1791" height="3.4581"/><line class="cls-31" x1="74.8211" y1="758.3884" x2="79.8948" y2="758.3884"/><line class="cls-31" x1="72.8079" y1="756.229" x2="81.912" y2="756.229"/><line class="cls-31" x1="70.5958" y1="754.086" x2="84.1282" y2="754.086"/><line class="cls-31" x1="77.362" y1="745.7043" x2="89.8999" y2="745.7043"/><line class="cls-31" x1="89.8351" y1="731.9568" x2="81.8309" y2="731.9568"/><line class="cls-31" x1="77.358" y1="745.3587" x2="77.358" y2="754.086"/><line class="cls-31" x1="77.3621" y1="752.71" x2="77.3621" y2="746.0535"/><text class="cls-36" transform="translate(73.6855 735.7168) scale(1 1.0056)">S</text><rect class="cls-37" x="89.9045" y="730.1526" width="3.1791" height="3.4581"/><rect class="cls-37" x="89.7229" y="744.0142" width="3.1791" height="3.4581"/><line class="cls-31" x1="197.6518" y1="758.3843" x2="202.7255" y2="758.3843"/><line class="cls-38" x1="195.6386" y1="756.229" x2="204.7427" y2="756.229"/><line class="cls-31" x1="193.4264" y1="754.0819" x2="206.9588" y2="754.0819"/><line class="cls-31" x1="212.7713" y1="731.9568" x2="204.6615" y2="731.9568"/><line class="cls-31" x1="212.7713" y1="718.2336" x2="204.6615" y2="718.2336"/><polyline class="cls-31" points="200.193 754.082 200.193 745.505 212.771 745.505"/><text class="cls-39" transform="translate(180.0322 720.7153) scale(1 1.0605)">FWD</text><text class="cls-40" transform="translate(184.1074 734.6479) scale(1 1.1297)">REV</text><rect class="cls-37" x="212.8853" y="716.4108" width="3.1791" height="3.4581"/><rect class="cls-37" x="212.5632" y="730.1243" width="3.1791" height="3.4581"/><rect class="cls-37" x="212.5345" y="743.8711" width="3.1791" height="3.4581"/><line class="cls-41" x1="585.4035" y1="758.5385" x2="590.4771" y2="758.5385"/><line class="cls-41" x1="583.3943" y1="756.3873" x2="592.4984" y2="756.3873"/><line class="cls-41" x1="581.1781" y1="754.2402" x2="594.7104" y2="754.2402"/><line class="cls-41" x1="583.5364" y1="731.7579" x2="575.5119" y2="731.7579"/><line class="cls-41" x1="583.5323" y1="718.193" x2="575.5078" y2="718.193"/><polyline class="cls-41" points="587.944 754.24 587.944 745.716 575.512 745.716"/><text class="cls-39" transform="translate(584.4121 721.0605) scale(1 1.0605)">S</text><text class="cls-40" transform="translate(585.0684 735.2339) scale(1 1.1297)">5V</text><rect class="cls-37" x="572.0963" y="716.3659" width="3.1791" height="3.4581"/><rect class="cls-37" x="572.3044" y="729.8939" width="3.1791" height="3.4581"/><rect class="cls-37" x="572.2576" y="743.8381" width="3.1791" height="3.4581"/><line class="cls-31" x1="749.1156" y1="710.9137" x2="754.1892" y2="710.9137"/><line class="cls-31" x1="747.1064" y1="708.7666" x2="756.2064" y2="708.7666"/><line class="cls-31" x1="744.8943" y1="706.6195" x2="758.4266" y2="706.6195"/><line class="cls-31" x1="724.2582" y1="695.6443" x2="724.2582" y2="703.5551"/><line class="cls-31" x1="737.953" y1="695.7051" x2="737.953" y2="713.8444"/><line class="cls-31" x1="751.6436" y1="695.6443" x2="751.6436" y2="706.989"/><text class="cls-36" transform="translate(720.9482 712.8979) scale(1 1.0056)">S</text><text class="cls-36" transform="translate(731.7676 723.9058) scale(1 1.0056)">6V</text><rect class="cls-37" x="722.5584" y="692.374" width="3.1791" height="3.4581"/><rect class="cls-37" x="736.3565" y="692.374" width="3.1791" height="3.4581"/><rect class="cls-37" x="749.9977" y="692.374" width="3.1791" height="3.4581"/><path class="cls-42" d="M606.1405,648.0063a6.8484,6.8484,0,0,0,6.8554-6.8392"/><path class="cls-42" d="M606.1405,634.3157a6.8529,6.8529,0,0,0-6.8394,6.8515"/><text class="cls-43" transform="translate(566.6963 661.2104) scale(1 1.0349)">A<tspan class="cls-44" x="6.918" y="0">CCELEROMETER</tspan></text><text class="cls-45" transform="translate(601.8213 608.0435) scale(1 1.0349)">Y</text><text class="cls-45" transform="translate(589.2725 635.6387) scale(1 1.0349)">Z</text><text class="cls-45" transform="translate(634.6182 645.1216) scale(1 1.0349)">X</text><line class="cls-46" x1="630.157" y1="641.508" x2="606.1444" y2="641.508"/><line class="cls-46" x1="606.1405" y1="641.508" x2="606.1405" y2="614.4027"/><path class="cls-31" d="M606.1405,648.0063a6.8453,6.8453,0,1,0-6.8394-6.8392A6.8484,6.8484,0,0,0,606.1405,648.0063Z"/><polyline class="cls-12" points="633.782 641.508 629.057 639.686 630.177 641.508 629.057 643.326"/><polyline class="cls-47" points="633.782 641.508 629.057 639.686 630.177 641.508 629.057 643.326"/><polyline class="cls-12" points="606.14 610.9 604.342 615.633 606.14 614.163 607.951 615.633 606.14 610.9"/><polyline class="cls-47" points="606.14 610.9 604.342 615.633 606.14 614.163 607.951 615.633 606.14 610.9"/><line class="cls-48" x1="629.0571" y1="643.3264" x2="633.7815" y2="641.508"/><line class="cls-47" x1="629.0571" y1="643.3264" x2="633.7815" y2="641.508"/><path class="cls-12" d="M606.1444,642.7135a1.5465,1.5465,0,1,0-1.5424-1.5464,1.5521,1.5521,0,0,0,1.5424,1.5464"/><path class="cls-31" d="M606.1444,642.7135a1.5465,1.5465,0,1,0-1.5424-1.5464A1.5521,1.5521,0,0,0,606.1444,642.7135Z"/><line class="cls-42" x1="610.8506" y1="269.5566" x2="651.9307" y2="269.5566"/><line class="cls-31" x1="602.12" y1="245.5847" x2="625.8078" y2="245.5847"/><line class="cls-31" x1="602.12" y1="231.89" x2="625.8078" y2="231.89"/><line class="cls-31" x1="602.1203" y1="218.1993" x2="625.8081" y2="218.1993"/><line class="cls-31" x1="610.8547" y1="166.854" x2="610.8547" y2="269.5566"/><line class="cls-31" x1="602.12" y1="204.5085" x2="625.8078" y2="204.5085"/><line class="cls-31" x1="602.12" y1="190.822" x2="625.8078" y2="190.822"/><line class="cls-31" x1="651.9351" y1="269.5683" x2="651.9351" y2="166.8658"/><line class="cls-42" x1="651.9349" y1="166.8499" x2="610.8547" y2="166.8499"/><line class="cls-49" x1="636.5274" y1="245.5929" x2="660.2191" y2="245.5929"/><line class="cls-49" x1="602.12" y1="245.5847" x2="625.8078" y2="245.5847"/><line class="cls-49" x1="602.1159" y1="231.894" x2="625.8037" y2="231.894"/><line class="cls-49" x1="636.5233" y1="231.894" x2="660.215" y2="231.894"/><line class="cls-49" x1="602.1159" y1="218.2033" x2="625.8037" y2="218.2033"/><line class="cls-49" x1="636.5233" y1="218.2033" x2="660.215" y2="218.2033"/><line class="cls-49" x1="591.2219" y1="181.9815" x2="591.2219" y2="190.8868"/><line class="cls-49" x1="602.1159" y1="204.5085" x2="625.8037" y2="204.5085"/><line class="cls-49" x1="636.5233" y1="204.5085" x2="660.215" y2="204.5085"/><line class="cls-49" x1="588.681" y1="195.1892" x2="593.7586" y2="195.1892"/><line class="cls-49" x1="586.6759" y1="193.038" x2="595.7759" y2="193.038"/><line class="cls-49" x1="584.4597" y1="190.8909" x2="597.9879" y2="190.8909"/><line class="cls-49" x1="602.1159" y1="190.8138" x2="625.8037" y2="190.8138"/><line class="cls-49" x1="636.5233" y1="190.8138" x2="660.215" y2="190.8138"/><rect class="cls-49" x="610.8547" y="166.8541" width="41.0802" height="102.7025"/><text class="cls-34" transform="translate(662.3271 193.7451) scale(1 1.0115)">CS0</text><text class="cls-34" transform="translate(662.3213 207.4214) scale(1 1.0115)">CS1</text><text class="cls-34" transform="translate(662.3135 221.3638) scale(1 1.0115)">5V</text><text class="cls-34" transform="translate(662.3057 235.1182) scale(1 1.0115)">CS2</text><text class="cls-34" transform="translate(662.498 248.8232) scale(1 1.0115)">CS3</text><text class="cls-34" transform="translate(570.332 208.3467) scale(1 1.0115)">SCLK</text><text class="cls-34" transform="translate(569.0381 222.0435) scale(1 1.0115)">MOSI</text><text class="cls-34" transform="translate(569.0303 235.7979) scale(1 1.0115)">MISO</text><text class="cls-34" transform="translate(576.1582 249.9888) scale(1 1.0115)">3.3V</text><rect class="cls-37" x="624.1793" y="188.7976" width="3.1791" height="3.4581"/><rect class="cls-37" x="624.1793" y="202.4842" width="3.1791" height="3.4581"/><rect class="cls-37" x="624.1796" y="216.1749" width="3.1791" height="3.4581"/><rect class="cls-37" x="624.1793" y="229.8656" width="3.1791" height="3.4581"/><rect class="cls-37" x="624.1793" y="243.5603" width="3.1791" height="3.4581"/><rect class="cls-37" x="634.8989" y="243.5685" width="3.1791" height="3.4581"/><rect class="cls-37" x="634.8948" y="229.8697" width="3.1791" height="3.4581"/><rect class="cls-37" x="634.8948" y="216.1789" width="3.1791" height="3.4581"/><rect class="cls-37" x="634.8948" y="202.4842" width="3.1791" height="3.4581"/><rect class="cls-37" x="634.8948" y="188.7894" width="3.1791" height="3.4581"/><text class="cls-10" transform="translate(617.7393 156.5044)">SPI</text></g><g id="Shader"><g class="cls-50"><path class="cls-48" d="M53.0859,781.6182A50.1428,50.1428,0,0,1,3,731.5322V53.0859A50.1428,50.1428,0,0,1,53.0859,3H743.1943A50.1428,50.1428,0,0,1,793.28,53.0859V731.5322a50.1428,50.1428,0,0,1-50.086,50.086Zm-24.5332-566.81c-6.0459,0-10.9638,4.4277-10.9638,9.8706v58.9614c0,5.4429,4.9179,9.8706,10.9638,9.8706H192.67c6.0449,0,10.9629-4.4277,10.9629-9.8706V224.6792c0-5.4429-4.918-9.8706-10.9629-9.8706Z"/></g><path class="cls-51" d="M743.1938,6A47.0871,47.0871,0,0,1,790.28,53.0859V731.532a47.0858,47.0858,0,0,1-47.086,47.0859H53.0858A47.0857,47.0857,0,0,1,6,731.532V53.0859A47.0871,47.0871,0,0,1,53.0858,6h690.108M28.5524,296.5112h164.117c7.7119,0,13.9638-5.7624,13.9638-12.8706V224.6792c0-7.1082-6.2519-12.8706-13.9638-12.8706H28.5524c-7.7119,0-13.9637,5.7624-13.9637,12.8706v58.9614c0,7.1082,6.2518,12.8706,13.9637,12.8706M743.1938,0H53.0858A53.146,53.146,0,0,0,0,53.0859V731.532a53.146,53.146,0,0,0,53.0859,53.0859h690.108A53.1461,53.1461,0,0,0,796.28,731.532V53.0859A53.146,53.146,0,0,0,743.1938,0ZM28.5524,290.5112c-4.3911,0-7.9637-3.082-7.9637-6.8706V224.6792c0-3.7883,3.5726-6.8706,7.9637-6.8706h164.117c4.3913,0,7.9638,3.0823,7.9638,6.8706v58.9614c0,3.7886-3.5725,6.8706-7.9638,6.8706Z"/></g><g id="Edge_Fix_TOP_" data-name="Edge Fix (TOP)"><path class="cls-12" d="M-.7383.01V787.73H797.28V.01ZM749.0085,778.8275l-698.0228.5137c-25.7844-2.0646-41.7152-20.1636-44.8769-45.14L6.8727,48.5362c2.03-21.1,20.1644-39.3677,40.9884-41.6014l700.17.1455c21.0428,2.4863,38.8976,20.0071,41.99,40.9878l.0759,684.1015C790.1219,757.4036,773.9364,774.5708,749.0085,778.8275Z"/></g></svg>