<svg id="Layer_1" data-name="Layer 1" xmlns="http://www.w3.org/2000/svg" viewBox="0 0 197.534 238.85"><defs><style>.cls-1{fill:#323031}.cls-2{fill:#819356}.cls-3{fill:#f2f2f2}.cls-4{fill:#6e7071}.cls-5{fill:#424242}.cls-6{fill:#5a5a5d}.cls-23,.cls-7{fill:#221f1f}.cls-8{fill:#bc2030}.cls-10{fill:#d6dd28}.cls-11{fill:#37b24a}.cls-12{fill:#079247}.cls-23{font-family:Verdana}.cls-14{letter-spacing:.001em}.cls-15{letter-spacing:-.0001em}.cls-18{fill:#fff}.cls-23{font-size:5.8038px}.cls-20{letter-spacing:.001em}.cls-21{letter-spacing:-.0001em}.cls-22{letter-spacing:.0009em}.cls-27{fill:#383d37}.cls-28{fill:#b0a997}</style></defs><path class="cls-1" d="M186.826 103.07H10.708a3.483 3.483 0 01-3.483-3.483V12.372a3.484 3.484 0 013.483-3.483h176.118a3.482 3.482 0 013.482 3.483v87.215a3.481 3.481 0 01-3.482 3.482"/><path class="cls-1" d="M180.38 198.832H14.253a3.597 3.597 0 01-3.598-3.598v-91.245a3.597 3.597 0 013.598-3.597H180.38a3.597 3.597 0 013.598 3.597v91.245a3.597 3.597 0 01-3.598 3.598"/><path class="cls-1" d="M12.819 195.321H183.66a3.483 3.483 0 013.482 3.482v27.675a3.482 3.482 0 01-3.482 3.483H12.818a3.481 3.481 0 01-3.48-3.483v-27.675a3.482 3.482 0 013.48-3.482"/><path class="cls-2" d="M82.386 110.746h36.167V83.698H82.386a2.35 2.35 0 00-2.35 2.349v22.35a2.35 2.35 0 002.35 2.349"/><path class="cls-2" d="M80.293 64.264v36.128h27.972V64.264a2.39 2.39 0 00-2.389-2.39H82.682a2.389 2.389 0 00-2.389 2.39"/><path class="cls-1" d="M95.733 84.471h9.458v16.818h-9.458zM83.73 92.211h9.629v17.368H83.73z"/><path class="cls-2" d="M92.796 164.932a4.651 4.651 0 01-4.65-4.65v-43.813a.474.474 0 01.472-.474h8.357a.474.474 0 01.473.474v43.811a4.652 4.652 0 01-4.652 4.652M106.47 165.134a4.65 4.65 0 01-4.65-4.65V116.67a.474.474 0 01.473-.474h8.356a.474.474 0 01.473.474v43.81a4.652 4.652 0 01-4.652 4.653M137.013 195.886l.007-89.565a1.164 1.164 0 011.164-1.165h9.209l-.007 92.36h-8.742a1.63 1.63 0 01-1.631-1.63M62.718 105.74l-.007 89.565a1.164 1.164 0 01-1.165 1.164h-9.209l.007-92.36h8.743a1.631 1.631 0 011.631 1.63"/><path class="cls-3" d="M144.093 92.83V47.51a.825.825 0 01.824-.824h9.318v47.297h-8.989a1.153 1.153 0 01-1.153-1.153"/><path class="cls-2" d="M108.817 45.172h25.346v13.512h-25.346zM113.158 58.684h15.348v9.712h-15.348zM64.62 95.023h-5.57a1.964 1.964 0 01-1.964-1.964V24.31a1.964 1.964 0 011.964-1.965h5.569a1.964 1.964 0 011.964 1.964V93.06a1.964 1.964 0 01-1.964 1.964"/><path class="cls-2" d="M60.124 95.023H46.2a1.908 1.908 0 01-1.908-1.908V72.243a1.908 1.908 0 011.908-1.908h13.925a1.908 1.908 0 011.908 1.908v20.872a1.908 1.908 0 01-1.908 1.908"/><path class="cls-4" d="M108.818 18.102h25.286v25.589h-25.286z"/><path class="cls-5" d="M26.748 104.257h25.589v92.201H26.748z"/><path class="cls-4" d="M147.396 105.241h25.589v92.201h-25.589zM155.504 46.571h25.589V94.1h-25.589z"/><path class="cls-5" d="M17.408 46.571h25.59V94.1h-25.59z"/><path class="cls-6" d="M19.446 48.118h18.767v10.703H19.446z"/><path class="cls-3" d="M23.663 50.126h12.041v6.355H23.663z"/><path class="cls-7" d="M29.266 53.47a4.223 4.223 0 11-4.223-4.223 4.223 4.223 0 014.223 4.222"/><path class="cls-6" d="M19.446 58.822h18.767v10.703H19.446z"/><path class="cls-3" d="M23.663 60.829h12.041v6.355H23.663z"/><path class="cls-7" d="M29.266 64.173a4.223 4.223 0 11-4.223-4.223 4.223 4.223 0 014.223 4.223"/><path class="cls-6" d="M19.446 69.525h18.767v10.704H19.446z"/><path class="cls-3" d="M23.663 71.532h12.041v6.355H23.663z"/><path class="cls-7" d="M29.266 74.876a4.223 4.223 0 11-4.223-4.223 4.224 4.224 0 014.223 4.223"/><path class="cls-6" d="M19.446 80.228h18.767v10.703H19.446z"/><path class="cls-3" d="M23.663 82.236h12.041v6.354H23.663z"/><path class="cls-7" d="M29.266 85.58a4.223 4.223 0 11-4.223-4.223 4.223 4.223 0 014.223 4.223"/><path class="cls-6" d="M161.595 81.358h18.767v10.703h-18.767z"/><path class="cls-3" d="M164.104 83.698h12.041v6.355h-12.041z"/><path class="cls-7" d="M170.542 86.709a4.223 4.223 0 114.223 4.223 4.223 4.223 0 01-4.223-4.223"/><path class="cls-6" d="M161.595 70.654h18.767v10.704h-18.767z"/><path class="cls-3" d="M164.104 72.995h12.041v6.355h-12.041z"/><path class="cls-7" d="M170.542 76.005a4.223 4.223 0 114.223 4.224 4.223 4.223 0 01-4.223-4.224"/><path class="cls-6" d="M161.595 59.95h18.767v10.703h-18.767z"/><path class="cls-3" d="M164.104 62.292h12.041v6.354h-12.041z"/><path class="cls-7" d="M170.542 65.302a4.223 4.223 0 114.223 4.223 4.223 4.223 0 01-4.223-4.223"/><path class="cls-6" d="M161.595 49.246h18.767v10.703h-18.767z"/><path class="cls-3" d="M164.104 51.587h12.041v6.355h-12.041z"/><path class="cls-7" d="M170.542 54.598a4.223 4.223 0 114.223 4.223 4.223 4.223 0 01-4.223-4.223"/><path class="cls-6" d="M121.46 19.233h10.704V38H121.46z"/><path class="cls-3" d="M123.802 23.449h6.355V35.49h-6.355z"/><path class="cls-7" d="M126.812 29.052a4.223 4.223 0 114.224-4.223 4.223 4.223 0 01-4.224 4.223"/><path class="cls-6" d="M110.757 19.233h10.703V38h-10.703z"/><path class="cls-3" d="M113.099 23.449h6.354V35.49h-6.354z"/><path class="cls-7" d="M116.109 29.052a4.223 4.223 0 114.223-4.223 4.223 4.223 0 01-4.223 4.223"/><path class="cls-6" d="M28.829 108.451h18.767v10.703H28.829z"/><path class="cls-3" d="M33.046 110.457h12.042v6.354H33.046z"/><path class="cls-7" d="M38.649 113.802a4.223 4.223 0 11-4.223-4.223 4.223 4.223 0 014.223 4.223"/><path class="cls-6" d="M28.829 119.154h18.767v10.703H28.829z"/><path class="cls-3" d="M33.046 121.161h12.042v6.355H33.046z"/><path class="cls-7" d="M38.649 124.505a4.223 4.223 0 11-4.223-4.223 4.223 4.223 0 014.223 4.223"/><path class="cls-6" d="M28.829 129.857h18.767v10.703H28.829z"/><path class="cls-3" d="M33.046 131.864h12.042v6.355H33.046z"/><path class="cls-7" d="M38.649 135.208a4.223 4.223 0 11-4.223-4.223 4.223 4.223 0 014.223 4.223"/><path class="cls-6" d="M28.829 140.56h18.767v10.704H28.829z"/><path class="cls-3" d="M33.046 142.567h12.042v6.355H33.046z"/><path class="cls-7" d="M38.649 145.912a4.223 4.223 0 11-4.223-4.224 4.223 4.223 0 014.223 4.224"/><path class="cls-6" d="M28.829 151.34h18.767v10.703H28.829z"/><path class="cls-3" d="M33.046 153.348h12.042v6.355H33.046z"/><path class="cls-7" d="M38.649 156.692a4.223 4.223 0 11-4.223-4.223 4.223 4.223 0 014.223 4.223"/><path class="cls-6" d="M28.829 162.043h18.767v10.703H28.829z"/><path class="cls-3" d="M33.046 164.051h12.042v6.355H33.046z"/><path class="cls-7" d="M38.649 167.395a4.223 4.223 0 11-4.223-4.223 4.223 4.223 0 014.223 4.223"/><path class="cls-6" d="M28.829 172.747h18.767v10.704H28.829z"/><path class="cls-3" d="M33.046 174.755h12.042v6.355H33.046z"/><path class="cls-7" d="M38.649 178.098a4.223 4.223 0 11-4.223-4.223 4.224 4.224 0 014.223 4.223"/><path class="cls-6" d="M28.829 183.452h18.767v10.703H28.829z"/><path class="cls-3" d="M33.046 185.459h12.042v6.354H33.046z"/><path class="cls-7" d="M38.649 188.803a4.223 4.223 0 11-4.223-4.223 4.223 4.223 0 014.223 4.222"/><path class="cls-6" d="M152.995 184.618h18.767v10.703h-18.767z"/><path class="cls-3" d="M155.504 186.96h12.041v6.354h-12.041z"/><path class="cls-7" d="M161.943 189.97a4.223 4.223 0 114.223 4.223 4.223 4.223 0 01-4.223-4.224"/><path class="cls-6" d="M152.995 173.915h18.767v10.703h-18.767z"/><path class="cls-3" d="M155.504 176.257h12.041v6.354h-12.041z"/><path class="cls-7" d="M161.943 179.266a4.223 4.223 0 114.223 4.223 4.223 4.223 0 01-4.223-4.223"/><path class="cls-6" d="M152.995 163.212h18.767v10.703h-18.767z"/><path class="cls-3" d="M155.504 165.553h12.041v6.355h-12.041z"/><path class="cls-7" d="M161.943 168.563a4.223 4.223 0 114.223 4.223 4.223 4.223 0 01-4.223-4.223"/><path class="cls-6" d="M152.995 152.509h18.767v10.703h-18.767z"/><path class="cls-3" d="M155.504 154.85h12.041v6.355h-12.041z"/><path class="cls-7" d="M161.943 157.86a4.223 4.223 0 114.223 4.223 4.224 4.224 0 01-4.223-4.223"/><path class="cls-6" d="M152.995 141.728h18.767v10.703h-18.767z"/><path class="cls-3" d="M155.504 144.07h12.041v6.354h-12.041z"/><path class="cls-7" d="M161.943 147.079a4.223 4.223 0 114.223 4.223 4.223 4.223 0 01-4.223-4.223"/><path class="cls-6" d="M152.995 131.025h18.767v10.703h-18.767z"/><path class="cls-3" d="M155.504 133.365h12.041v6.355h-12.041z"/><path class="cls-7" d="M161.943 136.376a4.223 4.223 0 114.223 4.223 4.223 4.223 0 01-4.223-4.223"/><path class="cls-6" d="M152.995 120.321h18.767v10.703h-18.767z"/><path class="cls-3" d="M155.504 122.662h12.041v6.355h-12.041z"/><path class="cls-7" d="M161.943 125.673a4.223 4.223 0 114.223 4.223 4.223 4.223 0 01-4.223-4.223"/><path class="cls-8" d="M53.883 108.765h8.149v10.389h-8.149z"/><path class="cls-6" d="M152.995 109.617h18.767v10.704h-18.767z"/><path class="cls-3" d="M155.504 111.959h12.041v6.355h-12.041z"/><path class="cls-7" d="M161.943 114.969a4.223 4.223 0 114.223 4.224 4.223 4.223 0 01-4.223-4.224M53.883 119.143h8.149v10.389h-8.149z"/><path class="cls-8" d="M53.883 129.532h8.149v10.388h-8.149z"/><path class="cls-7" d="M53.883 139.91h8.149v10.389h-8.149z"/><path class="cls-8" d="M53.883 150.289h8.149v10.389h-8.149z"/><path class="cls-7" d="M53.883 160.668h8.149v10.389h-8.149z"/><path class="cls-8" d="M53.883 171.056h8.149v10.388h-8.149z"/><path class="cls-7" d="M53.883 181.434h8.149v10.389h-8.149zM45.967 70.788h8.149v11.94h-8.149z"/><path class="cls-8" d="M137.554 182.405h8.149v10.388h-8.149z"/><path class="cls-7" d="M137.554 172.026h8.149v10.389h-8.149z"/><path class="cls-8" d="M137.554 161.637h8.149v10.389h-8.149z"/><path class="cls-7" d="M137.554 151.259h8.149v10.388h-8.149z"/><path class="cls-8" d="M137.554 140.88h8.149v10.389h-8.149z"/><path class="cls-7" d="M137.554 130.501h8.149v10.389h-8.149z"/><path class="cls-8" d="M137.554 120.113h8.149v10.388h-8.149z"/><path class="cls-7" d="M137.554 109.735h8.149v10.389h-8.149z"/><path class="cls-8" d="M45.967 82.62h8.149v11.951h-8.149z"/><path d="M53.915 68.646h-6.399a1.548 1.548 0 01-1.549-1.549V24.998a1.548 1.548 0 011.55-1.549h6.398a1.549 1.549 0 011.55 1.55v42.098a1.549 1.549 0 01-1.55 1.55" fill="#2f3378"/><path class="cls-7" d="M121.412 45.172h11.94v12.521h-11.94z"/><path class="cls-8" d="M109.568 45.172h11.951v12.521h-11.951z"/><path class="cls-10" d="M145.787 47.923h8.149V59h-8.149z"/><path class="cls-11" d="M145.787 58.991h8.149v11.077h-8.149z"/><path class="cls-10" d="M145.787 70.067h8.149v11.077h-8.149z"/><path class="cls-11" d="M145.787 81.134h8.149v11.077h-8.149z"/><path class="cls-3" d="M136.047 81.05V59.769a.78.78 0 01.778-.78h7.268v23.153h-6.956a1.09 1.09 0 01-1.09-1.09"/><path class="cls-2" d="M72.371 121.16h-9.654v-8.462h9.654a2.785 2.785 0 012.785 2.786v2.89a2.785 2.785 0 01-2.785 2.786M72.371 143.662h-9.654V135.2h9.654a2.785 2.785 0 012.785 2.786v2.89a2.785 2.785 0 01-2.785 2.786M72.371 166.856h-9.654v-8.462h9.654a2.785 2.785 0 012.785 2.786v2.89a2.785 2.785 0 01-2.785 2.786M72.371 189.358h-9.654v-8.462h9.654a2.785 2.785 0 012.785 2.786v2.89a2.786 2.786 0 01-2.785 2.786M127.9 181.209h9.654v8.462H127.9a2.786 2.786 0 01-2.785-2.786v-2.891a2.785 2.785 0 012.785-2.785M127.9 158.707h9.654v8.462H127.9a2.785 2.785 0 01-2.785-2.786v-2.89a2.785 2.785 0 012.785-2.786M127.9 135.512h9.654v8.462H127.9a2.785 2.785 0 01-2.785-2.786v-2.89a2.785 2.785 0 012.785-2.786M127.9 113.01h9.654v8.462H127.9a2.785 2.785 0 01-2.785-2.785v-2.89a2.785 2.785 0 012.785-2.787"/><path class="cls-12" d="M117.516 131.93h-6.448a.435.435 0 01-.435-.435v-14.999a.434.434 0 01.435-.432h6.448a.434.434 0 01.435.432v15a.435.435 0 01-.435.434M88.145 131.863h-6.448a.434.434 0 01-.435-.434V116.43a.434.434 0 01.435-.434h6.448a.434.434 0 01.435.434v14.999a.434.434 0 01-.435.434"/><path class="cls-2" d="M86.104 94.629h4.881v12.53h-4.881zM98.484 86.876h3.957v12.471h-3.957z"/><path class="cls-7" d="M129.697 110.746h-11.145V83.698h11.145a1.338 1.338 0 011.338 1.337v24.374a1.338 1.338 0 01-1.338 1.337"/><text transform="translate(39.316 213.67)" font-family="Verdana" font-size="8.706" fill="#819356">Pn<tspan class="cls-14" x="10.759" y="0">e</tspan><tspan class="cls-15" x="15.954" y="0">umati</tspan><tspan class="cls-14" x="40.978" y="0">c</tspan><tspan x="45.523" y="0">s </tspan><tspan class="cls-14" x="53.119" y="0">Co</tspan><tspan x="64.499" y="0">nt</tspan><tspan x="73.438" y="0" letter-spacing="-.015em">r</tspan><tspan class="cls-14" x="77.023" y="0">o</tspan><tspan class="cls-15" x="82.315" y="0">l M</tspan><tspan class="cls-14" x="95.102" y="0">o</tspan><tspan x="100.394" y="0" letter-spacing="0em">dule</tspan></text><path class="cls-18" d="M168.363 24.089a6.434 6.434 0 117.042 5.763 6.434 6.434 0 01-7.042-5.763M14.417 22.983a6.435 6.435 0 117.042 5.764 6.436 6.436 0 01-7.042-5.764M14.417 216.619a6.435 6.435 0 117.042 5.763 6.435 6.435 0 01-7.042-5.763M170.574 216.619a6.434 6.434 0 117.042 5.763 6.434 6.434 0 01-7.042-5.763"/><text transform="rotate(90 11.992 36.86)" font-size="5.804" fill="#fff" font-family="Verdana"><tspan class="cls-20">P</tspan><tspan class="cls-21" x="3.506" y="0">R</tspan><tspan class="cls-20" x="7.541" y="0">E</tspan><tspan x="11.217" y="0">SS</tspan><tspan class="cls-22" x="19.152" y="0">U</tspan><tspan x="23.405" y="0">R</tspan><tspan class="cls-20" x="27.441" y="0">E</tspan><tspan class="cls-21" x="31.117" y="0"> SW</tspan></text><text class="cls-23" transform="rotate(90 15.649 83.625)"><tspan class="cls-22">12</tspan><tspan x="7.391" y="0">V</tspan></text><text class="cls-23" transform="rotate(90 15.493 44.014)">COM<tspan class="cls-22" x="13.512" y="0">P</tspan><tspan x="17.018" y="0">R</tspan><tspan class="cls-22" x="21.053" y="0">ES</tspan><tspan x="28.696" y="0">SOR</tspan><tspan class="cls-20" x="41.267" y="0"> </tspan><tspan x="43.313" y="0">O</tspan><tspan class="cls-22" x="47.882" y="0">UT</tspan></text><text class="cls-23" transform="rotate(90 9.494 77.47)"><tspan class="cls-22">24</tspan><tspan x="7.391" y="0">V</tspan></text><text class="cls-23" transform="rotate(90 12.172 100.938)">VSOL</text><text class="cls-23" transform="rotate(90 -20.07 111.69)">COMP</text><text class="cls-23" transform="rotate(90 -12.427 116.448)">S<tspan x="3.967" y="0" letter-spacing="-.046em">T</tspan><tspan x="7.277" y="0" letter-spacing="-.06em">A</tspan><tspan x="10.896" y="0">T</tspan><tspan class="cls-20" x="14.472" y="0">U</tspan><tspan x="18.726" y="0" letter-spacing="0em">S</tspan></text><text class="cls-23" transform="rotate(180 62.438 30.55)">V<tspan class="cls-20" x="3.967" y="0">i</tspan><tspan x="5.566" y="0">n</tspan></text><text class="cls-23" transform="rotate(-90 110.117 -32.698)">CAN</text><text class="cls-23" transform="rotate(-90 126.346 -7.497)">7</text><text class="cls-23" transform="rotate(-90 137.687 3.844)">6</text><text class="cls-23" transform="rotate(-90 149.303 15.367)">5</text><text class="cls-23" transform="rotate(-90 160.64 26.705)">4</text><text class="cls-23" transform="rotate(90 -58.312 125.099)">3</text><text class="cls-23" transform="rotate(90 -46.974 113.761)">2</text><text class="cls-23" transform="rotate(90 -35.45 102.145)">1</text><text class="cls-23" transform="rotate(90 -24.113 90.807)">0</text><rect class="cls-27" x="121.74" y="87.184" width="6.107" height="6.107" rx=".455"/><rect class="cls-27" x="121.74" y="93.716" width="6.107" height="6.107" rx=".455"/><rect class="cls-27" x="121.74" y="100.248" width="6.107" height="6.107" rx=".455"/><path class="cls-28" d="M123.378 88.822h2.831v2.831h-2.831zM123.378 101.886h2.831v2.831h-2.831zM123.378 95.354h2.831v2.831h-2.831z"/><path class="cls-28" d="M122.189 87.557h1.219v12.047h-1.219z"/><path d="M-52.778 300.904A25.072 25.072 0 01-77.82 275.86V-63.362a25.072 25.072 0 0125.043-25.043h345.055a25.072 25.072 0 0125.043 25.043V275.86a25.072 25.072 0 01-25.043 25.042zM81.412 57.746a5.706 5.706 0 00-5.7 5.7v45.282a5.706 5.706 0 005.7 5.7h48.69a5.706 5.706 0 005.7-5.7V63.447a5.707 5.707 0 00-5.7-5.7z" fill="#231f20" opacity=".33"/><path d="M292.277-86.905a23.544 23.544 0 0123.543 23.543V275.86a23.543 23.543 0 01-23.543 23.543H-52.777A23.543 23.543 0 01-76.32 275.86V-63.362a23.544 23.544 0 0123.543-23.543h345.054M81.412 115.928h48.69a7.2 7.2 0 007.2-7.2V63.447a7.2 7.2 0 00-7.2-7.2h-48.69a7.2 7.2 0 00-7.2 7.2v45.281a7.2 7.2 0 007.2 7.2M292.276-89.905H-52.777A26.573 26.573 0 00-79.32-63.362V275.86a26.573 26.573 0 0026.543 26.543h345.054a26.573 26.573 0 0026.543-26.543V-63.362a26.573 26.573 0 00-26.543-26.543zM81.412 112.928a4.205 4.205 0 01-4.2-4.2V63.447a4.205 4.205 0 014.2-4.2h48.69a4.205 4.205 0 014.2 4.2v45.281a4.205 4.205 0 01-4.2 4.2z" fill="#00aeef"/><path class="cls-18" d="M-79.334-89.854l-.763 392.862 398.324-.22.763-393.726zM315.82 275.861a23.543 23.543 0 01-23.543 23.543H-52.777A23.543 23.543 0 01-76.32 275.86V-63.362a23.544 23.544 0 0123.543-23.543h345.054a23.544 23.544 0 0123.543 23.543z"/><path class="cls-18" d="M-4.019-4.204v247.306h204.81V-4.204zM190.308 99.587a3.481 3.481 0 01-3.482 3.482h-2.981a3.563 3.563 0 01.133.92v91.245c0 .04-.01.078-.012.118a3.471 3.471 0 013.177 3.451v27.675a3.482 3.482 0 01-3.482 3.483H12.818a3.481 3.481 0 01-3.48-3.483v-27.675a3.467 3.467 0 011.409-2.783 3.592 3.592 0 01-.092-.786V103.99a3.567 3.567 0 01.134-.92h-.08a3.483 3.483 0 01-3.483-3.482V12.372a3.484 3.484 0 013.483-3.483h176.118a3.482 3.482 0 013.482 3.483z"/></svg>