<svg id="Layer_1" data-name="Layer 1" xmlns="http://www.w3.org/2000/svg" viewBox="0 0 1442.767 539.162"><defs><style>.cls-1{fill:#323031}.cls-2{fill:#809356}.cls-3{fill:#009247}.cls-4{fill:#f1f1f1}.cls-5{fill:#6d6f70}.cls-6{fill:#414141}.cls-7{fill:#59595c}.cls-23,.cls-8{fill:#221f1f}.cls-9{fill:#bc202e}.cls-10{fill:#2f3277}.cls-11{fill:#d5dd26}.cls-12{fill:#36b24a}.cls-23{font-family:Verdana}.cls-14{letter-spacing:.001em}.cls-15{letter-spacing:-.0001em}.cls-18{fill:#fff}.cls-23{font-size:5.8038px}.cls-20{letter-spacing:.001em}.cls-21{letter-spacing:-.0001em}.cls-22{letter-spacing:.0009em}.cls-28{fill:#4e4d50}.cls-30{fill:#630d0d}.cls-31{fill:#ea2127}.cls-32{fill:#e2dd6e}.cls-35,.cls-36,.cls-37,.cls-38,.cls-42,.cls-48,.cls-49,.cls-53{fill:none}.cls-35{stroke:#d5dd26}.cls-35,.cls-36,.cls-37,.cls-38,.cls-48,.cls-49,.cls-53{stroke-linecap:round;stroke-linejoin:round}.cls-35,.cls-36{stroke-width:1.5px}.cls-36{stroke:#36b24a}.cls-37,.cls-49,.cls-53{stroke:#ea2127}.cls-37,.cls-38{stroke-width:1.354px}.cls-38,.cls-48{stroke:#221f1f}.cls-39{fill:#ded7d4}.cls-40{fill:#dfd6c7}.cls-41{fill:#c2bbaf}.cls-42{stroke:#c2bbaf;stroke-width:1.067px;stroke-miterlimit:10}.cls-43{fill:#b2a696}.cls-44{fill:#7b756a}.cls-45{fill:#cfd1d2}.cls-46{fill:#808083}.cls-47{fill:#eae2d1}.cls-48,.cls-49{stroke-width:10.832px}.cls-50{fill:#836b31}.cls-51{fill:#b69349}.cls-52{fill:#917638}.cls-53{stroke-width:2.708px}.cls-55{fill:#aea3a1}.cls-57{fill:#958c8b}.cls-58{fill:#7b8288}</style></defs><path class="cls-1" d="M851.594 328.36H675.476a3.483 3.483 0 01-3.483-3.481v-87.215a3.484 3.484 0 013.483-3.483h176.118a3.482 3.482 0 013.482 3.483v87.215a3.481 3.481 0 01-3.482 3.482"/><path class="cls-1" d="M845.148 424.123H679.021a3.598 3.598 0 01-3.598-3.597V329.28a3.598 3.598 0 013.598-3.598h166.127a3.597 3.597 0 013.598 3.598v91.245a3.597 3.597 0 01-3.598 3.597"/><path class="cls-1" d="M677.586 420.613H848.43a3.483 3.483 0 013.482 3.482v27.675a3.482 3.482 0 01-3.482 3.483H677.586a3.481 3.481 0 01-3.48-3.483v-27.675a3.482 3.482 0 013.48-3.482"/><path class="cls-2" d="M747.154 336.038h36.167V308.99h-36.167a2.35 2.35 0 00-2.35 2.349v22.35a2.35 2.35 0 002.35 2.349"/><path class="cls-2" d="M745.06 289.556v36.127h27.973v-36.127a2.39 2.39 0 00-2.39-2.389H747.45a2.389 2.389 0 00-2.389 2.39"/><path class="cls-3" d="M760.501 309.762h9.458v16.818h-9.458z"/><path class="cls-1" d="M748.498 317.502h9.629v17.368h-9.629z"/><path class="cls-2" d="M757.564 390.224a4.651 4.651 0 01-4.651-4.65V341.76a.474.474 0 01.473-.474h8.357a.473.473 0 01.473.474v43.811a4.652 4.652 0 01-4.652 4.652M771.238 390.425a4.65 4.65 0 01-4.65-4.65v-43.813a.474.474 0 01.473-.474h8.356a.474.474 0 01.473.474v43.811a4.652 4.652 0 01-4.652 4.652M801.78 421.177l.008-89.565a1.164 1.164 0 011.164-1.165h9.209l-.007 92.361h-8.742a1.63 1.63 0 01-1.631-1.63M727.486 331.03l-.007 89.567a1.164 1.164 0 01-1.165 1.164h-9.21l.008-92.361h8.743a1.631 1.631 0 011.63 1.63"/><path class="cls-4" d="M808.86 318.122v-45.32a.825.825 0 01.825-.824h9.318v47.297h-8.99a1.153 1.153 0 01-1.152-1.153"/><path class="cls-2" d="M773.585 270.463h25.346v13.512h-25.346zM777.926 283.975h15.348v9.712h-15.348zM729.387 320.315h-5.569a1.964 1.964 0 01-1.964-1.964V249.6a1.964 1.964 0 011.964-1.964h5.57a1.964 1.964 0 011.963 1.964v68.75a1.964 1.964 0 01-1.964 1.965"/><path class="cls-2" d="M724.892 320.315h-13.925a1.908 1.908 0 01-1.908-1.908v-20.872a1.908 1.908 0 011.908-1.908h13.925a1.908 1.908 0 011.908 1.908v20.872a1.908 1.908 0 01-1.908 1.908"/><path class="cls-5" d="M773.586 243.393h25.286v25.589h-25.286z"/><path class="cls-6" d="M691.516 329.548h25.589v92.201h-25.589z"/><path class="cls-5" d="M812.164 330.532h25.589v92.201h-25.589zM820.272 271.862h25.589v47.529h-25.589z"/><path class="cls-6" d="M682.176 271.862h25.59v47.529h-25.59z"/><path class="cls-7" d="M684.214 273.409h18.767v10.703h-18.767z"/><path class="cls-4" d="M688.431 275.417h12.041v6.355h-12.041z"/><path class="cls-8" d="M694.034 278.761a4.223 4.223 0 11-4.223-4.223 4.223 4.223 0 014.223 4.223"/><path class="cls-7" d="M684.214 284.113h18.767v10.703h-18.767z"/><path class="cls-4" d="M688.431 286.12h12.041v6.355h-12.041z"/><path class="cls-8" d="M694.034 289.464a4.223 4.223 0 11-4.223-4.223 4.223 4.223 0 014.223 4.223"/><path class="cls-7" d="M684.214 294.816h18.767v10.704h-18.767z"/><path class="cls-4" d="M688.431 296.823h12.041v6.355h-12.041z"/><path class="cls-8" d="M694.034 300.168a4.223 4.223 0 11-4.223-4.223 4.224 4.224 0 014.223 4.223"/><path class="cls-7" d="M684.214 305.52h18.767v10.703h-18.767z"/><path class="cls-4" d="M688.431 307.527h12.041v6.354h-12.041z"/><path class="cls-8" d="M694.034 310.872a4.223 4.223 0 11-4.223-4.223 4.223 4.223 0 014.223 4.223"/><path class="cls-7" d="M826.363 306.649h18.767v10.703h-18.767z"/><path class="cls-4" d="M828.872 308.989h12.041v6.355h-12.041z"/><path class="cls-8" d="M835.31 312a4.223 4.223 0 114.223 4.224A4.223 4.223 0 01835.31 312"/><path class="cls-7" d="M826.363 295.945h18.767v10.704h-18.767z"/><path class="cls-4" d="M828.872 298.286h12.041v6.355h-12.041z"/><path class="cls-8" d="M835.31 301.296a4.223 4.223 0 114.223 4.225 4.223 4.223 0 01-4.223-4.225"/><path class="cls-7" d="M826.363 285.241h18.767v10.703h-18.767z"/><path class="cls-4" d="M828.872 287.583h12.041v6.354h-12.041z"/><path class="cls-8" d="M835.31 290.593a4.223 4.223 0 114.223 4.223 4.223 4.223 0 01-4.223-4.223"/><path class="cls-7" d="M826.363 274.538h18.767v10.703h-18.767z"/><path class="cls-4" d="M828.872 276.879h12.041v6.355h-12.041z"/><path class="cls-8" d="M835.31 279.89a4.223 4.223 0 114.223 4.223 4.223 4.223 0 01-4.223-4.223"/><path class="cls-7" d="M786.228 244.524h10.704v18.767h-10.704z"/><path class="cls-4" d="M788.57 248.74h6.355v12.041h-6.355z"/><path class="cls-8" d="M791.58 254.343a4.223 4.223 0 114.224-4.223 4.223 4.223 0 01-4.224 4.223"/><path class="cls-7" d="M775.525 244.524h10.703v18.767h-10.703z"/><path class="cls-4" d="M777.867 248.74h6.354v12.041h-6.354z"/><path class="cls-8" d="M780.876 254.343a4.223 4.223 0 114.223-4.223 4.223 4.223 0 01-4.223 4.223"/><path class="cls-7" d="M693.597 333.742h18.767v10.703h-18.767z"/><path class="cls-4" d="M697.814 335.749h12.042v6.354h-12.042z"/><path class="cls-8" d="M703.417 339.093a4.223 4.223 0 11-4.224-4.223 4.223 4.223 0 014.224 4.223"/><path class="cls-7" d="M693.597 344.445h18.767v10.703h-18.767z"/><path class="cls-4" d="M697.814 346.452h12.042v6.355h-12.042z"/><path class="cls-8" d="M703.417 349.796a4.223 4.223 0 11-4.224-4.222 4.223 4.223 0 014.224 4.222"/><path class="cls-7" d="M693.597 355.148h18.767v10.703h-18.767z"/><path class="cls-4" d="M697.814 357.155h12.042v6.355h-12.042z"/><path class="cls-8" d="M703.417 360.5a4.223 4.223 0 11-4.224-4.223 4.223 4.223 0 014.224 4.223"/><path class="cls-7" d="M693.597 365.851h18.767v10.704h-18.767z"/><path class="cls-4" d="M697.814 367.858h12.042v6.355h-12.042z"/><path class="cls-8" d="M703.417 371.204a4.223 4.223 0 11-4.224-4.224 4.223 4.223 0 014.224 4.224"/><path class="cls-7" d="M693.597 376.632h18.767v10.703h-18.767z"/><path class="cls-4" d="M697.814 378.639h12.042v6.355h-12.042z"/><path class="cls-8" d="M703.417 381.984a4.223 4.223 0 11-4.224-4.223 4.223 4.223 0 014.224 4.223"/><path class="cls-7" d="M693.597 387.335h18.767v10.703h-18.767z"/><path class="cls-4" d="M697.814 389.342h12.042v6.355h-12.042z"/><path class="cls-8" d="M703.417 392.687a4.223 4.223 0 11-4.224-4.223 4.223 4.223 0 014.224 4.223"/><path class="cls-7" d="M693.597 398.038h18.767v10.704h-18.767z"/><path class="cls-4" d="M697.814 400.046h12.042v6.355h-12.042z"/><path class="cls-8" d="M703.417 403.39a4.223 4.223 0 11-4.224-4.223 4.224 4.224 0 014.224 4.223"/><path class="cls-7" d="M693.597 408.743h18.767v10.703h-18.767z"/><path class="cls-4" d="M697.814 410.75h12.042v6.354h-12.042z"/><path class="cls-8" d="M703.417 414.094a4.223 4.223 0 11-4.224-4.223 4.223 4.223 0 014.224 4.223"/><path class="cls-7" d="M817.763 409.909h18.767v10.703h-18.767z"/><path class="cls-4" d="M820.272 412.251h12.041v6.354h-12.041z"/><path class="cls-8" d="M826.71 415.261a4.223 4.223 0 114.223 4.223 4.223 4.223 0 01-4.222-4.223"/><path class="cls-7" d="M817.763 399.206h18.767v10.703h-18.767z"/><path class="cls-4" d="M820.272 401.548h12.041v6.354h-12.041z"/><path class="cls-8" d="M826.71 404.558a4.223 4.223 0 114.223 4.223 4.223 4.223 0 01-4.222-4.223"/><path class="cls-7" d="M817.763 388.503h18.767v10.703h-18.767z"/><path class="cls-4" d="M820.272 390.844h12.041v6.355h-12.041z"/><path class="cls-8" d="M826.71 393.855a4.223 4.223 0 114.223 4.223 4.223 4.223 0 01-4.222-4.223"/><path class="cls-7" d="M817.763 377.8h18.767v10.703h-18.767z"/><path class="cls-4" d="M820.272 380.141h12.041v6.355h-12.041z"/><path class="cls-8" d="M826.71 383.152a4.223 4.223 0 114.223 4.223 4.224 4.224 0 01-4.222-4.223"/><path class="cls-7" d="M817.763 367.019h18.767v10.703h-18.767z"/><path class="cls-4" d="M820.272 369.361h12.041v6.354h-12.041z"/><path class="cls-8" d="M826.71 372.37a4.223 4.223 0 114.223 4.224 4.223 4.223 0 01-4.222-4.223"/><path class="cls-7" d="M817.763 356.316h18.767v10.703h-18.767z"/><path class="cls-4" d="M820.272 358.656h12.041v6.355h-12.041z"/><path class="cls-8" d="M826.71 361.668a4.223 4.223 0 114.223 4.223 4.223 4.223 0 01-4.222-4.223"/><path class="cls-7" d="M817.763 345.612h18.767v10.703h-18.767z"/><path class="cls-4" d="M820.272 347.953h12.041v6.355h-12.041z"/><path class="cls-8" d="M826.71 350.964a4.223 4.223 0 114.223 4.223 4.223 4.223 0 01-4.222-4.223"/><path class="cls-9" d="M718.651 334.056h8.149v10.389h-8.149z"/><path class="cls-7" d="M817.763 334.908h18.767v10.704h-18.767z"/><path class="cls-4" d="M820.272 337.25h12.041v6.355h-12.041z"/><path class="cls-8" d="M826.71 340.26a4.223 4.223 0 114.223 4.224 4.223 4.223 0 01-4.222-4.224M718.651 344.434h8.149v10.389h-8.149z"/><path class="cls-9" d="M718.651 354.823h8.149v10.388h-8.149z"/><path class="cls-8" d="M718.651 365.201h8.149v10.389h-8.149z"/><path class="cls-9" d="M718.651 375.58h8.149v10.389h-8.149z"/><path class="cls-8" d="M718.651 385.959h8.149v10.389h-8.149z"/><path class="cls-9" d="M718.651 396.348h8.149v10.388h-8.149z"/><path class="cls-8" d="M718.651 406.725h8.149v10.389h-8.149zM710.735 296.079h8.149v11.94h-8.149z"/><path class="cls-9" d="M802.322 407.696h8.149v10.388h-8.149z"/><path class="cls-8" d="M802.322 397.317h8.149v10.389h-8.149z"/><path class="cls-9" d="M802.322 386.928h8.149v10.389h-8.149z"/><path class="cls-8" d="M802.322 376.55h8.149v10.388h-8.149z"/><path class="cls-9" d="M802.322 366.171h8.149v10.389h-8.149z"/><path class="cls-8" d="M802.322 355.792h8.149v10.389h-8.149z"/><path class="cls-9" d="M802.322 345.404h8.149v10.388h-8.149z"/><path class="cls-8" d="M802.322 335.026h8.149v10.389h-8.149z"/><path class="cls-9" d="M710.735 307.911h8.149v11.951h-8.149z"/><path class="cls-10" d="M718.683 293.938h-6.399a1.548 1.548 0 01-1.549-1.549V250.29a1.548 1.548 0 011.549-1.549h6.4a1.549 1.549 0 011.548 1.549v42.099a1.549 1.549 0 01-1.549 1.549"/><path class="cls-8" d="M786.18 270.463h11.94v12.521h-11.94z"/><path class="cls-9" d="M774.336 270.463h11.951v12.521h-11.951z"/><path class="cls-11" d="M810.555 273.215h8.149v11.077h-8.149z"/><path class="cls-12" d="M810.555 284.282h8.149v11.077h-8.149z"/><path class="cls-11" d="M810.555 295.359h8.149v11.077h-8.149z"/><path class="cls-12" d="M810.555 306.425h8.149v11.077h-8.149z"/><path class="cls-4" d="M800.815 306.342V285.06a.78.78 0 01.778-.779h7.268v23.152h-6.956a1.09 1.09 0 01-1.09-1.09"/><path class="cls-2" d="M737.14 346.452h-9.655v-8.462h9.654a2.785 2.785 0 012.785 2.786v2.89a2.785 2.785 0 01-2.785 2.786M737.14 368.954h-9.655v-8.462h9.654a2.785 2.785 0 012.785 2.786v2.89a2.785 2.785 0 01-2.785 2.786M737.14 392.148h-9.655v-8.462h9.654a2.785 2.785 0 012.785 2.786v2.89a2.785 2.785 0 01-2.785 2.786M737.14 414.65h-9.655v-8.462h9.654a2.785 2.785 0 012.785 2.786v2.89a2.786 2.786 0 01-2.785 2.786M792.667 406.5h9.654v8.463h-9.654a2.786 2.786 0 01-2.785-2.786v-2.891a2.785 2.785 0 012.785-2.786M792.667 383.998h9.654v8.463h-9.654a2.785 2.785 0 01-2.785-2.787v-2.89a2.785 2.785 0 012.785-2.785M792.667 360.804h9.654v8.462h-9.654a2.785 2.785 0 01-2.785-2.786v-2.89a2.785 2.785 0 012.785-2.786M792.667 338.302h9.654v8.462h-9.654a2.785 2.785 0 01-2.785-2.786v-2.89a2.785 2.785 0 012.785-2.786"/><path class="cls-3" d="M782.284 357.222h-6.448a.435.435 0 01-.435-.435v-14.999a.434.434 0 01.435-.433h6.448a.434.434 0 01.435.433v15a.435.435 0 01-.435.434M752.913 357.155h-6.449a.434.434 0 01-.435-.434v-15a.434.434 0 01.436-.433h6.448a.434.434 0 01.435.434v14.999a.434.434 0 01-.435.434"/><path class="cls-2" d="M750.872 319.921h4.881v12.53h-4.881zM763.252 312.167h3.957v12.471h-3.957z"/><path class="cls-8" d="M794.465 336.038H783.32V308.99h11.145a1.338 1.338 0 011.338 1.337V334.7a1.338 1.338 0 01-1.338 1.337"/><text transform="translate(711.186 438.962)" font-family="Verdana" font-size="8.706" fill="#809356">Pn<tspan class="cls-14" x="10.759" y="0">e</tspan><tspan class="cls-15" x="15.954" y="0">umati</tspan><tspan class="cls-14" x="40.978" y="0">c</tspan><tspan x="45.523" y="0">s </tspan><tspan class="cls-14" x="53.119" y="0">Co</tspan><tspan x="64.499" y="0">nt</tspan><tspan x="73.438" y="0" letter-spacing="-.015em">r</tspan><tspan class="cls-14" x="77.023" y="0">o</tspan><tspan class="cls-15" x="82.315" y="0">l M</tspan><tspan class="cls-14" x="95.102" y="0">o</tspan><tspan x="100.394" y="0" letter-spacing="0em">dule</tspan></text><path class="cls-18" d="M833.13 249.38a6.434 6.434 0 117.042 5.763 6.434 6.434 0 01-7.042-5.763M679.185 248.275a6.435 6.435 0 117.042 5.764 6.436 6.436 0 01-7.042-5.764M679.185 441.91a6.435 6.435 0 117.042 5.764 6.435 6.435 0 01-7.042-5.763M835.342 441.91a6.434 6.434 0 117.042 5.764 6.434 6.434 0 01-7.042-5.763"/><text transform="rotate(90 230.73 482.89)" font-size="5.804" fill="#fff" font-family="Verdana"><tspan class="cls-20">P</tspan><tspan class="cls-21" x="3.506" y="0">R</tspan><tspan class="cls-20" x="7.541" y="0">E</tspan><tspan x="11.217" y="0">SS</tspan><tspan class="cls-22" x="19.152" y="0">U</tspan><tspan x="23.405" y="0">R</tspan><tspan class="cls-20" x="27.441" y="0">E</tspan><tspan class="cls-21" x="31.117" y="0"> SW</tspan></text><text class="cls-23" transform="rotate(90 235.387 528.655)"><tspan class="cls-22">12</tspan><tspan x="7.391" y="0">V</tspan></text><text class="cls-23" transform="rotate(90 233.23 491.043)">COM<tspan class="cls-22" x="13.512" y="0">P</tspan><tspan x="17.018" y="0">R</tspan><tspan class="cls-22" x="21.053" y="0">ES</tspan><tspan x="28.696" y="0">SOR</tspan><tspan class="cls-20" x="41.267" y="0"> </tspan><tspan x="43.313" y="0">O</tspan><tspan class="cls-22" x="47.882" y="0">UT</tspan></text><text class="cls-23" transform="rotate(90 229.232 522.5)"><tspan class="cls-22">24</tspan><tspan x="7.391" y="0">V</tspan></text><text class="cls-23" transform="rotate(90 231.91 545.968)">VS<tspan x="7.935" y="0" letter-spacing="-.03em">L</tspan><tspan x="10.991" y="0">OL</tspan></text><text class="cls-23" transform="rotate(90 199.667 556.72)">COMP</text><text class="cls-23" transform="rotate(90 207.81 561.978)">S<tspan x="3.967" y="0" letter-spacing="-.046em">T</tspan><tspan x="7.277" y="0" letter-spacing="-.06em">A</tspan><tspan x="10.896" y="0">T</tspan><tspan class="cls-20" x="14.472" y="0">U</tspan><tspan x="18.726" y="0" letter-spacing="0em">S</tspan></text><text class="cls-23" transform="rotate(180 394.822 143.196)">V<tspan class="cls-20" x="3.967" y="0">i</tspan><tspan x="5.566" y="0">n</tspan></text><text class="cls-23" transform="rotate(-90 554.647 -252.936)">CAN</text><text class="cls-23" transform="rotate(-90 571.376 -227.235)">7</text><text class="cls-23" transform="rotate(-90 582.717 -215.895)">6</text><text class="cls-23" transform="rotate(-90 594.333 -204.371)">5</text><text class="cls-23" transform="rotate(-90 605.67 -193.033)">4</text><text class="cls-23" transform="rotate(90 161.426 570.129)">3</text><text class="cls-23" transform="rotate(90 172.763 558.79)">2</text><text class="cls-23" transform="rotate(90 184.287 547.175)">1</text><text class="cls-23" transform="rotate(90 195.625 535.837)">0</text><path d="M674.971 464.632a4.052 4.052 0 011.761 1.608 4.717 4.717 0 01.598 2.407 4.767 4.767 0 01-.592 2.444 3.83 3.83 0 01-1.756 1.554 6.7 6.7 0 01-2.835.54h-3.946v6.273H666.9v-15.402h5.247a6.321 6.321 0 012.824.577zm.095 6.506a3.29 3.29 0 00.963-2.47 3.764 3.764 0 00-.412-1.772 3.014 3.014 0 00-1.285-1.259 4.57 4.57 0 00-2.185-.47h-3.946v6.907h3.946a4.04 4.04 0 002.92-.936zM687.66 468.805a4.582 4.582 0 01.936 3.195v7.458h-1.27V472a3.39 3.39 0 00-.687-2.4 2.675 2.675 0 00-2.01-.709 3.08 3.08 0 00-2.116.777 4.6 4.6 0 00-1.29 1.931v7.86h-1.269v-11.447h1.216l.043 1.936a4.555 4.555 0 011.575-1.576 4.149 4.149 0 012.158-.572 3.528 3.528 0 012.714 1.005zM692.458 473.81v.243a5.272 5.272 0 00.498 2.3 4.036 4.036 0 001.385 1.645 3.529 3.529 0 002.031.603 4.142 4.142 0 001.81-.376 3.833 3.833 0 001.395-1.19l.804.604a4.675 4.675 0 01-1.624 1.475 5.059 5.059 0 01-6.907-2.163 6.221 6.221 0 01-.661-2.898v-.455a6.613 6.613 0 01.671-3.036 5.093 5.093 0 011.799-2.041 4.448 4.448 0 012.438-.72 4.387 4.387 0 012.444.667 4.186 4.186 0 011.555 1.85 6.61 6.61 0 01.528 2.719v.772zm1.92-4.455a3.623 3.623 0 00-1.254 1.35 5.304 5.304 0 00-.613 2.026h6.844v-.138a4.749 4.749 0 00-.397-1.84 3.232 3.232 0 00-1.105-1.36 2.977 2.977 0 00-1.756-.513 3.201 3.201 0 00-1.719.475zM711.7 468.012v11.446h-1.216l-.032-1.45a4.087 4.087 0 01-3.64 1.662 3.65 3.65 0 01-2.77-1.042 4.646 4.646 0 01-.995-3.295v-7.32h1.27v7.34a3.471 3.471 0 00.724 2.465 2.543 2.543 0 001.92.751 3.861 3.861 0 002.29-.608 3.118 3.118 0 001.18-1.655v-8.293zM730.032 468.816a4.537 4.537 0 01.951 3.184v7.458h-1.258v-7.468a3.284 3.284 0 00-.714-2.401 2.79 2.79 0 00-2.036-.699 3.305 3.305 0 00-2.92 1.587 3.263 3.263 0 00-.476 1.407v7.574h-1.269v-7.574a3.077 3.077 0 00-.725-2.306 2.874 2.874 0 00-2.057-.688 3.036 3.036 0 00-2.153.762 4.296 4.296 0 00-1.18 1.936v7.87h-1.269v-11.446h1.227l.032 1.851a4.18 4.18 0 013.713-2.063 4.085 4.085 0 012.179.54 2.947 2.947 0 011.248 1.671 4.344 4.344 0 011.581-1.607 4.462 4.462 0 012.333-.604 3.647 3.647 0 012.793 1.016zM742.551 478.315a3.857 3.857 0 00.26 1.005v.138h-1.354a5.818 5.818 0 01-.254-1.598 4.704 4.704 0 01-1.614 1.307 4.918 4.918 0 01-2.258.503 4.278 4.278 0 01-1.936-.418 3.143 3.143 0 01-1.296-1.159 3.273 3.273 0 01.17-3.602 3.946 3.946 0 011.809-1.259 7.967 7.967 0 012.776-.438h2.338v-1.291a2.5 2.5 0 00-.767-1.94 3.118 3.118 0 00-2.184-.704 3.832 3.832 0 00-1.571.312 2.71 2.71 0 00-1.1.841 1.895 1.895 0 00-.397 1.164l-1.27-.01a2.752 2.752 0 01.562-1.635 3.974 3.974 0 011.565-1.253 5.222 5.222 0 012.264-.477 5.333 5.333 0 012.179.418 3.225 3.225 0 011.465 1.254 3.79 3.79 0 01.523 2.052v5.532a8.797 8.797 0 00.09 1.258zm-2.777-.396a3.631 3.631 0 001.418-1.624v-2.529h-2.168a7.062 7.062 0 00-2.217.308 3.106 3.106 0 00-1.417.878 2.021 2.021 0 00-.492 1.364 2.094 2.094 0 00.317 1.132 2.214 2.214 0 00.9.804 2.95 2.95 0 001.353.296 4.182 4.182 0 002.306-.63zM750.384 479.5a3.244 3.244 0 01-.597.122 6.091 6.091 0 01-.757.048 2.423 2.423 0 01-1.84-.688 3.308 3.308 0 01-.656-2.317v-7.616h-2.094v-1.036h2.094v-2.94h1.28v2.94h2.36v1.036h-2.36v7.616a2.13 2.13 0 00.397 1.497 1.464 1.464 0 001.084.397 6.236 6.236 0 001.037-.117zM754.261 464.088a.842.842 0 01.238.613.81.81 0 01-.238.598.864.864 0 01-.64.238.85.85 0 01-.63-.238.809.809 0 01-.237-.598.824.824 0 01.867-.857.855.855 0 01.64.244zm-1.274 15.37v-11.446h1.259v11.446zM766.347 475.914a3.61 3.61 0 01-.656 1.93 4.084 4.084 0 01-1.591 1.344 4.839 4.839 0 01-2.143.482 4.466 4.466 0 01-4.326-2.783 7.29 7.29 0 01-.56-2.93v-.445a7.301 7.301 0 01.56-2.924 4.458 4.458 0 014.305-2.788 4.836 4.836 0 012.211.498 3.885 3.885 0 011.565 1.422 4.299 4.299 0 01.635 2.143h-1.205a3.245 3.245 0 00-.482-1.582 2.893 2.893 0 00-1.142-1.036 3.425 3.425 0 00-1.582-.365 3.231 3.231 0 00-2.046.63 3.612 3.612 0 00-1.185 1.675 6.855 6.855 0 00-.376 2.327v.445a6.943 6.943 0 00.37 2.333 3.562 3.562 0 001.185 1.67 3.29 3.29 0 002.073.63 3.703 3.703 0 001.519-.312 2.855 2.855 0 001.152-.915 2.706 2.706 0 00.514-1.449zM770.489 473.449a3.279 3.279 0 01-1.317-1.005 2.502 2.502 0 01-.455-1.533 2.665 2.665 0 01.497-1.566 3.398 3.398 0 011.412-1.127 5.063 5.063 0 012.122-.418 5.371 5.371 0 012.258.44 3.373 3.373 0 011.465 1.216 3.148 3.148 0 01.507 1.762h-1.28a2.07 2.07 0 00-.349-1.143 2.472 2.472 0 00-1.02-.867 3.564 3.564 0 00-1.582-.328 3.726 3.726 0 00-1.56.286 2.093 2.093 0 00-.915.74 1.817 1.817 0 00-.058 1.894 2.098 2.098 0 00.904.698 9.722 9.722 0 001.914.603 10.46 10.46 0 012.291.766 3.31 3.31 0 011.296 1.069 2.699 2.699 0 01.423 1.539 2.777 2.777 0 01-.524 1.66 3.376 3.376 0 01-1.48 1.133 6.36 6.36 0 01-4.629-.069 3.651 3.651 0 01-1.544-1.259 2.99 2.99 0 01-.529-1.698h1.259a2.106 2.106 0 001.02 1.793 4.245 4.245 0 002.205.556 4.038 4.038 0 001.598-.286 2.382 2.382 0 001.01-.751 1.669 1.669 0 00.343-1.016 1.898 1.898 0 00-.655-1.428 5.212 5.212 0 00-2.412-.983 10.842 10.842 0 01-2.215-.678zM794.714 478.352a5.683 5.683 0 01-3.962 1.318 5.39 5.39 0 01-3.046-.868 5.663 5.663 0 01-2.031-2.444 8.674 8.674 0 01-.72-3.638v-1.925a8.664 8.664 0 01.72-3.645 5.434 5.434 0 015.162-3.305 6.285 6.285 0 012.824.592 4.57 4.57 0 011.894 1.719 6.269 6.269 0 01.857 2.713h-1.302q-.497-3.914-4.274-3.914a4.163 4.163 0 00-2.443.724 4.565 4.565 0 00-1.587 2.037 7.855 7.855 0 00-.55 3.057v1.947a8.133 8.133 0 00.53 3.03 4.617 4.617 0 001.544 2.073 3.975 3.975 0 002.422.746 4.35 4.35 0 003.057-.967 4.679 4.679 0 001.301-2.947h1.302a5.54 5.54 0 01-1.698 3.697zM799.225 470.594a4.92 4.92 0 011.793-2.053 5.217 5.217 0 015.358 0 4.905 4.905 0 011.798 2.052 6.74 6.74 0 01.635 2.973v.338a6.74 6.74 0 01-.635 2.973 4.923 4.923 0 01-1.787 2.051 4.84 4.84 0 01-2.676.742 4.807 4.807 0 01-4.486-2.793 6.742 6.742 0 01-.635-2.973v-.338a6.742 6.742 0 01.635-2.972zm1.085 5.659a3.942 3.942 0 001.322 1.703 3.44 3.44 0 002.079.635 3.4 3.4 0 002.062-.635 3.965 3.965 0 001.317-1.703 5.993 5.993 0 00.45-2.349v-.338a5.885 5.885 0 00-.455-2.327 4.058 4.058 0 00-1.327-1.714 3.627 3.627 0 00-4.131 0 4.029 4.029 0 00-1.317 1.714 5.934 5.934 0 00-.45 2.327v.338a5.993 5.993 0 00.45 2.349zM819.128 468.805a4.582 4.582 0 01.936 3.195v7.458h-1.27V472a3.39 3.39 0 00-.687-2.4 2.675 2.675 0 00-2.01-.709 3.08 3.08 0 00-2.116.777 4.6 4.6 0 00-1.29 1.931v7.86h-1.27v-11.447h1.217l.043 1.936a4.555 4.555 0 011.575-1.576 4.149 4.149 0 012.158-.572 3.528 3.528 0 012.714 1.005zM827.903 479.5a3.246 3.246 0 01-.598.122 6.092 6.092 0 01-.756.048 2.423 2.423 0 01-1.84-.688 3.308 3.308 0 01-.656-2.317v-7.616h-2.095v-1.036h2.094v-2.94h1.28v2.94h2.36v1.036h-2.36v7.616a2.13 2.13 0 00.397 1.497 1.465 1.465 0 001.084.397 6.236 6.236 0 001.037-.117zM835.636 469.08a5.681 5.681 0 00-.846-.073 3.033 3.033 0 00-2.042.687 3.687 3.687 0 00-1.132 1.872v7.892h-1.269v-11.446h1.237l.032 1.798a3.7 3.7 0 011.285-1.48 3.451 3.451 0 011.931-.53 3.134 3.134 0 01.465.038 1.888 1.888 0 01.381.09zM837.614 470.594a4.92 4.92 0 011.793-2.053 5.218 5.218 0 015.358 0 4.905 4.905 0 011.798 2.052 6.74 6.74 0 01.635 2.973v.338a6.74 6.74 0 01-.634 2.973 4.923 4.923 0 01-1.788 2.051 4.841 4.841 0 01-2.676.742 4.807 4.807 0 01-4.486-2.793 6.74 6.74 0 01-.635-2.973v-.338a6.74 6.74 0 01.635-2.972zm1.085 5.659a3.943 3.943 0 001.322 1.703 3.44 3.44 0 002.079.635 3.399 3.399 0 002.062-.635 3.964 3.964 0 001.317-1.703 5.993 5.993 0 00.45-2.349v-.338a5.883 5.883 0 00-.455-2.327 4.058 4.058 0 00-1.327-1.714 3.627 3.627 0 00-4.131 0 4.028 4.028 0 00-1.317 1.714 5.932 5.932 0 00-.45 2.327v.338a5.991 5.991 0 00.45 2.349zM849.97 479.458V463.21h1.259v16.248zM710.212 505.455h-1.301v-6.739l.116-6.843-5.744 13.582h-1.005l-5.712-13.54.116 6.801v6.739h-1.3v-15.402h1.713l5.691 13.583 5.691-13.583h1.735zM713.766 496.59a4.922 4.922 0 011.793-2.052 5.218 5.218 0 015.357 0 4.907 4.907 0 011.799 2.053 6.742 6.742 0 01.635 2.972v.338a6.743 6.743 0 01-.635 2.973 4.924 4.924 0 01-1.788 2.051 4.841 4.841 0 01-2.676.742 4.807 4.807 0 01-4.485-2.793 6.743 6.743 0 01-.635-2.973v-.338a6.742 6.742 0 01.635-2.972zm1.084 5.66a3.943 3.943 0 001.322 1.703 3.44 3.44 0 002.079.635 3.399 3.399 0 002.062-.635 3.965 3.965 0 001.317-1.703 5.993 5.993 0 00.45-2.349v-.337a5.885 5.885 0 00-.455-2.328 4.058 4.058 0 00-1.327-1.713 3.627 3.627 0 00-4.131 0 4.029 4.029 0 00-1.317 1.713 5.934 5.934 0 00-.45 2.328v.337a5.993 5.993 0 00.45 2.349zM734.7 489.207v16.248h-1.184l-.064-1.534a3.967 3.967 0 01-1.475 1.29 4.578 4.578 0 01-2.1.456 3.791 3.791 0 01-2.317-.736 4.688 4.688 0 01-1.534-2.057 7.96 7.96 0 01-.54-3.026v-.221a8.176 8.176 0 01.534-3.084 4.5 4.5 0 011.534-2.031 3.927 3.927 0 012.343-.714 4.34 4.34 0 012.069.47 4.04 4.04 0 011.464 1.338v-6.4zm-2.544 14.803a3.704 3.704 0 001.275-1.506v-5.395a3.95 3.95 0 00-1.216-1.597 3.295 3.295 0 00-2.074-.614 2.904 2.904 0 00-1.883.614 3.62 3.62 0 00-1.132 1.676 7.406 7.406 0 00-.37 2.439v.221a7.41 7.41 0 00.37 2.433 3.615 3.615 0 001.122 1.677 2.873 2.873 0 001.872.608 3.542 3.542 0 002.036-.555zM746.654 494.01v11.445h-1.216l-.032-1.449a4.087 4.087 0 01-3.64 1.661 3.65 3.65 0 01-2.77-1.042 4.645 4.645 0 01-.995-3.295v-7.32h1.27v7.34a3.471 3.471 0 00.724 2.465 2.544 2.544 0 001.92.75 3.86 3.86 0 002.29-.608 3.117 3.117 0 001.18-1.655v-8.292zM750.103 505.455v-16.248h1.258v16.248zM755.402 499.806v.244a5.273 5.273 0 00.498 2.3 4.035 4.035 0 001.386 1.645 3.528 3.528 0 002.03.603 4.142 4.142 0 001.81-.376 3.833 3.833 0 001.396-1.19l.804.604a4.676 4.676 0 01-1.624 1.475 5.059 5.059 0 01-6.907-2.163 6.22 6.22 0 01-.662-2.898v-.455a6.615 6.615 0 01.672-3.037 5.094 5.094 0 011.798-2.04 4.447 4.447 0 012.439-.72 4.386 4.386 0 012.443.666 4.187 4.187 0 011.555 1.851 6.61 6.61 0 01.529 2.719v.772zm1.92-4.454a3.623 3.623 0 00-1.253 1.35 5.306 5.306 0 00-.613 2.026h6.843v-.138a4.747 4.747 0 00-.396-1.84 3.233 3.233 0 00-1.106-1.36 2.977 2.977 0 00-1.755-.513 3.202 3.202 0 00-1.72.475zM771.884 494.342a14.19 14.19 0 011.814-3.876 7.687 7.687 0 012.259-2.286l.306.869a6.805 6.805 0 00-1.85 2.152 13.754 13.754 0 00-1.424 3.554 17.445 17.445 0 00-.545 4.437v.212a17.485 17.485 0 00.545 4.448 13.936 13.936 0 001.423 3.565 7.185 7.185 0 001.851 2.195l-.306.815a7.671 7.671 0 01-2.264-2.253 13.761 13.761 0 01-1.81-3.846 16.576 16.576 0 01-.708-4.945v-.159a16.355 16.355 0 01.709-4.882zM786.63 490.63a4.052 4.052 0 011.76 1.607 4.718 4.718 0 01.598 2.408 4.767 4.767 0 01-.592 2.443 3.83 3.83 0 01-1.756 1.555 6.7 6.7 0 01-2.835.54h-3.946v6.272h-1.3v-15.402h5.246a6.32 6.32 0 012.824.577zm.095 6.506a3.29 3.29 0 00.962-2.47 3.764 3.764 0 00-.412-1.772 3.014 3.014 0 00-1.285-1.26 4.568 4.568 0 00-2.185-.47h-3.946v6.907h3.946a4.04 4.04 0 002.92-.936zM801.117 504.35a5.683 5.683 0 01-3.962 1.317 5.39 5.39 0 01-3.047-.868 5.663 5.663 0 01-2.03-2.444 8.674 8.674 0 01-.72-3.638v-1.925a8.664 8.664 0 01.72-3.645 5.434 5.434 0 015.162-3.305 6.285 6.285 0 012.824.592 4.569 4.569 0 011.894 1.72 6.268 6.268 0 01.857 2.712h-1.302q-.497-3.914-4.273-3.914a4.163 4.163 0 00-2.444.725 4.565 4.565 0 00-1.586 2.037 7.854 7.854 0 00-.55 3.056v1.947a8.136 8.136 0 00.528 3.03 4.617 4.617 0 001.545 2.073 3.974 3.974 0 002.422.746 4.35 4.35 0 003.057-.968 4.678 4.678 0 001.302-2.946h1.3a5.539 5.539 0 01-1.697 3.697zM820.818 505.455h-1.3v-6.739l.115-6.843-5.743 13.582h-1.005l-5.713-13.54.117 6.801v6.739h-1.301v-15.402h1.713l5.692 13.583 5.69-13.583h1.735zM827.504 504.328a13.773 13.773 0 01-1.81 3.846 7.67 7.67 0 01-2.263 2.253l-.306-.815a6.928 6.928 0 001.85-2.174 13.93 13.93 0 001.424-3.575 17.613 17.613 0 00.544-4.459v-.212a17.222 17.222 0 00-.555-4.437 14.137 14.137 0 00-1.439-3.58 7.213 7.213 0 00-1.824-2.18l.306-.815a7.693 7.693 0 012.259 2.285 14.188 14.188 0 011.814 3.877 16.368 16.368 0 01.708 4.882v.158a16.59 16.59 0 01-.708 4.946z"/><path class="cls-6" d="M687.294-454.95V51.386a19.124 19.124 0 01-19.123 19.124H386.995a19.125 19.125 0 01-19.124-19.124V-454.95a19.124 19.124 0 0119.124-19.123h281.176a19.124 19.124 0 0119.123 19.123"/><path class="cls-28" d="M458.11-375.386h138.947V41.855H458.11z"/><path fill="#a6a7aa" d="M618.672 39.939h67.805v5.173h-67.805z"/><path class="cls-8" d="M618.672 17.713h68.291v22.226h-68.291z"/><path class="cls-6" d="M664.48 28.728a8.46 8.46 0 118.461 8.461 8.46 8.46 0 01-8.461-8.461"/><path class="cls-9" d="M618.672-4.513h68.291v22.226h-68.291z"/><path class="cls-30" d="M664.48 6.502a8.46 8.46 0 118.461 8.462 8.46 8.46 0 01-8.461-8.462"/><path class="cls-8" d="M368.238-1.958h68.291v22.226h-68.291z"/><path class="cls-6" d="M390.721 6.698a8.46 8.46 0 11-8.46-8.46 8.46 8.46 0 018.46 8.46"/><path class="cls-9" d="M368.238 17.713h68.291v22.226h-68.291z"/><path class="cls-30" d="M390.721 28.923a8.46 8.46 0 11-8.46-8.46 8.46 8.46 0 018.46 8.46"/><path class="cls-28" d="M440.418-133.595h174.827v176.12H440.418z"/><path class="cls-2" d="M440.418 26.366h98.066v16.158h-98.066z"/><path class="cls-10" d="M538.484 26.366h76.761v16.158h-76.761z"/><path class="cls-7" d="M489.006 38.946h12.408v21.756h-12.408z"/><path class="cls-4" d="M491.333 41.855h7.367v13.959h-7.367z"/><path class="cls-8" d="M495.21 49.319a4.896 4.896 0 11-4.897 4.896 4.896 4.896 0 014.896-4.896"/><path class="cls-7" d="M501.308 38.946h12.408v21.756h-12.408z"/><path class="cls-4" d="M503.634 41.855h7.367v13.959h-7.367z"/><path class="cls-8" d="M507.512 49.319a4.896 4.896 0 11-4.896 4.896 4.897 4.897 0 014.896-4.896"/><path class="cls-7" d="M538.484 38.946h12.408v21.756h-12.408z"/><path class="cls-4" d="M540.811 41.855h7.367v13.959h-7.367z"/><path class="cls-8" d="M544.688 49.319a4.896 4.896 0 11-4.896 4.896 4.896 4.896 0 014.896-4.896"/><path class="cls-7" d="M550.787 38.946h12.408v21.756h-12.408z"/><path class="cls-4" d="M553.113 41.855h7.367v13.959h-7.367z"/><path class="cls-8" d="M556.99 49.319a4.896 4.896 0 11-4.895 4.896 4.897 4.897 0 014.896-4.896"/><path class="cls-7" d="M513.717 38.946h12.408v21.756h-12.408z"/><path class="cls-4" d="M516.043 41.855h7.367v13.959h-7.367z"/><path class="cls-8" d="M519.92 49.319a4.896 4.896 0 11-4.896 4.896 4.897 4.897 0 014.896-4.896"/><path class="cls-7" d="M526.018 38.946h12.408v21.756h-12.408z"/><path class="cls-4" d="M528.345 41.855h7.367v13.959h-7.367z"/><path class="cls-8" d="M532.222 49.319a4.896 4.896 0 11-4.896 4.896 4.896 4.896 0 014.896-4.896"/><path class="cls-31" d="M488.844 33.422h12.408v5.524h-12.408z"/><path class="cls-8" d="M525.964 33.422h12.408v5.524h-12.408z"/><path class="cls-31" d="M513.554 33.422h12.409v5.524h-12.409z"/><path class="cls-8" d="M501.146 33.422h12.408v5.524h-12.408zM550.784 33.422h12.408v5.524h-12.408z"/><path class="cls-31" d="M538.376 33.422h12.408v5.524h-12.408z"/><path class="cls-32" d="M441.052 36.185h12.408v5.523h-12.408z"/><path class="cls-31" d="M488.844 33.422h12.408v5.524h-12.408zM601.598 36.185h12.408v5.523h-12.408z"/><path class="cls-32" d="M423.254 47.957h30.206v12.514h-30.206z"/><text transform="translate(433.547 57.8)" font-size="10.548" font-family="Verdana" fill="#221f1f">20</text><path class="cls-31" d="M600.141 47.957h30.206v12.514h-30.206z"/><text transform="translate(610.434 57.8)" font-size="10.548" fill="#fff" font-family="Verdana">10</text><path class="cls-2" d="M519.44 23.489h-26.984a3.63 3.63 0 01-3.631-3.63V11.61a3.63 3.63 0 013.631-3.63h26.984a3.63 3.63 0 013.63 3.63v8.25a3.63 3.63 0 01-3.63 3.63M532.391 23.436h27.537a3.662 3.662 0 003.663-3.662V11.59a3.662 3.662 0 00-3.663-3.663h-27.537a3.664 3.664 0 00-3.663 3.663v8.184a3.663 3.663 0 003.663 3.662"/><path class="cls-6" d="M465.17 13.561h14.349v5.217H465.17zM488.824 13.561h14.349v5.217h-14.349zM549.583 14.359h14.349v5.217h-14.349zM573.237 14.359h14.349v5.217h-14.349z"/><path d="M1170.837 352.89a3.741 3.741 0 011.458 1.537 4.85 4.85 0 01.523 2.29v.886a4.845 4.845 0 01-.523 2.294 3.726 3.726 0 01-1.467 1.534 4.295 4.295 0 01-2.175.542h-2.632v-9.626h2.691a4.16 4.16 0 012.125.542zm1.174 3.814a4.295 4.295 0 00-.41-1.927 3.037 3.037 0 00-1.156-1.283 3.278 3.278 0 00-1.732-.452h-1.878v8.244h1.818a3.352 3.352 0 001.778-.463 3.062 3.062 0 001.17-1.296 4.303 4.303 0 00.41-1.924zM1174.668 356.433a3.077 3.077 0 011.122-1.283 3.03 3.03 0 011.669-.463 3.002 3.002 0 012.803 1.746 4.22 4.22 0 01.397 1.858v.212a4.22 4.22 0 01-.397 1.857 3.088 3.088 0 01-1.117 1.283 3.034 3.034 0 01-1.673.462 2.999 2.999 0 01-2.804-1.745 4.206 4.206 0 01-.396-1.857v-.212a4.207 4.207 0 01.397-1.858zm.678 3.537a2.47 2.47 0 00.826 1.065 2.156 2.156 0 001.3.396 2.128 2.128 0 001.29-.396 2.48 2.48 0 00.823-1.065 3.744 3.744 0 00.28-1.467v-.212a3.676 3.676 0 00-.285-1.454 2.535 2.535 0 00-.829-1.072 2.268 2.268 0 00-2.582 0 2.522 2.522 0 00-.823 1.072 3.708 3.708 0 00-.281 1.454v.212a3.744 3.744 0 00.281 1.467zM1187.687 354.82v7.153h-.76l-.02-.905a2.555 2.555 0 01-2.275 1.037 2.284 2.284 0 01-1.733-.65 2.906 2.906 0 01-.62-2.06v-4.575h.792v4.588a2.174 2.174 0 00.453 1.541 1.592 1.592 0 001.2.469 2.415 2.415 0 001.432-.38 1.944 1.944 0 00.736-1.035v-5.183zM1194.242 355.134a2.768 2.768 0 01.942 1.266 5.242 5.242 0 01.324 1.93v.14a5.152 5.152 0 01-.324 1.894 2.857 2.857 0 01-.942 1.282 2.383 2.383 0 01-1.464.46 2.886 2.886 0 01-1.333-.29 2.487 2.487 0 01-.929-.828l-.039.985h-.741v-10.155h.794v4.033a2.506 2.506 0 01.922-.863 2.733 2.733 0 011.312-.3 2.46 2.46 0 011.478.446zm.466 3.197a3.936 3.936 0 00-.519-2.143 1.743 1.743 0 00-1.577-.812 2.036 2.036 0 00-1.322.406 2.521 2.521 0 00-.76 1.055v3.232a2.343 2.343 0 00.793.979 2.195 2.195 0 001.302.37 1.784 1.784 0 001.163-.38 2.209 2.209 0 00.695-1.045 4.727 4.727 0 00.224-1.524zM1197.346 361.973v-10.155h.786v10.155zM1200.659 358.443v.152a3.293 3.293 0 00.31 1.438 2.53 2.53 0 00.866 1.028 2.208 2.208 0 001.27.377 2.574 2.574 0 001.13-.235 2.403 2.403 0 00.874-.743l.502.377a2.917 2.917 0 01-1.015.921 3.163 3.163 0 01-4.317-1.351 3.894 3.894 0 01-.414-1.812v-.285a4.143 4.143 0 01.42-1.897 3.183 3.183 0 011.124-1.276 2.78 2.78 0 011.525-.45 2.742 2.742 0 011.526.417 2.613 2.613 0 01.973 1.157 4.137 4.137 0 01.33 1.7v.482zm1.199-2.783a2.263 2.263 0 00-.783.843 3.323 3.323 0 00-.383 1.265h4.277v-.086a2.966 2.966 0 00-.248-1.15 2.01 2.01 0 00-.691-.85 1.857 1.857 0 00-1.097-.32 2 2 0 00-1.075.298zM1142.68 380.787a4.595 4.595 0 01-1.682-1.375 3.312 3.312 0 01-.592-1.994 3.424 3.424 0 01.656-2.073 4.286 4.286 0 011.835-1.402 6.785 6.785 0 012.681-.503 6.07 6.07 0 012.778.609 4.527 4.527 0 011.85 1.655 4.342 4.342 0 01.65 2.338h-1.3a3.432 3.432 0 00-.476-1.798 3.255 3.255 0 00-1.376-1.243 4.7 4.7 0 00-2.126-.45 5.231 5.231 0 00-2.1.38 3.026 3.026 0 00-1.317 1.022 2.457 2.457 0 00-.445 1.433 2.33 2.33 0 00.392 1.338 3.498 3.498 0 001.29 1.052 11.896 11.896 0 002.444.889 13.7 13.7 0 012.835 1.058 4.668 4.668 0 011.698 1.449 3.579 3.579 0 01.587 2.073 3.484 3.484 0 01-.677 2.138 4.27 4.27 0 01-1.883 1.395 7.272 7.272 0 01-2.74.488 7.76 7.76 0 01-2.77-.498 4.95 4.95 0 01-2.148-1.534 3.978 3.978 0 01-.836-2.58h1.311a3.09 3.09 0 00.64 2.014 3.622 3.622 0 001.65 1.142 6.46 6.46 0 002.154.355 5.664 5.664 0 002.1-.36 3.137 3.137 0 001.396-1.02 2.477 2.477 0 00.491-1.519 2.618 2.618 0 00-.39-1.464 3.356 3.356 0 00-1.296-1.069 13.75 13.75 0 00-2.524-.925 15.095 15.095 0 01-2.76-1.021zM1153.407 380.19a4.914 4.914 0 011.793-2.053 5.217 5.217 0 015.357 0 4.904 4.904 0 011.798 2.052 6.728 6.728 0 01.635 2.973v.338a6.728 6.728 0 01-.635 2.973 4.919 4.919 0 01-1.787 2.051 4.84 4.84 0 01-2.677.742 4.805 4.805 0 01-4.484-2.793 6.727 6.727 0 01-.635-2.973v-.338a6.727 6.727 0 01.635-2.973zm1.084 5.658a3.947 3.947 0 001.322 1.704 3.44 3.44 0 002.078.634 3.404 3.404 0 002.064-.634 3.964 3.964 0 001.316-1.704 5.993 5.993 0 00.45-2.348v-.338a5.883 5.883 0 00-.455-2.327 4.055 4.055 0 00-1.328-1.714 3.627 3.627 0 00-4.131 0 4.032 4.032 0 00-1.316 1.714 5.934 5.934 0 00-.45 2.327v.338a5.993 5.993 0 00.45 2.348zM1165.761 389.053v-16.248h1.259v16.248zM1171.062 383.405v.243a5.266 5.266 0 00.497 2.301 4.036 4.036 0 001.386 1.644 3.529 3.529 0 002.031.604 4.143 4.143 0 001.809-.376 3.834 3.834 0 001.396-1.19l.804.604a4.667 4.667 0 01-1.624 1.475 5.059 5.059 0 01-6.907-2.163 6.215 6.215 0 01-.661-2.898v-.456a6.607 6.607 0 01.671-3.036 5.089 5.089 0 011.798-2.04 4.447 4.447 0 012.439-.72 4.387 4.387 0 012.443.666 4.186 4.186 0 011.555 1.85 6.61 6.61 0 01.53 2.72v.772zm1.92-4.454a3.62 3.62 0 00-1.254 1.35 5.312 5.312 0 00-.613 2.025h6.844v-.137a4.74 4.74 0 00-.397-1.841 3.232 3.232 0 00-1.105-1.36 2.977 2.977 0 00-1.756-.512 3.199 3.199 0 00-1.719.475zM1189.399 378.401a4.581 4.581 0 01.936 3.194v7.458h-1.27v-7.458a3.393 3.393 0 00-.687-2.4 2.676 2.676 0 00-2.01-.708 3.08 3.08 0 00-2.116.777 4.6 4.6 0 00-1.29 1.93v7.86h-1.27v-11.446h1.216l.043 1.936a4.56 4.56 0 011.577-1.576 4.144 4.144 0 012.157-.572 3.527 3.527 0 012.714 1.005zM1193.573 380.19a4.914 4.914 0 011.793-2.053 5.217 5.217 0 015.357 0 4.904 4.904 0 011.798 2.052 6.728 6.728 0 01.635 2.973v.338a6.728 6.728 0 01-.635 2.973 4.918 4.918 0 01-1.787 2.051 4.84 4.84 0 01-2.677.742 4.805 4.805 0 01-4.484-2.793 6.727 6.727 0 01-.635-2.973v-.338a6.727 6.727 0 01.635-2.973zm1.084 5.658a3.946 3.946 0 001.322 1.704 3.44 3.44 0 002.078.634 3.404 3.404 0 002.064-.634 3.963 3.963 0 001.316-1.704 5.993 5.993 0 00.45-2.348v-.338a5.885 5.885 0 00-.455-2.327 4.056 4.056 0 00-1.328-1.714 3.627 3.627 0 00-4.131 0 4.03 4.03 0 00-1.316 1.714 5.934 5.934 0 00-.45 2.327v.338a5.993 5.993 0 00.45 2.348zM1207.203 373.683a.843.843 0 01.237.614.81.81 0 01-.237.597.865.865 0 01-.641.238.848.848 0 01-.629-.238.807.807 0 01-.238-.597.825.825 0 01.867-.857.856.856 0 01.64.243zm-1.276 15.37v-11.445h1.26v11.445zM1219.373 372.805v16.248h-1.185l-.064-1.534a3.967 3.967 0 01-1.475 1.291 4.58 4.58 0 01-2.1.455 3.788 3.788 0 01-2.316-.735 4.68 4.68 0 01-1.535-2.058 7.96 7.96 0 01-.539-3.025v-.222a8.165 8.165 0 01.534-3.084 4.494 4.494 0 011.534-2.03 3.93 3.93 0 012.343-.715 4.338 4.338 0 012.068.47 4.033 4.033 0 011.465 1.339v-6.4zm-2.544 14.804a3.7 3.7 0 001.274-1.507v-5.394a3.945 3.945 0 00-1.216-1.598 3.296 3.296 0 00-2.073-.613 2.903 2.903 0 00-1.883.613 3.614 3.614 0 00-1.132 1.677 7.395 7.395 0 00-.37 2.438v.222a7.4 7.4 0 00.37 2.433 3.609 3.609 0 001.121 1.676 2.874 2.874 0 001.872.609 3.542 3.542 0 002.037-.556zM1224.297 383.045a3.277 3.277 0 01-1.316-1.005 2.499 2.499 0 01-.455-1.533 2.661 2.661 0 01.497-1.566 3.392 3.392 0 011.412-1.127 5.066 5.066 0 012.121-.418 5.367 5.367 0 012.258.44 3.377 3.377 0 011.466 1.215 3.156 3.156 0 01.508 1.762h-1.28a2.063 2.063 0 00-.35-1.142 2.464 2.464 0 00-1.02-.868 3.566 3.566 0 00-1.582-.328 3.728 3.728 0 00-1.56.286 2.096 2.096 0 00-.915.74 1.815 1.815 0 00-.058 1.894 2.094 2.094 0 00.904.698 9.715 9.715 0 001.914.603 10.438 10.438 0 012.29.766 3.306 3.306 0 011.296 1.069 2.695 2.695 0 01.424 1.539 2.775 2.775 0 01-.524 1.661 3.374 3.374 0 01-1.481 1.132 6.36 6.36 0 01-4.628-.069 3.656 3.656 0 01-1.545-1.258 2.99 2.99 0 01-.528-1.699h1.259a2.107 2.107 0 001.02 1.793 4.245 4.245 0 002.206.556 4.039 4.039 0 001.596-.286 2.387 2.387 0 001.011-.751 1.675 1.675 0 00.344-1.016 1.899 1.899 0 00-.656-1.427 5.215 5.215 0 00-2.412-.984 10.856 10.856 0 01-2.216-.677zM1169.803 402.842a2.874 2.874 0 01-1.052-.859 2.069 2.069 0 01-.37-1.246 2.142 2.142 0 01.41-1.296 2.675 2.675 0 011.147-.876 4.248 4.248 0 011.676-.314 3.788 3.788 0 011.736.38 2.82 2.82 0 011.156 1.035 2.71 2.71 0 01.408 1.46h-.814a2.141 2.141 0 00-.298-1.122 2.03 2.03 0 00-.86-.778 2.934 2.934 0 00-1.328-.281 3.275 3.275 0 00-1.312.238 1.885 1.885 0 00-.823.638 1.533 1.533 0 00-.278.896 1.452 1.452 0 00.245.836 2.18 2.18 0 00.806.659 7.455 7.455 0 001.528.554 8.623 8.623 0 011.771.661 2.916 2.916 0 011.062.907 2.239 2.239 0 01.366 1.296 2.173 2.173 0 01-.423 1.335 2.665 2.665 0 01-1.177.873 4.533 4.533 0 01-1.712.303 4.847 4.847 0 01-1.732-.31 3.09 3.09 0 01-1.342-.958 2.487 2.487 0 01-.522-1.613h.82a1.932 1.932 0 00.4 1.259 2.264 2.264 0 001.03.715 4.038 4.038 0 001.346.22 3.517 3.517 0 001.312-.224 1.953 1.953 0 00.873-.638 1.547 1.547 0 00.307-.95 1.634 1.634 0 00-.245-.914 2.093 2.093 0 00-.81-.668 8.517 8.517 0 00-1.577-.578 9.408 9.408 0 01-1.724-.64zM1177.435 398.403a.525.525 0 01.15.384.504.504 0 01-.15.373.538.538 0 01-.4.15.532.532 0 01-.393-.15.507.507 0 01-.148-.373.558.558 0 01.941-.384zm-.796 9.606v-7.153h.786v7.154zM1184.41 401.352a2.863 2.863 0 01.586 1.996v4.662h-.793v-4.661a2.124 2.124 0 00-.43-1.501 1.675 1.675 0 00-1.257-.442 1.929 1.929 0 00-1.322.485 2.88 2.88 0 00-.806 1.207v4.912h-.794v-7.153h.76l.027 1.21a2.848 2.848 0 01.984-.986 2.592 2.592 0 011.35-.357 2.203 2.203 0 011.696.628zM1192.5 400.856v7.028a3.379 3.379 0 01-.354 1.593 2.446 2.446 0 01-1.001 1.032 3.087 3.087 0 01-1.515.357 3.286 3.286 0 01-1.391-.317 2.725 2.725 0 01-1.1-.907l.443-.482a2.838 2.838 0 00.919.78 2.367 2.367 0 001.084.25 2.027 2.027 0 001.567-.6 2.384 2.384 0 00.555-1.68v-.834a2.516 2.516 0 01-.926.787 2.856 2.856 0 01-1.296.278 2.377 2.377 0 01-1.454-.46 2.911 2.911 0 01-.955-1.285 5.012 5.012 0 01-.334-1.891v-.139a5.167 5.167 0 01.33-1.927 2.803 2.803 0 01.952-1.27 2.466 2.466 0 011.475-.447 2.71 2.71 0 011.308.301 2.516 2.516 0 01.92.863l.032-1.03zm-1.58 6.244a2.298 2.298 0 00.787-.968v-3.306a2.413 2.413 0 00-.75-1.022 2.053 2.053 0 00-1.306-.392 1.813 1.813 0 00-1.177.383 2.267 2.267 0 00-.708 1.047 4.627 4.627 0 00-.231 1.525v.139a4.63 4.63 0 00.231 1.52 2.256 2.256 0 00.701 1.047 1.796 1.796 0 001.17.38 2.195 2.195 0 001.283-.353zM1194.668 408.01v-10.156h.787v10.156zM1197.981 404.48v.152a3.295 3.295 0 00.31 1.437 2.532 2.532 0 00.867 1.028 2.208 2.208 0 001.27.377 2.574 2.574 0 001.13-.235 2.405 2.405 0 00.873-.743l.502.377a2.919 2.919 0 01-1.015.922 3.163 3.163 0 01-4.317-1.352 3.894 3.894 0 01-.413-1.811v-.286a4.142 4.142 0 01.42-1.897 3.182 3.182 0 011.124-1.275 2.78 2.78 0 011.524-.45 2.742 2.742 0 011.526.417 2.611 2.611 0 01.973 1.157 4.138 4.138 0 01.33 1.699v.482zm1.2-2.784a2.263 2.263 0 00-.784.843 3.32 3.32 0 00-.383 1.265h4.277v-.085a2.967 2.967 0 00-.248-1.15 2.012 2.012 0 00-.69-.85 1.857 1.857 0 00-1.098-.32 2 2 0 00-1.075.297zM448.906 87.455v-6.94l-2.09.779V80.7l2.62-.979h.105v7.733zM456.956 84.239a1.852 1.852 0 01.397 1.174 2.07 2.07 0 01-.32 1.167 2.007 2.007 0 01-.876.732 3.304 3.304 0 01-2.512 0 2.007 2.007 0 01-.875-.732 2.07 2.07 0 01-.32-1.167 1.88 1.88 0 01.392-1.177 2.184 2.184 0 011.052-.737 1.978 1.978 0 01-.91-.696 1.8 1.8 0 01-.333-1.07 2.105 2.105 0 01.288-1.122 1.866 1.866 0 01.796-.717 2.85 2.85 0 012.317 0 1.894 1.894 0 01.806.717 2.081 2.081 0 01.294 1.121 1.76 1.76 0 01-.342 1.068 2.068 2.068 0 01-.917.699 2.253 2.253 0 011.063.74zm-1.108 2.595a1.459 1.459 0 00.64-.553 1.592 1.592 0 00.23-.868 1.551 1.551 0 00-.238-.854 1.602 1.602 0 00-.653-.579 2.214 2.214 0 00-1.87 0 1.557 1.557 0 00-.642.576 1.735 1.735 0 000 1.727 1.46 1.46 0 00.64.55 2.484 2.484 0 001.893 0zm-2.362-4.31a1.384 1.384 0 00.575.525 1.98 1.98 0 001.673 0 1.398 1.398 0 00.58-.525 1.528 1.528 0 00-.59-2.137 1.727 1.727 0 00-.83-.199 1.805 1.805 0 00-.833.188 1.385 1.385 0 00-.575.537 1.584 1.584 0 00-.206.82 1.501 1.501 0 00.206.79zM465.694 85.297h-3.501l-.794 2.158h-.676l2.908-7.7h.62l2.914 7.7h-.677zm-.206-.555l-1.545-4.195-1.544 4.195zM476.759 79.754l-1.968 7.7h-.624l-1.75-6.024-.19-.766-.196.766-1.782 6.025h-.625l-1.972-7.7h.666l1.407 5.622.243 1.195.291-1.148 1.672-5.67h.587l1.645 5.67.29 1.153.25-1.206 1.39-5.617zM483.077 87a3.025 3.025 0 01-.883.397 4.585 4.585 0 01-1.299.164 3.004 3.004 0 01-1.605-.431 2.903 2.903 0 01-1.092-1.23 4.171 4.171 0 01-.391-1.856v-.937a4.316 4.316 0 01.362-1.833 2.741 2.741 0 011.037-1.203 2.925 2.925 0 011.589-.423 3.202 3.202 0 011.423.291 2.29 2.29 0 01.928.804 2.762 2.762 0 01.42 1.18h-.65a1.928 1.928 0 00-2.122-1.72 2.179 2.179 0 00-1.264.36 2.236 2.236 0 00-.796 1.01 3.924 3.924 0 00-.272 1.524v.947a3.78 3.78 0 00.301 1.56 2.384 2.384 0 00.855 1.04 2.26 2.26 0 001.282.367 3.92 3.92 0 00.96-.105 2.702 2.702 0 00.677-.257 1.359 1.359 0 00.389-.31V84.35h-2.068v-.556h2.713v2.74a2.02 2.02 0 01-.494.466z"/><path class="cls-35" d="M839.533 301.296l66.929.168V-48.677"/><path class="cls-36" d="M839.533 311.964l69.794.203v-358.35"/><path d="M859.932 330.529v-.492l2.523-2.856a8.04 8.04 0 00.997-1.33 2.108 2.108 0 00.288-1.007 1.75 1.75 0 00-.188-.828 1.318 1.318 0 00-.55-.555 1.976 1.976 0 00-1.79.031 1.564 1.564 0 00-.603.635 1.966 1.966 0 00-.212.923h-.634a2.417 2.417 0 01.288-1.172 2.143 2.143 0 01.825-.843 2.456 2.456 0 011.256-.313 2.696 2.696 0 011.193.247 1.786 1.786 0 01.777.71 2.15 2.15 0 01.273 1.106 2.546 2.546 0 01-.402 1.307 10.235 10.235 0 01-1.11 1.475l-2.153 2.423h4.052v.539zM870.293 327.313a1.852 1.852 0 01.397 1.174 2.07 2.07 0 01-.32 1.167 2.009 2.009 0 01-.875.732 3.305 3.305 0 01-2.513 0 2.008 2.008 0 01-.875-.732 2.07 2.07 0 01-.32-1.167 1.88 1.88 0 01.392-1.177 2.184 2.184 0 011.052-.737 1.978 1.978 0 01-.91-.695 1.801 1.801 0 01-.333-1.072 2.102 2.102 0 01.288-1.12 1.864 1.864 0 01.796-.717 2.85 2.85 0 012.317 0 1.892 1.892 0 01.807.716 2.078 2.078 0 01.293 1.121 1.76 1.76 0 01-.341 1.069 2.068 2.068 0 01-.918.698 2.254 2.254 0 011.063.74zm-1.107 2.595a1.458 1.458 0 00.64-.553 1.592 1.592 0 00.23-.868 1.551 1.551 0 00-.238-.854 1.602 1.602 0 00-.653-.579 2.214 2.214 0 00-1.87 0 1.557 1.557 0 00-.643.577 1.735 1.735 0 000 1.726 1.46 1.46 0 00.64.55 2.484 2.484 0 001.894 0zm-2.362-4.31a1.384 1.384 0 00.574.525 1.98 1.98 0 001.674 0 1.397 1.397 0 00.579-.525 1.527 1.527 0 00-.59-2.137 1.723 1.723 0 00-.83-.199 1.805 1.805 0 00-.833.188 1.383 1.383 0 00-.574.537 1.588 1.588 0 00-.206.82 1.5 1.5 0 00.206.79zM879.032 328.37h-3.502l-.793 2.159h-.677l2.909-7.701h.619l2.914 7.701h-.677zm-.207-.554l-1.544-4.194-1.544 4.194zM890.096 322.828l-1.967 7.701h-.624l-1.751-6.024-.19-.767-.195.767-1.783 6.024h-.624l-1.973-7.701h.667l1.406 5.623.244 1.195.29-1.148 1.672-5.67h.587l1.645 5.67.291 1.153.248-1.206 1.392-5.617zM896.414 330.074a3.027 3.027 0 01-.883.396 4.585 4.585 0 01-1.299.165 3.004 3.004 0 01-1.605-.431 2.903 2.903 0 01-1.092-1.23 4.171 4.171 0 01-.391-1.856v-.937a4.316 4.316 0 01.362-1.833 2.745 2.745 0 011.036-1.203 2.925 2.925 0 011.59-.423 3.196 3.196 0 011.423.291 2.287 2.287 0 01.928.804 2.76 2.76 0 01.42 1.18h-.65a1.927 1.927 0 00-2.122-1.719 2.175 2.175 0 00-1.264.36 2.236 2.236 0 00-.796 1.01 3.927 3.927 0 00-.272 1.523v.947a3.78 3.78 0 00.301 1.56 2.384 2.384 0 00.855 1.04 2.26 2.26 0 001.282.368 3.92 3.92 0 00.96-.106 2.702 2.702 0 00.677-.257 1.356 1.356 0 00.389-.31v-1.988h-2.068v-.556h2.713v2.74a2.022 2.022 0 01-.494.465z"/><path class="cls-37" d="M830.569 394.702l59.704-.299v62.4h145.604"/><path class="cls-38" d="M830.569 383.999l62.474.167v61.577l142.834.171M832.313 340.26l154.381.168v-70.361h49.547"/><path class="cls-37" d="M830.933 351.131l158.715-.533v-69.471h46.593"/><path class="cls-38" d="M830.933 361.834s179.394.934 179.394-.167v-20.311l368.903-.07v-61.372h-47.424"/><path class="cls-37" d="M830.933 372.371h181.979v-27.887l369.272-.383v-74.034h-50.378"/><path class="cls-39" d="M1209.872 415.622h7.857v60.24h-7.857z"/><path class="cls-40" d="M1259.744 496.701h-26.676l-4.936-22.119h-88.182l-4.935 22.119h-26.675v-79.797h151.404v79.797z"/><path class="cls-39" d="M1152.178 415.793h7.857v60.239h-7.857z"/><path class="cls-41" d="M1165.995 428.89h37.918a1.92 1.92 0 011.92 1.92v30.207a1.92 1.92 0 01-1.92 1.92h-37.919a1.92 1.92 0 01-1.92-1.92V430.81a1.92 1.92 0 011.92-1.921"/><path class="cls-42" d="M1224.859 474.582v-57.678M1142.793 474.582v-57.678"/><path class="cls-40" d="M1167.398 430.15h35.11a1.778 1.778 0 011.78 1.778v27.97a1.779 1.779 0 01-1.78 1.78h-35.11a1.779 1.779 0 01-1.778-1.78v-27.97a1.778 1.778 0 011.778-1.778"/><path class="cls-43" d="M1064.388 418.194h45.982v27.72h-45.982z"/><path class="cls-44" d="M1068.796 427.943h-4.409v9.008h4.41a3.24 3.24 0 003.24-3.241v-2.526a3.24 3.24 0 00-3.24-3.241"/><path class="cls-45" d="M1056.535 437.546h7.853v65.914h-7.853a3.017 3.017 0 01-3.018-3.017v-59.88a3.017 3.017 0 013.018-3.017"/><path class="cls-45" d="M1035.876 440.596h17.832v20.231h-17.832z"/><path class="cls-46" d="M1108.437 503.46h-42.115a1.933 1.933 0 01-1.934-1.932v-53.681a1.933 1.933 0 011.934-1.933h42.115a1.933 1.933 0 011.933 1.933v53.68a1.933 1.933 0 01-1.933 1.934"/><path class="cls-47" d="M1080.643 454.116a1.493 1.493 0 10-1.493 1.474 1.484 1.484 0 001.493-1.474M1096.062 454.116a1.492 1.492 0 10-1.492 1.474 1.483 1.483 0 001.492-1.474"/><path class="cls-39" d="M1210.236 239.947h7.857v60.239h-7.857z"/><path class="cls-40" d="M1260.108 321.025h-26.676l-4.935-22.119h-88.182l-4.936 22.119h-26.675v-79.797h151.404v79.797z"/><path class="cls-39" d="M1152.542 240.117h7.857v60.239h-7.857z"/><path class="cls-41" d="M1166.358 253.213h37.919a1.922 1.922 0 011.92 1.921v30.208a1.922 1.922 0 01-1.92 1.92h-37.92a1.92 1.92 0 01-1.92-1.92v-30.208a1.92 1.92 0 011.92-1.92"/><path class="cls-42" d="M1225.222 298.906v-57.678M1143.158 298.906v-57.678"/><path class="cls-40" d="M1167.762 254.474h35.111a1.779 1.779 0 011.779 1.778v27.971a1.779 1.779 0 01-1.779 1.778h-35.11a1.778 1.778 0 01-1.779-1.778v-27.97a1.778 1.778 0 011.778-1.779"/><path class="cls-43" d="M1258.071 242.519h45.397v27.719h-45.397z"/><path class="cls-44" d="M1299.137 252.268h4.331v9.007h-4.33a3.221 3.221 0 01-3.222-3.22v-2.567a3.22 3.22 0 013.221-3.22"/><path class="cls-45" d="M1311.203 261.87h-7.736v65.916h7.735a2.998 2.998 0 002.999-2.998v-59.92a2.998 2.998 0 00-2.998-2.997"/><path class="cls-45" d="M1314.201 264.922h17.605v20.23h-17.605z"/><path class="cls-46" d="M1259.992 327.786h41.556a1.92 1.92 0 001.92-1.921v-53.706a1.92 1.92 0 00-1.92-1.921h-41.556a1.92 1.92 0 00-1.921 1.92v53.707a1.92 1.92 0 001.92 1.92"/><path class="cls-47" d="M1287.609 278.44a1.473 1.473 0 111.473 1.474 1.473 1.473 0 01-1.473-1.474M1272.385 278.44a1.473 1.473 0 111.473 1.474 1.473 1.473 0 01-1.473-1.474"/><path class="cls-43" d="M1064.752 242.519h45.982v27.719h-45.982z"/><path class="cls-44" d="M1069.16 252.268h-4.408v9.007h4.408a3.24 3.24 0 003.24-3.24v-2.527a3.24 3.24 0 00-3.24-3.24"/><path class="cls-45" d="M1056.899 261.87h7.854v65.916h-7.854a3.018 3.018 0 01-3.018-3.018v-59.88a3.018 3.018 0 013.018-3.017"/><path class="cls-45" d="M1036.241 264.922h17.832v20.23h-17.832z"/><path class="cls-46" d="M1108.8 327.786h-42.114a1.933 1.933 0 01-1.934-1.934V272.17a1.933 1.933 0 011.934-1.933h42.114a1.933 1.933 0 011.934 1.933v53.68a1.934 1.934 0 01-1.934 1.935"/><path class="cls-47" d="M1081.006 278.44a1.492 1.492 0 10-1.492 1.474 1.483 1.483 0 001.492-1.474M1096.426 278.44a1.492 1.492 0 10-1.492 1.474 1.483 1.483 0 001.492-1.474"/><path class="cls-48" d="M507.93 55.361l-.418 139.471h284.235l.403 55.289"/><path class="cls-49" d="M495.016 54.214v153.543h286.027v41.323"/><path class="cls-35" d="M889.372-43.078v322.969h-49.839"/><path class="cls-36" d="M892.326-42.433v333.026l-52.793.167"/><path class="cls-50" transform="rotate(-30.001 436.439 253.072)" d="M433.696 251.76h5.484v2.625h-5.484z"/><path class="cls-51" d="M438.497 255.585h2.741v12.74h-2.741z"/><path class="cls-50" d="M440.274 253.973l-2.741-4.749.573-.33a.65.65 0 01.889.237l2.09 3.622a.65.65 0 01-.238.888z"/><path class="cls-51" d="M482.095 255.66l2.531 1.371 5.157-8.382-2.53-1.371-5.158 8.382z"/><path class="cls-8" d="M427.933 268.81a242.114 242.114 0 0167.517 0l-28.383 12.041z"/><path class="cls-51" d="M440.404 332.456h43.434v45.155h-43.434z"/><path class="cls-50" d="M498.89 328.586l-15.052 3.87v45.155l15.052-4.086v-44.939zM425.138 328.586l15.267 3.87v45.155l-15.267-4.086v-44.939z"/><path class="cls-52" d="M425.138 328.586l29.242-12.004 44.51 12.004-15.052 3.87H439.83l-14.692-3.87zM445.994 377.61h31.394v24.727h-31.394z"/><path class="cls-1" d="M495.45 328.586a222.087 222.087 0 01-67.517 0V268.81a379.368 379.368 0 0067.517 0z"/><path class="cls-51" transform="rotate(-30.007 437.63 252.154)" d="M436.26 247.315h2.741v9.679h-2.741z"/><path class="cls-50" d="M483.981 252.837l5.061 2.742 1.399-2.273-5.062-2.742-1.398 2.273z"/><path class="cls-51" d="M482.095 255.585h2.922v12.74h-2.922z"/><path class="cls-50" d="M483.123 253.973l2.922-4.749-.611-.33a.719.719 0 00-.947.237l-2.23 3.622a.628.628 0 00.255.888z"/><path d="M394.792 416.452a4.051 4.051 0 011.761 1.607 4.718 4.718 0 01.598 2.407 4.767 4.767 0 01-.592 2.444 3.831 3.831 0 01-1.756 1.555 6.701 6.701 0 01-2.835.54h-3.946v6.272h-1.3v-15.401h5.246a6.32 6.32 0 012.824.576zm.095 6.506a3.29 3.29 0 00.963-2.471 3.764 3.764 0 00-.413-1.771 3.014 3.014 0 00-1.285-1.26 4.568 4.568 0 00-2.184-.47h-3.946v6.907h3.946a4.04 4.04 0 002.92-.935zM405.065 420.9a5.68 5.68 0 00-.847-.074 3.033 3.033 0 00-2.042.687 3.686 3.686 0 00-1.131 1.872v7.892h-1.27v-11.445h1.238l.032 1.798a3.7 3.7 0 011.285-1.48 3.451 3.451 0 011.93-.53 3.12 3.12 0 01.466.037 1.89 1.89 0 01.38.09zM407.666 425.629v.243a5.272 5.272 0 00.498 2.3 4.035 4.035 0 001.386 1.645 3.528 3.528 0 002.03.604 4.142 4.142 0 001.81-.376 3.832 3.832 0 001.396-1.19l.804.603a4.676 4.676 0 01-1.624 1.476 5.059 5.059 0 01-6.907-2.163 6.221 6.221 0 01-.662-2.899v-.455a6.613 6.613 0 01.672-3.036 5.093 5.093 0 011.798-2.04 4.447 4.447 0 012.439-.72 4.386 4.386 0 012.443.666 4.187 4.187 0 011.555 1.85 6.61 6.61 0 01.529 2.72v.772zm1.92-4.455a3.623 3.623 0 00-1.253 1.35 5.307 5.307 0 00-.613 2.026h6.844v-.138a4.75 4.75 0 00-.397-1.84 3.232 3.232 0 00-1.105-1.36 2.977 2.977 0 00-1.756-.513 3.202 3.202 0 00-1.72.476zM419.879 425.268a3.28 3.28 0 01-1.317-1.005 2.502 2.502 0 01-.455-1.533 2.665 2.665 0 01.497-1.565 3.399 3.399 0 011.413-1.127 5.063 5.063 0 012.12-.418 5.371 5.371 0 012.259.44 3.374 3.374 0 011.465 1.215 3.149 3.149 0 01.508 1.762h-1.28a2.07 2.07 0 00-.35-1.143 2.471 2.471 0 00-1.02-.867 3.563 3.563 0 00-1.582-.328 3.728 3.728 0 00-1.56.286 2.094 2.094 0 00-.915.74 1.817 1.817 0 00-.058 1.894 2.098 2.098 0 00.905.698 9.722 9.722 0 001.914.602 10.453 10.453 0 012.29.767 3.309 3.309 0 011.296 1.068 2.699 2.699 0 01.423 1.54 2.777 2.777 0 01-.523 1.66 3.376 3.376 0 01-1.481 1.132 6.361 6.361 0 01-4.628-.068 3.652 3.652 0 01-1.545-1.259 2.991 2.991 0 01-.529-1.698h1.26a2.106 2.106 0 001.02 1.793 4.244 4.244 0 002.205.556 4.039 4.039 0 001.597-.286 2.384 2.384 0 001.01-.751 1.669 1.669 0 00.344-1.016 1.898 1.898 0 00-.656-1.428 5.213 5.213 0 00-2.412-.983 10.842 10.842 0 01-2.215-.678zM430.88 425.268a3.279 3.279 0 01-1.317-1.005 2.502 2.502 0 01-.454-1.533 2.664 2.664 0 01.497-1.565 3.397 3.397 0 011.412-1.127 5.063 5.063 0 012.12-.418 5.371 5.371 0 012.26.44 3.373 3.373 0 011.464 1.215 3.148 3.148 0 01.508 1.762h-1.28a2.069 2.069 0 00-.35-1.143 2.47 2.47 0 00-1.02-.867 3.563 3.563 0 00-1.581-.328 3.728 3.728 0 00-1.561.286 2.093 2.093 0 00-.915.74 1.817 1.817 0 00-.058 1.894 2.098 2.098 0 00.904.698 9.72 9.72 0 001.915.602 10.454 10.454 0 012.29.767 3.31 3.31 0 011.296 1.068 2.699 2.699 0 01.423 1.54 2.777 2.777 0 01-.524 1.66 3.375 3.375 0 01-1.48 1.132 6.36 6.36 0 01-4.628-.068 3.651 3.651 0 01-1.545-1.259 2.99 2.99 0 01-.529-1.698h1.26a2.106 2.106 0 001.02 1.793 4.245 4.245 0 002.205.556 4.04 4.04 0 001.597-.286 2.384 2.384 0 001.01-.751 1.669 1.669 0 00.344-1.016 1.899 1.899 0 00-.656-1.428 5.212 5.212 0 00-2.412-.983 10.842 10.842 0 01-2.215-.678zM448.912 419.832v11.445h-1.217l-.031-1.45a4.087 4.087 0 01-3.64 1.662 3.65 3.65 0 01-2.771-1.042 4.645 4.645 0 01-.994-3.295v-7.32h1.27v7.34a3.471 3.471 0 00.724 2.466 2.543 2.543 0 001.92.75 3.86 3.86 0 002.29-.608 3.117 3.117 0 001.18-1.655v-8.293zM457.49 420.9a5.68 5.68 0 00-.846-.074 3.033 3.033 0 00-2.041.687 3.687 3.687 0 00-1.132 1.872v7.892h-1.27v-11.445h1.238l.032 1.798a3.7 3.7 0 011.285-1.48 3.45 3.45 0 011.93-.53 3.12 3.12 0 01.466.037 1.89 1.89 0 01.38.09zM460.093 425.629v.243a5.272 5.272 0 00.497 2.3 4.034 4.034 0 001.386 1.645 3.528 3.528 0 002.03.604 4.141 4.141 0 001.81-.376 3.831 3.831 0 001.396-1.19l.804.603a4.675 4.675 0 01-1.624 1.476 5.059 5.059 0 01-6.907-2.163 6.221 6.221 0 01-.661-2.899v-.455a6.615 6.615 0 01.671-3.036 5.093 5.093 0 011.798-2.04 4.447 4.447 0 012.439-.72 4.386 4.386 0 012.443.666 4.187 4.187 0 011.555 1.85 6.611 6.611 0 01.53 2.72v.772zm1.92-4.455a3.623 3.623 0 00-1.254 1.35 5.307 5.307 0 00-.613 2.026h6.844v-.138a4.75 4.75 0 00-.397-1.84 3.233 3.233 0 00-1.105-1.36 2.978 2.978 0 00-1.756-.513 3.202 3.202 0 00-1.72.476zM478.076 423.01a4.6 4.6 0 01-1.681-1.375 3.315 3.315 0 01-.593-1.994 3.423 3.423 0 01.656-2.073 4.283 4.283 0 011.835-1.401 6.787 6.787 0 012.682-.503 6.067 6.067 0 012.776.608 4.526 4.526 0 011.852 1.656 4.342 4.342 0 01.65 2.337h-1.3a3.423 3.423 0 00-.477-1.797 3.255 3.255 0 00-1.375-1.244 4.702 4.702 0 00-2.126-.45 5.233 5.233 0 00-2.1.381 3.018 3.018 0 00-1.317 1.022 2.453 2.453 0 00-.445 1.432 2.326 2.326 0 00.392 1.34 3.494 3.494 0 001.29 1.051 11.894 11.894 0 002.444.889 13.716 13.716 0 012.835 1.057 4.678 4.678 0 011.698 1.45 3.582 3.582 0 01.587 2.073 3.484 3.484 0 01-.677 2.137 4.272 4.272 0 01-1.883 1.396 7.276 7.276 0 01-2.74.487 7.76 7.76 0 01-2.771-.497 4.957 4.957 0 01-2.148-1.534 3.982 3.982 0 01-.836-2.581h1.312a3.09 3.09 0 00.64 2.015 3.622 3.622 0 001.65 1.142 6.455 6.455 0 002.153.355 5.668 5.668 0 002.1-.36 3.133 3.133 0 001.397-1.02 2.48 2.48 0 00.491-1.518 2.619 2.619 0 00-.391-1.465 3.344 3.344 0 00-1.296-1.068 13.716 13.716 0 00-2.523-.926 15.095 15.095 0 01-2.76-1.022zM502.797 419.832l-3.332 11.445h-1.079l-2.95-9.087-.128-.624-.148.635-2.888 9.076h-1.08l-3.32-11.445h1.3l2.434 8.811.18.973.253-1.025 2.75-8.76h1.09l2.708 8.685.307 1.196.232-1.1 2.36-8.78zM506.632 415.907a.842.842 0 01.238.613.809.809 0 01-.238.598.863.863 0 01-.64.238.85.85 0 01-.63-.238.809.809 0 01-.237-.598.824.824 0 01.867-.856.855.855 0 01.64.243zm-1.275 15.37v-11.445h1.26v11.445zM514.635 431.32a3.247 3.247 0 01-.598.121 6.092 6.092 0 01-.756.048 2.423 2.423 0 01-1.84-.687 3.308 3.308 0 01-.656-2.318v-7.616h-2.095v-1.036h2.094v-2.94h1.28v2.94h2.36v1.036h-2.36v7.616a2.13 2.13 0 00.397 1.497 1.465 1.465 0 001.084.397 6.237 6.237 0 001.037-.116zM525.71 427.733a3.61 3.61 0 01-.655 1.93 4.083 4.083 0 01-1.592 1.344 4.838 4.838 0 01-2.142.482 4.466 4.466 0 01-4.327-2.782 7.29 7.29 0 01-.56-2.93v-.445a7.3 7.3 0 01.56-2.925 4.458 4.458 0 014.305-2.787 4.837 4.837 0 012.211.497 3.886 3.886 0 011.566 1.423 4.299 4.299 0 01.634 2.142h-1.205a3.246 3.246 0 00-.481-1.582 2.894 2.894 0 00-1.143-1.036 3.425 3.425 0 00-1.582-.365 3.231 3.231 0 00-2.046.63 3.613 3.613 0 00-1.185 1.676 6.855 6.855 0 00-.376 2.327v.444a6.94 6.94 0 00.37 2.333 3.561 3.561 0 001.186 1.671 3.29 3.29 0 002.073.63 3.703 3.703 0 001.518-.312 2.856 2.856 0 001.153-.915 2.706 2.706 0 00.513-1.45zM535.977 420.625a4.582 4.582 0 01.936 3.194v7.458h-1.27v-7.458a3.39 3.39 0 00-.687-2.4 2.674 2.674 0 00-2.01-.709 3.08 3.08 0 00-2.116.777 4.6 4.6 0 00-1.29 1.931v7.86h-1.269v-16.249h1.269v6.717a4.542 4.542 0 011.576-1.56 4.151 4.151 0 012.148-.566 3.528 3.528 0 012.713 1.005z"/><path class="cls-53" d="M689.811 278.761l-60.961-.167v-48.22H436.439v18.432"/><path class="cls-53" d="M689.811 289.464l-64.562-.167v-55.116H486.044v15.043"/><path stroke-width="3" stroke-miterlimit="10" stroke="#221f1f" fill="none" d="M12.563 88.659l1.27 435.361h1414.674l1.27-344.611-1089.995-1.27v-89.48H12.563z"/><path d="M41.365 133.23h-1.877a.448.448 0 01-.506-.508v-18.14a.448.448 0 01.506-.506h7.09a4.216 4.216 0 014.617 4.617v3.098a4.236 4.236 0 01-4.617 4.617h-4.35q-.357 0-.357.298v6.016a.448.448 0 01-.506.507zm.834-9.384h3.962q2.114 0 2.114-2.205v-2.829q0-2.204-2.114-2.205h-3.962q-.328 0-.328.298v6.644q0 .297.328.297zM57.093 133.23h-1.847a.448.448 0 01-.507-.508v-18.14a.448.448 0 01.507-.506h1.668a.68.68 0 01.655.327l7.209 12.958h.119v-12.78a.447.447 0 01.506-.505h1.847a.448.448 0 01.507.506v18.14a.448.448 0 01-.507.507h-1.608a.888.888 0 01-.775-.476l-7.149-12.809H57.6v12.778a.448.448 0 01-.506.507zM82.174 133.23h-9.532a.448.448 0 01-.507-.508v-18.14a.448.448 0 01.507-.506h9.532q.476 0 .476.506v1.52c0 .337-.159.505-.476.505h-6.792q-.357 0-.357.298v5.034c0 .2.12.298.357.298h5.75q.535 0 .535.507v1.52c0 .338-.178.506-.536.506h-5.749q-.357 0-.357.298v5.302c0 .219.12.327.357.327h6.792q.476 0 .476.507v1.518q0 .507-.476.507zM96.442 114.076h1.877q.536 0 .536.477v14.06a4.557 4.557 0 01-1.236 3.395 4.641 4.641 0 01-3.411 1.222h-3.307a4.236 4.236 0 01-4.617-4.617v-14.03a.447.447 0 01.507-.506h1.877a.448.448 0 01.506.506v13.91a1.922 1.922 0 002.144 2.205h2.443a1.935 1.935 0 002.175-2.204v-13.912a.447.447 0 01.506-.506zM116.162 114.076h3.336a.448.448 0 01.506.506v18.14a.448.448 0 01-.506.507h-1.847a.448.448 0 01-.506-.507V117.68h-.12l-3.872 10.902a.656.656 0 01-.655.477h-1.907a.638.638 0 01-.625-.477l-3.962-10.932h-.12v15.072a.41.41 0 01-.506.507h-1.817a.448.448 0 01-.506-.507v-18.14a.448.448 0 01.506-.506h3.336a.497.497 0 01.477.327l4.081 11.498h.149l4.11-11.498a.391.391 0 01.448-.327zM125.396 133.23h-2.145q-.417 0-.298-.508l5.183-18.14a.668.668 0 01.715-.506h2.98a.642.642 0 01.714.506l5.183 18.14q.119.507-.328.507h-2.115a.517.517 0 01-.372-.104.804.804 0 01-.164-.403l-1.132-3.872h-6.553l-1.132 3.872q-.12.507-.536.507zm4.885-16.295l-2.621 9.532h5.391l-2.651-9.532zM145.949 133.23h-1.877q-.536 0-.536-.508v-15.817a.264.264 0 00-.298-.298h-3.753c-.358 0-.536-.168-.536-.506v-1.52q0-.505.536-.505h11.051q.536 0 .536.506v1.52c0 .337-.178.505-.536.505h-3.753q-.328 0-.328.298v15.817a.448.448 0 01-.506.507zM156.702 114.582v18.14a.448.448 0 01-.506.507h-1.877a.448.448 0 01-.506-.507v-18.14a.448.448 0 01.506-.506h1.877a.448.448 0 01.506.506zM169.004 133.23h-3.455a4.217 4.217 0 01-4.617-4.618v-9.919a4.198 4.198 0 014.617-4.617h3.455a4.216 4.216 0 014.618 4.617v1.43a.474.474 0 01-.537.536h-1.877q-.506 0-.506-.536v-1.31a1.923 1.923 0 00-2.144-2.206h-2.592a1.923 1.923 0 00-2.145 2.206v9.68a1.922 1.922 0 002.145 2.204h2.592a1.922 1.922 0 002.144-2.204v-1.31q0-.536.506-.536h1.877a.474.474 0 01.537.536v1.43a4.235 4.235 0 01-4.618 4.617zM176.957 128.583v-.776a.447.447 0 01.506-.506h1.907a.448.448 0 01.506.506v.537a2.475 2.475 0 00.551 1.802 2.527 2.527 0 001.832.551h2.056a2.494 2.494 0 001.847-.581 2.64 2.64 0 00.566-1.89v-.686a1.782 1.782 0 00-.73-1.504 3.926 3.926 0 00-1.803-.715q-1.072-.164-2.353-.462a20.608 20.608 0 01-2.353-.685 3.681 3.681 0 01-1.803-1.46 4.772 4.772 0 01-.73-2.74v-1.251a4.28 4.28 0 014.647-4.647h3.158a4.284 4.284 0 014.677 4.647v.655a.448.448 0 01-.506.507h-1.907a.448.448 0 01-.507-.507v-.387a2.02 2.02 0 00-2.382-2.384h-1.877a2.444 2.444 0 00-1.832.581 2.847 2.847 0 00-.551 1.982v.923q0 1.34 1.936 1.817.863.208 1.891.357a15.724 15.724 0 012.07.448 8.604 8.604 0 011.907.789 3.637 3.637 0 011.4 1.49 5.073 5.073 0 01.536 2.427v1.162a4.28 4.28 0 01-4.647 4.646h-3.337a4.66 4.66 0 01-3.425-1.236 4.574 4.574 0 01-1.25-3.41zM210.217 244.082a5.683 5.683 0 01-3.962 1.317 5.39 5.39 0 01-3.046-.868 5.662 5.662 0 01-2.031-2.443 8.674 8.674 0 01-.72-3.639v-1.925a8.664 8.664 0 01.72-3.644 5.434 5.434 0 015.162-3.306 6.285 6.285 0 012.824.593 4.57 4.57 0 011.894 1.718 6.269 6.269 0 01.857 2.713h-1.302q-.497-3.914-4.273-3.914a4.163 4.163 0 00-2.444.725 4.565 4.565 0 00-1.586 2.037 7.854 7.854 0 00-.55 3.057v1.946a8.135 8.135 0 00.528 3.03 4.617 4.617 0 001.545 2.073 3.975 3.975 0 002.422.746 4.35 4.35 0 003.057-.967 4.678 4.678 0 001.302-2.947h1.3a5.54 5.54 0 01-1.697 3.698zM214.728 236.323a4.92 4.92 0 011.793-2.053 5.218 5.218 0 015.358 0 4.907 4.907 0 011.798 2.053 6.742 6.742 0 01.635 2.973v.338a6.742 6.742 0 01-.635 2.972 4.924 4.924 0 01-1.787 2.052 4.841 4.841 0 01-2.677.741 4.806 4.806 0 01-4.485-2.793 6.741 6.741 0 01-.635-2.972v-.338a6.74 6.74 0 01.635-2.973zm1.085 5.66a3.943 3.943 0 001.322 1.702 3.44 3.44 0 002.078.635 3.399 3.399 0 002.063-.635 3.965 3.965 0 001.317-1.703 5.994 5.994 0 00.45-2.348v-.338a5.885 5.885 0 00-.455-2.327 4.058 4.058 0 00-1.327-1.714 3.627 3.627 0 00-4.131 0 4.029 4.029 0 00-1.317 1.714 5.934 5.934 0 00-.45 2.327v.338a5.994 5.994 0 00.45 2.348zM241.967 234.546a4.536 4.536 0 01.951 3.183v7.458h-1.258v-7.467a3.283 3.283 0 00-.714-2.401 2.79 2.79 0 00-2.036-.699 3.305 3.305 0 00-2.92 1.587 3.263 3.263 0 00-.476 1.406v7.575h-1.269v-7.575a3.077 3.077 0 00-.725-2.306 2.874 2.874 0 00-2.057-.687 3.036 3.036 0 00-2.153.762 4.295 4.295 0 00-1.18 1.935v7.87h-1.269v-11.445h1.227l.032 1.85a4.181 4.181 0 013.713-2.062 4.086 4.086 0 012.179.54 2.947 2.947 0 011.248 1.67 4.344 4.344 0 011.581-1.607 4.462 4.462 0 012.333-.603 3.647 3.647 0 012.793 1.016zM255.37 239.58a8.228 8.228 0 01-.519 3.03 4.568 4.568 0 01-1.507 2.053 3.817 3.817 0 01-2.343.736 4.78 4.78 0 01-2.09-.434 3.987 3.987 0 01-1.496-1.227v5.85h-1.27v-15.846h1.185l.064 1.618a4.025 4.025 0 011.491-1.36 4.455 4.455 0 012.094-.47 3.933 3.933 0 012.365.714 4.43 4.43 0 011.507 2.026 8.376 8.376 0 01.519 3.09zm-1.27-.22a7.315 7.315 0 00-.376-2.435 3.656 3.656 0 00-1.137-1.681 2.92 2.92 0 00-1.893-.613 3.32 3.32 0 00-2.063.602 3.884 3.884 0 00-1.216 1.576v5.512a3.418 3.418 0 003.3 1.999 2.889 2.889 0 001.877-.613 3.675 3.675 0 001.132-1.688 7.358 7.358 0 00.376-2.438zM263.452 234.81a5.68 5.68 0 00-.847-.074 3.033 3.033 0 00-2.042.687 3.686 3.686 0 00-1.131 1.872v7.892h-1.27v-11.445h1.238l.032 1.798a3.698 3.698 0 011.285-1.48 3.451 3.451 0 011.93-.53 3.134 3.134 0 01.466.037 1.89 1.89 0 01.38.09zM266.054 239.539v.243a5.272 5.272 0 00.497 2.3 4.035 4.035 0 001.386 1.645 3.529 3.529 0 002.03.604 4.142 4.142 0 001.81-.376 3.833 3.833 0 001.396-1.19l.804.603a4.675 4.675 0 01-1.624 1.476 5.059 5.059 0 01-6.907-2.163 6.221 6.221 0 01-.661-2.899v-.455a6.613 6.613 0 01.671-3.036 5.093 5.093 0 011.798-2.04 4.447 4.447 0 012.439-.72 4.387 4.387 0 012.443.666 4.186 4.186 0 011.555 1.85 6.61 6.61 0 01.53 2.72v.772zm1.92-4.454a3.623 3.623 0 00-1.254 1.35 5.304 5.304 0 00-.613 2.025h6.844v-.138a4.749 4.749 0 00-.397-1.84 3.232 3.232 0 00-1.105-1.36 2.977 2.977 0 00-1.756-.513 3.201 3.201 0 00-1.72.476zM278.266 239.178a3.28 3.28 0 01-1.317-1.004 2.502 2.502 0 01-.454-1.534 2.665 2.665 0 01.497-1.565 3.4 3.4 0 011.412-1.127 5.063 5.063 0 012.12-.418 5.371 5.371 0 012.26.44 3.374 3.374 0 011.464 1.216 3.148 3.148 0 01.508 1.762h-1.28a2.07 2.07 0 00-.35-1.143 2.472 2.472 0 00-1.02-.867 3.565 3.565 0 00-1.581-.328 3.728 3.728 0 00-1.56.286 2.095 2.095 0 00-.915.74 1.817 1.817 0 00-.058 1.893 2.098 2.098 0 00.904.699 9.725 9.725 0 001.914.602 10.458 10.458 0 012.29.767 3.308 3.308 0 011.297 1.068 2.699 2.699 0 01.423 1.539 2.778 2.778 0 01-.524 1.661 3.376 3.376 0 01-1.48 1.132 6.362 6.362 0 01-4.629-.068 3.652 3.652 0 01-1.544-1.26 2.991 2.991 0 01-.529-1.697h1.259a2.106 2.106 0 001.02 1.793 4.244 4.244 0 002.206.555 4.039 4.039 0 001.597-.286 2.382 2.382 0 001.01-.75 1.668 1.668 0 00.344-1.016 1.898 1.898 0 00-.656-1.428 5.212 5.212 0 00-2.412-.984 10.835 10.835 0 01-2.216-.678zM289.268 239.178a3.279 3.279 0 01-1.317-1.004 2.502 2.502 0 01-.454-1.534 2.665 2.665 0 01.497-1.565 3.398 3.398 0 011.412-1.127 5.063 5.063 0 012.12-.418 5.371 5.371 0 012.26.44 3.373 3.373 0 011.464 1.216 3.148 3.148 0 01.508 1.762h-1.28a2.07 2.07 0 00-.35-1.143 2.471 2.471 0 00-1.02-.867 3.564 3.564 0 00-1.581-.328 3.728 3.728 0 00-1.561.286 2.094 2.094 0 00-.915.74 1.817 1.817 0 00-.058 1.893 2.098 2.098 0 00.904.699 9.722 9.722 0 001.915.602 10.461 10.461 0 012.29.767 3.31 3.31 0 011.296 1.068 2.699 2.699 0 01.423 1.539 2.777 2.777 0 01-.523 1.661 3.376 3.376 0 01-1.481 1.132 6.362 6.362 0 01-4.628-.068 3.651 3.651 0 01-1.545-1.26 2.99 2.99 0 01-.529-1.697h1.26a2.106 2.106 0 001.02 1.793 4.245 4.245 0 002.205.555 4.04 4.04 0 001.597-.286 2.382 2.382 0 001.01-.75 1.669 1.669 0 00.344-1.016 1.898 1.898 0 00-.656-1.428 5.212 5.212 0 00-2.412-.984 10.835 10.835 0 01-2.215-.678zM298.635 236.323a4.921 4.921 0 011.793-2.053 5.218 5.218 0 015.358 0 4.906 4.906 0 011.798 2.053 6.742 6.742 0 01.635 2.973v.338a6.742 6.742 0 01-.635 2.972 4.923 4.923 0 01-1.787 2.052 4.841 4.841 0 01-2.676.741 4.806 4.806 0 01-4.486-2.793 6.741 6.741 0 01-.635-2.972v-.338a6.74 6.74 0 01.635-2.973zm1.085 5.66a3.943 3.943 0 001.322 1.702 3.44 3.44 0 002.079.635 3.399 3.399 0 002.062-.635 3.964 3.964 0 001.317-1.703 5.994 5.994 0 00.45-2.348v-.338a5.883 5.883 0 00-.455-2.327 4.058 4.058 0 00-1.327-1.714 3.627 3.627 0 00-4.131 0 4.03 4.03 0 00-1.317 1.714 5.934 5.934 0 00-.45 2.327v.338a5.994 5.994 0 00.45 2.348zM316.143 234.81a5.68 5.68 0 00-.847-.074 3.033 3.033 0 00-2.041.687 3.686 3.686 0 00-1.132 1.872v7.892h-1.269v-11.445h1.237l.032 1.798a3.7 3.7 0 011.285-1.48 3.451 3.451 0 011.93-.53 3.134 3.134 0 01.466.037 1.89 1.89 0 01.381.09z"/><path class="cls-55" d="M147.867 181.045h15.816v14.393h-15.816zM129.175 185.62H87.661a2.251 2.251 0 01-2.251-2.25v-6.072a2.251 2.251 0 012.25-2.251h41.515a2.251 2.251 0 012.25 2.25v6.073a2.251 2.251 0 01-2.25 2.25"/><path fill="#b4aca8" d="M72.29 198.545h72.256v80.479H72.29z"/><path class="cls-57" d="M147.38 289.597H69.456a3.04 3.04 0 01-3.04-3.04v-4.492a3.04 3.04 0 013.04-3.04h77.922a3.04 3.04 0 013.041 3.04v4.491a3.04 3.04 0 01-3.04 3.041"/><path class="cls-58" d="M338.816 407.673h-180.65a3.633 3.633 0 01-3.633-3.633V293.23a3.633 3.633 0 013.633-3.633h180.65a3.634 3.634 0 013.633 3.633v110.81a3.634 3.634 0 01-3.633 3.633"/><path class="cls-55" d="M155.508 410.61H72.49a2.55 2.55 0 01-2.548-2.548V289.21a2.548 2.548 0 012.548-2.549h83.02a2.548 2.548 0 012.548 2.549v118.852a2.55 2.55 0 01-2.549 2.549"/><path stroke-width="5.744" stroke="#babcbe" stroke-linejoin="round" fill="none" d="M69.941 286.661v150.972H39.394"/><path stroke-width="5.683" stroke="#babcbe" stroke-linejoin="round" fill="none" d="M342.449 289.597v148.035h30.5"/><path class="cls-57" d="M147.867 205.3H68.97a2.553 2.553 0 01-2.554-2.555v-19.858a2.554 2.554 0 012.554-2.554h78.896a2.555 2.555 0 012.554 2.554v19.858a2.554 2.554 0 01-2.554 2.554"/><path class="cls-58" d="M145.747 205.299h2.216v73.725h-2.216zM68.833 205.299h2.216v73.725h-2.216zM108.418 205.299h2.216v73.725h-2.216z"/><path class="cls-57" d="M171.155 198.082h-6.765a.708.708 0 01-.707-.708v-18.265a.708.708 0 01.707-.707h6.765a.707.707 0 01.707.707v18.265a.707.707 0 01-.707.708"/><path class="cls-55" d="M171.861 181.045h4.223v14.393h-4.223z"/><path class="cls-57" d="M183.556 198.082h-6.765a.708.708 0 01-.707-.708v-18.265a.708.708 0 01.707-.707h6.765a.707.707 0 01.707.707v18.265a.707.707 0 01-.707.708"/><path class="cls-55" d="M184.263 181.045h4.223v14.393h-4.223z"/><path d="M307.16 309.67a9.716 9.716 0 11-9.716-9.715 9.717 9.717 0 019.716 9.716z" stroke-width="4.174" stroke="#221f1f" stroke-linejoin="round" stroke-linecap="round" fill="none"/><path class="cls-6" d="M307.16 309.67a9.716 9.716 0 11-9.716-9.715 9.717 9.717 0 019.716 9.716"/><path class="cls-48" d="M689.811 312.674h-75.362v189.945H291.521V309.67"/><path class="cls-49" d="M689.81 299.567h-88.102v188.137H303.167V309.671"/><path d="M629.84 337.249v-6.94l-2.09.777v-.592l2.619-.978h.105v7.732zM637.89 334.033a1.852 1.852 0 01.396 1.174 2.07 2.07 0 01-.32 1.167 2.01 2.01 0 01-.875.732 3.305 3.305 0 01-2.512 0 2.008 2.008 0 01-.875-.732 2.07 2.07 0 01-.32-1.167 1.88 1.88 0 01.391-1.177 2.185 2.185 0 011.053-.737 1.978 1.978 0 01-.91-.696 1.801 1.801 0 01-.333-1.07 2.102 2.102 0 01.288-1.122 1.866 1.866 0 01.796-.717 2.85 2.85 0 012.316 0 1.893 1.893 0 01.807.717 2.078 2.078 0 01.294 1.121 1.76 1.76 0 01-.342 1.068 2.07 2.07 0 01-.917.699 2.255 2.255 0 011.063.74zm-1.108 2.595a1.458 1.458 0 00.64-.553 1.591 1.591 0 00.23-.868 1.55 1.55 0 00-.238-.854 1.601 1.601 0 00-.654-.579 2.215 2.215 0 00-1.87 0 1.557 1.557 0 00-.642.576 1.735 1.735 0 000 1.727 1.46 1.46 0 00.64.55 2.484 2.484 0 001.893 0zm-2.362-4.31a1.383 1.383 0 00.575.524 1.98 1.98 0 001.673 0 1.397 1.397 0 00.58-.525 1.526 1.526 0 00-.59-2.137 1.722 1.722 0 00-.83-.199 1.805 1.805 0 00-.834.189 1.383 1.383 0 00-.574.536 1.589 1.589 0 00-.206.82 1.502 1.502 0 00.206.791zM646.628 335.09h-3.501l-.793 2.159h-.677l2.908-7.701h.62l2.914 7.7h-.677zm-.206-.554l-1.544-4.195-1.544 4.195zM657.693 329.548l-1.967 7.7h-.624l-1.751-6.024-.19-.766-.196.766-1.782 6.025h-.625l-1.972-7.701h.666l1.407 5.623.243 1.195.291-1.149 1.672-5.67h.587l1.645 5.67.29 1.154.25-1.206 1.39-5.617zM664.01 336.794a3.025 3.025 0 01-.882.396 4.589 4.589 0 01-1.299.164 3.004 3.004 0 01-1.605-.43 2.904 2.904 0 01-1.093-1.23 4.172 4.172 0 01-.39-1.857v-.936a4.316 4.316 0 01.362-1.833 2.745 2.745 0 011.036-1.204 2.924 2.924 0 011.59-.422 3.197 3.197 0 011.422.29 2.287 2.287 0 01.929.804 2.761 2.761 0 01.42 1.18h-.651a1.927 1.927 0 00-2.12-1.718 2.174 2.174 0 00-1.265.359 2.235 2.235 0 00-.796 1.01 3.925 3.925 0 00-.272 1.523v.948a3.78 3.78 0 00.3 1.56 2.384 2.384 0 00.855 1.04 2.26 2.26 0 001.283.367 3.92 3.92 0 00.96-.106 2.706 2.706 0 00.677-.256 1.357 1.357 0 00.388-.31v-1.989h-2.067v-.555h2.713v2.74a2.022 2.022 0 01-.494.465z"/></svg>