<svg id="Layer_1" data-name="Layer 1" xmlns="http://www.w3.org/2000/svg" viewBox="0 0 1442.7671 539.1618"><defs><style>.cls-1{fill:#323031;}.cls-13,.cls-2{fill:#809356;}.cls-3{fill:#009247;}.cls-4{fill:#f1f1f1;}.cls-5{fill:#6d6f70;}.cls-6{fill:#414141;}.cls-7{fill:#59595c;}.cls-23,.cls-33,.cls-8{fill:#221f1f;}.cls-9{fill:#bc202e;}.cls-10{fill:#2f3277;}.cls-11{fill:#d5dd26;}.cls-12{fill:#36b24a;}.cls-13{font-size:8.7057px;}.cls-13,.cls-19,.cls-23,.cls-33,.cls-34{font-family:Verdana;}.cls-14{letter-spacing:0.001em;}.cls-15{letter-spacing:-0.0001em;}.cls-16{letter-spacing:-0.015em;}.cls-17{letter-spacing:0.0001em;}.cls-18,.cls-19,.cls-34{fill:#fff;}.cls-19,.cls-23{font-size:5.8038px;}.cls-20{letter-spacing:0.001em;}.cls-21{letter-spacing:-0.0001em;}.cls-22{letter-spacing:0.0009em;}.cls-24{letter-spacing:-0.03em;}.cls-25{letter-spacing:-0.0459em;}.cls-26{letter-spacing:-0.06em;}.cls-27{letter-spacing:0.0001em;}.cls-28{fill:#4e4d50;}.cls-29{fill:#a6a7aa;}.cls-30{fill:#630d0d;}.cls-31{fill:#ea2127;}.cls-32{fill:#e2dd6e;}.cls-33,.cls-34{font-size:10.5481px;}.cls-35,.cls-36,.cls-37,.cls-38,.cls-42,.cls-48,.cls-49,.cls-53,.cls-54,.cls-59,.cls-60,.cls-61{fill:none;}.cls-35{stroke:#d5dd26;}.cls-35,.cls-36,.cls-37,.cls-38,.cls-48,.cls-49,.cls-53,.cls-61{stroke-linecap:round;}.cls-35,.cls-36,.cls-37,.cls-38,.cls-48,.cls-49,.cls-53,.cls-59,.cls-60,.cls-61{stroke-linejoin:round;}.cls-35,.cls-36{stroke-width:1.5px;}.cls-36{stroke:#36b24a;}.cls-37,.cls-49,.cls-53{stroke:#ea2127;}.cls-37,.cls-38{stroke-width:1.354px;}.cls-38,.cls-48,.cls-54,.cls-61{stroke:#221f1f;}.cls-39{fill:#ded7d4;}.cls-40{fill:#dfd6c7;}.cls-41{fill:#c2bbaf;}.cls-42{stroke:#c2bbaf;stroke-width:1.067px;}.cls-42,.cls-54{stroke-miterlimit:10;}.cls-43{fill:#b2a696;}.cls-44{fill:#7b756a;}.cls-45{fill:#cfd1d2;}.cls-46{fill:#808083;}.cls-47{fill:#eae2d1;}.cls-48,.cls-49{stroke-width:10.832px;}.cls-50{fill:#836b31;}.cls-51{fill:#b69349;}.cls-52{fill:#917638;}.cls-53{stroke-width:2.708px;}.cls-54{stroke-width:3px;}.cls-55{fill:#aea3a1;}.cls-56{fill:#b4aca8;}.cls-57{fill:#958c8b;}.cls-58{fill:#7b8288;}.cls-59,.cls-60{stroke:#babcbe;}.cls-59{stroke-width:5.744px;}.cls-60{stroke-width:5.683px;}.cls-61{stroke-width:4.174px;}</style></defs><path class="cls-1" d="M851.5943,328.3608H675.4762a3.4829,3.4829,0,0,1-3.483-3.482V237.6639a3.4838,3.4838,0,0,1,3.483-3.4831H851.5943a3.4824,3.4824,0,0,1,3.482,3.4831v87.2149a3.4814,3.4814,0,0,1-3.482,3.482"/><path class="cls-1" d="M845.148,424.1235H679.021a3.5976,3.5976,0,0,1-3.5981-3.5979v-91.245a3.5975,3.5975,0,0,1,3.5981-3.5971H845.148a3.5973,3.5973,0,0,1,3.5979,3.5971v91.245a3.5974,3.5974,0,0,1-3.5979,3.5979"/><path class="cls-1" d="M677.5863,420.6128h170.843a3.4828,3.4828,0,0,1,3.482,3.4821V451.77a3.4822,3.4822,0,0,1-3.482,3.483H677.5863a3.4814,3.4814,0,0,1-3.481-3.483V424.0949a3.4819,3.4819,0,0,1,3.481-3.4821"/><path class="cls-2" d="M747.1538,336.0376h36.167V308.99h-36.167a2.3494,2.3494,0,0,0-2.3491,2.349v22.35a2.3494,2.3494,0,0,0,2.3491,2.349"/><path class="cls-2" d="M745.0609,289.5563v36.127h27.972v-36.127a2.39,2.39,0,0,0-2.389-2.389H747.45a2.3889,2.3889,0,0,0-2.389,2.389"/><rect class="cls-3" x="760.5009" y="309.7624" width="9.458" height="16.818"/><rect class="cls-1" x="748.4979" y="317.5024" width="9.629" height="17.368"/><path class="cls-2" d="M757.5639,390.2242h0a4.6512,4.6512,0,0,1-4.651-4.651v-43.812a.4742.4742,0,0,1,.473-.474h8.357a.4735.4735,0,0,1,.473.474v43.811a4.6523,4.6523,0,0,1-4.652,4.652"/><path class="cls-2" d="M771.2378,390.4253h0a4.65,4.65,0,0,1-4.65-4.65v-43.813a.4741.4741,0,0,1,.4731-.474h8.3559a.4741.4741,0,0,1,.473.474v43.811a4.6522,4.6522,0,0,1-4.6519,4.6519"/><path class="cls-2" d="M801.7807,421.1772l.007-89.565a1.164,1.164,0,0,1,1.164-1.165h9.209l-.007,92.3611h-8.742a1.63,1.63,0,0,1-1.631-1.6311"/><path class="cls-2" d="M727.4859,331.0309l-.0071,89.566a1.164,1.164,0,0,1-1.165,1.164h-9.209l.007-92.361h8.743a1.6314,1.6314,0,0,1,1.6311,1.631"/><path class="cls-4" d="M808.8609,318.1216V272.8027a.8249.8249,0,0,1,.8239-.8251h9.318v47.297h-8.989a1.1533,1.1533,0,0,1-1.1529-1.153"/><rect class="cls-2" x="773.5849" y="270.4633" width="25.346" height="13.512"/><rect class="cls-2" x="777.9259" y="283.9754" width="15.348" height="9.712"/><path class="cls-2" d="M729.3872,320.3149h-5.5691a1.9635,1.9635,0,0,1-1.964-1.964V249.6a1.9635,1.9635,0,0,1,1.964-1.964h5.5691a1.9642,1.9642,0,0,1,1.964,1.964v68.7509a1.9642,1.9642,0,0,1-1.964,1.964"/><path class="cls-2" d="M724.8921,320.3149H710.967a1.9076,1.9076,0,0,1-1.908-1.9079V297.535a1.9077,1.9077,0,0,1,1.908-1.9081h13.9251A1.9077,1.9077,0,0,1,726.8,297.535v20.872a1.9076,1.9076,0,0,1-1.9079,1.9079"/><rect class="cls-5" x="773.586" y="243.3934" width="25.286" height="25.589"/><rect class="cls-6" x="691.516" y="329.5483" width="25.589" height="92.201"/><rect class="cls-5" x="812.164" y="330.5323" width="25.589" height="92.201"/><rect class="cls-5" x="820.2719" y="271.8623" width="25.589" height="47.529"/><rect class="cls-6" x="682.1759" y="271.8623" width="25.59" height="47.529"/><rect class="cls-7" x="684.2139" y="273.4093" width="18.767" height="10.703"/><rect class="cls-4" x="688.4309" y="275.4173" width="12.041" height="6.355"/><path class="cls-8" d="M694.0337,278.7612a4.2231,4.2231,0,1,1-4.2231-4.223,4.2235,4.2235,0,0,1,4.2231,4.223"/><rect class="cls-7" x="684.2139" y="284.1133" width="18.767" height="10.703"/><rect class="cls-4" x="688.4309" y="286.1203" width="12.041" height="6.355"/><path class="cls-8" d="M694.0337,289.4645a4.2231,4.2231,0,1,1-4.2231-4.223,4.2235,4.2235,0,0,1,4.2231,4.223"/><rect class="cls-7" x="684.2139" y="294.8164" width="18.767" height="10.704"/><rect class="cls-4" x="688.4309" y="296.8233" width="12.041" height="6.355"/><path class="cls-8" d="M694.0337,300.1675a4.2231,4.2231,0,1,1-4.2231-4.2229,4.2238,4.2238,0,0,1,4.2231,4.2229"/><rect class="cls-7" x="684.2139" y="305.5203" width="18.767" height="10.703"/><rect class="cls-4" x="688.4309" y="307.5273" width="12.041" height="6.354"/><path class="cls-8" d="M694.0337,310.8716a4.2231,4.2231,0,1,1-4.2231-4.2229,4.2234,4.2234,0,0,1,4.2231,4.2229"/><rect class="cls-7" x="826.3629" y="306.6493" width="18.767" height="10.703"/><rect class="cls-4" x="828.872" y="308.9894" width="12.041" height="6.355"/><path class="cls-8" d="M835.31,312.0005a4.2225,4.2225,0,1,1,4.223,4.2231,4.2227,4.2227,0,0,1-4.223-4.2231"/><rect class="cls-7" x="826.3629" y="295.9454" width="18.767" height="10.704"/><rect class="cls-4" x="828.872" y="298.2864" width="12.041" height="6.355"/><path class="cls-8" d="M835.31,301.2964a4.2225,4.2225,0,1,1,4.223,4.2241,4.2234,4.2234,0,0,1-4.223-4.2241"/><rect class="cls-7" x="826.3629" y="285.2413" width="18.767" height="10.703"/><rect class="cls-4" x="828.872" y="287.5834" width="12.041" height="6.354"/><path class="cls-8" d="M835.31,290.5934a4.2225,4.2225,0,1,1,4.223,4.223,4.2234,4.2234,0,0,1-4.223-4.223"/><rect class="cls-7" x="826.3629" y="274.5383" width="18.767" height="10.703"/><rect class="cls-4" x="828.872" y="276.8793" width="12.041" height="6.355"/><path class="cls-8" d="M835.31,279.89a4.2225,4.2225,0,1,1,4.223,4.223,4.2233,4.2233,0,0,1-4.223-4.223"/><rect class="cls-7" x="786.2279" y="244.5243" width="10.704" height="18.767"/><rect class="cls-4" x="788.57" y="248.7403" width="6.355" height="12.041"/><path class="cls-8" d="M791.58,254.3434a4.223,4.223,0,1,1,4.224-4.223,4.2234,4.2234,0,0,1-4.224,4.223"/><rect class="cls-7" x="775.5249" y="244.5243" width="10.703" height="18.767"/><rect class="cls-4" x="777.867" y="248.7403" width="6.354" height="12.041"/><path class="cls-8" d="M780.8764,254.3434a4.223,4.223,0,1,1,4.223-4.223,4.2234,4.2234,0,0,1-4.223,4.223"/><rect class="cls-7" x="693.5969" y="333.7423" width="18.767" height="10.703"/><rect class="cls-4" x="697.8139" y="335.7493" width="12.042" height="6.354"/><path class="cls-8" d="M703.4165,339.0934a4.2225,4.2225,0,1,1-4.2231-4.223,4.2235,4.2235,0,0,1,4.2231,4.223"/><rect class="cls-7" x="693.5969" y="344.4454" width="18.767" height="10.703"/><rect class="cls-4" x="697.8139" y="346.4524" width="12.042" height="6.355"/><path class="cls-8" d="M703.4165,349.7964a4.2225,4.2225,0,1,1-4.2231-4.2229,4.2234,4.2234,0,0,1,4.2231,4.2229"/><rect class="cls-7" x="693.5969" y="355.1484" width="18.767" height="10.703"/><rect class="cls-4" x="697.8139" y="357.1554" width="12.042" height="6.355"/><path class="cls-8" d="M703.4165,360.5a4.2225,4.2225,0,1,1-4.2231-4.223,4.2235,4.2235,0,0,1,4.2231,4.223"/><rect class="cls-7" x="693.5969" y="365.8514" width="18.767" height="10.704"/><rect class="cls-4" x="697.8139" y="367.8584" width="12.042" height="6.355"/><path class="cls-8" d="M703.4165,371.2037a4.2225,4.2225,0,1,1-4.2231-4.224,4.2235,4.2235,0,0,1,4.2231,4.224"/><rect class="cls-7" x="693.5969" y="376.6323" width="18.767" height="10.703"/><rect class="cls-4" x="697.8139" y="378.6394" width="12.042" height="6.355"/><path class="cls-8" d="M703.4165,381.9839a4.2225,4.2225,0,1,1-4.2231-4.2229,4.2234,4.2234,0,0,1,4.2231,4.2229"/><rect class="cls-7" x="693.5969" y="387.3353" width="18.767" height="10.703"/><rect class="cls-4" x="697.8139" y="389.3424" width="12.042" height="6.355"/><path class="cls-8" d="M703.4165,392.6871a4.2225,4.2225,0,1,1-4.2231-4.223,4.2235,4.2235,0,0,1,4.2231,4.223"/><rect class="cls-7" x="693.5969" y="398.0384" width="18.767" height="10.704"/><rect class="cls-4" x="697.8139" y="400.0464" width="12.042" height="6.355"/><path class="cls-8" d="M703.4165,403.39a4.2225,4.2225,0,1,1-4.2231-4.2229,4.2238,4.2238,0,0,1,4.2231,4.2229"/><rect class="cls-7" x="693.5969" y="408.7433" width="18.767" height="10.703"/><rect class="cls-4" x="697.8139" y="410.7503" width="12.042" height="6.354"/><path class="cls-8" d="M703.4165,414.0942a4.2225,4.2225,0,1,1-4.2231-4.2229,4.2235,4.2235,0,0,1,4.2231,4.2229"/><rect class="cls-7" x="817.763" y="409.9093" width="18.767" height="10.703"/><rect class="cls-4" x="820.2719" y="412.2513" width="12.041" height="6.354"/><path class="cls-8" d="M826.7105,415.2612a4.2225,4.2225,0,1,1,4.2229,4.223,4.2234,4.2234,0,0,1-4.2229-4.223"/><rect class="cls-7" x="817.763" y="399.2063" width="18.767" height="10.703"/><rect class="cls-4" x="820.2719" y="401.5483" width="12.041" height="6.354"/><path class="cls-8" d="M826.7105,404.5581a4.2225,4.2225,0,1,1,4.2229,4.2231,4.2233,4.2233,0,0,1-4.2229-4.2231"/><rect class="cls-7" x="817.763" y="388.5033" width="18.767" height="10.703"/><rect class="cls-4" x="820.2719" y="390.8443" width="12.041" height="6.355"/><path class="cls-8" d="M826.7105,393.855a4.2225,4.2225,0,1,1,4.2229,4.223,4.2233,4.2233,0,0,1-4.2229-4.223"/><rect class="cls-7" x="817.763" y="377.8003" width="18.767" height="10.703"/><rect class="cls-4" x="820.2719" y="380.1413" width="12.041" height="6.355"/><path class="cls-8" d="M826.7105,383.152a4.2225,4.2225,0,1,1,4.2229,4.223,4.2236,4.2236,0,0,1-4.2229-4.223"/><rect class="cls-7" x="817.763" y="367.0193" width="18.767" height="10.703"/><rect class="cls-4" x="820.2719" y="369.3613" width="12.041" height="6.354"/><path class="cls-8" d="M826.7105,372.3706a4.2225,4.2225,0,1,1,4.2229,4.2231,4.2233,4.2233,0,0,1-4.2229-4.2231"/><rect class="cls-7" x="817.763" y="356.3163" width="18.767" height="10.703"/><rect class="cls-4" x="820.2719" y="358.6564" width="12.041" height="6.355"/><path class="cls-8" d="M826.7105,361.6675a4.2225,4.2225,0,1,1,4.2229,4.223,4.2233,4.2233,0,0,1-4.2229-4.223"/><rect class="cls-7" x="817.763" y="345.6123" width="18.767" height="10.703"/><rect class="cls-4" x="820.2719" y="347.9533" width="12.041" height="6.355"/><path class="cls-8" d="M826.7105,350.9645a4.2225,4.2225,0,1,1,4.2229,4.223,4.2234,4.2234,0,0,1-4.2229-4.223"/><rect class="cls-9" x="718.651" y="334.0564" width="8.149" height="10.389"/><rect class="cls-7" x="817.763" y="334.9084" width="18.767" height="10.704"/><rect class="cls-4" x="820.2719" y="337.2503" width="12.041" height="6.355"/><path class="cls-8" d="M826.7105,340.26a4.2225,4.2225,0,1,1,4.2229,4.224,4.2234,4.2234,0,0,1-4.2229-4.224"/><rect class="cls-8" x="718.651" y="344.4344" width="8.149" height="10.389"/><rect class="cls-9" x="718.651" y="354.8233" width="8.149" height="10.388"/><rect class="cls-8" x="718.651" y="365.2013" width="8.149" height="10.389"/><rect class="cls-9" x="718.651" y="375.5804" width="8.149" height="10.389"/><rect class="cls-8" x="718.651" y="385.9593" width="8.149" height="10.389"/><rect class="cls-9" x="718.651" y="396.3483" width="8.149" height="10.388"/><rect class="cls-8" x="718.651" y="406.7254" width="8.149" height="10.389"/><rect class="cls-8" x="710.7349" y="296.0793" width="8.149" height="11.94"/><rect class="cls-9" x="802.3219" y="407.6963" width="8.149" height="10.388"/><rect class="cls-8" x="802.3219" y="397.3174" width="8.149" height="10.389"/><rect class="cls-9" x="802.3219" y="386.9283" width="8.149" height="10.389"/><rect class="cls-8" x="802.3219" y="376.5503" width="8.149" height="10.388"/><rect class="cls-9" x="802.3219" y="366.1714" width="8.149" height="10.389"/><rect class="cls-8" x="802.3219" y="355.7923" width="8.149" height="10.389"/><rect class="cls-9" x="802.3219" y="345.4043" width="8.149" height="10.388"/><rect class="cls-8" x="802.3219" y="335.0263" width="8.149" height="10.389"/><rect class="cls-9" x="710.7349" y="307.9114" width="8.149" height="11.951"/><path class="cls-10" d="M718.6831,293.938H712.284a1.5484,1.5484,0,0,1-1.549-1.5489V250.29a1.5484,1.5484,0,0,1,1.549-1.549h6.3991a1.549,1.549,0,0,1,1.5489,1.549v42.099a1.5489,1.5489,0,0,1-1.5489,1.5489"/><rect class="cls-8" x="786.18" y="270.4634" width="11.94" height="12.521"/><rect class="cls-9" x="774.336" y="270.4634" width="11.951" height="12.521"/><rect class="cls-11" x="810.555" y="273.2153" width="8.149" height="11.077"/><rect class="cls-12" x="810.555" y="284.2823" width="8.149" height="11.077"/><rect class="cls-11" x="810.555" y="295.3593" width="8.149" height="11.077"/><rect class="cls-12" x="810.555" y="306.4253" width="8.149" height="11.077"/><path class="cls-4" d="M800.815,306.3423V285.0594a.7791.7791,0,0,1,.7779-.779h7.268v23.152h-6.956a1.09,1.09,0,0,1-1.09-1.09"/><path class="cls-2" d="M737.1391,346.4518h-9.654V337.99h9.654a2.7854,2.7854,0,0,1,2.785,2.786v2.89a2.7854,2.7854,0,0,1-2.785,2.786"/><path class="cls-2" d="M737.1391,368.9537h-9.654v-8.462h9.654a2.7854,2.7854,0,0,1,2.785,2.786v2.89a2.7854,2.7854,0,0,1-2.785,2.786"/><path class="cls-2" d="M737.1391,392.1481h-9.654v-8.462h9.654a2.7854,2.7854,0,0,1,2.785,2.786v2.89a2.7854,2.7854,0,0,1-2.785,2.786"/><path class="cls-2" d="M737.1391,414.65h-9.654V406.188h9.654a2.7854,2.7854,0,0,1,2.785,2.786v2.89a2.7859,2.7859,0,0,1-2.785,2.7859"/><path class="cls-2" d="M792.6674,406.5005h9.654v8.4621h-9.654a2.786,2.786,0,0,1-2.785-2.786v-2.891a2.7852,2.7852,0,0,1,2.785-2.7851"/><path class="cls-2" d="M792.6674,383.9985h9.654v8.4621h-9.654a2.7854,2.7854,0,0,1-2.785-2.7861v-2.89a2.7854,2.7854,0,0,1,2.785-2.786"/><path class="cls-2" d="M792.6674,360.8042h9.654v8.4621h-9.654a2.7854,2.7854,0,0,1-2.785-2.786v-2.89a2.7854,2.7854,0,0,1,2.785-2.786"/><path class="cls-2" d="M792.6674,338.3022h9.654v8.4621h-9.654a2.7854,2.7854,0,0,1-2.785-2.786v-2.89a2.7854,2.7854,0,0,1,2.785-2.786"/><path class="cls-3" d="M782.2837,357.2222h-6.4481a.4347.4347,0,0,1-.435-.435v-14.999a.4342.4342,0,0,1,.435-.4329h6.4481a.4342.4342,0,0,1,.435.4329v14.999a.4347.4347,0,0,1-.435.435"/><path class="cls-3" d="M752.9126,357.1548h-6.4481a.4344.4344,0,0,1-.435-.4339V341.7218a.4344.4344,0,0,1,.435-.4339h6.4481a.4345.4345,0,0,1,.435.4339v14.9991a.4344.4344,0,0,1-.435.4339"/><rect class="cls-2" x="750.872" y="319.9213" width="4.881" height="12.53"/><rect class="cls-2" x="763.252" y="312.1673" width="3.957" height="12.471"/><path class="cls-8" d="M794.4652,336.0376H783.32V308.99h11.145a1.3377,1.3377,0,0,1,1.338,1.3369v24.3741a1.3377,1.3377,0,0,1-1.338,1.3369"/><text class="cls-13" transform="translate(711.1861 438.9616)">Pn<tspan class="cls-14" x="10.7588" y="0">e</tspan><tspan class="cls-15" x="15.9536" y="0">umati</tspan><tspan class="cls-14" x="40.978" y="0">c</tspan><tspan x="45.5225" y="0">s </tspan><tspan class="cls-14" x="53.1187" y="0">Co</tspan><tspan x="64.4985" y="0">nt</tspan><tspan class="cls-16" x="73.438" y="0">r</tspan><tspan class="cls-14" x="77.0229" y="0">o</tspan><tspan class="cls-15" x="82.3154" y="0">l M</tspan><tspan class="cls-14" x="95.1016" y="0">o</tspan><tspan class="cls-17" x="100.394" y="0">dule</tspan></text><path class="cls-18" d="M833.13,249.38a6.4344,6.4344,0,1,1,7.042,5.763,6.4337,6.4337,0,0,1-7.042-5.763"/><path class="cls-18" d="M679.185,248.2749a6.4348,6.4348,0,1,1,7.042,5.7641,6.4363,6.4363,0,0,1-7.042-5.7641"/><path class="cls-18" d="M679.185,441.9107a6.4349,6.4349,0,1,1,7.042,5.763,6.4351,6.4351,0,0,1-7.042-5.763"/><path class="cls-18" d="M835.3422,441.9107a6.4344,6.4344,0,1,1,7.042,5.763,6.4336,6.4336,0,0,1-7.042-5.763"/><text class="cls-19" transform="translate(713.6187 252.1599) rotate(90)"><tspan class="cls-20">P</tspan><tspan class="cls-21" x="3.5059" y="0">R</tspan><tspan class="cls-20" x="7.541" y="0">E</tspan><tspan x="11.2168" y="0">SS</tspan><tspan class="cls-22" x="19.1519" y="0">U</tspan><tspan x="23.4053" y="0">R</tspan><tspan class="cls-20" x="27.4409" y="0">E</tspan><tspan class="cls-21" x="31.1167" y="0" xml:space="preserve"> SW</tspan></text><text class="cls-23" transform="translate(764.0425 293.2683) rotate(90)"><tspan class="cls-22">12</tspan><tspan x="7.3911" y="0">V</tspan></text><text class="cls-23" transform="translate(724.2739 257.8128) rotate(90)">COM<tspan class="cls-22" x="13.5122" y="0">P</tspan><tspan x="17.0176" y="0">R</tspan><tspan class="cls-22" x="21.0532" y="0">ES</tspan><tspan x="28.6963" y="0">SOR</tspan><tspan class="cls-20" x="41.2671" y="0"> </tspan><tspan x="43.3135" y="0">O</tspan><tspan class="cls-22" x="47.8818" y="0">UT</tspan></text><text class="cls-23" transform="translate(751.732 293.268) rotate(90)"><tspan class="cls-22">24</tspan><tspan x="7.3911" y="0">V</tspan></text><text class="cls-23" transform="translate(777.8775 314.0576) rotate(90)">VS<tspan class="cls-24" x="7.9351" y="0">L</tspan><tspan x="10.9912" y="0">OL</tspan></text><text class="cls-23" transform="translate(756.3863 357.052) rotate(90)">COMP</text><text class="cls-23" transform="translate(769.7886 354.1673) rotate(90)">S<tspan class="cls-25" x="3.9673" y="0">T</tspan><tspan class="cls-26" x="7.2769" y="0">A</tspan><tspan x="10.896" y="0">T</tspan><tspan class="cls-20" x="14.4722" y="0">U</tspan><tspan class="cls-27" x="18.7261" y="0">S</tspan></text><text class="cls-23" transform="translate(789.6441 286.3923) rotate(180)">V<tspan class="cls-20" x="3.9673" y="0">i</tspan><tspan x="5.5659" y="0">n</tspan></text><text class="cls-23" transform="translate(807.5835 301.7107) rotate(-90)">CAN</text><text class="cls-23" transform="translate(798.6109 344.1404) rotate(-90)">7</text><text class="cls-23" transform="translate(798.6112 366.822) rotate(-90)">6</text><text class="cls-23" transform="translate(798.7039 389.9616) rotate(-90)">5</text><text class="cls-23" transform="translate(798.7033 412.6374) rotate(-90)">4</text><text class="cls-23" transform="translate(731.5542 408.7029) rotate(90)">3</text><text class="cls-23" transform="translate(731.5542 386.0273) rotate(90)">2</text><text class="cls-23" transform="translate(731.4614 362.8877) rotate(90)">1</text><text class="cls-23" transform="translate(731.4614 340.2121) rotate(90)">0</text><path d="M674.9712,464.6325a4.0521,4.0521,0,0,1,1.7612,1.6075,4.7174,4.7174,0,0,1,.5977,2.4072,4.7673,4.7673,0,0,1-.5923,2.4434,3.8305,3.8305,0,0,1-1.7558,1.5546,6.7,6.7,0,0,1-2.835.54h-3.9458v6.2724H666.9V464.0564h5.2466A6.3214,6.3214,0,0,1,674.9712,464.6325Zm.0952,6.5059a3.29,3.29,0,0,0,.9629-2.4707,3.7639,3.7639,0,0,0-.4126-1.7715,3.014,3.014,0,0,0-1.2851-1.2588,4.5692,4.5692,0,0,0-2.1846-.4707h-3.9458v6.9073h3.9458A4.04,4.04,0,0,0,675.0664,471.1384Z"/><path d="M687.66,468.8054a4.5819,4.5819,0,0,1,.936,3.1943v7.458h-1.2695V472a3.3907,3.3907,0,0,0-.6875-2.4,2.6747,2.6747,0,0,0-2.01-.7089,3.08,3.08,0,0,0-2.1157.7773,4.6,4.6,0,0,0-1.29,1.9307v7.8593h-1.2691V468.0124H681.17l.0425,1.9356a4.5551,4.5551,0,0,1,1.5757-1.5762,4.149,4.149,0,0,1,2.1582-.5713A3.5279,3.5279,0,0,1,687.66,468.8054Z"/><path d="M692.458,473.8093v.2432a5.2724,5.2724,0,0,0,.4976,2.3008,4.0357,4.0357,0,0,0,1.3857,1.6445,3.5286,3.5286,0,0,0,2.0308.6035,4.1418,4.1418,0,0,0,1.8091-.376,3.8328,3.8328,0,0,0,1.396-1.19l.8042.6035a4.6748,4.6748,0,0,1-1.6241,1.4756,5.0588,5.0588,0,0,1-6.9072-2.1631,6.2213,6.2213,0,0,1-.6611-2.8984v-.4551a6.6134,6.6134,0,0,1,.6714-3.0361,5.0928,5.0928,0,0,1,1.7983-2.0411,4.4479,4.4479,0,0,1,2.4385-.72,4.3869,4.3869,0,0,1,2.4434.667,4.1865,4.1865,0,0,1,1.5551,1.8506,6.6093,6.6093,0,0,1,.5288,2.7187v.7725Zm1.92-4.4541a3.6234,3.6234,0,0,0-1.2535,1.35,5.3045,5.3045,0,0,0-.6132,2.0254h6.8437v-.1377a4.7488,4.7488,0,0,0-.3965-1.8408,3.2325,3.2325,0,0,0-1.1054-1.3594,2.9771,2.9771,0,0,0-1.7559-.5127A3.2015,3.2015,0,0,0,694.378,469.3552Z"/><path d="M711.7,468.0124v11.4453h-1.2163l-.0317-1.4492a4.0871,4.0871,0,0,1-3.6392,1.6612,3.6506,3.6506,0,0,1-2.7715-1.042,4.6455,4.6455,0,0,1-.9941-3.295v-7.32h1.2695v7.3409a3.4713,3.4713,0,0,0,.7246,2.4648,2.5433,2.5433,0,0,0,1.92.751,3.8615,3.8615,0,0,0,2.29-.6084,3.1182,3.1182,0,0,0,1.1792-1.6553v-8.293Z"/><path d="M730.0318,468.8161A4.5365,4.5365,0,0,1,730.9834,472v7.458h-1.2588V471.99a3.2836,3.2836,0,0,0-.7138-2.4014,2.7908,2.7908,0,0,0-2.0362-.6982,3.3049,3.3049,0,0,0-2.9194,1.5869,3.2631,3.2631,0,0,0-.4761,1.4062v7.5742H722.31v-7.5742a3.0774,3.0774,0,0,0-.7246-2.3056,2.8745,2.8745,0,0,0-2.0576-.6875,3.0359,3.0359,0,0,0-2.1524.7617,4.2963,4.2963,0,0,0-1.18,1.9355v7.87h-1.269V468.0124h1.227l.0318,1.8506a4.1808,4.1808,0,0,1,3.7129-2.0625,4.0851,4.0851,0,0,1,2.1787.54,2.9466,2.9466,0,0,1,1.2485,1.6709,4.3442,4.3442,0,0,1,1.5811-1.6075,4.4615,4.4615,0,0,1,2.3325-.6035A3.6474,3.6474,0,0,1,730.0318,468.8161Z"/><path d="M742.5513,478.3152a3.8565,3.8565,0,0,0,.2593,1.0048v.1377h-1.354a5.8183,5.8183,0,0,1-.2539-1.5976,4.7035,4.7035,0,0,1-1.6133,1.3066,4.9178,4.9178,0,0,1-2.2583.503,4.2781,4.2781,0,0,1-1.9361-.418,3.1425,3.1425,0,0,1-1.2959-1.1582,3.2727,3.2727,0,0,1,.1695-3.6026,3.9461,3.9461,0,0,1,1.8091-1.2587,7.9666,7.9666,0,0,1,2.7763-.4385h2.3379v-1.291a2.5008,2.5008,0,0,0-.7671-1.94,3.1176,3.1176,0,0,0-2.1841-.7041,3.8315,3.8315,0,0,0-1.5708.3125,2.7105,2.7105,0,0,0-1.1.8409,1.8947,1.8947,0,0,0-.3969,1.164l-1.2691-.0107a2.7516,2.7516,0,0,1,.5606-1.6348,3.9741,3.9741,0,0,1,1.5654-1.2529,5.2223,5.2223,0,0,1,2.2637-.4766,5.3327,5.3327,0,0,1,2.1792.418,3.2255,3.2255,0,0,1,1.4648,1.2539,3.79,3.79,0,0,1,.5239,2.0517v5.5323A8.7972,8.7972,0,0,0,742.5513,478.3152Zm-2.7769-.3965a3.6313,3.6313,0,0,0,1.4175-1.624v-2.5284h-2.1684a7.0623,7.0623,0,0,0-2.2163.3077,3.1059,3.1059,0,0,0-1.4175.8779,2.0213,2.0213,0,0,0-.4917,1.3642,2.0938,2.0938,0,0,0,.3174,1.1319,2.2141,2.2141,0,0,0,.8989.8037,2.9493,2.9493,0,0,0,1.354.2959A4.182,4.182,0,0,0,739.7744,477.9187Z"/><path d="M750.3843,479.5a3.2442,3.2442,0,0,1-.5977.1221,6.091,6.091,0,0,1-.7563.0479,2.4227,2.4227,0,0,1-1.84-.6875,3.3077,3.3077,0,0,1-.6563-2.3174v-7.6162H744.44v-1.0362h2.0942v-2.94h1.28v2.94h2.3589v1.0362H747.814v7.6162a2.13,2.13,0,0,0,.3965,1.497,1.4644,1.4644,0,0,0,1.0844.3965,6.2361,6.2361,0,0,0,1.0367-.1162Z"/><path d="M754.2613,464.0876a.8421.8421,0,0,1,.2377.6133.8092.8092,0,0,1-.2377.5977.8636.8636,0,0,1-.64.2382.85.85,0,0,1-.6294-.2382.8089.8089,0,0,1-.2378-.5977.8241.8241,0,0,1,.8672-.8564A.855.855,0,0,1,754.2613,464.0876Zm-1.2745,15.37V468.0124h1.2588v11.4453Z"/><path d="M766.3472,475.9138a3.6107,3.6107,0,0,1-.6558,1.9307,4.0843,4.0843,0,0,1-1.5918,1.3437,4.8388,4.8388,0,0,1-2.1421.4815,4.4656,4.4656,0,0,1-4.3266-2.7823,7.29,7.29,0,0,1-.5606-2.9306v-.4444a7.3013,7.3013,0,0,1,.5606-2.9248,4.4582,4.4582,0,0,1,4.3052-2.7871,4.8358,4.8358,0,0,1,2.2109.4971,3.8853,3.8853,0,0,1,1.5654,1.4228,4.2989,4.2989,0,0,1,.6348,2.1426h-1.2056a3.2452,3.2452,0,0,0-.4814-1.582,2.893,2.893,0,0,0-1.1426-1.0361,3.4246,3.4246,0,0,0-1.5815-.3653,3.2313,3.2313,0,0,0-2.0464.63,3.6118,3.6118,0,0,0-1.1851,1.6758,6.8547,6.8547,0,0,0-.3755,2.3271v.4444a6.9426,6.9426,0,0,0,.37,2.333,3.5619,3.5619,0,0,0,1.1851,1.6709,3.29,3.29,0,0,0,2.0732.63,3.7032,3.7032,0,0,0,1.5181-.3125,2.8552,2.8552,0,0,0,1.1528-.9151,2.7057,2.7057,0,0,0,.5132-1.4492Z"/><path d="M770.4888,473.449a3.2786,3.2786,0,0,1-1.3169-1.0049,2.502,2.502,0,0,1-.4546-1.5332,2.6648,2.6648,0,0,1,.4971-1.5655,3.3981,3.3981,0,0,1,1.4121-1.1269,5.0628,5.0628,0,0,1,2.1211-.418,5.3711,5.3711,0,0,1,2.2583.44,3.3735,3.3735,0,0,1,1.4648,1.2158,3.1476,3.1476,0,0,1,.5078,1.7617h-1.28a2.0693,2.0693,0,0,0-.3492-1.1426,2.4718,2.4718,0,0,0-1.021-.8672,3.5644,3.5644,0,0,0-1.581-.3281,3.7264,3.7264,0,0,0-1.5606.2862,2.0934,2.0934,0,0,0-.915.74,1.817,1.817,0,0,0-.0581,1.8935,2.0981,2.0981,0,0,0,.9043.6983,9.7219,9.7219,0,0,0,1.9145.6025,10.4594,10.4594,0,0,1,2.2906.7666,3.31,3.31,0,0,1,1.2959,1.0684,2.6988,2.6988,0,0,1,.4228,1.539,2.7775,2.7775,0,0,1-.5234,1.6612,3.3761,3.3761,0,0,1-1.481,1.1318,6.3608,6.3608,0,0,1-4.6279-.0683,3.6514,3.6514,0,0,1-1.5444-1.2588,2.9906,2.9906,0,0,1-.5289-1.6983h1.2588a2.1061,2.1061,0,0,0,1.02,1.793,4.2447,4.2447,0,0,0,2.2056.5557,4.0379,4.0379,0,0,0,1.5972-.2862,2.3823,2.3823,0,0,0,1.01-.751,1.6685,1.6685,0,0,0,.3438-1.0156,1.8984,1.8984,0,0,0-.6558-1.4277,5.2123,5.2123,0,0,0-2.4116-.9834A10.8422,10.8422,0,0,1,770.4888,473.449Z"/><path d="M794.7139,478.3523a5.6833,5.6833,0,0,1-3.9619,1.3174,5.39,5.39,0,0,1-3.0464-.8682,5.6631,5.6631,0,0,1-2.0308-2.4434,8.6735,8.6735,0,0,1-.7192-3.6386v-1.9248a8.6642,8.6642,0,0,1,.7192-3.6446,5.4339,5.4339,0,0,1,5.1621-3.3056,6.2851,6.2851,0,0,1,2.8243.5927,4.57,4.57,0,0,1,1.8935,1.7188,6.2689,6.2689,0,0,1,.8569,2.7129H795.11q-.4974-3.9141-4.2735-3.9141a4.1629,4.1629,0,0,0-2.4438.7246,4.5653,4.5653,0,0,0-1.5864,2.0371,7.8547,7.8547,0,0,0-.55,3.0567V472.72a8.1334,8.1334,0,0,0,.5288,3.03,4.6173,4.6173,0,0,0,1.5444,2.0733,3.9751,3.9751,0,0,0,2.4224.7461,4.35,4.35,0,0,0,3.0571-.9678,4.6789,4.6789,0,0,0,1.3013-2.9463h1.3012A5.54,5.54,0,0,1,794.7139,478.3523Z"/><path d="M799.2251,470.5935a4.9207,4.9207,0,0,1,1.793-2.0527,5.2173,5.2173,0,0,1,5.3579,0,4.9048,4.9048,0,0,1,1.7983,2.0527,6.7405,6.7405,0,0,1,.6348,2.9726v.3379a6.7407,6.7407,0,0,1-.6348,2.9727,4.9229,4.9229,0,0,1-1.7876,2.0517,4.8409,4.8409,0,0,1-2.6762.7413,4.8069,4.8069,0,0,1-4.4854-2.793,6.742,6.742,0,0,1-.6347-2.9727v-.3379A6.7419,6.7419,0,0,1,799.2251,470.5935Zm1.0845,5.6592a3.942,3.942,0,0,0,1.3223,1.7031,3.4392,3.4392,0,0,0,2.0786.6348,3.3992,3.3992,0,0,0,2.0625-.6348,3.9649,3.9649,0,0,0,1.3169-1.7031,5.9932,5.9932,0,0,0,.45-2.3487v-.3379a5.8848,5.8848,0,0,0-.4546-2.3271,4.0577,4.0577,0,0,0-1.3277-1.7139,3.6271,3.6271,0,0,0-4.1308,0,4.0286,4.0286,0,0,0-1.3169,1.7139,5.934,5.934,0,0,0-.45,2.3271v.3379A5.9932,5.9932,0,0,0,800.31,476.2527Z"/><path d="M819.128,468.8054A4.5819,4.5819,0,0,1,820.064,472v7.458h-1.2695V472a3.3907,3.3907,0,0,0-.6875-2.4,2.6749,2.6749,0,0,0-2.01-.7089,3.08,3.08,0,0,0-2.1157.7773,4.6,4.6,0,0,0-1.2906,1.9307v7.8593h-1.269V468.0124h1.2163l.0425,1.9356a4.5551,4.5551,0,0,1,1.5757-1.5762,4.149,4.149,0,0,1,2.1582-.5713A3.5282,3.5282,0,0,1,819.128,468.8054Z"/><path d="M827.9029,479.5a3.246,3.246,0,0,1-.5977.1221,6.0922,6.0922,0,0,1-.7563.0479,2.4228,2.4228,0,0,1-1.84-.6875,3.3077,3.3077,0,0,1-.6562-2.3174v-7.6162H821.958v-1.0362h2.0943v-2.94h1.28v2.94h2.3589v1.0362h-2.3589v7.6162a2.1309,2.1309,0,0,0,.3965,1.497,1.4648,1.4648,0,0,0,1.0845.3965,6.2362,6.2362,0,0,0,1.0366-.1162Z"/><path d="M835.6363,469.0808a5.6815,5.6815,0,0,0-.8467-.0742,3.0331,3.0331,0,0,0-2.0415.6875,3.6868,3.6868,0,0,0-1.1319,1.872v7.8916h-1.269V468.0124h1.2373l.0317,1.7979a3.6993,3.6993,0,0,1,1.2852-1.4805,3.4511,3.4511,0,0,1,1.9307-.5293,3.1335,3.1335,0,0,1,.4653.0371,1.8884,1.8884,0,0,1,.3808.09Z"/><path d="M837.6143,470.5935a4.92,4.92,0,0,1,1.7929-2.0527,5.2175,5.2175,0,0,1,5.358,0,4.9055,4.9055,0,0,1,1.7983,2.0527,6.7405,6.7405,0,0,1,.6348,2.9726v.3379a6.7407,6.7407,0,0,1-.6348,2.9727,4.9229,4.9229,0,0,1-1.7876,2.0517,4.841,4.841,0,0,1-2.6763.7413,4.8066,4.8066,0,0,1-4.4853-2.793,6.7407,6.7407,0,0,1-.6348-2.9727v-.3379A6.7405,6.7405,0,0,1,837.6143,470.5935Zm1.0845,5.6592a3.9426,3.9426,0,0,0,1.3222,1.7031,3.4394,3.4394,0,0,0,2.0786.6348,3.3987,3.3987,0,0,0,2.0625-.6348,3.9642,3.9642,0,0,0,1.3169-1.7031,5.9932,5.9932,0,0,0,.45-2.3487v-.3379a5.883,5.883,0,0,0-.4546-2.3271,4.0575,4.0575,0,0,0-1.3276-1.7139,3.6272,3.6272,0,0,0-4.1309,0,4.0284,4.0284,0,0,0-1.3168,1.7139,5.9323,5.9323,0,0,0-.45,2.3271v.3379A5.9914,5.9914,0,0,0,838.6988,476.2527Z"/><path d="M849.97,479.4577V463.21h1.2588v16.248Z"/><path d="M710.2119,505.4548h-1.3012v-6.7383l.1162-6.8437-5.7437,13.582h-1.0049l-5.7124-13.54.1163,6.8017v6.7383h-1.3008V490.0534h1.7133l5.6915,13.5821,5.6909-13.5821h1.7348Z"/><path d="M713.7656,496.5906a4.9216,4.9216,0,0,1,1.793-2.0528,5.2179,5.2179,0,0,1,5.3579,0,4.9066,4.9066,0,0,1,1.7984,2.0528,6.7419,6.7419,0,0,1,.6347,2.9726v.3379a6.7426,6.7426,0,0,1-.6347,2.9727,4.9242,4.9242,0,0,1-1.7876,2.0517,4.8415,4.8415,0,0,1-2.6763.7412,4.8066,4.8066,0,0,1-4.4854-2.7929,6.7426,6.7426,0,0,1-.6347-2.9727v-.3379A6.7419,6.7419,0,0,1,713.7656,496.5906ZM714.85,502.25a3.9431,3.9431,0,0,0,1.3223,1.7032,3.4392,3.4392,0,0,0,2.0786.6347,3.3987,3.3987,0,0,0,2.0625-.6347A3.9652,3.9652,0,0,0,721.63,502.25a5.9927,5.9927,0,0,0,.45-2.3486v-.3379a5.8848,5.8848,0,0,0-.4546-2.3271,4.0583,4.0583,0,0,0-1.3276-1.7139,3.6272,3.6272,0,0,0-4.1309,0,4.0286,4.0286,0,0,0-1.3169,1.7139,5.934,5.934,0,0,0-.45,2.3271v.3379A5.9927,5.9927,0,0,0,714.85,502.25Z"/><path d="M734.7007,489.2068v16.248h-1.1851l-.0634-1.5342a3.9666,3.9666,0,0,1-1.4756,1.291,4.5784,4.5784,0,0,1-2.1.4551,3.7911,3.7911,0,0,1-2.3169-.7353,4.6882,4.6882,0,0,1-1.5337-2.0576,7.9608,7.9608,0,0,1-.54-3.0254v-.2217a8.1763,8.1763,0,0,1,.5342-3.084,4.4994,4.4994,0,0,1,1.5342-2.0312,3.9271,3.9271,0,0,1,2.3428-.7139,4.34,4.34,0,0,1,2.0683.4707,4.04,4.04,0,0,1,1.4649,1.3379v-6.3994Zm-2.5444,14.8037a3.7044,3.7044,0,0,0,1.2749-1.5069v-5.3945a3.95,3.95,0,0,0-1.2163-1.5976,3.2954,3.2954,0,0,0-2.0738-.6133,2.904,2.904,0,0,0-1.8828.6133,3.6206,3.6206,0,0,0-1.1318,1.6767,7.4056,7.4056,0,0,0-.37,2.4385v.2217a7.41,7.41,0,0,0,.37,2.4326,3.6152,3.6152,0,0,0,1.1216,1.6767,2.8732,2.8732,0,0,0,1.872.6084A3.5418,3.5418,0,0,0,732.1563,504.0105Z"/><path d="M746.6538,494.01v11.4453h-1.2163l-.0317-1.4492a4.087,4.087,0,0,1-3.6392,1.6611,3.65,3.65,0,0,1-2.7715-1.042,4.645,4.645,0,0,1-.9941-3.2949v-7.32h1.2695V501.35a3.4714,3.4714,0,0,0,.7246,2.4649,2.5438,2.5438,0,0,0,1.92.7509,3.8608,3.8608,0,0,0,2.29-.6084,3.117,3.117,0,0,0,1.1792-1.6552V494.01Z"/><path d="M750.1026,505.4548v-16.248h1.2588v16.248Z"/><path d="M755.4024,499.8064v.2431A5.2731,5.2731,0,0,0,755.9,502.35a4.0355,4.0355,0,0,0,1.3858,1.6446,3.5283,3.5283,0,0,0,2.0307.6035,4.1418,4.1418,0,0,0,1.8091-.376,3.8328,3.8328,0,0,0,1.396-1.19l.8042.6035a4.6763,4.6763,0,0,1-1.624,1.4756,5.0587,5.0587,0,0,1-6.9072-2.1631,6.2206,6.2206,0,0,1-.6612-2.8985v-.455a6.6153,6.6153,0,0,1,.6714-3.0362,5.0941,5.0941,0,0,1,1.7984-2.041,4.4465,4.4465,0,0,1,2.4384-.72,4.3859,4.3859,0,0,1,2.4434.667,4.1867,4.1867,0,0,1,1.5552,1.8506,6.6109,6.6109,0,0,1,.5288,2.7187v.7725Zm1.92-4.4541a3.6232,3.6232,0,0,0-1.2534,1.35,5.3057,5.3057,0,0,0-.6133,2.0254h6.8437V498.59a4.7469,4.7469,0,0,0-.3964-1.8408,3.2327,3.2327,0,0,0-1.1055-1.3594,2.9769,2.9769,0,0,0-1.7559-.5127A3.2018,3.2018,0,0,0,757.3223,495.3523Z"/><path d="M771.8838,494.3425a14.19,14.19,0,0,1,1.814-3.8769,7.6871,7.6871,0,0,1,2.2588-2.2852l.3066.8682a6.805,6.805,0,0,0-1.8511,2.1523,13.7536,13.7536,0,0,0-1.4228,3.5537,17.4445,17.4445,0,0,0-.5449,4.4375v.2119a17.4852,17.4852,0,0,0,.5449,4.4483,13.9362,13.9362,0,0,0,1.4228,3.5644,7.185,7.185,0,0,0,1.8511,2.1953l-.3066.8145a7.671,7.671,0,0,1-2.2637-2.2529,13.7614,13.7614,0,0,1-1.8091-3.8457,16.5762,16.5762,0,0,1-.7085-4.9454v-.1582A16.3555,16.3555,0,0,1,771.8838,494.3425Z"/><path d="M786.6294,490.63a4.0519,4.0519,0,0,1,1.7612,1.6074,4.718,4.718,0,0,1,.5977,2.4073,4.7666,4.7666,0,0,1-.5923,2.4433,3.8307,3.8307,0,0,1-1.7558,1.5547,6.7,6.7,0,0,1-2.835.54h-3.9458v6.2724h-1.3008V490.0534h5.2466A6.32,6.32,0,0,1,786.6294,490.63Zm.0952,6.5059a3.29,3.29,0,0,0,.9629-2.4707,3.7639,3.7639,0,0,0-.4126-1.7715,3.014,3.014,0,0,0-1.2851-1.2588,4.568,4.568,0,0,0-2.1846-.4707h-3.9458v6.9072h3.9458A4.04,4.04,0,0,0,786.7246,497.1355Z"/><path d="M801.1167,504.3493a5.6828,5.6828,0,0,1-3.9619,1.3174,5.39,5.39,0,0,1-3.0464-.8681,5.6635,5.6635,0,0,1-2.0307-2.4434,8.6743,8.6743,0,0,1-.7193-3.6387v-1.9248a8.664,8.664,0,0,1,.7193-3.6445,5.4339,5.4339,0,0,1,5.1621-3.3057,6.2849,6.2849,0,0,1,2.8242.5928,4.5688,4.5688,0,0,1,1.8935,1.7188,6.2681,6.2681,0,0,1,.857,2.7128h-1.3013q-.4973-3.9139-4.2734-3.914a4.1632,4.1632,0,0,0-2.4439.7246,4.5653,4.5653,0,0,0-1.5864,2.0371,7.8542,7.8542,0,0,0-.55,3.0566v1.9463a8.1359,8.1359,0,0,0,.5288,3.03,4.6169,4.6169,0,0,0,1.5444,2.0732,3.9745,3.9745,0,0,0,2.4224.7461,4.35,4.35,0,0,0,3.0571-.9677,4.6778,4.6778,0,0,0,1.3013-2.9463h1.3013A5.5388,5.5388,0,0,1,801.1167,504.3493Z"/><path d="M820.8184,505.4548h-1.3013v-6.7383l.1162-6.8437-5.7436,13.582h-1.0049l-5.7124-13.54.1162,6.8017v6.7383h-1.3008V490.0534h1.7134l5.6914,13.5821,5.6909-13.5821h1.7349Z"/><path d="M827.5039,504.3279a13.7726,13.7726,0,0,1-1.8091,3.8457,7.6708,7.6708,0,0,1-2.2636,2.2529l-.3067-.8145a6.9284,6.9284,0,0,0,1.8511-2.1738,13.93,13.93,0,0,0,1.4229-3.5752,17.6128,17.6128,0,0,0,.5449-4.459v-.2119a17.2221,17.2221,0,0,0-.5557-4.4375,14.1366,14.1366,0,0,0-1.4385-3.58,7.2132,7.2132,0,0,0-1.8247-2.18l.3067-.8145a7.6932,7.6932,0,0,1,2.2583,2.2852,14.1875,14.1875,0,0,1,1.8144,3.8769,16.3683,16.3683,0,0,1,.7085,4.8818v.1582A16.5891,16.5891,0,0,1,827.5039,504.3279Z"/><path class="cls-6" d="M687.2943-454.9506V51.3874a19.1237,19.1237,0,0,1-19.123,19.124H386.9953a19.1245,19.1245,0,0,1-19.124-19.124v-506.338a19.1238,19.1238,0,0,1,19.124-19.1239h281.176a19.1236,19.1236,0,0,1,19.123,19.1239"/><rect class="cls-28" x="458.1099" y="-375.3856" width="138.947" height="417.241"/><rect class="cls-29" x="618.672" y="39.9394" width="67.805" height="5.173"/><rect class="cls-8" x="618.672" y="17.7134" width="68.291" height="22.226"/><path class="cls-6" d="M664.48,28.728a8.4605,8.4605,0,1,1,8.461,8.4611,8.4606,8.4606,0,0,1-8.461-8.4611"/><rect class="cls-9" x="618.672" y="-4.5127" width="68.291" height="22.226"/><path class="cls-30" d="M664.48,6.5024a8.4605,8.4605,0,1,1,8.461,8.4611,8.4605,8.4605,0,0,1-8.461-8.4611"/><rect class="cls-8" x="368.2379" y="-1.9577" width="68.291" height="22.226"/><path class="cls-6" d="M390.7212,6.6979a8.4606,8.4606,0,1,1-8.4611-8.46,8.4609,8.4609,0,0,1,8.4611,8.46"/><rect class="cls-9" x="368.2378" y="17.7131" width="68.291" height="22.2255"/><path class="cls-30" d="M390.7212,28.9233a8.4606,8.4606,0,1,1-8.4611-8.46,8.46,8.46,0,0,1,8.4611,8.46"/><rect class="cls-28" x="440.418" y="-133.5947" width="174.827" height="176.1201"/><rect class="cls-2" x="440.418" y="26.3663" width="98.066" height="16.158"/><rect class="cls-10" x="538.484" y="26.3663" width="76.761" height="16.158"/><rect class="cls-7" x="489.0059" y="38.9463" width="12.408" height="21.756"/><rect class="cls-4" x="491.333" y="41.8553" width="7.367" height="13.959"/><path class="cls-8" d="M495.2094,49.3189a4.8956,4.8956,0,1,1-4.896,4.8961,4.8961,4.8961,0,0,1,4.896-4.8961"/><rect class="cls-7" x="501.3079" y="38.9463" width="12.408" height="21.756"/><rect class="cls-4" x="503.6339" y="41.8553" width="7.367" height="13.959"/><path class="cls-8" d="M507.5122,49.3189a4.8956,4.8956,0,1,1-4.8961,4.8961,4.8968,4.8968,0,0,1,4.8961-4.8961"/><rect class="cls-7" x="538.4839" y="38.9463" width="12.408" height="21.756"/><rect class="cls-4" x="540.8109" y="41.8553" width="7.367" height="13.959"/><path class="cls-8" d="M544.688,49.3189a4.8956,4.8956,0,1,1-4.8961,4.8961,4.896,4.896,0,0,1,4.8961-4.8961"/><rect class="cls-7" x="550.7869" y="38.9463" width="12.408" height="21.756"/><rect class="cls-4" x="553.1129" y="41.8553" width="7.367" height="13.959"/><path class="cls-8" d="M556.9906,49.3189a4.8956,4.8956,0,1,1-4.896,4.8961,4.8967,4.8967,0,0,1,4.896-4.8961"/><rect class="cls-7" x="513.7169" y="38.9463" width="12.408" height="21.756"/><rect class="cls-4" x="516.0429" y="41.8553" width="7.367" height="13.959"/><path class="cls-8" d="M519.92,49.3189a4.8956,4.8956,0,1,1-4.8961,4.8961,4.8968,4.8968,0,0,1,4.8961-4.8961"/><rect class="cls-7" x="526.0179" y="38.9463" width="12.408" height="21.756"/><rect class="cls-4" x="528.3449" y="41.8553" width="7.367" height="13.959"/><path class="cls-8" d="M532.2221,49.3189a4.8956,4.8956,0,1,1-4.896,4.8961,4.8961,4.8961,0,0,1,4.896-4.8961"/><rect class="cls-31" x="488.844" y="33.4223" width="12.408" height="5.524"/><rect class="cls-8" x="525.964" y="33.4223" width="12.408" height="5.524"/><rect class="cls-31" x="513.554" y="33.4223" width="12.409" height="5.524"/><rect class="cls-8" x="501.146" y="33.4223" width="12.408" height="5.524"/><rect class="cls-8" x="550.784" y="33.4223" width="12.408" height="5.524"/><rect class="cls-31" x="538.3759" y="33.4223" width="12.408" height="5.524"/><rect class="cls-32" x="441.0519" y="36.1853" width="12.408" height="5.523"/><rect class="cls-31" x="488.844" y="33.4223" width="12.408" height="5.524"/><rect class="cls-31" x="601.5979" y="36.1853" width="12.408" height="5.523"/><rect class="cls-32" x="423.2539" y="47.9574" width="30.206" height="12.514"/><text class="cls-33" transform="translate(433.5474 57.8005)">20</text><rect class="cls-31" x="600.141" y="47.9574" width="30.206" height="12.514"/><text class="cls-34" transform="translate(610.4341 57.8005)">10</text><path class="cls-2" d="M519.44,23.4888H492.456a3.6307,3.6307,0,0,1-3.6311-3.63V11.61a3.6307,3.6307,0,0,1,3.6311-3.63H519.44a3.63,3.63,0,0,1,3.63,3.63v8.2491a3.63,3.63,0,0,1-3.63,3.63"/><path class="cls-2" d="M532.3911,23.436h27.537a3.6621,3.6621,0,0,0,3.6629-3.662V11.59a3.6624,3.6624,0,0,0-3.6629-3.6631h-27.537a3.6637,3.6637,0,0,0-3.663,3.6631V19.774a3.6633,3.6633,0,0,0,3.663,3.662"/><rect class="cls-6" x="465.1699" y="13.5614" width="14.349" height="5.217"/><rect class="cls-6" x="488.8239" y="13.5614" width="14.349" height="5.217"/><rect class="cls-6" x="549.583" y="14.3594" width="14.349" height="5.217"/><rect class="cls-6" x="573.237" y="14.3594" width="14.349" height="5.217"/><path d="M1170.8374,352.8894a3.7411,3.7411,0,0,1,1.458,1.5371,4.85,4.85,0,0,1,.5225,2.291v.8858a4.8453,4.8453,0,0,1-.5225,2.2939,3.7259,3.7259,0,0,1-1.4677,1.5342,4.2946,4.2946,0,0,1-2.1748.542h-2.6319v-9.626h2.6914A4.1594,4.1594,0,0,1,1170.8374,352.8894Zm1.1739,3.8144a4.295,4.295,0,0,0-.41-1.9267,3.0366,3.0366,0,0,0-1.1563-1.2832,3.2776,3.2776,0,0,0-1.7324-.4522h-1.8779v8.2442h1.8184a3.3518,3.3518,0,0,0,1.7783-.4629,3.0623,3.0623,0,0,0,1.17-1.2959,4.303,4.303,0,0,0,.41-1.9238Z"/><path d="M1174.6685,356.4333a3.0769,3.0769,0,0,1,1.1211-1.2832,3.03,3.03,0,0,1,1.6689-.4629,3.002,3.002,0,0,1,2.8037,1.7461,4.22,4.22,0,0,1,.3965,1.8575v.2119a4.22,4.22,0,0,1-.3965,1.8574,3.0879,3.0879,0,0,1-1.1172,1.2832,3.0345,3.0345,0,0,1-1.6728.4619,2.999,2.999,0,0,1-2.8037-1.7451,4.2064,4.2064,0,0,1-.3965-1.8574v-.2119A4.2066,4.2066,0,0,1,1174.6685,356.4333Zm.6777,3.5371a2.47,2.47,0,0,0,.8262,1.0645,2.1561,2.1561,0,0,0,1.3.3965,2.1281,2.1281,0,0,0,1.2891-.3965,2.4792,2.4792,0,0,0,.8232-1.0645,3.7442,3.7442,0,0,0,.28-1.4677v-.2119a3.676,3.676,0,0,0-.2842-1.4542,2.535,2.535,0,0,0-.8291-1.0712,2.2675,2.2675,0,0,0-2.582,0,2.5223,2.5223,0,0,0-.8233,1.0712,3.7084,3.7084,0,0,0-.2812,1.4542v.2119A3.7445,3.7445,0,0,0,1175.3462,359.97Z"/><path d="M1187.687,354.82v7.1534h-.7607l-.02-.9053a2.5548,2.5548,0,0,1-2.2745,1.0371,2.2841,2.2841,0,0,1-1.7324-.65,2.906,2.906,0,0,1-.6211-2.06V354.82h.793v4.5879a2.1741,2.1741,0,0,0,.4531,1.5411,1.5924,1.5924,0,0,0,1.2.4687,2.4153,2.4153,0,0,0,1.4317-.38,1.9438,1.9438,0,0,0,.7363-1.0342V354.82Z"/><path d="M1194.2417,355.1335a2.7678,2.7678,0,0,1,.9424,1.2666,5.2423,5.2423,0,0,1,.3242,1.9307v.1387a5.1523,5.1523,0,0,1-.3242,1.8945,2.8568,2.8568,0,0,1-.9424,1.2822,2.3834,2.3834,0,0,1-1.4638.459,2.8859,2.8859,0,0,1-1.3331-.29,2.4871,2.4871,0,0,1-.9287-.8272l-.039.9854h-.7412V351.8181h.7939v4.0332a2.5056,2.5056,0,0,1,.9219-.8633,2.7328,2.7328,0,0,1,1.3125-.3008A2.46,2.46,0,0,1,1194.2417,355.1335Zm.4658,3.1973a3.9364,3.9364,0,0,0-.5185-2.1426,1.7431,1.7431,0,0,0-1.5772-.8125,2.0358,2.0358,0,0,0-1.3222.4063,2.5214,2.5214,0,0,0-.76,1.0546v3.2325a2.3427,2.3427,0,0,0,.793.9785,2.1949,2.1949,0,0,0,1.3027.37,1.784,1.784,0,0,0,1.1631-.38,2.2089,2.2089,0,0,0,.6943-1.0449,4.7271,4.7271,0,0,0,.2246-1.5234Z"/><path d="M1197.3462,361.9734V351.8181h.7861v10.1553Z"/><path d="M1200.6587,358.4431v.1523a3.2929,3.2929,0,0,0,.3106,1.4375,2.5309,2.5309,0,0,0,.8662,1.0284,2.2085,2.2085,0,0,0,1.27.3769,2.5739,2.5739,0,0,0,1.13-.2353,2.4031,2.4031,0,0,0,.873-.7432l.502.3769a2.9166,2.9166,0,0,1-1.0147.9219,3.1632,3.1632,0,0,1-4.3173-1.3515,3.8945,3.8945,0,0,1-.4131-1.8116V358.31a4.1431,4.1431,0,0,1,.42-1.8975,3.1827,3.1827,0,0,1,1.124-1.2754,2.78,2.78,0,0,1,1.5244-.45,2.7422,2.7422,0,0,1,1.5264.417,2.6127,2.6127,0,0,1,.9727,1.1573,4.1374,4.1374,0,0,1,.33,1.6992v.4824Zm1.1992-2.7832a2.2626,2.2626,0,0,0-.7832.8428,3.3231,3.3231,0,0,0-.3828,1.2656h4.2774v-.0859a2.9658,2.9658,0,0,0-.2481-1.15,2.01,2.01,0,0,0-.6914-.85,1.8567,1.8567,0,0,0-1.0967-.32A1.9994,1.9994,0,0,0,1201.8579,355.66Z"/><path d="M1142.68,380.7868a4.5953,4.5953,0,0,1-1.6816-1.375,3.3118,3.3118,0,0,1-.5928-1.9941,3.4238,3.4238,0,0,1,.6562-2.0732,4.2856,4.2856,0,0,1,1.835-1.4014,6.7851,6.7851,0,0,1,2.6816-.5029,6.07,6.07,0,0,1,2.7774.6084,4.527,4.527,0,0,1,1.8506,1.6552,4.3424,4.3424,0,0,1,.65,2.3379h-1.3008a3.4322,3.4322,0,0,0-.4756-1.7978,3.2547,3.2547,0,0,0-1.376-1.2432,4.7,4.7,0,0,0-2.126-.45,5.231,5.231,0,0,0-2.1.3809,3.0255,3.0255,0,0,0-1.3174,1.0215,2.4567,2.4567,0,0,0-.4443,1.4326,2.33,2.33,0,0,0,.3916,1.3388,3.4981,3.4981,0,0,0,1.291,1.0518,11.8959,11.8959,0,0,0,2.4434.8887,13.6994,13.6994,0,0,1,2.8349,1.0576,4.6677,4.6677,0,0,1,1.6973,1.4492,3.5789,3.5789,0,0,1,.5879,2.0733,3.4839,3.4839,0,0,1-.6777,2.1376,4.27,4.27,0,0,1-1.8828,1.3956,7.2722,7.2722,0,0,1-2.7393.4873,7.76,7.76,0,0,1-2.7715-.4971,4.9505,4.9505,0,0,1-2.1474-1.5342,3.9785,3.9785,0,0,1-.836-2.581h1.3115a3.09,3.09,0,0,0,.6407,2.0146,3.6219,3.6219,0,0,0,1.6494,1.1426,6.46,6.46,0,0,0,2.1533.3545,5.6643,5.6643,0,0,0,2.1-.3594,3.1369,3.1369,0,0,0,1.3965-1.0205,2.4771,2.4771,0,0,0,.4912-1.5186,2.6181,2.6181,0,0,0-.3906-1.4648,3.3556,3.3556,0,0,0-1.2959-1.0684,13.75,13.75,0,0,0-2.5235-.9257A15.0946,15.0946,0,0,1,1142.68,380.7868Z"/><path d="M1153.4068,380.1892a4.9136,4.9136,0,0,1,1.7929-2.0527,5.2166,5.2166,0,0,1,5.3575,0,4.9044,4.9044,0,0,1,1.7978,2.0527,6.7281,6.7281,0,0,1,.6348,2.9726V383.5a6.7282,6.7282,0,0,1-.6348,2.9727,4.919,4.919,0,0,1-1.7871,2.0517,4.8406,4.8406,0,0,1-2.6768.7413,4.8052,4.8052,0,0,1-4.4843-2.793,6.7268,6.7268,0,0,1-.6348-2.9727v-.3379A6.7267,6.7267,0,0,1,1153.4068,380.1892Zm1.0839,5.6592a3.9473,3.9473,0,0,0,1.3223,1.7031,3.44,3.44,0,0,0,2.0781.6348,3.4038,3.4038,0,0,0,2.0635-.6348,3.9639,3.9639,0,0,0,1.3164-1.7031,5.993,5.993,0,0,0,.45-2.3487v-.3379a5.8832,5.8832,0,0,0-.4551-2.3271,4.0554,4.0554,0,0,0-1.3281-1.7139,3.6271,3.6271,0,0,0-4.1308,0,4.0316,4.0316,0,0,0-1.3165,1.7139,5.9338,5.9338,0,0,0-.4492,2.3271V383.5A5.9926,5.9926,0,0,0,1154.4907,385.8484Z"/><path d="M1165.7613,389.0534v-16.248h1.2587v16.248Z"/><path d="M1171.062,383.405v.2432a5.2665,5.2665,0,0,0,.4971,2.3008,4.0364,4.0364,0,0,0,1.3857,1.6445,3.529,3.529,0,0,0,2.0313.6035,4.1427,4.1427,0,0,0,1.8086-.376,3.8341,3.8341,0,0,0,1.3965-1.19l.8037.6035a4.6666,4.6666,0,0,1-1.624,1.4756,5.0589,5.0589,0,0,1-6.9073-2.1631,6.2152,6.2152,0,0,1-.6611-2.8984v-.4551a6.6072,6.6072,0,0,1,.6719-3.0361,5.0888,5.0888,0,0,1,1.7978-2.0411,4.4467,4.4467,0,0,1,2.4385-.72,4.3869,4.3869,0,0,1,2.4434.667,4.1857,4.1857,0,0,1,1.5547,1.8506,6.6109,6.6109,0,0,1,.5293,2.7187v.7725Zm1.92-4.4541a3.62,3.62,0,0,0-1.2539,1.35,5.3121,5.3121,0,0,0-.6133,2.0254h6.8437v-.1377a4.74,4.74,0,0,0-.3965-1.8408,3.2325,3.2325,0,0,0-1.1054-1.3594,2.9771,2.9771,0,0,0-1.7559-.5127A3.1986,3.1986,0,0,0,1172.982,378.9509Z"/><path d="M1189.3989,378.4011a4.5814,4.5814,0,0,1,.9356,3.1943v7.458h-1.2686v-7.458a3.3931,3.3931,0,0,0-.6875-2.4,2.676,2.676,0,0,0-2.01-.7089,3.0806,3.0806,0,0,0-2.1162.7773,4.6,4.6,0,0,0-1.29,1.9307v7.8593h-1.2695V377.6081h1.2158l.043,1.9356a4.5607,4.5607,0,0,1,1.5762-1.5762,4.1442,4.1442,0,0,1,2.1572-.5713A3.5275,3.5275,0,0,1,1189.3989,378.4011Z"/><path d="M1193.5728,380.1892a4.9136,4.9136,0,0,1,1.7929-2.0527,5.2166,5.2166,0,0,1,5.3575,0,4.9037,4.9037,0,0,1,1.7978,2.0527,6.7281,6.7281,0,0,1,.6348,2.9726V383.5a6.7282,6.7282,0,0,1-.6348,2.9727,4.9183,4.9183,0,0,1-1.7871,2.0517,4.84,4.84,0,0,1-2.6767.7413,4.8052,4.8052,0,0,1-4.4844-2.793,6.7268,6.7268,0,0,1-.6348-2.9727v-.3379A6.7267,6.7267,0,0,1,1193.5728,380.1892Zm1.084,5.6592a3.9463,3.9463,0,0,0,1.3222,1.7031,3.44,3.44,0,0,0,2.0782.6348,3.4037,3.4037,0,0,0,2.0634-.6348,3.9632,3.9632,0,0,0,1.3164-1.7031,5.993,5.993,0,0,0,.45-2.3487v-.3379a5.8849,5.8849,0,0,0-.455-2.3271,4.0556,4.0556,0,0,0-1.3282-1.7139,3.6271,3.6271,0,0,0-4.1308,0,4.0307,4.0307,0,0,0-1.3164,1.7139,5.9339,5.9339,0,0,0-.4493,2.3271V383.5A5.9927,5.9927,0,0,0,1194.6568,385.8484Z"/><path d="M1207.2027,373.6833a.8434.8434,0,0,1,.2373.6133.81.81,0,0,1-.2373.5977.8648.8648,0,0,1-.6407.2382.8477.8477,0,0,1-.6289-.2382.8074.8074,0,0,1-.2383-.5977.8248.8248,0,0,1,.8672-.8564A.8561.8561,0,0,1,1207.2027,373.6833Zm-1.2754,15.37V377.6081h1.2588v11.4453Z"/><path d="M1219.3726,372.8054v16.248h-1.1846l-.0635-1.5341a3.9667,3.9667,0,0,1-1.4756,1.291,4.5794,4.5794,0,0,1-2.1.4551,3.7879,3.7879,0,0,1-2.3164-.7354,4.68,4.68,0,0,1-1.5341-2.0576,7.9605,7.9605,0,0,1-.5391-3.0254v-.2217a8.1649,8.1649,0,0,1,.5342-3.084,4.4935,4.4935,0,0,1,1.5332-2.0312,3.93,3.93,0,0,1,2.3437-.7139,4.3376,4.3376,0,0,1,2.0674.4707,4.0332,4.0332,0,0,1,1.4649,1.3379v-6.3994Zm-2.544,14.8037a3.7,3.7,0,0,0,1.2745-1.5068v-5.3946a3.9445,3.9445,0,0,0-1.2159-1.5976,3.2957,3.2957,0,0,0-2.0732-.6133,2.9028,2.9028,0,0,0-1.8828.6133,3.6143,3.6143,0,0,0-1.1319,1.6767,7.3951,7.3951,0,0,0-.37,2.4385v.2217a7.4,7.4,0,0,0,.37,2.4326,3.6086,3.6086,0,0,0,1.1211,1.6768,2.8738,2.8738,0,0,0,1.8721.6084A3.5415,3.5415,0,0,0,1216.8286,387.6091Z"/><path d="M1224.2974,383.0447a3.2768,3.2768,0,0,1-1.3164-1.0049,2.4988,2.4988,0,0,1-.4551-1.5332,2.6613,2.6613,0,0,1,.4971-1.5655,3.3918,3.3918,0,0,1,1.4121-1.1269,5.0657,5.0657,0,0,1,2.1211-.418,5.3671,5.3671,0,0,1,2.2578.4395,3.3765,3.3765,0,0,1,1.4658,1.2158,3.1556,3.1556,0,0,1,.5078,1.7617h-1.28a2.0625,2.0625,0,0,0-.35-1.1426,2.4639,2.4639,0,0,0-1.0205-.8672,3.5659,3.5659,0,0,0-1.581-.3281,3.7277,3.7277,0,0,0-1.5606.2862,2.0963,2.0963,0,0,0-.915.74,1.8155,1.8155,0,0,0-.0576,1.8935,2.0944,2.0944,0,0,0,.9043.6983,9.7152,9.7152,0,0,0,1.914.6025,10.4375,10.4375,0,0,1,2.29.7666,3.306,3.306,0,0,1,1.2959,1.0684,2.6954,2.6954,0,0,1,.4238,1.539,2.7747,2.7747,0,0,1-.5244,1.6612,3.3745,3.3745,0,0,1-1.4805,1.1318,6.3608,6.3608,0,0,1-4.6279-.0683,3.656,3.656,0,0,1-1.5449-1.2588,2.99,2.99,0,0,1-.5284-1.6983h1.2588a2.1072,2.1072,0,0,0,1.02,1.793,4.2453,4.2453,0,0,0,2.2061.5557,4.0387,4.0387,0,0,0,1.5967-.2862,2.3871,2.3871,0,0,0,1.0107-.751,1.6749,1.6749,0,0,0,.3438-1.0156,1.899,1.899,0,0,0-.6563-1.4277,5.2146,5.2146,0,0,0-2.4121-.9834A10.8564,10.8564,0,0,1,1224.2974,383.0447Z"/><path d="M1169.8032,402.8425a2.8742,2.8742,0,0,1-1.0517-.8594,2.0688,2.0688,0,0,1-.37-1.2461,2.1417,2.1417,0,0,1,.41-1.2959,2.6745,2.6745,0,0,1,1.1465-.8759,4.2479,4.2479,0,0,1,1.6758-.3145,3.7885,3.7885,0,0,1,1.7363.3809,2.82,2.82,0,0,1,1.1563,1.0342,2.7108,2.7108,0,0,1,.4072,1.4609H1174.1a2.141,2.141,0,0,0-.2978-1.1231,2.0309,2.0309,0,0,0-.8594-.7773,2.9345,2.9345,0,0,0-1.3291-.2813,3.2746,3.2746,0,0,0-1.3115.2383,1.8855,1.8855,0,0,0-.8233.6377,1.5334,1.5334,0,0,0-.2783.8965,1.4517,1.4517,0,0,0,.2451.8359,2.18,2.18,0,0,0,.8067.6582,7.455,7.455,0,0,0,1.5273.5547,8.623,8.623,0,0,1,1.7715.6612,2.9162,2.9162,0,0,1,1.0615.9062,2.239,2.239,0,0,1,.3662,1.2959,2.1734,2.1734,0,0,1-.4228,1.335,2.6652,2.6652,0,0,1-1.1768.873,4.5327,4.5327,0,0,1-1.7119.3037,4.8472,4.8472,0,0,1-1.7324-.31,3.09,3.09,0,0,1-1.3418-.958,2.4872,2.4872,0,0,1-.5225-1.6133h.8194a1.9323,1.9323,0,0,0,.4,1.2588,2.2636,2.2636,0,0,0,1.0312.7148,4.0381,4.0381,0,0,0,1.3457.2207,3.5166,3.5166,0,0,0,1.3115-.2246,1.9526,1.9526,0,0,0,.8731-.6377,1.547,1.547,0,0,0,.3076-.9492,1.6336,1.6336,0,0,0-.2451-.915,2.0927,2.0927,0,0,0-.81-.668,8.5166,8.5166,0,0,0-1.5771-.5781A9.4078,9.4078,0,0,1,1169.8032,402.8425Z"/><path d="M1177.4351,398.4031a.5255.5255,0,0,1,.1494.3837.5041.5041,0,0,1-.1494.3731.5378.5378,0,0,1-.3994.1494.5317.5317,0,0,1-.3936-.1494.5072.5072,0,0,1-.1484-.3731.5583.5583,0,0,1,.9414-.3837Zm-.7959,9.6064v-7.1533h.7861V408.01Z"/><path d="M1184.4107,401.3523a2.8629,2.8629,0,0,1,.5849,1.9961V408.01h-.7929v-4.6611a2.1241,2.1241,0,0,0-.43-1.501,1.6746,1.6746,0,0,0-1.2569-.4424,1.929,1.929,0,0,0-1.3222.4854,2.8809,2.8809,0,0,0-.8057,1.207V408.01h-.7939v-7.1533h.7607l.0264,1.21a2.8477,2.8477,0,0,1,.9843-.9853,2.5917,2.5917,0,0,1,1.35-.3574A2.2027,2.2027,0,0,1,1184.4107,401.3523Z"/><path d="M1192.5005,400.8562v7.0273a3.3789,3.3789,0,0,1-.3545,1.5938,2.4458,2.4458,0,0,1-1.001,1.0312,3.0868,3.0868,0,0,1-1.5146.3574,3.2858,3.2858,0,0,1-1.3916-.3173,2.7251,2.7251,0,0,1-1.1006-.9063l.4434-.4824a2.8378,2.8378,0,0,0,.9189.78,2.3668,2.3668,0,0,0,1.084.2509,2.027,2.027,0,0,0,1.5674-.6015,2.3843,2.3843,0,0,0,.5547-1.68v-.833a2.5161,2.5161,0,0,1-.9258.7871,2.8564,2.8564,0,0,1-1.2959.2773,2.3771,2.3771,0,0,1-1.4541-.4589,2.9114,2.9114,0,0,1-.9551-1.2862,5.0121,5.0121,0,0,1-.334-1.8906v-.1387a5.1674,5.1674,0,0,1,.33-1.9277,2.8029,2.8029,0,0,1,.9521-1.27,2.4658,2.4658,0,0,1,1.4747-.4463,2.71,2.71,0,0,1,1.3086.3007,2.5164,2.5164,0,0,1,.92.8633l.0322-1.0312Zm-1.58,6.2441a2.2981,2.2981,0,0,0,.7862-.9687v-3.3057a2.4134,2.4134,0,0,0-.75-1.0215,2.0526,2.0526,0,0,0-1.3057-.3926,1.8129,1.8129,0,0,0-1.1768.3829,2.2673,2.2673,0,0,0-.708,1.0478,4.6267,4.6267,0,0,0-.2314,1.5244v.1387a4.6309,4.6309,0,0,0,.2314,1.52,2.2559,2.2559,0,0,0,.7012,1.0479,1.7955,1.7955,0,0,0,1.17.38A2.1951,2.1951,0,0,0,1190.92,407.1Z"/><path d="M1194.6685,408.01V397.8542h.7861V408.01Z"/><path d="M1197.981,404.4792v.1524a3.2946,3.2946,0,0,0,.3105,1.4375,2.532,2.532,0,0,0,.8662,1.0283,2.2083,2.2083,0,0,0,1.27.3769,2.5742,2.5742,0,0,0,1.13-.2353,2.4047,2.4047,0,0,0,.873-.7432l.502.377a2.9186,2.9186,0,0,1-1.0147.9219,3.1635,3.1635,0,0,1-4.3174-1.3516,3.8943,3.8943,0,0,1-.4131-1.8115v-.2852a4.1424,4.1424,0,0,1,.42-1.8974,3.1819,3.1819,0,0,1,1.124-1.2754,2.78,2.78,0,0,1,1.5244-.45,2.7416,2.7416,0,0,1,1.5264.417,2.6111,2.6111,0,0,1,.9726,1.1572,4.138,4.138,0,0,1,.33,1.6992v.4824Zm1.1992-2.7832a2.2626,2.2626,0,0,0-.7832.8428,3.3207,3.3207,0,0,0-.3828,1.2656h4.2773v-.0859a2.9675,2.9675,0,0,0-.248-1.15,2.012,2.012,0,0,0-.6914-.85,1.8567,1.8567,0,0,0-1.0967-.32A2,2,0,0,0,1199.18,401.696Z"/><path d="M448.9063,87.4548V80.5154l-2.0894.7783v-.5928l2.6182-.9785h.1055v7.7324Z"/><path d="M456.9561,84.239a1.8522,1.8522,0,0,1,.3965,1.1738,2.0693,2.0693,0,0,1-.32,1.167,2.0073,2.0073,0,0,1-.8755.7324,3.3038,3.3038,0,0,1-2.5122,0,2.0071,2.0071,0,0,1-.875-.7324,2.07,2.07,0,0,1-.32-1.167,1.88,1.88,0,0,1,.3916-1.1767,2.1838,2.1838,0,0,1,1.0523-.7373,1.9778,1.9778,0,0,1-.91-.6954,1.8007,1.8007,0,0,1-.333-1.0712,2.1048,2.1048,0,0,1,.2881-1.1216,1.8664,1.8664,0,0,1,.7959-.7163,2.85,2.85,0,0,1,2.3169,0,1.8942,1.8942,0,0,1,.8066.7163,2.0811,2.0811,0,0,1,.2935,1.1216,1.7593,1.7593,0,0,1-.3413,1.0683,2.0685,2.0685,0,0,1-.9175.6983A2.2535,2.2535,0,0,1,456.9561,84.239Zm-1.1079,2.5947a1.459,1.459,0,0,0,.64-.5527,1.5916,1.5916,0,0,0,.2305-.8682,1.551,1.551,0,0,0-.2383-.8535,1.6019,1.6019,0,0,0-.6533-.5791,2.2142,2.2142,0,0,0-1.87,0,1.557,1.557,0,0,0-.6426.5762,1.7349,1.7349,0,0,0,0,1.7265,1.4593,1.4593,0,0,0,.64.5508,2.4842,2.4842,0,0,0,1.8936,0Zm-2.3618-4.31a1.3843,1.3843,0,0,0,.5742.5254,1.9806,1.9806,0,0,0,1.6738,0,1.3979,1.3979,0,0,0,.5791-.5254,1.5276,1.5276,0,0,0-.59-2.1372,1.727,1.727,0,0,0-.83-.1983,1.8048,1.8048,0,0,0-.833.1875,1.3853,1.3853,0,0,0-.5742.5371,1.5844,1.5844,0,0,0-.2061.82A1.5011,1.5011,0,0,0,453.4864,82.5232Z"/><path d="M465.6944,85.2966h-3.5015l-.7935,2.1582h-.6767l2.9087-7.7007h.6191l2.9141,7.7007h-.6768Zm-.2066-.5547-1.5444-4.1948-1.544,4.1948Z"/><path d="M476.7588,79.7541l-1.9673,7.7007h-.624l-1.751-6.0244-.19-.7666-.1953.7666-1.7827,6.0244h-.6241l-1.9726-7.7007h.6665l1.4067,5.6226.2432,1.1953.291-1.1484,1.6714-5.6695h.5869l1.645,5.6695.291,1.1533.2486-1.2061,1.3911-5.6167Z"/><path d="M483.0772,87a3.0248,3.0248,0,0,1-.8833.3965,4.5848,4.5848,0,0,1-1.2984.1641A3.0039,3.0039,0,0,1,479.29,87.13a2.903,2.903,0,0,1-1.0923-1.23,4.1712,4.1712,0,0,1-.3911-1.8564v-.9365a4.3164,4.3164,0,0,1,.3623-1.8331,2.7411,2.7411,0,0,1,1.0366-1.2026,2.9251,2.9251,0,0,1,1.5893-.4233,3.2021,3.2021,0,0,1,1.4229.291,2.29,2.29,0,0,1,.9282.8037,2.7624,2.7624,0,0,1,.42,1.18h-.6508a1.9283,1.9283,0,0,0-2.1207-1.7193,2.1789,2.1789,0,0,0-1.2641.36,2.2357,2.2357,0,0,0-.7959,1.01,3.9244,3.9244,0,0,0-.2725,1.5234v.9473a3.78,3.78,0,0,0,.3013,1.56,2.3842,2.3842,0,0,0,.8545,1.04,2.26,2.26,0,0,0,1.2822.3672,3.92,3.92,0,0,0,.96-.1055,2.7024,2.7024,0,0,0,.6772-.2568,1.3587,1.3587,0,0,0,.3887-.31V84.35h-2.0679v-.5556h2.7134v2.74A2.02,2.02,0,0,1,483.0772,87Z"/><polyline class="cls-35" points="839.533 301.296 906.462 301.464 906.462 -48.677"/><polyline class="cls-36" points="839.533 311.964 909.327 312.167 909.327 -46.183"/><path d="M859.9322,330.529v-.4922l2.5229-2.8554a8.0392,8.0392,0,0,0,.9971-1.33,2.1078,2.1078,0,0,0,.2881-1.0078,1.7491,1.7491,0,0,0-.188-.8281,1.3176,1.3176,0,0,0-.55-.5547,1.9759,1.9759,0,0,0-1.7906.0312,1.5637,1.5637,0,0,0-.603.6348,1.9658,1.9658,0,0,0-.2114.9228h-.6348a2.4165,2.4165,0,0,1,.2886-1.1718,2.1434,2.1434,0,0,1,.8247-.8428,2.4563,2.4563,0,0,1,1.2563-.3125,2.6965,2.6965,0,0,1,1.1929.2461,1.7862,1.7862,0,0,1,.7774.7109,2.1509,2.1509,0,0,1,.2724,1.1055,2.5455,2.5455,0,0,1-.4018,1.3066,10.235,10.235,0,0,1-1.1109,1.4756L860.71,329.99h4.0518v.539Z"/><path d="M870.2935,327.3132a1.8522,1.8522,0,0,1,.3965,1.1738,2.0693,2.0693,0,0,1-.32,1.167,2.0085,2.0085,0,0,1-.8754.7325,3.3053,3.3053,0,0,1-2.5123,0,2.008,2.008,0,0,1-.875-.7325,2.07,2.07,0,0,1-.32-1.167,1.88,1.88,0,0,1,.3916-1.1767,2.1842,2.1842,0,0,1,1.0523-.7373,1.9783,1.9783,0,0,1-.91-.6953,1.801,1.801,0,0,1-.333-1.0713,2.1021,2.1021,0,0,1,.2881-1.1211,1.8643,1.8643,0,0,1,.7959-.7168,2.85,2.85,0,0,1,2.3169,0,1.892,1.892,0,0,1,.8066.7168,2.0784,2.0784,0,0,1,.2935,1.1211,1.7593,1.7593,0,0,1-.3413,1.0683,2.0685,2.0685,0,0,1-.9175.6983A2.2542,2.2542,0,0,1,870.2935,327.3132Zm-1.1079,2.5947a1.4578,1.4578,0,0,0,.64-.5527,1.5916,1.5916,0,0,0,.2305-.8682,1.551,1.551,0,0,0-.2383-.8535,1.6019,1.6019,0,0,0-.6533-.5791,2.2142,2.2142,0,0,0-1.87,0,1.557,1.557,0,0,0-.6426.5762,1.7351,1.7351,0,0,0,0,1.7266,1.4591,1.4591,0,0,0,.64.5507,2.4842,2.4842,0,0,0,1.8936,0Zm-2.3618-4.31a1.3836,1.3836,0,0,0,.5742.5254,1.9806,1.9806,0,0,0,1.6738,0,1.3972,1.3972,0,0,0,.5791-.5254,1.5266,1.5266,0,0,0-.59-2.1367,1.723,1.723,0,0,0-.83-.1992,1.8052,1.8052,0,0,0-.833.1884,1.3825,1.3825,0,0,0-.5742.5362,1.5881,1.5881,0,0,0-.2061.82A1.5009,1.5009,0,0,0,866.8238,325.5974Z"/><path d="M879.0318,328.3708H875.53l-.7935,2.1582H874.06l2.9087-7.7011h.6191l2.9141,7.7011h-.6768Zm-.2066-.5547-1.5444-4.1943-1.544,4.1943Z"/><path d="M890.0962,322.8279l-1.9673,7.7011h-.624l-1.751-6.0244-.19-.7666-.1953.7666-1.7827,6.0244h-.6241l-1.9726-7.7011h.6665l1.4067,5.623.2432,1.1953.291-1.1484,1.6714-5.67h.5869l1.645,5.67.2911,1.1533.2485-1.2061,1.3911-5.6171Z"/><path d="M896.4141,330.074a3.0275,3.0275,0,0,1-.8833.3964,4.5848,4.5848,0,0,1-1.2984.1641,3.0041,3.0041,0,0,1-1.6054-.4307,2.903,2.903,0,0,1-1.0923-1.2295,4.1712,4.1712,0,0,1-.3911-1.8564v-.9365a4.3156,4.3156,0,0,1,.3623-1.833,2.7449,2.7449,0,0,1,1.0366-1.2032,2.925,2.925,0,0,1,1.5894-.4228,3.1964,3.1964,0,0,1,1.4228.291,2.2871,2.2871,0,0,1,.9282.8037,2.76,2.76,0,0,1,.42,1.18h-.6508a1.9271,1.9271,0,0,0-2.1206-1.7187,2.1751,2.1751,0,0,0-1.2642.3593,2.2364,2.2364,0,0,0-.7959,1.01,3.9266,3.9266,0,0,0-.2725,1.5234v.9473a3.78,3.78,0,0,0,.3013,1.56,2.3842,2.3842,0,0,0,.8545,1.04,2.26,2.26,0,0,0,1.2822.3672,3.92,3.92,0,0,0,.96-.1055,2.7024,2.7024,0,0,0,.6772-.2568,1.3556,1.3556,0,0,0,.3887-.31v-1.9883h-2.0679v-.5556h2.7134v2.74A2.0223,2.0223,0,0,1,896.4141,330.074Z"/><polyline class="cls-37" points="830.569 394.702 890.273 394.403 890.273 456.803 1035.877 456.803"/><polyline class="cls-38" points="830.569 383.999 893.043 384.166 893.043 445.743 1035.877 445.914"/><polyline class="cls-38" points="832.313 340.26 986.694 340.428 986.694 270.067 1036.241 270.067"/><polyline class="cls-37" points="830.933 351.131 989.648 350.598 989.648 281.127 1036.241 281.127"/><path class="cls-38" d="M830.9331,361.8345s179.3939.934,179.3939-.167V341.3556l368.903-.07v-61.372h-47.4239"/><polyline class="cls-37" points="830.933 372.371 1012.912 372.371 1012.912 344.484 1382.184 344.101 1382.184 270.067 1331.806 270.067"/><rect class="cls-39" x="1209.872" y="415.6224" width="7.8571" height="60.24"/><polygon class="cls-40" points="1259.744 496.701 1233.068 496.701 1228.132 474.582 1139.95 474.582 1135.015 496.701 1108.34 496.701 1108.34 416.904 1259.744 416.904 1259.744 496.701"/><rect class="cls-39" x="1152.178" y="415.7933" width="7.8571" height="60.239"/><path class="cls-41" d="M1165.9945,428.8893h37.918a1.92,1.92,0,0,1,1.921,1.921v30.207a1.92,1.92,0,0,1-1.921,1.92h-37.918a1.9194,1.9194,0,0,1-1.921-1.92V430.81a1.92,1.92,0,0,1,1.921-1.921"/><line class="cls-42" x1="1224.8588" y1="474.5816" x2="1224.8588" y2="416.9037"/><line class="cls-42" x1="1142.7934" y1="474.5816" x2="1142.7934" y2="416.9037"/><path class="cls-40" d="M1167.3979,430.15h35.1109a1.7782,1.7782,0,0,1,1.7789,1.7781v27.97a1.7789,1.7789,0,0,1-1.7789,1.779h-35.1109a1.7788,1.7788,0,0,1-1.7781-1.779v-27.97a1.7781,1.7781,0,0,1,1.7781-1.7781"/><rect class="cls-43" x="1064.3878" y="418.1943" width="45.9821" height="27.72"/><path class="cls-44" d="M1068.7963,427.9429h-4.4091v9.008h4.4091a3.2408,3.2408,0,0,0,3.24-3.241v-2.526a3.2409,3.2409,0,0,0-3.24-3.241"/><path class="cls-45" d="M1056.5346,437.5464h7.8539V503.46h-7.8539a3.0174,3.0174,0,0,1-3.0171-3.017v-59.88a3.0174,3.0174,0,0,1,3.0171-3.0171"/><rect class="cls-45" x="1035.876" y="440.5964" width="17.832" height="20.231"/><path class="cls-46" d="M1108.4369,503.4606h-42.1151a1.9333,1.9333,0,0,1-1.934-1.933v-53.681a1.9333,1.9333,0,0,1,1.934-1.933h42.1151a1.9331,1.9331,0,0,1,1.933,1.933v53.681a1.9331,1.9331,0,0,1-1.933,1.933"/><path class="cls-47" d="M1080.643,454.1158a1.4927,1.4927,0,1,0-1.4931,1.4741,1.4839,1.4839,0,0,0,1.4931-1.4741"/><path class="cls-47" d="M1096.0619,454.1158a1.4921,1.4921,0,1,0-1.4921,1.4741,1.483,1.483,0,0,0,1.4921-1.4741"/><rect class="cls-39" x="1210.236" y="239.9474" width="7.8571" height="60.239"/><polygon class="cls-40" points="1260.108 321.025 1233.432 321.025 1228.497 298.906 1140.315 298.906 1135.379 321.025 1108.704 321.025 1108.704 241.228 1260.108 241.228 1260.108 321.025"/><rect class="cls-39" x="1152.5419" y="240.1173" width="7.8571" height="60.239"/><path class="cls-41" d="M1166.3578,253.2134h37.919a1.9217,1.9217,0,0,1,1.921,1.921v30.2071a1.9222,1.9222,0,0,1-1.921,1.9209h-37.919a1.9206,1.9206,0,0,1-1.92-1.9209V255.1344a1.92,1.92,0,0,1,1.92-1.921"/><line class="cls-42" x1="1225.2221" y1="298.9059" x2="1225.2221" y2="241.2279"/><line class="cls-42" x1="1143.1576" y1="298.9059" x2="1143.1576" y2="241.2279"/><path class="cls-40" d="M1167.7621,254.4742h35.111a1.7788,1.7788,0,0,1,1.7789,1.778v27.971a1.7788,1.7788,0,0,1-1.7789,1.778h-35.111a1.778,1.778,0,0,1-1.7781-1.778v-27.971a1.778,1.778,0,0,1,1.7781-1.778"/><rect class="cls-43" x="1258.0709" y="242.5193" width="45.397" height="27.719"/><path class="cls-44" d="M1299.1371,252.2681h4.3309v9.007h-4.3309a3.221,3.221,0,0,1-3.2211-3.221v-2.566a3.22,3.22,0,0,1,3.2211-3.22"/><path class="cls-45" d="M1311.2025,261.8706h-7.7351v65.9151h7.7351a2.9984,2.9984,0,0,0,2.998-2.998v-59.919a2.9985,2.9985,0,0,0-2.998-2.9981"/><rect class="cls-45" x="1314.201" y="264.9223" width="17.605" height="20.23"/><path class="cls-46" d="M1259.9916,327.7856h41.5559a1.9207,1.9207,0,0,0,1.92-1.9209v-53.706a1.9208,1.9208,0,0,0-1.92-1.9211h-41.5559a1.9209,1.9209,0,0,0-1.921,1.9211v53.706a1.9209,1.9209,0,0,0,1.921,1.9209"/><path class="cls-47" d="M1287.6088,278.44a1.473,1.473,0,1,1,1.4729,1.4741,1.4728,1.4728,0,0,1-1.4729-1.4741"/><path class="cls-47" d="M1272.3852,278.44a1.473,1.473,0,1,1,1.4729,1.4741,1.4728,1.4728,0,0,1-1.4729-1.4741"/><rect class="cls-43" x="1064.7519" y="242.5193" width="45.9821" height="27.719"/><path class="cls-44" d="M1069.16,252.2681h-4.4081v9.007h4.4081a3.2409,3.2409,0,0,0,3.2409-3.2409v-2.526a3.24,3.24,0,0,0-3.2409-3.24"/><path class="cls-45" d="M1056.8988,261.8706h7.8539v65.9151h-7.8539a3.0177,3.0177,0,0,1-3.018-3.018v-59.879a3.0184,3.0184,0,0,1,3.018-3.0181"/><rect class="cls-45" x="1036.241" y="264.9223" width="17.832" height="20.23"/><path class="cls-46" d="M1108.8,327.7856h-42.114a1.9334,1.9334,0,0,1-1.9341-1.9339V272.1706a1.9327,1.9327,0,0,1,1.9341-1.933H1108.8a1.9333,1.9333,0,0,1,1.934,1.933v53.6811a1.9341,1.9341,0,0,1-1.934,1.9339"/><path class="cls-47" d="M1081.0062,278.44a1.4921,1.4921,0,1,0-1.492,1.4741,1.4828,1.4828,0,0,0,1.492-1.4741"/><path class="cls-47" d="M1096.4262,278.44a1.4921,1.4921,0,1,0-1.4921,1.4741,1.4829,1.4829,0,0,0,1.4921-1.4741"/><polyline class="cls-48" points="507.93 55.361 507.512 194.832 791.747 194.832 792.15 250.121"/><polyline class="cls-49" points="495.016 54.214 495.016 207.757 781.043 207.757 781.043 249.08"/><polyline class="cls-35" points="889.372 -43.078 889.372 279.891 839.533 279.891"/><polyline class="cls-36" points="892.326 -42.433 892.326 290.593 839.533 290.76"/><rect class="cls-50" x="433.6964" y="251.7596" width="5.4842" height="2.6247" transform="translate(-68.0643 252.1368) rotate(-30.0014)"/><rect class="cls-51" x="438.4969" y="255.5854" width="2.741" height="12.74"/><path class="cls-50" d="M440.2738,253.9731l-2.741-4.7489.573-.331a.6507.6507,0,0,1,.889.2379l2.091,3.6221a.65.65,0,0,1-.239.888Z"/><polygon class="cls-51" points="482.095 255.66 484.626 257.031 489.783 248.649 487.253 247.278 482.095 255.66"/><path class="cls-8" d="M427.9331,268.8091a242.1139,242.1139,0,0,1,67.5169,0l-28.383,12.0421Z"/><rect class="cls-51" x="440.404" y="332.4563" width="43.434" height="45.155"/><polygon class="cls-50" points="498.89 328.586 483.838 332.456 483.838 377.611 498.89 373.525 498.89 328.586"/><polygon class="cls-50" points="425.138 328.586 440.405 332.456 440.405 377.611 425.138 373.525 425.138 328.586"/><polygon class="cls-52" points="425.138 328.586 454.38 316.582 498.89 328.586 483.838 332.456 439.83 332.456 425.138 328.586"/><rect class="cls-52" x="445.994" y="377.6103" width="31.394" height="24.727"/><path class="cls-1" d="M495.45,328.5856a222.0866,222.0866,0,0,1-67.5171,0V268.81a379.3677,379.3677,0,0,0,67.5171,0Z"/><rect class="cls-51" x="436.26" y="247.3147" width="2.7415" height="9.679" transform="translate(-67.4457 252.6598) rotate(-30.0071)"/><polygon class="cls-50" points="483.981 252.837 489.042 255.579 490.441 253.306 485.379 250.564 483.981 252.837"/><rect class="cls-51" x="482.0949" y="255.5854" width="2.922" height="12.74"/><path class="cls-50" d="M483.1225,253.9731l2.922-4.7489-.611-.331a.7185.7185,0,0,0-.947.2379l-2.229,3.6221a.6277.6277,0,0,0,.254.888Z"/><path d="M394.792,416.4519a4.0513,4.0513,0,0,1,1.7612,1.6074,4.7177,4.7177,0,0,1,.5977,2.4072,4.767,4.767,0,0,1-.5923,2.4434,3.8313,3.8313,0,0,1-1.7558,1.5547,6.7011,6.7011,0,0,1-2.835.54H388.022v6.2725h-1.3008V415.8757h5.2466A6.32,6.32,0,0,1,394.792,416.4519Zm.0952,6.5058a3.29,3.29,0,0,0,.9629-2.4707,3.7635,3.7635,0,0,0-.4126-1.7714,3.0135,3.0135,0,0,0-1.2851-1.2588,4.568,4.568,0,0,0-2.1846-.4707H388.022v6.9072h3.9458A4.0392,4.0392,0,0,0,394.8872,422.9577Z"/><path d="M405.0645,420.9a5.68,5.68,0,0,0-.8467-.0742,3.0331,3.0331,0,0,0-2.0415.6875,3.6859,3.6859,0,0,0-1.1318,1.8721v7.8916h-1.2691V419.8318h1.2373l.0318,1.7978a3.7,3.7,0,0,1,1.2851-1.4805,3.4513,3.4513,0,0,1,1.9307-.5292,3.12,3.12,0,0,1,.4653.0371,1.8906,1.8906,0,0,1,.3809.09Z"/><path d="M407.6665,425.6286v.2432a5.2718,5.2718,0,0,0,.4976,2.3008,4.035,4.035,0,0,0,1.3857,1.6445,3.5278,3.5278,0,0,0,2.0308.6035,4.1418,4.1418,0,0,0,1.8091-.3759,3.8322,3.8322,0,0,0,1.396-1.19l.8042.6035a4.6757,4.6757,0,0,1-1.6241,1.4756,5.0586,5.0586,0,0,1-6.9072-2.1631,6.2213,6.2213,0,0,1-.6611-2.8984v-.4551a6.6134,6.6134,0,0,1,.6714-3.0361,5.0925,5.0925,0,0,1,1.7983-2.041,4.447,4.447,0,0,1,2.4385-.72,4.3863,4.3863,0,0,1,2.4433.6669,4.1872,4.1872,0,0,1,1.5552,1.8506,6.61,6.61,0,0,1,.5288,2.7188v.7724Zm1.92-4.4541a3.6232,3.6232,0,0,0-1.2534,1.35,5.3068,5.3068,0,0,0-.6133,2.0254h6.8438v-.1377a4.75,4.75,0,0,0-.3965-1.8408,3.2319,3.2319,0,0,0-1.1055-1.3594,2.9772,2.9772,0,0,0-1.7558-.5126A3.2021,3.2021,0,0,0,409.5864,421.1745Z"/><path d="M419.8789,425.2683a3.2793,3.2793,0,0,1-1.3169-1.0049,2.5018,2.5018,0,0,1-.4546-1.5332,2.665,2.665,0,0,1,.4971-1.5654,3.3988,3.3988,0,0,1,1.4121-1.127,5.0628,5.0628,0,0,1,2.1211-.4179,5.3712,5.3712,0,0,1,2.2583.4394,3.3738,3.3738,0,0,1,1.4649,1.2158,3.1486,3.1486,0,0,1,.5078,1.7617h-1.28a2.0694,2.0694,0,0,0-.3491-1.1425,2.471,2.471,0,0,0-1.021-.8672,3.5634,3.5634,0,0,0-1.5811-.3281,3.7276,3.7276,0,0,0-1.56.2861,2.0937,2.0937,0,0,0-.9151.74,1.8172,1.8172,0,0,0-.0581,1.8936,2.098,2.098,0,0,0,.9043.6982,9.7223,9.7223,0,0,0,1.9146.6026,10.453,10.453,0,0,1,2.29.7666,3.3087,3.3087,0,0,1,1.2959,1.0683,2.699,2.699,0,0,1,.4229,1.5391,2.777,2.777,0,0,1-.5235,1.6611,3.3756,3.3756,0,0,1-1.4809,1.1318,6.3611,6.3611,0,0,1-4.628-.0683,3.652,3.652,0,0,1-1.5444-1.2588,2.9912,2.9912,0,0,1-.5288-1.6982h1.2588a2.1057,2.1057,0,0,0,1.02,1.7929,4.2443,4.2443,0,0,0,2.2055.5557,4.039,4.039,0,0,0,1.5972-.2861,2.3836,2.3836,0,0,0,1.01-.751,1.6689,1.6689,0,0,0,.3437-1.0156,1.8984,1.8984,0,0,0-.6557-1.4278,5.2132,5.2132,0,0,0-2.4117-.9834A10.8422,10.8422,0,0,1,419.8789,425.2683Z"/><path d="M430.88,425.2683a3.2786,3.2786,0,0,1-1.3169-1.0049,2.5018,2.5018,0,0,1-.4546-1.5332,2.6643,2.6643,0,0,1,.4971-1.5654,3.3975,3.3975,0,0,1,1.4121-1.127,5.0628,5.0628,0,0,1,2.1211-.4179,5.3712,5.3712,0,0,1,2.2583.4394,3.3735,3.3735,0,0,1,1.4648,1.2158,3.1478,3.1478,0,0,1,.5078,1.7617h-1.28a2.0687,2.0687,0,0,0-.3492-1.1425,2.47,2.47,0,0,0-1.021-.8672,3.563,3.563,0,0,0-1.581-.3281,3.7281,3.7281,0,0,0-1.5606.2861,2.0934,2.0934,0,0,0-.915.74,1.8172,1.8172,0,0,0-.0581,1.8936,2.098,2.098,0,0,0,.9043.6982,9.7209,9.7209,0,0,0,1.9145.6026,10.454,10.454,0,0,1,2.2906.7666,3.3094,3.3094,0,0,1,1.2959,1.0683,2.6989,2.6989,0,0,1,.4228,1.5391,2.777,2.777,0,0,1-.5234,1.6611,3.3753,3.3753,0,0,1-1.481,1.1318,6.3608,6.3608,0,0,1-4.6279-.0683,3.6514,3.6514,0,0,1-1.5444-1.2588,2.99,2.99,0,0,1-.5288-1.6982h1.2587a2.1059,2.1059,0,0,0,1.02,1.7929,4.2447,4.2447,0,0,0,2.2056.5557,4.04,4.04,0,0,0,1.5972-.2861,2.3839,2.3839,0,0,0,1.01-.751,1.669,1.669,0,0,0,.3438-1.0156,1.8985,1.8985,0,0,0-.6558-1.4278,5.2123,5.2123,0,0,0-2.4116-.9834A10.8422,10.8422,0,0,1,430.88,425.2683Z"/><path d="M448.9116,419.8318v11.4453h-1.2163l-.0317-1.4492a4.087,4.087,0,0,1-3.6392,1.6611,3.65,3.65,0,0,1-2.7714-1.042,4.6452,4.6452,0,0,1-.9942-3.2949v-7.32h1.2695v7.3408a3.471,3.471,0,0,0,.7247,2.4648,2.5431,2.5431,0,0,0,1.92.751,3.8605,3.8605,0,0,0,2.29-.6084,3.1173,3.1173,0,0,0,1.1792-1.6553v-8.2929Z"/><path d="M457.4907,420.9a5.6792,5.6792,0,0,0-.8466-.0742,3.0331,3.0331,0,0,0-2.0415.6875,3.6867,3.6867,0,0,0-1.1319,1.8721v7.8916h-1.269V419.8318h1.2373l.0317,1.7978a3.7,3.7,0,0,1,1.2852-1.4805,3.4509,3.4509,0,0,1,1.9306-.5292,3.12,3.12,0,0,1,.4654.0371,1.8894,1.8894,0,0,1,.3808.09Z"/><path d="M460.0928,425.6286v.2432a5.2718,5.2718,0,0,0,.4976,2.3008,4.0343,4.0343,0,0,0,1.3857,1.6445,3.5276,3.5276,0,0,0,2.0308.6035,4.1414,4.1414,0,0,0,1.809-.3759,3.8314,3.8314,0,0,0,1.396-1.19l.8042.6035a4.6753,4.6753,0,0,1-1.624,1.4756,5.0586,5.0586,0,0,1-6.9072-2.1631,6.2213,6.2213,0,0,1-.6611-2.8984v-.4551a6.6146,6.6146,0,0,1,.6713-3.0361,5.0935,5.0935,0,0,1,1.7984-2.041,4.4468,4.4468,0,0,1,2.4385-.72,4.3865,4.3865,0,0,1,2.4433.6669,4.1872,4.1872,0,0,1,1.5552,1.8506,6.6114,6.6114,0,0,1,.5288,2.7188v.7724Zm1.92-4.4541a3.6232,3.6232,0,0,0-1.2534,1.35,5.3068,5.3068,0,0,0-.6133,2.0254H466.99v-.1377a4.75,4.75,0,0,0-.3965-1.8408,3.2327,3.2327,0,0,0-1.1055-1.3594,2.9775,2.9775,0,0,0-1.7558-.5126A3.2018,3.2018,0,0,0,462.0127,421.1745Z"/><path d="M478.0762,423.0105a4.5994,4.5994,0,0,1-1.6816-1.375,3.3146,3.3146,0,0,1-.5923-1.9942,3.4234,3.4234,0,0,1,.6557-2.0732,4.2826,4.2826,0,0,1,1.835-1.4014,6.7869,6.7869,0,0,1,2.6816-.5029,6.0667,6.0667,0,0,1,2.7769.6084,4.5255,4.5255,0,0,1,1.8511,1.6553,4.3422,4.3422,0,0,1,.6508,2.3379h-1.3012a3.4234,3.4234,0,0,0-.4761-1.7979,3.2549,3.2549,0,0,0-1.375-1.2432,4.702,4.702,0,0,0-2.1265-.45,5.2327,5.2327,0,0,0-2.1.3809,3.0181,3.0181,0,0,0-1.3169,1.0215,2.4533,2.4533,0,0,0-.4443,1.4326,2.3265,2.3265,0,0,0,.3916,1.3389A3.4941,3.4941,0,0,0,478.7959,422a11.8937,11.8937,0,0,0,2.4434.8887,13.7162,13.7162,0,0,1,2.8349,1.0576,4.6778,4.6778,0,0,1,1.6978,1.4492,3.5821,3.5821,0,0,1,.5869,2.0733,3.4837,3.4837,0,0,1-.6767,2.1377,4.2721,4.2721,0,0,1-1.8829,1.3955,7.2758,7.2758,0,0,1-2.74.4873,7.7592,7.7592,0,0,1-2.7715-.4971,4.9572,4.9572,0,0,1-2.1475-1.5342,3.9818,3.9818,0,0,1-.8359-2.581h1.312a3.0891,3.0891,0,0,0,.64,2.0146,3.6223,3.6223,0,0,0,1.65,1.1426,6.4551,6.4551,0,0,0,2.1528.3545,5.668,5.668,0,0,0,2.1-.3594,3.1334,3.1334,0,0,0,1.3965-1.02,2.48,2.48,0,0,0,.4917-1.5185,2.6188,2.6188,0,0,0-.3916-1.4649,3.3441,3.3441,0,0,0-1.2959-1.0683,13.7158,13.7158,0,0,0-2.5225-.9258A15.0949,15.0949,0,0,1,478.0762,423.0105Z"/><path d="M502.7974,419.8318l-3.3325,11.4453h-1.0786l-2.9512-9.0869-.127-.6241-.1484.6348-2.8877,9.0762h-1.0791l-3.3213-11.4453h1.3008l2.4331,8.8115.18.9726.2539-1.0253,2.75-8.7588h1.0893l2.708,8.6845.3072,1.1953.2324-1.1,2.3589-8.7793Z"/><path d="M506.6319,415.907a.8415.8415,0,0,1,.2378.6132.8088.8088,0,0,1-.2378.5977.8633.8633,0,0,1-.64.2383.8494.8494,0,0,1-.6294-.2383.8088.8088,0,0,1-.2378-.5977.8242.8242,0,0,1,.8672-.8564A.855.855,0,0,1,506.6319,415.907Zm-1.2745,15.37V419.8318h1.2588v11.4453Z"/><path d="M514.6348,431.3191a3.2471,3.2471,0,0,1-.5977.122,6.0922,6.0922,0,0,1-.7563.0479,2.4226,2.4226,0,0,1-1.84-.6875,3.3077,3.3077,0,0,1-.6563-2.3174v-7.6162H508.69v-1.0361h2.0942v-2.94h1.28v2.94h2.3589v1.0361h-2.3589v7.6162a2.1309,2.1309,0,0,0,.3965,1.4971,1.4648,1.4648,0,0,0,1.0844.3965,6.2372,6.2372,0,0,0,1.0367-.1162Z"/><path d="M525.7105,427.7331a3.61,3.61,0,0,1-.6558,1.9307,4.0835,4.0835,0,0,1-1.5918,1.3437,4.8377,4.8377,0,0,1-2.1421.4815,4.4657,4.4657,0,0,1-4.3266-2.7822,7.29,7.29,0,0,1-.5606-2.9307v-.4443a7.3006,7.3006,0,0,1,.5606-2.9248,4.4578,4.4578,0,0,1,4.3051-2.7871,4.8371,4.8371,0,0,1,2.211.497,3.8862,3.8862,0,0,1,1.5654,1.4229,4.2986,4.2986,0,0,1,.6348,2.1426h-1.2056a3.2456,3.2456,0,0,0-.4814-1.5821,2.8944,2.8944,0,0,0-1.1426-1.0361,3.4247,3.4247,0,0,0-1.5816-.3652,3.231,3.231,0,0,0-2.0463.63,3.6128,3.6128,0,0,0-1.1851,1.6758,6.8553,6.8553,0,0,0-.3755,2.3272v.4443a6.9393,6.9393,0,0,0,.37,2.333,3.5614,3.5614,0,0,0,1.1851,1.6709,3.29,3.29,0,0,0,2.0732.63,3.7032,3.7032,0,0,0,1.5181-.3125,2.8556,2.8556,0,0,0,1.1528-.915,2.7061,2.7061,0,0,0,.5132-1.4493Z"/><path d="M535.9771,420.6247a4.5822,4.5822,0,0,1,.936,3.1944v7.458h-1.2695v-7.458a3.39,3.39,0,0,0-.6875-2.4,2.6744,2.6744,0,0,0-2.01-.709,3.08,3.08,0,0,0-2.1157.7773,4.6,4.6,0,0,0-1.29,1.9307v7.8594H528.271V415.029H529.54v6.7168a4.5422,4.5422,0,0,1,1.5761-1.5595,4.151,4.151,0,0,1,2.1475-.5664A3.5278,3.5278,0,0,1,535.9771,420.6247Z"/><polyline class="cls-53" points="689.811 278.761 628.85 278.594 628.85 230.374 436.439 230.374 436.439 248.806"/><polyline class="cls-53" points="689.811 289.464 625.249 289.297 625.249 234.181 486.044 234.181 486.044 249.224"/><polygon class="cls-54" points="12.563 88.659 13.833 524.02 1428.507 524.02 1429.777 179.409 339.782 178.139 339.782 88.659 12.563 88.659"/><path d="M41.3648,133.2292H39.4883a.4477.4477,0,0,1-.5068-.5068V114.5818a.4475.4475,0,0,1,.5068-.5059h7.0894a4.2165,4.2165,0,0,1,4.6171,4.6172v3.0977a4.2356,4.2356,0,0,1-4.6171,4.6171H42.2285q-.3573,0-.3574.2979v6.0166A.4478.4478,0,0,1,41.3648,133.2292Zm.834-9.3828h3.9619q2.1144,0,2.1147-2.2051v-2.8291q0-2.2045-2.1147-2.205H42.1988q-.3282,0-.3277.2978v6.6436Q41.8711,123.8459,42.1988,123.8464Z"/><path d="M57.0928,133.2292H55.2461a.4477.4477,0,0,1-.5068-.5068V114.5818a.4475.4475,0,0,1,.5068-.5059h1.668a.6806.6806,0,0,1,.6553.3272l7.2085,12.958h.1191V114.5818a.4474.4474,0,0,1,.5063-.5059h1.8472a.4476.4476,0,0,1,.5064.5059v18.1406a.4478.4478,0,0,1-.5064.5068H65.6416a.8883.8883,0,0,1-.7744-.4765l-7.1489-12.8086h-.1192v12.7783A.4478.4478,0,0,1,57.0928,133.2292Z"/><path d="M82.1739,133.2292H72.6421a.4477.4477,0,0,1-.5068-.5068V114.5818a.4475.4475,0,0,1,.5068-.5059h9.5318q.476,0,.4765.5059v1.5195c0,.3379-.1592.5059-.4765.5059H75.3823q-.3573,0-.3574.2978v5.0342c0,.1992.1192.2978.3574.2978h5.7491q.5361,0,.5361.5069v1.52c0,.3379-.1787.5059-.5361.5059H75.3823q-.3573,0-.3574.2978V130.37c0,.2187.1192.3271.3574.3271h6.7916q.476,0,.4765.5068v1.5186Q82.65,133.2293,82.1739,133.2292Z"/><path d="M96.4419,114.0759h1.877q.5361,0,.5361.4766v14.06a4.5569,4.5569,0,0,1-1.2363,3.3955,4.6415,4.6415,0,0,1-3.4107,1.2217H90.9014a4.2359,4.2359,0,0,1-4.6172-4.6172v-14.03a.4474.4474,0,0,1,.5064-.5059h1.8769a.4476.4476,0,0,1,.5064.5059v13.9111a1.9221,1.9221,0,0,0,2.1445,2.2041h2.4429a1.9351,1.9351,0,0,0,2.1743-2.2041V114.5818A.4473.4473,0,0,1,96.4419,114.0759Z"/><path d="M116.1616,114.0759h3.3365a.4475.4475,0,0,1,.5063.5059v18.1406a.4478.4478,0,0,1-.5063.5068h-1.8472a.4476.4476,0,0,1-.5063-.5068V117.68h-.1192l-3.8725,10.9023a.656.656,0,0,1-.6553.4766h-1.9063a.6381.6381,0,0,1-.6255-.4766L106.0039,117.65h-.1191v15.0723a.41.41,0,0,1-.5064.5068h-1.8169a.4478.4478,0,0,1-.5068-.5068V114.5818a.4475.4475,0,0,1,.5068-.5059h3.336a.4973.4973,0,0,1,.4765.3272l4.0811,11.498h.1489l4.1109-11.498A.3913.3913,0,0,1,116.1616,114.0759Z"/><path d="M125.396,133.2292h-2.145q-.4175,0-.2979-.5068l5.1832-18.1406a.668.668,0,0,1,.7148-.5059h2.979a.6423.6423,0,0,1,.7148.5059l5.1832,18.1406q.1186.5069-.3277.5068h-2.1152a.5168.5168,0,0,1-.3721-.1045.8036.8036,0,0,1-.1641-.4023l-1.1318-3.8721H127.064l-1.1318,3.8721Q125.8128,133.2293,125.396,133.2292Zm4.8853-16.2939-2.6216,9.5322h5.3916L130.4,116.9353Z"/><path d="M145.9488,133.2292h-1.8765q-.5361,0-.5361-.5068V116.905a.2636.2636,0,0,0-.2979-.2978h-3.7534c-.3574,0-.5361-.168-.5361-.5059v-1.5195q0-.5054.5361-.5059h11.0513q.5361,0,.5361.5059v1.5195c0,.3379-.1787.5059-.5361.5059h-3.753q-.328,0-.3281.2978v15.8174A.4478.4478,0,0,1,145.9488,133.2292Z"/><path d="M156.7022,114.5818v18.1406a.4478.4478,0,0,1-.5064.5068h-1.8764a.448.448,0,0,1-.5069-.5068V114.5818a.4478.4478,0,0,1,.5069-.5059h1.8764A.4476.4476,0,0,1,156.7022,114.5818Z"/><path d="M169.0044,133.2292h-3.4555a4.2171,4.2171,0,0,1-4.6172-4.6172v-9.9189a4.1983,4.1983,0,0,1,4.6172-4.6172h3.4555a4.216,4.216,0,0,1,4.6172,4.6172v1.43a.4738.4738,0,0,1-.5361.5361h-1.877q-.5068,0-.5063-.5361v-1.3106a1.9229,1.9229,0,0,0-2.1446-2.205h-2.5918a1.9228,1.9228,0,0,0-2.1445,2.205v9.6807a1.9222,1.9222,0,0,0,2.1445,2.2041h2.5918a1.9222,1.9222,0,0,0,2.1446-2.2041v-1.31q0-.5362.5063-.5362h1.877a.4739.4739,0,0,1,.5361.5362v1.43a4.2352,4.2352,0,0,1-4.6172,4.6172Z"/><path d="M176.9571,128.5827v-.7753a.4473.4473,0,0,1,.5063-.5059H179.37a.4476.4476,0,0,1,.5064.5059v.5371a2.4748,2.4748,0,0,0,.5508,1.8017,2.5273,2.5273,0,0,0,1.832.5508h2.0557a2.494,2.494,0,0,0,1.8466-.5811,2.6409,2.6409,0,0,0,.566-1.8906V127.54a1.7825,1.7825,0,0,0-.73-1.5039,3.926,3.926,0,0,0-1.8023-.7149q-1.0722-.1641-2.3535-.4619a20.6083,20.6083,0,0,1-2.353-.6855,3.6813,3.6813,0,0,1-1.8023-1.459,4.7723,4.7723,0,0,1-.73-2.7412v-1.251a4.28,4.28,0,0,1,4.6469-4.6465h3.1577a4.2838,4.2838,0,0,1,4.6768,4.6465v.6553a.4478.4478,0,0,1-.5063.5068h-1.9068a.4476.4476,0,0,1-.5063-.5068v-.3868a2.0208,2.0208,0,0,0-2.3828-2.3837h-1.877a2.4442,2.4442,0,0,0-1.832.581,2.8471,2.8471,0,0,0-.5508,1.9815v.9228q0,1.34,1.936,1.8174.8636.2081,1.8916.3574a15.7241,15.7241,0,0,1,2.07.4473,8.6041,8.6041,0,0,1,1.9063.789,3.6368,3.6368,0,0,1,1.4,1.4893,5.0731,5.0731,0,0,1,.5361,2.4277v1.1621a4.28,4.28,0,0,1-4.647,4.6465h-3.3364a4.66,4.66,0,0,1-3.4253-1.2363A4.5742,4.5742,0,0,1,176.9571,128.5827Z"/><path d="M210.2168,244.0818a5.6833,5.6833,0,0,1-3.9619,1.3173,5.39,5.39,0,0,1-3.0464-.8681,5.6623,5.6623,0,0,1-2.0307-2.4434,8.6738,8.6738,0,0,1-.7193-3.6386v-1.9249a8.664,8.664,0,0,1,.7193-3.6445,5.4336,5.4336,0,0,1,5.1621-3.3056,6.2849,6.2849,0,0,1,2.8242.5927,4.57,4.57,0,0,1,1.8935,1.7188,6.269,6.269,0,0,1,.857,2.7129h-1.3013q-.4973-3.9141-4.2734-3.9141a4.1632,4.1632,0,0,0-2.4439.7246,4.5653,4.5653,0,0,0-1.5864,2.0371,7.8544,7.8544,0,0,0-.55,3.0567v1.9463a8.1354,8.1354,0,0,0,.5288,3.03,4.6173,4.6173,0,0,0,1.5444,2.0733,3.9751,3.9751,0,0,0,2.4224.7461,4.35,4.35,0,0,0,3.0571-.9678,4.6778,4.6778,0,0,0,1.3013-2.9463h1.3013A5.5393,5.5393,0,0,1,210.2168,244.0818Z"/><path d="M214.7281,236.323a4.9207,4.9207,0,0,1,1.7929-2.0528,5.2179,5.2179,0,0,1,5.3579,0,4.9066,4.9066,0,0,1,1.7984,2.0528,6.7419,6.7419,0,0,1,.6347,2.9726v.3379a6.7423,6.7423,0,0,1-.6347,2.9727,4.9242,4.9242,0,0,1-1.7876,2.0517,4.8415,4.8415,0,0,1-2.6763.7412,4.8063,4.8063,0,0,1-4.4853-2.7929,6.741,6.741,0,0,1-.6348-2.9727v-.3379A6.7405,6.7405,0,0,1,214.7281,236.323Zm1.0844,5.6592a3.9428,3.9428,0,0,0,1.3223,1.7031,3.4392,3.4392,0,0,0,2.0786.6347,3.3987,3.3987,0,0,0,2.0625-.6347,3.9649,3.9649,0,0,0,1.3169-1.7031,5.9935,5.9935,0,0,0,.45-2.3487v-.3379a5.8848,5.8848,0,0,0-.4546-2.3271,4.0583,4.0583,0,0,0-1.3276-1.7139,3.6272,3.6272,0,0,0-4.1309,0,4.0286,4.0286,0,0,0-1.3169,1.7139,5.934,5.934,0,0,0-.45,2.3271v.3379A5.9935,5.9935,0,0,0,215.8125,241.9822Z"/><path d="M241.9668,234.5456a4.5361,4.5361,0,0,1,.9517,3.1836v7.458H241.66V237.72a3.2831,3.2831,0,0,0-.7139-2.4014,2.7907,2.7907,0,0,0-2.0361-.6982,3.3049,3.3049,0,0,0-2.9194,1.5869,3.2631,3.2631,0,0,0-.4761,1.4062v7.5742h-1.2695V237.613a3.077,3.077,0,0,0-.7247-2.3056,2.8739,2.8739,0,0,0-2.0576-.6875,3.0356,3.0356,0,0,0-2.1523.7617,4.2955,4.2955,0,0,0-1.18,1.9355v7.87h-1.269V233.7419h1.227l.0317,1.8506a4.1811,4.1811,0,0,1,3.7129-2.0625,4.0857,4.0857,0,0,1,2.1787.54,2.947,2.947,0,0,1,1.2486,1.6709,4.3444,4.3444,0,0,1,1.581-1.6074,4.4621,4.4621,0,0,1,2.3326-.6035A3.647,3.647,0,0,1,241.9668,234.5456Z"/><path d="M255.37,239.5808a8.2278,8.2278,0,0,1-.5186,3.03,4.5681,4.5681,0,0,1-1.5073,2.0527,3.8173,3.8173,0,0,1-2.3428.7353,4.7807,4.7807,0,0,1-2.0894-.4335,3.9874,3.9874,0,0,1-1.4965-1.2276v5.85h-1.27V233.7419H247.33l.0635,1.6182a4.0246,4.0246,0,0,1,1.4917-1.3594,4.4548,4.4548,0,0,1,2.0942-.4707,3.9329,3.9329,0,0,1,2.3643.7139,4.4294,4.4294,0,0,1,1.5073,2.0263,8.376,8.376,0,0,1,.5186,3.0889Zm-1.27-.2217a7.3154,7.3154,0,0,0-.3755-2.4336,3.6557,3.6557,0,0,0-1.1372-1.6816,2.92,2.92,0,0,0-1.8935-.6133,3.32,3.32,0,0,0-2.0625.6025,3.8835,3.8835,0,0,0-1.2163,1.5762v5.5117a3.4177,3.4177,0,0,0,3.3,1.999,2.8889,2.8889,0,0,0,1.8774-.6132,3.6753,3.6753,0,0,0,1.1318-1.6875,7.3578,7.3578,0,0,0,.3755-2.4385Z"/><path d="M263.4517,234.81a5.68,5.68,0,0,0-.8467-.0742,3.0331,3.0331,0,0,0-2.0415.6875,3.6862,3.6862,0,0,0-1.1318,1.872v7.8916h-1.2691V233.7419H259.4l.0318,1.7979a3.6984,3.6984,0,0,1,1.2851-1.4805,3.4513,3.4513,0,0,1,1.9307-.5293,3.1335,3.1335,0,0,1,.4653.0371,1.89,1.89,0,0,1,.3809.09Z"/><path d="M266.0537,239.5388v.2432a5.2716,5.2716,0,0,0,.4976,2.3007,4.0353,4.0353,0,0,0,1.3857,1.6446,3.5286,3.5286,0,0,0,2.0308.6035,4.1418,4.1418,0,0,0,1.8091-.376,3.8328,3.8328,0,0,0,1.396-1.19l.8042.6035a4.6753,4.6753,0,0,1-1.624,1.4756,5.0589,5.0589,0,0,1-6.9073-2.1631,6.2213,6.2213,0,0,1-.6611-2.8984v-.4551a6.6134,6.6134,0,0,1,.6714-3.0361,5.0928,5.0928,0,0,1,1.7983-2.0411,4.447,4.447,0,0,1,2.4385-.72,4.3869,4.3869,0,0,1,2.4434.667,4.1865,4.1865,0,0,1,1.5551,1.8506,6.6093,6.6093,0,0,1,.5288,2.7187v.7725Zm1.92-4.4541a3.6234,3.6234,0,0,0-1.2535,1.35,5.3045,5.3045,0,0,0-.6132,2.0254h6.8437v-.1377a4.7488,4.7488,0,0,0-.3965-1.8408,3.2325,3.2325,0,0,0-1.1054-1.3594,2.9771,2.9771,0,0,0-1.7559-.5127A3.2015,3.2015,0,0,0,267.9737,235.0847Z"/><path d="M278.2661,239.1784a3.2792,3.2792,0,0,1-1.3169-1.0048,2.502,2.502,0,0,1-.4545-1.5332,2.6654,2.6654,0,0,1,.497-1.5655,3.3994,3.3994,0,0,1,1.4121-1.1269,5.0628,5.0628,0,0,1,2.1211-.418,5.3711,5.3711,0,0,1,2.2583.44,3.3738,3.3738,0,0,1,1.4649,1.2158,3.1484,3.1484,0,0,1,.5078,1.7617h-1.28a2.07,2.07,0,0,0-.3491-1.1426,2.4717,2.4717,0,0,0-1.021-.8672,3.5648,3.5648,0,0,0-1.5811-.3281,3.7276,3.7276,0,0,0-1.56.2861,2.0946,2.0946,0,0,0-.9151.74,1.817,1.817,0,0,0-.0581,1.8935,2.0981,2.0981,0,0,0,.9043.6983,9.7254,9.7254,0,0,0,1.9146.6025,10.4583,10.4583,0,0,1,2.2905.7666,3.3081,3.3081,0,0,1,1.2959,1.0684,2.6989,2.6989,0,0,1,.4229,1.539,2.7776,2.7776,0,0,1-.5235,1.6612,3.3763,3.3763,0,0,1-1.4809,1.1318,6.3618,6.3618,0,0,1-4.628-.0684,3.6518,3.6518,0,0,1-1.5444-1.2587,2.9913,2.9913,0,0,1-.5288-1.6983h1.2588a2.1059,2.1059,0,0,0,1.0205,1.793,4.2444,4.2444,0,0,0,2.2056.5556,4.0389,4.0389,0,0,0,1.5971-.2861,2.382,2.382,0,0,0,1.01-.751,1.6684,1.6684,0,0,0,.3437-1.0156,1.8982,1.8982,0,0,0-.6557-1.4277,5.2122,5.2122,0,0,0-2.4117-.9834A10.8354,10.8354,0,0,1,278.2661,239.1784Z"/><path d="M289.2681,239.1784a3.2785,3.2785,0,0,1-1.3169-1.0048,2.502,2.502,0,0,1-.4546-1.5332,2.6648,2.6648,0,0,1,.4971-1.5655,3.3981,3.3981,0,0,1,1.4121-1.1269,5.0625,5.0625,0,0,1,2.1211-.418,5.3711,5.3711,0,0,1,2.2583.44,3.3735,3.3735,0,0,1,1.4648,1.2158,3.1476,3.1476,0,0,1,.5078,1.7617h-1.28a2.0693,2.0693,0,0,0-.3492-1.1426,2.4711,2.4711,0,0,0-1.021-.8672,3.5644,3.5644,0,0,0-1.581-.3281,3.7278,3.7278,0,0,0-1.5606.2861,2.0943,2.0943,0,0,0-.915.74,1.817,1.817,0,0,0-.0581,1.8935,2.0975,2.0975,0,0,0,.9043.6983,9.7219,9.7219,0,0,0,1.9145.6025,10.4612,10.4612,0,0,1,2.2906.7666,3.31,3.31,0,0,1,1.2959,1.0684,2.6988,2.6988,0,0,1,.4228,1.539,2.7775,2.7775,0,0,1-.5234,1.6612,3.3761,3.3761,0,0,1-1.481,1.1318,6.3616,6.3616,0,0,1-4.6279-.0684,3.6512,3.6512,0,0,1-1.5444-1.2587,2.9906,2.9906,0,0,1-.5289-1.6983h1.2588a2.1061,2.1061,0,0,0,1.02,1.793,4.2446,4.2446,0,0,0,2.2056.5556,4.04,4.04,0,0,0,1.5972-.2861,2.3823,2.3823,0,0,0,1.01-.751,1.6685,1.6685,0,0,0,.3438-1.0156,1.8983,1.8983,0,0,0-.6558-1.4277,5.2123,5.2123,0,0,0-2.4116-.9834A10.8354,10.8354,0,0,1,289.2681,239.1784Z"/><path d="M298.6353,236.323a4.9213,4.9213,0,0,1,1.7929-2.0528,5.2181,5.2181,0,0,1,5.358,0,4.9063,4.9063,0,0,1,1.7983,2.0528,6.7419,6.7419,0,0,1,.6348,2.9726v.3379a6.7424,6.7424,0,0,1-.6348,2.9727,4.9229,4.9229,0,0,1-1.7876,2.0517,4.841,4.841,0,0,1-2.6763.7412,4.8063,4.8063,0,0,1-4.4853-2.7929,6.741,6.741,0,0,1-.6348-2.9727v-.3379A6.7405,6.7405,0,0,1,298.6353,236.323Zm1.0844,5.6592a3.9435,3.9435,0,0,0,1.3223,1.7031,3.4394,3.4394,0,0,0,2.0786.6347,3.3987,3.3987,0,0,0,2.0625-.6347,3.9642,3.9642,0,0,0,1.3169-1.7031,5.9935,5.9935,0,0,0,.45-2.3487v-.3379a5.883,5.883,0,0,0-.4546-2.3271,4.0583,4.0583,0,0,0-1.3276-1.7139,3.6272,3.6272,0,0,0-4.1309,0,4.0293,4.0293,0,0,0-1.3169,1.7139,5.934,5.934,0,0,0-.45,2.3271v.3379A5.9935,5.9935,0,0,0,299.72,241.9822Z"/><path d="M316.1431,234.81a5.6793,5.6793,0,0,0-.8467-.0742,3.0331,3.0331,0,0,0-2.0415.6875,3.6862,3.6862,0,0,0-1.1318,1.872v7.8916H310.854V233.7419h1.2373l.0318,1.7979a3.6991,3.6991,0,0,1,1.2851-1.4805,3.4513,3.4513,0,0,1,1.9307-.5293,3.1335,3.1335,0,0,1,.4653.0371,1.89,1.89,0,0,1,.3809.09Z"/><rect class="cls-55" x="147.867" y="181.0453" width="15.816" height="14.393"/><path class="cls-55" d="M129.1753,185.6206H87.6612A2.2512,2.2512,0,0,1,85.41,183.37v-6.0721a2.2512,2.2512,0,0,1,2.2509-2.2509h41.5141a2.2511,2.2511,0,0,1,2.2509,2.2509V183.37a2.2511,2.2511,0,0,1-2.2509,2.2509"/><rect class="cls-56" x="72.29" y="198.5453" width="72.256" height="80.479"/><path class="cls-57" d="M147.3793,289.5972H69.4573a3.04,3.04,0,0,1-3.041-3.0409v-4.4911a3.04,3.04,0,0,1,3.041-3.041h77.922a3.04,3.04,0,0,1,3.041,3.041v4.4911a3.04,3.04,0,0,1-3.041,3.0409"/><path class="cls-58" d="M338.8158,407.6733h-180.65a3.633,3.633,0,0,1-3.6331-3.633V293.23a3.633,3.633,0,0,1,3.6331-3.633h180.65a3.6336,3.6336,0,0,1,3.633,3.633V404.04a3.6335,3.6335,0,0,1-3.633,3.633"/><path class="cls-55" d="M155.5082,410.6108H72.4893a2.5491,2.5491,0,0,1-2.5481-2.5489V289.21a2.5478,2.5478,0,0,1,2.5481-2.5489h83.0189a2.548,2.548,0,0,1,2.549,2.5489V408.0619a2.5493,2.5493,0,0,1-2.549,2.5489"/><polyline class="cls-59" points="69.941 286.661 69.941 437.633 39.394 437.633"/><polyline class="cls-60" points="342.449 289.597 342.449 437.632 372.949 437.632"/><path class="cls-57" d="M147.8666,205.2994H68.9706a2.5534,2.5534,0,0,1-2.554-2.554v-19.858a2.554,2.554,0,0,1,2.554-2.554h78.896a2.5547,2.5547,0,0,1,2.554,2.554v19.858a2.554,2.554,0,0,1-2.554,2.554"/><rect class="cls-58" x="145.747" y="205.2994" width="2.216" height="73.725"/><rect class="cls-58" x="68.833" y="205.2994" width="2.216" height="73.725"/><rect class="cls-58" x="108.4179" y="205.2994" width="2.216" height="73.725"/><path class="cls-57" d="M171.1547,198.0815H164.39a.7077.7077,0,0,1-.707-.7079v-18.265a.7076.7076,0,0,1,.707-.7071h6.765a.707.707,0,0,1,.707.7071v18.265a.7071.7071,0,0,1-.707.7079"/><rect class="cls-55" x="171.861" y="181.0453" width="4.223" height="14.393"/><path class="cls-57" d="M183.5561,198.0815H176.791a.7077.7077,0,0,1-.707-.7079v-18.265a.7076.7076,0,0,1,.707-.7071h6.7651a.707.707,0,0,1,.7069.7071v18.265a.7071.7071,0,0,1-.7069.7079"/><rect class="cls-55" x="184.263" y="181.0453" width="4.223" height="14.393"/><path class="cls-61" d="M307.16,309.6705a9.716,9.716,0,1,1-9.716-9.715A9.7167,9.7167,0,0,1,307.16,309.6705Z"/><path class="cls-6" d="M307.16,309.6705a9.716,9.716,0,1,1-9.716-9.715,9.7167,9.7167,0,0,1,9.716,9.715"/><polyline class="cls-48" points="689.811 312.674 614.449 312.674 614.449 502.619 291.521 502.619 291.521 309.67"/><polyline class="cls-49" points="689.81 299.567 601.708 299.567 601.708 487.704 303.167 487.704 303.167 309.671"/><path d="M629.84,337.2488v-6.94l-2.0894.7773v-.5917l2.6182-.9786h.1054v7.7325Z"/><path d="M637.89,334.0329a1.8522,1.8522,0,0,1,.3964,1.1739,2.07,2.07,0,0,1-.32,1.167,2.0091,2.0091,0,0,1-.8755.7324,3.305,3.305,0,0,1-2.5122,0,2.0078,2.0078,0,0,1-.875-.7324,2.07,2.07,0,0,1-.32-1.167,1.88,1.88,0,0,1,.3916-1.1768,2.1851,2.1851,0,0,1,1.0523-.7373,1.9783,1.9783,0,0,1-.91-.6953,1.801,1.801,0,0,1-.333-1.0713,2.1021,2.1021,0,0,1,.2881-1.1211,1.8656,1.8656,0,0,1,.7959-.7168,2.85,2.85,0,0,1,2.3169,0,1.8933,1.8933,0,0,1,.8066.7168,2.0784,2.0784,0,0,1,.2935,1.1211,1.76,1.76,0,0,1-.3413,1.0684,2.07,2.07,0,0,1-.9175.6982A2.2549,2.2549,0,0,1,637.89,334.0329Zm-1.108,2.5948a1.4583,1.4583,0,0,0,.64-.5528,1.5913,1.5913,0,0,0,.23-.8681,1.5507,1.5507,0,0,0-.2383-.8535,1.6014,1.6014,0,0,0-.6533-.5792,2.2145,2.2145,0,0,0-1.87,0,1.5574,1.5574,0,0,0-.6425.5762,1.7351,1.7351,0,0,0,0,1.7266,1.4593,1.4593,0,0,0,.64.5508,2.484,2.484,0,0,0,1.8935,0Zm-2.3618-4.3106a1.3832,1.3832,0,0,0,.5743.5254,1.98,1.98,0,0,0,1.6738,0,1.3966,1.3966,0,0,0,.5791-.5254,1.5265,1.5265,0,0,0-.59-2.1367,1.7223,1.7223,0,0,0-.83-.1992,1.8052,1.8052,0,0,0-.833.1885,1.3832,1.3832,0,0,0-.5743.5361,1.589,1.589,0,0,0-.206.82A1.5018,1.5018,0,0,0,634.42,332.3171Z"/><path d="M646.6284,335.0906H643.127l-.7935,2.1582h-.6767l2.9087-7.7012h.6191l2.9141,7.7012h-.6768Zm-.2065-.5547-1.5444-4.1944-1.544,4.1944Z"/><path d="M657.6929,329.5476l-1.9673,7.7012h-.624l-1.751-6.0245-.19-.7666-.1953.7666-1.7827,6.0245h-.6241l-1.9726-7.7012h.6665l1.4067,5.623.2432,1.1953.291-1.1484,1.6714-5.67h.5869l1.645,5.67.291,1.1533.2486-1.206,1.3911-5.6172Z"/><path d="M664.0108,336.7937a3.0248,3.0248,0,0,1-.8833.3965,4.5887,4.5887,0,0,1-1.2984.164,3.0038,3.0038,0,0,1-1.6054-.4306,2.9036,2.9036,0,0,1-1.0923-1.23,4.1719,4.1719,0,0,1-.3911-1.8565v-.9365a4.3156,4.3156,0,0,1,.3623-1.833,2.7447,2.7447,0,0,1,1.0366-1.2031,2.9241,2.9241,0,0,1,1.5893-.4229,3.1966,3.1966,0,0,1,1.4229.291,2.2871,2.2871,0,0,1,.9282.8037,2.7614,2.7614,0,0,1,.42,1.18h-.6509a1.9273,1.9273,0,0,0-2.1206-1.7187,2.1743,2.1743,0,0,0-1.2641.3594,2.2349,2.2349,0,0,0-.7959,1.01,3.9249,3.9249,0,0,0-.2725,1.5235v.9472a3.78,3.78,0,0,0,.3013,1.56,2.3842,2.3842,0,0,0,.8545,1.04,2.2592,2.2592,0,0,0,1.2822.3672,3.9206,3.9206,0,0,0,.96-.1054,2.7061,2.7061,0,0,0,.6772-.2569,1.357,1.357,0,0,0,.3887-.31v-1.9882H661.792v-.5557h2.7134v2.74A2.0223,2.0223,0,0,1,664.0108,336.7937Z"/></svg>